<svg width="20" height="20" viewBox="0 0 20 20" fill="none" xmlns="http://www.w3.org/2000/svg">
<g clip-path="url(#clip0_10184_9164)">
<path d="M2.49995 2.5C2.49493 2.27805 2.5343 2.05734 2.61576 1.85081C2.69721 1.64429 2.81911 1.45612 2.97428 1.29736C3.12946 1.13859 3.31479 1.01243 3.5194 0.926272C3.72401 0.840118 3.94376 0.795709 4.16577 0.795654C4.38778 0.795598 4.60756 0.839897 4.81221 0.925949C5.01686 1.012 5.20225 1.13807 5.35751 1.29676C5.51277 1.45545 5.63475 1.64356 5.71631 1.85004C5.79787 2.05652 5.83735 2.27722 5.83245 2.49917C5.82282 2.93463 5.64309 3.34903 5.33175 3.65364C5.0204 3.95825 4.60218 4.12888 4.1666 4.12899C3.73103 4.1291 3.31272 3.95868 3.00122 3.65422C2.68973 3.34977 2.50979 2.93546 2.49995 2.5ZM9.99995 4.16667C10.5525 4.16667 11.0824 3.94717 11.4731 3.55647C11.8638 3.16577 12.0833 2.63587 12.0833 2.08333C12.0833 1.5308 11.8638 1.0009 11.4731 0.610194C11.0824 0.219493 10.5525 0 9.99995 0C9.44741 0 8.91751 0.219493 8.52681 0.610194C8.13611 1.0009 7.91661 1.5308 7.91661 2.08333C7.91661 2.63587 8.13611 3.16577 8.52681 3.55647C8.91751 3.94717 9.44741 4.16667 9.99995 4.16667ZM15.8333 4.16667C16.0552 4.17169 16.2759 4.13231 16.4825 4.05086C16.689 3.9694 16.8772 3.84751 17.0359 3.69233C17.1947 3.53715 17.3209 3.35182 17.407 3.14721C17.4932 2.94261 17.5376 2.72285 17.5376 2.50084C17.5377 2.27884 17.4934 2.05906 17.4073 1.85441C17.3213 1.64976 17.1952 1.46436 17.0365 1.3091C16.8778 1.15385 16.6897 1.03186 16.4832 0.950301C16.2768 0.868743 16.0561 0.829259 15.8341 0.834167C15.3986 0.843796 14.9842 1.02352 14.6796 1.33487C14.375 1.64621 14.2044 2.06443 14.2043 2.50001C14.2042 2.93558 14.3746 3.35389 14.6791 3.66539C14.9835 3.97689 15.3978 4.15682 15.8333 4.16667ZM10.0008 20C4.79078 20 0.509946 16.0908 0.0424465 10.9083C0.0225553 10.6882 0.0909249 10.4692 0.232515 10.2995C0.374105 10.1297 0.577317 10.0232 0.797446 10.0033C1.01758 9.98344 1.23659 10.0518 1.40631 10.1934C1.57603 10.335 1.68256 10.5382 1.70245 10.7583C1.75661 11.3625 1.87995 11.9433 2.05161 12.5H4.91828C4.78093 11.9797 4.68425 11.4495 4.62911 10.9142C4.61571 10.8039 4.62449 10.692 4.65494 10.5852C4.6854 10.4783 4.73691 10.3786 4.80646 10.292C4.876 10.2053 4.96217 10.1335 5.05989 10.0806C5.15761 10.0278 5.26492 9.99498 5.3755 9.9842C5.48608 9.97342 5.5977 9.98486 5.70379 10.0178C5.80988 10.0508 5.90831 10.1047 5.99328 10.1763C6.07825 10.2479 6.14804 10.3357 6.19856 10.4347C6.24908 10.5336 6.2793 10.6417 6.28745 10.7525C6.34578 11.3542 6.47661 11.9375 6.64911 12.5H13.3524C13.5249 11.9375 13.6558 11.3542 13.7141 10.7525C13.7223 10.6417 13.7525 10.5336 13.803 10.4347C13.8535 10.3357 13.9233 10.2479 14.0083 10.1763C14.0933 10.1047 14.1917 10.0508 14.2978 10.0178C14.4039 9.98486 14.5155 9.97342 14.6261 9.9842C14.7366 9.99498 14.8439 10.0278 14.9417 10.0806C15.0394 10.1335 15.1256 10.2053 15.1951 10.292C15.2646 10.3786 15.3162 10.4783 15.3466 10.5852C15.3771 10.692 15.3859 10.8039 15.3724 10.9142C15.3177 11.4495 15.221 11.9798 15.0833 12.5H17.9499C18.1224 11.9433 18.2449 11.3625 18.2991 10.7583C18.319 10.5382 18.4255 10.335 18.5952 10.1934C18.765 10.0518 18.984 9.98344 19.2041 10.0033C19.4242 10.0232 19.6275 10.1297 19.769 10.2995C19.9106 10.4692 19.979 10.6882 19.9591 10.9083C19.4916 16.0908 15.2108 19.9992 10.0008 20ZM7.31495 14.1667C8.16745 15.8992 9.32245 17.2692 9.99911 17.9883C10.6766 17.2692 11.8308 15.8992 12.6833 14.1667H7.31495ZM7.83745 18.0475C7.05078 17.0733 6.13995 15.74 5.47995 14.1667H2.77661C3.32069 15.1168 4.04833 15.9492 4.91716 16.6155C5.78601 17.2817 6.77869 17.7685 7.83745 18.0475ZM17.2233 14.1667H14.5199C13.8599 15.7408 12.9491 17.0733 12.1624 18.0475C13.2212 17.7685 14.2139 17.2817 15.0827 16.6155C15.9516 15.9492 16.6792 15.1168 17.2233 14.1667ZM7.20745 8.28083C7.30998 8.31931 7.4191 8.3372 7.52855 8.33348C7.638 8.32976 7.74565 8.3045 7.84533 8.25914C7.94502 8.21379 8.03479 8.14923 8.1095 8.06916C8.18422 7.98909 8.24242 7.89508 8.28078 7.7925C8.53328 7.11917 9.22411 6.66667 9.99995 6.66667C10.7758 6.66667 11.4674 7.11917 11.7191 7.7925C11.7566 7.89612 11.8143 7.99127 11.8888 8.07244C11.9633 8.15361 12.0532 8.2192 12.1533 8.26541C12.2533 8.31162 12.3615 8.33752 12.4716 8.34163C12.5818 8.34574 12.6916 8.32796 12.7948 8.28934C12.898 8.25071 12.9925 8.192 13.0729 8.1166C13.1532 8.04121 13.2179 7.95062 13.263 7.85008C13.3081 7.74955 13.3328 7.64107 13.3357 7.53091C13.3387 7.42075 13.3197 7.31111 13.2799 7.20833C12.7849 5.8875 11.4666 5.00083 9.99911 5.00083C8.53161 5.00083 7.21328 5.8875 6.71828 7.20833C6.64079 7.41521 6.6486 7.64439 6.74002 7.8455C6.83143 8.04661 6.99896 8.20319 7.20578 8.28083H7.20745ZM15.2933 5.04C15.185 5.05619 15.0809 5.09357 14.9871 5.15001C14.8932 5.20644 14.8114 5.28082 14.7463 5.3689C14.6812 5.45697 14.6341 5.55702 14.6077 5.6633C14.5813 5.76959 14.5761 5.88004 14.5924 5.98833C14.6608 6.44333 15.0833 6.75083 15.5399 6.68917C16.3824 6.56417 17.2683 7.03333 17.5533 7.7925C17.5908 7.89612 17.6485 7.99127 17.723 8.07244C17.7975 8.15361 17.8874 8.2192 17.9874 8.26541C18.0875 8.31162 18.1957 8.33752 18.3058 8.34163C18.4159 8.34574 18.5258 8.32796 18.629 8.28934C18.7322 8.25071 18.8267 8.192 18.907 8.1166C18.9874 8.04121 19.052 7.95062 19.0971 7.85008C19.1423 7.74955 19.167 7.64107 19.1699 7.53091C19.1728 7.42075 19.1539 7.31111 19.1141 7.20833C18.6191 5.8875 17.3008 5.00083 15.8333 5.00083C15.6499 5.00083 15.4691 5.01417 15.2933 5.04ZM1.37411 8.28083C1.58122 8.35808 1.81051 8.35006 2.01172 8.25852C2.21292 8.16698 2.36961 7.99939 2.44745 7.7925C2.73161 7.0325 3.61828 6.56 4.46078 6.68917C4.67947 6.72188 4.9022 6.66637 5.07997 6.53486C5.25774 6.40335 5.37599 6.20661 5.4087 5.98792C5.44141 5.76922 5.3859 5.54649 5.25439 5.36872C5.12288 5.19096 4.92614 5.07271 4.70745 5.04C4.52866 5.01356 4.34818 5.00019 4.16745 5C2.69995 5 1.38161 5.88667 0.886613 7.2075C0.809118 7.41437 0.816937 7.64355 0.908352 7.84466C0.999766 8.04578 1.16729 8.20236 1.37411 8.28V8.28083Z" fill="#01C7FB"/>
</g>
<defs>
<clipPath id="clip0_10184_9164">
<rect width="20" height="20" fill="white"/>
</clipPath>
</defs>
</svg>
