<svg width="20" height="20" viewBox="0 0 20 20" fill="none" xmlns="http://www.w3.org/2000/svg">
<path d="M11.6662 4.16667C11.6662 3.70583 12.0387 3.33333 12.4995 3.33333H14.9995V0.833333C14.9995 0.3725 15.372 0 15.8328 0C16.2937 0 16.6662 0.3725 16.6662 0.833333V3.33333H19.1662C19.627 3.33333 19.9995 3.70583 19.9995 4.16667C19.9995 4.6275 19.627 5 19.1662 5H16.6662V7.5C16.6662 7.96083 16.2937 8.33333 15.8328 8.33333C15.372 8.33333 14.9995 7.96083 14.9995 7.5V5H12.4995C12.0387 5 11.6662 4.6275 11.6662 4.16667ZM3.12282 15.86C1.64365 16.2458 0.428654 17.4592 0.0286544 18.95C-0.0905123 19.395 0.172821 19.8517 0.617821 19.9717C1.05032 20.0908 1.52032 19.8308 1.63865 19.3833C1.88199 18.4742 2.64782 17.7067 3.54449 17.4733C3.98949 17.3567 4.25615 16.9017 4.14032 16.4567C4.02365 16.0108 3.56865 15.7467 3.12365 15.86H3.12282ZM16.8762 15.86C16.4362 15.7467 15.9762 16.0108 15.8595 16.4567C15.7428 16.9017 16.0103 17.3567 16.4562 17.4733C17.3512 17.7067 18.117 18.4742 18.3612 19.3833C18.4795 19.8317 18.9503 20.0908 19.3828 19.9717C19.827 19.8517 20.0912 19.395 19.9712 18.95C19.5703 17.4592 18.3562 16.2458 16.8762 15.86ZM3.74949 10C2.59865 10 1.66615 10.9325 1.66615 12.0833C1.66615 13.2342 2.59865 14.1667 3.74949 14.1667C4.90032 14.1667 5.83282 13.2342 5.83282 12.0833C5.83282 10.9325 4.90032 10 3.74949 10ZM18.3328 12.0833C18.3328 10.9325 17.4003 10 16.2495 10C15.0987 10 14.1662 10.9325 14.1662 12.0833C14.1662 13.2342 15.0987 14.1667 16.2495 14.1667C17.4003 14.1667 18.3328 13.2342 18.3328 12.0833ZM9.99949 11.6667C11.1503 11.6667 12.0828 10.7342 12.0828 9.58333C12.0828 8.4325 11.1503 7.5 9.99949 7.5C8.84865 7.5 7.91615 8.4325 7.91615 9.58333C7.91615 10.7342 8.84865 11.6667 9.99949 11.6667ZM9.99949 13.3333C7.70199 13.3333 5.83282 15.2025 5.83282 17.5V19.1667C5.83282 19.6275 6.20615 20 6.66615 20C7.12615 20 7.49949 19.6275 7.49949 19.1667V17.5C7.49949 16.1217 8.62115 15 9.99949 15C11.3778 15 12.4995 16.1217 12.4995 17.5V19.1667C12.4995 19.6275 12.872 20 13.3328 20C13.7937 20 14.1662 19.6275 14.1662 19.1667V17.5C14.1662 15.2025 12.297 13.3333 9.99949 13.3333Z" fill="#01C7FB"/>
</svg>
