<svg width="126" height="37" viewBox="0 0 126 37" fill="none" xmlns="http://www.w3.org/2000/svg">
<rect width="126" height="37" rx="4" fill="#2C56A0"/>
<g clip-path="url(#clip0_18451_9182)">
<path d="M25.6186 6.5H25.7893C25.9263 8.19253 25.2803 9.45719 24.4951 10.373C23.7247 11.2825 22.6698 12.1646 20.9636 12.0308C20.8497 10.3625 21.4968 9.19161 22.2809 8.27789C23.0081 7.42636 24.3412 6.66862 25.6186 6.5ZM30.7836 24.1167V24.1641C30.3041 25.6163 29.6201 26.861 28.7855 28.016C28.0235 29.0646 27.0898 30.4758 25.4225 30.4758C23.9819 30.4758 23.025 29.5494 21.5485 29.5241C19.9866 29.4988 19.1277 30.2987 17.6997 30.5H17.2128C16.1642 30.3482 15.3179 29.5178 14.7014 28.7695C12.8835 26.5585 11.4786 23.7025 11.2173 20.0476V18.9737C11.3279 16.358 12.5989 14.2313 14.2883 13.2006C15.1799 12.6525 16.4055 12.1857 17.7703 12.3943C18.3552 12.485 18.9528 12.6852 19.4765 12.8833C19.9729 13.0741 20.5937 13.4124 21.1817 13.3945C21.5801 13.3829 21.9763 13.1753 22.3779 13.0288C23.554 12.6041 24.7069 12.1172 26.2266 12.3459C28.053 12.622 29.3493 13.4335 30.1502 14.6855C28.6052 15.6688 27.3838 17.1505 27.5925 19.6809C27.778 21.9794 29.1143 23.3241 30.7836 24.1167Z" fill="white"/>
</g>
<path d="M39.77 4.52C41.88 4.52 43.17 5.41 43.17 7.76C43.17 10.01 41.7 11 39.6 11H37.82V4.52H39.77ZM39.49 10.22C41.12 10.22 42.21 9.76 42.21 7.76C42.21 6.06 41.43 5.3 39.79 5.3H38.74V10.22H39.49ZM46.0711 11.12C44.6211 11.12 43.9711 10.07 43.9711 8.8C43.9711 7.12 45.0111 6.5 46.2411 6.5C47.6911 6.5 48.3411 7.53 48.3411 8.81C48.3411 10.49 47.3011 11.12 46.0711 11.12ZM46.1511 10.42C47.1211 10.42 47.4411 9.74 47.4411 8.8C47.4411 7.87 47.0611 7.2 46.1811 7.2C45.1911 7.2 44.8711 7.87 44.8711 8.8C44.8711 9.74 45.2611 10.42 46.1511 10.42ZM54.3118 6.62H55.1518V6.68L53.8318 11H52.9718L52.1718 8.32C52.0818 8 52.0118 7.75 51.9618 7.53C51.9218 7.75 51.8518 8 51.7618 8.32L50.9618 11H50.1518L48.7118 6.68V6.62H49.6518L50.4418 9.37C50.4918 9.54 50.5418 9.76 50.5918 9.98C50.6318 9.76 50.6818 9.54 50.7318 9.37L51.5318 6.62H52.4718L53.2718 9.37C53.3318 9.57 53.3918 9.83 53.4418 10.08C53.4818 9.83 53.5318 9.57 53.5818 9.37L54.3118 6.62ZM58.4315 6.5C59.1915 6.5 59.7715 6.84 59.7715 7.89V11H58.9115V8.21C58.9115 7.48 58.7015 7.25 58.1115 7.25C57.6915 7.25 57.2115 7.38 56.8315 7.56V11H55.9715V6.62L56.8315 6.52V6.94C57.2515 6.72 57.8215 6.5 58.4315 6.5ZM61.118 11V4.12L61.978 4.02V11H61.118ZM65.1238 11.12C63.6738 11.12 63.0238 10.07 63.0238 8.8C63.0238 7.12 64.0638 6.5 65.2938 6.5C66.7438 6.5 67.3938 7.53 67.3938 8.81C67.3938 10.49 66.3538 11.12 65.1238 11.12ZM65.2038 10.42C66.1738 10.42 66.4938 9.74 66.4938 8.8C66.4938 7.87 66.1138 7.2 65.2338 7.2C64.2438 7.2 63.9238 7.87 63.9238 8.8C63.9238 9.74 64.3138 10.42 65.2038 10.42ZM70.2322 6.5C71.2422 6.5 71.7722 6.94 71.7722 7.95V11H70.9922L70.9422 10.62C70.4322 10.99 69.8722 11.12 69.3522 11.12C68.5822 11.12 68.0422 10.66 68.0422 9.96C68.0422 8.8 69.4222 8.35 70.9122 8.32V8.1C70.9122 7.52 70.7122 7.24 70.1222 7.24C69.6722 7.24 69.1622 7.39 68.6022 7.76L68.2222 7.16C68.8022 6.76 69.4622 6.5 70.2322 6.5ZM68.9622 9.87C68.9622 10.21 69.1722 10.39 69.5822 10.39C70.0322 10.39 70.4722 10.26 70.9122 9.99V8.95C69.8422 9 68.9622 9.27 68.9622 9.87ZM75.9799 4.12L76.8399 4.02V11H76.0599L76.0199 10.68C75.5299 10.97 75.0199 11.12 74.5999 11.12C73.4199 11.12 72.7699 10.27 72.7699 8.93C72.7699 7.36 73.7499 6.5 75.0299 6.5C75.3899 6.5 75.6999 6.56 75.9799 6.63V4.12ZM73.6899 8.91C73.6899 9.94 74.1299 10.38 74.8399 10.38C75.1999 10.38 75.5699 10.29 75.9799 10.05V7.33C75.7099 7.24 75.4199 7.18 75.0999 7.18C74.3099 7.18 73.6899 7.71 73.6899 8.91ZM82.3895 11.12C80.9395 11.12 80.2895 10.07 80.2895 8.8C80.2895 7.12 81.3295 6.5 82.5595 6.5C84.0095 6.5 84.6595 7.53 84.6595 8.81C84.6595 10.49 83.6195 11.12 82.3895 11.12ZM82.4695 10.42C83.4395 10.42 83.7595 9.74 83.7595 8.8C83.7595 7.87 83.3795 7.2 82.4995 7.2C81.5095 7.2 81.1895 7.87 81.1895 8.8C81.1895 9.74 81.5795 10.42 82.4695 10.42ZM88.1678 6.5C88.9278 6.5 89.5078 6.84 89.5078 7.89V11H88.6478V8.21C88.6478 7.48 88.4378 7.25 87.8478 7.25C87.4278 7.25 86.9478 7.38 86.5678 7.56V11H85.7078V6.62L86.5678 6.52V6.94C86.9878 6.72 87.5578 6.5 88.1678 6.5ZM95.7866 10.23L96.0266 10.84C95.7666 10.98 95.4066 11.12 94.9266 11.12C94.1266 11.12 93.5866 10.68 93.5866 9.7V7.3H92.7066V6.62H93.5866V5.63L94.4466 5.49V6.62H95.9266L95.8366 7.3H94.4466V9.56C94.4466 10.13 94.6566 10.4 95.0666 10.4C95.3166 10.4 95.5366 10.34 95.7866 10.23ZM99.3197 6.5C100.08 6.5 100.66 6.84 100.66 7.86V11H99.7997V8.21C99.7997 7.48 99.5897 7.25 98.9997 7.25C98.5897 7.25 98.1197 7.37 97.7397 7.55V11H96.8797V4.12L97.7397 4.02V6.93C98.1597 6.71 98.7197 6.5 99.3197 6.5ZM105.597 8.32C105.597 8.47 105.587 8.72 105.577 8.96H102.527C102.547 10.02 103.117 10.39 103.807 10.39C104.387 10.39 104.737 10.23 105.157 9.98L105.487 10.59C105.067 10.86 104.497 11.12 103.767 11.12C102.587 11.12 101.657 10.52 101.657 8.89C101.657 7.62 102.347 6.5 103.777 6.5C104.977 6.5 105.597 7.28 105.597 8.32ZM103.777 7.17C103.047 7.17 102.687 7.66 102.577 8.33H104.757V8.29C104.757 7.52 104.387 7.17 103.777 7.17Z" fill="white"/>
<path d="M43.752 17.632L47.48 27.872V28H45.064L44.232 25.52H40.392L39.576 28H37.192V27.872L40.92 17.632H43.752ZM41 23.696H43.624L42.296 19.744L41 23.696ZM52.9995 20.56C54.9835 20.56 55.8955 21.824 55.8955 24.24C55.8955 27.216 53.8635 28.224 52.0395 28.224C51.6235 28.224 51.2235 28.16 50.8235 28.048V30.976H48.6475V20.848L50.8235 20.64V21.232C51.5115 20.816 52.2475 20.56 52.9995 20.56ZM51.6715 26.64C52.8875 26.64 53.6555 25.872 53.6555 24.24C53.6555 22.688 53.2715 22.192 52.2475 22.192C51.7995 22.192 51.3515 22.336 50.8235 22.64V26.56C51.0955 26.608 51.3675 26.64 51.6715 26.64ZM61.7183 20.56C63.7023 20.56 64.6143 21.824 64.6143 24.24C64.6143 27.216 62.5823 28.224 60.7583 28.224C60.3423 28.224 59.9423 28.16 59.5423 28.048V30.976H57.3663V20.848L59.5423 20.64V21.232C60.2303 20.816 60.9663 20.56 61.7183 20.56ZM60.3903 26.64C61.6063 26.64 62.3743 25.872 62.3743 24.24C62.3743 22.688 61.9903 22.192 60.9663 22.192C60.5182 22.192 60.0703 22.336 59.5423 22.64V26.56C59.8143 26.608 60.0863 26.64 60.3903 26.64ZM73.1028 28.224C71.3268 28.224 70.0148 27.712 69.0228 26.976L70.0468 25.392C71.1508 26.096 72.1268 26.336 72.9588 26.336C74.1428 26.336 74.9108 25.968 74.9108 25.184C74.9108 24.496 74.4948 24.224 72.8788 23.6L72.5108 23.456C70.7828 22.784 69.5028 22.128 69.5028 20.288C69.5028 18.24 71.5188 17.408 73.3748 17.408C74.5108 17.408 75.8548 17.776 77.0388 18.576L75.9988 20.144C75.0388 19.568 74.3348 19.264 73.3588 19.264C72.2868 19.264 71.8068 19.664 71.8068 20.208C71.8068 20.736 72.1588 21.056 73.7428 21.632L74.0948 21.76C75.6628 22.336 77.2468 22.944 77.2468 25.056C77.2468 27.2 75.4068 28.224 73.1028 28.224ZM82.7469 26.24L83.3389 27.696C82.9069 27.936 82.2349 28.224 81.2269 28.224C80.1389 28.224 78.9869 27.616 78.9869 25.952V22.512H77.6749V20.8H78.9869V19.184L81.1629 18.88V20.8H83.1629L82.9389 22.512H81.1629V25.616C81.1629 26.288 81.4349 26.48 81.8029 26.48C82.0909 26.48 82.3469 26.416 82.7469 26.24ZM87.5365 28.224C85.0405 28.224 83.8245 26.48 83.8245 24.384C83.8245 21.504 85.7125 20.56 87.7445 20.56C90.2565 20.56 91.4725 22.16 91.4725 24.4C91.4725 27.152 89.6805 28.224 87.5365 28.224ZM87.6485 26.608C88.8805 26.608 89.2165 25.616 89.2165 24.384C89.2165 22.96 88.7525 22.176 87.6805 22.176C86.5125 22.176 86.0645 22.96 86.0645 24.384C86.0645 25.696 86.5285 26.608 87.6485 26.608ZM97.1044 20.56C97.4084 20.56 97.6964 20.608 97.9684 20.704L97.6484 22.896C97.3284 22.768 97.0884 22.704 96.7044 22.704C96.2244 22.704 95.6804 22.864 95.1204 23.616V28H92.9444V20.848L95.1204 20.64V21.648C95.6484 20.928 96.3044 20.56 97.1044 20.56ZM105.188 23.744C105.188 24.048 105.156 24.464 105.124 24.864H100.516C100.644 26.16 101.476 26.608 102.292 26.608C102.996 26.608 103.588 26.416 104.308 26L105.044 27.312C104.308 27.856 103.3 28.224 102.084 28.224C100.1 28.224 98.3401 27.216 98.3401 24.448C98.3401 21.984 99.6841 20.56 101.908 20.56C104.1 20.56 105.188 21.968 105.188 23.744ZM101.956 22.032C101.204 22.032 100.756 22.48 100.58 23.456H103.124V23.408C103.124 22.368 102.58 22.032 101.956 22.032Z" fill="white"/>
<defs>
<clipPath id="clip0_18451_9182">
<rect width="24" height="24" fill="white" transform="translate(9 6.5)"/>
</clipPath>
</defs>
</svg>
