<?xml version="1.0" encoding="UTF-8"?>
<svg id="Layer_2" data-name="Layer 2" xmlns="http://www.w3.org/2000/svg" viewBox="0 0 622.91 216.05">
  <defs>
    <style>
      .cls-1 {
        fill: #5fcafa;
      }

      .cls-2 {
        fill: #214b92;
      }
    </style>
  </defs>
  <g id="Layer_1-2" data-name="Layer 1">
    <path class="cls-2" d="M0,114.24c.41-1.65,.19-3.33,.28-5,.19-3.63,.14-7.3,1.07-10.85,1.86-7.09,6.12-12.77,10.76-18.25,7.78-9.19,17.88-13.31,29.64-13.96,15.87-.87,31.75-.51,47.63-.59,15.16-.08,30.32-.04,45.48-.05,.51,0,1.05-.12,1.76,.22,0,1.05,0,2.18,0,3.32,.14,14.71,.25,29.43,.46,44.14,.08,5.27,.03,10.56,.8,15.78,.56,3.82,2.3,7.18,4.73,10.14,1.55,1.89,3.68,2.89,6.1,3.17,3.63,.43,7.26,.3,11.21,.04,.3-25.62,.06-51.19,.16-76.91,2.38,0,4.72-.01,7.05,0,11.37,.07,22.74,.12,34.11,.26,4.26,.05,8.54,.08,12.79,.6,5.83,.71,10.77,3.6,15.55,6.69,8.98,5.81,15.64,13.56,19.3,23.74,1.15,3.19,1.69,6.48,1.83,9.84,.23,5.75,.43,11.5,.5,17.25,.18,13.52,.27,27.03,.4,40.55,0,.42,0,.85,0,1.45-.74,0-1.39,0-2.05,0-29.94-.08-59.87-.15-89.81-.24-5.56-.02-11.13-.11-16.69-.17-5.45-.06-9.83-2.54-13.7-6.11-8.18-7.54-12.77-17-14.46-27.86-1.15-7.36-.77-14.82-.87-22.25-.1-7.09-.02-14.18-.02-21.02-.56-.51-.91-.42-1.23-.42-19.43,.03-38.86,.01-58.29,.13-4.54,.03-9.13-.26-13.62,.73-6.33,1.4-11.73,4.29-15.55,9.74-1.58,2.26-2.03,4.83-2.21,7.47-.48,6.74-.32,13.51-.51,20.24,.51,.41,1.06,.23,1.56,.23,10.89,.03,21.78-.02,32.67,.09,5.85,.06,11.69,.25,17.51,.96,8.05,.97,14.17,5.13,19.28,11.13,7.22,8.47,10.49,18.42,11.18,29.36,.38,6.04,.32,12.09-1.02,18.02-1.95,8.65-6.98,15.42-13.57,21.13-4.22,3.66-8.96,6.52-13.92,9.05h-.58c.16-.7,.28-1.4,.47-2.09,2.82-10.42,5.91-20.79,6.6-31.66,.42-6.64,.16-13.22-2.18-19.54-2.27-6.13-6.13-10.7-12.8-12.2-3.33-.75-6.75-.78-10.15-.93-11.74-.52-23.48-.54-35.23-.7-7.47-.1-14.96,.09-22.42-.48v-34.23Zm228.59,28.16c-.39-12.9,0-25.65-.67-38.38-.1-1.87-.45-3.75-1.57-5.31-4.43-6.24-10.53-9.91-18.1-10.58-8.07-.71-16.2-.29-24.31-.46-.32,0-.65,.05-1,.08v54.65h45.65Z"/>
    <path class="cls-2" d="M407.65,68.58h24.82c0,.68,0,1.29,0,1.91,.08,14.91,.1,29.81,.28,44.72,.05,4.05,.05,8.13,1.29,12.09,3.43,10.93,13.13,17.53,24.57,16.65,7.59-.59,14.15-3.33,18.97-9.42,2.7-3.41,4.11-7.35,4.35-11.77,.74-13.41,.43-26.83,.59-40.25,.05-4.03,.16-8.05,.26-12.07,.02-.61-.07-1.25,.24-1.86h23.22c0,3.31-.03,6.56,0,9.81,.13,13.8,.17,27.61,.71,41.4,.13,3.33,.03,6.72,1.55,9.85,2.49,5.11,6.77,8.12,11.8,10.39,6.84,3.08,21.42,3.28,28.03-1.58,1.78-1.31,3.54-2.61,5.08-4.21,2.15-2.25,3.25-4.88,3.34-8.01,.17-5.83,.43-11.65,.66-17.64,4.25,2.59,8.22,5.37,11.45,9.1,6.32,7.31,8.07,18.45,1.49,28.64-7.16,11.1-17.26,17.93-29.99,21.11-14.46,3.61-27.25-.23-39.02-8.64-2.26-1.61-4.4-3.39-6.6-5.08-.07-.05-.18-.06-.32-.11-.7,.13-1.23,.63-1.81,1.03-4.07,2.78-8.1,5.62-12.3,8.22-8.4,5.21-17.57,6.29-27.22,5.64-8.68-.58-16.34-3.7-23.58-8.22-2.27-1.42-4.56-2.82-6.83-4.25-1.3-.82-2.53-.9-3.89-.08-3.49,2.09-6.98,4.18-10.54,6.13-4.71,2.57-9.61,4.82-14.89,5.89-8.83,1.79-17.55,1-26.09-1.77-6.73-2.18-12.32-6.28-17.74-10.65-.86-.69-1.69-1.41-2.5-2.1-.79,.14-1.25,.64-1.78,1.04-5.11,3.88-10.23,7.73-16.08,10.5-5.98,2.83-12.23,3.95-18.84,3.59-11.17-.62-20.9-4.51-28.81-12.49-5.52-5.57-8.42-12.57-10.35-20.03-.97-3.73-1.34-7.54-1.44-11.37-.6-22.81-.51-45.63-.5-68.44,0-9.01,.2-18.02,.17-27.03-.04-10.94,4.75-19.08,13.97-24.77,2.6-1.6,5.2-3.21,8.09-4.42,.62,1.11,.66,2.24,.67,3.38,.15,16.73,.29,33.45,.44,50.18,.17,18.4,.3,36.81,.53,55.21,.08,6.18-.05,12.39,.84,18.52,1.33,9.14,7.77,16.38,15.85,17.72,11.54,1.9,18.68-5.61,21.82-12.65,1.14-2.55,1.77-5.21,1.81-8.05,.22-17.88,.51-35.75,.78-53.63,0-.57,0-1.14,0-1.93h24.12c.24,.32,.08,.87,.08,1.37,.05,16.15-.04,32.31,.27,48.46,.06,2.97,.11,5.96,.69,8.87,.84,4.24,3.16,7.64,6.38,10.48,12.68,11.17,28.26,6.85,35.92-.91,3.12-3.16,4.76-7.03,5.07-11.43,.75-10.67,.42-21.37,.58-32.05,.12-8,.19-16.01,.28-24.01,0-.28,.03-.56,.04-.95Z"/>
    <path class="cls-2" d="M613.68,79.73c-1.36,.05-3.07-.71-4.54-2.06-1.07-.98-1.95-2.11-2.77-3.3-9.94-14.37-19.87-28.74-29.8-43.12-.71-1.03-1.46-2.02-2.39-2.86-1.73-1.54-3.19-1.55-4.96,.02-1.3,1.15-2.3,2.56-3.28,3.98-6.91,10.06-13.81,20.13-20.75,30.17-3.1,4.49-6.28,8.93-9.47,13.35-2.27,3.14-5.3,4.41-9.16,3.51-5.52-1.29-7.67-7.98-4.18-12.42,2.6-3.3,4.8-6.91,7.17-10.39,11.19-16.41,22.4-32.81,33.54-49.25,1.64-2.42,3.43-4.5,6.41-5.14,3.51-.75,6.52,0,8.88,2.9,5.2,6.35,9.52,13.32,14.12,20.08,9.57,14.04,19.3,27.97,28.65,42.16,1.69,2.56,2.5,5.08,.87,7.89-1.7,2.92-4.27,4.43-8.35,4.46Z"/>
    <path class="cls-1" d="M567.13,96.67c-5.42,.02-15.01-.05-24.61-.24-3.93-.08-6.11-2.93-5.2-6.77,.38-1.61,1.09-3.07,2.08-4.37,5.75-7.6,10.82-15.68,16.26-23.5,3.83-5.5,7.64-11.01,11.46-16.53,.61-.88,1.32-1.64,2.23-2.2,2.24-1.37,4.55-.88,6.26,1.49,3.14,4.35,6.24,8.72,9.3,13.13,6.79,9.8,13.51,19.65,20.32,29.44,1.39,2,2.15,3.97,.8,6.23-1.36,2.29-3.36,3.36-6.07,3.34-9.55-.06-19.09-.02-32.82-.02Z"/>
    <path class="cls-1" d="M56.32,202.25c-6.4,0-11.68-5.25-11.64-11.57,.04-6.4,5.23-11.47,11.71-11.46,6.39,.02,11.53,5.13,11.54,11.47,0,6.39-5.18,11.56-11.61,11.56Z"/>
    <path class="cls-1" d="M42.65,190.55c0,6.47-5.09,11.53-11.59,11.52-6.5-.01-11.56-5.08-11.54-11.57,.02-6.34,5.16-11.48,11.52-11.5,6.43-.02,11.61,5.13,11.61,11.55Z"/>
  </g>
</svg>