<svg width="124" height="37" viewBox="0 0 124 37" fill="none" xmlns="http://www.w3.org/2000/svg">
<rect width="123.625" height="37" rx="4" fill="#2C56A0"/>
<path d="M12.918 7.02918C10.7542 5.78803 9 6.8048 9 9.29837V27.6999C9 30.1959 10.7542 31.2114 12.918 29.9714L29.0018 20.7474C31.1663 19.5059 31.1663 17.4943 29.0018 16.253L12.918 7.02918Z" fill="white"/>
<path d="M38.0052 7.41H40.4852V10.57C39.7852 10.9 39.1552 11.12 38.1652 11.12C35.9452 11.12 35.0752 9.68 35.0752 7.77C35.0752 5.33 36.5552 4.4 38.1652 4.4C39.0252 4.4 39.7152 4.61 40.3252 4.99L39.9252 5.69C39.5252 5.44 38.9852 5.2 38.2352 5.2C36.6552 5.2 36.0552 6.25 36.0552 7.73C36.0552 9.3 36.6152 10.32 38.1852 10.32C38.7452 10.32 39.1852 10.21 39.5652 10.07V8.19H37.9052L38.0052 7.41ZM42.791 10.22H45.971V11H41.871V4.52H45.921V5.3H42.791V7.32H45.531L45.431 8.08H42.791V10.22ZM52.0512 4.52V5.32H49.8112V11H48.8912V5.32H46.6412V4.52H52.0512ZM55.455 11V4.52H56.375V11H55.455ZM62.7836 4.52V5.32H60.5436V11H59.6236V5.32H57.3736V4.52H62.7836ZM68.8374 11.12C66.8474 11.12 65.8174 9.73 65.8174 7.74C65.8174 5.4 67.2774 4.4 68.9074 4.4C70.8974 4.4 71.9274 5.79 71.9274 7.78C71.9274 10.12 70.4674 11.12 68.8374 11.12ZM68.8374 10.34C70.2874 10.34 70.9674 9.27 70.9674 7.79C70.9674 6.26 70.3174 5.18 68.9074 5.18C67.4574 5.18 66.7774 6.25 66.7774 7.73C66.7774 9.26 67.4274 10.34 68.8374 10.34ZM77.6392 4.52H78.5192V11H77.4992L74.6492 6.8C74.4492 6.5 74.2292 6.21 74.0792 5.88V11H73.1992V4.52H74.1692L77.0992 8.81C77.3192 9.13 77.5092 9.39 77.6392 9.69V4.52Z" fill="white"/>
<path d="M39.9532 22.032H44.1772V27.216C42.7052 27.968 41.5052 28.224 40.2572 28.224C36.5932 28.224 35.2172 25.92 35.2172 22.864C35.2172 18.928 37.5692 17.408 40.4172 17.408C41.7292 17.408 42.9292 17.744 43.9372 18.384L43.0092 20C42.3852 19.632 41.5692 19.28 40.5292 19.28C38.4972 19.28 37.5692 20.592 37.5692 22.768C37.5692 25.104 38.4012 26.288 40.4012 26.288C41.0092 26.288 41.4892 26.192 41.9052 26.032V23.872H39.6972L39.9532 22.032ZM49.2242 28.224C46.7282 28.224 45.5122 26.48 45.5122 24.384C45.5122 21.504 47.4002 20.56 49.4322 20.56C51.9442 20.56 53.1602 22.16 53.1602 24.4C53.1602 27.152 51.3682 28.224 49.2242 28.224ZM49.3362 26.608C50.5682 26.608 50.9042 25.616 50.9042 24.384C50.9042 22.96 50.4402 22.176 49.3682 22.176C48.2002 22.176 47.7522 22.96 47.7522 24.384C47.7522 25.696 48.2162 26.608 49.3362 26.608ZM57.8961 28.224C55.4001 28.224 54.1841 26.48 54.1841 24.384C54.1841 21.504 56.0721 20.56 58.1041 20.56C60.6161 20.56 61.8321 22.16 61.8321 24.4C61.8321 27.152 60.0401 28.224 57.8961 28.224ZM58.0081 26.608C59.2401 26.608 59.5761 25.616 59.5761 24.384C59.5761 22.96 59.1121 22.176 58.0401 22.176C56.8721 22.176 56.4241 22.96 56.4241 24.384C56.4241 25.696 56.8881 26.608 58.0081 26.608ZM67.4517 26.528C69.2277 26.688 70.4277 27.12 70.4277 28.576C70.4277 30.176 68.8277 31.2 66.2837 31.2C64.2837 31.2 62.5397 30.624 62.5397 29.152C62.5397 28.288 63.0677 27.792 63.6597 27.456C63.3877 27.232 63.2277 26.944 63.2277 26.592C63.2277 26.192 63.4517 25.792 64.0917 25.344C63.1797 24.88 62.7797 24.096 62.7797 23.216C62.7797 21.312 64.5237 20.56 66.3797 20.56C66.7317 20.56 67.0197 20.576 67.3077 20.64L69.8357 19.568L70.4597 21.248L68.9557 21.6C69.4837 22 69.7717 22.56 69.7717 23.28C69.7717 25.12 67.9797 25.776 66.2357 25.776C65.9477 25.776 65.6757 25.76 65.4197 25.728C65.3557 25.84 65.3237 25.936 65.3237 26C65.3237 26.24 65.5157 26.352 66.3957 26.432L67.4517 26.528ZM66.2837 22.112C65.4197 22.112 64.9717 22.464 64.9717 23.2C64.9717 23.936 65.4677 24.24 66.3317 24.24C67.2757 24.24 67.5957 23.84 67.5957 23.2C67.5957 22.496 67.1477 22.112 66.2837 22.112ZM66.3157 29.68C67.4517 29.68 68.0597 29.376 68.0597 28.896C68.0597 28.464 67.7077 28.304 66.5237 28.192L65.5957 28.112C65.3557 28.096 65.1317 28.048 64.9077 28C64.7317 28.288 64.6037 28.608 64.6037 28.848C64.6037 29.36 64.9397 29.68 66.3157 29.68ZM71.6009 28V16.992L73.7769 16.784V28H71.6009ZM82.0946 23.744C82.0946 24.048 82.0626 24.464 82.0306 24.864H77.4226C77.5506 26.16 78.3826 26.608 79.1986 26.608C79.9026 26.608 80.4946 26.416 81.2146 26L81.9506 27.312C81.2146 27.856 80.2066 28.224 78.9906 28.224C77.0066 28.224 75.2466 27.216 75.2466 24.448C75.2466 21.984 76.5906 20.56 78.8146 20.56C81.0066 20.56 82.0946 21.968 82.0946 23.744ZM78.8626 22.032C78.1106 22.032 77.6626 22.48 77.4866 23.456H80.0306V23.408C80.0306 22.368 79.4866 22.032 78.8626 22.032ZM91.5154 20.56C93.4994 20.56 94.4114 21.824 94.4114 24.24C94.4114 27.216 92.3794 28.224 90.5554 28.224C90.1394 28.224 89.7394 28.16 89.3394 28.048V30.976H87.1634V20.848L89.3394 20.64V21.232C90.0274 20.816 90.7634 20.56 91.5154 20.56ZM90.1874 26.64C91.4034 26.64 92.1714 25.872 92.1714 24.24C92.1714 22.688 91.7874 22.192 90.7634 22.192C90.3154 22.192 89.8674 22.336 89.3394 22.64V26.56C89.6114 26.608 89.8834 26.64 90.1874 26.64ZM95.8821 28V16.992L98.0581 16.784V28H95.8821ZM103.224 20.56C105.016 20.56 106.056 21.184 106.056 22.928V28H104.2L104.024 27.44C103.192 28.048 102.408 28.224 101.624 28.224C100.264 28.224 99.3679 27.408 99.3679 26.208C99.3679 24.432 101.368 23.632 103.88 23.536V23.36C103.88 22.496 103.656 22.16 102.856 22.16C102.152 22.16 101.4 22.448 100.568 22.976L99.7359 21.664C100.84 20.944 101.88 20.56 103.224 20.56ZM101.624 25.936C101.624 26.4 101.912 26.656 102.44 26.656C102.856 26.656 103.304 26.544 103.88 26.224V24.832C102.248 24.928 101.624 25.392 101.624 25.936ZM111.999 20.8H114.255V20.912L112.063 27.728C111.279 30.176 110.239 31.2 108.271 31.2C107.599 31.2 107.039 31.056 106.671 30.912L107.215 29.392C107.519 29.504 107.807 29.552 108.111 29.552C108.767 29.552 109.407 29.392 109.935 28H109.359L106.671 20.912V20.8H108.943L110.223 24.656C110.367 25.088 110.479 25.552 110.575 25.952C110.671 25.552 110.799 25.072 110.911 24.688L111.999 20.8Z" fill="white"/>
</svg>
