<svg width="17" height="16" viewBox="0 0 17 16" fill="none" xmlns="http://www.w3.org/2000/svg">
<g clip-path="url(#clip0_10811_9970)">
<path d="M8.50598 3.5949e-06C4.90067 3.5949e-06 3.5691 0.016189 3.03236 0.0208624C1.60959 0.0332484 0.556845 1.44066 0.539809 2.34153C0.532116 2.75144 0.509739 3.92679 0.502626 7.83176C0.496974 10.9532 0.500126 12.6424 0.515199 13.2995C0.509704 13.5468 0.549329 13.7855 0.615478 14.0177C0.744526 14.4587 0.978335 14.8531 1.29079 15.1723C1.58278 15.4706 1.94257 15.7028 2.34816 15.846C2.64347 15.966 2.94902 15.9777 3.23468 15.9846C3.89694 15.9993 5.39984 16.0021 8.60495 15.9987C12.4304 15.9947 13.7043 15.9907 14.1418 15.9665C14.7013 15.9356 15.3554 15.5612 15.7597 15.133C16.1227 14.7486 16.4463 14.1335 16.4739 13.6007C16.4974 13.1485 16.5 11.8528 16.5 7.99677C16.5 3.65127 16.4982 2.55207 16.462 2.23358V2.23082V2.22773C16.4504 2.15243 16.321 1.48765 15.8144 0.918461C15.2648 0.287129 14.461 0.0508632 14.1888 0.0310048C13.7989 0.00256359 12.6072 0 8.50717 0L8.50598 3.5949e-06ZM7.46961 4.50882C7.51411 4.52606 7.55605 4.55118 7.5958 4.58059C7.64599 4.6177 7.68662 4.6603 7.70977 4.70554C7.81355 4.9094 8.31128 6.1122 8.81529 7.36182C9.23495 8.40235 9.58227 9.24114 9.75459 9.6402C9.84563 9.43465 9.96628 9.15814 10.1174 8.8055C10.278 8.43045 10.4017 8.15186 10.492 7.96098C10.5424 7.85461 10.5843 7.77125 10.6178 7.71278C10.7082 7.55516 10.8536 7.51802 10.9809 7.50905C11.0812 7.502 11.2013 7.50687 11.2836 7.50605L11.3768 7.5048L12.9761 7.49068C13.2603 7.48815 13.4882 7.71884 13.4882 8.00169C13.4882 8.28453 13.2601 8.51279 12.9773 8.51279H11.364L10.7834 9.85493C10.4332 10.6649 10.2193 11.1394 10.1198 11.304C9.94962 11.5857 9.5016 11.5815 9.3452 11.3191C9.23897 11.1409 8.77144 10.007 8.22159 8.64411C7.77299 7.53224 7.42309 6.67439 7.27032 6.30713C7.21604 6.41722 7.15409 6.54619 7.08387 6.70013C6.60874 7.74185 6.40221 8.19314 6.27888 8.34161C6.2428 8.38505 6.20744 8.41336 6.16756 8.43397C6.12057 8.45828 6.05879 8.46827 5.99648 8.46863L4.02334 8.47967C3.73964 8.48127 3.51187 8.25127 3.51187 7.96858C3.51187 7.68588 3.73985 7.45781 4.02246 7.45781H5.60173L6.21295 6.12922C6.5103 5.48291 6.81416 4.84665 6.90229 4.69017C6.94765 4.60994 7.02701 4.55362 7.11346 4.52041C7.18164 4.49423 7.35465 4.46427 7.46961 4.50882Z" fill="#01C7FB"/>
</g>
<defs>
<clipPath id="clip0_10811_9970">
<rect width="16" height="16" fill="white" transform="translate(0.5)"/>
</clipPath>
</defs>
</svg>
