<svg xmlns="http://www.w3.org/2000/svg" version="1.1" xmlns:xlink="http://www.w3.org/1999/xlink" width="512" height="512" x="0" y="0" viewBox="0 0 512 512" style="enable-background:new 0 0 512 512" xml:space="preserve" class=""><g><path d="M226 232c-63.963 0-116-52.037-116-116S162.037 0 226 0s116 52.037 116 116-52.037 116-116 116zM271 317c0-25.68 7.21-49.707 19.708-70.167C271.193 256.526 249.228 262 226 262c-30.128 0-58.152-9.174-81.429-24.874-28.782 11.157-55.186 28.291-77.669 50.774C24.404 330.397 1 386.899 1 446.999V497c0 8.284 6.716 15 15 15h420c8.284 0 15-6.716 15-15v-50.001c0-.901-.025-1.805-.036-2.708C436.892 449.277 421.759 452 406 452c-74.439 0-135-60.561-135-135z" fill="#5fcafa" opacity="1" data-original="#000000" class=""></path><path d="M406 212c-57.897 0-105 47.103-105 105s47.103 105 105 105 105-47.103 105-105-47.103-105-105-105zm30 120h-15v15c0 8.284-6.716 15-15 15s-15-6.716-15-15v-15h-15c-8.284 0-15-6.716-15-15s6.716-15 15-15h15v-15c0-8.284 6.716-15 15-15s15 6.716 15 15v15h15c8.284 0 15 6.716 15 15s-6.716 15-15 15z" fill="#5fcafa" opacity="1" data-original="#000000" class=""></path></g></svg>