<svg width="32" height="28" viewBox="0 0 32 28" fill="none" xmlns="http://www.w3.org/2000/svg">
<g clip-path="url(#clip0_10374_11268)">
<path d="M0.106846 24.886C0.0783737 24.2922 -0.0668172 13.4395 0.0367831 9.55171C-0.0270198 8.33494 0.304027 7.31806 1.14642 6.40757C1.45278 6.09237 1.80666 5.8251 2.19068 5.62732C2.98344 5.21904 3.33625 5.17192 5.59972 5.17192C6.71082 5.17192 7.67875 5.14959 7.75069 5.12227C7.82262 5.09498 8.25255 4.33923 8.70608 3.44284C8.99121 2.87929 9.18639 2.50128 9.34181 2.22857C9.88977 1.2194 10.578 0.864022 11.7291 0.793287C12.4345 0.759696 13.5181 0.761206 15.2803 0.761206C17.7723 0.761206 18.7253 0.761207 19.1515 0.802954C19.4154 0.828802 19.4774 0.870654 19.5778 0.938421C20.2993 1.42554 20.287 2.37011 19.5535 2.8125C19.3107 2.95893 19.1237 2.96604 15.4767 2.96747C13.3744 2.96837 11.6128 2.99513 11.562 3.02709C11.5112 3.05906 11.1005 3.81143 10.6493 4.69903C10.449 5.09307 10.278 5.41889 10.1252 5.69091C9.23271 7.27963 8.71161 7.31213 7.36895 7.35165C7.03367 7.36152 6.60288 7.37015 6.04027 7.3803C4.39466 7.41002 3.61969 7.45291 3.45259 7.52354C3.01603 7.70806 2.68062 8.02401 2.48886 8.43135C2.29913 8.83438 2.29912 8.83438 2.29835 16.5194C2.29775 21.1802 2.28772 23.1912 2.37703 24.1401C2.42711 24.6724 2.62577 25.0301 2.88603 25.2693C3.31222 25.6871 3.84371 25.6612 4.39916 25.6734C8.49801 25.7634 26.1241 25.7568 28.2322 25.6536C28.3309 25.6487 29.4192 25.4453 29.5823 24.4162C29.7007 23.6689 29.691 22.0076 29.691 17.6996C29.691 11.5199 29.6983 11.1811 29.8384 10.9204C30.271 10.1153 31.3616 10.0834 31.8415 10.8618C31.9961 11.1126 31.9997 11.2718 32 17.7771C32.0002 22.0871 31.968 23.7673 31.9067 24.6286C31.7749 26.4838 30.0104 27.7772 28.4019 27.9343C27.6106 28.0115 25.4396 28.0121 15.9616 28.0088C7.5681 28.0058 4.89851 27.9695 3.85345 27.9482C2.02003 27.9109 0.195443 26.734 0.106846 24.886ZM14.5007 22.6872C12.9686 22.3888 11.3646 21.3832 10.3987 20.1154C9.79485 19.3229 9.52139 18.8052 9.22433 17.8921C8.6565 16.1466 8.85802 14.1339 9.76452 12.4968C11.9986 8.46248 17.467 7.58578 20.8418 10.7209C22.8123 12.5515 23.5745 15.3931 22.7655 17.8921C21.966 20.3614 19.8863 22.2306 17.4244 22.6925C16.6298 22.8416 15.281 22.8392 14.5007 22.6872ZM16.6235 20.5264C17.805 20.3368 18.8583 19.7845 19.5756 18.9785C21.1912 17.1631 21.1587 14.4034 19.5007 12.6269C18.9543 12.0413 18.3301 11.6353 17.5276 11.3432C16.9816 11.1445 16.804 11.1185 15.9943 11.1185C15.1846 11.1185 15.007 11.1445 14.461 11.3432C13.2702 11.7766 12.3513 12.5512 11.7819 13.6017C10.4195 16.1153 11.6513 19.3374 14.3284 20.2625C15.26 20.5844 15.8437 20.6515 16.6235 20.5264ZM26.7802 7.17358C26.7515 6.95159 26.7446 6.65509 26.7446 6.23912V5.17192L25.6497 5.17162C24.7042 5.17137 24.5199 5.15034 24.2998 5.01758C23.6089 4.60089 23.6377 3.45193 24.3482 3.08853C24.529 2.99602 24.8472 2.96656 25.6656 2.96656H26.7446V1.89935C26.7446 1.39034 26.756 1.06065 26.8023 0.826815C27.0153 -0.24915 28.671 -0.267306 28.9594 0.801345C29.0309 1.06612 29.0539 1.43211 29.0539 1.96751V2.96656H30.097C31.2422 2.96656 31.5169 3.03996 31.8012 3.42205C31.915 3.57487 31.9605 3.75988 31.9605 4.06924C31.9605 4.37859 31.915 4.56361 31.8012 4.71642C31.5169 5.09851 31.2422 5.17192 30.097 5.17192H29.0539V6.17096C29.0539 6.57183 29.0405 6.8786 29.0036 7.11901C28.7847 8.54359 26.9376 8.38818 26.7802 7.17358Z" fill="#0D0D0D" fill-opacity="0.35"/>
</g>
<defs>
<clipPath id="clip0_10374_11268">
<rect width="32" height="28" fill="white" transform="translate(0 0.00976562)"/>
</clipPath>
</defs>
</svg>
