<svg width="21" height="20" viewBox="0 0 21 20" fill="none" xmlns="http://www.w3.org/2000/svg">
<path d="M19.8042 8.12134L16.6683 2.70467C16.338 2.13627 15.8645 1.66436 15.295 1.33596C14.7255 1.00757 14.0799 0.834154 13.4225 0.833008H7.135C5.80166 0.833008 4.55833 1.54967 3.88916 2.70467L0.754163 8.12134C0.424128 8.69247 0.250366 9.34046 0.250366 10.0001C0.250366 10.6597 0.424128 11.3077 0.754163 11.8788L3.89 17.2955C4.22053 17.8636 4.6941 18.3353 5.26357 18.6635C5.83304 18.9918 6.47854 19.1651 7.13583 19.1663H13.4233C14.7575 19.1663 16.0008 18.4497 16.6692 17.2955L19.805 11.8788C20.135 11.3077 20.3088 10.6597 20.3088 10.0001C20.3088 9.34046 20.1342 8.69247 19.8042 8.12134ZM19.0833 11.4605L15.9475 16.878C15.6906 17.32 15.3223 17.6869 14.8795 17.9421C14.4366 18.1974 13.9345 18.3322 13.4233 18.333H7.13583C6.62455 18.3321 6.12245 18.1972 5.67955 17.9418C5.23666 17.6863 4.86846 17.3193 4.61166 16.8772L1.47583 11.4605C1.21948 11.0163 1.08453 10.5125 1.08453 9.99967C1.08453 9.48683 1.21948 8.98302 1.47583 8.53884L4.61166 3.12217C4.86866 2.68024 5.2369 2.31331 5.67975 2.05789C6.12259 1.80248 6.6246 1.66748 7.13583 1.66634H13.4233C14.4608 1.66634 15.4283 2.22384 15.9475 3.12217L19.0833 8.53884C19.3397 8.98302 19.4746 9.48683 19.4746 9.99967C19.4746 10.5125 19.3397 11.0163 19.0833 11.4605ZM14.4167 9.99967C14.4167 10.1102 14.3728 10.2162 14.2946 10.2943C14.2165 10.3724 14.1105 10.4163 14 10.4163H10.6667V13.7497C10.6667 13.8602 10.6228 13.9662 10.5446 14.0443C10.4665 14.1224 10.3605 14.1663 10.25 14.1663C10.1395 14.1663 10.0335 14.1224 9.95537 14.0443C9.87723 13.9662 9.83333 13.8602 9.83333 13.7497V10.4163H6.5C6.38949 10.4163 6.28351 10.3724 6.20537 10.2943C6.12723 10.2162 6.08333 10.1102 6.08333 9.99967C6.08333 9.88917 6.12723 9.78319 6.20537 9.70505C6.28351 9.62691 6.38949 9.58301 6.5 9.58301H9.83333V6.24967C9.83333 6.13917 9.87723 6.03319 9.95537 5.95505C10.0335 5.87691 10.1395 5.83301 10.25 5.83301C10.3605 5.83301 10.4665 5.87691 10.5446 5.95505C10.6228 6.03319 10.6667 6.13917 10.6667 6.24967V9.58301H14C14.1105 9.58301 14.2165 9.62691 14.2946 9.70505C14.3728 9.78319 14.4167 9.88917 14.4167 9.99967Z" fill="#0D0D0D"/>
</svg>
