<svg width="12" height="12" viewBox="0 0 12 12" fill="none" xmlns="http://www.w3.org/2000/svg">
<g clip-path="url(#clip0_9526_33109)">
<path d="M11.9552 8.25512L11.0902 4.10512C10.6552 2.54512 9.37024 1.39012 7.82524 1.08012C7.04524 0.380117 6.04524 -0.00488281 5.00024 -0.00488281C2.99524 0.000117187 1.29024 1.36512 0.855244 3.33012L0.0352435 7.30012C-0.0547565 7.71512 0.0452435 8.14512 0.310244 8.48012C0.575243 8.81512 0.975244 9.00512 1.40024 9.00512H2.06524C2.11524 9.17512 2.19524 9.34012 2.31024 9.48012C2.57524 9.81512 2.97524 10.0051 3.40024 10.0051H4.77524C4.90024 11.1251 5.84524 12.0051 7.00024 12.0051C8.15524 12.0051 9.10024 11.1251 9.22524 10.0051H10.6002C11.0152 10.0051 11.4002 9.82512 11.6652 9.51512L11.7152 9.45512C11.9802 9.10512 12.0652 8.66012 11.9552 8.26512V8.25512ZM2.09524 8.00012H1.40024C1.27524 8.00012 1.16524 7.94512 1.09024 7.85012C1.01524 7.75512 0.985244 7.63012 1.01024 7.50512L1.83024 3.54012C2.16524 2.04512 3.46524 1.00012 4.99524 1.00012C5.31024 1.00012 5.62024 1.04512 5.92024 1.13512C4.40524 1.52512 3.20524 2.73012 2.85024 4.33012L2.09024 8.00012H2.09524ZM7.00024 11.0001C6.39524 11.0001 5.89024 10.5701 5.77524 10.0001H8.22524C8.11024 10.5701 7.60524 11.0001 7.00024 11.0001ZM10.9302 8.83012L10.9202 8.84012C10.8402 8.94012 10.7302 9.00012 10.6002 9.00012H3.40024C3.28024 9.00012 3.16524 8.94512 3.09024 8.85012C3.01524 8.75512 2.98524 8.63012 3.01524 8.50512L3.83524 4.54012C4.17024 3.04512 5.47024 2.00012 7.00024 2.00012C8.45024 2.00012 9.74024 2.97512 10.1202 4.34512L10.9852 8.49512C11.0202 8.61512 10.9952 8.73512 10.9252 8.83512L10.9302 8.83012Z" fill="#01C7FB"/>
</g>
<defs>
<clipPath id="clip0_9526_33109">
<rect width="12" height="12" fill="white"/>
</clipPath>
</defs>
</svg>
