<svg width="34" height="35" viewBox="0 0 34 35" fill="none" xmlns="http://www.w3.org/2000/svg">
<g opacity="0.3">
<path d="M5.82225 13.5867H4.64046C4.49542 13.5867 4.35632 13.6443 4.25376 13.7468C4.1512 13.8494 4.09358 13.9885 4.09358 14.1335C4.09358 14.2786 4.1512 14.4177 4.25376 14.5202C4.35632 14.6228 4.49542 14.6804 4.64046 14.6804H5.82225C5.96729 14.6804 6.10639 14.6228 6.20895 14.5202C6.31151 14.4177 6.36913 14.2786 6.36913 14.1335C6.36913 13.9885 6.31151 13.8494 6.20895 13.7468C6.10639 13.6443 5.96729 13.5867 5.82225 13.5867ZM10.4433 13.5867H9.261C9.11596 13.5867 8.97686 13.6443 8.8743 13.7468C8.77175 13.8494 8.71413 13.9885 8.71413 14.1335C8.71413 14.2786 8.77175 14.4177 8.8743 14.5202C8.97686 14.6228 9.11596 14.6804 9.261 14.6804H10.4433C10.5884 14.6804 10.7275 14.6228 10.83 14.5202C10.9326 14.4177 10.9902 14.2786 10.9902 14.1335C10.9902 13.9885 10.9326 13.8494 10.83 13.7468C10.7275 13.6443 10.5884 13.5867 10.4433 13.5867ZM15.0644 13.5867H13.8821C13.7371 13.5867 13.598 13.6443 13.4954 13.7468C13.3928 13.8494 13.3352 13.9885 13.3352 14.1335C13.3352 14.2786 13.3928 14.4177 13.4954 14.5202C13.598 14.6228 13.7371 14.6804 13.8821 14.6804H15.0644C15.2095 14.6804 15.3486 14.6228 15.4511 14.5202C15.5537 14.4177 15.6113 14.2786 15.6113 14.1335C15.6113 13.9885 15.5537 13.8494 15.4511 13.7468C15.3486 13.6443 15.2095 13.5867 15.0644 13.5867ZM18.5032 14.6804H19.6855C19.8306 14.6804 19.9697 14.6228 20.0722 14.5202C20.1748 14.4177 20.2324 14.2786 20.2324 14.1335C20.2324 13.9885 20.1748 13.8494 20.0722 13.7468C19.9697 13.6443 19.8306 13.5867 19.6855 13.5867H18.5032C18.3582 13.5867 18.2191 13.6443 18.1165 13.7468C18.0139 13.8494 17.9563 13.9885 17.9563 14.1335C17.9563 14.2786 18.0139 14.4177 18.1165 14.5202C18.2191 14.6228 18.3582 14.6804 18.5032 14.6804ZM23.1243 14.6804H24.3066C24.4517 14.6804 24.5908 14.6228 24.6933 14.5202C24.7959 14.4177 24.8535 14.2786 24.8535 14.1335C24.8535 13.9885 24.7959 13.8494 24.6933 13.7468C24.5908 13.6443 24.4517 13.5867 24.3066 13.5867H23.1243C22.9792 13.5867 22.8401 13.6443 22.7376 13.7468C22.635 13.8494 22.5774 13.9885 22.5774 14.1335C22.5774 14.2786 22.635 14.4177 22.7376 14.5202C22.8401 14.6228 22.9792 14.6804 23.1243 14.6804ZM5.82225 16.9964H4.64046C4.49542 16.9964 4.35632 17.0541 4.25376 17.1566C4.1512 17.2592 4.09358 17.3983 4.09358 17.5433C4.09358 17.6884 4.1512 17.8275 4.25376 17.93C4.35632 18.0326 4.49542 18.0902 4.64046 18.0902H5.82225C5.96729 18.0902 6.10639 18.0326 6.20895 17.93C6.31151 17.8275 6.36913 17.6884 6.36913 17.5433C6.36913 17.3983 6.31151 17.2592 6.20895 17.1566C6.10639 17.0541 5.96729 16.9964 5.82225 16.9964ZM10.4433 16.9964H9.261C9.11596 16.9964 8.97686 17.0541 8.8743 17.1566C8.77175 17.2592 8.71413 17.3983 8.71413 17.5433C8.71413 17.6884 8.77175 17.8275 8.8743 17.93C8.97686 18.0326 9.11596 18.0902 9.261 18.0902H10.4433C10.5884 18.0902 10.7275 18.0326 10.83 17.93C10.9326 17.8275 10.9902 17.6884 10.9902 17.5433C10.9902 17.3983 10.9326 17.2592 10.83 17.1566C10.7275 17.0541 10.5884 16.9964 10.4433 16.9964ZM15.0644 16.9964H13.8821C13.7371 16.9964 13.598 17.0541 13.4954 17.1566C13.3928 17.2592 13.3352 17.3983 13.3352 17.5433C13.3352 17.6884 13.3928 17.8275 13.4954 17.93C13.598 18.0326 13.7371 18.0902 13.8821 18.0902H15.0644C15.2095 18.0902 15.3486 18.0326 15.4511 17.93C15.5537 17.8275 15.6113 17.6884 15.6113 17.5433C15.6113 17.3983 15.5537 17.2592 15.4511 17.1566C15.3486 17.0541 15.2095 16.9964 15.0644 16.9964ZM18.5032 18.0902H19.6855C19.8306 18.0902 19.9697 18.0326 20.0722 17.93C20.1748 17.8275 20.2324 17.6884 20.2324 17.5433C20.2324 17.3983 20.1748 17.2592 20.0722 17.1566C19.9697 17.0541 19.8306 16.9964 19.6855 16.9964H18.5032C18.3582 16.9964 18.2191 17.0541 18.1165 17.1566C18.0139 17.2592 17.9563 17.3983 17.9563 17.5433C17.9563 17.6884 18.0139 17.8275 18.1165 17.93C18.2191 18.0326 18.3582 18.0902 18.5032 18.0902ZM5.82225 20.4057H4.64046C4.49542 20.4057 4.35632 20.4633 4.25376 20.5658C4.1512 20.6684 4.09358 20.8075 4.09358 20.9525C4.09358 21.0976 4.1512 21.2367 4.25376 21.3392C4.35632 21.4418 4.49542 21.4994 4.64046 21.4994H5.82225C5.96729 21.4994 6.10639 21.4418 6.20895 21.3392C6.31151 21.2367 6.36913 21.0976 6.36913 20.9525C6.36913 20.8075 6.31151 20.6684 6.20895 20.5658C6.10639 20.4633 5.96729 20.4057 5.82225 20.4057ZM10.4433 20.4057H9.261C9.11596 20.4057 8.97686 20.4633 8.8743 20.5658C8.77175 20.6684 8.71413 20.8075 8.71413 20.9525C8.71413 21.0976 8.77175 21.2367 8.8743 21.3392C8.97686 21.4418 9.11596 21.4994 9.261 21.4994H10.4433C10.5884 21.4994 10.7275 21.4418 10.83 21.3392C10.9326 21.2367 10.9902 21.0976 10.9902 20.9525C10.9902 20.8075 10.9326 20.6684 10.83 20.5658C10.7275 20.4633 10.5884 20.4057 10.4433 20.4057ZM15.0644 20.4057H13.8821C13.7371 20.4057 13.598 20.4633 13.4954 20.5658C13.3928 20.6684 13.3352 20.8075 13.3352 20.9525C13.3352 21.0976 13.3928 21.2367 13.4954 21.3392C13.598 21.4418 13.7371 21.4994 13.8821 21.4994H15.0644C15.2095 21.4994 15.3486 21.4418 15.4511 21.3392C15.5537 21.2367 15.6113 21.0976 15.6113 20.9525C15.6113 20.8075 15.5537 20.6684 15.4511 20.5658C15.3486 20.4633 15.2095 20.4057 15.0644 20.4057ZM5.82225 23.8154H4.64046C4.49542 23.8154 4.35632 23.873 4.25376 23.9756C4.1512 24.0782 4.09358 24.2173 4.09358 24.3623C4.09358 24.5073 4.1512 24.6464 4.25376 24.749C4.35632 24.8516 4.49542 24.9092 4.64046 24.9092H5.82225C5.96729 24.9092 6.10639 24.8516 6.20895 24.749C6.31151 24.6464 6.36913 24.5073 6.36913 24.3623C6.36913 24.2173 6.31151 24.0782 6.20895 23.9756C6.10639 23.873 5.96729 23.8154 5.82225 23.8154ZM10.4433 23.8154H9.261C9.11596 23.8154 8.97686 23.873 8.8743 23.9756C8.77175 24.0782 8.71413 24.2173 8.71413 24.3623C8.71413 24.5073 8.77175 24.6464 8.8743 24.749C8.97686 24.8516 9.11596 24.9092 9.261 24.9092H10.4433C10.5884 24.9092 10.7275 24.8516 10.83 24.749C10.9326 24.6464 10.9902 24.5073 10.9902 24.3623C10.9902 24.2173 10.9326 24.0782 10.83 23.9756C10.7275 23.873 10.5884 23.8154 10.4433 23.8154ZM15.0644 23.8154H13.8821C13.7371 23.8154 13.598 23.873 13.4954 23.9756C13.3928 24.0782 13.3352 24.2173 13.3352 24.3623C13.3352 24.5073 13.3928 24.6464 13.4954 24.749C13.598 24.8516 13.7371 24.9092 13.8821 24.9092H15.0644C15.2095 24.9092 15.3486 24.8516 15.4511 24.749C15.5537 24.6464 15.6113 24.5073 15.6113 24.3623C15.6113 24.2173 15.5537 24.0782 15.4511 23.9756C15.3486 23.873 15.2095 23.8154 15.0644 23.8154Z" fill="#0D0D0D"/>
<path d="M28.8528 18.1279V6.9361C28.8521 6.24608 28.5777 5.58452 28.0897 5.0966C27.6018 4.60868 26.9403 4.33425 26.2502 4.33353H23.6411V2.76782C23.6411 2.62278 23.5835 2.48368 23.4809 2.38112C23.3784 2.27856 23.2393 2.22095 23.0942 2.22095C22.9492 2.22095 22.8101 2.27856 22.7075 2.38112C22.605 2.48368 22.5473 2.62278 22.5473 2.76782V4.33353H17.8934V2.76782C17.8934 2.62278 17.8358 2.48368 17.7333 2.38112C17.6307 2.27856 17.4916 2.22095 17.3466 2.22095C17.2015 2.22095 17.0624 2.27856 16.9599 2.38112C16.8573 2.48368 16.7997 2.62278 16.7997 2.76782V4.33353H12.1458V2.76782C12.1458 2.62278 12.0882 2.48368 11.9856 2.38112C11.883 2.27856 11.7439 2.22095 11.5989 2.22095C11.4539 2.22095 11.3148 2.27856 11.2122 2.38112C11.1096 2.48368 11.052 2.62278 11.052 2.76782V4.33353H6.39812V2.76782C6.39812 2.62278 6.3405 2.48368 6.23794 2.38112C6.13539 2.27856 5.99629 2.22095 5.85124 2.22095C5.7062 2.22095 5.5671 2.27856 5.46455 2.38112C5.36199 2.48368 5.30437 2.62278 5.30437 2.76782V4.33353H2.69523C2.00525 4.33439 1.34378 4.60887 0.855888 5.09676C0.367998 5.58465 0.0935196 6.24612 0.0926514 6.9361V26.4114C0.0933752 27.1014 0.367807 27.763 0.855728 28.2509C1.34365 28.7388 2.0052 29.0133 2.69523 29.014H17.9656C19.3421 31.4306 21.937 33.0674 24.912 33.0674C29.3198 33.0674 32.9052 29.4816 32.9052 25.0743C32.9052 22.0999 31.2684 19.5044 28.8517 18.1279H28.8528ZM2.69632 5.42728H5.30546V6.99517C5.30546 7.14021 5.36308 7.27931 5.46564 7.38187C5.5682 7.48442 5.7073 7.54204 5.85234 7.54204C5.99738 7.54204 6.13648 7.48442 6.23904 7.38187C6.3416 7.27931 6.39921 7.14021 6.39921 6.99517V5.42728H11.0531V6.99517C11.0531 7.14021 11.1107 7.27931 11.2133 7.38187C11.3159 7.48442 11.455 7.54204 11.6 7.54204C11.745 7.54204 11.8841 7.48442 11.9867 7.38187C12.0893 7.27931 12.1469 7.14021 12.1469 6.99517V5.42728H16.8008V6.99517C16.8008 7.14021 16.8584 7.27931 16.961 7.38187C17.0635 7.48442 17.2026 7.54204 17.3477 7.54204C17.4927 7.54204 17.6318 7.48442 17.7344 7.38187C17.8369 7.27931 17.8945 7.14021 17.8945 6.99517V5.42728H22.5484V6.99517C22.5484 7.14021 22.606 7.27931 22.7086 7.38187C22.8112 7.48442 22.9503 7.54204 23.0953 7.54204C23.2403 7.54204 23.3794 7.48442 23.482 7.38187C23.5846 7.27931 23.6422 7.14021 23.6422 6.99517V5.42728H26.2513C26.6513 5.42785 27.0348 5.58701 27.3176 5.86984C27.6004 6.15267 27.7596 6.53612 27.7602 6.9361V10.0336H1.18749V6.9361C1.18793 6.53607 1.34703 6.15255 1.6299 5.86968C1.91277 5.58681 2.29629 5.42771 2.69632 5.42728ZM2.69632 27.9208C2.29633 27.9202 1.91289 27.7611 1.63006 27.4782C1.34722 27.1954 1.18807 26.812 1.18749 26.412V11.1274H27.7591V17.6144C26.8511 17.2638 25.8864 17.0833 24.9131 17.0817C20.5053 17.0817 16.92 20.6676 16.92 25.0749C16.9215 26.0484 17.1022 27.0133 17.4532 27.9213L2.69632 27.9208ZM24.9131 31.9737C21.1085 31.9737 18.0137 28.8784 18.0137 25.0743C18.0137 21.2702 21.1085 18.1749 24.9131 18.1749C28.7177 18.1749 31.8125 21.2702 31.8125 25.0743C31.8125 28.8784 28.7177 31.9737 24.9131 31.9737Z" fill="#0D0D0D"/>
<path d="M27.5611 22.4265C27.5103 22.3756 27.4501 22.3353 27.3837 22.3078C27.3174 22.2803 27.2463 22.2661 27.1744 22.2661C27.1026 22.2661 27.0315 22.2803 26.9652 22.3078C26.8988 22.3353 26.8385 22.3756 26.7878 22.4265L24.9131 24.3011L23.0384 22.4265C22.9359 22.3239 22.7968 22.2663 22.6518 22.2663C22.5068 22.2663 22.3677 22.3239 22.2651 22.4265C22.1626 22.529 22.105 22.6681 22.105 22.8131C22.105 22.9581 22.1626 23.0972 22.2651 23.1997L24.1398 25.0744L22.2651 26.9491C22.1626 27.0517 22.105 27.1907 22.105 27.3358C22.105 27.4808 22.1626 27.6199 22.2651 27.7224C22.3677 27.8249 22.5068 27.8825 22.6518 27.8825C22.7968 27.8825 22.9359 27.8249 23.0384 27.7224L24.9131 25.8477L26.7878 27.7224C26.8385 27.7734 26.8987 27.8138 26.9651 27.8414C27.0314 27.869 27.1026 27.8832 27.1744 27.8832C27.2463 27.8832 27.3175 27.869 27.3838 27.8414C27.4502 27.8138 27.5104 27.7734 27.5611 27.7224C27.6119 27.6717 27.6522 27.6114 27.6798 27.545C27.7073 27.4787 27.7214 27.4076 27.7214 27.3358C27.7214 27.2639 27.7073 27.1928 27.6798 27.1265C27.6522 27.0601 27.6119 26.9999 27.5611 26.9491L25.6864 25.0744L27.5611 23.1997C27.6119 23.149 27.6522 23.0887 27.6798 23.0224C27.7073 22.956 27.7214 22.8849 27.7214 22.8131C27.7214 22.7413 27.7073 22.6702 27.6798 22.6038C27.6522 22.5375 27.6119 22.4772 27.5611 22.4265Z" fill="#0D0D0D"/>
</g>
</svg>
