<svg width="31" height="32" viewBox="0 0 31 32" fill="none" xmlns="http://www.w3.org/2000/svg">
<g opacity="0.3">
<path d="M27.5 4H25V3C25 2.46957 24.7893 1.96086 24.4142 1.58579C24.0391 1.21071 23.5304 1 23 1C22.4696 1 21.9609 1.21071 21.5858 1.58579C21.2107 1.96086 21 2.46957 21 3V4H17V3C17 2.46957 16.7893 1.96086 16.4142 1.58579C16.0391 1.21071 15.5304 1 15 1C14.4696 1 13.9609 1.21071 13.5858 1.58579C13.2107 1.96086 13 2.46957 13 3V4H9V3C9 2.46957 8.78929 1.96086 8.41421 1.58579C8.03914 1.21071 7.53043 1 7 1C6.46957 1 5.96086 1.21071 5.58579 1.58579C5.21071 1.96086 5 2.46957 5 3V4H2.5C1.83696 4 1.20107 4.26339 0.732233 4.73223C0.263392 5.20107 0 5.83696 0 6.5V26.5C0 27.163 0.263392 27.7989 0.732233 28.2678C1.20107 28.7366 1.83696 29 2.5 29H16.5C16.6326 29 16.7598 28.9473 16.8536 28.8536C16.9473 28.7598 17 28.6326 17 28.5C17 28.3674 16.9473 28.2402 16.8536 28.1464C16.7598 28.0527 16.6326 28 16.5 28H2.5C2.10254 27.9988 1.7217 27.8404 1.44065 27.5593C1.1596 27.2783 1.00119 26.8975 1 26.5V11H29V19.5C29 19.6326 29.0527 19.7598 29.1464 19.8536C29.2402 19.9473 29.3674 20 29.5 20C29.6326 20 29.7598 19.9473 29.8536 19.8536C29.9473 19.7598 30 19.6326 30 19.5V6.5C30 5.83696 29.7366 5.20107 29.2678 4.73223C28.7989 4.26339 28.163 4 27.5 4ZM22 3C22 2.73478 22.1054 2.48043 22.2929 2.29289C22.4804 2.10536 22.7348 2 23 2C23.2652 2 23.5196 2.10536 23.7071 2.29289C23.8946 2.48043 24 2.73478 24 3V6C24 6.26522 23.8946 6.51957 23.7071 6.70711C23.5196 6.89464 23.2652 7 23 7C22.7348 7 22.4804 6.89464 22.2929 6.70711C22.1054 6.51957 22 6.26522 22 6V3ZM14 3C14 2.73478 14.1054 2.48043 14.2929 2.29289C14.4804 2.10536 14.7348 2 15 2C15.2652 2 15.5196 2.10536 15.7071 2.29289C15.8946 2.48043 16 2.73478 16 3V6C16 6.26522 15.8946 6.51957 15.7071 6.70711C15.5196 6.89464 15.2652 7 15 7C14.7348 7 14.4804 6.89464 14.2929 6.70711C14.1054 6.51957 14 6.26522 14 6V3ZM6 3C6 2.73478 6.10536 2.48043 6.29289 2.29289C6.48043 2.10536 6.73478 2 7 2C7.26522 2 7.51957 2.10536 7.70711 2.29289C7.89464 2.48043 8 2.73478 8 3V6C8 6.26522 7.89464 6.51957 7.70711 6.70711C7.51957 6.89464 7.26522 7 7 7C6.73478 7 6.48043 6.89464 6.29289 6.70711C6.10536 6.51957 6 6.26522 6 6V3ZM29 10H1V6.5C1.00119 6.10254 1.1596 5.7217 1.44065 5.44065C1.7217 5.1596 2.10254 5.00119 2.5 5H5V6C5 6.53043 5.21071 7.03914 5.58579 7.41421C5.96086 7.78929 6.46957 8 7 8C7.53043 8 8.03914 7.78929 8.41421 7.41421C8.78929 7.03914 9 6.53043 9 6V5H13V6C13 6.53043 13.2107 7.03914 13.5858 7.41421C13.9609 7.78929 14.4696 8 15 8C15.5304 8 16.0391 7.78929 16.4142 7.41421C16.7893 7.03914 17 6.53043 17 6V5H21V6C21 6.53043 21.2107 7.03914 21.5858 7.41421C21.9609 7.78929 22.4696 8 23 8C23.5304 8 24.0391 7.78929 24.4142 7.41421C24.7893 7.03914 25 6.53043 25 6V5H27.5C27.8975 5.00119 28.2783 5.1596 28.5593 5.44065C28.8404 5.7217 28.9988 6.10254 29 6.5V10Z" fill="#0D0D0D"/>
<path d="M14 14.5C14 14.2348 13.8946 13.9804 13.7071 13.7929C13.5196 13.6054 13.2652 13.5 13 13.5H11C10.7348 13.5 10.4804 13.6054 10.2929 13.7929C10.1054 13.9804 10 14.2348 10 14.5V16C10 16.2652 10.1054 16.5196 10.2929 16.7071C10.4804 16.8946 10.7348 17 11 17H13C13.2652 17 13.5196 16.8946 13.7071 16.7071C13.8946 16.5196 14 16.2652 14 16V14.5ZM11 16V14.5H13V16H11ZM8 14.5C8 14.2348 7.89464 13.9804 7.70711 13.7929C7.51957 13.6054 7.26522 13.5 7 13.5H5C4.73478 13.5 4.48043 13.6054 4.29289 13.7929C4.10536 13.9804 4 14.2348 4 14.5V16C4 16.2652 4.10536 16.5196 4.29289 16.7071C4.48043 16.8946 4.73478 17 5 17H7C7.26522 17 7.51957 16.8946 7.70711 16.7071C7.89464 16.5196 8 16.2652 8 16V14.5ZM5 16V14.5H7V16H5ZM25 17C25.2652 17 25.5196 16.8946 25.7071 16.7071C25.8946 16.5196 26 16.2652 26 16V14.5C26 14.2348 25.8946 13.9804 25.7071 13.7929C25.5196 13.6054 25.2652 13.5 25 13.5H23C22.7348 13.5 22.4804 13.6054 22.2929 13.7929C22.1054 13.9804 22 14.2348 22 14.5V16C22 16.2652 22.1054 16.5196 22.2929 16.7071C22.4804 16.8946 22.7348 17 23 17H25ZM23 14.5H25V16H23V14.5ZM14 19C14 18.7348 13.8946 18.4804 13.7071 18.2929C13.5196 18.1054 13.2652 18 13 18H11C10.7348 18 10.4804 18.1054 10.2929 18.2929C10.1054 18.4804 10 18.7348 10 19V20.5C10 20.7652 10.1054 21.0196 10.2929 21.2071C10.4804 21.3946 10.7348 21.5 11 21.5H13C13.2652 21.5 13.5196 21.3946 13.7071 21.2071C13.8946 21.0196 14 20.7652 14 20.5V19ZM11 20.5V19H13V20.5H11ZM8 19C8 18.7348 7.89464 18.4804 7.70711 18.2929C7.51957 18.1054 7.26522 18 7 18H5C4.73478 18 4.48043 18.1054 4.29289 18.2929C4.10536 18.4804 4 18.7348 4 19V20.5C4 20.7652 4.10536 21.0196 4.29289 21.2071C4.48043 21.3946 4.73478 21.5 5 21.5H7C7.26522 21.5 7.51957 21.3946 7.70711 21.2071C7.89464 21.0196 8 20.7652 8 20.5V19ZM5 20.5V19H7V20.5H5ZM13 22.5H11C10.7348 22.5 10.4804 22.6054 10.2929 22.7929C10.1054 22.9804 10 23.2348 10 23.5V25C10 25.2652 10.1054 25.5196 10.2929 25.7071C10.4804 25.8946 10.7348 26 11 26H13C13.2652 26 13.5196 25.8946 13.7071 25.7071C13.8946 25.5196 14 25.2652 14 25V23.5C14 23.2348 13.8946 22.9804 13.7071 22.7929C13.5196 22.6054 13.2652 22.5 13 22.5ZM11 25V23.5H13V25H11ZM17 17H19C19.2652 17 19.5196 16.8946 19.7071 16.7071C19.8946 16.5196 20 16.2652 20 16V14.5C20 14.2348 19.8946 13.9804 19.7071 13.7929C19.5196 13.6054 19.2652 13.5 19 13.5H17C16.7348 13.5 16.4804 13.6054 16.2929 13.7929C16.1054 13.9804 16 14.2348 16 14.5V16C16 16.2652 16.1054 16.5196 16.2929 16.7071C16.4804 16.8946 16.7348 17 17 17ZM17 14.5H19V16H17V14.5ZM16 20.5C16 20.7652 16.1054 21.0196 16.2929 21.2071C16.4804 21.3946 16.7348 21.5 17 21.5C17.1326 21.5 17.2598 21.4473 17.3536 21.3536C17.4473 21.2598 17.5 21.1326 17.5 21C17.5 20.8674 17.4473 20.7402 17.3536 20.6464C17.2598 20.5527 17.1326 20.5 17 20.5V19H19C19.1326 19 19.2598 18.9473 19.3536 18.8536C19.4473 18.7598 19.5 18.6326 19.5 18.5C19.5 18.3674 19.4473 18.2402 19.3536 18.1464C19.2598 18.0527 19.1326 18 19 18H17C16.7348 18 16.4804 18.1054 16.2929 18.2929C16.1054 18.4804 16 18.7348 16 19V20.5ZM7 22.5H5C4.73478 22.5 4.48043 22.6054 4.29289 22.7929C4.10536 22.9804 4 23.2348 4 23.5V25C4 25.2652 4.10536 25.5196 4.29289 25.7071C4.48043 25.8946 4.73478 26 5 26H7C7.26522 26 7.51957 25.8946 7.70711 25.7071C7.89464 25.5196 8 25.2652 8 25V23.5C8 23.2348 7.89464 22.9804 7.70711 22.7929C7.51957 22.6054 7.26522 22.5 7 22.5ZM5 25V23.5H7V25H5Z" fill="#0D0D0D"/>
<path d="M23.5 18C22.2144 18 20.9577 18.3812 19.8888 19.0954C18.8199 19.8097 17.9868 20.8248 17.4948 22.0126C17.0028 23.2003 16.8741 24.5072 17.1249 25.7681C17.3757 27.029 17.9948 28.1872 18.9038 29.0962C19.8129 30.0052 20.971 30.6243 22.2319 30.8751C23.4928 31.1259 24.7997 30.9972 25.9874 30.5052C27.1752 30.0132 28.1903 29.1801 28.9046 28.1112C29.6188 27.0423 30 25.7856 30 24.5C29.998 22.7767 29.3126 21.1246 28.094 19.906C26.8754 18.6874 25.2233 18.002 23.5 18ZM23.5 30C22.4122 30 21.3488 29.6774 20.4444 29.0731C19.5399 28.4687 18.8349 27.6098 18.4187 26.6048C18.0024 25.5998 17.8935 24.4939 18.1057 23.427C18.3179 22.3601 18.8417 21.3801 19.6109 20.6109C20.3801 19.8417 21.3601 19.3179 22.427 19.1057C23.4939 18.8935 24.5998 19.0024 25.6048 19.4187C26.6098 19.8349 27.4687 20.5399 28.0731 21.4444C28.6774 22.3488 29 23.4122 29 24.5C28.9983 25.9582 28.4183 27.3561 27.3872 28.3872C26.3561 29.4183 24.9582 29.9983 23.5 30Z" fill="#0D0D0D"/>
<path d="M26.389 22.404L22.5 26.293L20.7325 24.525C20.6382 24.4339 20.5119 24.3836 20.3808 24.3847C20.2497 24.3858 20.1243 24.4384 20.0316 24.5311C19.9389 24.6238 19.8863 24.7492 19.8852 24.8803C19.884 25.0114 19.9344 25.1377 20.0255 25.232L22.1465 27.3535C22.2403 27.4473 22.3674 27.4999 22.5 27.4999C22.6326 27.4999 22.7597 27.4473 22.8535 27.3535L27.096 23.111C27.1871 23.0167 27.2375 22.8904 27.2363 22.7593C27.2352 22.6282 27.1826 22.5028 27.0899 22.4101C26.9972 22.3174 26.8718 22.2648 26.7407 22.2637C26.6096 22.2626 26.4833 22.3129 26.389 22.404Z" fill="#0D0D0D"/>
</g>
</svg>
