<svg width="12" height="8" viewBox="0 0 12 8" fill="none" xmlns="http://www.w3.org/2000/svg">
<g clip-path="url(#clip0_10467_4601)">
<path d="M0.825969 7.94713C0.461144 7.83039 0.153958 7.51504 0.0455815 7.146C0.00513302 7.00827 0 6.65407 0 4.00066C0 1.34726 0.00512978 0.993061 0.0455815 0.855328C0.156663 0.477076 0.477867 0.15574 0.855185 0.0453872C0.994342 0.00468898 1.52573 0 6 0C10.4839 0 11.0054 0.00462301 11.1448 0.0455891C11.523 0.15669 11.8443 0.477947 11.9546 0.855328C11.9948 0.992756 12 1.35313 12 4.00066C12 6.6482 11.9948 7.00857 11.9546 7.146C11.8443 7.52338 11.523 7.84464 11.1448 7.95574C11.0053 7.99673 10.4857 8.00117 5.98767 7.99979C1.26356 7.99834 0.97684 7.99542 0.825969 7.94713ZM10.9653 7.14438C11.0587 7.10196 11.1008 7.05986 11.1432 6.96641C11.197 6.84779 11.1987 6.7558 11.1987 4.00066C11.1987 1.24553 11.197 1.15354 11.1432 1.03492C11.1008 0.941469 11.0587 0.899362 10.9653 0.856948C10.8456 0.802619 10.7356 0.801388 6 0.801388C1.26443 0.801388 1.15443 0.80262 1.03475 0.856948C0.941312 0.899362 0.899214 0.941469 0.856805 1.03492C0.802978 1.15354 0.801255 1.24553 0.801255 4.00066C0.801255 6.7558 0.802983 6.84779 0.856805 6.96641C0.899214 7.05986 0.941312 7.10196 1.03475 7.14438C1.15443 7.19871 1.26443 7.19994 6 7.19994C10.7356 7.19994 10.8456 7.19871 10.9653 7.14438ZM5.54359 5.95635C5.30563 5.90476 4.94476 5.72789 4.73595 5.5605C4.02465 4.99034 3.79592 3.96183 4.19521 3.12909C4.67138 2.13602 5.88262 1.71445 6.87143 2.19763C7.2979 2.40603 7.59437 2.70255 7.80273 3.12909C7.99376 3.52015 8.05016 4.00166 7.95671 4.44359C7.87115 4.8482 7.59286 5.29694 7.26405 5.5605C7.04969 5.73233 6.69327 5.90472 6.44286 5.9577C6.19515 6.0101 5.78868 6.00949 5.54359 5.95635ZM6.20574 5.16928C6.71406 5.06326 7.07023 4.69817 7.17249 4.17829C7.29151 3.57325 6.82568 2.93933 6.17857 2.82571C5.56065 2.71722 4.93881 3.17503 4.82524 3.82206C4.70695 4.49605 5.27049 5.16906 5.97716 5.19773C6.01961 5.19945 6.12246 5.18665 6.20574 5.16928Z" fill="#13AEF3"/>
</g>
<defs>
<clipPath id="clip0_10467_4601">
<rect width="12" height="8" fill="white"/>
</clipPath>
</defs>
</svg>
