<svg width="20" height="20" viewBox="0 0 20 20" fill="none" xmlns="http://www.w3.org/2000/svg">
<path d="M17.5916 18.8037C17.488 18.7761 17.2584 18.5602 16.0283 17.3342L14.5863 15.8971H12.0188C11.5768 15.8971 11.206 15.8919 10.8955 15.8971C9.86777 15.914 9.63279 16.0088 9.12212 15.5208C8.8664 15.2699 8.76588 14.9376 8.74655 14.5576C8.72339 14.1023 8.72878 13.2276 8.72878 11.3894C8.72878 8.16959 8.73139 8.00672 8.78593 7.83149C8.92829 7.37408 9.26228 7.04938 9.7147 6.92853C9.94282 6.86759 18.7929 6.86863 19.0219 6.92946C19.3553 7.01824 19.7043 7.29334 19.8489 7.5813C20.0124 7.90705 20.005 7.71331 19.9962 11.4393L19.9897 14.18C19.9943 14.5227 20.0235 14.8473 19.868 15.1615C19.7719 15.3435 19.6213 15.5232 19.4637 15.6392C19.2377 15.8055 19.0318 15.8698 18.6533 15.8923L18.3196 15.9121L18.3044 17.2038L18.2893 18.4955L18.2076 18.6026C18.0671 18.7866 17.8246 18.8657 17.5915 18.8036L17.5916 18.8037ZM17.9423 14.8128C18.0116 14.8103 18.0935 14.8074 18.1911 14.805C18.7809 14.7902 18.7968 14.7881 18.8533 14.7182C18.9095 14.6487 18.9112 14.5495 18.9112 11.3874V8.12831L18.8367 8.05384L18.7623 7.97938H13.2189H9.9613L9.89108 8.04534L9.82088 8.1113V11.3837V14.4417C9.82088 14.7496 9.85201 14.805 10.1659 14.805H12.2306C14.9446 14.805 14.9556 14.814 15.0192 14.8407C15.0658 14.8604 15.575 15.3416 16.1506 15.9101L17.1972 16.9437L17.2124 16.0791C17.2171 15.8096 17.2133 15.6088 17.215 15.4614C17.2185 15.1538 17.3026 14.8358 17.9423 14.8128ZM2.72823 17.1949C2.59305 17.1539 2.52251 17.1047 2.43547 16.9906L2.35081 16.8796L2.33564 15.0419L2.32049 13.2042L1.68343 13.1851C1.13516 13.1688 1.02267 13.157 0.876328 13.1012C0.524797 12.967 0.283507 12.7469 0.129439 12.4162C0.0591376 12.2843 0.031698 12.1476 0.0233042 12.0004C0.00277828 11.6098 -0.000150957 10.5145 5.74978e-06 7.18465C0.000139687 2.53617 0.00279577 2.30513 0.0562407 2.12943C0.203009 1.64688 0.590877 1.29866 1.08293 1.2077C1.35959 1.15656 15.6135 1.16614 15.8532 1.2176C16.3985 1.3347 16.7939 1.77312 16.8689 2.34388C16.9193 2.72688 16.8947 6.2047 16.841 6.30273C16.6571 6.63829 16.2758 6.73222 16.0047 6.50876C15.7988 6.33903 15.8056 6.41231 15.8056 4.36673C15.8056 3.39624 15.7986 2.77519 15.7851 2.53573C15.7765 2.38348 15.7414 2.30195 15.5867 2.29242C15.2979 2.27461 14.0679 2.26805 9.12799 2.26805C4.18818 2.26805 2.30635 2.27591 1.58153 2.29341C1.51273 2.29507 1.41332 2.29586 1.32319 2.2991C1.17703 2.30435 1.11059 2.33355 1.11072 2.40593C1.11072 2.40933 1.10832 2.44154 1.10715 2.50054C1.10622 2.54681 1.10537 2.60942 1.10452 2.68706C1.09717 3.35377 1.09189 5.12897 1.09189 7.18604C1.09189 10.6543 1.09477 11.6094 1.1192 11.8852C1.12508 11.9516 1.21937 12.0631 1.30613 12.0666C1.5393 12.076 2.00396 12.0666 2.00396 12.0666C2.88587 12.0666 3.07395 12.0887 3.21738 12.2094C3.41663 12.3771 3.41106 12.3323 3.42776 13.9019L3.44292 15.3277L5.05073 13.7294C6.17302 12.6138 6.68602 12.1237 6.74954 12.1065C6.85022 12.0791 7.70275 12.0747 7.99065 12.0948C8.1279 12.0962 8.23522 12.1885 8.32633 12.2833C8.3695 12.33 8.40473 12.379 8.42254 12.4216C8.52313 12.6624 8.43317 12.9483 8.21264 13.0888C8.09028 13.1668 8.06252 13.1711 7.61412 13.1827L7.14392 13.1948L5.15691 15.1739C3.44577 16.8782 3.15256 17.1579 3.04503 17.1884C2.90523 17.228 2.84141 17.2293 2.72823 17.1949Z" fill="white"/>
</svg>
