<svg width="20" height="18" viewBox="0 0 20 18" fill="none" xmlns="http://www.w3.org/2000/svg">
<path d="M17.5916 17.8037C17.488 17.7761 17.2584 17.5602 16.0283 16.3342L14.5863 14.8971H12.0188C11.5768 14.8971 11.206 14.8919 10.8955 14.8971C9.86777 14.914 9.63279 15.0088 9.12212 14.5208C8.8664 14.2699 8.76588 13.9376 8.74655 13.5576C8.72339 13.1023 8.72878 12.2276 8.72878 10.3894C8.72878 7.16959 8.73139 7.00672 8.78593 6.83149C8.92829 6.37408 9.26228 6.04938 9.7147 5.92853C9.94282 5.86759 18.7929 5.86863 19.0219 5.92946C19.3553 6.01824 19.7043 6.29334 19.8489 6.5813C20.0124 6.90705 20.005 6.71331 19.9962 10.4393L19.9897 13.18C19.9943 13.5227 20.0235 13.8473 19.868 14.1615C19.7719 14.3435 19.6213 14.5232 19.4637 14.6392C19.2377 14.8055 19.0318 14.8698 18.6533 14.8923L18.3196 14.9121L18.3044 16.2038L18.2893 17.4955L18.2076 17.6026C18.0671 17.7866 17.8246 17.8657 17.5915 17.8036L17.5916 17.8037ZM17.9423 13.8128C18.0116 13.8103 18.0935 13.8074 18.1911 13.805C18.7809 13.7902 18.7968 13.7881 18.8533 13.7182C18.9095 13.6487 18.9112 13.5495 18.9112 10.3874V7.12831L18.8367 7.05384L18.7623 6.97938H13.2189H9.9613L9.89108 7.04534L9.82088 7.1113V10.3837V13.4417C9.82088 13.7496 9.85201 13.805 10.1659 13.805H12.2306C14.9446 13.805 14.9556 13.814 15.0192 13.8407C15.0658 13.8604 15.575 14.3416 16.1506 14.9101L17.1972 15.9437L17.2124 15.0791C17.2171 14.8096 17.2133 14.6088 17.215 14.4614C17.2185 14.1538 17.3026 13.8358 17.9423 13.8128ZM2.72823 16.1949C2.59305 16.1539 2.52251 16.1047 2.43547 15.9906L2.35081 15.8796L2.33564 14.0419L2.32049 12.2042L1.68343 12.1851C1.13516 12.1688 1.02267 12.157 0.876328 12.1012C0.524797 11.967 0.283507 11.7469 0.129439 11.4162C0.0591376 11.2843 0.031698 11.1476 0.0233042 11.0004C0.00277828 10.6098 -0.000150957 9.51453 5.74978e-06 6.18465C0.000139687 1.53617 0.00279577 1.30513 0.0562407 1.12943C0.203009 0.646877 0.590877 0.298662 1.08293 0.207699C1.35959 0.156556 15.6135 0.166139 15.8532 0.217599C16.3985 0.334703 16.7939 0.77312 16.8689 1.34388C16.9193 1.72688 16.8947 5.2047 16.841 5.30273C16.6571 5.63829 16.2758 5.73222 16.0047 5.50876C15.7988 5.33903 15.8056 5.41231 15.8056 3.36673C15.8056 2.39624 15.7986 1.77519 15.7851 1.53573C15.7765 1.38348 15.7414 1.30195 15.5867 1.29242C15.2979 1.27461 14.0679 1.26805 9.12799 1.26805C4.18818 1.26805 2.30635 1.27591 1.58153 1.29341C1.51273 1.29507 1.41332 1.29586 1.32319 1.2991C1.17703 1.30435 1.11059 1.33355 1.11072 1.40593C1.11072 1.40933 1.10832 1.44154 1.10715 1.50054C1.10622 1.54681 1.10537 1.60942 1.10452 1.68706C1.09717 2.35377 1.09189 4.12897 1.09189 6.18604C1.09189 9.65429 1.09477 10.6094 1.1192 10.8852C1.12508 10.9516 1.21937 11.0631 1.30613 11.0666C1.5393 11.076 2.00396 11.0666 2.00396 11.0666C2.88587 11.0666 3.07395 11.0887 3.21738 11.2094C3.41663 11.3771 3.41106 11.3323 3.42776 12.9019L3.44292 14.3277L5.05073 12.7294C6.17302 11.6138 6.68602 11.1237 6.74954 11.1065C6.85022 11.0791 7.70275 11.0747 7.99065 11.0948C8.1279 11.0962 8.23522 11.1885 8.32633 11.2833C8.3695 11.33 8.40473 11.379 8.42254 11.4216C8.52313 11.6624 8.43317 11.9483 8.21264 12.0888C8.09028 12.1668 8.06252 12.1711 7.61412 12.1827L7.14392 12.1948L5.15691 14.1739C3.44577 15.8782 3.15256 16.1579 3.04503 16.1884C2.90523 16.228 2.84141 16.2293 2.72823 16.1949Z" fill="white"/>
</svg>
