<svg width="16" height="12" viewBox="0 0 16 12" fill="none" xmlns="http://www.w3.org/2000/svg">
<path d="M6.28024 11.3409C6.21075 11.4108 6.12813 11.4663 6.03713 11.5041C5.94613 11.542 5.84854 11.5614 5.74999 11.5614C5.65143 11.5614 5.55385 11.542 5.46285 11.5041C5.37185 11.4663 5.28923 11.4108 5.21974 11.3409L0.985238 7.10566C0.774333 6.89469 0.655853 6.60859 0.655853 6.31028C0.655853 6.01197 0.774333 5.72588 0.985238 5.51491L1.51549 4.98466C1.72646 4.77375 2.01255 4.65527 2.31086 4.65527C2.60917 4.65527 2.89527 4.77375 3.10624 4.98466L5.74999 7.62841L12.8937 0.484658C13.1047 0.273753 13.3908 0.155273 13.6891 0.155273C13.9874 0.155273 14.2735 0.273753 14.4845 0.484658L15.0147 1.01491C15.2256 1.22588 15.3441 1.51197 15.3441 1.81028C15.3441 2.10859 15.2256 2.39469 15.0147 2.60566L6.28024 11.3409Z" fill="#01C7FB"/>
</svg>
