<svg width="27" height="29" viewBox="0 0 27 29" fill="none" xmlns="http://www.w3.org/2000/svg">
<path d="M12.4902 28.9921C16.2058 28.9921 19.924 27.5762 22.7547 24.746C26.3126 21.1876 27.7584 16.135 26.6219 11.2304C26.5911 11.0971 26.5086 10.9816 26.3925 10.9091C26.2765 10.8367 26.1365 10.8134 26.0032 10.8442C25.8699 10.875 25.7544 10.9575 25.6819 11.0736C25.6095 11.1896 25.5861 11.3297 25.617 11.4629C26.673 16.019 25.3303 20.7122 22.0257 24.0169C16.7709 29.2716 8.22598 29.2768 2.97847 24.0292C-2.27627 18.7745 -2.27627 10.2244 2.97847 4.96916C7.92331 0.0237982 15.8907 -0.241749 21.1733 4.20397L19.134 4.73094C19.0043 4.76749 18.894 4.8534 18.8268 4.97027C18.7596 5.08713 18.7409 5.22567 18.7746 5.35619C18.8083 5.48671 18.8918 5.59884 19.0072 5.66856C19.1225 5.73828 19.2606 5.76004 19.3918 5.72919L22.2505 4.99081C22.3304 4.9893 22.4088 4.96899 22.4794 4.93152L22.5274 4.91914C22.593 4.90239 22.6548 4.8728 22.709 4.83208C22.7632 4.79136 22.8088 4.74031 22.8431 4.68187C22.8775 4.62344 22.9 4.55878 22.9092 4.49163C22.9185 4.42447 22.9143 4.35615 22.8971 4.29059L22.0102 0.872517C21.9711 0.74546 21.8846 0.638363 21.7685 0.573535C21.6525 0.508707 21.5159 0.491145 21.3873 0.524508C21.2586 0.55787 21.1478 0.639585 21.0778 0.752632C21.0079 0.865678 20.9843 1.00134 21.0119 1.13136L21.5399 3.16653C15.8552 -1.36169 7.48091 -0.991983 2.24937 4.24006C-3.40755 9.89699 -3.40755 19.1014 2.24937 24.7583C5.07242 27.5814 8.77977 28.9921 12.4902 28.9921Z" fill="#0D0D0D"/>
<path d="M7.72274 22.8226C7.66404 22.7889 7.59928 22.7671 7.53216 22.7585C7.46503 22.7498 7.39687 22.7545 7.33155 22.7722C7.26624 22.7899 7.20505 22.8204 7.1515 22.8617C7.09794 22.9031 7.05307 22.9546 7.01943 23.0133L6.63426 23.6852C6.57079 23.8035 6.55593 23.9418 6.59285 24.0709C6.62976 24.1999 6.71554 24.3095 6.83196 24.3763C6.94837 24.4431 7.08625 24.4618 7.21628 24.4286C7.34632 24.3954 7.45827 24.3127 7.52835 24.1983L7.91352 23.5264C7.94721 23.4677 7.969 23.4029 7.97765 23.3357C7.98629 23.2685 7.98162 23.2003 7.96391 23.135C7.94619 23.0696 7.91577 23.0084 7.87439 22.9548C7.83302 22.9012 7.78148 22.8562 7.72274 22.8226ZM21.0099 19.9753L21.6817 20.3605C21.7404 20.3943 21.8052 20.4162 21.8723 20.4249C21.9395 20.4336 22.0077 20.4289 22.073 20.4112C22.1384 20.3935 22.1996 20.363 22.2531 20.3216C22.3067 20.2801 22.3515 20.2285 22.3851 20.1697C22.4187 20.1109 22.4405 20.0461 22.4492 19.979C22.4578 19.9118 22.4532 19.8436 22.4354 19.7782C22.4177 19.7129 22.3873 19.6517 22.3459 19.5981C22.3045 19.5445 22.253 19.4995 22.1943 19.4658L21.5224 19.0807C21.4637 19.047 21.3989 19.0253 21.3317 19.0167C21.2646 19.008 21.1964 19.0127 21.1311 19.0305C21.0657 19.0482 21.0045 19.0787 20.951 19.12C20.8974 19.1614 20.8525 19.213 20.8188 19.2717C20.7852 19.3305 20.7634 19.3952 20.7548 19.4624C20.7462 19.5295 20.7509 19.5977 20.7686 19.6631C20.7864 19.7284 20.8168 19.7896 20.8582 19.8432C20.8996 19.8967 20.9511 19.9416 21.0099 19.9753ZM3.98137 9.02289L3.30899 8.6372C3.25025 8.60355 3.18546 8.5818 3.11831 8.57319C3.05116 8.56457 2.98297 8.56927 2.91764 8.58701C2.85231 8.60475 2.79111 8.63518 2.73754 8.67658C2.68397 8.71797 2.63907 8.7695 2.60542 8.82824C2.57177 8.88698 2.55001 8.95178 2.5414 9.01893C2.53279 9.08608 2.53749 9.15426 2.55523 9.21959C2.57297 9.28493 2.6034 9.34613 2.64479 9.3997C2.68618 9.45327 2.73772 9.49816 2.79646 9.53181L3.46883 9.9175C3.5275 9.95132 3.59227 9.97321 3.65942 9.98192C3.72657 9.99063 3.79478 9.98599 3.86014 9.96826C3.92549 9.95053 3.98669 9.92007 4.04024 9.87862C4.09378 9.83717 4.13861 9.78555 4.17215 9.72672C4.20584 9.66798 4.22763 9.60318 4.23627 9.53602C4.24492 9.46886 4.24025 9.40065 4.22253 9.33529C4.20482 9.26994 4.1744 9.20871 4.13302 9.15511C4.09164 9.1015 4.04011 9.05658 3.98137 9.02289ZM7.91352 5.47178L7.52835 4.79992C7.45827 4.68545 7.34632 4.60281 7.21628 4.56957C7.08625 4.53633 6.94837 4.55511 6.83196 4.62191C6.71554 4.68871 6.62976 4.79827 6.59285 4.92731C6.55593 5.05636 6.57079 5.19471 6.63426 5.31297L7.01943 5.98483C7.08746 6.10339 7.19981 6.19008 7.33176 6.22581C7.4637 6.26154 7.60444 6.24339 7.723 6.17535C7.84156 6.10732 7.92824 5.99497 7.96397 5.86303C7.9997 5.73108 7.98156 5.59035 7.91352 5.47178ZM17.268 22.8226C17.2092 22.8562 17.1577 22.9012 17.1163 22.9548C17.075 23.0084 17.0445 23.0696 17.0268 23.135C17.0091 23.2003 17.0044 23.2685 17.0131 23.3357C17.0217 23.4029 17.0435 23.4677 17.0772 23.5264L17.4624 24.1983C17.5304 24.3168 17.6428 24.4035 17.7747 24.4392C17.9067 24.475 18.0474 24.4568 18.166 24.3888C18.2845 24.3207 18.3712 24.2084 18.4069 24.0764C18.4427 23.9445 18.4245 23.8038 18.3565 23.6852L17.9713 23.0133C17.9033 22.8949 17.791 22.8082 17.6591 22.7724C17.5273 22.7367 17.3866 22.7547 17.268 22.8226ZM3.05324 20.429C3.14038 20.429 3.22855 20.4074 3.30899 20.361L3.98137 19.9758C4.04014 19.9421 4.09171 19.8972 4.13313 19.8437C4.17456 19.7901 4.20502 19.7289 4.22278 19.6635C4.24055 19.5981 4.24526 19.5299 4.23666 19.4628C4.22806 19.3956 4.20632 19.3307 4.17266 19.272C4.13901 19.2132 4.09411 19.1616 4.04053 19.1202C3.98694 19.0788 3.92572 19.0483 3.86037 19.0306C3.79501 19.0128 3.7268 19.0081 3.65962 19.0167C3.59244 19.0253 3.52761 19.047 3.46883 19.0807L2.79646 19.4658C2.69732 19.5221 2.61963 19.6096 2.57554 19.7147C2.53145 19.8198 2.52346 19.9365 2.55282 20.0466C2.58217 20.1567 2.64722 20.254 2.73778 20.3232C2.82833 20.3924 2.93928 20.4296 3.05324 20.429ZM21.2667 9.98608C21.3538 9.98608 21.442 9.96442 21.5229 9.9175L22.1948 9.53181C22.2535 9.49809 22.3051 9.45313 22.3464 9.3995C22.3878 9.34587 22.4182 9.28461 22.4359 9.21923C22.4536 9.15385 22.4582 9.08563 22.4495 9.01845C22.4409 8.95128 22.419 8.88647 22.3853 8.82773C22.3516 8.76899 22.3066 8.71746 22.253 8.6761C22.1994 8.63473 22.1381 8.60434 22.0727 8.58665C22.0073 8.56895 21.9391 8.56431 21.8719 8.57299C21.8048 8.58166 21.74 8.60348 21.6812 8.6372L21.0094 9.02289C20.9104 9.07925 20.833 9.16678 20.7891 9.27182C20.7452 9.37686 20.7373 9.49348 20.7667 9.60347C20.7961 9.71345 20.8611 9.8106 20.9516 9.87973C21.042 9.94886 21.1528 9.98659 21.2667 9.98608ZM12.4954 4.90511C12.6321 4.90511 12.7633 4.85079 12.86 4.75409C12.9567 4.65739 13.011 4.52624 13.011 4.38949V3.6145C13.011 3.47775 12.9567 3.3466 12.86 3.2499C12.7633 3.1532 12.6321 3.09888 12.4954 3.09888C12.3586 3.09888 12.2275 3.1532 12.1308 3.2499C12.0341 3.3466 11.9797 3.47775 11.9797 3.6145V4.38949C11.9797 4.52624 12.0341 4.65739 12.1308 4.75409C12.2275 4.85079 12.3586 4.90511 12.4954 4.90511ZM11.9797 24.6092V25.3837C11.9797 25.5204 12.0341 25.6516 12.1308 25.7483C12.2275 25.845 12.3586 25.8993 12.4954 25.8993C12.6321 25.8993 12.7633 25.845 12.86 25.7483C12.9567 25.6516 13.011 25.5204 13.011 25.3837V24.6092C13.011 24.4725 12.9567 24.3413 12.86 24.2446C12.7633 24.1479 12.6321 24.0936 12.4954 24.0936C12.3586 24.0936 12.2275 24.1479 12.1308 24.2446C12.0341 24.3413 11.9797 24.4725 11.9797 24.6092ZM22.0901 14.4993C22.0901 14.6361 22.1444 14.7672 22.2411 14.8639C22.3378 14.9606 22.469 15.015 22.6057 15.015H23.3802C23.517 15.015 23.6481 14.9606 23.7448 14.8639C23.8415 14.7672 23.8958 14.6361 23.8958 14.4993C23.8958 14.3626 23.8415 14.2314 23.7448 14.1347C23.6481 14.038 23.517 13.9837 23.3802 13.9837H22.6057C22.469 13.9837 22.3378 14.038 22.2411 14.1347C22.1444 14.2314 22.0901 14.3626 22.0901 14.4993ZM2.90113 14.4993C2.90113 14.3626 2.84681 14.2314 2.75011 14.1347C2.65341 14.038 2.52226 13.9837 2.38551 13.9837H1.61104C1.54333 13.9837 1.47628 13.9971 1.41372 14.023C1.35116 14.0489 1.29432 14.0869 1.24644 14.1347C1.19856 14.1826 1.16058 14.2395 1.13466 14.302C1.10875 14.3646 1.09541 14.4316 1.09541 14.4993C1.09541 14.5671 1.10875 14.6341 1.13466 14.6967C1.16058 14.7592 1.19856 14.8161 1.24644 14.8639C1.29432 14.9118 1.35116 14.9498 1.41372 14.9757C1.47628 15.0016 1.54333 15.015 1.61104 15.015H2.38551C2.52226 15.015 2.65341 14.9606 2.75011 14.8639C2.84681 14.7672 2.90113 14.6361 2.90113 14.4993ZM14.1005 14.4993C14.0994 14.165 13.9937 13.8395 13.7984 13.5682C13.603 13.2969 13.3277 13.0935 13.011 12.9865V7.06042C13.011 6.92367 12.9567 6.79252 12.86 6.69582C12.7633 6.59912 12.6321 6.5448 12.4954 6.5448C12.3586 6.5448 12.2275 6.59912 12.1308 6.69582C12.0341 6.79252 11.9797 6.92367 11.9797 7.06042V12.9865C11.6629 13.0934 11.3875 13.2968 11.192 13.5681C10.9966 13.8394 10.8909 14.165 10.8897 14.4993C10.8897 14.9062 11.047 15.2738 11.2971 15.5569L9.05305 19.4658C8.98778 19.5842 8.97162 19.7235 9.00804 19.8537C9.04446 19.9839 9.13055 20.0946 9.24778 20.1619C9.36501 20.2292 9.50399 20.2478 9.63479 20.2137C9.7656 20.1796 9.87777 20.0954 9.94715 19.9794L12.1891 16.0735C12.2881 16.0926 12.3902 16.1045 12.4949 16.1045C12.9205 16.1039 13.3285 15.9346 13.6294 15.6336C13.9304 15.3326 14.0996 14.9245 14.1 14.4988L14.1005 14.4993ZM12.4954 15.0738C12.1788 15.0738 11.921 14.8159 11.921 14.4993C11.921 14.1828 12.1788 13.9249 12.4954 13.9249C12.6435 13.9312 12.7835 13.9945 12.8861 14.1015C12.9887 14.2086 13.0459 14.3511 13.0459 14.4993C13.0459 14.6476 12.9887 14.7901 12.8861 14.8972C12.7835 15.0042 12.6435 15.0675 12.4954 15.0738Z" fill="#0D0D0D"/>
</svg>
