<svg width="24" height="24" viewBox="0 0 24 24" fill="none" xmlns="http://www.w3.org/2000/svg">
<path d="M11.9998 0C10.3179 3.96594e-05 8.96612 1.38029 8.96614 3.08834C8.96614 3.9759 9.34223 4.82055 9.9987 5.4073L10.4863 5.84313L9.87741 6.06433C7.78406 6.8257 6.42177 8.8415 6.41797 10.8214C6.41797 10.8363 6.42074 10.8512 6.42161 10.8661H17.5782C17.5782 10.8513 17.5811 10.8366 17.5818 10.8218C17.579 8.84187 16.2176 6.82553 14.1245 6.06353L13.5165 5.84243L14.0033 5.4065C14.6588 4.81978 15.0332 3.97579 15.0336 3.08834C15.0336 1.38037 13.6818 -8.75361e-06 11.9998 0ZM11.9998 1.08162C13.0661 1.0816 13.9256 1.98324 13.9257 3.08834C13.9257 4.20209 13.0564 5.03268 11.9998 5.03266C10.9433 5.03261 10.0742 4.20195 10.0743 3.08834C10.0743 1.98335 10.9336 1.08167 11.9998 1.08162ZM11.991 6.71758H11.9932C13.153 6.70125 14.127 7.15885 14.8307 7.69681C15.4747 8.1891 15.9877 8.82952 16.1168 9.27715L16.2603 9.77507L7.70793 9.76114L7.89019 9.24292C8.18813 8.39657 9.70623 6.7238 11.991 6.71758ZM12 12.2513C11.7412 12.2513 11.5329 12.4658 11.5329 12.7323V14.3471L10.1726 15.3829C9.96454 15.5413 9.92094 15.8414 10.0748 16.0556C10.2287 16.2699 10.52 16.3148 10.7281 16.1563L12 15.1879L13.2718 16.1563C13.4799 16.3148 13.7713 16.2699 13.9252 16.0556C14.079 15.8414 14.0354 15.5413 13.8274 15.3829L12.467 14.3471V12.7323C12.467 12.4658 12.2588 12.2513 12 12.2513ZM5.58186 13.1339C3.89994 13.1339 2.54816 14.5142 2.54817 16.2223C2.54817 17.11 2.92393 17.9544 3.58035 18.5412L4.06796 18.9771L3.45917 19.1982C1.3658 19.9596 0.00379952 21.9749 0 23.9548C0 23.9699 0.00277523 23.9849 0.0036427 24H11.1602C11.1602 23.985 11.1633 23.9702 11.1638 23.9552C11.1611 21.9754 9.79927 19.9591 7.70615 19.1971L7.09801 18.9759L7.58486 18.5401C8.24051 17.9533 8.61519 17.1097 8.61555 16.2223C8.61557 14.5143 7.26384 13.1338 5.58186 13.1339ZM18.4177 13.1339C16.7357 13.1339 15.3843 14.5142 15.3844 16.2223C15.3844 17.11 15.7601 17.9544 16.4165 18.5412L16.9041 18.9771L16.2952 19.1982C14.2019 19.9596 12.8399 21.9749 12.8361 23.9548C12.8361 23.97 12.839 23.9849 12.8397 24H23.9962C23.9962 23.985 24 23.9699 24 23.9548C23.997 21.9751 22.6353 19.959 20.5423 19.1971L19.9342 18.9759L20.421 18.5401C21.0767 17.9533 21.4517 17.1097 21.4517 16.2223C21.4517 14.5144 20.0996 13.1338 18.4177 13.1339ZM5.58186 14.2155C6.64811 14.2155 7.50736 15.1173 7.50741 16.2223C7.50743 17.3359 6.63846 18.1666 5.58186 18.1666C4.52532 18.1666 3.65628 17.3359 3.65629 16.2223C3.65633 15.1173 4.51567 14.2155 5.58186 14.2155ZM18.4177 14.2155C19.484 14.2155 20.3435 15.1172 20.3436 16.2223C20.3436 17.336 19.4743 18.1666 18.4177 18.1666C17.3612 18.1666 16.4926 17.3358 16.4926 16.2223C16.4926 15.1174 17.3516 14.2155 18.4177 14.2155ZM5.57278 19.8514H5.57485C6.73464 19.8351 7.70857 20.2928 8.41237 20.8308C9.05641 21.3231 9.56967 21.9633 9.69877 22.411L9.84227 22.9089L1.28956 22.8947L1.47182 22.3765C1.76976 21.5301 3.28809 19.8577 5.57278 19.8514ZM18.4089 19.8514H18.4112C19.571 19.8351 20.5449 20.2928 21.2487 20.8308C21.8927 21.3231 22.4059 21.9633 22.535 22.411L22.6786 22.9089L14.1259 22.8947L14.3082 22.3765C14.6061 21.5301 16.1243 19.8577 18.4089 19.8514Z" fill="#01C7FB"/>
</svg>
