<svg width="16" height="16" viewBox="0 0 16 16" fill="none" xmlns="http://www.w3.org/2000/svg">
<path d="M7.99989 0C6.87861 2.56772e-05 5.97742 0.893654 5.97743 1.99952C5.97743 2.57416 6.22815 3.12102 6.6658 3.50091L6.99087 3.78308L6.58494 3.9263C5.18938 4.41923 4.28118 5.72435 4.27865 7.00619C4.27865 7.01588 4.2805 7.02551 4.28107 7.03519H11.7188C11.7188 7.02558 11.7207 7.01606 11.7212 7.00645C11.7193 5.72459 10.8117 4.41913 9.41632 3.92578L9.01098 3.78263L9.33553 3.50039C9.77256 3.12052 10.0222 2.57409 10.0224 1.99952C10.0224 0.89371 9.12121 -5.66745e-06 7.99989 0ZM7.99989 0.700284C8.71072 0.700273 9.28375 1.28403 9.28377 1.99952C9.28378 2.7206 8.70428 3.25836 7.99989 3.25835C7.29552 3.25832 6.71616 2.72052 6.71617 1.99952C6.7162 1.2841 7.28909 0.700319 7.99989 0.700284ZM7.99399 4.34924H7.99548C8.76868 4.33867 9.418 4.63493 9.88714 4.98323C10.3165 5.30196 10.6585 5.71659 10.7445 6.0064L10.8402 6.32878L5.13862 6.31976L5.26013 5.98424C5.45875 5.43628 6.47082 4.35326 7.99399 4.34924ZM8 7.93196C7.82748 7.93196 7.68858 8.07087 7.68858 8.24338V9.28891L6.78174 9.9595C6.64303 10.0621 6.61396 10.2564 6.71654 10.3951C6.81912 10.5338 7.01334 10.5628 7.15206 10.4603L8 9.83329L8.84787 10.4603C8.98659 10.5628 9.18087 10.5338 9.28344 10.3951C9.38603 10.2564 9.35695 10.0621 9.21824 9.9595L8.31135 9.28891V8.24338C8.31135 8.07087 8.17251 7.93196 8 7.93196ZM3.72124 8.5034C2.59996 8.50342 1.69877 9.39712 1.69878 10.503C1.69878 11.0777 1.94929 11.6244 2.3869 12.0043L2.71197 12.2865L2.30611 12.4297C0.910535 12.9226 0.00253301 14.2275 0 15.5093C0 15.5191 0.00185015 15.5288 0.00242847 15.5386H7.44013C7.44013 15.5289 7.44221 15.5193 7.44255 15.5096C7.4407 14.2278 6.53285 12.9223 5.13743 12.429L4.73201 12.2858L5.05657 12.0036C5.49367 11.6237 5.74346 11.0775 5.7437 10.503C5.74371 9.39717 4.84256 8.50339 3.72124 8.5034ZM12.2784 8.5034C11.1572 8.50342 10.2562 9.39709 10.2562 10.503C10.2562 11.0777 10.5067 11.6244 10.9443 12.0043L11.2694 12.2865L10.8635 12.4297C9.46791 12.9226 8.55992 14.2275 8.55739 15.5093C8.55739 15.5191 8.55935 15.5288 8.55982 15.5386H15.9975C15.9975 15.5288 16 15.5191 16 15.5093C15.998 14.2276 15.0902 12.9223 13.6949 12.429L13.2895 12.2858L13.614 12.0036C14.0511 11.6237 14.3012 11.0775 14.3012 10.503C14.3012 9.39721 13.3997 8.50339 12.2784 8.5034ZM3.72124 9.20368C4.43207 9.20367 5.00491 9.78756 5.00494 10.503C5.00495 11.224 4.42564 11.7618 3.72124 11.7618C3.01688 11.7618 2.43752 11.224 2.43753 10.503C2.43755 9.78757 3.01045 9.20372 3.72124 9.20368ZM12.2785 9.20368C12.9893 9.20367 13.5623 9.78749 13.5624 10.503C13.5624 11.2241 12.9829 11.7618 12.2785 11.7618C11.5741 11.7618 10.995 11.2239 10.995 10.503C10.9951 9.78764 11.5677 9.20372 12.2785 9.20368ZM3.71518 12.8526H3.71657C4.48976 12.8421 5.13905 13.1384 5.60824 13.4867C6.03761 13.8054 6.37978 14.2199 6.46585 14.5098L6.56152 14.8322L0.859705 14.823L0.981213 14.4874C1.17984 13.9395 2.19206 12.8567 3.71518 12.8526ZM12.2726 12.8526H12.2741C13.0473 12.8421 13.6966 13.1384 14.1658 13.4867C14.5952 13.8054 14.9373 14.2199 15.0233 14.5098L15.1191 14.8322L9.41726 14.823L9.53877 14.4874C9.7374 13.9395 10.7495 12.8567 12.2726 12.8526Z" fill="white"/>
</svg>
