<svg width="20" height="21" viewBox="0 0 20 21" fill="none" xmlns="http://www.w3.org/2000/svg">
<path d="M10 1C4.486 1 0 5.03733 0 10C0 11.7347 0.548667 13.415 1.58933 14.868C1.39233 17.047 0.864333 18.6647 0.0976667 19.431C0.0483054 19.4804 0.0157202 19.5441 0.00451349 19.6131C-0.00669322 19.682 0.00404496 19.7527 0.0352113 19.8153C0.0663777 19.8778 0.116397 19.9289 0.178205 19.9615C0.240012 19.994 0.310484 20.0063 0.379667 19.9967C0.514667 19.9777 3.65067 19.5263 5.919 18.217C7.207 18.7367 8.579 19 10 19C15.514 19 20 14.9627 20 10C20 5.03733 15.514 1 10 1ZM5.33333 11.3333C4.598 11.3333 4 10.7353 4 10C4 9.26467 4.598 8.66667 5.33333 8.66667C6.06867 8.66667 6.66667 9.26467 6.66667 10C6.66667 10.7353 6.06867 11.3333 5.33333 11.3333ZM10 11.3333C9.26467 11.3333 8.66667 10.7353 8.66667 10C8.66667 9.26467 9.26467 8.66667 10 8.66667C10.7353 8.66667 11.3333 9.26467 11.3333 10C11.3333 10.7353 10.7353 11.3333 10 11.3333ZM14.6667 11.3333C13.9313 11.3333 13.3333 10.7353 13.3333 10C13.3333 9.26467 13.9313 8.66667 14.6667 8.66667C15.402 8.66667 16 9.26467 16 10C16 10.7353 15.402 11.3333 14.6667 11.3333Z" fill="#0D0D0D" fill-opacity="0.35"/>
</svg>
