<svg xmlns="http://www.w3.org/2000/svg" version="1.1" xmlns:xlink="http://www.w3.org/1999/xlink" width="512" height="512" x="0" y="0" viewBox="0 0 100 100" style="enable-background:new 0 0 512 512" xml:space="preserve" class=""><g><path d="M24.464 46.358a19.546 19.546 0 0 0 2.576-.19V69.9a1.5 1.5 0 0 0 3 0V45.535a19.432 19.432 0 0 0 7.406-4.18h31.389a1.5 1.5 0 0 0 0-3H40.161a19.363 19.363 0 0 0 2.857-5.585h25.817a1.5 1.5 0 0 0 0-3H43.692a18.846 18.846 0 0 0-.513-8.165h29.393a3.306 3.306 0 0 1 3.3 3.3v9.3a1.5 1.5 0 0 0 3 0v-9.3a6.31 6.31 0 0 0-6.3-6.3H42.05C33.1.066 5.3 6.047 5 26.894a19.485 19.485 0 0 0 19.464 19.464zm0-35.928a16.483 16.483 0 0 1 16.465 16.464C40.025 48.736 8.9 48.73 8 26.894A16.483 16.483 0 0 1 24.464 10.43z" fill="#214B92" opacity="1" data-original="#000000" class=""></path><path d="M23.734 28.394h1.594a2.214 2.214 0 0 1 0 4.427h-3.261a1.955 1.955 0 0 1-1.161-.379 1.5 1.5 0 0 0-1.769 2.423 5.655 5.655 0 0 0 3.827.956v2.434a1.5 1.5 0 0 0 3 0v-2.5c6.418-.936 5.864-10.194-.636-10.362h-1.594a2.214 2.214 0 0 1 0-4.427H27a1.949 1.949 0 0 1 1.159.379 1.5 1.5 0 0 0 1.772-2.422 5.838 5.838 0 0 0-3.963-.957v-2.433a1.5 1.5 0 0 0-3 0v2.512a5.206 5.206 0 0 0 .766 10.349zM73.086 47.146a1.5 1.5 0 0 0-1.5 1.5v6.13h-7a1.5 1.5 0 0 0-1.5 1.5v11.635h-1.909a1.5 1.5 0 1 0 0 3h14.7v13.776a4.884 4.884 0 0 1-9.768 0v-7.369a1.5 1.5 0 0 0-1.5-1.5H15.985a1.5 1.5 0 0 0-1.5 1.5v9.123a6.135 6.135 0 0 0 6.129 6.129h50.377a7.893 7.893 0 0 0 7.884-7.883V70.911H93.5a1.5 1.5 0 0 0 0-3H83.09V41.355h5.5v23.826a1.5 1.5 0 0 0 3 0V39.855a1.5 1.5 0 0 0-1.5-1.5h-8.5a1.5 1.5 0 0 0-1.5 1.5v7.291zm-55.6 39.3v-7.628h45.621v5.869a7.84 7.84 0 0 0 1.707 4.883h-44.2a3.132 3.132 0 0 1-3.129-3.129zm48.6-28.665h5.5v10.13h-5.5zm8.5 10.135v-17.77h5.5v17.765z" fill="#214B92" opacity="1" data-original="#000000" class=""></path><path d="M36.9 49.941h27.707a1.5 1.5 0 0 0 0-3H36.9a1.5 1.5 0 0 0 0 3zM36.9 58.527h21.344a1.5 1.5 0 0 0 0-3H36.9a1.5 1.5 0 0 0 0 3zM36.9 67.112h21.344a1.5 1.5 0 0 0 0-3H36.9a1.5 1.5 0 0 0 0 3z" fill="#214B92" opacity="1" data-original="#000000" class=""></path></g></svg>