<svg width="18" height="24" viewBox="0 0 18 24" fill="none" xmlns="http://www.w3.org/2000/svg">
<path d="M8.89685 0.000475726C8.03431 0.011133 7.37978 0.155454 7.09968 0.229466C6.85771 0.29341 6.62265 0.365668 6.39323 0.446495C4.58956 1.08196 3.19751 2.22362 2.17546 3.9103C1.99254 4.21225 1.8335 4.52809 1.69138 4.87262C1.61208 5.06502 1.53801 5.26601 1.46902 5.47842C1.14643 6.49431 1.00659 7.50074 1.0671 8.56142V8.57263L1.04742 11.6803C1.0376 13.2695 1.03072 14.3348 1.0202 15.0553C1.0202 15.225 1.04331 15.3079 1.07977 15.3799C1.11553 15.4519 1.1744 15.5224 1.26772 15.627L1.52072 15.91L1.32181 16.0632C1.01198 16.3017 0.812371 16.7599 0.716876 17.1029C0.639681 17.3282 0.650924 17.5593 0.653027 17.793L0.686064 21.9681C0.686064 22.2262 0.679056 22.5259 0.671343 22.8463C0.639091 23.9605 0.671383 23.9916 1.47159 23.992C2.02941 24.0039 3.06449 23.9924 4.37576 23.9962C5.71619 23.9997 7.35576 24.0011 9.11133 23.999C12.4201 23.9941 14.3561 24.0053 15.4998 23.992C15.7471 23.9892 15.9933 23.9925 16.2091 23.9948C16.4559 23.9969 16.6974 23.9885 16.946 23.9832C17.0162 23.9818 17.0794 23.9559 17.1349 23.9321C17.3636 23.8342 17.3406 23.6261 17.3468 23.4115C17.3538 23.0941 17.3362 22.766 17.3398 22.4462C17.3398 22.1786 17.332 21.8996 17.3327 21.6299V20.5085C17.3327 18.4414 17.3258 17.7372 17.2858 17.4103C17.2781 17.35 17.25 17.1663 17.1828 16.9516C17.1155 16.7369 17.0078 16.4929 16.8591 16.3074C16.7736 16.2009 16.7742 16.2018 16.6956 16.1129L16.4782 15.8668L16.7067 15.6324C16.7877 15.5494 16.7859 15.5506 16.8647 15.4455C16.904 15.3929 16.9421 15.3353 16.9647 15.2915C16.9871 15.2477 16.9885 15.2159 16.9878 15.2444C16.9878 15.1333 16.995 15.0185 16.9676 11.7233C16.9606 10.491 16.9543 9.58179 16.9472 8.89793C16.9304 7.61708 16.9221 6.38964 16.4647 5.2671V5.26079V5.25357C15.6744 3.07639 14.1023 1.43167 11.9563 0.565484C10.8334 0.112256 9.76325 -0.0100037 8.90079 0.000625505L8.89685 0.000475726ZM9.18922 1.03382C10.1068 1.0557 11.1365 1.26742 12.2096 1.82296C13.5428 2.51315 14.5328 3.54831 15.2158 4.9469C15.848 6.24161 15.8909 6.43526 15.9248 10.594V10.9444C15.9374 12.6338 15.9325 14.5005 15.9051 14.8586C15.9051 14.869 15.9052 15.0457 15.7733 15.1597C15.7376 15.1903 15.6946 15.2101 15.6501 15.2256H13.919L12.1725 15.1853C11.5804 15.1328 11.4061 14.7037 11.3697 14.4984C11.3591 14.4402 11.3578 14.3445 11.3592 14.4063C11.3592 14.3014 11.404 14.2167 11.4145 14.1994C11.4982 14.0599 11.796 13.7979 11.9349 13.6817C12.6298 13.1001 13.3075 12.2889 13.6364 11.6654C14.0504 10.8801 14.2082 10.2274 14.2214 9.22114L14.2291 8.59288C13.649 8.22275 13.5929 8.15983 12.8861 7.532C12.0717 6.80854 10.7141 5.44451 10.0299 4.62981C9.66387 4.194 9.43973 3.95197 9.30476 3.84646C9.23745 3.79374 9.19777 3.77467 9.16166 3.76313C9.1252 3.75156 9.08475 3.74574 9.00811 3.74574C8.93281 3.74574 8.88907 3.75205 8.85149 3.76347C8.81363 3.77525 8.77553 3.79398 8.71215 3.84246C8.58546 3.93942 8.37922 4.16115 8.05193 4.55769C7.61463 5.08751 6.81614 5.91963 6.10189 6.6182C5.35834 7.34539 4.80967 7.87172 4.36206 8.14358C4.20003 8.24198 4.06511 8.31643 3.95124 8.37456C3.85918 8.42161 3.79526 8.45324 3.62601 8.52477C3.65475 9.34371 3.73139 10.0075 3.95603 10.6574C4.38218 11.8904 5.50435 13.2913 6.26845 13.8545L6.27752 13.8608L6.28522 13.8681C6.43309 13.9912 6.5921 14.1263 6.62295 14.3431C6.64188 14.4779 6.59695 14.6059 6.57451 14.6706C6.54296 14.7609 6.43172 15.053 6.19621 15.1282C6.13591 15.1476 6.09281 15.1471 6.07998 15.1481C5.87799 15.1638 4.99927 15.183 4.21982 15.1934L2.34561 15.2189C2.17622 15.2203 2.06237 15.1524 2.06728 14.9359V11.3767C2.06728 9.69487 2.0925 7.6351 2.13387 7.24223C2.38039 4.89924 3.81484 2.82201 5.88347 1.77806C6.46296 1.4856 7.66785 0.997978 9.18819 1.03421L9.18922 1.03382ZM9.01274 5.09037L10.0009 6.16176C11.0247 7.27128 11.9575 8.15835 12.5468 8.59729L13.2502 9.12121L13.187 9.67158C13.0288 11.0644 12.1963 12.2921 10.8255 13.2339C10.547 13.4252 10.4235 13.5413 10.3734 13.6252C10.3236 13.7092 10.302 13.8116 10.302 14.0789C10.302 14.8307 10.6073 15.4839 11.1191 15.914C11.5188 16.2885 12.0065 16.3474 12.527 16.3495L12.8144 16.3502C12.7751 16.6295 12.7302 16.9785 12.4789 17.2861C12.413 17.3667 11.8982 17.9633 11.0254 18.0546C10.5778 18.1112 10.0771 18.0678 9.70223 18.0796H9.69521L9.11168 18.0831C8.34751 18.0873 7.62554 18.0838 7.18116 18.0679C7.05067 18.063 6.91761 18.0565 6.78334 18.0357C6.32936 17.9654 5.55739 17.5399 5.36704 16.9059C5.31305 16.7264 5.23312 16.4558 5.22821 16.3194L5.6808 16.3214C6.01496 16.322 6.28716 16.2823 6.52435 16.1624C6.78476 16.0308 7.00073 15.8447 7.1779 15.6258C7.44819 15.2918 7.62498 14.8686 7.68184 14.3725C7.7162 13.99 7.71058 13.8029 7.67483 13.7088C7.64047 13.6143 7.55926 13.5204 7.29584 13.32C7.23975 13.2775 7.18444 13.2376 7.13494 13.2048C6.53743 12.8082 4.60756 11.0327 4.68952 9.17821L4.69654 9.02567L4.81174 8.9264C4.97539 8.78541 5.53171 8.37606 6.22086 7.81226C6.93973 7.22413 7.74541 6.45733 8.40917 5.74149L9.01274 5.09037ZM14.5718 16.2147C15.2923 16.2147 15.8134 16.5083 16.1263 17.1184C16.2885 17.4349 16.2969 17.6253 16.2969 20.0854V22.9855H9.00452H1.70884L1.73263 19.993L1.75163 17.5821V17.5666C1.82701 16.774 2.52276 16.2975 3.22768 16.2336C3.48892 16.2099 4.00745 16.1723 4.12875 16.5698C4.17012 16.7059 4.27299 17.08 4.51355 17.5072C5.12635 18.6494 6.1996 19.075 7.41943 19.0992C7.77982 19.1055 8.27578 19.1071 8.97165 19.1072C9.66914 19.1073 10.1662 19.1067 10.5275 19.1023C11.7707 19.1523 12.8564 18.5992 13.5006 17.5113C13.6523 17.2424 13.7816 16.9356 13.8897 16.5856C13.9846 16.2781 14.2627 16.2153 14.5706 16.2153L14.5718 16.2147Z" fill="#01C7FB"/>
</svg>
