<svg width="20" height="14" viewBox="0 0 20 14" fill="none" xmlns="http://www.w3.org/2000/svg">
<g clip-path="url(#clip0_10382_12597)">
<path d="M6.09524 0.5C5.42554 0.50083 4.77352 0.702361 4.23366 1.07539C3.69379 1.44842 3.29414 1.97357 3.0926 2.57474H0.990434C-0.330946 2.58854 -0.328975 4.34669 0.990434 4.36104H3.0926C3.29414 4.96221 3.69379 5.48736 4.23366 5.86039C4.77352 6.23342 5.42554 6.43495 6.09524 6.43578C6.76493 6.43494 7.41694 6.2334 7.95679 5.86037C8.49664 5.48734 8.89629 4.9622 9.09783 4.36104H9.81609H10.2114H19.037C20.3202 4.32963 20.3221 2.58854 19.037 2.57474H10.2114H9.81609H9.1013C8.89959 1.97304 8.49941 1.44752 7.95886 1.07444C7.41831 0.701361 6.76552 0.500145 6.09524 0.5ZM6.09524 2.02716C6.50116 2.02716 6.89046 2.17895 7.17749 2.44913C7.46452 2.71932 7.62578 3.08577 7.62578 3.46786C7.62579 3.65706 7.5862 3.84441 7.50928 4.01921C7.43237 4.19401 7.31963 4.35284 7.17751 4.48663C7.03539 4.62041 6.86666 4.72654 6.68096 4.79895C6.49527 4.87135 6.29623 4.90862 6.09524 4.90862C5.89423 4.90863 5.6952 4.87136 5.5095 4.79896C5.3238 4.72656 5.15506 4.62043 5.01293 4.48664C4.8708 4.35286 4.75806 4.19403 4.68114 4.01922C4.60423 3.84442 4.56464 3.65707 4.56465 3.46786C4.56465 3.27866 4.60424 3.09132 4.68116 2.91652C4.75808 2.74172 4.87082 2.5829 5.01295 2.44911C5.15508 2.31533 5.32381 2.20921 5.50951 2.13681C5.69521 2.06441 5.89424 2.02715 6.09524 2.02716ZM13.905 7.56422C13.2353 7.56506 12.5833 7.7666 12.0434 8.13963C11.5035 8.51267 11.1039 9.03783 10.9024 9.63901H10.1842H9.78888H0.963227C-0.321898 9.65281 -0.319928 11.3939 0.963227 11.4253H9.78888H10.1842H10.9024C11.104 12.0264 11.5036 12.5516 12.0435 12.9246C12.5833 13.2976 13.2353 13.4992 13.905 13.5C14.5747 13.4992 15.2267 13.2976 15.7666 12.9246C16.3065 12.5516 16.7061 12.0264 16.9076 11.4253H19.0098C20.3292 11.4109 20.3312 9.65281 19.0098 9.63901H16.9111C16.7094 9.0373 16.3092 8.51176 15.7687 8.13867C15.2281 7.76558 14.5753 7.56436 13.905 7.56422ZM13.905 9.09143C14.106 9.09143 14.305 9.12869 14.4907 9.20109C14.6764 9.27349 14.8452 9.37961 14.9873 9.51339C15.1294 9.64717 15.2422 9.80599 15.3191 9.98079C15.396 10.1556 15.4356 10.3429 15.4356 10.5321C15.4356 10.7213 15.396 10.9087 15.3191 11.0835C15.2422 11.2583 15.1294 11.4171 14.9873 11.5509C14.8452 11.6847 14.6764 11.7908 14.4907 11.8632C14.305 11.9356 14.106 11.9729 13.905 11.9728C13.4991 11.9728 13.1098 11.8211 12.8228 11.5509C12.5357 11.2807 12.3745 10.9142 12.3745 10.5321C12.3745 10.15 12.5357 9.78359 12.8228 9.51341C13.1098 9.24322 13.4991 9.09143 13.905 9.09143Z" fill="#214B92"/>
</g>
<defs>
<clipPath id="clip0_10382_12597">
<rect width="20" height="13" fill="white" transform="translate(0 0.5)"/>
</clipPath>
</defs>
</svg>
