<svg width="12" height="12" viewBox="0 0 12 12" fill="none" xmlns="http://www.w3.org/2000/svg">
<g clip-path="url(#clip0_10467_3761)">
<path d="M10 2H7.5C7.5 1.46957 7.28929 0.960859 6.91421 0.585786C6.53914 0.210714 6.03043 0 5.5 0L2 0C1.46957 0 0.960859 0.210714 0.585786 0.585786C0.210714 0.960859 0 1.46957 0 2L0 11.5C0 11.6326 0.0526784 11.7598 0.146447 11.8536C0.240215 11.9473 0.367392 12 0.5 12C0.632608 12 0.759785 11.9473 0.853553 11.8536C0.947322 11.7598 1 11.6326 1 11.5V6.5H5C5 7.03043 5.21071 7.53914 5.58579 7.91421C5.96086 8.28929 6.46957 8.5 7 8.5H10C10.5304 8.5 11.0391 8.28929 11.4142 7.91421C11.7893 7.53914 12 7.03043 12 6.5V4C12 3.46957 11.7893 2.96086 11.4142 2.58579C11.0391 2.21071 10.5304 2 10 2ZM1 5.5V2C1 1.73478 1.10536 1.48043 1.29289 1.29289C1.48043 1.10536 1.73478 1 2 1H5.5C5.76522 1 6.01957 1.10536 6.20711 1.29289C6.39464 1.48043 6.5 1.73478 6.5 2V4.5C6.5 4.76522 6.39464 5.01957 6.20711 5.20711C6.01957 5.39464 5.76522 5.5 5.5 5.5H1ZM11 6.5C11 6.76522 10.8946 7.01957 10.7071 7.20711C10.5196 7.39464 10.2652 7.5 10 7.5H7C6.73478 7.5 6.48043 7.39464 6.29289 7.20711C6.10536 7.01957 6 6.76522 6 6.5V6.429C6.42807 6.31848 6.80746 6.06923 7.07885 5.72022C7.35024 5.37121 7.49834 4.94211 7.5 4.5V3H10C10.2652 3 10.5196 3.10536 10.7071 3.29289C10.8946 3.48043 11 3.73478 11 4V6.5Z" fill="#13AEF3"/>
</g>
<defs>
<clipPath id="clip0_10467_3761">
<rect width="12" height="12" fill="white"/>
</clipPath>
</defs>
</svg>
