<svg width="11" height="13" viewBox="0 0 11 13" fill="none" xmlns="http://www.w3.org/2000/svg">
<path d="M4.5 0.5C2.8455 0.5 1.5 1.8455 1.5 3.5C1.5 5.1545 2.8455 6.5 4.5 6.5C6.1545 6.5 7.5 5.1545 7.5 3.5C7.5 1.8455 6.1545 0.5 4.5 0.5ZM4.5 5.5C3.397 5.5 2.5 4.603 2.5 3.5C2.5 2.397 3.397 1.5 4.5 1.5C5.603 1.5 6.5 2.397 6.5 3.5C6.5 4.603 5.603 5.5 4.5 5.5ZM5.9845 8.2505C5.95131 8.37887 5.86854 8.48882 5.75436 8.55622C5.64018 8.62362 5.50393 8.64296 5.3755 8.61C5.08943 8.53677 4.79529 8.49981 4.5 8.5C2.5705 8.5 1 10.07 1 12C1 12.1326 0.947322 12.2598 0.853553 12.3536C0.759785 12.4473 0.632608 12.5 0.5 12.5C0.367392 12.5 0.240215 12.4473 0.146447 12.3536C0.0526784 12.2598 0 12.1326 0 12C0 9.519 2.0185 7.5 4.5 7.5C4.8805 7.5 5.259 7.5475 5.6245 7.642C5.75292 7.67497 5.86299 7.75759 5.9305 7.87171C5.99801 7.98582 6.01744 8.12207 5.9845 8.2505ZM11 10C11 10.827 10.327 11.5 9.5 11.5V12C9.5 12.1326 9.44732 12.2598 9.35355 12.3536C9.25979 12.4473 9.13261 12.5 9 12.5C8.86739 12.5 8.74021 12.4473 8.64645 12.3536C8.55268 12.2598 8.5 12.1326 8.5 12V11.499H8.365C8.10219 11.4984 7.8441 11.4291 7.61639 11.2978C7.38868 11.1666 7.19928 10.9781 7.067 10.751C7.00309 10.6364 6.98676 10.5014 7.02152 10.3749C7.05629 10.2484 7.13937 10.1406 7.25286 10.0748C7.36634 10.009 7.50114 9.99048 7.62818 10.0232C7.75523 10.0558 7.86434 10.1371 7.932 10.2495C8.0215 10.4035 8.187 10.499 8.365 10.499L9.5 10.5C9.63252 10.4999 9.75957 10.4471 9.85323 10.3534C9.94689 10.2596 9.9995 10.1325 9.9995 10C9.99975 9.90873 9.96747 9.82035 9.90847 9.75071C9.84946 9.68108 9.76758 9.63474 9.6775 9.62L8.157 9.3665C7.83312 9.31349 7.53873 9.14683 7.32661 8.89641C7.11449 8.64598 6.99852 8.32818 6.9995 8C6.9995 7.173 7.6725 6.5 8.4995 6.5V6C8.4995 5.86739 8.55218 5.74021 8.64595 5.64645C8.73971 5.55268 8.86689 5.5 8.9995 5.5C9.13211 5.5 9.25928 5.55268 9.35305 5.64645C9.44682 5.74021 9.4995 5.86739 9.4995 6V6.5015H9.635C10.1665 6.5015 10.664 6.788 10.932 7.249C10.9675 7.30582 10.9912 7.36918 11.0017 7.43534C11.0123 7.5015 11.0094 7.5691 10.9933 7.63412C10.9772 7.69915 10.9482 7.76027 10.908 7.81387C10.8678 7.86747 10.8172 7.91244 10.7593 7.94612C10.7014 7.9798 10.6373 8.0015 10.5709 8.00993C10.5044 8.01836 10.4369 8.01335 10.3724 7.99519C10.308 7.97704 10.2478 7.94611 10.1955 7.90425C10.1432 7.86239 10.0998 7.81044 10.068 7.7515C10.0243 7.67536 9.96119 7.61213 9.88515 7.56822C9.80911 7.52432 9.72281 7.5013 9.635 7.5015L8.4995 7.5C8.36698 7.50013 8.23993 7.55287 8.14627 7.64662C8.05261 7.74038 8 7.86748 8 8C8 8.189 8.1355 8.349 8.322 8.38L9.8425 8.6335C10.1664 8.68651 10.4608 8.85317 10.6729 9.10359C10.885 9.35402 11.001 9.67182 11 10Z" fill="#214B92"/>
</svg>
