<svg width="20" height="21" viewBox="0 0 20 21" fill="none" xmlns="http://www.w3.org/2000/svg">
<path d="M14.5874 1.5C13.649 1.5146 12.7311 1.77654 11.9263 2.25939C11.1216 2.74224 10.4585 3.42889 10.004 4.25C9.54957 3.42889 8.88648 2.74224 8.08173 2.25939C7.27698 1.77654 6.35908 1.5146 5.4207 1.5C3.92482 1.56499 2.51546 2.21938 1.50052 3.32019C0.485584 4.42101 -0.0524245 5.87877 0.00403425 7.375C0.00403425 11.1642 3.99237 15.3025 7.33737 18.1083C8.08422 18.7359 9.0285 19.08 10.004 19.08C10.9796 19.08 11.9239 18.7359 12.6707 18.1083C16.0157 15.3025 20.004 11.1642 20.004 7.375C20.0605 5.87877 19.5225 4.42101 18.5075 3.32019C17.4926 2.21938 16.0833 1.56499 14.5874 1.5Z" fill="#01C7FB"/>
</svg>
