<svg width="33" height="32" viewBox="0 0 33 32" fill="none" xmlns="http://www.w3.org/2000/svg">
<path d="M32.25 16C32.25 7.16344 25.0866 0 16.25 0C7.41344 0 0.25 7.16344 0.25 16C0.25 24.8366 7.41344 32 16.25 32C25.0866 32 32.25 24.8366 32.25 16Z" fill="url(#paint0_linear_88_6810)"/>
<path d="M28.2921 5.47368C25.9595 9.75579 22.6605 14.1726 18.5384 18.2947C14.4163 22.4168 9.99948 25.7095 5.72369 28.0421C5.45562 27.8091 5.19527 27.5663 4.94264 27.3137C3.4156 25.8376 2.19771 24.0723 1.35998 22.1207C0.522245 20.1691 0.0814419 18.0702 0.0632689 15.9465C0.0450959 13.8227 0.449917 11.7166 1.25413 9.75097C2.05834 7.7853 3.24584 5.99942 4.7474 4.49744C6.24895 2.99547 8.03451 1.80746 9.99995 1.00271C11.9654 0.197947 14.0714 -0.207462 16.1951 -0.189881C18.3189 -0.172301 20.4179 0.267916 22.3697 1.1051C24.3216 1.94229 26.0872 3.15969 27.5637 4.68631C27.8163 4.93894 28.0591 5.2014 28.2921 5.47368Z" fill="white" fill-opacity="0.063"/>
<path d="M20.0395 7.5791H12.4605C11.2322 7.5791 10.0541 8.06707 9.18551 8.93566C8.31692 9.80425 7.82895 10.9823 7.82895 12.2107V19.7896C7.82895 21.018 8.31692 22.1961 9.18551 23.0646C10.0541 23.9332 11.2322 24.4212 12.4605 24.4212H20.0395C21.2678 24.4212 22.4459 23.9332 23.3145 23.0646C24.1831 22.1961 24.6711 21.018 24.6711 19.7896V12.2107C24.6711 10.9823 24.1831 9.80425 23.3145 8.93566C22.4459 8.06707 21.2678 7.5791 20.0395 7.5791ZM23.1974 19.1244C23.1974 20.1383 22.7946 21.1108 22.0776 21.8277C21.3606 22.5447 20.3882 22.9475 19.3742 22.9475H13.1258C12.1118 22.9475 11.1394 22.5447 10.4224 21.8277C9.70543 21.1108 9.30263 20.1383 9.30263 19.1244V12.8759C9.30263 11.862 9.70543 10.8895 10.4224 10.1726C11.1394 9.45558 12.1118 9.05279 13.1258 9.05279H19.3742C20.3882 9.05279 21.3606 9.45558 22.0776 10.1726C22.7946 10.8895 23.1974 11.862 23.1974 12.8759V19.1244Z" fill="white"/>
<path d="M19.3216 12.9602L19.2816 12.9202L19.2479 12.8865C18.4519 12.0932 17.3738 11.648 16.25 11.6486C15.6825 11.6524 15.1213 11.7681 14.5985 11.9889C14.0758 12.2097 13.6016 12.5313 13.2031 12.9354C12.8047 13.3395 12.4898 13.8182 12.2764 14.3441C12.063 14.8699 11.9553 15.4327 11.9595 16.0002C11.9586 17.1518 12.4126 18.2573 13.2226 19.0759C13.6194 19.4775 14.0922 19.7961 14.6134 20.013C15.1347 20.2298 15.6939 20.3407 16.2584 20.3391C17.1052 20.3213 17.9286 20.0575 18.628 19.5799C19.3275 19.1022 19.8729 18.4314 20.1976 17.6491C20.5224 16.8668 20.6124 16.0069 20.4569 15.1743C20.3013 14.3417 19.9069 13.5724 19.3216 12.9602ZM16.25 18.8549C15.6837 18.8628 15.1279 18.7022 14.6532 18.3933C14.1785 18.0845 13.8064 17.6415 13.5842 17.1206C13.362 16.5997 13.2997 16.0245 13.4053 15.4681C13.5109 14.9118 13.7796 14.3994 14.1772 13.9961C14.5748 13.5929 15.0834 13.317 15.6382 13.2035C16.193 13.0901 16.769 13.1443 17.293 13.3591C17.817 13.574 18.2652 13.9398 18.5807 14.4101C18.8962 14.8804 19.0647 15.4338 19.0647 16.0002C19.0675 16.3725 18.9969 16.7417 18.8569 17.0867C18.7169 17.4316 18.5103 17.7457 18.2489 18.0108C17.9875 18.2759 17.6764 18.4869 17.3335 18.6318C16.9905 18.7766 16.6223 18.8524 16.25 18.8549ZM21.8142 11.4486C21.8153 11.5837 21.7898 11.7177 21.739 11.8429C21.6883 11.9681 21.6134 12.082 21.5185 12.1782C21.4237 12.2745 21.3108 12.351 21.1863 12.4035C21.0619 12.4561 20.9282 12.4835 20.7932 12.4844C20.6592 12.4843 20.5266 12.4577 20.403 12.406C20.2794 12.3543 20.1673 12.2786 20.0732 12.1833C19.9305 12.0386 19.8335 11.8552 19.7941 11.6559C19.7548 11.4566 19.7748 11.2501 19.8516 11.062C19.9285 10.8739 20.0589 10.7126 20.2267 10.5979C20.3944 10.4832 20.5921 10.4203 20.7953 10.417C21.033 10.4169 21.2633 10.5004 21.4458 10.6528L21.4668 10.6738C21.5008 10.7015 21.5318 10.7325 21.5595 10.7665L21.5826 10.7917C21.7333 10.9774 21.8151 11.2095 21.8142 11.4486Z" fill="white"/>
<defs>
<linearGradient id="paint0_linear_88_6810" x1="4.93632" y1="4.68632" x2="27.5637" y2="27.3137" gradientUnits="userSpaceOnUse">
<stop stop-color="#FAE100"/>
<stop offset="0.15" stop-color="#FCB720"/>
<stop offset="0.3" stop-color="#FF7950"/>
<stop offset="0.5" stop-color="#FF1C74"/>
<stop offset="1" stop-color="#6C1CD1"/>
</linearGradient>
</defs>
</svg>
