<svg width="17" height="24" viewBox="0 0 17 24" fill="none" xmlns="http://www.w3.org/2000/svg">
<path d="M7.80483 0C8.73261 0.00958906 9.6598 0.244637 10.291 0.617253C10.6084 0.804564 10.8092 0.853841 11.1852 0.837512C11.5431 0.821981 11.8659 0.881136 12.1981 1.02744C12.5303 1.17376 12.8736 1.41136 13.2454 1.76207C13.8865 2.36694 14.2806 3.02875 14.5801 4.0227C14.6938 4.40022 14.7524 4.96827 14.7384 5.57111C14.7242 6.17394 14.6411 6.81547 14.4957 7.35824C14.3298 7.97761 14.3085 8.19842 14.3084 9.36695C14.3083 10.4788 14.2956 10.6363 14.1449 11.2319C13.8124 12.5451 13.1369 13.6104 12.1282 14.425C11.877 14.628 11.6245 14.7446 11.3883 14.8866C11.1329 15.0403 10.8719 15.2558 10.8792 15.6476L10.886 15.9813L11.2197 15.9854C11.8369 15.9931 11.384 15.9908 12.4898 16.0078C12.6645 16.0105 12.8674 16.0139 13.0991 16.017L14.6396 16.0368C15.1776 16.0805 15.7271 16.4035 16.134 16.8493L16.1407 16.8572L16.1488 16.8639C16.704 17.4061 16.8154 18.0955 16.8214 18.9003L16.8363 23.0549C16.8363 23.5444 16.8289 23.7569 16.707 23.8727C16.6228 23.953 16.5065 23.9783 15.9104 23.9729C15.7556 23.9715 15.5888 23.9688 15.4237 23.9715C14.3635 23.9913 12.374 23.9913 8.59964 23.9966C7.70368 23.9979 6.83875 24.0027 6.03171 23.9979L0.795613 23.9676C0.697966 23.9671 0.582891 23.9697 0.475116 23.9518C0.435274 23.9451 0.395552 23.9347 0.36037 23.9215C0.226528 23.8714 0.19683 23.7668 0.179678 23.6801C0.166173 23.6126 0.160773 23.4963 0.1655 23.299C0.172253 23.032 0.180934 22.6516 0.183635 22.0618L0.198473 18.5047C0.198473 18.2677 0.237087 18.1005 0.25667 18.0246C0.389634 17.5142 0.602914 17.1308 0.905577 16.8112C1.08014 16.6269 1.28717 16.4326 1.48854 16.3061C1.77007 16.1292 2.16132 16.0384 2.58324 16.0331L3.87973 16.0173C5.56748 15.996 3.92904 15.9952 5.76183 16.0015L6.09683 16.0028L6.10772 15.6678C6.11447 15.5053 6.04547 15.3783 5.96511 15.2814C5.85909 15.1537 5.68458 15.0336 5.5325 14.9252C5.27178 14.7395 4.92463 14.493 4.48792 14.0838C4.19816 13.8122 3.92777 13.5231 3.76779 13.3069C3.44379 12.8691 3.16697 12.3026 2.97397 11.6979C2.7809 11.0931 2.67082 10.4496 2.66913 9.86061C2.66913 9.5647 2.64014 9.13665 2.59132 8.93209C2.4281 8.24621 2.24926 6.60824 2.23933 5.64271C2.23933 5.32973 2.23954 5.09463 2.24609 4.90939C2.27175 4.20659 2.49194 3.55834 2.73937 3.04708C3.58536 1.299 5.32731 0.130578 7.41097 0.00961367C7.54164 0.00205047 7.67301 -0.00098993 7.80665 0.000360641L7.80483 0ZM7.81835 1.0736C7.32188 1.06151 6.71495 1.10081 6.18026 1.29386C4.52668 1.89068 3.35676 3.40713 3.29315 5.07783C3.26546 5.81195 3.28568 6.24358 3.35118 6.85441L3.42784 7.56531L3.93694 7.0628C4.51755 6.48781 5.20067 6.29781 5.93889 6.16462C6.49209 6.06482 6.65474 6.17266 7.42268 6.00239C7.59332 5.96458 7.7629 5.91854 7.92139 5.86654L7.92815 5.86519L7.93475 5.86384C8.61699 5.62352 9.18737 5.11129 9.68627 4.72958C10.169 5.00215 10.2865 5.22246 11.2388 5.7003C11.4244 5.79345 11.6695 5.92863 11.9167 6.07487C12.3753 6.34627 12.8481 6.69747 12.9981 6.84116L13.4412 7.26453L13.5731 6.66575C13.6561 6.28904 13.6393 6.36036 13.6747 6.04586C13.8381 4.5973 13.401 3.26647 12.4351 2.42147C12.2897 2.29441 12.1431 2.18616 11.9985 2.10229C11.8333 2.00656 11.6634 1.93852 11.4905 1.90973C11.173 1.85679 10.8474 1.91885 10.5871 1.96909C9.72509 1.40332 8.86997 1.11379 7.82396 1.07354L7.81835 1.0736ZM9.69253 6.05515L9.223 6.37828C8.5492 6.83998 7.93063 7.02394 6.47437 7.16963C5.97682 7.2194 5.60979 7.28984 5.27944 7.45188C4.83415 7.67028 4.02891 8.38011 3.82335 9.02535C3.74563 9.27003 3.72575 9.53212 3.72575 9.83912C3.72575 11.195 4.16569 12.2708 5.11325 13.2261C5.55678 13.6732 5.86132 13.9038 6.32666 14.1427C6.49696 14.2302 6.68324 14.345 6.81466 14.4395C6.90224 14.5025 6.97049 14.5682 6.96765 14.5648C7.00547 14.6098 7.02238 14.634 7.0298 14.6466C7.03656 14.6591 7.03987 14.6649 7.04662 14.6993C7.06013 14.7681 7.06756 14.947 7.06756 15.2862V16.1224L7.53445 16.799L7.54665 16.8135C7.76227 17.0607 8.04935 17.5113 8.22985 17.75L8.49496 18.1008L8.77193 17.7579C8.95385 17.5327 9.09898 17.3252 9.37072 16.9138L9.91411 16.0895V15.2717C9.91411 14.9404 9.92222 14.765 9.93505 14.698C9.9418 14.6645 9.94528 14.6594 9.95203 14.6465C9.95946 14.6338 9.9762 14.6095 10.014 14.5648C10.014 14.5681 10.0797 14.5024 10.1672 14.4395C10.2986 14.345 10.4846 14.2303 10.655 14.1427C11.3725 13.7741 12.2528 12.9508 12.6294 12.2778C12.9289 11.7427 13.0643 11.32 13.1702 10.8098C13.2242 10.55 13.3772 9.83272 13.1939 9.08072C13.146 8.88188 13.0537 8.70163 12.9262 8.51358C12.2387 7.50037 11.8324 7.16533 10.3767 6.40992L9.69253 6.05515ZM4.37993 17.0562C2.38048 17.0562 2.36176 17.0787 2.02567 17.2567C1.75765 17.3985 1.56071 17.5954 1.41897 17.8634C1.38655 17.9247 1.35081 17.9934 1.32137 18.0771C1.21082 18.3917 1.21849 18.9031 1.21849 20.4762V22.9676H8.491H15.7635V20.5039C15.7635 19.9026 15.7635 18.329 15.6672 18.0678C15.6024 17.8957 15.4588 17.6896 15.3349 17.5587C15.078 17.2872 14.9061 17.1323 14.2969 17.0839C13.9531 17.0567 13.4153 17.0562 12.6153 17.0562H10.5261L9.61603 18.4147C9.19871 19.0372 8.95435 19.3733 8.81018 19.5134C8.73806 19.5835 8.70136 19.6018 8.66773 19.6136C8.63397 19.6254 8.58723 19.6334 8.491 19.6334C8.39659 19.6334 8.35084 19.6266 8.31822 19.615C8.28581 19.6034 8.24922 19.5837 8.1771 19.5134C8.03279 19.3728 7.7886 19.0362 7.36992 18.4148L6.45459 17.0563L4.37993 17.0562Z" fill="white"/>
</svg>
