<svg width="25" height="24" viewBox="0 0 25 24" fill="none" xmlns="http://www.w3.org/2000/svg">
<g clip-path="url(#clip0_10804_1343)">
<path d="M11.8048 0.00976562C12.7326 0.0193547 13.6598 0.254403 14.291 0.627019C14.6084 0.81433 14.8092 0.863607 15.1852 0.847278C15.5431 0.831747 15.8659 0.890902 16.1981 1.0372C16.5303 1.18352 16.8736 1.42113 17.2454 1.77184C17.8865 2.37671 18.2806 3.03852 18.5801 4.03246C18.6938 4.40998 18.7524 4.97804 18.7384 5.58087C18.7242 6.18371 18.6411 6.82524 18.4957 7.368C18.3298 7.98738 18.3085 8.20819 18.3084 9.37672C18.3083 10.4886 18.2956 10.6461 18.1449 11.2417C17.8124 12.5549 17.1369 13.6202 16.1282 14.4348C15.877 14.6377 15.6245 14.7544 15.3883 14.8964C15.1329 15.0501 14.8719 15.2655 14.8792 15.6574L14.886 15.9911L15.2197 15.9951C15.8369 16.0028 15.384 16.0005 16.4898 16.0176C16.6645 16.0203 16.8674 16.0236 17.0991 16.0268L18.6396 16.0466C19.1776 16.0902 19.7271 16.4132 20.134 16.859L20.1407 16.867L20.1488 16.8737C20.704 17.4159 20.8154 18.1053 20.8214 18.9101L20.8363 23.0647C20.8363 23.5541 20.8289 23.7666 20.707 23.8824C20.6228 23.9627 20.5065 23.9881 19.9104 23.9827C19.7556 23.9813 19.5888 23.9786 19.4237 23.9813C18.3635 24.001 16.374 24.0011 12.5996 24.0064C11.7037 24.0077 10.8387 24.0124 10.0317 24.0077L4.79561 23.9774C4.69797 23.9768 4.58289 23.9794 4.47512 23.9616C4.43527 23.9548 4.39555 23.9444 4.36037 23.9313C4.22653 23.8812 4.19683 23.7766 4.17968 23.6899C4.16617 23.6223 4.16077 23.5061 4.1655 23.3087C4.17225 23.0418 4.18093 22.6614 4.18363 22.0716L4.19847 18.5145C4.19847 18.2774 4.23709 18.1103 4.25667 18.0344C4.38963 17.524 4.60291 17.1405 4.90558 16.821C5.08014 16.6367 5.28717 16.4424 5.48854 16.3158C5.77007 16.139 6.16132 16.0482 6.58324 16.0428L7.87973 16.027C9.56748 16.0058 7.92904 16.005 9.76183 16.0112L10.0968 16.0126L10.1077 15.6776C10.1145 15.5151 10.0455 15.388 9.96511 15.2911C9.85909 15.1635 9.68458 15.0434 9.5325 14.935C9.27178 14.7492 8.92463 14.5028 8.48792 14.0935C8.19816 13.8219 7.92777 13.5328 7.76779 13.3167C7.44379 12.8789 7.16697 12.3124 6.97397 11.7076C6.7809 11.1029 6.67082 10.4594 6.66913 9.87037C6.66913 9.57446 6.64014 9.14642 6.59132 8.94185C6.4281 8.25597 6.24926 6.61801 6.23933 5.65247C6.23933 5.33949 6.23954 5.10439 6.24609 4.91916C6.27175 4.21635 6.49194 3.5681 6.73937 3.05685C7.58536 1.30876 9.32731 0.140343 11.411 0.0193793C11.5416 0.0118161 11.673 0.0087757 11.8066 0.0101263L11.8048 0.00976562ZM11.8184 1.08336C11.3219 1.07128 10.7149 1.11057 10.1803 1.30362C8.52668 1.90044 7.35676 3.4169 7.29315 5.0876C7.26546 5.82172 7.28568 6.25334 7.35118 6.86418L7.42784 7.57508L7.93694 7.07257C8.51755 6.49758 9.20067 6.30757 9.93889 6.17439C10.4921 6.07458 10.6547 6.18242 11.4227 6.01216C11.5933 5.97434 11.7629 5.92831 11.9214 5.87631L11.9282 5.87496L11.9347 5.87361C12.617 5.63329 13.1874 5.12105 13.6863 4.73934C14.169 5.01192 14.2865 5.23223 15.2388 5.71006C15.4244 5.80322 15.6695 5.9384 15.9167 6.08464C16.3753 6.35603 16.8481 6.70723 16.9981 6.85093L17.4412 7.2743L17.5731 6.67551C17.6561 6.29881 17.6393 6.37013 17.6747 6.05562C17.8381 4.60707 17.401 3.27623 16.4351 2.43124C16.2897 2.30417 16.1431 2.19592 15.9985 2.11206C15.8333 2.01633 15.6634 1.94829 15.4905 1.9195C15.173 1.86655 14.8474 1.92862 14.5871 1.97886C13.7251 1.41308 12.87 1.12356 11.824 1.0833L11.8184 1.08336ZM13.6925 6.06491L13.223 6.38805C12.5492 6.84974 11.9306 7.03371 10.4744 7.1794C9.97682 7.22917 9.60979 7.29961 9.27944 7.46165C8.83415 7.68005 8.02891 8.38987 7.82335 9.03512C7.74563 9.2798 7.72575 9.54188 7.72575 9.84889C7.72575 11.2047 8.16569 12.2806 9.11325 13.2359C9.55678 13.683 9.86132 13.9136 10.3267 14.1525C10.497 14.24 10.6832 14.3548 10.8147 14.4493C10.9022 14.5123 10.9705 14.578 10.9676 14.5746C11.0055 14.6196 11.0224 14.6438 11.0298 14.6563C11.0366 14.6689 11.0399 14.6747 11.0466 14.7091C11.0601 14.7779 11.0676 14.9567 11.0676 15.296V16.1322L11.5345 16.8088L11.5467 16.8233C11.7623 17.0705 12.0493 17.5211 12.2299 17.7597L12.495 18.1106L12.7719 17.7677C12.9538 17.5424 13.099 17.335 13.3707 16.9235L13.9141 16.0992V15.2815C13.9141 14.9501 13.9222 14.7748 13.935 14.7078C13.9418 14.6743 13.9453 14.6691 13.952 14.6563C13.9595 14.6435 13.9762 14.6192 14.014 14.5745C14.014 14.5779 14.0797 14.5122 14.1672 14.4492C14.2986 14.3548 14.4846 14.24 14.655 14.1525C15.3725 13.7839 16.2528 12.9605 16.6294 12.2875C16.9289 11.7525 17.0643 11.3297 17.1702 10.8196C17.2242 10.5597 17.3772 9.84249 17.1939 9.09049C17.146 8.89165 17.0537 8.71139 16.9262 8.52335C16.2387 7.51013 15.8324 7.1751 14.3767 6.41968L13.6925 6.06491ZM8.37993 17.066C6.38048 17.066 6.36176 17.0884 6.02567 17.2665C5.75765 17.4082 5.56071 17.6051 5.41897 17.8732C5.38655 17.9344 5.35081 18.0032 5.32137 18.0868C5.21082 18.4014 5.21849 18.9128 5.21849 20.486V22.9774H12.491H19.7635V20.5137C19.7635 19.9123 19.7635 18.3388 19.6672 18.0776C19.6024 17.9055 19.4588 17.6994 19.3349 17.5685C19.078 17.297 18.9061 17.1421 18.2969 17.0937C17.9531 17.0664 17.4153 17.066 16.6153 17.066H14.5261L13.616 18.4245C13.1987 19.047 12.9544 19.383 12.8102 19.5232C12.7381 19.5932 12.7014 19.6115 12.6677 19.6234C12.634 19.6352 12.5872 19.6432 12.491 19.6432C12.3966 19.6432 12.3508 19.6364 12.3182 19.6247C12.2858 19.6131 12.2492 19.5935 12.1771 19.5232C12.0328 19.3826 11.7886 19.046 11.3699 18.4245L10.4546 17.066L8.37993 17.066Z" fill="#01C7FB"/>
</g>
<defs>
<clipPath id="clip0_10804_1343">
<rect width="24" height="24" fill="white" transform="translate(0.5 0.00976562)"/>
</clipPath>
</defs>
</svg>
