<svg width="24" height="16" viewBox="0 0 24 16" fill="none" xmlns="http://www.w3.org/2000/svg">
<g clip-path="url(#clip0_11312_10090)">
<path d="M8.43628 2.09375H15.5666V13.7396H8.43628V2.09375Z" fill="#FF5F00"/>
<path d="M9.17082 7.91666C9.16994 6.79526 9.42415 5.68836 9.91421 4.67972C10.4043 3.67107 11.1174 2.78712 11.9995 2.09475C10.9069 1.23611 9.59484 0.702179 8.21319 0.553968C6.83153 0.405758 5.43605 0.649251 4.18624 1.25662C2.93642 1.86399 1.88269 2.81073 1.14549 3.98863C0.408278 5.16654 0.017334 6.52809 0.017334 7.91767C0.017334 9.30725 0.408278 10.6688 1.14549 11.8467C1.88269 13.0246 2.93642 13.9714 4.18624 14.5787C5.43605 15.1861 6.83153 15.4296 8.21319 15.2814C9.59484 15.1332 10.9069 14.5992 11.9995 13.7406C11.1171 13.048 10.4038 12.1637 9.91376 11.1547C9.42368 10.1457 9.16962 9.03836 9.17082 7.91662V7.91666Z" fill="#EB001B"/>
<path d="M23.275 12.5067V12.2681H23.3778V12.2188H23.1331V12.2681H23.2297V12.5068L23.275 12.5067ZM23.7502 12.5067V12.2188H23.6761L23.5897 12.4245L23.5033 12.2188H23.4293V12.5067H23.4828V12.2887L23.563 12.4759H23.6185L23.6988 12.2887V12.5067H23.7502Z" fill="#F79E1B"/>
<path d="M23.9828 7.91764C23.9827 9.30733 23.5917 10.669 22.8544 11.8469C22.117 13.0249 21.0631 13.9716 19.8132 14.5789C18.5632 15.1861 17.1676 15.4295 15.7858 15.281C14.4041 15.1326 13.092 14.5984 11.9995 13.7395C12.8813 13.0465 13.5942 12.1623 14.0844 11.1536C14.5745 10.1449 14.8293 9.03809 14.8293 7.91659C14.8293 6.79509 14.5745 5.68824 14.0844 4.67955C13.5942 3.67085 12.8813 2.78665 11.9995 2.09367C13.092 1.23476 14.4041 0.700559 15.7858 0.552132C17.1676 0.403706 18.5632 0.647042 19.8132 1.25433C21.0632 1.86161 22.117 2.80834 22.8544 3.98629C23.5917 5.16424 23.9828 6.52589 23.9828 7.91558V7.91764Z" fill="#F79E1B"/>
</g>
<defs>
<clipPath id="clip0_11312_10090">
<rect width="24" height="14.8333" fill="white" transform="translate(0 0.5)"/>
</clipPath>
</defs>
</svg>
