<svg width="12" height="13" viewBox="0 0 12 13" fill="none" xmlns="http://www.w3.org/2000/svg">
<path d="M9.5 2.5H7.5V2C7.5 1.173 6.827 0.5 6 0.5C5.173 0.5 4.5 1.173 4.5 2V2.5H2.5C1.1215 2.5 0 3.6215 0 5V10C0 11.3785 1.1215 12.5 2.5 12.5H9.5C10.8785 12.5 12 11.3785 12 10V5C12 3.6215 10.8785 2.5 9.5 2.5ZM5.5 2C5.5 1.724 5.7245 1.5 6 1.5C6.2755 1.5 6.5 1.724 6.5 2V2.9975C6.5 2.9975 6.5 2.999 6.5 3C6.5 3.001 6.5 3.0015 6.5 3.0025V3.5H5.4995V2H5.5ZM11 10C11 10.827 10.327 11.5 9.5 11.5H2.5C1.673 11.5 1 10.827 1 10V5C1 4.173 1.673 3.5 2.5 3.5H4.5C4.5 4.0515 4.9485 4.5 5.5 4.5H6.5C7.0515 4.5 7.5 4.0515 7.5 3.5H9.5C10.327 3.5 11 4.173 11 5V10ZM4.75 6.75C4.75 6.0595 5.3095 5.5 6 5.5C6.6905 5.5 7.25 6.0595 7.25 6.75C7.25 7.4405 6.6905 8 6 8C5.3095 8 4.75 7.4405 4.75 6.75ZM8.484 10.3755C8.553 10.6425 8.392 10.9155 8.1245 10.9845C7.8555 11.054 7.5845 10.892 7.5155 10.6245C7.35 9.9835 6.6985 9.5 5.9995 9.5C5.3005 9.5 4.6485 9.9835 4.4835 10.6245C4.4255 10.85 4.2225 11 3.9995 11C3.9585 11 3.9165 10.995 3.8745 10.9845C3.607 10.9155 3.446 10.643 3.515 10.3755C3.7945 9.2885 4.839 8.5 5.999 8.5C7.159 8.5 8.2035 9.2885 8.483 10.3755H8.484Z" fill="#214B92"/>
</svg>
