<svg width="12" height="12" viewBox="0 0 12 12" fill="none" xmlns="http://www.w3.org/2000/svg">
<g clip-path="url(#clip0_10423_25427)">
<path d="M9.93802 4.60346e-06C9.91159 -0.000125742 9.88585 0.00252004 9.86072 0.00690812C9.76245 0.0148318 9.66625 0.0562855 9.59031 0.131756L8.64288 1.07325C7.78315 0.602977 6.81849 0.356244 5.83793 0.355822C2.61372 0.355825 -9.08478e-06 2.96247 0 6.17793C9.73374e-06 9.39337 2.61374 12 5.83793 12C9.06213 12 11.6759 9.39337 11.6759 6.17793C11.6753 5.1765 11.4156 4.19217 10.9221 3.32004L11.8281 2.4197C11.932 2.34059 11.9994 2.2158 12 2.07415C12.0011 1.8324 11.8082 1.63684 11.5674 1.63565L10.3648 1.62976L10.3704 0.438236C10.3716 0.196486 10.1787 0.00102521 9.93802 4.60346e-06ZM5.83793 1.28475C6.56887 1.28521 7.29047 1.44847 7.95001 1.76269C7.93186 1.78183 7.91539 1.80199 7.90132 1.82331C7.85325 1.89319 7.82486 1.97792 7.82443 2.06961L7.81745 3.54249L7.77248 3.58711C7.74415 3.61498 7.71595 3.64284 7.68791 3.67101L7.55492 3.80458C7.05582 3.44241 6.45516 3.24591 5.83793 3.24288C4.21255 3.24288 2.89492 4.55693 2.89492 6.17789C2.89492 7.79886 4.21255 9.11291 5.83793 9.11291C7.46331 9.11291 8.78094 7.79886 8.78094 6.17789C8.77751 5.55652 8.57643 4.95227 8.20664 4.45215L8.50047 4.15672L9.91173 4.16369C10.0421 4.16435 10.158 4.10706 10.2378 4.01665C10.5705 4.68887 10.7438 5.42832 10.7444 6.17793C10.7444 8.88034 8.5477 11.0711 5.83793 11.0711C3.12817 11.0711 0.931468 8.88034 0.931464 6.17793C0.931449 3.47551 3.12815 1.28475 5.83793 1.28475ZM5.83793 4.17161C6.2102 4.17213 6.57502 4.27569 6.89179 4.47071L5.51195 5.8568C5.33241 6.03716 5.3324 6.32756 5.51198 6.50788C5.69157 6.68821 5.98071 6.6882 6.16026 6.50785L7.54422 5.11762C7.74339 5.43564 7.84922 5.80297 7.84968 6.17793C7.84969 7.28597 6.94899 8.18422 5.83793 8.18421C4.72688 8.1842 3.82622 7.28596 3.82622 6.17793C3.82622 5.0699 4.72688 4.17162 5.83793 4.17161Z" fill="#01C7FB"/>
</g>
<defs>
<clipPath id="clip0_10423_25427">
<rect width="12" height="12" fill="white"/>
</clipPath>
</defs>
</svg>
