<svg width="24" height="24" viewBox="0 0 24 24" fill="none" xmlns="http://www.w3.org/2000/svg">
<path d="M9.16258 0.000132294C6.52415 -0.000738951 4.00738 0.00266052 3.24781 0.011298C2.9868 0.0142707 2.65304 0.0795597 2.31353 0.209399C1.97402 0.339238 1.62807 0.532365 1.32863 0.780468C0.725901 1.27986 0.255877 2.00349 0.0958833 2.72446C0.0421508 2.9666 0.0376889 2.9992 0.0161707 3.28122C0.0192267 3.24101 0.00653281 4.23867 0.00437559 4.9965C0.00185884 6.00694 0.000134513 7.37718 8.67534e-06 8.89259C-0.00035086 13.4388 0.0104945 19.2981 0.0270331 20.6598C0.0341339 21.2469 0.209168 22.1146 1.07901 22.9717C2.0497 23.9281 3.19098 23.9858 3.33837 23.9889C4.00039 24.0031 6.17 24.0037 6.94113 23.9907C7.14339 23.987 7.20097 23.9871 7.28344 23.9319L7.28735 23.9294L7.29116 23.9271C7.33854 23.8971 7.39262 23.8548 7.42429 23.8243C7.70585 23.5529 7.67101 23.1286 7.39084 22.9C7.28789 22.8159 7.21797 22.7927 7.17253 22.7866C7.03164 22.7678 6.569 22.7607 5.32953 22.7516C4.65084 22.7466 4.03037 22.7395 3.67262 22.7332C1.82624 22.7009 1.34991 21.2144 1.342 20.6344C1.31683 18.7777 1.31694 5.27076 1.342 3.36059C1.35237 2.57492 1.79418 2.07489 2.07793 1.83621L2.08045 1.8345L2.08259 1.83252C2.41692 1.55997 2.8483 1.29779 3.36866 1.271C3.91576 1.23154 5.40259 1.23525 9.75434 1.23525C14.0951 1.23525 15.6236 1.2369 16.1228 1.26244C16.5977 1.28674 16.984 1.47814 17.2628 1.67935C17.7805 2.05304 18.0044 2.50474 18.0977 2.77386C18.1479 2.91895 18.1859 3.09209 18.1932 3.29865C18.2054 3.64467 18.2106 4.47103 18.2185 6.38919C18.2257 8.13397 18.2349 9.16626 18.2456 9.51954C18.2468 9.55924 18.2474 9.58705 18.2491 9.60733C18.2968 9.74839 18.3744 9.84861 18.4721 9.92114C18.5755 9.99788 18.7028 10.0427 18.833 10.0514C18.9633 10.0602 19.0938 10.0328 19.2042 9.97148C19.3145 9.91016 19.4076 9.81808 19.4724 9.67235L19.5152 9.576V6.35988V3.6893C19.5152 2.7998 19.3096 2.00818 18.7283 1.29877C18.4159 0.917376 18.0611 0.651536 17.7523 0.471431C17.1536 0.133036 16.5419 -0.0294219 15.8637 0.0140891L15.8504 0.0147166H15.8375C14.5672 0.0061279 11.8013 0.00103639 9.16286 0.0001303L9.16258 0.000132294ZM4.25229 5.55568C3.95481 5.55568 3.72631 5.77698 3.72631 6.06516V6.21283C3.72631 6.50101 3.95499 6.72267 4.25229 6.72267H14.7732C15.0705 6.72267 15.2992 6.50101 15.2992 6.21283V6.06516C15.2992 5.77698 15.0707 5.55568 14.7732 5.55568H4.25229ZM4.25229 9.64744C3.95481 9.64744 3.72631 9.86874 3.72631 10.1569V10.3046C3.72631 10.5928 3.95481 10.8141 4.25229 10.8141H14.7732C15.0707 10.8141 15.2992 10.5928 15.2992 10.3046V10.1569C15.2992 9.86874 15.0707 9.64744 14.7732 9.64744H4.25229ZM18.0368 12.4708C14.7371 12.4708 12.0739 15.0263 12.0739 18.1832C12.0739 21.3401 14.7371 23.8957 18.0368 23.8957C21.3366 23.8957 24 21.3401 24 18.1832C24 15.0264 21.3366 12.4708 18.0368 12.4708ZM18.0368 13.615C20.5587 13.615 22.7964 15.7591 22.7964 18.1832C22.7965 20.6074 20.5587 22.7515 18.0368 22.7515C15.5149 22.7515 13.2774 20.6074 13.2775 18.1832C13.2775 15.7591 15.5149 13.615 18.0368 13.615ZM4.25229 13.7392C3.95481 13.7392 3.72631 13.9605 3.72631 14.2487V14.3965C3.72631 14.6846 3.95481 14.9059 4.25229 14.9059H10.8019C11.0993 14.9059 11.3275 14.6848 11.3275 14.3965V14.2487C11.3275 13.9603 11.0993 13.7392 10.8019 13.7392H4.25229ZM16.7713 16.0808C15.6316 16.095 13.7547 17.9448 17.6132 20.582C17.6132 20.582 17.6158 20.5813 18.0107 20.8428C18.4093 20.5812 18.4084 20.5818 18.4084 20.5818C22.1972 17.9922 20.5518 16.0262 19.0437 16.0843C18.5982 16.1014 18.2561 16.249 18.0108 16.5185C17.7655 16.249 17.4234 16.1014 16.9779 16.0843C16.9101 16.0817 16.841 16.08 16.7713 16.0808Z" fill="#01C7FB"/>
</svg>
