<svg width="21" height="20" viewBox="0 0 21 20" fill="white" xmlns="http://www.w3.org/2000/svg">
<g clip-path="url(#clip0_9838_5632)">
<path d="M18.363 15.6813C18.0969 15.6911 17.7623 15.5423 17.4747 15.2779C17.2653 15.086 17.0931 14.8647 16.9326 14.6317C14.9876 11.8178 13.0446 9.0039 11.1016 6.18803C10.9626 5.98634 10.8159 5.79247 10.6339 5.62799C10.2954 5.32643 10.0097 5.32447 9.66336 5.6319C9.40898 5.8571 9.21331 6.1332 9.02155 6.41126C7.66944 8.3812 6.31929 10.3531 4.96132 12.3191C4.35473 13.1983 3.73249 14.0678 3.10829 14.9333C2.66411 15.5482 2.07122 15.7968 1.31592 15.6206C0.235796 15.368 -0.184902 14.058 0.497999 13.1885C1.00675 12.5423 1.43723 11.8354 1.90098 11.154C4.08861 7.94452 6.28212 4.7331 8.46192 1.51384C8.78283 1.03996 9.13308 0.632657 9.71619 0.507333C10.403 0.360469 10.992 0.507333 11.4538 1.07521C12.4713 2.31865 13.3166 3.68351 14.2167 5.00724C16.0893 7.75654 17.9932 10.4843 19.8227 13.263C20.1534 13.7642 20.3119 14.2577 19.993 14.808C19.6603 15.3798 19.1575 15.6754 18.3591 15.6813H18.363Z" fill="white" fill-opacity="1"/>
<path d="M10.228 8.85742C10.2919 8.8723 10.3934 8.92365 10.5083 9.08301C10.8147 9.50774 11.119 9.93334 11.4214 10.3604L12.3228 11.6465C13.6465 13.5585 14.9685 15.4976 16.2993 17.4121V17.4111C16.4208 17.5861 16.4788 17.7122 16.4976 17.8105C16.5123 17.8881 16.5079 17.9711 16.437 18.0898L16.436 18.0908C16.3418 18.2496 16.2389 18.3455 16.1313 18.4043C16.0226 18.4637 15.8794 18.5015 15.6821 18.5L12.7739 18.4941C11.737 18.4946 10.5982 18.4961 9.25635 18.4961H9.25244C8.19654 18.5 6.32454 18.4863 4.44971 18.4492C4.18597 18.4438 4.04274 18.3507 3.97217 18.2588C3.90112 18.1661 3.84598 18.0003 3.90771 17.7393L3.90869 17.7383C3.96621 17.4946 4.07277 17.2718 4.22607 17.0703L4.22705 17.0693C5.35816 15.5732 6.37593 13.9547 7.42041 12.4521L9.66357 9.21387C9.75629 9.08003 9.848 8.98709 9.95068 8.92383C10.0787 8.84577 10.1686 8.84367 10.228 8.85742Z" stroke="white" stroke-opacity="1"/>
</g>
<defs>
<clipPath id="clip0_9838_5632">
<rect width="20" height="20" fill="white" transform="translate(0.166504)"/>
</clipPath>
</defs>
</svg>
