<svg width="12" height="12" viewBox="0 0 12 12" fill="none" xmlns="http://www.w3.org/2000/svg">
<g clip-path="url(#clip0_10467_2129)">
<path d="M11.2425 5.48727L6 8.63327L0.7575 5.48727C0.643788 5.41904 0.507631 5.39878 0.378981 5.43095C0.250331 5.46311 0.139727 5.54506 0.0714998 5.65877C0.00327283 5.77248 -0.016988 5.90864 0.0151745 6.03729C0.047337 6.16594 0.129288 6.27654 0.243 6.34477L5.743 9.64477C5.82077 9.69149 5.90978 9.71618 6.0005 9.71618C6.09122 9.71618 6.18023 9.69149 6.258 9.64477L11.758 6.34477C11.8717 6.27654 11.9537 6.16594 11.9858 6.03729C12.018 5.90864 11.9977 5.77248 11.9295 5.65877C11.8613 5.54506 11.7507 5.46311 11.622 5.43095C11.4934 5.39878 11.3572 5.41904 11.2435 5.48727H11.2425Z" fill="#13AEF3"/>
<path d="M11.2425 7.77104L5.99996 10.9165L0.757464 7.77104C0.70116 7.73726 0.638753 7.7149 0.573806 7.70523C0.50886 7.69557 0.442646 7.69879 0.378945 7.71471C0.315244 7.73064 0.255304 7.75896 0.202546 7.79805C0.149788 7.83714 0.105246 7.88623 0.0714639 7.94254C0.0376813 7.99884 0.0153195 8.06125 0.0056552 8.1262C-0.0040091 8.19114 -0.000786632 8.25736 0.0151386 8.32106C0.0473011 8.44971 0.129252 8.56031 0.242964 8.62854L5.74296 11.9285C5.82073 11.9753 5.90974 11.9999 6.00046 11.9999C6.09119 11.9999 6.1802 11.9753 6.25796 11.9285L11.758 8.62854C11.8717 8.56031 11.9536 8.44971 11.9858 8.32106C12.018 8.19241 11.9977 8.05625 11.9295 7.94254C11.8612 7.82883 11.7506 7.74688 11.622 7.71471C11.4933 7.68255 11.3572 7.70281 11.2435 7.77104H11.2425ZM5.99996 7.38604C5.73025 7.38589 5.46566 7.31244 5.23446 7.17354L0.242464 4.17804C0.168538 4.13359 0.107369 4.07077 0.0649043 3.99568C0.0224392 3.9206 0.00012207 3.8358 0.00012207 3.74954C0.00012207 3.66328 0.0224392 3.57848 0.0649043 3.5034C0.107369 3.42831 0.168538 3.36549 0.242464 3.32104L5.23446 0.32554C5.46565 0.186654 5.73027 0.113281 5.99996 0.113281C6.26966 0.113281 6.53428 0.186654 6.76546 0.32554L11.7575 3.32104C11.8314 3.36549 11.8926 3.42831 11.935 3.5034C11.9775 3.57848 11.9998 3.66328 11.9998 3.74954C11.9998 3.8358 11.9775 3.9206 11.935 3.99568C11.8926 4.07077 11.8314 4.13359 11.7575 4.17804L6.76546 7.17354C6.53427 7.31244 6.26967 7.38589 5.99996 7.38604ZM1.47196 3.74954L5.74996 6.31604C5.82552 6.36124 5.91192 6.38511 5.99996 6.38511C6.08801 6.38511 6.17441 6.36124 6.24996 6.31604L10.528 3.74954L6.24996 1.18304C6.17441 1.13784 6.08801 1.11397 5.99996 1.11397C5.91192 1.11397 5.82552 1.13784 5.74996 1.18304L1.47196 3.74954Z" fill="#13AEF3"/>
</g>
<defs>
<clipPath id="clip0_10467_2129">
<rect width="12" height="12" fill="white"/>
</clipPath>
</defs>
</svg>
