<svg xmlns="http://www.w3.org/2000/svg" version="1.1" xmlns:xlink="http://www.w3.org/1999/xlink" width="512" height="512" x="0" y="0" viewBox="0 0 64 64" style="enable-background:new 0 0 512 512" xml:space="preserve"><g><path d="M32.72 2.29c-.03-.02-.06-.05-.09-.07a.55.55 0 0 0-.14-.09.494.494 0 0 0-.18-.08.992.992 0 0 0-.3-.05c-.08 0-.16.01-.23.03-.07.01-.14.04-.21.08-.05.02-.1.05-.14.08-.04.03-.09.06-.13.1-.9.66-9.43 6.49-25.89 4.51a.996.996 0 0 0-1.12.99v20.57c0 .6.02 1.2.05 1.79.47 9.29 4.58 17.81 11.45 23.59 4.4 3.68 9.76 6.44 15.94 8.22.09.03.18.04.28.04.09 0 .18-.01.27-.04 6.18-1.78 11.53-4.54 15.93-8.22 6.87-5.78 10.98-14.3 11.45-23.59.03-.59.05-1.19.05-1.79V7.79c0-.28-.12-.56-.34-.75-.21-.18-.49-.27-.78-.24-16.42 1.99-24.93-3.82-25.87-4.51zm24.99 6.62v19.45c0 .26 0 .53-.01.79H33.01V4.85c3.23 1.89 11.33 5.44 24.7 4.06zM6.41 31.15h24.6v28.5c-5.38-1.69-10.06-4.2-13.93-7.44-6.17-5.19-9.98-12.75-10.67-21.06z" fill="#5fcafa" opacity="1" data-original="#000000"></path></g></svg>