<svg width="11" height="13" viewBox="0 0 11 13" fill="none" xmlns="http://www.w3.org/2000/svg">
<g clip-path="url(#clip0_9438_2339)">
<path d="M6.84597 11.1305C6.64968 11.5553 6.51992 12.0163 6.47021 12.4998L10.6242 11.6379C10.8204 11.2132 10.9501 10.752 10.9999 10.2686L6.84597 11.1305Z" fill="#0D0D0D"/>
<path d="M10.6241 9.05594C10.8204 8.6312 10.9502 8.17007 10.9999 7.68659L7.76409 8.35832V7.06701L10.624 6.47378C10.8203 6.04904 10.9501 5.58791 10.9998 5.10443L7.76399 5.77559V1.13162C7.26817 1.40335 6.82784 1.76505 6.46989 2.1917V6.04417L5.17579 6.31265V0.5C4.67997 0.771635 4.23963 1.13343 3.88169 1.56008V6.58104L0.986134 7.18162C0.789842 7.60636 0.659991 8.06749 0.610184 8.55097L3.88169 7.87236V9.49854L0.375632 10.2258C0.17934 10.6505 0.049587 11.1116 -0.00012207 11.5951L3.66974 10.8339C3.96849 10.7732 4.22525 10.6008 4.39219 10.3636L5.06522 9.38966V9.38947C5.13508 9.2887 5.17579 9.16721 5.17579 9.03636V7.60388L6.46989 7.33539V9.91803L10.624 9.05575L10.6241 9.05594Z" fill="#0D0D0D"/>
</g>
<defs>
<clipPath id="clip0_9438_2339">
<rect width="11" height="12" fill="white" transform="translate(0 0.5)"/>
</clipPath>
</defs>
</svg>
