<svg width="33" height="32" viewBox="0 0 33 32" fill="none" xmlns="http://www.w3.org/2000/svg">
<g clip-path="url(#clip0_4408_2621)">
<path d="M32.75 16C32.75 24.8367 25.5867 32 16.75 32C7.91331 32 0.75 24.8367 0.75 16C0.75 7.16331 7.91331 0 16.75 0C25.5867 0 32.75 7.16331 32.75 16Z" fill="#FFE047"/>
<path d="M16.6719 6.25C17.9416 6.25 19.137 6.56033 20.0801 7.21582C21.0187 7.86827 21.7237 8.87366 22.0029 10.2979C22.1466 11.0304 22.1796 11.6538 22.1836 12.1729C22.1856 12.4342 22.18 12.666 22.1777 12.8789C22.1756 13.0879 22.1763 13.2821 22.1924 13.4512C22.2083 13.619 22.2417 13.7836 22.3164 13.9258C22.3956 14.0764 22.5157 14.1916 22.6826 14.2607C22.841 14.3263 23.0284 14.3457 23.2383 14.3379C23.4498 14.33 23.7024 14.2929 24.002 14.2314C24.3969 14.1505 24.6883 14.1972 24.8682 14.2891C25.0427 14.3782 25.1104 14.5052 25.1094 14.6309C25.1082 14.7668 25.0256 14.9676 24.7578 15.1826C24.4918 15.3962 24.061 15.6066 23.4229 15.751C23.15 15.8128 22.9309 15.9396 22.7764 16.1279C22.623 16.315 22.5499 16.5431 22.5332 16.7822C22.5005 17.2515 22.6804 17.8007 22.9668 18.3184C23.2565 18.8421 23.6713 19.363 24.1475 19.7812C24.6217 20.1978 25.1731 20.5267 25.7383 20.6396C26.2266 20.7374 26.579 20.8775 26.8037 21.0264C27.0342 21.179 27.0915 21.3117 27.0938 21.3887C27.0958 21.4593 27.053 21.5828 26.8311 21.7266C26.6121 21.8683 26.2568 22.0007 25.7451 22.0879C25.2137 22.1783 24.8639 22.2774 24.6465 22.4082C24.5321 22.4771 24.4413 22.5631 24.3838 22.6729C24.3262 22.7829 24.3144 22.8932 24.3184 22.9883C24.3322 23.3198 24.4631 23.5003 24.3105 23.8115L24.2266 23.9541C24.1161 24.1159 23.9684 24.177 23.752 24.1748C23.5172 24.1723 23.2345 24.0943 22.8994 23.9912C22.5787 23.8925 22.213 23.7712 21.8613 23.7197C21.5062 23.6678 21.1271 23.6806 20.7871 23.8789C19.6112 24.5652 18.8832 25.7402 16.6719 25.7402C14.4605 25.7402 13.7326 24.5653 12.5566 23.8789C12.2167 23.6806 11.8375 23.6678 11.4824 23.7197C11.1307 23.7712 10.7651 23.8925 10.4443 23.9912C10.1093 24.0943 9.82656 24.1723 9.5918 24.1748C9.37539 24.177 9.2277 24.1159 9.11719 23.9541C8.84105 23.5491 9.00959 23.3672 9.02539 22.9883C9.02935 22.8932 9.01758 22.7829 8.95996 22.6729C8.90244 22.5631 8.81167 22.4771 8.69727 22.4082C8.47983 22.2774 8.13002 22.1784 7.59863 22.0879C7.087 22.0007 6.73163 21.8683 6.5127 21.7266C6.29077 21.5828 6.24796 21.4593 6.25 21.3887C6.25223 21.3117 6.3096 21.179 6.54004 21.0264C6.76477 20.8775 7.11715 20.7374 7.60547 20.6396C8.17061 20.5267 8.72207 20.1978 9.19629 19.7812C9.67244 19.363 10.0872 18.842 10.377 18.3184C10.6633 17.8007 10.8433 17.2514 10.8105 16.7822C10.7939 16.5431 10.7207 16.315 10.5674 16.1279C10.4129 15.9396 10.1938 15.8128 9.9209 15.751C9.28279 15.6065 8.85199 15.3962 8.58594 15.1826C8.31816 14.9677 8.23563 14.7668 8.23438 14.6309C8.23337 14.5052 8.3011 14.3782 8.47559 14.2891C8.63294 14.2087 8.8755 14.1629 9.19824 14.207L9.3418 14.2314C9.6413 14.2929 9.89392 14.33 10.1055 14.3379C10.3153 14.3457 10.5028 14.3263 10.6611 14.2607C10.828 14.1916 10.9481 14.0764 11.0273 13.9258C11.1021 13.7836 11.1354 13.6189 11.1514 13.4512C11.1674 13.2821 11.1682 13.0879 11.166 12.8789C11.1638 12.666 11.1581 12.4342 11.1602 12.1729C11.1642 11.6538 11.1972 11.0304 11.3408 10.2979V10.2969C11.6202 8.87294 12.3251 7.8682 13.2637 7.21582C14.2068 6.56033 15.4021 6.25 16.6719 6.25Z" fill="white" stroke="black" stroke-width="0.5"/>
</g>
<defs>
<clipPath id="clip0_4408_2621">
<rect width="32" height="32" fill="white" transform="translate(0.75)"/>
</clipPath>
</defs>
</svg>
