<svg width="24" height="24" viewBox="0 0 24 24" fill="none" xmlns="http://www.w3.org/2000/svg">
<path d="M9.08846 4.20274e-05C6.47145 -0.000829205 3.97485 0.00265572 3.22145 0.0112983C2.96263 0.0142605 2.63161 0.0794826 2.29493 0.209396C1.95827 0.339308 1.61528 0.532677 1.31822 0.780818C0.720336 1.28025 0.254164 2.00348 0.0954879 2.72442C0.0421203 2.96687 0.0373781 2.99943 0.0160525 3.28117C0.0190837 3.24092 0.00642762 4.23861 0.00428792 4.99642C0.0016133 6.00685 0.000178308 7.37708 0 8.89246C0 13.4386 0.0106993 19.2979 0.027175 20.6595C0.0343073 21.2467 0.207877 22.1147 1.07062 22.9717C2.03343 23.9281 3.16545 23.9858 3.31163 23.9889C3.96826 24.0031 6.12027 24.0037 6.88514 23.9907C7.08575 23.987 7.14288 23.9871 7.22467 23.9319L7.22841 23.9296L7.23233 23.9272C7.27933 23.8972 7.33283 23.855 7.3643 23.8244C7.64346 23.5531 7.60902 23.1283 7.33121 22.8997C7.22908 22.8157 7.15967 22.7925 7.11458 22.7864C6.97484 22.7676 6.51604 22.7605 5.28666 22.7513C4.61346 22.7463 3.99802 22.7392 3.64317 22.733C1.81178 22.7007 1.33929 21.2142 1.3315 20.6342C1.30653 18.7776 1.30662 5.27078 1.3315 3.36063C1.34166 2.57497 1.77994 2.07502 2.06136 1.83636L2.06351 1.83456L2.06599 1.83249C2.39772 1.55984 2.82571 1.29812 3.34164 1.27134C3.88432 1.23188 5.35895 1.23559 9.67536 1.23559C13.9809 1.23559 15.4968 1.23681 15.9921 1.26242C16.4632 1.28671 16.8463 1.47813 17.1228 1.67933C17.6365 2.05308 17.8586 2.50519 17.951 2.77418C18.0008 2.91907 18.0385 3.09202 18.0458 3.29859C18.0579 3.64467 18.0629 4.47098 18.0708 6.3891C18.0779 8.13386 18.087 9.16612 18.0976 9.5194C18.0994 9.5591 18.1001 9.58691 18.1012 9.60719C18.1485 9.74825 18.2254 9.84847 18.3223 9.921C18.4248 9.99773 18.5511 10.0426 18.6803 10.0514C18.8095 10.0601 18.939 10.0327 19.0484 9.97133C19.1578 9.91001 19.2502 9.81793 19.3145 9.67221L19.357 9.57595V6.35983V3.6893C19.357 2.7998 19.1531 2.00829 18.5765 1.29889C18.2666 0.917567 17.9149 0.65202 17.6084 0.471832C17.0146 0.133421 16.4074 -0.0293672 15.7348 0.0141369L15.7216 0.0147641H15.7087C14.4487 0.00617373 11.7057 0.000991647 9.08872 8.55651e-05L9.08846 4.20274e-05ZM9.55987 3.34123C9.43951 3.34129 9.29769 3.35821 9.19627 3.39246C9.11583 3.41963 8.97849 3.48522 8.89966 3.53149C8.78857 3.5967 8.53802 3.82336 8.36863 3.98874C8.21582 4.13791 8.10785 4.23629 8.03574 4.29336C7.98765 4.3314 7.95497 4.34998 7.94441 4.35459C7.91017 4.36954 7.89853 4.37417 7.84923 4.38124C7.77528 4.39185 7.62464 4.39882 7.3111 4.4078C7.13445 4.41286 6.69086 4.4297 6.58919 4.46048C6.53097 4.4781 6.43438 4.51331 6.37133 4.53972C6.28121 4.57747 6.16312 4.66285 6.08937 4.73025C6.01065 4.80222 5.90683 4.93392 5.85893 5.02668C5.8196 5.10282 5.76831 5.22547 5.74893 5.29879C5.72281 5.39799 5.70501 5.8281 5.69943 6.02005C5.68499 6.51484 5.67097 6.58496 5.65816 6.60885C5.65816 6.60882 5.60348 6.67427 5.60342 6.67431C5.57823 6.70324 5.54673 6.73792 5.51146 6.77588C5.45269 6.83915 5.38307 6.91162 5.31152 6.98307C5.17279 7.12159 4.94233 7.35974 4.8908 7.42591C4.84462 7.48524 4.77327 7.59902 4.73709 7.66912C4.69447 7.75172 4.6469 7.89887 4.629 7.99382C4.60204 8.13688 4.60204 8.2276 4.629 8.37066C4.6469 8.46556 4.6944 8.61287 4.73709 8.69563C4.77334 8.76588 4.84476 8.87943 4.8908 8.93857C4.94231 9.00472 5.17279 9.2429 5.31152 9.38141C5.38309 9.45286 5.45269 9.52533 5.51146 9.5886C5.54673 9.62656 5.57823 9.66124 5.60342 9.69017C5.60348 9.69021 5.65818 9.75566 5.65816 9.75563C5.67082 9.77949 5.68506 9.84962 5.69943 10.3444C5.70496 10.5364 5.72265 10.9665 5.74893 11.066C5.76845 11.1401 5.82032 11.2622 5.85987 11.3381C5.90543 11.4255 5.99817 11.5501 6.06976 11.6176C6.13677 11.6807 6.25684 11.7659 6.33881 11.8067C6.42406 11.8492 6.58524 11.8995 6.69044 11.922L6.73963 11.9326V13.5977C6.73971 14.7796 6.73571 15.3129 6.76921 15.4602C6.7817 15.515 6.7978 15.5425 6.81373 15.5681C6.85333 15.6316 6.93269 15.7105 6.99756 15.7503C7.09626 15.811 7.18079 15.8249 7.31728 15.8147C7.47778 15.8027 7.85811 15.6447 8.56823 15.3484L9.56135 14.9338L10.5799 15.3569C11.2261 15.6253 11.5672 15.7627 11.7228 15.8038C11.7591 15.8134 11.8048 15.8225 11.8432 15.8225C11.9334 15.8224 12.0408 15.7975 12.1204 15.7501C12.1864 15.7108 12.2664 15.6325 12.3067 15.5681C12.3225 15.5427 12.3387 15.515 12.3512 15.4602C12.3847 15.3129 12.3807 14.7789 12.3807 13.5977V11.9332L12.4332 11.9223C12.5404 11.8998 12.7014 11.8499 12.7877 11.8056C12.8671 11.7647 12.9845 11.6798 13.0503 11.6179C13.122 11.5504 13.215 11.4254 13.2605 11.3381C13.2999 11.2625 13.3521 11.1406 13.3717 11.066C13.3979 10.9668 13.4156 10.5364 13.4212 10.3444C13.4358 9.84545 13.448 9.78364 13.4625 9.75707C13.4625 9.75751 13.5242 9.68462 13.5249 9.68386C13.5534 9.65157 13.5888 9.6125 13.6288 9.56969C13.6955 9.49833 13.7747 9.4161 13.8566 9.33395C14.1516 9.03809 14.2724 8.90041 14.3543 8.74803C14.4114 8.6416 14.4698 8.48559 14.491 8.37318C14.5184 8.2279 14.5185 8.13703 14.491 7.99382C14.4731 7.89888 14.4256 7.75173 14.383 7.66912C14.3468 7.59902 14.2754 7.48524 14.2292 7.42591C14.1777 7.35968 13.9473 7.12159 13.8086 6.98307C13.737 6.91162 13.6674 6.83915 13.6086 6.77588C13.5734 6.73792 13.5419 6.70324 13.5167 6.67431C13.5166 6.67427 13.4619 6.60879 13.4619 6.60885C13.4491 6.585 13.435 6.51486 13.4207 6.02005C13.4151 5.82812 13.3975 5.39815 13.3712 5.29879C13.3517 5.22491 13.3 5.1025 13.2608 5.02668C13.2134 4.93501 13.112 4.80451 13.0342 4.7334C12.9777 4.68171 12.869 4.59396 12.804 4.56124C12.7484 4.53319 12.6449 4.49541 12.5728 4.47309C12.4364 4.43087 12.2471 4.4198 11.8086 4.40753C11.4953 4.39876 11.3447 4.39184 11.2708 4.38124C11.2215 4.37417 11.21 4.36943 11.176 4.35459C11.166 4.35019 11.1331 4.33154 11.0849 4.29345C11.0128 4.2363 10.9047 4.13785 10.7523 3.98901C10.5815 3.82227 10.3314 3.59655 10.2203 3.53149C10.1415 3.48529 10.0041 3.41962 9.92375 3.39246C9.82233 3.35821 9.6806 3.34129 9.56015 3.34123H9.55987ZM9.55987 4.40997C9.56914 4.41359 9.57771 4.41703 9.59744 4.42554C9.59512 4.42452 9.63469 4.44675 9.68526 4.48704C9.76111 4.54748 9.87327 4.64819 10.0176 4.78689C10.131 4.89588 10.4019 5.15344 10.4725 5.20037C10.5183 5.23078 10.6124 5.28285 10.6731 5.31365C10.752 5.35368 10.8981 5.40311 10.9925 5.42495C11.1302 5.45681 11.3645 5.46998 11.7054 5.47501C11.9047 5.47795 12.0358 5.48202 12.1205 5.48843C12.2052 5.49483 12.2388 5.50373 12.2517 5.50878C12.2644 5.51368 12.2787 5.52213 12.2871 5.52877C12.2896 5.54327 12.2928 5.56646 12.296 5.59774C12.3055 5.6943 12.3139 5.86065 12.3209 6.101C12.3334 6.52081 12.3463 6.72869 12.3877 6.85827C12.411 6.93101 12.4578 7.0491 12.4895 7.1104C12.521 7.17134 12.5861 7.27058 12.6304 7.32695C12.6813 7.39177 12.9117 7.63054 13.0499 7.76898C13.1214 7.84053 13.1906 7.91239 13.2487 7.97491C13.2488 7.975 13.3905 8.13529 13.3904 8.13519C13.3922 8.13759 13.4107 8.18802 13.4107 8.18237C13.4107 8.17672 13.3916 8.22719 13.3904 8.22956C13.3905 8.2295 13.2488 8.38939 13.2487 8.38948C13.1905 8.45196 13.1214 8.52392 13.0499 8.5955C12.9117 8.73399 12.6812 8.97291 12.6304 9.03753C12.5861 9.09393 12.521 9.19353 12.4895 9.25444C12.4579 9.31557 12.411 9.43335 12.3877 9.50621C12.3463 9.63585 12.3333 9.84397 12.3209 10.2637C12.3138 10.5041 12.3054 10.6705 12.296 10.767C12.293 10.7983 12.2898 10.8212 12.2871 10.8357C12.287 10.8358 12.2871 10.8358 12.2871 10.836C12.2784 10.8428 12.2638 10.8515 12.2503 10.8569C12.2181 10.8695 12.1078 10.8852 11.7045 10.8909C11.3673 10.8956 11.1308 10.9088 10.9934 10.9402C10.8989 10.9617 10.7527 11.0106 10.6734 11.0508C10.6124 11.0818 10.5181 11.1343 10.4728 11.1645C10.4029 11.2109 10.1343 11.4658 10.0222 11.5735C9.94461 11.6481 9.8674 11.7198 9.80091 11.7798C9.80082 11.7799 9.63601 11.9232 9.63605 11.9232C9.6129 11.9347 9.58137 11.9465 9.56437 11.9532C9.56241 11.9527 9.56064 11.9523 9.5585 11.9517C9.54477 11.9482 9.52761 11.9422 9.51427 11.9363C9.52194 11.9397 9.47885 11.915 9.42755 11.8736C9.35061 11.8115 9.23804 11.7101 9.10117 11.5778C8.98926 11.4696 8.71928 11.2123 8.64887 11.1655C8.60247 11.1348 8.50708 11.0817 8.44623 11.0508C8.36677 11.0105 8.22044 10.9618 8.12594 10.9403C7.98905 10.9092 7.74951 10.8959 7.41543 10.8909C7.01445 10.8849 6.89925 10.8683 6.86901 10.8565C6.85564 10.8513 6.84125 10.8429 6.83271 10.8362C6.8326 10.8362 6.83271 10.8361 6.83271 10.836C6.83021 10.8215 6.82701 10.7981 6.8238 10.7667C6.81435 10.6703 6.80597 10.5041 6.79892 10.2637C6.78644 9.84394 6.77361 9.63575 6.73221 9.50611C6.70891 9.43321 6.6619 9.31544 6.6303 9.25435C6.59894 9.19373 6.53408 9.09444 6.49043 9.03833C6.43897 8.97219 6.20874 8.73378 6.06998 8.59522C5.99832 8.52367 5.92908 8.45166 5.87084 8.3892C5.87075 8.38911 5.72947 8.23004 5.72949 8.23009C5.72771 8.22762 5.70897 8.17665 5.70897 8.18237C5.70897 8.1881 5.72821 8.13703 5.72949 8.13456C5.72947 8.13461 5.87075 7.97527 5.87084 7.97518C5.92908 7.91268 5.99833 7.84077 6.06998 7.76925C6.20867 7.63074 6.43883 7.39263 6.49043 7.32632C6.53408 7.27021 6.5989 7.17096 6.6303 7.1103C6.66188 7.04924 6.70892 6.93142 6.73221 6.85854C6.77361 6.7289 6.78651 6.52068 6.79892 6.1009C6.80606 5.86054 6.81444 5.69431 6.8238 5.59773C6.82701 5.56633 6.82985 5.54298 6.83271 5.52849C6.84109 5.5219 6.85547 5.51354 6.8679 5.50868C6.88074 5.50366 6.91455 5.49483 6.9993 5.48842C7.08407 5.48202 7.2152 5.47786 7.41451 5.47492C7.75949 5.46982 7.99099 5.45661 8.13064 5.42431C8.23857 5.39934 8.39091 5.3434 8.48752 5.29356C8.62309 5.22364 8.80684 5.06445 9.07189 4.81291C9.227 4.66574 9.34935 4.55689 9.43171 4.49109C9.48659 4.44723 9.53149 4.42149 9.52421 4.42464C9.54292 4.41654 9.55097 4.4135 9.55987 4.40997ZM9.55987 5.41432C9.47476 5.41432 9.39011 5.41872 9.30547 5.4272C9.1728 5.44051 8.96992 5.4739 8.85867 5.50193C8.74983 5.52936 8.56754 5.59017 8.45672 5.63583C8.34299 5.6827 8.16762 5.77325 8.06652 5.83717C7.9674 5.89982 7.80213 6.02176 7.70494 6.10352C7.59922 6.19243 7.43864 6.36325 7.34567 6.48324C7.25198 6.60415 7.1162 6.81986 7.04704 6.95696C6.97775 7.09427 6.88909 7.32297 6.85177 7.464C6.80441 7.64292 6.78048 7.81501 6.77096 8.03245C6.76115 8.25949 6.76882 8.41218 6.80027 8.59091C6.82263 8.7177 6.87051 8.91292 6.9068 9.02033C6.9428 9.12688 7.0193 9.30372 7.0754 9.41094C7.13212 9.51928 7.237 9.68561 7.30816 9.7794C7.38182 9.87653 7.53076 10.0368 7.63638 10.1353C7.74259 10.2344 7.91705 10.3741 8.02346 10.4431C8.12421 10.5085 8.29416 10.6019 8.39906 10.6491C8.50004 10.6946 8.65442 10.7527 8.74542 10.7784C8.82887 10.8021 8.98112 10.8373 9.07686 10.8552C9.21116 10.8801 9.40595 10.8869 9.63746 10.8806C9.88576 10.874 10.0688 10.856 10.2215 10.8185C10.3338 10.791 10.5138 10.7331 10.6182 10.6915C10.7253 10.6487 10.9063 10.559 11.017 10.4946C11.1638 10.4092 11.33 10.2745 11.5039 10.1064C11.634 9.98077 11.8142 9.78603 11.8801 9.68675C11.9344 9.60512 12.0184 9.4618 12.0637 9.37402C12.1111 9.28205 12.1784 9.12166 12.2132 9.01862C12.2493 8.91185 12.2969 8.71752 12.3193 8.59091C12.3508 8.41215 12.3584 8.25953 12.3485 8.03245C12.3389 7.8151 12.315 7.64297 12.2677 7.464C12.2304 7.32299 12.1417 7.09428 12.0724 6.95696C12.0033 6.81986 11.8675 6.60416 11.7738 6.48324C11.6808 6.36325 11.5203 6.19244 11.4146 6.10352C11.3174 6.02177 11.1522 5.89982 11.053 5.83717C10.9519 5.77324 10.7764 5.6827 10.6627 5.63583C10.5519 5.59016 10.3696 5.52936 10.2608 5.50193C10.1496 5.47392 9.94721 5.44052 9.81455 5.4272C9.72986 5.4187 9.64492 5.41432 9.55987 5.41432ZM9.55987 6.4872C9.61892 6.48716 9.6783 6.49158 9.7575 6.50152C9.85878 6.51422 10.0479 6.55884 10.1325 6.58904C10.2237 6.62156 10.3812 6.69443 10.4461 6.73275C10.4984 6.76362 10.6615 6.89239 10.7576 6.98704C10.8546 7.08255 10.9821 7.23939 11.0062 7.27941C11.0437 7.34185 11.1084 7.46981 11.1359 7.5364C11.1622 7.59993 11.2052 7.73883 11.2208 7.81076C11.2339 7.87146 11.2514 8.04876 11.2515 8.1586C11.2515 8.28926 11.2353 8.43148 11.2085 8.54084C11.1865 8.63064 11.125 8.79863 11.0879 8.87274C11.0495 8.94943 10.9536 9.10213 10.8949 9.17863C10.842 9.24755 10.7031 9.38606 10.6221 9.44894C10.5382 9.51409 10.3745 9.61508 10.2988 9.65064C10.218 9.68863 10.0502 9.74859 9.96474 9.76995C9.84481 9.79992 9.73577 9.8114 9.55138 9.81056C9.37682 9.80969 9.25091 9.79555 9.14773 9.76914C9.06843 9.74885 8.90522 9.68969 8.82271 9.65091C8.74676 9.6152 8.58269 9.51406 8.49884 9.44894C8.41804 9.38619 8.27907 9.24734 8.22602 9.17826C8.16718 9.10165 8.07138 8.94934 8.03306 8.87274C7.99592 8.7985 7.93414 8.63015 7.91217 8.54057C7.8853 8.43108 7.869 8.28901 7.86912 8.1586C7.86925 8.04861 7.88677 7.87127 7.8999 7.81049C7.91541 7.73893 7.95864 7.59993 7.98505 7.53604C8.01229 7.47014 8.07688 7.34369 8.11388 7.28346C8.14441 7.23375 8.25186 7.09622 8.32671 7.01684C8.39655 6.9428 8.54624 6.81725 8.62129 6.7685C8.69757 6.71894 8.87272 6.63194 8.9685 6.59678C9.07001 6.55952 9.25147 6.51541 9.36019 6.50179C9.4406 6.49174 9.50083 6.48724 9.55987 6.4872ZM17.3469 11.5882C15.3658 11.5883 13.7775 13.128 13.7775 15.0354C13.7775 16.0256 14.2199 16.968 14.9923 17.6232L15.7195 18.2402L14.8111 18.5536C13.5695 18.9822 12.5367 19.7911 11.8158 20.7793C11.1076 21.7501 10.7081 22.8903 10.6938 23.9872H24C23.9863 22.8903 23.5875 21.7497 22.8796 20.7787C22.159 19.7902 21.1263 18.9808 19.8849 18.5519L18.9777 18.2392L19.7038 17.6218C20.4752 16.9666 20.9154 16.0257 20.9158 15.0354C20.9158 13.1281 19.3281 11.5882 17.3469 11.5882ZM7.84424 11.9852C7.89094 11.9962 7.93909 12.0095 7.95897 12.0178C7.95558 12.0163 7.99234 12.0368 8.04099 12.0759C8.11395 12.1345 8.2237 12.2343 8.36863 12.3757C8.53804 12.5411 8.78857 12.7678 8.89966 12.833C8.97849 12.8793 9.11581 12.9448 9.19627 12.972C9.29749 13.0062 9.43965 13.0235 9.56052 13.0235C9.68136 13.0235 9.82327 13.0062 9.92439 12.972C10.0046 12.9449 10.1422 12.8793 10.2213 12.833C10.3321 12.7681 10.5826 12.5425 10.7535 12.3757C10.898 12.2346 11.0077 12.1345 11.0808 12.0756C11.1295 12.0364 11.1667 12.0157 11.1622 12.0175C11.1818 12.0093 11.2298 11.9962 11.2764 11.9852V13.2549C11.2764 13.7398 11.2743 14.1719 11.2709 14.4388V14.4712C11.1091 14.4054 10.9134 14.3258 10.6098 14.1997C10.2509 14.0506 9.70513 13.8186 9.56191 13.8186C9.41971 13.8186 8.90007 14.0396 8.54927 14.1856C8.54927 14.1858 8.0821 14.3778 7.85073 14.4729C7.84556 14.2883 7.84483 13.9558 7.84483 13.2566L7.84424 11.9852ZM17.3469 12.6255C18.6976 12.6255 19.7845 13.7089 19.7846 15.0354C19.7846 16.374 18.6836 17.3734 17.3469 17.3734C16.0102 17.3733 14.909 16.374 14.909 15.0354C14.909 13.7088 15.9963 12.6256 17.3469 12.6255ZM7.85384 14.6242H7.85563C7.86383 14.6427 7.85884 14.6536 7.85741 14.6429C7.85741 14.6404 7.85743 14.6373 7.85563 14.634C7.85563 14.6311 7.85557 14.6277 7.85384 14.6242ZM11.2677 14.6345C11.2677 14.6359 11.2676 14.6373 11.2677 14.6386C11.2675 14.6438 11.2677 14.6488 11.2677 14.6534C11.2675 14.6576 11.2677 14.6617 11.2677 14.6655C11.2676 14.6669 11.2653 14.6521 11.2677 14.6345ZM17.3326 19.1036H17.3385C18.7697 19.0844 19.9716 19.6209 20.8385 20.2498C21.9409 21.0283 22.3075 21.6772 22.6487 22.8682L12.1553 22.8519C12.3408 21.1858 14.9412 19.0216 17.3326 19.1036Z" fill="#01C7FB"/>
</svg>
