<svg width="12" height="10" viewBox="0 0 12 10" fill="none" xmlns="http://www.w3.org/2000/svg">
<path d="M5.20674 9.50898H5.20229C5.17358 9.50839 5.14528 9.502 5.1191 9.4902C5.09292 9.4784 5.0694 9.46143 5.04994 9.4403L1.03135 5.07062C0.997929 5.03429 0.978161 4.98748 0.975425 4.93819C0.972689 4.8889 0.987155 4.84019 1.01635 4.80038C1.04555 4.76058 1.08766 4.73215 1.13549 4.71993C1.18331 4.7077 1.2339 4.71245 1.27862 4.73335L4.95666 6.45554C4.9876 6.47007 5.02416 6.46304 5.04783 6.43843L10.6583 0.574601C10.7342 0.495148 10.8585 0.486476 10.9447 0.554913C11.031 0.623351 11.0509 0.746163 10.9906 0.838273L5.40971 9.3878C5.40174 9.40023 5.39236 9.41148 5.38205 9.42202L5.35744 9.44663C5.31739 9.48647 5.26323 9.50887 5.20674 9.50898Z" fill="white"/>
</svg>
