<svg width="33" height="32" viewBox="0 0 33 32" fill="none" xmlns="http://www.w3.org/2000/svg">
<path d="M16.25 32C7.4148 32 0.25 24.8352 0.25 16C0.25 7.1648 7.4148 0 16.25 0C25.0852 0 32.25 7.1648 32.25 16C32.25 24.8352 25.0852 32 16.25 32Z" fill="#25D366"/>
<path fill-rule="evenodd" clip-rule="evenodd" d="M23.7348 8.55062C21.7508 6.56342 19.1076 5.46902 16.2948 5.46582C10.4996 5.46582 5.77961 10.1826 5.77961 15.981C5.77961 17.8338 6.26281 19.645 7.18441 21.2386L5.69321 26.6882L11.2676 25.2258C12.8036 26.0642 14.5316 26.5058 16.2916 26.5058H16.2948C22.09 26.5058 26.8068 21.789 26.81 15.9906C26.8132 13.181 25.722 10.5378 23.7348 8.55062ZM16.298 24.7298H16.2948C14.7268 24.7298 13.1876 24.3074 11.8468 23.5106L11.5268 23.3218L8.21801 24.189L9.10121 20.9634L8.89321 20.6338C8.01961 19.2418 7.55561 17.6354 7.55561 15.981C7.55881 11.1618 11.4788 7.24182 16.3012 7.24182C18.6372 7.24182 20.8292 8.15382 22.4804 9.80502C24.1316 11.4562 25.0404 13.6546 25.0372 15.9874C25.0372 20.8098 21.114 24.7298 16.298 24.7298ZM21.0916 18.1826C20.8292 18.0514 19.5364 17.4146 19.2964 17.3282C19.0564 17.2418 18.8804 17.197 18.7044 17.4594C18.5284 17.7218 18.026 18.3138 17.8724 18.4898C17.7188 18.6658 17.5652 18.6882 17.3028 18.557C17.0404 18.4258 16.1924 18.1474 15.1908 17.2514C14.41 16.5538 13.882 15.693 13.7284 15.4306C13.5748 15.1682 13.7124 15.0242 13.8436 14.893C13.962 14.7746 14.106 14.5858 14.2372 14.4322C14.3684 14.2786 14.4132 14.1698 14.4996 13.9938C14.586 13.8178 14.5444 13.6642 14.4772 13.533C14.41 13.4018 13.8852 12.109 13.6676 11.581C13.4532 11.069 13.2388 11.1394 13.0756 11.1298C12.922 11.1234 12.746 11.1202 12.5732 11.1202C12.3972 11.1202 12.1124 11.1874 11.8724 11.4498C11.6324 11.7122 10.954 12.349 10.954 13.6418C10.954 14.9346 11.8948 16.1858 12.026 16.3586C12.1572 16.5346 13.8788 19.1874 16.5156 20.3266C17.1428 20.5986 17.6324 20.7586 18.0132 20.8802C18.6436 21.0818 19.2164 21.053 19.6676 20.9858C20.1732 20.909 21.2228 20.349 21.4404 19.7378C21.658 19.1234 21.658 18.5986 21.594 18.4898C21.53 18.381 21.354 18.317 21.0916 18.1826Z" fill="white"/>
</svg>
