<svg width="20" height="18" viewBox="0 0 20 18" fill="none" xmlns="http://www.w3.org/2000/svg">
<path d="M17.5916 17.6299C17.488 17.6023 17.2584 17.3864 16.0283 16.1604L14.5863 14.7233H12.0188C11.5768 14.7233 11.206 14.7181 10.8955 14.7232C9.86777 14.7402 9.63279 14.835 9.12212 14.3469C8.8664 14.096 8.76588 13.7637 8.74655 13.3838C8.72339 12.9285 8.72878 12.0538 8.72878 10.2155C8.72878 6.99576 8.73139 6.83289 8.78593 6.65766C8.92829 6.20025 9.26228 5.87555 9.7147 5.7547C9.94282 5.69376 18.7929 5.6948 19.0219 5.75563C19.3553 5.84441 19.7043 6.11951 19.8489 6.40747C20.0124 6.73323 20.005 6.53948 19.9962 10.2655L19.9897 13.0062C19.9943 13.3489 20.0235 13.6734 19.868 13.9877C19.7719 14.1697 19.6213 14.3493 19.4637 14.4653C19.2377 14.6316 19.0318 14.6959 18.6533 14.7184L18.3196 14.7383L18.3044 16.03L18.2893 17.3217L18.2076 17.4287C18.0671 17.6128 17.8246 17.6919 17.5915 17.6298L17.5916 17.6299ZM17.9423 13.639C18.0116 13.6365 18.0935 13.6336 18.1911 13.6312C18.7809 13.6164 18.7968 13.6143 18.8533 13.5444C18.9095 13.4749 18.9112 13.3757 18.9112 10.2136V6.95448L18.8367 6.88001L18.7623 6.80556H13.2189H9.9613L9.89108 6.87151L9.82088 6.93747V10.2099V13.2679C9.82088 13.5758 9.85201 13.6312 10.1659 13.6312H12.2306C14.9446 13.6312 14.9556 13.6401 15.0192 13.6669C15.0658 13.6866 15.575 14.1678 16.1506 14.7362L17.1972 15.7698L17.2124 14.9053C17.2171 14.6358 17.2133 14.4349 17.215 14.2875C17.2185 13.98 17.3026 13.662 17.9423 13.639ZM2.72823 16.0211C2.59305 15.9801 2.52251 15.9308 2.43547 15.8167L2.35081 15.7058L2.33564 13.8681L2.32049 12.0303L1.68343 12.0113C1.13516 11.9949 1.02267 11.9832 0.876328 11.9273C0.524797 11.7931 0.283507 11.5731 0.129439 11.2423C0.0591376 11.1105 0.031698 10.9737 0.0233042 10.8266C0.00277828 10.4359 -0.000150957 9.3407 5.74978e-06 6.01083C0.000139687 1.36234 0.00279577 1.1313 0.0562407 0.955605C0.203009 0.473049 0.590877 0.124834 1.08293 0.0338709C1.35959 -0.0172717 15.6135 -0.00768933 15.8532 0.0437707C16.3985 0.160875 16.7939 0.599292 16.8689 1.17006C16.9193 1.55305 16.8947 5.03087 16.841 5.1289C16.6571 5.46446 16.2758 5.5584 16.0047 5.33494C15.7988 5.1652 15.8056 5.23848 15.8056 3.19291C15.8056 2.22241 15.7986 1.60136 15.7851 1.3619C15.7765 1.20965 15.7414 1.12812 15.5867 1.11859C15.2979 1.10079 14.0679 1.09422 9.12799 1.09422C4.18818 1.09422 2.30635 1.10208 1.58153 1.11958C1.51273 1.12125 1.41332 1.12203 1.32319 1.12527C1.17703 1.13052 1.11059 1.15973 1.11072 1.2321C1.11072 1.23551 1.10832 1.26771 1.10715 1.32671C1.10622 1.37298 1.10537 1.43559 1.10452 1.51323C1.09717 2.17995 1.09189 3.95514 1.09189 6.01221C1.09189 9.48046 1.09477 10.4356 1.1192 10.7113C1.12508 10.7778 1.21937 10.8893 1.30613 10.8928C1.5393 10.9022 2.00396 10.8928 2.00396 10.8928C2.88587 10.8928 3.07395 10.9149 3.21738 11.0356C3.41663 11.2032 3.41106 11.1585 3.42776 12.7281L3.44292 14.1539L5.05073 12.5556C6.17302 11.44 6.68602 10.9499 6.74954 10.9326C6.85022 10.9053 7.70275 10.9009 7.99065 10.9209C8.1279 10.9224 8.23522 11.0147 8.32633 11.1094C8.3695 11.1562 8.40473 11.2052 8.42254 11.2478C8.52313 11.4886 8.43317 11.7745 8.21264 11.915C8.09028 11.9929 8.06252 11.9973 7.61412 12.0088L7.14392 12.0209L5.15691 14C3.44577 15.7043 3.15256 15.984 3.04503 16.0145C2.90523 16.0542 2.84141 16.0554 2.72823 16.0211Z" fill="#FDCB2F"/>
</svg>
