<svg width="18" height="20" viewBox="0 0 18 20" fill="none" xmlns="http://www.w3.org/2000/svg">
<path d="M8.71685 9.63406C10.0404 9.63406 11.1864 9.15934 12.1229 8.22274C13.0593 7.28634 13.534 6.14056 13.534 4.8169C13.534 3.49362 13.0593 2.34773 12.1227 1.41097C11.1861 0.474686 10.0402 0 8.71685 0C7.39314 0 6.24733 0.474686 5.31092 1.41113C4.37452 2.34757 3.89964 3.4935 3.89964 4.8169C3.89964 6.14056 4.37448 7.2865 5.31108 8.22294C6.24768 9.15922 7.39361 9.63406 8.71685 9.63406ZM17.1456 15.379C17.1186 14.9893 17.064 14.5641 16.9835 14.1153C16.9024 13.663 16.7979 13.2354 16.6727 12.8446C16.5435 12.4407 16.3677 12.0419 16.1505 11.6596C15.9249 11.2629 15.66 10.9175 15.3628 10.6332C15.0519 10.3358 14.6714 10.0967 14.2313 9.92227C13.7928 9.74883 13.3068 9.66094 12.7869 9.66094C12.5828 9.66094 12.3853 9.74469 12.004 9.99297C11.733 10.1695 11.4611 10.3447 11.1884 10.5187C10.9264 10.6857 10.5715 10.8421 10.1331 10.9837C9.70544 11.1221 9.27118 11.1923 8.84255 11.1923C8.41396 11.1923 7.97982 11.1221 7.55166 10.9837C7.11377 10.8422 6.75885 10.6859 6.49713 10.5189C6.19361 10.325 5.91901 10.148 5.6808 9.99277C5.29995 9.74453 5.10233 9.66074 4.89819 9.66074C4.37815 9.66074 3.89233 9.74879 3.45394 9.92246C3.01417 10.0966 2.63347 10.3357 2.32234 10.6334C2.02527 10.9178 1.76023 11.263 1.535 11.6596C1.31789 12.0419 1.14211 12.4406 1.0127 12.8448C0.887697 13.2356 0.783206 13.663 0.702034 14.1153C0.621605 14.5635 0.566996 14.9888 0.539964 15.3794C0.513075 15.7725 0.499747 16.1664 0.500004 16.5604C0.500004 17.6045 0.831877 18.4496 1.48633 19.0729C2.13269 19.6881 2.98792 20.0001 4.02796 20.0001H13.6581C14.6981 20.0001 15.553 19.6882 16.1996 19.073C16.8542 18.4501 17.186 17.6048 17.186 16.5603C17.1859 16.1573 17.1723 15.7598 17.1456 15.379Z" fill="#01C7FB"/>
</svg>
