<svg width="13" height="13" viewBox="0 0 13 13" fill="none" xmlns="http://www.w3.org/2000/svg">
<path d="M10.271 0.500005C10.2446 0.499874 10.2189 0.50252 10.1937 0.506908C10.0955 0.514832 9.99926 0.556285 9.92332 0.631756L8.97589 1.57325C8.11616 1.10298 7.1515 0.856244 6.17094 0.855822C2.94673 0.855825 0.332999 3.46247 0.333008 6.67793C0.333018 9.89337 2.94674 12.5 6.17094 12.5C9.39513 12.5 12.0089 9.89337 12.0089 6.67793C12.0083 5.6765 11.7487 4.69217 11.2551 3.82004L12.1611 2.9197C12.265 2.84059 12.3324 2.7158 12.333 2.57415C12.3341 2.3324 12.1412 2.13684 11.9005 2.13565L10.6978 2.12976L10.7034 0.938236C10.7046 0.696486 10.5117 0.501025 10.271 0.500005ZM6.17094 1.78475C6.90187 1.78521 7.62348 1.94847 8.28302 2.26269C8.26486 2.28183 8.24839 2.30199 8.23433 2.32331C8.18626 2.39319 8.15787 2.47792 8.15744 2.56961L8.15046 4.04249L8.10549 4.08711C8.07716 4.11498 8.04896 4.14284 8.02092 4.17101L7.88793 4.30458C7.38882 3.94241 6.78817 3.74591 6.17094 3.74288C4.54556 3.74288 3.22793 5.05693 3.22793 6.67789C3.22793 8.29886 4.54556 9.61291 6.17094 9.61291C7.79632 9.61291 9.11394 8.29886 9.11395 6.67789C9.11052 6.05652 8.90943 5.45227 8.53965 4.95215L8.83347 4.65672L10.2447 4.66369C10.3751 4.66435 10.491 4.60706 10.5708 4.51665C10.9035 5.18887 11.0768 5.92832 11.0774 6.67793C11.0774 9.38034 8.8807 11.5711 6.17094 11.5711C3.46117 11.5711 1.26448 9.38034 1.26447 6.67793C1.26446 3.97551 3.46116 1.78475 6.17094 1.78475ZM6.17094 4.67161C6.54321 4.67213 6.90803 4.77569 7.2248 4.97071L5.84496 6.3568C5.66541 6.53716 5.66541 6.82756 5.84499 7.00788C6.02457 7.18821 6.31372 7.1882 6.49327 7.00785L7.87723 5.61762C8.0764 5.93564 8.18222 6.30297 8.18269 6.67793C8.18269 7.78597 7.282 8.68422 6.17094 8.68421C5.05989 8.6842 4.15922 7.78596 4.15923 6.67793C4.15922 5.5699 5.05989 4.67162 6.17094 4.67161Z" fill="#01C7FB"/>
</svg>
