<svg width="13" height="13" viewBox="0 0 13 13" fill="none" xmlns="http://www.w3.org/2000/svg">
<g clip-path="url(#clip0_11386_9542)">
<path d="M12.6217 8.75512L11.7567 4.60512C11.3217 3.04512 10.0367 1.89012 8.49175 1.58012C7.71175 0.880117 6.71175 0.495117 5.66675 0.495117C3.66175 0.500117 1.95675 1.86512 1.52175 3.83012L0.701747 7.80012C0.611747 8.21512 0.711747 8.64512 0.976747 8.98012C1.24175 9.31512 1.64175 9.50512 2.06675 9.50512H2.73175C2.78175 9.67512 2.86175 9.84012 2.97675 9.98012C3.24175 10.3151 3.64175 10.5051 4.06675 10.5051H5.44175C5.56675 11.6251 6.51175 12.5051 7.66675 12.5051C8.82175 12.5051 9.76675 11.6251 9.89175 10.5051H11.2667C11.6817 10.5051 12.0667 10.3251 12.3317 10.0151L12.3817 9.95512C12.6467 9.60512 12.7317 9.16012 12.6217 8.76512V8.75512ZM2.76175 8.50012H2.06675C1.94175 8.50012 1.83175 8.44512 1.75675 8.35012C1.68175 8.25512 1.65175 8.13012 1.67675 8.00512L2.49675 4.04012C2.83175 2.54512 4.13175 1.50012 5.66175 1.50012C5.97675 1.50012 6.28675 1.54512 6.58675 1.63512C5.07175 2.02512 3.87175 3.23012 3.51675 4.83012L2.75675 8.50012H2.76175ZM7.66675 11.5001C7.06175 11.5001 6.55675 11.0701 6.44175 10.5001H8.89175C8.77675 11.0701 8.27175 11.5001 7.66675 11.5001ZM11.5967 9.33012L11.5867 9.34012C11.5067 9.44012 11.3967 9.50012 11.2667 9.50012H4.06675C3.94675 9.50012 3.83175 9.44512 3.75675 9.35012C3.68175 9.25512 3.65175 9.13012 3.68175 9.00512L4.50175 5.04012C4.83675 3.54512 6.13675 2.50012 7.66675 2.50012C9.11675 2.50012 10.4067 3.47512 10.7867 4.84512L11.6517 8.99512C11.6867 9.11512 11.6617 9.23512 11.5917 9.33512L11.5967 9.33012Z" fill="#01C7FB"/>
</g>
<defs>
<clipPath id="clip0_11386_9542">
<rect width="12" height="12" fill="white" transform="translate(0.666504 0.5)"/>
</clipPath>
</defs>
</svg>
