<svg width="36" height="36" viewBox="0 0 36 36" fill="none" xmlns="http://www.w3.org/2000/svg">
<path fill-rule="evenodd" clip-rule="evenodd" d="M5.625 13.5V10.5C5.62441 9.85964 5.7501 9.22545 5.99488 8.63372C6.23966 8.04199 6.59873 7.50434 7.05153 7.05153C7.50434 6.59873 8.04199 6.23966 8.63372 5.99488C9.22545 5.7501 9.85964 5.62441 10.5 5.625H13.5C13.7984 5.625 14.0845 5.50647 14.2955 5.2955C14.5065 5.08452 14.625 4.79837 14.625 4.5C14.625 4.20163 14.5065 3.91548 14.2955 3.7045C14.0845 3.49353 13.7984 3.375 13.5 3.375H10.5C8.61033 3.375 6.79806 4.12567 5.46186 5.46186C4.12567 6.79806 3.375 8.61033 3.375 10.5V13.5C3.375 13.7984 3.49353 14.0845 3.7045 14.2955C3.91548 14.5065 4.20163 14.625 4.5 14.625C4.79837 14.625 5.08452 14.5065 5.2955 14.2955C5.50647 14.0845 5.625 13.7984 5.625 13.5ZM22.5 5.625H25.5C26.1404 5.62441 26.7746 5.7501 27.3663 5.99488C27.958 6.23966 28.4957 6.59873 28.9485 7.05153C29.4013 7.50434 29.7603 8.04199 30.0051 8.63372C30.2499 9.22545 30.3756 9.85964 30.375 10.5V13.5C30.375 13.7984 30.4935 14.0845 30.7045 14.2955C30.9155 14.5065 31.2016 14.625 31.5 14.625C31.7984 14.625 32.0845 14.5065 32.2955 14.2955C32.5065 14.0845 32.625 13.7984 32.625 13.5V10.5C32.625 8.61033 31.8743 6.79806 30.5381 5.46186C29.2019 4.12567 27.3897 3.375 25.5 3.375H22.5C22.2016 3.375 21.9155 3.49353 21.7045 3.7045C21.4935 3.91548 21.375 4.20163 21.375 4.5C21.375 4.79837 21.4935 5.08452 21.7045 5.2955C21.9155 5.50647 22.2016 5.625 22.5 5.625ZM3.375 22.5V25.5C3.375 27.3897 4.12567 29.2019 5.46186 30.5381C6.79806 31.8743 8.61033 32.625 10.5 32.625H13.5C13.7984 32.625 14.0845 32.5065 14.2955 32.2955C14.5065 32.0845 14.625 31.7984 14.625 31.5C14.625 31.2016 14.5065 30.9155 14.2955 30.7045C14.0845 30.4935 13.7984 30.375 13.5 30.375H10.5C9.85964 30.3756 9.22545 30.2499 8.63372 30.0051C8.04199 29.7603 7.50434 29.4013 7.05153 28.9485C6.59873 28.4957 6.23966 27.958 5.99488 27.3663C5.7501 26.7746 5.62441 26.1404 5.625 25.5V22.5C5.625 22.2016 5.50647 21.9155 5.2955 21.7045C5.08452 21.4935 4.79837 21.375 4.5 21.375C4.20163 21.375 3.91548 21.4935 3.7045 21.7045C3.49353 21.9155 3.375 22.2016 3.375 22.5ZM22.5 32.625H25.5C27.3897 32.625 29.2019 31.8743 30.5381 30.5381C31.8743 29.2019 32.625 27.3897 32.625 25.5V22.5C32.625 22.2016 32.5065 21.9155 32.2955 21.7045C32.0845 21.4935 31.7984 21.375 31.5 21.375C31.2016 21.375 30.9155 21.4935 30.7045 21.7045C30.4935 21.9155 30.375 22.2016 30.375 22.5V25.5C30.3756 26.1404 30.2499 26.7746 30.0051 27.3663C29.7603 27.958 29.4013 28.4957 28.9485 28.9485C28.4957 29.4013 27.958 29.7603 27.3663 30.0051C26.7746 30.2499 26.1404 30.3756 25.5 30.375H22.5C22.2016 30.375 21.9155 30.4935 21.7045 30.7045C21.4935 30.9155 21.375 31.2016 21.375 31.5C21.375 31.7984 21.4935 32.0845 21.7045 32.2955C21.9155 32.5065 22.2016 32.625 22.5 32.625ZM22.125 12.75V14.25C22.125 14.5484 22.2435 14.8345 22.4545 15.0455C22.6655 15.2565 22.9516 15.375 23.25 15.375C23.5484 15.375 23.8345 15.2565 24.0455 15.0455C24.2565 14.8345 24.375 14.5484 24.375 14.25V12.75C24.375 12.4516 24.2565 12.1655 24.0455 11.9545C23.8345 11.7435 23.5484 11.625 23.25 11.625C22.9516 11.625 22.6655 11.7435 22.4545 11.9545C22.2435 12.1655 22.125 12.4516 22.125 12.75ZM11.625 12.75V14.25C11.625 14.5484 11.7435 14.8345 11.9545 15.0455C12.1655 15.2565 12.4516 15.375 12.75 15.375C13.0484 15.375 13.3345 15.2565 13.5455 15.0455C13.7565 14.8345 13.875 14.5484 13.875 14.25V12.75C13.875 12.4516 13.7565 12.1655 13.5455 11.9545C13.3345 11.7435 13.0484 11.625 12.75 11.625C12.4516 11.625 12.1655 11.7435 11.9545 11.9545C11.7435 12.1655 11.625 12.4516 11.625 12.75ZM17.625 18.804V15C17.625 14.7016 17.7435 14.4155 17.9545 14.2045C18.1655 13.9935 18.4516 13.875 18.75 13.875C19.0484 13.875 19.3345 13.9935 19.5455 14.2045C19.7565 14.4155 19.875 14.7016 19.875 15V19.5C19.875 19.709 19.8167 19.9139 19.7068 20.0917C19.5968 20.2695 19.4395 20.4131 19.2525 20.5065L17.7525 21.2565C17.6202 21.3239 17.4758 21.3643 17.3278 21.3756C17.1798 21.3869 17.0309 21.3688 16.8899 21.3223C16.7489 21.2759 16.6185 21.2019 16.5062 21.1048C16.3939 21.0077 16.302 20.8893 16.2356 20.7564C16.1693 20.6236 16.13 20.4789 16.1198 20.3308C16.1097 20.1827 16.1289 20.034 16.1765 19.8934C16.2241 19.7527 16.299 19.6229 16.397 19.5114C16.495 19.3998 16.6142 19.3088 16.7475 19.2435L17.625 18.804ZM22.455 22.455C22.6683 22.2563 22.9503 22.1481 23.2418 22.1532C23.5332 22.1584 23.8113 22.2764 24.0174 22.4826C24.2236 22.6887 24.3416 22.9668 24.3468 23.2582C24.3519 23.5497 24.2437 23.8317 24.045 24.045C23.841 24.249 24.045 24.0465 24.0435 24.048C22.4406 25.6508 20.2667 26.5512 18 26.5512C15.7333 26.5512 13.5594 25.6508 11.9565 24.048L11.955 24.045C11.7563 23.8317 11.6481 23.5497 11.6532 23.2582C11.6584 22.9668 11.7764 22.6887 11.9826 22.4826C12.1887 22.2764 12.4668 22.1584 12.7582 22.1532C13.0497 22.1481 13.3317 22.2563 13.545 22.455C13.749 22.659 13.5465 22.455 13.548 22.4565C14.7289 23.637 16.3303 24.3002 18 24.3002C19.6697 24.3002 21.2711 23.637 22.452 22.4565L22.455 22.455Z" fill="#024896"/>
</svg>
