<svg width="16" height="20" viewBox="0 0 16 20" fill="none" xmlns="http://www.w3.org/2000/svg">
<path d="M0.382812 10V0H0.96875H1.55469V0.717824V1.43564L1.81836 1.57316C2.74448 2.05617 3.74595 2.34397 4.49926 2.3436C5.43732 2.34315 6.19785 2.08242 7.74298 1.23164C9.32042 0.363066 10.1448 0.0753216 11.2336 0.0132193C12.4431 -0.0557674 13.9172 0.388988 15.286 1.23593L15.5977 1.42876L15.6076 6.82845L15.6175 12.2281L15.0998 11.8817C13.8516 11.0464 12.7221 10.6111 11.6719 10.5604C10.6597 10.5116 9.87446 10.7628 8.28936 11.6426C6.72786 12.5094 5.85489 12.8153 4.76639 12.8774C3.83761 12.9304 2.97961 12.7359 1.60353 12.1605C1.56465 12.1442 1.5547 12.9412 1.5547 16.07V20H0.968759H0.382822L0.382812 10ZM5.17176 11.6608C5.8831 11.5454 6.48959 11.2968 7.74298 10.6066C9.33193 9.73173 10.1547 9.44645 11.2599 9.38722C12.1808 9.33787 13.0222 9.53045 14.3965 10.1051C14.4354 10.1214 14.4453 9.30487 14.4453 6.09792V2.07028L13.9639 1.83624C13.1025 1.41744 12.1905 1.17169 11.499 1.17204C10.5736 1.17248 9.76644 1.44777 8.29384 2.26515C6.7275 3.13456 5.8559 3.44027 4.76639 3.50241C3.8376 3.55539 2.9796 3.36091 1.60352 2.7855C1.56464 2.76924 1.55469 3.58579 1.55469 6.79283V10.8206L2.0332 11.0514C3.21779 11.6228 4.21364 11.8162 5.17176 11.6608Z" fill="#024896"/>
</svg>
