<svg width="24" height="24" viewBox="0 0 24 24" fill="none" xmlns="http://www.w3.org/2000/svg">
<path d="M9.92183 0.000129722C7.06476 -0.000741519 4.33945 0.00274976 3.51693 0.0113925C3.23437 0.0143547 2.87279 0.0794804 2.50513 0.2094C2.13748 0.339319 1.76301 0.532698 1.43872 0.780822C0.785985 1.28026 0.277064 2.0035 0.103817 2.72445C0.0456298 2.9666 0.0408178 2.99919 0.0175107 3.28121C0.0208394 3.24098 0.00682137 4.23865 0.00452434 4.99648C0.00152651 6.00691 0.00012622 7.37715 9.42113e-06 8.89255C-0.000379907 13.4388 0.0113291 19.2981 0.0292732 20.6598C0.0370208 21.2469 0.226497 22.1146 1.16842 22.9717C2.21952 23.928 3.45581 23.9858 3.61541 23.9889C4.3323 24.0031 6.68132 24.0037 7.5163 23.9907C7.73535 23.987 7.79821 23.9868 7.8873 23.9318L7.89152 23.9294L7.89574 23.927C7.94732 23.8968 8.00506 23.8551 8.0394 23.8245C8.34417 23.5532 8.30656 23.1284 8.00328 22.8998C7.89177 22.8158 7.81601 22.7926 7.76678 22.7866C7.61422 22.7678 7.11333 22.7607 5.77117 22.7515C5.03622 22.7465 4.36434 22.7393 3.97695 22.7331C1.97756 22.7008 1.46171 21.2143 1.45321 20.6343C1.42596 18.7776 1.42606 5.27072 1.45321 3.36056C1.46436 2.57489 1.94279 2.07493 2.25002 1.83628L2.25233 1.83453L2.25507 1.83246C2.61709 1.5599 3.08422 1.29773 3.64771 1.27094C4.24015 1.23147 5.85009 1.23519 10.5624 1.23519C15.2629 1.23519 16.9184 1.23694 17.459 1.26239C17.9734 1.28669 18.3914 1.47814 18.6932 1.6793C19.2537 2.05293 19.4965 2.50438 19.5976 2.77379C19.6523 2.91948 19.6928 3.09249 19.7006 3.29858C19.7139 3.64466 19.7194 4.47097 19.728 6.38911C19.7359 8.13389 19.7458 9.16617 19.7573 9.51945C19.7584 9.55776 19.7599 9.58387 19.7611 9.60418C19.8464 9.84013 20.0228 9.97076 20.236 10.0266C20.4559 10.0842 20.7021 10.0478 20.8793 9.92069C20.9945 9.83806 21.0754 9.70786 21.1127 9.6212L21.1188 9.60661L21.1268 9.59229C21.1275 9.59072 21.1321 9.58528 21.1321 9.50377V6.35985V3.68928C21.1321 2.79978 20.9095 2.00825 20.2801 1.29884C19.9416 0.917429 19.558 0.651917 19.2235 0.471783C18.5752 0.133368 17.9123 -0.0294231 17.178 0.0140832L17.1635 0.0147851H17.1494C15.7739 0.00619468 12.7789 0.00100096 9.92183 0.000129722ZM4.60426 5.55565C4.28232 5.55565 4.03468 5.77732 4.03468 6.06549V6.21281C4.03468 6.50098 4.28232 6.72264 4.60426 6.72264H15.9971C16.319 6.72264 16.5666 6.50098 16.5666 6.21281V6.06549C16.5666 5.77732 16.319 5.55565 15.9971 5.55565H4.60426ZM4.60426 9.6474C4.28213 9.6474 4.03468 9.8687 4.03468 10.1569V10.3046C4.03468 10.5928 4.28213 10.8141 4.60426 10.8141H15.9971C16.3192 10.8141 16.5666 10.5928 16.5666 10.3046V10.1569C16.5666 9.8687 16.3192 9.6474 15.9971 9.6474H4.60426ZM21.321 13.1045C21.1516 13.102 20.9162 13.112 20.7306 13.1297C20.6069 13.1415 20.4958 13.1612 20.4774 13.1662C19.9956 13.2971 19.8769 13.3432 19.547 13.5296C19.4561 13.581 19.4725 13.5712 19.2938 13.7052C19.294 13.7051 18.2986 14.5842 18.298 14.5847C17.7164 15.1017 16.9534 15.782 16.1922 16.4622C16.1906 16.4636 13.1349 19.2072 13.1353 19.2067C13.0637 19.2868 13.0285 19.3501 12.9372 19.6324C12.9191 19.6882 12.883 19.7915 12.8581 19.8594C12.8352 19.9219 12.8044 20.0136 12.8019 20.0224C12.7887 20.068 12.7434 20.2011 12.7171 20.2756C12.6842 20.3689 12.645 20.4858 12.6414 20.4975C12.6286 20.5399 12.5826 20.6734 12.5566 20.747C12.5238 20.8401 12.4851 20.956 12.481 20.9695C12.4712 21.0017 12.3734 21.293 12.3407 21.3892C12.2759 21.5796 12.2084 21.7838 12.2069 21.7891C12.1939 21.8317 12.1475 21.9647 12.1217 22.0378C12.089 22.1303 12.0506 22.246 12.0464 22.2598C12.0336 22.3022 11.9876 22.4356 11.9616 22.5092C11.9289 22.6018 11.8894 22.722 11.8879 22.7274C11.8754 22.7703 11.8385 22.8778 11.8183 22.933C11.6979 23.2608 11.7003 23.4909 11.7608 23.6381C11.8213 23.7853 11.9342 23.892 12.2007 23.9856C12.1886 23.9813 12.3886 23.9934 12.4041 23.9934C12.4663 23.9938 12.5299 23.9916 12.5795 23.9879C12.629 23.9842 12.6712 23.9748 12.652 23.9801C12.7433 23.9548 12.9718 23.8965 13.0897 23.8682C13.1617 23.8509 13.5629 23.7509 13.6668 23.7242C13.7152 23.7118 13.7923 23.6932 13.842 23.6823C13.869 23.6764 13.9661 23.6528 14.028 23.636C14.095 23.618 14.2006 23.5913 14.2542 23.5796C14.2898 23.5718 14.3637 23.5544 14.3994 23.5452C14.4465 23.5331 14.5838 23.4986 14.7006 23.4696C14.8199 23.4401 14.9745 23.4016 15.0427 23.3845C15.1107 23.3675 15.2065 23.3439 15.2519 23.3328C15.2909 23.3234 15.3583 23.306 15.3918 23.2971C15.434 23.2859 15.5059 23.2682 15.5495 23.2576C15.5908 23.2476 15.6844 23.2243 15.7526 23.2072C15.9799 23.1503 16.3121 23.0684 16.4776 23.0289C16.7027 22.9751 16.8203 22.957 16.905 22.9261C16.9896 22.8952 17.089 22.8426 17.303 22.6767C17.7312 22.345 18.5519 21.5993 20.3785 19.9608C22.3567 18.1865 23.111 17.5102 23.4156 17.1923C23.6187 16.9804 23.6115 16.9608 23.7094 16.774C23.7565 16.6843 23.8039 16.5948 23.8122 16.579C23.804 16.5944 23.8616 16.4338 23.8654 16.4224C24.1451 15.5849 23.9884 14.7954 23.4004 14.0892C23.3327 14.0078 23.1881 13.8716 23.0354 13.7499C22.8826 13.6281 22.7143 13.5144 22.613 13.4615C22.566 13.437 22.3962 13.3614 22.2807 13.3146C22.273 13.3115 22.2655 13.3083 22.2583 13.3054C22.2517 13.3028 22.2457 13.3002 22.2397 13.2978C22.2342 13.2957 22.2287 13.2938 22.2236 13.2918C22.2191 13.2901 22.2149 13.2886 22.2108 13.287C22.2071 13.2856 22.2038 13.2841 22.2005 13.2829C22.1999 13.2827 22.1996 13.2824 22.199 13.2822C22.2116 13.2846 22.2272 13.2873 22.2792 13.2873C22.2112 13.2873 22.1333 13.2697 22.0614 13.2343C22.0081 13.2246 21.9564 13.2103 21.9089 13.188C21.9753 13.219 21.947 13.2029 21.9317 13.1989C21.9299 13.1984 21.9283 13.198 21.9264 13.1975C21.9242 13.197 21.9216 13.1963 21.9192 13.1958C21.9165 13.1951 21.9138 13.1944 21.9108 13.1937C21.8809 13.1866 21.8386 13.1776 21.7986 13.1702C21.7052 13.1529 21.5718 13.1285 21.5013 13.1155C21.4948 13.1142 21.4146 13.1059 21.321 13.1045ZM22.1031 13.2386C22.1073 13.2395 22.1112 13.2406 22.1153 13.2413C22.1206 13.2423 22.1261 13.2429 22.1316 13.2436C22.1377 13.2445 22.144 13.2452 22.1506 13.2457C22.158 13.2462 22.1659 13.2464 22.1743 13.2464C22.15 13.2464 22.1269 13.2413 22.1031 13.2386ZM4.60426 13.7392C4.28213 13.7392 4.03468 13.9605 4.03468 14.2487V14.3964C4.03468 14.6846 4.28213 14.9059 4.60426 14.9059H11.6965C12.0187 14.9059 12.2657 14.6847 12.2657 14.3964V14.2487C12.2657 13.9604 12.0187 13.7392 11.6965 13.7392H4.60426ZM21.1127 14.3633C21.7222 14.3461 22.2781 14.6912 22.5194 15.2669C22.7157 15.7354 22.4804 16.2936 22.0689 16.6619C22.0646 16.6658 21.84 16.92 21.5047 16.7695C21.3294 16.6909 20.9569 16.3378 20.6587 16.0721L19.6367 15.1621L20.1002 14.7636C20.3949 14.5107 20.75 14.3736 21.1127 14.3633ZM18.6574 16.226C18.7222 16.231 18.7693 16.2486 18.7832 16.2539C18.8868 16.2939 19.0297 16.4203 19.0569 16.4428C19.3778 16.707 20.1914 17.4193 20.3873 17.6261C20.3941 17.6333 20.5067 17.737 20.5067 17.8857C20.5067 18.0743 20.2958 18.2304 20.2884 18.2374C19.7295 18.7623 17.0448 21.1504 16.489 21.6161C16.4797 21.624 16.3474 21.7546 16.2058 21.7846C16.1912 21.7877 16.0932 21.811 16.0217 21.8292C15.8245 21.8793 15.7291 21.9021 15.6309 21.9237C15.5893 21.9329 15.3326 21.996 15.0602 22.065C15.0228 22.0745 14.8767 22.1108 14.772 22.1368C14.6546 22.1659 14.504 22.2042 14.4451 22.2195C14.3588 22.2421 14.1792 22.2862 14.0474 22.2808C14.021 22.2797 13.854 22.2751 13.7386 22.1396C13.6867 22.0786 13.6581 22.0097 13.6581 21.9254C13.6581 21.8465 13.6969 21.7479 13.7044 21.7281C13.8786 21.1889 14.0793 20.6363 14.2565 20.1116L14.3219 19.91L16.3552 18.0951C17.266 17.2821 18.1519 16.4953 18.3224 16.3485C18.3249 16.3463 18.3812 16.2974 18.4239 16.2746C18.5097 16.2287 18.5925 16.221 18.6574 16.226ZM3.64066 18.3564L3.24602 19.2377C3.26554 19.5582 3.37614 19.8485 3.54006 20.0768C3.57962 20.1319 3.62497 20.1786 3.66742 20.2295C3.71798 20.2659 3.76606 20.3096 3.81911 20.3386C4.03668 20.4573 4.26434 20.394 4.46463 20.245C4.51615 20.2067 4.56299 20.1577 4.61221 20.1141C4.82114 19.9065 4.98726 19.6121 5.2202 19.4495C5.24777 19.4303 5.27788 19.4188 5.30671 19.4035C5.32834 19.4008 5.35025 19.3902 5.3716 19.3955C5.45987 19.4179 5.45786 19.6482 5.47019 19.7304C5.47708 19.7764 5.48683 19.8216 5.49514 19.8672C5.54996 20.0862 5.63514 20.2551 5.80326 20.327C5.8464 20.3455 5.89125 20.3613 5.93645 20.3615C5.99549 20.3619 6.05349 20.3395 6.11198 20.3285C6.49534 20.1822 6.80504 19.8347 7.1113 19.5031C7.18533 19.4334 7.273 19.3116 7.37446 19.3315C7.44998 19.3463 7.48883 19.4699 7.52112 19.5458C7.60956 19.7651 7.69425 19.9976 7.85379 20.137C7.8843 20.1636 7.91815 20.1822 7.95036 20.2048C8.04275 20.2386 8.07681 20.2633 8.1753 20.2486C8.41506 20.2129 8.68656 19.9823 8.90009 19.8375C9.22581 19.6266 9.5807 19.4387 9.94648 19.5481C10.0029 19.5649 10.0565 19.5961 10.1116 19.6202C10.4064 19.8037 10.6359 20.1237 10.8784 20.4088C10.9502 20.4969 11.0309 20.5652 11.1155 20.6269L11.4338 19.6966C11.353 19.6428 11.2762 19.5817 11.207 19.5019C10.9521 19.2177 10.7171 18.8871 10.4108 18.7063C10.2494 18.637 10.2092 18.6044 10.0352 18.5946C9.72024 18.5768 9.42554 18.7313 9.14444 18.9083C9.07377 18.9547 9.00283 19.0005 8.93238 19.0476C8.76805 19.1573 8.55222 19.337 8.35928 19.311C8.32775 19.3067 8.29766 19.2906 8.26684 19.2804C8.23903 19.2608 8.20955 19.2449 8.18334 19.2215C8.03259 19.0865 7.96115 18.8502 7.87311 18.6461C7.82836 18.5549 7.80686 18.4903 7.73841 18.4285C7.59988 18.3034 7.45374 18.4266 7.34428 18.5501C7.04932 18.8818 6.75165 19.2334 6.38107 19.3933C6.33096 19.4056 6.28159 19.4282 6.23069 19.4304C6.02158 19.4395 5.91882 19.2296 5.86855 18.9839C5.83822 18.7971 5.82421 18.4989 5.65387 18.4441C5.62566 18.435 5.59594 18.4457 5.56696 18.4464C5.53327 18.4617 5.49819 18.4722 5.46586 18.4923C5.22426 18.6421 5.05334 18.9431 4.85031 19.1651C4.63426 19.3789 4.4075 19.5724 4.13156 19.4281C4.08383 19.4031 4.04115 19.3629 3.99596 19.3302C3.95701 19.2814 3.91514 19.2368 3.87917 19.1839C3.72473 18.9569 3.63328 18.668 3.64066 18.3564Z" fill="#01C7FB"/>
</svg>
