<svg width="20" height="20" viewBox="0 0 20 20" fill="none" xmlns="http://www.w3.org/2000/svg">
<path d="M2.38281 10V0H2.96875H3.55469V0.717824V1.43564L3.81836 1.57316C4.74448 2.05617 5.74595 2.34397 6.49926 2.3436C7.43732 2.34315 8.19785 2.08242 9.74298 1.23164C11.3204 0.363066 12.1448 0.0753216 13.2336 0.0132193C14.4431 -0.0557674 15.9172 0.388988 17.286 1.23593L17.5977 1.42876L17.6076 6.82845L17.6175 12.2281L17.0998 11.8817C15.8516 11.0464 14.7221 10.6111 13.6719 10.5604C12.6597 10.5116 11.8745 10.7628 10.2894 11.6426C8.72786 12.5094 7.85489 12.8153 6.76639 12.8774C5.83761 12.9304 4.97961 12.7359 3.60353 12.1605C3.56465 12.1442 3.5547 12.9412 3.5547 16.07V20H2.96876H2.38282L2.38281 10ZM7.17176 11.6608C7.8831 11.5454 8.48959 11.2968 9.74298 10.6066C11.3319 9.73173 12.1547 9.44645 13.2599 9.38722C14.1808 9.33787 15.0222 9.53045 16.3965 10.1051C16.4354 10.1214 16.4453 9.30487 16.4453 6.09792V2.07028L15.9639 1.83624C15.1025 1.41744 14.1905 1.17169 13.499 1.17204C12.5736 1.17248 11.7664 1.44777 10.2938 2.26515C8.7275 3.13456 7.8559 3.44027 6.76639 3.50241C5.8376 3.55539 4.9796 3.36091 3.60352 2.7855C3.56464 2.76924 3.55469 3.58579 3.55469 6.79283V10.8206L4.0332 11.0514C5.21779 11.6228 6.21364 11.8162 7.17176 11.6608Z" fill="#024896"/>
</svg>
