<svg width="24" height="24" viewBox="0 0 24 24" fill="none" xmlns="http://www.w3.org/2000/svg">
<g clip-path="url(#clip0_10412_11559)">
<path d="M9.08848 0.000141047C6.47148 -0.000765033 3.97481 0.00266401 3.2214 0.0113066C2.96259 0.0142758 2.63167 0.0794907 2.295 0.209404C1.95833 0.339317 1.61526 0.532685 1.3182 0.780825C0.720309 1.28026 0.254152 2.00349 0.0954629 2.72443C0.0420993 2.96687 0.0373662 2.99943 0.016039 3.28117C0.019088 3.24092 0.00640813 4.23861 0.00433978 4.99642C0.00159385 6.00685 9.75065e-05 7.37707 8.35319e-06 8.89246C-0.00034826 13.4386 0.0107452 19.2979 0.027194 20.6595C0.0342906 21.2466 0.207866 22.1147 1.07061 22.9717C2.03341 23.928 3.16543 23.9858 3.31161 23.9889C3.96825 24.0031 6.12022 24.0037 6.88508 23.9907C7.08569 23.987 7.14284 23.9871 7.22463 23.9319L7.2284 23.9295L7.23228 23.9271C7.27927 23.8971 7.33276 23.8549 7.36422 23.8243C7.64338 23.553 7.60895 23.1282 7.33115 22.8996C7.22901 22.8156 7.15961 22.7924 7.11452 22.7864C6.97478 22.7675 6.51598 22.7604 5.2866 22.7512C4.61341 22.7462 3.99797 22.7391 3.64314 22.7329C1.81175 22.7006 1.33926 21.2141 1.33146 20.6341C1.30651 18.7775 1.3066 5.27072 1.33146 3.36058C1.34168 2.57492 1.77992 2.07497 2.06133 1.83631L2.06354 1.83461L2.06603 1.83254C2.39776 1.55989 2.82572 1.29816 3.34166 1.27138C3.88432 1.23192 5.35898 1.23563 9.67535 1.23563C13.9808 1.23563 15.4967 1.23692 15.992 1.26247C16.4631 1.28676 16.8463 1.47817 17.1228 1.67937C17.6364 2.05312 17.8585 2.50523 17.9509 2.77422C18.0007 2.91911 18.0384 3.09206 18.0457 3.29864C18.0578 3.64471 18.0628 4.47102 18.0707 6.38913C18.0779 8.13389 18.087 9.16615 18.0975 9.51943C18.0988 9.55913 18.1 9.58693 18.101 9.60722C18.1484 9.74828 18.2253 9.8485 18.3222 9.92103C18.4247 9.99776 18.551 10.0426 18.6802 10.0514C18.8093 10.0602 18.9388 10.0327 19.0483 9.97136C19.1577 9.91004 19.2501 9.81796 19.3144 9.67223L19.3568 9.57598V6.35978V3.68925C19.3568 2.79976 19.1529 2.00825 18.5764 1.29885C18.2665 0.917527 17.9148 0.651981 17.6083 0.471793C17.0144 0.133382 16.4073 -0.0294057 15.7346 0.0140977L15.7215 0.0148122H15.7086C14.4486 0.00622537 11.7055 0.00104713 9.08848 0.000141047ZM5.59259 2.96665C5.28813 2.96665 4.99942 3.03831 4.72645 3.18167C4.45349 3.31953 4.23037 3.54281 4.05714 3.8516C3.88391 4.15488 3.79728 4.5381 3.79728 5.00129C3.79728 5.65747 3.95216 6.13173 4.26187 6.42398C4.57683 6.71072 4.98361 6.85404 5.4823 6.85404C5.73426 6.85404 5.96791 6.81267 6.18314 6.72995C6.39836 6.64724 6.60571 6.53976 6.80519 6.40742L6.49016 5.80367C6.32743 5.90292 6.17523 5.98012 6.0335 6.03526C5.89701 6.0904 5.7474 6.11792 5.58467 6.11792C4.981 6.11792 4.67919 5.74301 4.67919 4.99309C4.67919 4.57402 4.76054 4.25137 4.92327 4.0253C5.086 3.79922 5.30913 3.68619 5.59259 3.68619C5.72383 3.68619 5.85241 3.70549 5.97839 3.74409C6.10438 3.77717 6.25399 3.83784 6.42722 3.92607L6.73434 3.29747C6.52436 3.18167 6.3301 3.09893 6.15162 3.04931C5.97314 2.99417 5.78682 2.96665 5.59259 2.96665ZM6.95474 3.08244V3.13206L8.34056 6.74652H9.15952L10.5138 3.13206V3.08244H9.5926L8.9311 5.25773C8.8891 5.41213 8.85507 5.53891 8.82882 5.63817C8.80257 5.73191 8.78413 5.80366 8.77363 5.85328C8.73689 5.67132 8.68182 5.47278 8.60833 5.25773L7.87607 3.08244H6.95474ZM4.21737 9.6473C3.92231 9.6473 3.69603 9.86843 3.69603 10.1568V10.3045C3.69603 10.5929 3.92248 10.8143 4.21737 10.8143H14.6532C14.9481 10.8143 15.1746 10.5929 15.1746 10.3045V10.1568C15.1746 9.86843 14.9483 9.6473 14.6532 9.6473H4.21737ZM17.3469 11.24C15.3658 11.24 13.7776 12.7798 13.7776 14.6872C13.7776 15.6774 14.22 16.6198 14.9923 17.2749L15.7195 17.8919L14.8113 18.2054C13.5696 18.6339 12.5368 19.4428 11.8159 20.4311C11.1077 21.4019 10.7082 22.542 10.6939 23.639H24C23.9863 22.542 23.5875 21.4015 22.8796 20.4304C22.1591 19.442 21.1264 18.6326 19.885 18.2037L18.9778 17.8909L19.7038 17.2736C20.4752 16.6184 20.9154 15.6774 20.9158 14.6872C20.9158 12.7799 19.3281 11.24 17.3469 11.24ZM17.3469 12.2773C18.6976 12.2773 19.7846 13.3606 19.7847 14.6872C19.7847 16.0258 18.6837 17.0252 17.3469 17.0252C16.0103 17.0251 14.9091 16.0258 14.9091 14.6872C14.9092 13.3606 15.9964 12.2774 17.3469 12.2773ZM4.21737 13.7391C3.92231 13.7391 3.69603 13.9601 3.69603 14.2485V14.3962C3.69603 14.6846 3.92231 14.9057 4.21737 14.9057H10.7142C11.0092 14.9057 11.2354 14.6846 11.2354 14.3962V14.2485C11.2354 13.9601 11.0092 13.7391 10.7142 13.7391H4.21737ZM17.3327 18.7554H17.3386C18.7698 18.7362 19.9716 19.2726 20.8385 19.9015C21.6182 20.4672 22.2669 21.2208 22.4342 21.7713L22.6487 22.4764L11.9981 22.4601L12.2697 21.7267C12.6513 20.6979 14.539 18.764 17.3327 18.7554Z" fill="#01C7FB"/>
</g>
<defs>
<clipPath id="clip0_10412_11559">
<rect width="24" height="24" fill="white"/>
</clipPath>
</defs>
</svg>
