<svg width="13" height="12" viewBox="0 0 13 12" fill="none" xmlns="http://www.w3.org/2000/svg">
<g clip-path="url(#clip0_10456_10561)">
<path d="M10 1H9.5V0.5C9.5 0.367392 9.44732 0.240215 9.35355 0.146447C9.25979 0.0526784 9.13261 0 9 0C8.86739 0 8.74021 0.0526784 8.64645 0.146447C8.55268 0.240215 8.5 0.367392 8.5 0.5V1H4.5V0.5C4.5 0.367392 4.44732 0.240215 4.35355 0.146447C4.25979 0.0526784 4.13261 0 4 0C3.86739 0 3.74021 0.0526784 3.64645 0.146447C3.55268 0.240215 3.5 0.367392 3.5 0.5V1H3C2.3372 1.00079 1.70178 1.26444 1.23311 1.73311C0.764441 2.20178 0.500794 2.8372 0.5 3.5L0.5 9.5C0.500794 10.1628 0.764441 10.7982 1.23311 11.2669C1.70178 11.7356 2.3372 11.9992 3 12H10C10.6628 11.9992 11.2982 11.7356 11.7669 11.2669C12.2356 10.7982 12.4992 10.1628 12.5 9.5V3.5C12.4992 2.8372 12.2356 2.20178 11.7669 1.73311C11.2982 1.26444 10.6628 1.00079 10 1ZM1.5 3.5C1.5 3.10218 1.65804 2.72064 1.93934 2.43934C2.22064 2.15804 2.60218 2 3 2H10C10.3978 2 10.7794 2.15804 11.0607 2.43934C11.342 2.72064 11.5 3.10218 11.5 3.5V4H1.5V3.5ZM10 11H3C2.60218 11 2.22064 10.842 1.93934 10.5607C1.65804 10.2794 1.5 9.89782 1.5 9.5V5H11.5V9.5C11.5 9.89782 11.342 10.2794 11.0607 10.5607C10.7794 10.842 10.3978 11 10 11Z" fill="#01C7FB"/>
<path d="M6.5 8.25C6.91421 8.25 7.25 7.91421 7.25 7.5C7.25 7.08579 6.91421 6.75 6.5 6.75C6.08579 6.75 5.75 7.08579 5.75 7.5C5.75 7.91421 6.08579 8.25 6.5 8.25Z" fill="#01C7FB"/>
<path d="M4 8.25C4.41421 8.25 4.75 7.91421 4.75 7.5C4.75 7.08579 4.41421 6.75 4 6.75C3.58579 6.75 3.25 7.08579 3.25 7.5C3.25 7.91421 3.58579 8.25 4 8.25Z" fill="#01C7FB"/>
<path d="M9 8.25C9.41421 8.25 9.75 7.91421 9.75 7.5C9.75 7.08579 9.41421 6.75 9 6.75C8.58579 6.75 8.25 7.08579 8.25 7.5C8.25 7.91421 8.58579 8.25 9 8.25Z" fill="#01C7FB"/>
</g>
<defs>
<clipPath id="clip0_10456_10561">
<rect width="12" height="12" fill="white" transform="translate(0.5)"/>
</clipPath>
</defs>
</svg>
