<svg width="17" height="10" viewBox="0 0 17 10" fill="none" xmlns="http://www.w3.org/2000/svg">
<path d="M3.36165 0.421687C4.73365 0.421687 5.68565 2.08769 5.68565 3.52969C5.68565 4.55169 5.46165 4.91569 4.92965 4.91569C4.27165 4.91569 3.64165 4.78969 2.89965 4.78969C2.45165 4.78969 1.89165 4.91569 1.65365 5.06969C1.37365 5.95169 1.86365 8.10769 2.08765 9.54969L1.16365 9.99769L1.05165 9.92769C0.799649 8.23369 0.519648 6.83369 0.519648 6.04969C0.519648 4.92969 1.24765 3.69769 3.15165 3.69769C3.55765 3.69769 4.11765 3.75369 4.69165 3.83769C4.66365 2.67569 3.99165 1.51369 3.17965 1.51369C2.74565 1.51369 2.26965 1.93369 2.08765 2.96969L1.48565 3.06769L1.34565 2.99769C1.44365 1.27569 2.40965 0.421687 3.36165 0.421687ZM12.7101 3.83769C13.1861 3.83769 13.2981 3.99169 13.2981 4.21569C13.2981 4.46769 13.1581 4.92969 12.4441 4.92969H11.4081C10.9461 6.25969 9.64415 7.33769 7.32015 7.40769L6.73215 6.59569L6.80215 6.48369C8.53815 6.41369 9.82615 5.86769 10.3861 4.92969H9.96615C8.23015 4.92969 7.41815 4.24369 7.41815 3.13769C7.41815 1.83569 8.34215 0.421687 9.47615 0.421687C10.7501 0.421687 11.6041 1.97569 11.6041 3.76769V3.83769H12.7101ZM10.1061 3.83769H10.7081V3.75369C10.7081 2.54969 10.0641 1.51369 9.43415 1.51369C8.91615 1.51369 8.31415 2.10169 8.31415 3.01169C8.31415 3.55769 8.80415 3.83769 10.1061 3.83769ZM12.4541 4.92969L12.7341 3.83769H13.1401C13.8261 3.83769 14.3441 3.79569 14.6101 3.66969C14.9041 2.95569 14.5121 1.97569 14.0361 0.939687L14.9181 0.225687H15.0441C15.4781 1.21969 15.7721 2.15769 15.7721 2.74569C15.7721 3.34769 15.5201 4.04769 15.0861 4.45369C14.7081 4.81769 14.1761 4.92969 12.8741 4.92969H12.4541ZM13.7141 7.85569L12.5801 7.05769L13.2661 6.00769L14.4001 6.77769L13.7141 7.85569ZM15.7161 7.85569L14.5821 7.05769L15.2961 6.00769L16.4301 6.77769L15.7161 7.85569Z" fill="#5fcafa"/>
</svg>
