<svg xmlns="http://www.w3.org/2000/svg" version="1.1" xmlns:xlink="http://www.w3.org/1999/xlink" width="512" height="512" x="0" y="0" viewBox="0 0 512 512" style="enable-background:new 0 0 512 512" xml:space="preserve" class=""><g><path d="M243.2 299.5v-33.7c0-19.2 15.6-34.8 34.9-34.8h13.6c-19.6-15.7-42.4-27-66.8-33.2-25.4 9.9-53.6 9.9-79.1 0-70 17.4-126 80.2-145.3 161.4-1.4 5.9-.1 12.2 3.7 17 61.7 80.3 169 110.5 263.6 74.1V332.9c-14.6-4.6-24.5-18.1-24.6-33.4z" fill="#214B92" opacity="1" data-original="#000000" class=""></path><circle cx="185.5" cy="96.4" r="96.4" fill="#214B92" opacity="1" data-original="#000000" class=""></circle><path d="M432.9 228.3c0-10.9-8.8-19.7-19.7-19.6h-58.7c-10.9 0-19.7 8.8-19.7 19.6v2.7h98.1zM280.2 480.3c0 17.5 14.2 31.7 31.7 31.7h146c17.5 0 31.7-14.2 31.7-31.7V334.4H280.2zM423.9 370c0-4.4 3.6-8 8-8s8 3.6 8 8v99.6c0 4.4-3.6 8-8 8s-8-3.6-8-8zm-47.1 0c0-4.4 3.6-8 8-8s8 3.6 8 8v99.6c0 4.4-3.6 8-8 8s-8-3.6-8-8zm-47 0c0-4.4 3.6-8 8-8s8 3.6 8 8v99.6c0 4.4-3.6 8-8 8s-8-3.6-8-8zM278.1 243.4h211.4c12.4 0 22.5 10.1 22.5 22.5v33.7c0 12.4-10.1 22.5-22.5 22.5H278.1c-12.4 0-22.5-10.1-22.5-22.5v-33.7c.1-12.5 10.1-22.5 22.5-22.5z" fill="#214B92" opacity="1" data-original="#000000" class=""></path></g></svg>