<svg width="20" height="21" viewBox="0 0 20 21" fill="none" xmlns="http://www.w3.org/2000/svg">
<path d="M10 7.28125C8.22421 7.28125 6.78137 8.72409 6.78137 10.4999C6.78137 12.2757 8.22421 13.7185 10 13.7185C11.7758 13.7185 13.2187 12.2757 13.2187 10.4999C13.2187 8.72409 11.7758 7.28125 10 7.28125ZM9.75584 9.5454C9.35629 9.5454 9.02333 9.87836 9.02333 10.2779H7.95784C7.98004 9.27903 8.77915 8.47992 9.75584 8.47992V9.5454Z" fill="#0D0D0D" fill-opacity="0.35"/>
<path d="M19.7669 9.83386C18.6792 8.47981 14.7947 4.0625 10 4.0625C5.20533 4.0625 1.32075 8.47981 0.233074 9.83386C-0.0776914 10.2112 -0.0776914 10.7662 0.233074 11.1657C1.32075 12.5198 5.20533 16.9371 10 16.9371C14.7947 16.9371 18.6792 12.5198 19.7669 11.1657C20.0777 10.7884 20.0777 10.2334 19.7669 9.83386ZM10 15.1613C7.42508 15.1613 5.33851 13.0747 5.33851 10.4998C5.33851 7.92488 7.42508 5.8383 10 5.8383C12.5749 5.8383 14.6615 7.92488 14.6615 10.4998C14.6615 13.0747 12.5749 15.1613 10 15.1613Z" fill="#0D0D0D" fill-opacity="0.35"/>
</svg>
