<svg width="24" height="24" viewBox="0 0 24 24" fill="none" xmlns="http://www.w3.org/2000/svg">
<g clip-path="url(#clip0_10804_1338)">
<path d="M11.897 0.0102414C11.0344 0.0208986 10.3799 0.16522 10.0998 0.239232C9.85784 0.303175 9.62277 0.375434 9.39336 0.456261C7.58968 1.09173 6.19763 2.23339 5.17559 3.92007C4.99266 4.22202 4.83362 4.53785 4.6915 4.88238C4.6122 5.07478 4.53814 5.27578 4.46914 5.48818C4.14655 6.50407 4.00672 7.5105 4.06722 8.57119V8.5824L4.04754 11.69C4.03772 13.2793 4.03084 14.3446 4.02032 15.0651C4.02032 15.2347 4.04343 15.3177 4.07989 15.3897C4.11565 15.4617 4.17452 15.5321 4.26784 15.6368L4.52084 15.9198L4.32193 16.0729C4.0121 16.3114 3.81249 16.7696 3.717 17.1127C3.6398 17.338 3.65105 17.5691 3.65315 17.8028L3.68619 21.9778C3.68619 22.236 3.67918 22.5357 3.67147 22.8561C3.63921 23.9703 3.67151 24.0013 4.47171 24.0018C5.02954 24.0136 6.06462 24.0022 7.37588 24.006C8.71631 24.0095 10.3559 24.0109 12.1115 24.0088C15.4202 24.0039 17.3562 24.0151 18.4999 24.0018C18.7473 23.999 18.9934 24.0023 19.2093 24.0046C19.4561 24.0067 19.6975 23.9983 19.9462 23.993C20.0163 23.9916 20.0795 23.9657 20.135 23.9419C20.3638 23.8439 20.3407 23.6359 20.3469 23.4212C20.3539 23.1038 20.3364 22.7758 20.3399 22.456C20.3399 22.1884 20.3322 21.9094 20.3329 21.6397V20.5183C20.3329 18.4511 20.3259 17.747 20.286 17.4201C20.2782 17.3597 20.2501 17.1761 20.1829 16.9614C20.1156 16.7467 20.0079 16.5026 19.8592 16.3172C19.7737 16.2107 19.7743 16.2115 19.6957 16.1226L19.4783 15.8766L19.7069 15.6422C19.7878 15.5591 19.7861 15.5604 19.8649 15.4552C19.9041 15.4026 19.9422 15.345 19.9648 15.3012C19.9873 15.2574 19.9886 15.2257 19.9879 15.2541C19.9879 15.1431 19.9951 15.0282 19.9677 11.7331C19.9607 10.5008 19.9544 9.59156 19.9474 8.9077C19.9305 7.62684 19.9222 6.3994 19.4648 5.27687V5.27056V5.26333C18.6745 3.08615 17.1024 1.44143 14.9564 0.57525C13.8335 0.122021 12.7634 -0.000238087 11.9009 0.0103911L11.897 0.0102414ZM12.1893 1.04359C13.1069 1.06546 14.1366 1.27718 15.2097 1.83273C16.5429 2.52291 17.5329 3.55807 18.2159 4.95666C18.8481 6.25138 18.8911 6.44503 18.9249 10.6038V10.9542C18.9376 12.6436 18.9326 14.5103 18.9052 14.8683C18.9052 14.8788 18.9053 15.0555 18.7734 15.1694C18.7377 15.2001 18.6947 15.2199 18.6502 15.2353H16.9191L15.1726 15.1951C14.5806 15.1426 14.4062 14.7135 14.3698 14.5081C14.3593 14.45 14.3579 14.3543 14.3593 14.4161C14.3593 14.3112 14.4041 14.2264 14.4146 14.2092C14.4983 14.0696 14.7961 13.8077 14.935 13.6915C15.6299 13.1098 16.3077 12.2987 16.6365 11.6751C17.0505 10.8898 17.2083 10.2371 17.2216 9.23091L17.2293 8.60264C16.6491 8.23251 16.593 8.1696 15.8862 7.54177C15.0718 6.81831 13.7142 5.45428 13.03 4.63957C12.664 4.20377 12.4399 3.96173 12.3049 3.85623C12.2376 3.8035 12.1979 3.78443 12.1618 3.7729C12.1253 3.76133 12.0849 3.7555 12.0082 3.7555C11.9329 3.7555 11.8892 3.76181 11.8516 3.77324C11.8137 3.78502 11.7757 3.80374 11.7123 3.85223C11.5856 3.94919 11.3793 4.17091 11.052 4.56745C10.6147 5.09728 9.81626 5.9294 9.10202 6.62797C8.35846 7.35515 7.80979 7.88149 7.36219 8.15335C7.20015 8.25175 7.06523 8.3262 6.95136 8.38433C6.8593 8.43137 6.79538 8.46301 6.62613 8.53453C6.65488 9.35347 6.73151 10.0172 6.95616 10.6672C7.38231 11.9002 8.50447 13.3011 9.26857 13.8643L9.27764 13.8706L9.28534 13.8778C9.43321 14.0009 9.59222 14.136 9.62307 14.3528C9.642 14.4877 9.59707 14.6157 9.57463 14.6804C9.54308 14.7706 9.43184 15.0627 9.19633 15.138C9.13603 15.1573 9.09294 15.1569 9.0801 15.1579C8.87811 15.1735 7.99939 15.1927 7.21994 15.2032L5.34574 15.2287C5.17634 15.2301 5.0625 15.1622 5.0674 14.9457V11.3865C5.0674 9.70463 5.09262 7.64487 5.13399 7.252C5.38051 4.90901 6.81496 2.83178 8.88359 1.78783C9.46308 1.49537 10.668 1.00774 12.1883 1.04397L12.1893 1.04359ZM12.0129 5.10014L13.0011 6.17153C14.0249 7.28105 14.9576 8.16811 15.547 8.60706L16.2503 9.13097L16.1872 9.68135C16.0289 11.0742 15.1964 12.3018 13.8256 13.2437C13.5471 13.435 13.4236 13.5511 13.3735 13.635C13.3238 13.7189 13.3022 13.8213 13.3022 14.0886C13.3022 14.8405 13.6074 15.4937 14.1192 15.9238C14.519 16.2983 15.0066 16.3572 15.5271 16.3593L15.8145 16.36C15.7752 16.6393 15.7303 16.9883 15.479 17.2959C15.4131 17.3764 14.8983 17.9731 14.0255 18.0644C13.5779 18.121 13.0773 18.0776 12.7024 18.0894H12.6953L12.1118 18.0929C11.3476 18.0971 10.6257 18.0936 10.1813 18.0777C10.0508 18.0728 9.91773 18.0663 9.78347 18.0454C9.32948 17.9752 8.55752 17.5497 8.36716 16.9157C8.31317 16.7361 8.23324 16.4656 8.22833 16.3291L8.68092 16.3312C9.01508 16.3317 9.28728 16.292 9.52448 16.1722C9.78488 16.0406 10.0008 15.8544 10.178 15.6356C10.4483 15.3016 10.6251 14.8784 10.682 14.3823C10.7163 13.9997 10.7107 13.8127 10.6749 13.7185C10.6406 13.6241 10.5594 13.5302 10.296 13.3297C10.2399 13.2873 10.1846 13.2474 10.1351 13.2145C9.53755 12.8179 7.60768 11.0425 7.68964 9.18798L7.69666 9.03544L7.81186 8.93617C7.97551 8.79517 8.53184 8.38582 9.22098 7.82203C9.93986 7.23389 10.7455 6.46709 11.4093 5.75126L12.0129 5.10014ZM17.572 16.2245C18.2924 16.2245 18.8135 16.5181 19.1264 17.1281C19.2886 17.4446 19.2971 17.6351 19.2971 20.0952V22.9952H12.0046H4.70896L4.73275 20.0028L4.75176 17.5919V17.5763C4.82713 16.7838 5.52288 16.3073 6.2278 16.2434C6.48905 16.2197 7.00758 16.182 7.12887 16.5796C7.17024 16.7157 7.27312 17.0898 7.51368 17.5169C8.12647 18.6592 9.19972 19.0848 10.4196 19.109C10.7799 19.1153 11.2759 19.1169 11.9718 19.117C12.6693 19.117 13.1663 19.1165 13.5276 19.1121C14.7708 19.1621 15.8565 18.609 16.5007 17.5211C16.6525 17.2521 16.7817 16.9454 16.8898 16.5954C16.9848 16.2879 17.2628 16.2251 17.5708 16.2251L17.572 16.2245Z" fill="#01C7FB"/>
</g>
<defs>
<clipPath id="clip0_10804_1338">
<rect width="24" height="24" fill="white" transform="translate(0 0.00976562)"/>
</clipPath>
</defs>
</svg>
