<svg width="41" height="50" viewBox="0 0 41 50" fill="none" xmlns="http://www.w3.org/2000/svg">
<path d="M22.4614 43.8824H2.92298C0.843076 38.8524 -0.0480964 33.4103 0.318813 27.9796C0.685723 22.5489 2.30082 17.2762 5.03841 12.5717L9.84648 4.30831C10.6108 2.99486 11.7064 1.90493 13.0238 1.14738C14.3412 0.389831 15.8343 -0.00883077 17.354 -0.00878906C18.7085 -0.00878907 20.0075 0.529232 20.9653 1.48693C21.9231 2.44464 22.4613 3.74358 22.4614 5.09806V43.8824Z" fill="#1A1E21"/>
<path d="M39.5279 43.882H22.464L17.7083 6.63715C17.2586 3.1141 20.0048 -0.00853254 23.5587 -0.00976459C25.9082 -0.0103806 27.9947 0.263134 29.9906 1.60422C39.831 8.2154 44.7068 20.2864 42.9764 31.8973C42.9567 32.0279 42.9364 32.1591 42.9154 32.289C42.2735 36.2735 41.0698 40.1581 39.5279 43.882Z" fill="#1A1E21"/>
<path d="M35.0425 44.5319H9.499C5.53796 30.3442 6.73366 19.5009 11.883 11.2222H32.6591C36.8055 22.5108 37.716 33.6208 35.0425 44.5319Z" fill="#111618"/>
<path d="M40.8214 42.8225V49.531H2.92352V42.8225C2.92352 41.6274 3.19457 40.5001 3.68739 39.4898C3.97077 38.9046 4.32806 38.3686 4.74696 37.882C5.45999 37.0445 6.34669 36.3721 7.34554 35.9115C8.3444 35.4509 9.4315 35.2131 10.5314 35.2146H12.9955C13.0941 35.2146 13.1927 35.2084 13.2912 35.2023C15.0099 35.0791 16.4822 33.884 16.9689 32.2022C17.0305 31.9928 17.0859 31.7772 17.1414 31.5616C17.4063 30.5082 17.5788 29.424 17.6712 28.2966C17.7574 27.3048 17.782 26.2822 17.7574 25.235C17.7389 24.3787 17.6835 23.5101 17.5972 22.623H26.1477C25.9259 24.8839 25.9074 27.0584 26.1538 29.1036C26.2778 30.1515 26.4859 31.1877 26.776 32.2022C27.2935 33.9764 28.9013 35.2146 30.7494 35.2146H33.2135C36.3059 35.2146 38.9733 37.0627 40.1561 39.7177C40.5873 40.6664 40.8214 41.7137 40.8214 42.8225Z" fill="#F7BF9C"/>
<path d="M26.1533 29.1027C25.0321 29.7864 23.7816 30.1684 22.4694 30.1684C20.7014 30.1684 19.0567 29.4846 17.6706 28.2957C17.7568 27.3039 17.7815 26.2813 17.7568 25.234C17.7384 24.3777 17.6829 23.5091 17.5967 22.6221H26.1471C25.9253 24.8829 25.9069 27.0575 26.1533 29.1027Z" fill="#DD8267"/>
<path d="M32.2955 19.1919C31.8828 19.9743 31.3345 20.6704 30.8787 21.1016C30.7801 21.194 30.6877 21.2741 30.6015 21.3418L30.5398 21.385C30.4782 21.4343 30.4166 21.4651 30.3674 21.4959H30.3612C30.3211 21.5192 30.2774 21.5359 30.2318 21.5451C29.8068 21.5821 29.3756 21.4959 28.9751 21.2802L26.9792 20.196L26.6589 20.0236L26.2831 19.8203C25.9717 19.6506 25.7046 19.4101 25.5033 19.1183C25.302 18.8264 25.1721 18.4912 25.1241 18.1399C25.0762 17.7886 25.1115 17.4309 25.2272 17.0957C25.3429 16.7605 25.5358 16.4573 25.7903 16.2104C26.0552 15.9455 26.3755 15.7607 26.7205 15.6621C26.8375 15.6251 26.9607 15.6005 27.0839 15.5943C27.238 15.5635 27.3981 15.5635 27.5583 15.5759C27.8601 15.6005 28.162 15.6867 28.4454 15.8407L28.5624 15.9085L28.624 15.7853C28.661 15.7237 28.6979 15.6621 28.7349 15.6067C28.7719 15.5512 28.8088 15.5019 28.8519 15.4526C28.8951 15.3972 28.9382 15.3479 28.9875 15.2986C29.0306 15.2494 29.0799 15.2062 29.1292 15.157C29.4792 14.8589 29.9107 14.6731 30.3678 14.6236C30.8248 14.5742 31.2862 14.6634 31.6918 14.8797C33.4413 15.8038 33.1087 17.6703 32.2955 19.1919Z" fill="#E28569"/>
<path d="M30.8789 21.1014C30.7803 21.1938 30.6879 21.2739 30.6017 21.3416L30.5401 21.3847C30.4785 21.434 30.4169 21.4648 30.3676 21.4956H30.3614C30.3213 21.519 30.2776 21.5357 30.2321 21.5449C29.807 21.5819 29.3758 21.4956 28.9754 21.28L26.9795 20.1958L26.6591 20.0233C26.1848 18.5942 25.6735 17.0295 25.7104 16.9679C25.7351 16.9371 25.7597 16.6352 25.7905 16.2101C26.0554 15.9453 26.3758 15.7604 26.7207 15.6619C26.8378 15.6249 26.961 15.6003 27.0842 15.5941C27.2382 15.5633 27.3984 15.5633 27.5585 15.5756C27.8604 15.6003 28.1622 15.6865 28.4456 15.8405L28.5626 15.9083L28.6242 15.7851C28.6612 15.7235 28.6982 15.6619 28.7351 15.6064C28.7721 15.551 28.8091 15.5017 28.8522 15.4524C28.8953 15.397 28.9384 15.3477 28.9877 15.2984C29.0308 15.2491 29.0801 15.206 29.1294 15.1567C29.154 15.2183 29.1787 15.2984 29.2156 15.397C29.2218 15.4155 29.228 15.4339 29.2341 15.4586C29.2464 15.4894 29.2588 15.5264 29.2711 15.5633C29.2896 15.6188 29.308 15.6804 29.3327 15.7481C29.4004 15.9268 29.4682 16.1362 29.5421 16.3641C29.5791 16.4689 29.616 16.5736 29.653 16.6845C29.7762 17.0787 29.9179 17.5161 30.0596 17.972C30.0719 18.0151 30.0904 18.0582 30.1027 18.1013C30.1212 18.1629 30.1397 18.2245 30.1582 18.2923C30.423 19.1794 30.6756 20.1034 30.8358 20.8796C30.8481 20.9535 30.8666 21.0275 30.8789 21.1014Z" fill="#D37C62"/>
<path d="M32.2957 19.1919C31.883 19.9743 31.3347 20.6704 30.8789 21.1016C30.7803 21.194 30.6879 21.2741 30.6017 21.3418L30.5401 21.385C30.4785 21.4343 30.4168 21.4651 30.3676 21.4959C30.5339 21.2802 30.6941 21.077 30.8357 20.8798C31.3224 20.2022 31.6674 19.5923 31.9015 19.0502C32.5052 17.6519 32.3512 16.6909 32.0185 16.0625C31.4764 15.0338 30.0904 14.8674 29.3326 15.7483C29.3326 15.7483 29.3265 15.7545 29.3265 15.7607C29.0123 16.1303 28.7844 16.5923 28.6242 17.0174C28.3901 17.6334 28.3039 18.1632 28.3039 18.1632L27.1519 16.0625L27.3367 15.8407L27.5585 15.5759C27.8603 15.6005 28.1622 15.6867 28.4456 15.8407L28.5626 15.9085L28.6242 15.7853C28.6612 15.7237 28.6981 15.6621 28.7351 15.6067C28.7721 15.5512 28.809 15.5019 28.8521 15.4526C28.8953 15.3972 28.9384 15.3479 28.9877 15.2986C29.0308 15.2494 29.0801 15.2062 29.1294 15.157C29.4794 14.8589 29.9109 14.6731 30.368 14.6236C30.825 14.5742 31.2864 14.6634 31.692 14.8797C33.4415 15.8038 33.1089 17.6703 32.2957 19.1919Z" fill="#F08D70"/>
<path d="M30.3657 21.4938C30.4199 21.4661 30.4778 21.4316 30.5401 21.3872L30.6041 21.3398C30.6904 21.2745 30.7828 21.195 30.8795 21.1032C30.8653 21.0288 30.851 20.9545 30.8364 20.8802C30.6922 21.0774 30.5357 21.2831 30.3657 21.4938ZM29.3326 15.7481C29.3326 15.7481 29.3265 15.7543 29.3265 15.7604C29.0123 16.1301 28.7844 16.5921 28.6242 17.0171C28.3901 17.6332 28.3039 18.1629 28.3039 18.1629L27.1519 16.0623L27.3367 15.8405L27.5585 15.5756C27.8603 15.6003 28.1622 15.6865 28.4456 15.8405L28.5626 15.9083L28.6242 15.7851C28.6612 15.7235 28.6981 15.6619 28.7351 15.6064C28.7721 15.551 28.809 15.5017 28.8521 15.4524C28.8953 15.397 28.9384 15.3477 28.9877 15.2984C29.0308 15.2491 29.0801 15.206 29.1294 15.1567C29.1693 15.2556 29.2042 15.3563 29.2341 15.4586C29.2464 15.4894 29.2587 15.5264 29.271 15.5633C29.2895 15.6188 29.308 15.6804 29.3326 15.7481Z" fill="#E6876A"/>
<path d="M30.9712 16.044C31.1729 16.1423 31.3433 16.2947 31.4634 16.4842C31.5836 16.6736 31.6489 16.8927 31.6519 17.1171C31.6496 17.1525 31.634 17.1857 31.6081 17.21C31.5823 17.2343 31.5482 17.2479 31.5127 17.248C31.4772 17.248 31.443 17.2346 31.4171 17.2104C31.3911 17.1863 31.3753 17.1531 31.3729 17.1177C31.3693 16.9461 31.3188 16.7788 31.227 16.6338C31.1351 16.4889 31.0053 16.3718 30.8517 16.2953C30.7161 16.2335 30.5673 16.2062 30.4186 16.2158L30.7347 17.1011C30.803 17.252 30.8369 17.4337 30.8277 17.6142C30.8172 17.8181 30.734 18.0066 30.5985 18.1317C30.5383 18.1873 30.4675 18.2303 30.3903 18.258C30.2713 18.3018 30.1409 18.3038 30.0207 18.2635C29.8051 18.1877 29.6615 17.9598 29.6942 17.7442C29.6969 17.7261 29.7032 17.7087 29.7127 17.693C29.7222 17.6773 29.7347 17.6636 29.7494 17.6528C29.7642 17.6419 29.7809 17.634 29.7987 17.6296C29.8165 17.6252 29.835 17.6244 29.8531 17.6272C29.8713 17.6299 29.8887 17.6362 29.9043 17.6457C29.92 17.6551 29.9337 17.6676 29.9446 17.6824C29.9554 17.6971 29.9633 17.7139 29.9677 17.7317C29.9721 17.7495 29.9729 17.768 29.9702 17.7861C29.9572 17.8705 30.0219 17.9684 30.1119 17.9998C30.1635 18.0148 30.2182 18.016 30.2705 18.0031C30.3227 17.9902 30.3706 17.9638 30.4094 17.9265C30.4965 17.8399 30.5466 17.7229 30.5492 17.6C30.5564 17.4643 30.5315 17.3288 30.4765 17.2046L30.142 16.2713C30.0496 16.3045 29.9616 16.3514 29.8852 16.413C29.6554 16.6002 29.5248 16.891 29.4176 17.1768C29.2451 17.6376 29.1157 18.1169 29.0338 18.6017C29.0308 18.6197 29.0242 18.637 29.0145 18.6525C29.0048 18.668 28.9921 18.6815 28.9772 18.6921C28.9623 18.7027 28.9455 18.7103 28.9277 18.7144C28.9098 18.7185 28.8914 18.719 28.8733 18.716C28.8553 18.7129 28.838 18.7064 28.8225 18.6967C28.807 18.687 28.7936 18.6743 28.783 18.6594C28.7724 18.6445 28.7648 18.6277 28.7607 18.6098C28.7566 18.592 28.756 18.5735 28.7591 18.5555C28.8441 18.0528 28.9778 17.5563 29.1564 17.0789C29.2778 16.7567 29.4275 16.4259 29.709 16.1967C29.842 16.0889 29.9979 16.0132 30.1624 15.9713C30.1685 15.9682 30.1728 15.9633 30.1796 15.9608C30.2004 15.9538 30.2226 15.9519 30.2443 15.9553C30.4883 15.9109 30.7451 15.9374 30.9712 16.044Z" fill="#DD7156"/>
<path d="M13.1317 21.1026C11.7906 19.8398 9.6684 16.2791 12.3167 14.8795C12.7222 14.6627 13.1836 14.5732 13.6408 14.6226C14.098 14.6721 14.5296 14.8582 14.8794 15.1567C15.0789 15.3292 15.2521 15.5411 15.3851 15.7875L15.4486 15.9052L15.5662 15.8418C15.8496 15.689 16.1484 15.6003 16.4496 15.575C16.773 15.5466 17.0988 15.5884 17.4047 15.6973C17.7105 15.8063 17.9893 15.9799 18.2219 16.2064C18.4772 16.4533 18.6707 16.7567 18.7868 17.0923C18.9028 17.4279 18.9382 17.7861 18.8899 18.1379C18.8417 18.4897 18.7112 18.8251 18.5091 19.1171C18.307 19.409 18.0389 19.6492 17.7266 19.8182L17.349 20.0239L17.0311 20.197L15.0371 21.28C14.6532 21.4898 14.2163 21.5825 13.7804 21.5468C13.7339 21.5343 13.6891 21.5165 13.6467 21.4938H13.6455C13.5019 21.4211 13.3239 21.2856 13.1317 21.1026Z" fill="#E28569"/>
<path d="M14.8795 15.1582C15.0791 15.3301 15.2522 15.542 15.3853 15.7884L15.4487 15.9061L15.5664 15.8426C15.8497 15.6898 16.1485 15.6017 16.4497 15.5759C16.7732 15.5475 17.0989 15.5892 17.4048 15.6982C17.7107 15.8071 17.9894 15.9808 18.2221 16.2073C18.251 16.6342 18.2787 16.9404 18.2991 16.9693C18.3391 17.0272 17.8266 18.5969 17.3491 20.0248L17.0313 20.1979L15.0372 21.2815C14.6533 21.4911 14.2164 21.5836 13.7805 21.5476C13.7341 21.5352 13.6892 21.5174 13.6468 21.4946H13.6456C13.5021 21.4219 13.324 21.2858 13.1318 21.1035C13.5088 19.1001 14.6269 15.8697 14.8795 15.1582Z" fill="#D37C62"/>
<path d="M13.1317 21.1026C11.7906 19.8398 9.6684 16.2791 12.3167 14.8795C12.7222 14.6627 13.1836 14.5732 13.6408 14.6226C14.098 14.6721 14.5296 14.8582 14.8794 15.1567C14.981 15.2454 15.0753 15.3434 15.1615 15.4518C15.2467 15.5564 15.3217 15.6688 15.3857 15.7875L15.4486 15.9052L15.5662 15.8418C15.8496 15.689 16.1484 15.6003 16.4496 15.575L16.8574 16.0592L15.7061 18.1599C15.7061 18.1599 15.4615 16.6771 14.6859 15.7574L14.6761 15.745C13.9227 14.8641 12.5323 15.036 11.9908 16.0629C11.5313 16.9321 11.4173 18.4469 13.1748 20.8796C13.319 21.0761 13.4754 21.2825 13.6455 21.4932C13.5848 21.4618 13.5265 21.4259 13.4711 21.386C13.4502 21.3718 13.428 21.3552 13.4064 21.3392C13.3107 21.2652 13.219 21.1863 13.1317 21.1026Z" fill="#F08D70"/>
<path d="M13.6456 21.494C13.5849 21.4628 13.5267 21.4272 13.4713 21.3874C13.3524 21.3004 13.2392 21.2057 13.1324 21.1041C13.1454 21.0302 13.1602 20.9562 13.1756 20.8805C13.3191 21.0776 13.4756 21.2833 13.6456 21.494ZM14.8795 15.1582C14.9811 15.2463 15.0754 15.3442 15.1616 15.4527C15.2468 15.5572 15.3219 15.6697 15.3859 15.7884L15.4487 15.9061L15.5664 15.8426C15.8497 15.6898 16.1485 15.6011 16.4497 15.5759L16.8576 16.0601L15.7056 18.1607C15.7056 18.1607 15.4616 16.6779 14.6861 15.7582L14.6762 15.7459C14.7643 15.4853 14.8351 15.2826 14.8795 15.1582Z" fill="#E6876A"/>
<path d="M13.04 16.0439C12.8382 16.1422 12.6677 16.2945 12.5474 16.484C12.4271 16.6735 12.3618 16.8926 12.3586 17.117C12.3609 17.1524 12.3766 17.1856 12.4024 17.2099C12.4283 17.2342 12.4624 17.2478 12.4979 17.2479C12.5334 17.248 12.5676 17.2346 12.5935 17.2104C12.6195 17.1862 12.6353 17.153 12.6377 17.1176C12.6383 16.7788 12.8533 16.4406 13.1595 16.2952C13.2925 16.2324 13.4428 16.2078 13.5925 16.2158L13.2759 17.101C13.2081 17.2519 13.1743 17.4337 13.1835 17.6141C13.1934 17.8181 13.2771 18.0066 13.4127 18.1316C13.4743 18.1883 13.5457 18.2302 13.6209 18.2579C13.7416 18.301 13.8728 18.3047 13.9905 18.2634C14.2061 18.1877 14.3496 17.9597 14.317 17.7441C14.3142 17.726 14.3079 17.7086 14.2985 17.6929C14.289 17.6772 14.2765 17.6636 14.2618 17.6527C14.247 17.6418 14.2302 17.634 14.2125 17.6296C14.1947 17.6252 14.1762 17.6243 14.1581 17.6271C14.1399 17.6298 14.1225 17.6361 14.1068 17.6456C14.0912 17.6551 14.0775 17.6676 14.0666 17.6823C14.0557 17.6971 14.0479 17.7138 14.0435 17.7316C14.0391 17.7494 14.0383 17.7679 14.041 17.786C14.0533 17.8704 13.9886 17.9684 13.8987 17.9998C13.8471 18.0147 13.7925 18.0157 13.7404 18.0029C13.6883 17.99 13.6405 17.9636 13.6018 17.9265C13.5147 17.8398 13.4646 17.7228 13.4619 17.6C13.4552 17.4632 13.4804 17.3265 13.5346 17.2045L13.8685 16.2712C13.9615 16.3045 14.0496 16.3513 14.1254 16.4129C14.3552 16.6002 14.4858 16.8909 14.5936 17.1768C14.7661 17.6376 14.8954 18.1168 14.9774 18.6016C14.9804 18.6197 14.987 18.6369 14.9967 18.6524C15.0064 18.668 15.019 18.6814 15.0339 18.692C15.0488 18.7026 15.0657 18.7102 15.0835 18.7143C15.1013 18.7184 15.1198 18.7189 15.1378 18.7159C15.1559 18.7129 15.1731 18.7063 15.1887 18.6966C15.2042 18.6869 15.2176 18.6742 15.2282 18.6593C15.2388 18.6444 15.2464 18.6276 15.2505 18.6098C15.2546 18.5919 15.2551 18.5735 15.2521 18.5554C15.1665 18.0517 15.0333 17.5573 14.8542 17.0788C14.7334 16.7566 14.5831 16.4258 14.3022 16.1967C14.1692 16.0895 14.0145 16.0125 13.8488 15.9712C13.8426 15.9681 13.8383 15.9632 13.8316 15.9607C13.8106 15.9536 13.7882 15.9517 13.7663 15.9552C13.5207 15.9079 13.2665 15.9387 13.0393 16.0433L13.04 16.0439Z" fill="#DD7156"/>
<path d="M30.9528 16.2905C30.9528 17.0482 30.8973 17.7936 30.7926 18.5144C30.0226 24.0894 26.3819 28.303 22.0081 28.303C17.0676 28.303 13.0634 22.9251 13.0634 16.2905C13.0634 15.5636 13.1127 14.849 13.2113 14.1591C13.8211 9.52655 16.4208 5.81808 19.7781 4.66612C20.1723 4.52443 20.5789 4.42587 20.9917 4.36426C21.2997 4.31498 21.6077 4.29034 21.928 4.28418H22.0081C26.5174 4.28418 30.2505 8.76884 30.8604 14.5903C30.922 15.1447 30.9528 15.7114 30.9528 16.2905Z" fill="#F7BF9C"/>
<path d="M22.1472 21.494H21.5199C21.4238 21.494 21.3287 21.4738 21.2409 21.4348C21.153 21.3958 21.0743 21.3388 21.0098 21.2675C20.9454 21.1962 20.8965 21.1122 20.8666 21.0209C20.8366 20.9295 20.826 20.8329 20.8357 20.7373L21.1493 17.6245C21.1663 17.4549 21.2457 17.2975 21.3721 17.1831C21.4986 17.0687 21.663 17.0054 21.8335 17.0054C22.0041 17.0054 22.1685 17.0687 22.2949 17.1831C22.4214 17.2975 22.5008 17.4549 22.5178 17.6245L22.8314 20.7373C22.841 20.8329 22.8304 20.9294 22.8004 21.0207C22.7703 21.1119 22.7215 21.1959 22.657 21.2671C22.5926 21.3384 22.5139 21.3953 22.4261 21.4343C22.3382 21.4732 22.2432 21.494 22.1472 21.494Z" fill="#EFA87B"/>
<path d="M19.778 4.66554C19.778 4.66554 14.2769 12.295 13.6455 19.0078L12.3586 9.92947L14.9811 3.84068L18.6076 2.50391L19.778 4.66554Z" fill="#DD675B"/>
<path d="M30.9528 16.2905C30.9528 17.0482 31.2608 17.4394 31.1561 18.1601C23.855 15.1583 20.696 6.59427 19.7781 4.66612C19.6611 4.41971 19.5995 4.28418 19.5995 4.28418H22.0081C26.5174 4.28418 30.2506 8.76884 30.8604 14.5903C30.922 15.1447 30.9528 15.7114 30.9528 16.2905Z" fill="#DD675B"/>
<path d="M19.9393 14.2467C19.3551 13.8944 18.6859 13.7083 18.0037 13.7083C17.3216 13.7083 16.6524 13.8944 16.0682 14.2467C15.9191 14.336 15.7257 14.3169 15.6283 14.1875C15.5316 14.0588 15.5889 13.8524 15.7657 13.7458C16.4411 13.3387 17.2148 13.1235 18.0034 13.1235C18.7921 13.1235 19.5657 13.3387 20.2411 13.7458C20.4179 13.8524 20.4752 14.0588 20.3785 14.1875C20.2818 14.3169 20.0884 14.336 19.9393 14.2467ZM24.0716 14.2467C24.6558 13.8944 25.325 13.7083 26.0071 13.7083C26.6893 13.7083 27.3585 13.8944 27.9427 14.2467C28.0918 14.336 28.2852 14.3169 28.3819 14.1875C28.4792 14.0588 28.4213 13.8524 28.2445 13.7458C27.5691 13.3387 26.7955 13.1235 26.0068 13.1235C25.2182 13.1235 24.4445 13.3387 23.7691 13.7458C23.5923 13.8524 23.535 14.0588 23.6317 14.1875C23.7291 14.3169 23.9225 14.336 24.0716 14.2467Z" fill="#414042"/>
<path d="M21.8663 24.8627C21.0482 24.8627 20.2671 24.5578 19.725 24.0262C19.616 23.9196 19.5371 23.9941 19.6566 23.8974C19.7761 23.8007 20.0429 23.8789 20.1519 23.9855C20.5899 24.4149 21.2028 24.341 21.8663 24.341C22.5242 24.341 23.1365 24.4155 23.5813 23.9855C23.691 23.8802 23.9977 23.8247 24.116 23.9214C24.2349 24.0194 24.116 23.9214 24.007 24.0274C23.4587 24.5584 22.6776 24.8627 21.8663 24.8627Z" fill="#CF7960"/>
<path d="M25.5795 16.9869C25.9639 16.9869 26.2756 16.6753 26.2756 16.2908C26.2756 15.9064 25.9639 15.5947 25.5795 15.5947C25.195 15.5947 24.8834 15.9064 24.8834 16.2908C24.8834 16.6753 25.195 16.9869 25.5795 16.9869Z" fill="#414042"/>
<path d="M18.4306 16.9869C18.8151 16.9869 19.1267 16.6753 19.1267 16.2908C19.1267 15.9064 18.8151 15.5947 18.4306 15.5947C18.0462 15.5947 17.7345 15.9064 17.7345 16.2908C17.7345 16.6753 18.0462 16.9869 18.4306 16.9869Z" fill="#414042"/>
<path d="M21.0827 1.6991C21.0827 5.28806 13.9541 7.89569 13.6454 19.0082L9.43304 8.50494L12.3592 4.67758L18.3013 0.0820312L21.0827 1.6991Z" fill="#1A1E21"/>
<path d="M19.5968 4.28291C19.5968 4.28291 26.8413 17.0741 32.9596 19.0084C40.8213 21.4946 40.464 12.9091 39.4722 13.2535L32.4021 6.61333C32.4021 6.61333 29.4859 5.55746 29.03 5.16136C28.5741 4.76526 23.5849 1.59766 23.5849 1.59766L21.0827 1.6993L19.5968 4.28291Z" fill="#1A1E21"/>
<path d="M40.8214 42.8225V49.531H2.92352V42.8225C2.92352 41.6274 3.19457 40.5 3.68739 39.4898C3.97077 38.9045 4.32806 38.3686 4.74696 37.8819C5.45999 37.0444 6.34669 36.372 7.34554 35.9114C8.3444 35.4508 9.4315 35.213 10.5314 35.2146H12.9955C13.0941 35.2146 13.1927 35.2084 13.2912 35.2022C15.0099 35.079 16.4822 33.8839 16.9689 32.2022C17.0305 31.9927 17.0859 31.7771 17.1414 31.5615C20.2942 33.3234 23.4482 33.3221 26.6035 31.5615C26.659 31.7771 26.7144 31.9866 26.776 32.2022C27.2935 33.9763 28.9013 35.2146 30.7494 35.2146H33.2135C36.3059 35.2146 38.9733 37.0626 40.1561 39.7177C40.5873 40.6664 40.8214 41.7136 40.8214 42.8225Z" fill="#E54353"/>
</svg>
