<svg width="24" height="24" viewBox="0 0 24 24" fill="none" xmlns="http://www.w3.org/2000/svg">
<path d="M15.9999 20H7.99988C7.20423 20 6.44117 19.6839 5.87856 19.1213C5.31595 18.5587 4.99988 17.7957 4.99988 17V7C4.99988 6.73478 4.89452 6.48043 4.70698 6.29289C4.51945 6.10536 4.26509 6 3.99988 6C3.73466 6 3.48031 6.10536 3.29277 6.29289C3.10523 6.48043 2.99988 6.73478 2.99988 7V17C2.99988 18.3261 3.52666 19.5979 4.46434 20.5355C5.40203 21.4732 6.6738 22 7.99988 22H15.9999C16.2651 22 16.5194 21.8946 16.707 21.7071C16.8945 21.5196 16.9999 21.2652 16.9999 21C16.9999 20.7348 16.8945 20.4804 16.707 20.2929C16.5194 20.1054 16.2651 20 15.9999 20ZM20.9999 8.94C20.9895 8.84814 20.9694 8.75763 20.9399 8.67V8.58C20.8918 8.47718 20.8277 8.38267 20.7499 8.3L14.7499 2.3C14.6672 2.22222 14.5727 2.15808 14.4699 2.11H14.3799L14.0599 2H9.99988C9.20423 2 8.44117 2.31607 7.87856 2.87868C7.31595 3.44129 6.99988 4.20435 6.99988 5V15C6.99988 15.7957 7.31595 16.5587 7.87856 17.1213C8.44117 17.6839 9.20423 18 9.99988 18H17.9999C18.7955 18 19.5586 17.6839 20.1212 17.1213C20.6838 16.5587 20.9999 15.7957 20.9999 15V9C20.9999 9 20.9999 9 20.9999 8.94ZM14.9999 5.41L17.5899 8H15.9999C15.7347 8 15.4803 7.89464 15.2928 7.70711C15.1052 7.51957 14.9999 7.26522 14.9999 7V5.41ZM18.9999 15C18.9999 15.2652 18.8945 15.5196 18.707 15.7071C18.5194 15.8946 18.2651 16 17.9999 16H9.99988C9.73466 16 9.48031 15.8946 9.29277 15.7071C9.10524 15.5196 8.99988 15.2652 8.99988 15V5C8.99988 4.73478 9.10524 4.48043 9.29277 4.29289C9.48031 4.10536 9.73466 4 9.99988 4H12.9999V7C12.9999 7.79565 13.3159 8.55871 13.8786 9.12132C14.4412 9.68393 15.2042 10 15.9999 10H18.9999V15Z" fill="#01C7FB"/>
</svg>
