<svg width="12" height="13" viewBox="0 0 12 13" fill="none" xmlns="http://www.w3.org/2000/svg">
<path d="M6 8.5C5.60444 8.5 5.21776 8.3827 4.88886 8.16294C4.55996 7.94318 4.30362 7.63082 4.15224 7.26537C4.00087 6.89992 3.96126 6.49778 4.03843 6.10982C4.1156 5.72186 4.30608 5.36549 4.58579 5.08579C4.86549 4.80608 5.22186 4.6156 5.60982 4.53843C5.99778 4.46126 6.39991 4.50087 6.76537 4.65224C7.13082 4.80362 7.44318 5.05996 7.66294 5.38886C7.8827 5.71776 8 6.10444 8 6.5C8 7.03043 7.78929 7.53914 7.41421 7.91421C7.03914 8.28929 6.53043 8.5 6 8.5ZM6 5.5C5.80222 5.5 5.60888 5.55865 5.44443 5.66853C5.27998 5.77841 5.15181 5.93459 5.07612 6.11732C5.00043 6.30004 4.98063 6.50111 5.01921 6.69509C5.0578 6.88907 5.15304 7.06726 5.29289 7.20711C5.43275 7.34696 5.61093 7.4422 5.80491 7.48079C5.99889 7.51937 6.19996 7.49957 6.38268 7.42388C6.56541 7.34819 6.72159 7.22002 6.83147 7.05557C6.94135 6.89112 7 6.69778 7 6.5C7 6.23478 6.89464 5.98043 6.70711 5.79289C6.51957 5.60536 6.26522 5.5 6 5.5ZM9 12C9 11.2044 8.68393 10.4413 8.12132 9.87868C7.55871 9.31607 6.79565 9 6 9C5.20435 9 4.44129 9.31607 3.87868 9.87868C3.31607 10.4413 3 11.2044 3 12C3 12.1326 3.05268 12.2598 3.14645 12.3536C3.24021 12.4473 3.36739 12.5 3.5 12.5C3.63261 12.5 3.75979 12.4473 3.85355 12.3536C3.94732 12.2598 4 12.1326 4 12C4 11.4696 4.21071 10.9609 4.58579 10.5858C4.96086 10.2107 5.46957 10 6 10C6.53043 10 7.03914 10.2107 7.41421 10.5858C7.78929 10.9609 8 11.4696 8 12C8 12.1326 8.05268 12.2598 8.14645 12.3536C8.24021 12.4473 8.36739 12.5 8.5 12.5C8.63261 12.5 8.75979 12.4473 8.85355 12.3536C8.94732 12.2598 9 12.1326 9 12ZM9 4.5C8.60444 4.5 8.21776 4.3827 7.88886 4.16294C7.55996 3.94318 7.30362 3.63082 7.15224 3.26537C7.00087 2.89992 6.96126 2.49778 7.03843 2.10982C7.1156 1.72186 7.30608 1.36549 7.58579 1.08579C7.86549 0.806082 8.22186 0.615601 8.60982 0.53843C8.99778 0.46126 9.39991 0.500867 9.76537 0.652242C10.1308 0.803617 10.4432 1.05996 10.6629 1.38886C10.8827 1.71776 11 2.10444 11 2.5C11 3.03043 10.7893 3.53914 10.4142 3.91421C10.0391 4.28929 9.53043 4.5 9 4.5ZM9 1.5C8.80222 1.5 8.60888 1.55865 8.44443 1.66853C8.27998 1.77841 8.15181 1.93459 8.07612 2.11732C8.00043 2.30004 7.98063 2.50111 8.01921 2.69509C8.0578 2.88907 8.15304 3.06726 8.29289 3.20711C8.43275 3.34696 8.61093 3.4422 8.80491 3.48079C8.99889 3.51937 9.19996 3.49957 9.38268 3.42388C9.56541 3.34819 9.72159 3.22002 9.83147 3.05557C9.94135 2.89112 10 2.69778 10 2.5C10 2.23478 9.89464 1.98043 9.70711 1.79289C9.51957 1.60536 9.26522 1.5 9 1.5ZM12 8C11.9992 7.2046 11.6829 6.44199 11.1204 5.87956C10.558 5.31712 9.79541 5.0008 9 5C8.86739 5 8.74021 5.05268 8.64645 5.14645C8.55268 5.24022 8.5 5.36739 8.5 5.5C8.5 5.63261 8.55268 5.75979 8.64645 5.85355C8.74021 5.94732 8.86739 6 9 6C9.53043 6 10.0391 6.21071 10.4142 6.58579C10.7893 6.96086 11 7.46957 11 8C11 8.13261 11.0527 8.25979 11.1464 8.35355C11.2402 8.44732 11.3674 8.5 11.5 8.5C11.6326 8.5 11.7598 8.44732 11.8536 8.35355C11.9473 8.25979 12 8.13261 12 8ZM3 4.5C2.60444 4.5 2.21776 4.3827 1.88886 4.16294C1.55996 3.94318 1.30362 3.63082 1.15224 3.26537C1.00087 2.89992 0.961259 2.49778 1.03843 2.10982C1.1156 1.72186 1.30608 1.36549 1.58579 1.08579C1.86549 0.806082 2.22186 0.615601 2.60982 0.53843C2.99778 0.46126 3.39991 0.500867 3.76537 0.652242C4.13082 0.803617 4.44318 1.05996 4.66294 1.38886C4.8827 1.71776 5 2.10444 5 2.5C5 3.03043 4.78929 3.53914 4.41421 3.91421C4.03914 4.28929 3.53043 4.5 3 4.5ZM3 1.5C2.80222 1.5 2.60888 1.55865 2.44443 1.66853C2.27998 1.77841 2.15181 1.93459 2.07612 2.11732C2.00043 2.30004 1.98063 2.50111 2.01921 2.69509C2.0578 2.88907 2.15304 3.06726 2.29289 3.20711C2.43275 3.34696 2.61093 3.4422 2.80491 3.48079C2.99889 3.51937 3.19996 3.49957 3.38268 3.42388C3.56541 3.34819 3.72159 3.22002 3.83147 3.05557C3.94135 2.89112 4 2.69778 4 2.5C4 2.23478 3.89464 1.98043 3.70711 1.79289C3.51957 1.60536 3.26522 1.5 3 1.5ZM1 8C1 7.46957 1.21071 6.96086 1.58579 6.58579C1.96086 6.21071 2.46957 6 3 6C3.13261 6 3.25979 5.94732 3.35355 5.85355C3.44732 5.75979 3.5 5.63261 3.5 5.5C3.5 5.36739 3.44732 5.24022 3.35355 5.14645C3.25979 5.05268 3.13261 5 3 5C2.20459 5.0008 1.44199 5.31712 0.879557 5.87956C0.31712 6.44199 0.000794215 7.2046 0 8C0 8.13261 0.0526784 8.25979 0.146447 8.35355C0.240215 8.44732 0.367392 8.5 0.5 8.5C0.632608 8.5 0.759785 8.44732 0.853553 8.35355C0.947322 8.25979 1 8.13261 1 8Z" fill="#214B92"/>
</svg>
