<svg width="15" height="12" viewBox="0 0 15 12" fill="none" xmlns="http://www.w3.org/2000/svg">
<path d="M6.46677 11.9955C5.29905 11.9999 3.2329 11.9845 1.1646 11.9426C0.317892 11.9249 -0.151785 11.2961 0.0442729 10.4488C0.126143 10.0936 0.279111 9.77143 0.492404 9.48459C1.73123 7.80769 2.82355 6.02488 3.99559 4.29944C4.82075 3.0859 5.64161 1.87014 6.46462 0.652185C6.59604 0.458018 6.74901 0.290328 6.94507 0.166767C7.42767 -0.135516 7.92536 -0.0274003 8.29377 0.495527C8.97028 1.45533 9.63817 2.41955 10.2974 3.39259C11.7603 5.55491 13.2081 7.72826 14.6753 9.88837C14.9748 10.3297 15.1385 10.7643 14.8477 11.263C14.5547 11.7683 14.1238 12.0044 13.5399 11.9999C11.4824 11.9867 9.42703 11.9955 6.46893 11.9955H6.46677Z" fill="#024896"/>
</svg>
