<svg width="21" height="19" viewBox="0 0 21 19" fill="none" xmlns="http://www.w3.org/2000/svg">
<path d="M18.3633 15.6813C18.0971 15.6911 17.7625 15.5423 17.4749 15.2779C17.2655 15.086 17.0933 14.8647 16.9329 14.6317C14.9879 11.8178 13.0448 9.0039 11.1018 6.18803C10.9629 5.98634 10.8161 5.79247 10.6341 5.62799C10.2956 5.32643 10.0099 5.32447 9.6636 5.6319C9.40923 5.8571 9.21355 6.1332 9.02179 6.41126C7.66969 8.3812 6.31954 10.3531 4.96156 12.3191C4.35497 13.1983 3.73273 14.0678 3.10853 14.9333C2.66435 15.5482 2.07146 15.7968 1.31616 15.6206C0.236041 15.368 -0.184658 14.058 0.498243 13.1885C1.007 12.5423 1.43748 11.8354 1.90122 11.154C4.08886 7.94452 6.28236 4.7331 8.46217 1.51384C8.78307 1.03996 9.13333 0.632657 9.71644 0.507333C10.4033 0.360469 10.9922 0.507333 11.454 1.07521C12.4715 2.31865 13.3168 3.68351 14.2169 5.00724C16.0895 7.75654 17.9934 10.4843 19.823 13.263C20.1537 13.7642 20.3122 14.2577 19.9932 14.808C19.6606 15.3798 19.1577 15.6754 18.3594 15.6813H18.3633Z" fill="#01C7FB"/>
<path d="M10.2281 8.85742C10.292 8.8723 10.3935 8.92365 10.5084 9.08301C10.8148 9.50774 11.1192 9.93334 11.4215 10.3604L12.3229 11.6465C13.6467 13.5585 14.9687 15.4976 16.2994 17.4121V17.4111C16.4209 17.5861 16.479 17.7122 16.4977 17.8105C16.5124 17.8881 16.508 17.9711 16.4371 18.0898L16.4362 18.0908C16.3419 18.2496 16.239 18.3455 16.1315 18.4043C16.0227 18.4637 15.8796 18.5015 15.6823 18.5L12.774 18.4941C11.7371 18.4946 10.5983 18.4961 9.25647 18.4961H9.25256C8.19666 18.5 6.32466 18.4863 4.44983 18.4492C4.18609 18.4438 4.04286 18.3507 3.97229 18.2588C3.90124 18.1661 3.8461 18.0003 3.90784 17.7393L3.90881 17.7383C3.96633 17.4946 4.07289 17.2718 4.2262 17.0703L4.22717 17.0693C5.35828 15.5732 6.37605 13.9547 7.42053 12.4521L9.6637 9.21387C9.75641 9.08003 9.84813 8.98709 9.95081 8.92383C10.0788 8.84577 10.1687 8.84367 10.2281 8.85742Z" stroke="#01C7FB"/>
</svg>
