<svg width="40" height="40" viewBox="0 0 40 40" fill="none" xmlns="http://www.w3.org/2000/svg">
<rect width="40" height="40" rx="20" fill="white"/>
<g clip-path="url(#clip0_11312_10043)">
<path d="M16.4363 14.0928H23.5666V25.7387H16.4363V14.0928Z" fill="#FF5F00"/>
<path d="M17.1708 19.9167C17.1699 18.7953 17.4241 17.6884 17.9142 16.6797C18.4043 15.6711 19.1174 14.7871 19.9995 14.0948C18.9069 13.2361 17.5948 12.7022 16.2132 12.554C14.8315 12.4058 13.4361 12.6493 12.1862 13.2566C10.9364 13.864 9.88269 14.8107 9.14549 15.9886C8.40828 17.1665 8.01733 18.5281 8.01733 19.9177C8.01733 21.3073 8.40828 22.6688 9.14549 23.8467C9.88269 25.0246 10.9364 25.9714 12.1862 26.5787C13.4361 27.1861 14.8315 27.4296 16.2132 27.2814C17.5948 27.1332 18.9069 26.5992 19.9995 25.7406C19.1171 25.048 18.4038 24.1637 17.9138 23.1547C17.4237 22.1457 17.1696 21.0384 17.1708 19.9166V19.9167Z" fill="#EB001B"/>
<path d="M31.2752 24.5067V24.2681H31.3781V24.2188H31.1333V24.2681H31.23V24.5068L31.2752 24.5067ZM31.7504 24.5067V24.2188H31.6764L31.59 24.4245L31.5036 24.2188H31.4295V24.5067H31.483V24.2887L31.5633 24.4759H31.6188L31.699 24.2887V24.5067H31.7504Z" fill="#F79E1B"/>
<path d="M31.9828 19.9167C31.9827 21.3063 31.5917 22.668 30.8544 23.8459C30.117 25.0239 29.0631 25.9706 27.8132 26.5779C26.5632 27.1852 25.1676 27.4285 23.7858 27.2801C22.4041 27.1316 21.092 26.5974 19.9995 25.7385C20.8813 25.0456 21.5942 24.1614 22.0844 23.1527C22.5745 22.144 22.8293 21.0371 22.8293 19.9156C22.8293 18.7941 22.5745 17.6873 22.0844 16.6786C21.5942 15.6699 20.8813 14.7857 19.9995 14.0927C21.092 13.2338 22.4041 12.6996 23.7858 12.5512C25.1676 12.4027 26.5632 12.6461 27.8132 13.2534C29.0632 13.8606 30.117 14.8074 30.8544 15.9853C31.5917 17.1633 31.9828 18.5249 31.9828 19.9146V19.9167Z" fill="#F79E1B"/>
</g>
<defs>
<clipPath id="clip0_11312_10043">
<rect width="24" height="14.8333" fill="white" transform="translate(8 12.5)"/>
</clipPath>
</defs>
</svg>
