<svg width="24" height="24" viewBox="0 0 24 24" fill="none" xmlns="http://www.w3.org/2000/svg">
<g clip-path="url(#clip0_83_2579)">
<path d="M3.17888 23.2503C1.69305 21.7173 0.828581 19.6877 0.752693 17.5542C0.676806 15.4206 1.39489 13.3347 2.76805 11.7C4.1412 10.0653 6.07182 8.998 8.18645 8.70448C10.3011 8.41097 12.4494 8.91215 14.2159 10.1111L16.0657 11.8072C16.4899 12.3277 16.8519 12.8959 17.1442 13.5003L16.5 22.1122C16.2232 22.5172 15.9124 22.8979 15.5711 23.2503H3.17888Z" fill="#2D9739"/>
<path d="M17.1442 13.5C16.8519 12.8955 16.4899 12.3273 16.0657 11.8068L14.2159 10.1103L14.1832 10.0882C13.0933 9.36145 11.8126 8.97363 10.5026 8.97363C9.19261 8.97363 7.91193 9.36145 6.822 10.0882C5.77372 10.7913 4.89253 11.7159 4.24062 12.7967C3.58872 13.8775 3.18198 15.0883 3.04912 16.3435C2.91626 17.5987 3.06052 18.8677 3.47171 20.0611C3.8829 21.2545 4.55101 22.343 5.42887 23.25H15.5711C15.9124 22.8976 16.2232 22.5168 16.5 22.1118L17.1442 13.5Z" fill="#44BC59"/>
<path d="M16.6774 12.6604C16.491 12.3637 16.2867 12.0787 16.0658 11.8069L15.2381 11.0479C14.8398 11.3199 14.4078 11.5391 13.953 11.7L12.3135 12.2587C12.2213 12.291 12.1415 12.3513 12.0853 12.4312C12.029 12.5111 11.9992 12.6065 12 12.7042V15.2805C11.9983 15.3627 12.0188 15.4439 12.0593 15.5154C12.0998 15.587 12.1588 15.6464 12.2301 15.6873C12.3015 15.7282 12.3825 15.7492 12.4647 15.748C12.547 15.7468 12.6274 15.7236 12.6975 15.6806L14.3449 14.6509C15.2128 14.1013 15.9982 13.4311 16.6774 12.6604Z" fill="#2D9739"/>
<path d="M11.25 7.125H7.5C7.08579 7.125 6.75 7.46079 6.75 7.875C6.75 8.28921 7.08579 8.625 7.5 8.625H11.25C11.6642 8.625 12 8.28921 12 7.875C12 7.46079 11.6642 7.125 11.25 7.125Z" fill="#FFC239"/>
<path d="M9.375 20.625C11.8603 20.625 13.875 18.6103 13.875 16.125C13.875 13.6397 11.8603 11.625 9.375 11.625C6.88972 11.625 4.875 13.6397 4.875 16.125C4.875 18.6103 6.88972 20.625 9.375 20.625Z" fill="#ABE4A3"/>
<path d="M9.375 11.625C8.50262 11.6243 7.64909 11.8788 6.9195 12.357C6.35372 13.2213 6.10279 14.2541 6.2089 15.2816C6.315 16.3092 6.77168 17.2689 7.50214 17.9994C8.2326 18.7298 9.1923 19.1865 10.2199 19.2926C11.2474 19.3987 12.2802 19.1478 13.1445 18.582C13.5882 17.9032 13.8401 17.1171 13.8735 16.3069C13.9069 15.4966 13.7206 14.6925 13.3343 13.9795C12.948 13.2665 12.376 12.6712 11.679 12.2567C10.982 11.8423 10.1859 11.624 9.375 11.625Z" fill="#CDF8C8"/>
<path d="M7.5 7.125L6.4575 5.25C6.20062 4.62675 6.55087 3.75 7.125 3.75H11.625C12.1991 3.75 12.5494 4.62675 12.2925 5.25L11.25 7.125H7.5ZM9.375 15.75C9.22666 15.75 9.08165 15.706 8.95832 15.6236C8.83498 15.5412 8.73885 15.4241 8.68209 15.287C8.62532 15.15 8.61047 14.9992 8.63941 14.8537C8.66835 14.7082 8.73978 14.5746 8.84467 14.4697C8.94956 14.3648 9.08319 14.2934 9.22868 14.2644C9.37416 14.2355 9.52496 14.2503 9.66201 14.3071C9.79905 14.3639 9.91619 14.46 9.9986 14.5833C10.081 14.7067 10.125 14.8517 10.125 15H10.875C10.8738 14.6684 10.7627 14.3466 10.5591 14.0848C10.3556 13.8231 10.071 13.6361 9.75 13.5532V13.125H9V13.5532C8.64688 13.6441 8.33908 13.8608 8.13436 14.1625C7.92964 14.4642 7.84208 14.8303 7.88811 15.192C7.93414 15.5537 8.1106 15.8862 8.38436 16.127C8.65813 16.3678 9.01038 16.5005 9.375 16.5C9.52333 16.5 9.66834 16.544 9.79167 16.6264C9.91501 16.7088 10.0111 16.8259 10.0679 16.963C10.1247 17.1 10.1395 17.2508 10.1106 17.3963C10.0816 17.5418 10.0102 17.6754 9.90533 17.7803C9.80044 17.8852 9.6668 17.9566 9.52131 17.9856C9.37583 18.0145 9.22503 17.9997 9.08798 17.9429C8.95094 17.8861 8.8338 17.79 8.75139 17.6667C8.66898 17.5433 8.625 17.3983 8.625 17.25H7.875C7.87624 17.5816 7.98731 17.9034 8.19086 18.1652C8.3944 18.4269 8.67894 18.6139 9 18.6968V19.125H9.75V18.6968C10.1031 18.6059 10.4109 18.3892 10.6156 18.0875C10.8204 17.7858 10.9079 17.4197 10.8619 17.058C10.8159 16.6963 10.6394 16.3638 10.3656 16.123C10.0919 15.8822 9.73961 15.7495 9.375 15.75Z" fill="#2D9739"/>
<path d="M0.75 22.875H23.25V23.625H0.75V22.875ZM13.875 16.125H15.375V22.125H13.875V16.125ZM16.5 13.5H18V22.125H16.5V13.5ZM19.125 10.875H20.625V22.125H19.125V10.875Z" fill="#FFC239"/>
<path d="M13.7355 15.0318C13.4821 14.0211 12.8857 13.1298 12.048 12.5103C12.0185 12.5709 12.0026 12.6371 12.0011 12.7045V15.2808C11.9994 15.363 12.0199 15.4441 12.0604 15.5157C12.1009 15.5873 12.1599 15.6467 12.2312 15.6876C12.3026 15.7285 12.3836 15.7495 12.4659 15.7483C12.5481 15.7471 12.6285 15.7238 12.6986 15.6809L13.7355 15.0318Z" fill="#ABE4A3"/>
<path d="M21.75 8.625H23.25V22.125H21.75V8.625ZM11.25 17.625H12.75V22.125H11.25V17.625Z" fill="#FFC239"/>
<path d="M7.5 7.125C7.37177 7.12577 7.24594 7.15975 7.13475 7.22363C7.15859 7.40332 7.2467 7.56831 7.38279 7.68806C7.51888 7.80781 7.69373 7.87422 7.875 7.875H11.625C11.7532 7.87423 11.8791 7.84025 11.9903 7.77637C11.9664 7.59668 11.8783 7.43169 11.7422 7.31194C11.6061 7.19219 11.4313 7.12578 11.25 7.125H7.5Z" fill="#FFD55D"/>
<path d="M12.2925 5.25012C12.5494 4.62687 12.1991 3.75012 11.625 3.75012H7.73887C7.64872 3.74828 7.55946 3.76829 7.47872 3.80844C7.39798 3.84858 7.32816 3.90768 7.27521 3.98067C7.22227 4.05366 7.18777 4.13837 7.17467 4.22759C7.16158 4.3168 7.17026 4.40786 7.2 4.49299L7.203 4.50012L7.75837 5.49912C7.90616 5.76486 8.12235 5.98622 8.38452 6.14026C8.64669 6.29429 8.9453 6.37538 9.24937 6.37512H11.667L12.2925 5.25012Z" fill="#44BC59"/>
<path d="M12 17.625V21C12 21.1989 12.079 21.3897 12.2197 21.5303C12.3603 21.671 12.5511 21.75 12.75 21.75V17.625H12ZM14.625 16.125V21C14.625 21.1989 14.704 21.3897 14.8447 21.5303C14.9853 21.671 15.1761 21.75 15.375 21.75V16.125H14.625ZM17.25 13.5V21C17.25 21.1989 17.329 21.3897 17.4697 21.5303C17.6103 21.671 17.8011 21.75 18 21.75V13.5H17.25ZM19.875 10.875V21C19.875 21.1989 19.954 21.3897 20.0947 21.5303C20.2353 21.671 20.4261 21.75 20.625 21.75V10.875H19.875ZM22.5 8.625V21C22.5 21.1989 22.579 21.3897 22.7197 21.5303C22.8603 21.671 23.0511 21.75 23.25 21.75V8.625H22.5Z" fill="#FFD55D"/>
<path d="M22.3144 5.351C22.3327 5.41528 22.3335 5.48331 22.3168 5.54802C22.3 5.61273 22.2662 5.67178 22.2189 5.71905C22.1717 5.76633 22.1126 5.8001 22.0479 5.81688C21.9832 5.83366 21.9152 5.83284 21.8509 5.8145L19.875 5.25012C18.93 8.3915 17.0873 11.4459 14.3449 13.1596L12.6975 14.1894C12.6274 14.2323 12.547 14.2556 12.4647 14.2568C12.3825 14.258 12.3015 14.237 12.2301 14.1961C12.1588 14.1552 12.0998 14.0958 12.0593 14.0242C12.0188 13.9526 11.9983 13.8715 12 13.7892V11.2126C11.9994 11.1151 12.0293 11.0197 12.0855 10.94C12.1417 10.8603 12.2214 10.8001 12.3135 10.7679L13.953 10.2091C16.1468 9.46175 18.2966 7.19412 18.75 4.87512L17.0779 4.03925C17.0191 4.00987 16.9691 3.96556 16.9328 3.91076C16.8965 3.85595 16.8753 3.79258 16.8712 3.72699C16.8672 3.6614 16.8804 3.5959 16.9096 3.53704C16.9389 3.47818 16.983 3.42803 17.0378 3.39162L20.5721 1.03512C20.6212 1.00239 20.6774 0.981712 20.736 0.974771C20.7946 0.967829 20.854 0.97482 20.9094 0.995175C20.9648 1.01553 21.0146 1.04867 21.0548 1.09191C21.095 1.13515 21.1244 1.18725 21.1406 1.244L22.3144 5.351Z" fill="#F3A606"/>
<path d="M12.6975 13.2174L14.3449 12.1876C16.8922 10.5957 18.6634 7.84662 19.6601 4.94562C19.7232 4.76579 19.8527 4.61696 20.0222 4.52976C20.1916 4.44257 20.388 4.42364 20.571 4.47687L21.8509 4.8425C21.9021 4.8573 21.9559 4.86081 22.0086 4.85279C22.0613 4.84476 22.1116 4.82538 22.1561 4.796L21.1406 1.244C21.1244 1.18725 21.095 1.13515 21.0548 1.09191C21.0146 1.04867 20.9648 1.01553 20.9094 0.995175C20.854 0.97482 20.7946 0.967829 20.736 0.974771C20.6774 0.981712 20.6212 1.00239 20.5721 1.03512L17.0377 3.39162C16.983 3.42803 16.9389 3.47818 16.9096 3.53704C16.8804 3.5959 16.8672 3.6614 16.8712 3.72699C16.8753 3.79258 16.8965 3.85595 16.9328 3.91076C16.9691 3.96556 17.0191 4.00987 17.0779 4.03925L18.75 4.87512C18.2966 7.19412 16.1467 9.46175 13.953 10.2095L12.3135 10.7682C12.2215 10.8004 12.1418 10.8606 12.0856 10.9402C12.0294 11.0199 11.9995 11.1151 12 11.2126V12.8176C11.9984 12.8998 12.0189 12.9809 12.0594 13.0525C12.1 13.124 12.159 13.1833 12.2303 13.2242C12.3016 13.2651 12.3826 13.286 12.4648 13.2848C12.547 13.2836 12.6274 13.2603 12.6975 13.2174Z" fill="#FFC239"/>
</g>
<defs>
<clipPath id="clip0_83_2579">
<rect width="24" height="24" fill="white"/>
</clipPath>
</defs>
</svg>
