<svg width="24" height="24" viewBox="0 0 24 24" fill="none" xmlns="http://www.w3.org/2000/svg">
<path d="M9.16269 0.000138384C6.52422 -0.000767697 4.00743 0.00275216 3.24784 0.011393C2.9869 0.0143622 2.65299 0.0795726 2.31346 0.209491C1.97394 0.339409 1.62812 0.532702 1.32864 0.780822C0.725951 1.28017 0.256267 2.00373 0.0962518 2.72479C0.0424485 2.96723 0.0376729 2.99979 0.0161706 3.28153C0.0192447 3.24128 0.00628668 4.23898 0.00418337 4.99679C0.00137896 6.00719 9.83054e-05 7.37747 8.42044e-06 8.89282C-0.000351119 13.4389 0.0108352 19.2979 0.0274172 20.6595C0.034572 21.2468 0.209233 22.1147 1.07903 22.9717C2.0497 23.928 3.19139 23.9858 3.33879 23.9889C4.00082 24.003 6.17002 24.0037 6.94112 23.9907C7.1434 23.987 7.20155 23.9868 7.28382 23.9318L7.28772 23.9294L7.29153 23.9271C7.33842 23.8974 7.39202 23.8554 7.42429 23.8243C7.70581 23.5529 7.67132 23.1281 7.39131 22.8996C7.28856 22.8158 7.21808 22.7924 7.17253 22.7863C7.03159 22.7675 6.56935 22.7604 5.32989 22.7512C4.6513 22.7462 4.03103 22.7395 3.67304 22.7332C1.82669 22.7009 1.34979 21.2143 1.34194 20.6341C1.31678 18.7775 1.31686 5.27069 1.34194 3.36054C1.35224 2.57488 1.79416 2.07493 2.07788 1.83627L2.08002 1.83457L2.08243 1.83249C2.41697 1.55976 2.84882 1.29812 3.36898 1.27134C3.91609 1.23188 5.40285 1.23559 9.75465 1.23559C14.0954 1.23559 15.6238 1.23688 16.1231 1.26242C16.5983 1.28673 16.9841 1.47818 17.2628 1.67933C17.7806 2.05303 18.0048 2.50488 18.0982 2.77418C18.1484 2.91907 18.1864 3.09202 18.1937 3.2986C18.2059 3.64491 18.2106 4.47138 18.2185 6.38946C18.2258 8.13422 18.2349 9.16648 18.2456 9.51976C18.2468 9.55945 18.248 9.58726 18.2491 9.60755C18.2968 9.74859 18.3743 9.84882 18.4721 9.92135C18.5755 9.9981 18.7031 10.0429 18.8333 10.0516C18.9636 10.0604 19.0941 10.033 19.2045 9.97169C19.3148 9.91036 19.408 9.81827 19.4728 9.67256L19.5152 9.57693V6.35979V3.68925C19.5152 2.79968 19.3099 2.0082 18.7287 1.29885C18.4163 0.917525 18.0617 0.652069 17.7527 0.471881C17.1541 0.133519 16.5419 -0.0290547 15.8637 0.0144556L15.8503 0.0150828H15.8373C14.5669 0.00649416 11.8011 0.00105143 9.16269 0.000138384ZM4.25198 5.55596C3.9545 5.55596 3.72636 5.77709 3.72636 6.06543V6.2131C3.72636 6.50144 3.9545 6.72258 4.25198 6.72258H14.7734C15.0709 6.72258 15.299 6.50144 15.299 6.2131V6.06543C15.299 5.77709 15.0709 5.55596 14.7734 5.55596H4.25198ZM4.25198 9.6473C3.95467 9.6473 3.72636 9.8688 3.72636 10.1571V10.3048C3.72636 10.5931 3.9545 10.8143 4.25198 10.8143H14.7734C15.0709 10.8143 15.299 10.5931 15.299 10.3048V10.1571C15.299 9.86879 15.0707 9.6473 14.7734 9.6473H4.25198ZM18.037 12.4706C14.7373 12.4706 12.0738 15.0262 12.0738 18.1831C12.0738 21.3399 14.7373 23.8954 18.037 23.8954C21.3368 23.8954 24 21.3399 24 18.1831C24 15.0262 21.3368 12.4706 18.037 12.4706ZM18.037 13.6148C20.5589 13.6148 22.7964 15.759 22.7964 18.1831C22.7964 20.6072 20.559 22.7512 18.037 22.7512C15.5151 22.7512 13.2777 20.6072 13.2777 18.1831C13.2778 15.759 15.5151 13.6148 18.037 13.6148ZM4.25198 13.7391C3.9545 13.7391 3.72636 13.9602 3.72636 14.2486V14.3962C3.72636 14.6846 3.95467 14.9061 4.25198 14.9061H10.8016C11.0989 14.9061 11.3272 14.6846 11.3272 14.3962V14.2486C11.3272 13.9602 11.0991 13.7391 10.8016 13.7391H4.25198ZM17.561 15.448V16.2296C17.4445 16.255 17.3337 16.2888 17.2295 16.3321C16.9782 16.4307 16.7839 16.5727 16.6463 16.7582C16.5088 16.9437 16.4399 17.1582 16.4399 17.4017C16.4399 17.7206 16.5326 17.9729 16.7181 18.1584C16.9095 18.3439 17.2206 18.4946 17.6512 18.6106L17.9114 18.6801C18.1268 18.7381 18.2882 18.7932 18.3959 18.8453C18.5095 18.8917 18.5844 18.941 18.6202 18.9932C18.6561 19.0396 18.674 19.0946 18.674 19.1584C18.674 19.257 18.6262 19.3353 18.5305 19.3932C18.4408 19.4512 18.2972 19.4802 18.0998 19.4802C17.8905 19.4802 17.6721 19.4483 17.4448 19.3845C17.2175 19.3149 16.9932 19.2019 16.7719 19.0454L16.2605 19.802C16.5237 19.9817 16.8048 20.118 17.1039 20.2108C17.2475 20.2517 17.4001 20.2826 17.561 20.3042V20.9756H18.5938V20.3103C18.7834 20.2833 18.9542 20.2389 19.1047 20.1759C19.3739 20.06 19.5712 19.9035 19.6968 19.7063C19.8284 19.5092 19.8943 19.286 19.8943 19.0367C19.8943 18.7178 19.7866 18.454 19.5712 18.2453C19.3619 18.0366 19.0269 17.8743 18.5664 17.7583L18.2703 17.6801C18.0968 17.6337 17.9682 17.596 17.8845 17.567C17.8067 17.5322 17.7528 17.4974 17.7229 17.4626C17.693 17.422 17.6782 17.3727 17.6782 17.3148C17.6782 17.2336 17.714 17.1669 17.7858 17.1148C17.8636 17.0626 17.9772 17.0365 18.1268 17.0365C18.3182 17.0365 18.4975 17.0597 18.665 17.106C18.8325 17.1524 19.0389 17.2365 19.2842 17.3582L19.7507 16.6017C19.3944 16.3978 19.0086 16.2675 18.5938 16.2099V15.448H17.561Z" fill="#01C7FB"/>
</svg>
