<svg width="24" height="24" viewBox="0 0 24 24" fill="none" xmlns="http://www.w3.org/2000/svg">
<path d="M12.1963 0C10.3048 3.93906e-05 8.78455 1.3709 8.78457 3.06738C8.78457 3.94893 9.20755 4.78791 9.94582 5.37068L10.4942 5.80356L9.80939 6.02325C7.45519 6.77946 5.92311 8.78152 5.91884 10.748C5.91884 10.7628 5.92196 10.7777 5.92294 10.7925H18.4697C18.4697 10.7778 18.4731 10.7632 18.4738 10.7484C18.4707 8.78195 16.9395 6.77926 14.5856 6.02243L13.9018 5.80282L14.4494 5.36986C15.1866 4.78711 15.6077 3.94881 15.6081 3.06738C15.6081 1.37099 14.0879 -8.69427e-06 12.1963 0ZM12.1963 1.07426C13.3954 1.07425 14.3621 1.96977 14.3622 3.06738C14.3622 4.17357 13.3845 4.99852 12.1963 4.9985C11.0081 4.99845 10.0308 4.17345 10.0308 3.06738C10.0308 1.96988 10.9972 1.07432 12.1963 1.07426ZM12.1863 6.67207H12.1889C13.4932 6.65585 14.5886 7.11033 15.38 7.64464C16.1042 8.1336 16.6811 8.76963 16.8263 9.21423L16.9876 9.70882L7.36952 9.69497L7.57449 9.1803C7.90956 8.3397 9.61688 6.67824 12.1863 6.67207ZM0.746738 11.7435C0.335322 11.7529 0.178672 11.8352 0.107475 11.9168C0.0360638 11.9986 0.00644808 12.1499 0.01835 12.3839V12.3898L0.0072272 17.3341C0.00176403 19.836 -0.00798688 21.2061 0.0121098 21.9609C0.0187437 22.2121 -0.00368764 22.454 0.0380471 22.6277C0.0579487 22.7106 0.085098 22.765 0.112668 22.8024C0.140237 22.8397 0.167898 22.8623 0.206413 22.8828C0.26883 22.9159 0.285397 22.926 0.369159 22.9406C0.452901 22.9553 0.603633 22.9661 0.867231 22.9628C1.28446 22.9576 1.53254 22.924 1.62446 22.7607C1.65644 22.7039 1.68563 22.5686 1.67822 22.365C1.67627 22.3472 1.67547 22.3189 1.68698 22.2797C1.68972 22.27 1.69694 22.2526 1.70797 22.2323L1.68884 21.859L2.08481 22.0018C2.08461 22.0017 2.23427 22.0219 2.30198 22.0413C2.37392 22.0619 2.46057 22.086 2.54739 22.1096C2.74526 22.1635 3.10975 22.2644 3.35612 22.3334C3.6021 22.4024 3.92486 22.4925 4.07141 22.5328C4.76031 22.7223 5.16289 22.8342 5.93177 23.0495C7.86628 23.591 8.12258 23.6565 8.86343 23.7946C9.21225 23.8596 9.68301 23.9302 9.86688 23.9474C11.541 24.1043 13.5231 23.9039 15.0122 23.4314C15.437 23.2966 16.0727 23.0487 16.5773 22.828C16.9136 22.6809 17.2034 22.5373 17.3029 22.4735C17.4234 22.3962 18.7057 21.6448 19.435 21.22C19.8726 20.9651 20.1212 20.8191 21.6182 19.9402C22.5038 19.4203 22.9859 19.127 23.2633 18.9106C23.5408 18.6941 23.621 18.5686 23.7687 18.2878C24.1394 17.5831 24.0413 16.835 23.6395 16.256C23.2378 15.677 22.5391 15.2763 21.683 15.2804C21.3983 15.2818 21.2563 15.2916 20.9792 15.3781C20.7021 15.4647 20.2945 15.6358 19.568 15.9531C19.2476 16.093 18.7532 16.3081 18.4698 16.4313C18.1866 16.5545 17.7027 16.7653 17.3947 16.8995C17.0865 17.0337 16.6222 17.2349 16.3631 17.3466C16.1059 17.4574 15.7815 17.6004 15.6524 17.6595C15.5169 17.7216 15.3448 17.8047 15.2305 17.8259C15.0529 17.8588 14.8836 17.7828 14.8281 17.6128C14.8013 17.5307 14.8053 17.4248 14.8053 17.3618C14.8053 16.7789 14.5859 16.3018 14.1708 15.9226C13.7557 15.5434 13.1333 15.2636 12.3214 15.1321C11.2392 14.9569 10.4603 14.8337 9.90568 14.7499C8.93987 14.6039 8.5878 14.4639 8.00035 13.9919C7.25597 13.3939 6.28291 12.9669 5.27217 12.759C4.2614 12.551 3.21509 12.563 2.3283 12.8213L1.69692 13.0053L1.70063 12.6587C1.70258 12.4911 1.69809 12.341 1.68086 12.2176C1.66369 12.0942 1.63336 11.9993 1.59545 11.9358C1.55756 11.8724 1.51891 11.8371 1.44795 11.8063C1.37697 11.7754 1.26436 11.7521 1.09133 11.757H1.08099L0.747143 11.7435L0.746738 11.7435ZM3.83225 13.6862C4.98617 13.6598 6.15116 13.9994 7.04622 14.6671C7.6052 15.0841 7.94708 15.3103 8.32634 15.4644C8.7056 15.6186 9.14599 15.7094 9.90742 15.829C10.6324 15.9429 11.2 16.0328 12.08 16.1735C12.7306 16.2775 13.1087 16.405 13.3455 16.6874C14.0563 17.5348 13.4539 18.7108 12.2956 18.7065C12.0529 18.7056 11.529 18.6272 10.3499 18.4375C8.15936 18.0852 7.32794 17.9512 7.00166 17.9153C6.89288 17.9033 6.84477 17.9035 6.83248 17.9045C6.82019 17.9054 6.82701 17.9052 6.77601 17.9191C6.60164 17.9666 6.4763 18.0719 6.4076 18.2025C6.33886 18.3332 6.32821 18.4857 6.39726 18.6358C6.42901 18.7049 6.45763 18.7485 6.4876 18.7806C6.51757 18.8128 6.5501 18.8376 6.61141 18.8662C6.73398 18.9234 6.97625 18.9815 7.3881 19.045C8.04313 19.146 8.91115 19.2846 9.97604 19.4578C11.5233 19.7095 12.322 19.826 12.9373 19.7832C13.5528 19.7404 14.0349 19.5438 15.0051 19.1178C15.3871 18.9501 15.9219 18.7166 16.1934 18.5986C16.4642 18.481 16.9178 18.2835 17.2013 18.1603C17.4847 18.037 17.9186 17.8487 18.1651 17.742C18.4113 17.6353 18.8497 17.4453 19.1391 17.3195C19.4287 17.1937 19.9027 16.9878 20.1924 16.8624C20.4816 16.7373 20.8441 16.5798 20.9961 16.5131C21.975 16.0838 22.9672 16.6069 22.815 17.5295C22.8045 17.5929 22.7977 17.6892 22.7502 17.7898C22.7085 17.8783 22.6458 17.9539 22.5532 18.0362C22.2197 18.3327 21.1978 18.9204 18.8578 20.2933C18.5999 20.4446 18.1262 20.7243 17.8061 20.9143C15.5975 22.2257 14.1252 22.7458 12.1467 22.9021C10.84 23.0053 9.34072 22.88 8.21197 22.5681C8.06401 22.5272 7.74214 22.438 7.49599 22.3702C7.24907 22.3022 6.74405 22.1619 6.37437 22.0586C6.00534 21.9555 5.53141 21.8245 5.32373 21.7679C4.92875 21.6603 4.46874 21.5319 3.88665 21.3665C3.70336 21.3145 3.38063 21.2243 3.17289 21.1677C2.96267 21.1103 2.58305 21.0049 2.32999 20.9334L1.676 20.7486L1.68848 17.444L1.70058 14.1503L2.28257 13.9542C2.78126 13.7861 3.30661 13.6983 3.83199 13.6862H3.83225ZM2.10972 22.1408C2.13604 22.1564 2.15898 22.1754 2.17527 22.1979C2.16083 22.18 2.13834 22.1592 2.10972 22.1408Z" fill="#01C7FB"/>
</svg>
