<svg width="24" height="24" viewBox="0 0 24 24" fill="none" xmlns="http://www.w3.org/2000/svg">
<path d="M12.0002 1.45276e-05C10.2543 5.17039e-05 8.8496 1.30001 8.84962 2.90918C8.84962 3.74553 9.24052 4.54104 9.92222 5.09366L10.3424 5.43421L9.81807 5.60702C7.66298 6.31791 6.25735 8.20003 6.25343 10.0548C6.25343 10.0705 6.25712 10.0929 6.2577 10.0998L6.26118 10.1516H17.7427V10.0961C17.7427 10.0931 17.7456 10.0677 17.7462 10.058V10.0566V10.055C17.7434 8.20038 16.3391 6.31784 14.1842 5.60635L13.6606 5.43345L14.0798 5.09289C14.7605 4.54028 15.1496 3.74535 15.15 2.90917C15.15 1.30009 13.7458 -8.34196e-06 11.9998 0L12.0002 1.45276e-05ZM12.0002 1.11043C13.0541 1.11042 13.9028 1.91753 13.9028 2.90918C13.9028 3.40895 13.6886 3.84296 13.3438 4.15352C12.9989 4.46407 12.5234 4.6504 12.0002 4.65039C11.4771 4.65036 11.0015 4.46408 10.6567 4.15352C10.3118 3.84296 10.0976 3.40889 10.0976 2.90918C10.0977 1.91765 10.9464 1.11048 12.0002 1.11043ZM11.9909 6.31812H11.994C13.1601 6.30323 14.14 6.72029 14.8489 7.21178C15.1731 7.43658 15.4648 7.69565 15.6906 7.94847C15.9163 8.20128 16.0759 8.44919 16.1377 8.64373L16.2612 9.03255L7.71156 9.01962L7.86841 8.61487C7.94094 8.42801 8.09138 8.18891 8.31215 7.93769C8.53292 7.68647 8.82416 7.42261 9.17775 7.18301C9.88493 6.70382 10.8412 6.32096 11.9909 6.31812ZM5.7546 10.9378C4.04097 10.9378 2.6637 12.2132 2.66372 13.7915C2.66372 14.6117 3.0469 15.3922 3.71575 15.9344L4.21259 16.3372L3.59213 16.5416C1.45936 17.2451 0.071397 19.1078 0.0675328 20.9373C0.0675328 20.9511 0.0702597 20.9648 0.0712306 20.9787H11.438C11.438 20.9649 11.4409 20.9514 11.4416 20.9377C11.4389 19.1082 10.0517 17.245 7.91916 16.5408L7.29961 16.3365L7.79576 15.9337C8.46363 15.3915 8.84507 14.6116 8.84544 13.7915C8.84544 12.2133 7.46827 10.9377 5.7546 10.9378ZM18.2454 10.9378C16.5318 10.9378 15.1545 12.2132 15.1545 13.7915C15.1545 14.6117 15.5377 15.3922 16.2065 15.9344L16.7034 16.3372L16.083 16.5416C13.9502 17.2451 12.5622 19.1078 12.5583 20.9373C12.5583 20.9511 12.5611 20.9648 12.562 20.9787H23.9287C23.9287 20.9649 23.9316 20.9514 23.9324 20.9377C23.9297 19.1082 22.5425 17.245 20.41 16.5408L19.7905 16.3365L20.2866 15.9337C20.9545 15.3915 21.3359 14.6116 21.3363 13.7915C21.3363 12.2133 19.9591 10.9377 18.2454 10.9378ZM5.7546 11.9373C6.84094 11.9373 7.71669 12.7704 7.71671 13.7915C7.71672 14.8207 6.8311 15.5882 5.7546 15.5882C4.67815 15.5882 3.79274 14.8206 3.79274 13.7915C3.79278 12.7705 4.66832 11.9374 5.7546 11.9373ZM18.2454 11.9373C19.3318 11.9373 20.2075 12.7704 20.2075 13.7915C20.2075 14.8207 19.3219 15.5882 18.2454 15.5882C17.169 15.5882 16.2835 14.8206 16.2835 13.7915C16.2836 12.7705 17.1591 11.9374 18.2454 11.9373ZM5.74548 17.1452H5.7478C6.92947 17.1301 7.92173 17.553 8.6387 18.0501C9.29482 18.505 9.81754 19.0967 9.94906 19.5103L10.0952 19.9705L1.3818 19.9576L1.56745 19.4788C1.87096 18.6967 3.4177 17.1509 5.74548 17.1452ZM18.2363 17.1452H18.2386C19.4202 17.1301 20.4126 17.553 21.1295 18.0501C21.7856 18.505 22.3083 19.0967 22.4398 19.5103L22.586 19.9705L13.8726 19.9576L14.0582 19.4788C14.3618 18.6967 15.9085 17.1509 18.2363 17.1452ZM0.246451 22.8679C0.105279 22.8679 0 22.9612 0 23.0862V23.7818C0 23.9068 0.105279 24 0.246451 24H23.7536C23.8947 24 24 23.9068 24 23.7818V23.0862C24 22.9612 23.8947 22.8679 23.7536 22.8679H0.246451Z" fill="#01C7FB"/>
</svg>
