<svg width="51" height="61" viewBox="0 0 51 61" fill="none" xmlns="http://www.w3.org/2000/svg">
<g clip-path="url(#clip0_10382_12473)">
<path d="M18.5987 0.5C15.8153 0.5 13.4431 2.20613 12.449 4.6409H9.65151C4.58184 4.6409 0.500488 8.75305 0.500488 13.861V51.2799C0.500488 56.3878 4.58184 60.5 9.65151 60.5H41.3495C46.4191 60.5 50.5005 56.3878 50.5005 51.2799V13.861C50.5005 8.75305 46.4191 4.6409 41.3495 4.6409H39.3296C38.3354 2.20613 35.9632 0.5 33.1799 0.5H18.5987ZM19.5226 3.58344H32.256C33.2508 3.58344 34.1486 3.9871 34.7975 4.64139C34.9591 4.80442 35.1053 4.98304 35.2337 5.17483C35.2342 5.17555 35.2346 5.17632 35.2351 5.17703C35.363 5.36826 35.473 5.57272 35.5632 5.78778C35.5637 5.78945 35.5646 5.79108 35.5656 5.79273C35.6551 6.00729 35.7247 6.2326 35.7721 6.46616C35.7726 6.46865 35.7731 6.47112 35.7735 6.47359C35.8207 6.7082 35.8456 6.95101 35.8456 7.20003C35.8456 7.33206 35.838 7.46216 35.8242 7.59027C35.8218 7.61356 35.8168 7.63599 35.8139 7.65915C35.8001 7.76662 35.7839 7.87329 35.761 7.97752C35.7581 7.99043 35.7541 8.00282 35.7511 8.01568C35.7245 8.13068 35.694 8.24412 35.657 8.35462C35.656 8.35755 35.6546 8.36036 35.6536 8.36329C35.6136 8.48163 35.5679 8.59734 35.5167 8.70992C34.9505 9.95442 33.7082 10.8167 32.2559 10.8167H19.5224C18.0701 10.8167 16.8279 9.95442 16.2617 8.70992C16.1614 8.48933 16.0829 8.25656 16.0271 8.01494C16.0242 8.00233 16.0202 7.99018 16.0175 7.97752C15.9946 7.87329 15.9783 7.76662 15.9646 7.65915C15.9618 7.63599 15.9568 7.61356 15.9543 7.59027C15.9405 7.46216 15.9329 7.33205 15.9329 7.20003C15.9329 6.95101 15.9578 6.7082 16.0049 6.47359C16.0054 6.4711 16.0059 6.46863 16.0064 6.46616C16.054 6.23164 16.1241 6.00511 16.2142 5.78976C16.2145 5.78909 16.2146 5.78846 16.2151 5.78779C16.3055 5.57221 16.4159 5.36693 16.5442 5.17532C16.5443 5.17513 16.5445 5.17501 16.5446 5.17484C16.6732 4.98285 16.8195 4.80408 16.9814 4.64091C17.6302 3.98691 18.528 3.58344 19.5226 3.58344ZM10.4706 8.71118H12.1192C12.7961 11.6901 15.431 13.9001 18.5987 13.9001H33.1799C36.3475 13.9001 38.9825 11.6901 39.6593 8.71118H40.5303C44.0354 8.71118 46.8571 11.5541 46.8571 15.0857V50.055C46.8571 53.5865 44.0354 56.4297 40.5303 56.4297H10.4706C6.96554 56.4297 4.14364 53.5865 4.14364 50.055V15.0857C4.14364 11.5541 6.96554 8.71118 10.4706 8.71118ZM12.7655 25.7844C11.6186 25.7844 10.6952 26.7148 10.6952 27.8703C10.6952 29.0259 11.6186 29.9563 12.7655 29.9563H34.0509C35.1978 29.9563 36.1209 29.0259 36.1209 27.8703C36.1209 26.7148 35.1978 25.7844 34.0509 25.7844H12.7655ZM12.646 39.2698C11.499 39.2698 10.5756 40.1999 10.5756 41.3554C10.5756 42.511 11.499 43.4414 12.646 43.4414H23.2955C24.4425 43.4414 25.3659 42.511 25.3659 41.3554C25.3659 40.1999 24.4425 39.2698 23.2955 39.2698H12.646Z" fill="#0D0D0D" fill-opacity="0.35"/>
</g>
<defs>
<clipPath id="clip0_10382_12473">
<rect width="50" height="60" fill="white" transform="translate(0.5 0.5)"/>
</clipPath>
</defs>
</svg>
