<svg width="12" height="13" viewBox="0 0 12 13" fill="none" xmlns="http://www.w3.org/2000/svg">
<path d="M7.41776 5.5649C8.01447 5.02087 8.82141 4.2851 8.89496 2.52734H9.42773V2H2.57227V2.52734H3.10504C3.17859 4.2851 3.98553 5.02087 4.58224 5.5649C4.98251 5.92984 5.20898 6.1532 5.20898 6.5C5.20898 6.8468 4.98251 7.07016 4.58224 7.4351C3.98553 7.97913 3.17859 8.7149 3.10504 10.4727H2.57227V11H9.42773V10.4727H8.89496C8.82141 8.7149 8.01447 7.97913 7.41776 7.4351C7.01749 7.07016 6.79102 6.8468 6.79102 6.5C6.79102 6.1532 7.01749 5.92984 7.41776 5.5649ZM5.73633 8.47645C5.65405 8.4934 5.57355 8.51809 5.49591 8.55019L3.88089 9.21849C4.14463 8.54789 4.56942 8.16041 4.93753 7.82481C5.34833 7.45027 5.73633 7.09651 5.73633 6.5V8.47645ZM7.06247 7.82481C7.43058 8.16041 7.85535 8.54789 8.11911 9.21847L6.50409 8.55017C6.42645 8.51807 6.34595 8.49338 6.26367 8.47643V6.5C6.26367 7.09651 6.65167 7.45027 7.06247 7.82481ZM3.87162 3.75781C3.74413 3.4256 3.65608 3.02449 3.63304 2.52734H8.36695C8.3439 3.02449 8.25587 3.4256 8.12836 3.75781H3.87162Z" fill="#0D0D0D" fill-opacity="0.45"/>
</svg>
