<svg width="20" height="21" viewBox="0 0 20 21" fill="none" xmlns="http://www.w3.org/2000/svg">
<rect y="0.5" width="20" height="20" rx="10" fill="#024896" fill-opacity="0.08"/>
<path d="M11.4178 9.5649C12.0145 9.02087 12.8214 8.2851 12.895 6.52734H13.4277V6H6.57227V6.52734H7.10504C7.17859 8.2851 7.98553 9.02087 8.58224 9.5649C8.98251 9.92984 9.20898 10.1532 9.20898 10.5C9.20898 10.8468 8.98251 11.0702 8.58224 11.4351C7.98553 11.9791 7.17859 12.7149 7.10504 14.4727H6.57227V15H13.4277V14.4727H12.895C12.8214 12.7149 12.0145 11.9791 11.4178 11.4351C11.0175 11.0702 10.791 10.8468 10.791 10.5C10.791 10.1532 11.0175 9.92984 11.4178 9.5649ZM9.73633 12.4764C9.65405 12.4934 9.57355 12.5181 9.49591 12.5502L7.88089 13.2185C8.14463 12.5479 8.56942 12.1604 8.93753 11.8248C9.34833 11.4503 9.73633 11.0965 9.73633 10.5V12.4764ZM11.0625 11.8248C11.4306 12.1604 11.8554 12.5479 12.1191 13.2185L10.5041 12.5502C10.4265 12.5181 10.346 12.4934 10.2637 12.4764V10.5C10.2637 11.0965 10.6517 11.4503 11.0625 11.8248ZM7.87162 7.75781C7.74413 7.4256 7.65608 7.02449 7.63304 6.52734H12.3669C12.3439 7.02449 12.2559 7.4256 12.1284 7.75781H7.87162Z" fill="#0D0D0D" fill-opacity="0.45"/>
</svg>
