<svg width="8" height="9" viewBox="0 0 8 9" fill="none" xmlns="http://www.w3.org/2000/svg">
<path d="M5.41776 3.5649C6.01447 3.02087 6.82141 2.2851 6.89496 0.527344H7.42773V0H0.572266V0.527344H1.10504C1.17859 2.2851 1.98553 3.02087 2.58224 3.5649C2.98251 3.92984 3.20898 4.1532 3.20898 4.5C3.20898 4.8468 2.98251 5.07016 2.58224 5.4351C1.98553 5.97913 1.17859 6.7149 1.10504 8.47266H0.572266V9H7.42773V8.47266H6.89496C6.82141 6.7149 6.01447 5.97913 5.41776 5.4351C5.01749 5.07016 4.79102 4.8468 4.79102 4.5C4.79102 4.1532 5.01749 3.92984 5.41776 3.5649ZM3.73633 6.47645C3.65405 6.4934 3.57355 6.51809 3.49591 6.55019L1.88089 7.21849C2.14463 6.54789 2.56942 6.16041 2.93753 5.82481C3.34833 5.45027 3.73633 5.09651 3.73633 4.5V6.47645ZM5.06247 5.82481C5.43058 6.16041 5.85535 6.54789 6.11911 7.21847L4.50409 6.55017C4.42645 6.51807 4.34595 6.49338 4.26367 6.47643V4.5C4.26367 5.09651 4.65167 5.45027 5.06247 5.82481ZM1.87162 1.75781C1.74413 1.4256 1.65608 1.02449 1.63304 0.527344H6.36695C6.3439 1.02449 6.25587 1.4256 6.12836 1.75781H1.87162Z" fill="white"/>
</svg>
