<svg width="20" height="21" viewBox="0 0 20 21" fill="none" xmlns="http://www.w3.org/2000/svg">
<rect x="0.5" y="1" width="19" height="19" rx="9.5" fill="#4ECDC4"/>
<rect x="0.5" y="1" width="19" height="19" rx="9.5" stroke="#4ECDC4" stroke-dasharray="1.33 1.33"/>
<path d="M9.20674 14.509H9.20229C9.17358 14.5084 9.14528 14.502 9.1191 14.4902C9.09292 14.4784 9.0694 14.4614 9.04994 14.4403L5.03135 10.0706C4.99793 10.0343 4.97816 9.98748 4.97543 9.93819C4.97269 9.8889 4.98715 9.84019 5.01635 9.80038C5.04555 9.76058 5.08766 9.73215 5.13549 9.71993C5.18331 9.7077 5.2339 9.71245 5.27862 9.73335L8.95666 11.4555C8.9876 11.4701 9.02416 11.463 9.04783 11.4384L14.6583 5.5746C14.7342 5.49515 14.8585 5.48648 14.9447 5.55491C15.031 5.62335 15.0509 5.74616 14.9906 5.83827L9.40971 14.3878C9.40174 14.4002 9.39236 14.4115 9.38205 14.422L9.35744 14.4466C9.31739 14.4865 9.26323 14.5089 9.20674 14.509Z" fill="white"/>
</svg>
