<svg xmlns="http://www.w3.org/2000/svg" version="1.1" xmlns:xlink="http://www.w3.org/1999/xlink" width="512" height="512" x="0" y="0" viewBox="0 0 512 512" style="enable-background:new 0 0 512 512" xml:space="preserve"><g><path d="M503.92 268.72c-4.12-9.94-10.2-19.07-18.04-26.91-13.33-13.33-30.4-21.57-48.85-23.74 1.31-7.25 1.97-14.62 1.97-22.07 0-68.1-55.4-123.5-123.5-123.5-48.78 0-92.53 28.86-112.35 72.17-12.28-5.98-25.87-9.17-39.65-9.17-47.31 0-86.25 36.48-90.17 82.79-40.36 5.61-71.52 40.34-71.52 82.21 0 22.17 8.63 43.01 24.31 58.69 15.67 15.68 36.52 24.31 58.69 24.31H354c8.28 0 15-6.72 15-15 0-8.28-6.72-15-15-15H84.81c-14.16 0-27.47-5.51-37.48-15.52-10.01-10.02-15.52-23.33-15.52-37.48 0-29.22 23.77-53 53-53H88c2.82 0 5.62-.67 8.02-2.14 5.03-3.06 7.69-8.56 7.21-14.13-.16-1.92-.24-3.63-.24-5.23 0-33.36 27.14-60.5 60.5-60.5 13.85 0 26.86 4.55 37.68 13.18 2.97 2.37 6.68 3.73 10.47 3.52 6.61-.37 12-4.91 13.68-11.02 11.1-40.44 48.18-68.69 90.17-68.69 51.56 0 93.5 41.94 93.5 93.5 0 10.79-1.83 21.38-5.43 31.45-2.04 5.72-.46 12.21 4.3 16.38 2.78 2.44 6.44 3.67 10.14 3.67h9.18c14.16 0 27.47 5.51 37.48 15.52 10.01 10.02 15.52 23.33 15.52 37.48 0 29.22-23.77 53-53 53H425c-8.28 0-15 6.72-15 15 0 8.28 6.72 15 15 15h1.02c46.27 0 84.77-37.86 84.16-84.12-.14-10.68-2.29-21.05-6.26-30.65z" fill="#024896" opacity="1" data-original="#000000"></path><path d="M325.8 333.42c-3.84 0-7.68-1.46-10.61-4.39l-30.4-30.4c-7.69-7.69-17.91-11.92-28.79-11.92s-21.1 4.24-28.79 11.92l-30.4 30.4c-5.86 5.86-15.36 5.86-21.21 0-5.86-5.86-5.86-15.36 0-21.21l30.4-30.4c13.36-13.36 31.11-20.71 50-20.71s36.65 7.36 50 20.71l30.4 30.4c5.86 5.86 5.86 15.36 0 21.21a14.913 14.913 0 0 1-10.6 4.39z" fill="#024896" opacity="1" data-original="#000000"></path><path d="M256.56 439.5c-8.28 0-15-6.72-15-15v-153c0-8.28 6.72-15 15-15s15 6.72 15 15v153c0 8.28-6.71 15-15 15z" fill="#024896" opacity="1" data-original="#000000"></path></g></svg>