<svg width="22" height="18" viewBox="0 0 22 18" fill="none" xmlns="http://www.w3.org/2000/svg">
<path d="M14 5.25H21.5V3.75C21.5 2.75544 21.1049 1.80161 20.4016 1.09835C19.6984 0.395088 18.7446 0 17.75 0H4.25C3.25544 0 2.30161 0.395088 1.59835 1.09835C0.895088 1.80161 0.5 2.75544 0.5 3.75V14.25C0.5 15.2446 0.895088 16.1984 1.59835 16.9016C2.30161 17.6049 3.25544 18 4.25 18H17.75C18.7446 18 19.6984 17.6049 20.4016 16.9016C21.1049 16.1984 21.5 15.2446 21.5 14.25V12.75H14C13.0054 12.75 12.0516 12.3549 11.3483 11.6517C10.6451 10.9484 10.25 9.99456 10.25 9C10.25 8.00544 10.6451 7.05161 11.3483 6.34835C12.0516 5.64509 13.0054 5.25 14 5.25ZM14 6.75C13.4033 6.75 12.831 6.98705 12.409 7.40901C11.9871 7.83097 11.75 8.40326 11.75 9C11.75 9.59674 11.9871 10.169 12.409 10.591C12.831 11.0129 13.4033 11.25 14 11.25H21.5V6.75H14ZM14 10.5C13.7033 10.5 13.4133 10.412 13.1666 10.2472C12.92 10.0824 12.7277 9.84811 12.6142 9.57403C12.5006 9.29994 12.4709 8.99834 12.5288 8.70737C12.5867 8.41639 12.7296 8.14912 12.9393 7.93934C13.1491 7.72956 13.4164 7.5867 13.7074 7.52882C13.9983 7.47094 14.2999 7.50065 14.574 7.61418C14.8481 7.72771 15.0824 7.91997 15.2472 8.16665C15.412 8.41332 15.5 8.70333 15.5 9C15.5 9.39782 15.342 9.77936 15.0607 10.0607C14.7794 10.342 14.3978 10.5 14 10.5Z" fill="#FF8F00"/>
<path d="M21.5001 3.74961V5.24961H19.2501C19.0495 4.21949 18.7062 3.22239 18.2301 2.28711C17.8196 1.48117 17.3161 0.726038 16.7301 0.0371094H17.7501C18.7382 0.03706 19.6864 0.426996 20.3886 1.12217C21.0908 1.81734 21.4902 2.76156 21.5001 3.74961ZM19.4526 6.74961H21.5001V11.2496H18.8226C19.3318 9.80694 19.5461 8.27666 19.4526 6.74961ZM18.1626 12.7496H21.5001V14.2496C21.5001 15.2442 21.105 16.198 20.4017 16.9013C19.6985 17.6045 18.7446 17.9996 17.7501 17.9996H12.4026C12.6801 17.8871 12.9576 17.7596 13.2276 17.6246C15.3423 16.5562 17.0684 14.8511 18.1626 12.7496Z" fill="#FF6F00"/>
</svg>
