<svg width="40" height="40" viewBox="0 0 40 40" fill="none" xmlns="http://www.w3.org/2000/svg">
<rect width="40" height="40" rx="20" fill="white"/>
<path d="M23 16.25H30.5V14.75C30.5 13.7554 30.1049 12.8016 29.4016 12.0983C28.6984 11.3951 27.7446 11 26.75 11H13.25C12.2554 11 11.3016 11.3951 10.5983 12.0983C9.89509 12.8016 9.5 13.7554 9.5 14.75V25.25C9.5 26.2446 9.89509 27.1984 10.5983 27.9016C11.3016 28.6049 12.2554 29 13.25 29H26.75C27.7446 29 28.6984 28.6049 29.4016 27.9016C30.1049 27.1984 30.5 26.2446 30.5 25.25V23.75H23C22.0054 23.75 21.0516 23.3549 20.3483 22.6517C19.6451 21.9484 19.25 20.9946 19.25 20C19.25 19.0054 19.6451 18.0516 20.3483 17.3483C21.0516 16.6451 22.0054 16.25 23 16.25ZM23 17.75C22.4033 17.75 21.831 17.9871 21.409 18.409C20.9871 18.831 20.75 19.4033 20.75 20C20.75 20.5967 20.9871 21.169 21.409 21.591C21.831 22.0129 22.4033 22.25 23 22.25H30.5V17.75H23ZM23 21.5C22.7033 21.5 22.4133 21.412 22.1666 21.2472C21.92 21.0824 21.7277 20.8481 21.6142 20.574C21.5006 20.2999 21.4709 19.9983 21.5288 19.7074C21.5867 19.4164 21.7296 19.1491 21.9393 18.9393C22.1491 18.7296 22.4164 18.5867 22.7074 18.5288C22.9983 18.4709 23.2999 18.5006 23.574 18.6142C23.8481 18.7277 24.0824 18.92 24.2472 19.1666C24.412 19.4133 24.5 19.7033 24.5 20C24.5 20.3978 24.342 20.7794 24.0607 21.0607C23.7794 21.342 23.3978 21.5 23 21.5Z" fill="#FF8F00"/>
<path d="M30.5001 14.7496V16.2496H28.2501C28.0495 15.2195 27.7062 14.2224 27.2301 13.2871C26.8196 12.4812 26.3161 11.726 25.7301 11.0371H26.7501C27.7382 11.0371 28.6864 11.427 29.3886 12.1222C30.0908 12.8173 30.4902 13.7616 30.5001 14.7496ZM28.4526 17.7496H30.5001V22.2496H27.8226C28.3318 20.8069 28.5461 19.2767 28.4526 17.7496ZM27.1626 23.7496H30.5001V25.2496C30.5001 26.2442 30.105 27.198 29.4017 27.9013C28.6985 28.6045 27.7446 28.9996 26.7501 28.9996H21.4026C21.6801 28.8871 21.9576 28.7596 22.2276 28.6246C24.3423 27.5562 26.0684 25.8511 27.1626 23.7496Z" fill="#FF6F00"/>
</svg>
