<svg width="17" height="20" viewBox="0 0 17 20" fill="none" xmlns="http://www.w3.org/2000/svg">
<path d="M10.1667 5.83333V0.383333C10.9376 0.674446 11.6378 1.12609 12.2209 1.70833L15.1242 4.61333C15.7071 5.19573 16.1591 5.89575 16.4501 6.66667H11.0001C10.7791 6.66667 10.5671 6.57887 10.4108 6.42259C10.2545 6.26631 10.1667 6.05435 10.1667 5.83333ZM16.8334 8.7375V15.8333C16.8321 16.938 16.3927 17.997 15.6116 18.7782C14.8305 19.5593 13.7714 19.9987 12.6667 20H4.33341C3.22875 19.9987 2.16971 19.5593 1.3886 18.7782C0.607483 17.997 0.168071 16.938 0.166748 15.8333V4.16667C0.168071 3.062 0.607483 2.00296 1.3886 1.22185C2.16971 0.440735 3.22875 0.00132321 4.33341 0L8.09591 0C8.23175 0 8.36591 0.0108333 8.50008 0.02V5.83333C8.50008 6.49637 8.76347 7.13226 9.23231 7.6011C9.70115 8.06994 10.337 8.33333 11.0001 8.33333H16.8134C16.8226 8.4675 16.8334 8.60167 16.8334 8.7375ZM10.1667 15.8333C10.1667 15.6123 10.0789 15.4004 9.92267 15.2441C9.76639 15.0878 9.55443 15 9.33341 15H5.16675C4.94573 15 4.73377 15.0878 4.57749 15.2441C4.42121 15.4004 4.33341 15.6123 4.33341 15.8333C4.33341 16.0543 4.42121 16.2663 4.57749 16.4226C4.73377 16.5789 4.94573 16.6667 5.16675 16.6667H9.33341C9.55443 16.6667 9.76639 16.5789 9.92267 16.4226C10.0789 16.2663 10.1667 16.0543 10.1667 15.8333ZM12.6667 12.5C12.6667 12.279 12.579 12.067 12.4227 11.9107C12.2664 11.7545 12.0544 11.6667 11.8334 11.6667H5.16675C4.94573 11.6667 4.73377 11.7545 4.57749 11.9107C4.42121 12.067 4.33341 12.279 4.33341 12.5C4.33341 12.721 4.42121 12.933 4.57749 13.0893C4.73377 13.2455 4.94573 13.3333 5.16675 13.3333H11.8334C12.0544 13.3333 12.2664 13.2455 12.4227 13.0893C12.579 12.933 12.6667 12.721 12.6667 12.5Z" fill="#01C7FB"/>
</svg>
