<svg width="20" height="20" viewBox="0 0 20 20" fill="none" xmlns="http://www.w3.org/2000/svg">
<g clip-path="url(#clip0_10642_26156)">
<path d="M10.0114 0.400443C10.3999 0.40276 10.7874 0.53782 11.1179 0.808488C11.3205 0.967402 11.4755 1.14377 11.5868 1.36913L12.3316 2.87656C12.8004 3.82542 13.2712 4.77948 13.3775 4.99588C13.601 5.45063 13.7377 5.62914 13.956 5.71098C14.0447 5.74424 14.3395 5.79665 14.5619 5.82719C14.8128 5.86164 15.3025 5.93159 15.6491 5.98239C15.9959 6.03325 16.7762 6.14665 17.383 6.2345C18.6353 6.4158 18.7931 6.44792 19.0382 6.57274C19.1687 6.63919 19.3596 6.78028 19.496 6.9095C19.627 7.0336 19.7411 7.21525 19.8238 7.38512C19.9066 7.55499 19.9592 7.71706 19.972 7.78648C19.9924 7.89752 20.0014 8.03582 19.9991 8.17522C19.993 8.53307 19.9258 8.84291 19.6883 9.14948C19.4834 9.41404 19.0453 9.84572 17.9444 10.9209C16.9836 11.8592 16.3545 12.4907 16.2064 12.6711C16.1936 12.6867 16.1756 12.7103 16.1674 12.7265C16.1462 12.768 16.1246 12.8081 16.1117 12.8635C16.1012 12.9077 16.0969 12.9584 16.0988 13.0257C16.1056 13.2903 16.2086 13.8709 16.4797 15.4261C16.513 15.6167 16.5779 15.9925 16.6238 16.2611C16.6697 16.5298 16.7366 16.9067 16.7723 17.098C16.818 17.3425 16.8443 17.571 16.8517 17.7678C16.8591 17.9647 16.8468 18.1303 16.8176 18.2446C16.7314 18.5811 16.5431 18.8873 16.2937 19.1227C16.0443 19.358 15.7342 19.5219 15.4067 19.5771C15.24 19.6052 15.0417 19.6075 14.8576 19.5856L14.8553 19.5853L14.853 19.5849C14.6507 19.5728 14.4691 19.4898 14.276 19.3948C13.8924 19.2054 13.1517 18.8242 12.352 18.4031C11.7851 18.1046 10.3244 17.3401 10.2275 17.3081C10.0231 17.2407 9.78919 17.2846 9.5198 17.4232C9.21289 17.5812 8.67922 17.8611 8.40371 18.008C8.28281 18.0725 8.02034 18.2109 7.82116 18.3151C7.62159 18.4194 7.05288 18.7181 6.55769 18.9789C6.29463 19.1175 6.03918 19.264 5.8359 19.3473C5.32636 19.5558 4.90459 19.59 4.56125 19.5329C4.21791 19.4758 3.95169 19.3266 3.75669 19.1609C3.57206 19.004 3.41886 18.8193 3.33231 18.6407C3.22678 18.4229 3.16879 18.2301 3.15075 18.0043C3.13269 17.7785 3.15567 17.5184 3.21793 17.1734C3.25996 16.9407 3.33189 16.5299 3.37795 16.2611C3.42399 15.9925 3.48916 15.6167 3.52241 15.4261C3.79355 13.8709 3.89645 13.2903 3.90335 13.0257C3.90525 12.9584 3.90069 12.9077 3.89042 12.8635C3.8775 12.8081 3.8559 12.768 3.83471 12.7265C3.82653 12.7103 3.80848 12.6866 3.79574 12.6711C3.64762 12.4907 3.01853 11.8592 2.05774 10.9209C1.16851 10.0524 0.712036 9.60491 0.461181 9.32471C0.335772 9.18461 0.262277 9.0873 0.21019 8.99983C0.158103 8.91236 0.126197 8.8328 0.0847177 8.72433C0.039398 8.60582 0.00445646 8.40753 0.000806548 8.19562C-0.00280534 7.98371 0.0241038 7.75658 0.0928628 7.5752C0.251672 7.15585 0.475643 6.89466 0.717393 6.72235C0.959143 6.55004 1.22052 6.46702 1.45589 6.41604C1.63735 6.37672 1.86075 6.3411 2.14537 6.30242C2.40601 6.267 2.96013 6.18774 3.37617 6.12643C3.79206 6.06514 4.52967 5.95859 5.01503 5.88955C5.38786 5.83652 5.94888 5.74673 6.04575 5.71059C6.26406 5.62913 6.40099 5.45078 6.62459 4.99586C6.73091 4.77953 7.20205 3.82543 7.67086 2.87654L8.4142 1.37134L8.4161 1.36837C8.5076 1.13754 8.69827 0.959471 8.90323 0.793615C9.23444 0.5287 9.62382 0.398104 10.0123 0.400421L10.0114 0.400443ZM10.0014 1.42297C9.58947 1.41479 9.40873 1.70844 9.23911 2.0226C9.19864 2.0976 9.15553 2.18247 9.10804 2.27842C8.96638 2.56456 8.49239 3.52354 8.05505 4.40887C7.309 5.91916 7.2564 6.01783 7.07596 6.21073C6.91413 6.38373 6.75426 6.50764 6.5673 6.59984C6.38035 6.69204 6.16485 6.75246 5.8912 6.79328C5.46762 6.85648 3.74709 7.10672 2.82659 7.2392C2.47205 7.29796 2.10516 7.33447 1.74352 7.39737C1.43856 7.45315 1.16752 7.60701 1.05515 7.93908C0.917726 8.34537 1.18864 8.60908 1.43129 8.86544C1.7537 9.20003 2.34434 9.77308 3.40431 10.8073C4.02619 11.414 4.3605 11.7456 4.55083 11.9713C4.74118 12.1969 4.78766 12.3096 4.85083 12.513C4.88145 12.6116 4.91837 12.8114 4.92808 12.937C4.93568 13.0353 4.93873 13.092 4.91515 13.2815C4.87964 13.5658 4.78206 14.1357 4.54535 15.5096C4.35827 16.5955 4.25667 17.1794 4.20637 17.5046C4.15966 17.7416 4.14109 17.9817 4.27577 18.2167L4.27768 18.2189L4.27958 18.2212C4.31697 18.2779 4.36303 18.328 4.42067 18.3838C4.49652 18.4572 4.58929 18.5145 4.68762 18.5516C4.99962 18.6801 5.26834 18.5127 5.50335 18.3912C5.80294 18.2358 6.10366 18.0651 6.41302 17.9011C7.41724 17.3688 8.25718 16.9303 8.8067 16.6514C9.17304 16.4654 9.42215 16.3468 9.47427 16.3287C9.61898 16.2785 9.80189 16.251 9.98517 16.2492C10.1684 16.2475 10.3523 16.2717 10.4983 16.3191C10.5621 16.3398 10.7195 16.4086 10.906 16.4976C11.1857 16.6312 11.5402 16.8125 11.8082 16.9625C11.8796 17.0025 12.1574 17.1488 12.4097 17.2796C12.6696 17.4143 12.9681 17.5706 13.0709 17.6256C13.1753 17.6814 13.4246 17.8125 13.6234 17.9163C13.8227 18.0204 14.1772 18.2064 14.4113 18.3292C14.6041 18.4304 14.8909 18.565 14.9883 18.5806C15.284 18.6278 15.6006 18.4503 15.7476 18.1825V18.1822C15.8527 18.0058 15.8411 17.825 15.8181 17.6479C15.7784 17.3605 15.6747 16.7699 15.4576 15.5096C15.067 13.2426 15.0563 13.1784 15.0729 12.9433C15.0815 12.8222 15.1183 12.6218 15.1502 12.5193C15.2141 12.3138 15.2614 12.1992 15.4461 11.9787C15.6307 11.7581 15.9532 11.4382 16.5514 10.8548C18.1403 9.30526 18.6523 8.80168 18.8218 8.6007C18.8649 8.54963 18.8897 8.51371 18.9065 8.48115C19.0335 8.23475 18.9874 7.88255 18.8036 7.66654C18.7698 7.6268 18.7371 7.58804 18.693 7.55441C18.6566 7.52665 18.6151 7.50381 18.5593 7.48275C18.3466 7.40242 17.8812 7.33735 16.7285 7.17198C15.3069 6.96802 14.5358 6.858 14.0875 6.77879C13.7887 6.72598 13.6347 6.68713 13.5276 6.64513C13.4469 6.61346 13.3054 6.53811 13.1586 6.42384C13.0117 6.30956 12.8583 6.1559 12.7438 5.96715C12.6192 5.76164 12.4202 5.3651 11.9478 4.40886C11.2293 2.95442 10.9036 2.29611 10.7419 1.98397V1.98359C10.6049 1.66789 10.3773 1.44539 10.006 1.42295H10.0041L10.0014 1.42297Z" fill="#FDCB2F"/>
</g>
<defs>
<clipPath id="clip0_10642_26156">
<rect width="20" height="20" fill="white"/>
</clipPath>
</defs>
</svg>
