<svg width="438" height="425" viewBox="0 0 438 425" fill="none" xmlns="http://www.w3.org/2000/svg">
<g clip-path="url(#clip0_575_6907)">
<path d="M151.005 18.8977C111.963 18.8977 80.5321 52.959 80.5321 95.269C80.5321 222.108 18.8975 137.1 18.8975 283.84C18.8975 324.922 49.4177 357.994 87.3271 357.994H159.572H277.4H350.051C387.96 357.994 418.479 324.922 418.479 283.84C418.479 136.865 363.259 222.346 363.259 95.269C363.259 52.959 331.826 18.8977 292.784 18.8977H151.005Z" stroke="#5FCAFA" stroke-width="37.7953" stroke-linejoin="round"/>
<path d="M296.315 374.823C296.315 402.367 261.56 424.696 218.688 424.696C175.815 424.696 141.061 402.367 141.061 374.823C141.061 347.279 177.651 350.181 220.523 350.181C263.395 350.181 296.315 347.279 296.315 374.823Z" fill="#5FCAFA"/>
<path d="M241.916 78.5835H195.46C193.125 78.5835 191.232 80.4761 191.232 82.8107C191.232 85.1453 193.125 87.0378 195.46 87.0378H241.916C244.251 87.0378 246.144 85.1453 246.144 82.8107C246.144 80.4761 244.251 78.5835 241.916 78.5835Z" stroke="#5FCAFA" stroke-width="37.7953" stroke-linejoin="round"/>
</g>
<defs>
<clipPath id="clip0_575_6907">
<rect width="437.377" height="424.696" fill="white"/>
</clipPath>
</defs>
</svg>
