<?xml version="1.0" encoding="UTF-8" standalone="no"?>
<!-- Created with Inkscape (http://www.inkscape.org/) -->

<svg
   width="115.72258mm"
   height="112.36745mm"
   viewBox="0 0 115.72258 112.36745"
   version="1.1"
   id="svg1"
   xml:space="preserve"
   xmlns="http://www.w3.org/2000/svg"
   xmlns:svg="http://www.w3.org/2000/svg"><defs
     id="defs1" /><g
     id="layer1"
     transform="translate(-775.46765,117.37857)"><g
       id="g40"
       transform="translate(1.3449309)"
       style="stroke-width:10;stroke-dasharray:none"><path
         id="rect38"
         style="fill:none;stroke:#5fcafa;stroke-width:10;stroke-linejoin:round;stroke-dasharray:none;stroke-opacity:1"
         d="m 814.07631,-112.37857 c -10.33001,0 -18.64608,9.01204 -18.64608,20.206559 0,33.559574 -16.3075,11.067772 -16.3075,49.892721 0,10.869646 8.07517,19.620065 18.10538,19.620065 h 19.11465 31.17557 19.22208 c 10.03022,0 18.10488,-8.750419 18.10488,-19.620065 0,-38.887113 -14.61024,-16.270367 -14.61024,-49.892721 0,-11.194519 -8.31656,-20.206559 -18.64657,-20.206559 z" /><path
         id="path40"
         style="stroke-width:10;stroke-linejoin:round;stroke-dasharray:none"
         d="m 852.52291,-18.206667 c 0,7.287698 -9.19558,13.1955443 -20.5389,13.1955443 -11.34332,0 -20.5389,-5.9078463 -20.5389,-13.1955443 0,-7.287698 9.68109,-6.519766 21.02441,-6.519766 11.34332,0 20.05339,-0.767932 20.05339,6.519766 z" /></g><rect
       style="fill:none;stroke:#5fcafa;stroke-width:10;stroke-linejoin:round;stroke-dasharray:none;stroke-opacity:1"
       id="rect43"
       width="14.528609"
       height="2.2368786"
       x="826.06464"
       y="-96.5867"
       ry="1.1184393" /></g></svg>
