<?xml version="1.0" encoding="UTF-8" standalone="no"?>
<!-- Created with Inkscape (http://www.inkscape.org/) -->

<svg
   width="114.60741mm"
   height="113.85147mm"
   viewBox="0 0 114.60741 113.85147"
   version="1.1"
   id="svg1"
   xml:space="preserve"
   xmlns="http://www.w3.org/2000/svg"
   xmlns:svg="http://www.w3.org/2000/svg"><defs
     id="defs1" /><g
     id="layer1"
     transform="translate(-251.69183,118.72484)"><rect
       style="fill:none;stroke:#5fcafa;stroke-width:10;stroke-linejoin:round;stroke-dasharray:none;stroke-opacity:1"
       id="rect6"
       width="104.60743"
       height="103.85146"
       x="256.69183"
       y="-113.72483"
       ry="29.066242" /><rect
       style="fill:none;stroke:#5fcafa;stroke-width:10;stroke-linejoin:round;stroke-dasharray:none;stroke-opacity:1"
       id="rect7"
       width="29.483313"
       height="1.4094179"
       x="311.06436"
       y="-78.845093"
       ry="0.70470893" /><path
       style="fill:#5fcafa;fill-opacity:1;stroke:#5fcafa;stroke-width:2.5;stroke-linejoin:round;stroke-dasharray:none;stroke-opacity:1"
       d="m 281.48085,-69.490526 c -0.62925,-0.08862 -1.21619,-0.345978 -1.73413,-0.760378 -0.24762,-0.198117 -5.60304,-5.950281 -5.86268,-6.296994 -0.41281,-0.551241 -0.65506,-1.290614 -0.65506,-1.999249 0,-1.415939 0.86459,-2.682656 2.18546,-3.201925 0.49243,-0.19359 1.06271,-0.275371 1.55319,-0.222736 0.70326,0.07546 1.33251,0.336666 1.86495,0.77415 0.10357,0.08509 0.9091,0.932472 1.79008,1.883072 0.88098,0.950593 1.63201,1.756183 1.66893,1.790202 0.0369,0.03401 0.10049,0.06169 0.14123,0.06149 0.0536,-2.57e-4 0.40837,-0.245543 1.28363,-0.887463 0.66525,-0.487901 2.13116,-1.562082 3.25757,-2.387069 1.12641,-0.824986 3.58195,-2.623505 5.45678,-3.996708 1.87482,-1.373207 3.49503,-2.55268 3.60046,-2.621053 0.81579,-0.529091 1.90173,-0.65791 2.84715,-0.337753 1.13765,0.385252 1.98226,1.340965 2.24366,2.538796 0.0769,0.352516 0.0686,1.049982 -0.0166,1.396388 -0.16652,0.676833 -0.46771,1.208701 -0.94377,1.666723 -0.19498,0.187564 -2.09338,1.591193 -8.21197,6.071718 -4.37711,3.205265 -8.05639,5.893638 -8.17617,5.974161 -0.37409,0.251466 -0.71904,0.399646 -1.17046,0.502811 -0.26939,0.06157 -0.85954,0.08882 -1.12224,0.05182 z"
       id="path10" /><rect
       style="fill:none;stroke:#5fcafa;stroke-width:10;stroke-linejoin:round;stroke-dasharray:none;stroke-opacity:1"
       id="rect10"
       width="29.483313"
       height="1.4094179"
       x="311.06436"
       y="-42.335304"
       ry="0.70470893" /><path
       style="fill:#5fcafa;fill-opacity:1;stroke:#5fcafa;stroke-width:2.5;stroke-linejoin:round;stroke-dasharray:none;stroke-opacity:1"
       d="m 281.48085,-32.980741 c -0.62925,-0.08862 -1.21619,-0.345978 -1.73413,-0.760378 -0.24762,-0.198117 -5.60304,-5.950281 -5.86268,-6.296994 -0.41281,-0.551241 -0.65506,-1.290614 -0.65506,-1.999249 0,-1.415939 0.86459,-2.682656 2.18546,-3.201925 0.49243,-0.19359 1.06271,-0.275371 1.55319,-0.222736 0.70326,0.07546 1.33251,0.336666 1.86495,0.77415 0.10357,0.08509 0.9091,0.932472 1.79008,1.883072 0.88098,0.950593 1.63201,1.756183 1.66893,1.790202 0.0369,0.03401 0.10049,0.06169 0.14123,0.06149 0.0536,-2.57e-4 0.40837,-0.245543 1.28363,-0.887463 0.66525,-0.487901 2.13116,-1.562082 3.25757,-2.387069 1.12641,-0.824986 3.58195,-2.623505 5.45678,-3.996708 1.87482,-1.373207 3.49503,-2.55268 3.60046,-2.621053 0.81579,-0.529091 1.90173,-0.65791 2.84715,-0.337753 1.13765,0.385252 1.98226,1.340965 2.24366,2.538796 0.0769,0.352516 0.0686,1.049982 -0.0166,1.396388 -0.16652,0.676833 -0.46771,1.208701 -0.94377,1.666723 -0.19498,0.187564 -2.09338,1.591193 -8.21197,6.071718 -4.37711,3.205265 -8.05639,5.893638 -8.17617,5.974161 -0.37409,0.251466 -0.71904,0.399646 -1.17046,0.502811 -0.26939,0.06157 -0.85954,0.08882 -1.12224,0.05182 z"
       id="path11" /></g></svg>
