<?xml version="1.0" encoding="UTF-8" standalone="no"?>
<!-- Created with Inkscape (http://www.inkscape.org/) -->

<svg
   width="114.45736mm"
   height="115.39194mm"
   viewBox="0 0 114.45736 115.39194"
   version="1.1"
   id="svg1"
   xml:space="preserve"
   xmlns="http://www.w3.org/2000/svg"
   xmlns:svg="http://www.w3.org/2000/svg"><defs
     id="defs1" /><g
     id="layer1"
     transform="translate(-1033.4196,119.25309)"><g
       id="g47"
       transform="matrix(0.97484139,0,0,0.90646793,213.92526,-168.94884)"
       style="stroke-width:10.4866;stroke-dasharray:none"><rect
         style="fill:none;stroke:#020001;stroke-width:10.487;stroke-linejoin:round;stroke-dasharray:none;stroke-opacity:1"
         id="rect44"
         width="67.515282"
         height="47.972672"
         x="115.67239"
         y="-920.32733"
         ry="19.635355"
         transform="matrix(0.02028014,0.99979434,-0.99997529,0.00703049,0,0)" /><path
         id="rect45"
         style="fill:none;stroke:#020001;stroke-width:10.4866;stroke-linejoin:round;stroke-dasharray:none;stroke-opacity:1"
         d="m 937.16514,117.45192 -6.6063,0.0465 c -3.57137,0.0251 -6.81479,1.29299 -9.33428,3.38997 1.11622,2.41666 1.76683,5.09366 1.82418,7.92097 l 0.57257,28.2391 c 0.0602,2.96768 -0.53906,5.77957 -1.65727,8.30492 2.62898,2.14112 5.98721,3.41562 9.6346,3.38997 l 6.6063,-0.0465 c 8.258,-0.0581 14.7712,-6.75184 14.6037,-15.00839 l -0.4351,-21.43797 c -0.1675,-8.25656 -6.9503,-14.85664 -15.2084,-14.79858 z" /><path
         id="rect46"
         style="fill:none;stroke:#020001;stroke-width:10.4866;stroke-linejoin:round;stroke-dasharray:none;stroke-opacity:1"
         d="m 867.10021,117.45192 -6.60631,0.0465 c -8.25806,0.0581 -14.77124,6.75182 -14.60377,15.00838 l 0.43461,21.43798 c 0.16748,8.25655 6.95084,14.85664 15.20889,14.79858 l 6.60579,-0.0465 c 3.57143,-0.0251 6.81534,-1.29296 9.33484,-3.38997 -1.11622,-2.41667 -1.76683,-5.09417 -1.82418,-7.92148 l -0.57309,-28.23859 c -0.0602,-2.96783 0.53895,-5.77997 1.65726,-8.30543 -2.62889,-2.14085 -5.98694,-3.4151 -9.63404,-3.38946 z" /></g><path
       id="path46"
       style="fill:none;stroke:#000001;stroke-width:9.99997;stroke-linejoin:round;stroke-dasharray:none"
       d="m 1107.2463,-97.89057 a 16.362541,16.36254 0 0 1 -16.3625,16.362538 16.362541,16.36254 0 0 1 -16.3625,-16.362538 16.362541,16.36254 0 0 1 16.3625,-16.36254 16.362541,16.36254 0 0 1 16.3625,16.36254 z" /><path
       id="ellipse46"
       style="fill:none;stroke:#000001;stroke-width:9.99997;stroke-linejoin:round;stroke-dasharray:none"
       d="m 1138.8287,-86.278463 a 12.850515,12.850513 0 0 1 -12.8505,12.850513 12.850515,12.850513 0 0 1 -12.8506,-12.850513 12.850515,12.850513 0 0 1 12.8506,-12.85051 12.850515,12.850513 0 0 1 12.8505,12.85051 z" /><path
       id="ellipse47"
       style="fill:none;stroke:#000001;stroke-width:9.99997;stroke-linejoin:round;stroke-dasharray:none"
       d="m 1068.7431,-86.278462 a 12.850515,12.850513 0 0 1 -12.8505,12.850512 12.850515,12.850513 0 0 1 -12.8505,-12.850512 12.850515,12.850513 0 0 1 12.8505,-12.850511 12.850515,12.850513 0 0 1 12.8505,12.850511 z" /></g></svg>
