<?xml version="1.0" encoding="UTF-8"?>
<svg id="Layer_2" data-name="Layer 2" xmlns="http://www.w3.org/2000/svg" viewBox="0 0 102.23 94.71">
  <defs>
    <style>
      .cls-1 {
        fill: #5fcafa;
      }

      .cls-2 {
        fill: #214b92;
      }
    </style>
  </defs>
  <g id="Layer_1-2" data-name="Layer 1">
    <path class="cls-2" d="M93,77.76c-1.36,.05-3.07-.71-4.54-2.06-1.07-.98-1.95-2.11-2.77-3.3-9.94-14.37-19.87-28.74-29.8-43.12-.71-1.03-1.46-2.02-2.39-2.86-1.73-1.54-3.19-1.55-4.96,.02-1.3,1.15-2.3,2.56-3.28,3.98-6.91,10.06-13.81,20.13-20.75,30.17-3.1,4.49-6.28,8.93-9.47,13.35-2.27,3.14-5.3,4.41-9.16,3.51-5.52-1.29-7.67-7.98-4.18-12.42,2.6-3.3,4.8-6.91,7.17-10.39C20.05,38.25,31.26,21.85,42.4,5.41c1.64-2.42,3.43-4.5,6.41-5.14,3.51-.75,6.52,0,8.88,2.9,5.2,6.35,9.52,13.32,14.12,20.08,9.57,14.04,19.3,27.97,28.65,42.16,1.69,2.56,2.5,5.08,.87,7.89-1.7,2.92-4.27,4.43-8.35,4.46Z"/>
    <path class="cls-1" d="M46.45,94.69c-5.42,.02-15.01-.05-24.61-.24-3.93-.08-6.11-2.93-5.2-6.77,.38-1.61,1.09-3.07,2.08-4.37,5.75-7.6,10.82-15.68,16.26-23.5,3.83-5.5,7.64-11.01,11.46-16.53,.61-.88,1.32-1.64,2.23-2.2,2.24-1.37,4.55-.88,6.26,1.49,3.14,4.35,6.24,8.72,9.3,13.13,6.79,9.8,13.51,19.65,20.32,29.44,1.39,2,2.15,3.97,.8,6.23-1.36,2.29-3.36,3.36-6.07,3.34-9.55-.06-19.09-.02-32.82-.02Z"/>
  </g>
</svg>