<svg width="20" height="20" viewBox="0 0 20 20" fill="none" xmlns="http://www.w3.org/2000/svg">
<path d="M17.5 4.99984H4.16667C3.81524 4.99919 3.46786 4.92476 3.14702 4.78135C2.82618 4.63794 2.53904 4.42876 2.30417 4.16734C2.53832 3.90492 2.82529 3.69495 3.14626 3.55119C3.46724 3.40744 3.81497 3.33314 4.16667 3.33317H19.1667C19.3877 3.33317 19.5996 3.24537 19.7559 3.08909C19.9122 2.93281 20 2.72085 20 2.49984C20 2.27882 19.9122 2.06686 19.7559 1.91058C19.5996 1.7543 19.3877 1.6665 19.1667 1.6665H4.16667C3.0616 1.6665 2.00179 2.10549 1.22039 2.88689C0.438987 3.66829 0 4.7281 0 5.83317L0 14.1665C0 15.2716 0.438987 16.3314 1.22039 17.1128C2.00179 17.8942 3.0616 18.3332 4.16667 18.3332H17.5C18.163 18.3332 18.7989 18.0698 19.2678 17.6009C19.7366 17.1321 20 16.4962 20 15.8332V7.49984C20 6.8368 19.7366 6.20091 19.2678 5.73207C18.7989 5.26323 18.163 4.99984 17.5 4.99984ZM18.3333 15.8332C18.3333 16.2923 17.96 16.6665 17.5 16.6665H4.16667C2.78833 16.6665 1.66667 15.5448 1.66667 14.1665V5.8315C2.38803 6.37238 3.26505 6.6653 4.16667 6.6665H17.5C17.96 6.6665 18.3333 7.04067 18.3333 7.49984V15.8332ZM16.6667 11.6665C16.6667 11.8875 16.5789 12.0995 16.4226 12.2558C16.2663 12.412 16.0543 12.4998 15.8333 12.4998C15.6123 12.4998 15.4004 12.412 15.2441 12.2558C15.0878 12.0995 15 11.8875 15 11.6665C15 11.4455 15.0878 11.2335 15.2441 11.0772C15.4004 10.921 15.6123 10.8332 15.8333 10.8332C16.0543 10.8332 16.2663 10.921 16.4226 11.0772C16.5789 11.2335 16.6667 11.4455 16.6667 11.6665Z" fill="#01C7FB"/>
</svg>
