<svg width="40" height="41" viewBox="0 0 40 41" fill="none" xmlns="http://www.w3.org/2000/svg">
<path fill-rule="evenodd" clip-rule="evenodd" d="M20.0011 13.4718C22.1755 13.4719 24.2608 14.3357 25.7984 15.8733C27.3359 17.4108 28.1997 19.4962 28.1998 21.6706C28.1998 26.3943 24.2439 30.0794 19.6119 29.8601C17.4735 29.7586 15.4596 28.8247 14.0006 27.2581C12.5417 25.6914 11.7533 23.6162 11.8042 21.476C11.855 19.3357 12.7409 17.3003 14.2726 15.8046C15.8043 14.309 17.8602 13.4717 20.0011 13.4718ZM9.59074 12.1437L12.9886 15.5415C13.0463 15.601 13.1153 15.6483 13.1915 15.6809C13.2677 15.7134 13.3496 15.7305 13.4324 15.7311C13.5153 15.7317 13.5974 15.7158 13.674 15.6844C13.7507 15.653 13.8203 15.6066 13.8789 15.5481C13.9375 15.4895 13.9839 15.4199 14.0153 15.3432C14.0467 15.2665 14.0626 15.1844 14.062 15.1016C14.0614 15.0187 14.0443 14.9368 14.0118 14.8606C13.9792 14.7845 13.9319 14.7155 13.8725 14.6578L10.4746 11.2603C10.3569 11.1452 10.1987 11.0812 10.0341 11.0821C9.86956 11.0831 9.71201 11.1488 9.59566 11.2652C9.47931 11.3815 9.41353 11.5391 9.41261 11.7036C9.41169 11.8682 9.4757 12.0265 9.59074 12.1441V12.1437ZM10.4746 32.0809L13.8725 28.683C13.9875 28.5654 14.0515 28.4071 14.0506 28.2425C14.0497 28.078 13.9839 27.9205 13.8675 27.8041C13.7512 27.6877 13.5936 27.622 13.4291 27.621C13.2646 27.6201 13.1063 27.6841 12.9886 27.7992L9.59074 31.1971C9.4757 31.3147 9.41169 31.473 9.41261 31.6375C9.41353 31.8021 9.47931 31.9596 9.59566 32.076C9.71201 32.1923 9.86956 32.2581 10.0341 32.259C10.1987 32.26 10.3569 32.1959 10.4746 32.0809ZM30.4114 31.1971L27.0135 27.7992C26.9558 27.7398 26.8868 27.6924 26.8106 27.6599C26.7344 27.6273 26.6525 27.6103 26.5697 27.6097C26.4868 27.6091 26.4047 27.6249 26.328 27.6563C26.2514 27.6878 26.1818 27.7341 26.1232 27.7927C26.0646 27.8513 26.0183 27.9209 25.9868 27.9976C25.9554 28.0742 25.9396 28.1564 25.9402 28.2392C25.9408 28.3221 25.9578 28.404 25.9904 28.4802C26.0229 28.5563 26.0703 28.6253 26.1297 28.683L29.5276 32.0809C29.6454 32.1953 29.8035 32.2587 29.9676 32.2575C30.1318 32.2563 30.2889 32.1905 30.405 32.0744C30.5211 31.9583 30.5868 31.8012 30.588 31.6371C30.5892 31.4729 30.5258 31.3148 30.4114 31.1971ZM29.5276 11.2603L26.1297 14.6582C26.07 14.7158 26.0224 14.7848 25.9897 14.861C25.9569 14.9373 25.9397 15.0193 25.9389 15.1023C25.9382 15.1853 25.954 15.2676 25.9855 15.3444C26.0169 15.4212 26.0633 15.491 26.122 15.5497C26.1807 15.6083 26.2504 15.6548 26.3273 15.6862C26.4041 15.7176 26.4864 15.7334 26.5694 15.7327C26.6523 15.732 26.7344 15.7147 26.8106 15.682C26.8869 15.6492 26.9558 15.6016 27.0135 15.5419L30.4114 12.1441C30.5258 12.0263 30.5892 11.8683 30.588 11.7041C30.5868 11.5399 30.5211 11.3828 30.405 11.2667C30.2889 11.1506 30.1318 11.0849 29.9676 11.0837C29.8035 11.0825 29.6454 11.1459 29.5276 11.2603ZM7.80934 32.4614C8.60229 32.8173 9.27658 33.3931 9.75229 34.1205C10.228 34.8479 10.4852 35.6964 10.4933 36.5655C10.4941 36.6536 10.4761 36.7409 10.4406 36.8215C10.405 36.9021 10.3527 36.9742 10.2871 37.0331L10.2882 37.0343C9.09837 38.1066 7.55337 38.7001 5.95156 38.7001C4.34975 38.7001 2.80475 38.1066 1.61488 37.0343C1.54312 36.9698 1.4873 36.8895 1.45184 36.7998C1.41637 36.7101 1.40222 36.6133 1.41051 36.5172C1.42828 35.6566 1.68988 34.8186 2.16491 34.1007C2.63993 33.3827 3.3089 32.8143 4.0941 32.4614C2.73277 30.8796 3.8602 28.4146 5.95191 28.4146C8.04363 28.4146 9.17105 30.8798 7.80973 32.4614H7.80934ZM8.26973 34.2655C7.82632 33.827 7.26762 33.5232 6.65848 33.3894C6.04935 33.2556 5.41476 33.2974 4.8284 33.5098C4.24204 33.7222 3.72796 34.0966 3.34583 34.5895C2.9637 35.0823 2.72921 35.6735 2.66957 36.2943C3.59889 37.0445 4.7572 37.4537 5.95156 37.4537C7.14593 37.4537 8.30424 37.0445 9.23355 36.2943C9.16029 35.5259 8.8191 34.8077 8.26973 34.2655ZM6.80012 30.0155C6.04637 29.2617 4.75145 29.7979 4.75145 30.8641C4.75145 31.9303 6.04637 32.4666 6.80012 31.7129C7.02516 31.4878 7.15159 31.1825 7.15159 30.8643C7.15159 30.546 7.02516 30.2407 6.80012 30.0157V30.0155ZM7.80934 5.56152C8.60228 5.91739 9.27657 6.49315 9.75227 7.22055C10.228 7.94795 10.4852 8.79648 10.4933 9.66559C10.4941 9.7537 10.4761 9.84097 10.4406 9.9216C10.405 10.0022 10.3527 10.0744 10.2871 10.1332L10.2882 10.1343C9.09838 11.2067 7.55338 11.8002 5.95156 11.8002C4.34975 11.8002 2.80474 11.2067 1.61488 10.1343C1.54311 10.0699 1.48729 9.9896 1.45183 9.89988C1.41636 9.81016 1.40222 9.71342 1.41051 9.6173C1.42828 8.75664 1.68988 7.91867 2.16491 7.20075C2.63993 6.48283 3.3089 5.91441 4.0941 5.56152C2.73277 3.97965 3.8602 1.51465 5.95191 1.51465C8.04363 1.51465 9.17105 3.97988 7.80973 5.56152H7.80934ZM8.26973 7.36559C7.82632 6.92703 7.26761 6.62323 6.65847 6.48947C6.04932 6.3557 5.41473 6.39746 4.82837 6.60989C4.24201 6.82232 3.72792 7.1967 3.3458 7.68958C2.96368 8.18246 2.7292 8.77361 2.66957 9.39441C3.5989 10.1446 4.75721 10.5538 5.95156 10.5538C7.14592 10.5538 8.30422 10.1446 9.23355 9.39441C9.1603 8.62599 8.81912 7.90781 8.26973 7.36559ZM6.80012 3.11559C6.04637 2.36176 4.75145 2.89801 4.75145 3.96418C4.75145 5.03035 6.04637 5.56676 6.80012 4.81293C7.02516 4.58786 7.15159 4.28262 7.15159 3.96434C7.15159 3.64606 7.02516 3.34081 6.80012 3.11574V3.11559ZM35.9085 32.4613C36.7014 32.8172 37.3757 33.3929 37.8514 34.1203C38.3271 34.8477 38.5842 35.6963 38.5924 36.5653C38.5932 36.6534 38.5752 36.7407 38.5397 36.8213C38.5041 36.9019 38.4518 36.9741 38.3863 37.0329L38.3873 37.0341C37.1974 38.1065 35.6524 38.7 34.0506 38.7C32.4488 38.7 30.9038 38.1065 29.7139 37.0341C29.6422 36.9696 29.5864 36.8894 29.5509 36.7996C29.5155 36.7099 29.5013 36.6132 29.5096 36.5171C29.5274 35.6564 29.7889 34.8185 30.2639 34.1006C30.7388 33.3827 31.4077 32.8142 32.1929 32.4613C30.8314 30.8794 31.9585 28.4144 34.0506 28.4144C36.1427 28.4144 37.2693 30.8796 35.9085 32.4613ZM36.3688 34.2654C35.9254 33.8268 35.3667 33.523 34.7575 33.3892C34.1484 33.2555 33.5138 33.2972 32.9275 33.5096C32.3411 33.7221 31.827 34.0964 31.4449 34.5893C31.0628 35.0822 30.8283 35.6733 30.7686 36.2941C31.6979 37.0444 32.8563 37.4536 34.0506 37.4536C35.245 37.4536 36.4033 37.0444 37.3326 36.2941C37.2593 35.5257 36.9182 34.8076 36.3688 34.2654ZM34.8993 30.0154C34.1455 29.2615 32.8506 29.7978 32.8506 30.8639C32.8506 31.9301 34.1454 32.4664 34.8993 31.7125C35.1243 31.4875 35.2507 31.1822 35.2507 30.8639C35.2507 30.5457 35.1243 30.2404 34.8993 30.0154ZM35.9085 5.56152C36.7014 5.91741 37.3757 6.49317 37.8514 7.22056C38.3271 7.94796 38.5842 8.79649 38.5924 9.66559C38.5932 9.75369 38.5752 9.84096 38.5396 9.92158C38.5041 10.0022 38.4518 10.0744 38.3863 10.1332L38.3873 10.1343C37.1974 11.2067 35.6524 11.8002 34.0506 11.8002C32.4488 11.8002 30.9038 11.2067 29.7139 10.1343C29.6422 10.0699 29.5864 9.9896 29.5509 9.89987C29.5155 9.81015 29.5013 9.71342 29.5096 9.6173C29.5274 8.75668 29.7889 7.91875 30.2639 7.20083C30.7388 6.48291 31.4077 5.91447 32.1929 5.56152C30.8314 3.97965 31.9585 1.51465 34.0506 1.51465C36.1427 1.51465 37.2693 3.97988 35.9085 5.56152ZM36.3688 7.36559C35.9254 6.92703 35.3667 6.62323 34.7575 6.48947C34.1484 6.3557 33.5138 6.39746 32.9274 6.60989C32.3411 6.82232 31.827 7.1967 31.4449 7.68958C31.0627 8.18246 30.8283 8.77361 30.7686 9.39441C31.698 10.1446 32.8563 10.5538 34.0506 10.5538C35.245 10.5538 36.4033 10.1446 37.3326 9.39441C37.2594 8.62599 36.9182 7.90781 36.3688 7.36559ZM34.8993 3.11559C34.1455 2.36176 32.8506 2.89801 32.8506 3.96418C32.8506 5.03035 34.1454 5.5666 34.8993 4.81277C35.1243 4.58768 35.2507 4.28245 35.2507 3.96418C35.2507 3.64591 35.1243 3.34068 34.8993 3.11559ZM20.0011 21.6468C21.5245 21.6561 22.3308 19.7829 21.2293 18.6815C20.1382 17.5903 18.2641 18.3668 18.2641 19.9098C18.2642 20.3704 18.4473 20.8121 18.773 21.1379C19.0987 21.4636 19.5404 21.6466 20.0011 21.6468ZM22.0913 22.0435C22.9244 22.3733 23.6682 22.8946 24.2625 23.5652C24.8567 24.2358 25.2849 25.0368 25.5122 25.9035C26.3024 24.8746 26.7888 23.6452 26.9164 22.3542C27.044 21.0632 26.8076 19.7623 26.2341 18.5987C25.6606 17.4351 24.7728 16.4552 23.6713 15.7701C22.5697 15.0849 21.2984 14.7218 20.0011 14.7218C18.7038 14.7218 17.4325 15.0849 16.3309 15.7701C15.2293 16.4552 14.3416 17.4351 13.7681 18.5987C13.1946 19.7623 12.9582 21.0632 13.0858 22.3542C13.2134 23.6452 13.6998 24.8746 14.49 25.9035C14.7173 25.0368 15.1454 24.2357 15.7397 23.5652C16.334 22.8946 17.0778 22.3733 17.9109 22.0435C17.487 21.6282 17.1964 21.0962 17.0761 20.5151C16.9559 19.934 17.0114 19.3303 17.2357 18.7809C17.4599 18.2315 17.8427 17.7614 18.3352 17.4304C18.8278 17.0995 19.4077 16.9228 20.0011 16.9228C20.5945 16.9228 21.1744 17.0995 21.667 17.4304C22.1595 17.7614 22.5423 18.2315 22.7665 18.7809C22.9908 19.3303 23.0463 19.934 22.9261 20.5151C22.8058 21.0962 22.5152 21.6282 22.0913 22.0435ZM23.1304 24.1817C22.5259 23.5838 21.7629 23.1716 20.9315 22.9938C20.1002 22.816 19.2353 22.8801 18.4392 23.1784C17.6431 23.4767 16.9491 23.9969 16.4393 24.6772C15.9296 25.3576 15.6254 26.1698 15.5627 27.0176C16.8099 28.0531 18.3799 28.6199 20.0009 28.6199C21.6219 28.6199 23.1919 28.0531 24.439 27.0176C24.3609 25.945 23.896 24.9372 23.1306 24.1817H23.1304Z" fill="#214b92"/>
</svg>
