<svg width="40" height="41" viewBox="0 0 40 41" fill="none" xmlns="http://www.w3.org/2000/svg">
<path fill-rule="evenodd" clip-rule="evenodd" d="M34.6838 19.4912C34.5203 19.5188 34.3745 19.6101 34.2784 19.7451C34.1823 19.8801 34.1438 20.0478 34.1712 20.2112C34.3062 21.0112 34.375 21.8175 34.375 22.6075C34.375 27.0125 32.4125 30.9887 29.2475 33.6362C28.9837 31.9031 28.2352 30.2799 27.0884 28.954C25.9416 27.628 24.4432 26.6534 22.7662 26.1425C23.4527 25.687 24.0158 25.0688 24.4056 24.343C24.7953 23.6172 24.9995 22.8063 25 21.9825C25 19.225 22.7575 16.9825 20 16.9825C17.2425 16.9825 15 19.225 15 21.9825C15 23.7175 15.8888 25.245 17.2337 26.1425C15.5568 26.6534 14.0584 27.628 12.9116 28.954C11.7648 30.2799 11.0163 31.9031 10.7525 33.6362C9.14151 32.2863 7.8471 30.5986 6.961 28.6927C6.07491 26.7868 5.6188 24.7093 5.625 22.6075C5.625 21.8175 5.69375 21.0125 5.82875 20.2112C5.8438 20.1297 5.84248 20.046 5.82486 19.965C5.80725 19.884 5.77369 19.8073 5.72615 19.7394C5.67861 19.6714 5.61803 19.6137 5.54794 19.5694C5.47785 19.5251 5.39965 19.4952 5.3179 19.4814C5.23614 19.4677 5.15247 19.4703 5.07174 19.4892C4.99102 19.5081 4.91486 19.5429 4.8477 19.5915C4.78054 19.6401 4.72372 19.7016 4.68055 19.7723C4.63738 19.8431 4.60872 19.9218 4.59625 20.0037C4.45027 20.864 4.37626 21.7349 4.375 22.6075C4.375 30.2825 9.8575 36.7612 17.41 38.0112C17.5706 38.032 17.733 37.9896 17.863 37.893C17.993 37.7964 18.0804 37.6531 18.1068 37.4933C18.1333 37.3335 18.0966 37.1697 18.0046 37.0364C17.9126 36.9031 17.7725 36.8107 17.6137 36.7787C15.5716 36.4414 13.6269 35.6652 11.9138 34.5037C12.2125 30.2625 15.7 26.9825 20 26.9825C24.3 26.9825 27.7862 30.2625 28.0875 34.5037C26.3739 35.6654 24.4288 36.4416 22.3862 36.7787C22.303 36.7895 22.2228 36.8169 22.1504 36.8594C22.078 36.9018 22.0149 36.9584 21.9648 37.0257C21.9148 37.0931 21.8788 37.1699 21.859 37.2514C21.8393 37.333 21.8361 37.4177 21.8498 37.5005C21.8635 37.5833 21.8937 37.6625 21.9387 37.7334C21.9837 37.8042 22.0424 37.8653 22.1115 37.913C22.1806 37.9606 22.2585 37.9939 22.3408 38.0108C22.423 38.0277 22.5077 38.0278 22.59 38.0112C30.1425 36.7612 35.625 30.2837 35.625 22.6075C35.625 21.7475 35.55 20.8712 35.4037 20.0037C35.3904 19.9227 35.3612 19.845 35.3177 19.7753C35.2743 19.7056 35.2174 19.6452 35.1505 19.5975C35.0835 19.5499 35.0078 19.516 34.9277 19.4977C34.8476 19.4795 34.7647 19.4773 34.6838 19.4912ZM16.25 21.9825C16.25 19.915 17.9325 18.2325 20 18.2325C22.0675 18.2325 23.75 19.915 23.75 21.9825C23.75 24.05 22.0675 25.7325 20 25.7325C17.9325 25.7325 16.25 24.05 16.25 21.9825ZM26.845 6.95623C26.8091 6.84509 26.7427 6.74624 26.6534 6.6709C26.5642 6.59556 26.4556 6.54674 26.34 6.52998L22.3463 5.94998L20.56 2.32998C20.35 1.90498 19.65 1.90498 19.44 2.32998L17.6538 5.94998L13.66 6.52998C13.5446 6.54674 13.4361 6.59548 13.3469 6.67067C13.2578 6.74586 13.1914 6.84451 13.1554 6.95546C13.1193 7.0664 13.1151 7.18521 13.1431 7.29846C13.1711 7.4117 13.2302 7.51484 13.3138 7.59623L16.2038 10.4125L15.5212 14.39C15.5015 14.505 15.5143 14.6233 15.5583 14.7314C15.6022 14.8395 15.6756 14.9331 15.7701 15.0017C15.8645 15.0702 15.9763 15.111 16.0927 15.1193C16.2091 15.1276 16.3255 15.1032 16.4287 15.0487L20 13.17L23.5713 15.0487C23.6743 15.104 23.7909 15.1289 23.9075 15.1205C24.0241 15.112 24.136 15.0707 24.23 15.0012C24.3246 14.9326 24.398 14.8388 24.442 14.7306C24.486 14.6223 24.4987 14.5039 24.4788 14.3887L23.7963 10.4137L26.6875 7.59498C26.771 7.5137 26.8301 7.41071 26.8581 7.29762C26.8862 7.18453 26.8821 7.06585 26.8462 6.95498L26.845 6.95623ZM22.6875 9.74498C22.6149 9.81581 22.5606 9.90321 22.5292 9.99966C22.4979 10.0961 22.4904 10.1988 22.5075 10.2987L23.0325 13.3525L20.29 11.91C20.2001 11.8631 20.1002 11.8386 19.9987 11.8386C19.8973 11.8386 19.7974 11.8631 19.7075 11.91L16.9662 13.3525L17.49 10.2987C17.5071 10.1988 17.4996 10.0961 17.4683 9.99966C17.4369 9.90321 17.3826 9.81581 17.31 9.74498L15.0925 7.58373L18.1575 7.13873C18.2576 7.12403 18.3526 7.08532 18.4345 7.02589C18.5163 6.96646 18.5825 6.88809 18.6275 6.79748L20 4.01998L21.3713 6.79873C21.4162 6.88934 21.4824 6.96771 21.5643 7.02714C21.6461 7.08657 21.7412 7.12528 21.8412 7.13998L24.9062 7.58498L22.6887 9.74623L22.6875 9.74498Z" fill="#214b92"/>
<path fill-rule="evenodd" clip-rule="evenodd" d="M5.04407 17.0112C5.02402 17.1263 5.03663 17.2448 5.08049 17.3531C5.12435 17.4614 5.19769 17.5552 5.29219 17.624C5.38669 17.6927 5.49857 17.7336 5.61512 17.7419C5.73168 17.7503 5.84824 17.7258 5.95157 17.6712L8.75032 16.1987L11.5503 17.6712C11.6532 17.7262 11.7696 17.751 11.8859 17.7426C12.0023 17.7342 12.1139 17.693 12.2078 17.6237C12.3024 17.5551 12.3758 17.4613 12.4198 17.3531C12.4638 17.2448 12.4765 17.1264 12.4566 17.0112L11.9216 13.895L14.1866 11.6887C14.2705 11.6074 14.3299 11.5042 14.3582 11.3907C14.3864 11.2773 14.3822 11.1582 14.3461 11.0471C14.3101 10.9359 14.2436 10.8371 14.1542 10.7618C14.0647 10.6865 13.956 10.6378 13.8403 10.6212L10.7103 10.1675L9.31032 7.32998C9.10032 6.90498 8.40032 6.90498 8.19032 7.32998L6.79032 10.1675L3.66032 10.6212C3.54463 10.6378 3.43591 10.6865 3.3465 10.7618C3.25709 10.8371 3.19058 10.9359 3.15451 11.0471C3.11845 11.1582 3.11429 11.2773 3.14249 11.3907C3.1707 11.5042 3.23014 11.6074 3.31407 11.6887L5.57907 13.895L5.04407 17.0112ZM5.09407 11.6775L7.29407 11.3575C7.39437 11.343 7.48965 11.3043 7.57174 11.2449C7.65382 11.1855 7.72025 11.107 7.76532 11.0162L8.75032 9.01998L9.73532 11.0162C9.78028 11.1068 9.84652 11.1852 9.92837 11.2446C10.0102 11.3041 10.1052 11.3428 10.2053 11.3575L12.4066 11.6775L10.8141 13.2287C10.7415 13.2996 10.6872 13.387 10.6558 13.4834C10.6244 13.5799 10.617 13.6825 10.6341 13.7825L11.0103 15.975L9.04157 14.94C8.95165 14.8931 8.85174 14.8686 8.75032 14.8686C8.64891 14.8686 8.549 14.8931 8.45907 14.94L6.49032 15.975L6.86532 13.7825C6.88256 13.6826 6.8753 13.58 6.84417 13.4836C6.81303 13.3871 6.75896 13.2997 6.68657 13.2287L5.09407 11.6775ZM36.3403 10.6212L33.2103 10.1675L31.8103 7.32998C31.6003 6.90498 30.9003 6.90498 30.6903 7.32998L29.2903 10.1675L26.1603 10.6212C26.0446 10.6378 25.9359 10.6865 25.8465 10.7618C25.7571 10.8371 25.6906 10.9359 25.6545 11.0471C25.6185 11.1582 25.6143 11.2773 25.6425 11.3907C25.6707 11.5042 25.7301 11.6074 25.8141 11.6887L28.0791 13.895L27.5441 17.0112C27.524 17.1263 27.5366 17.2448 27.5805 17.3531C27.6243 17.4614 27.6977 17.5552 27.7922 17.624C27.8867 17.6927 27.9986 17.7336 28.1151 17.7419C28.2317 17.7503 28.3482 17.7258 28.4516 17.6712L31.2503 16.1987L34.0503 17.6712C34.1532 17.7262 34.2696 17.751 34.3859 17.7426C34.5023 17.7342 34.6139 17.693 34.7078 17.6237C34.8024 17.5551 34.8758 17.4613 34.9198 17.3531C34.9638 17.2448 34.9765 17.1264 34.9566 17.0112L34.4216 13.895L36.6866 11.6887C36.7705 11.6074 36.8299 11.5042 36.8582 11.3907C36.8864 11.2773 36.8822 11.1582 36.8461 11.0471C36.8101 10.9359 36.7436 10.8371 36.6542 10.7618C36.5647 10.6865 36.456 10.6378 36.3403 10.6212ZM33.3141 13.2287C33.2415 13.2996 33.1872 13.387 33.1558 13.4834C33.1244 13.5799 33.117 13.6825 33.1341 13.7825L33.5103 15.975L31.5416 14.94C31.4516 14.8931 31.3517 14.8686 31.2503 14.8686C31.1489 14.8686 31.049 14.8931 30.9591 14.94L28.9903 15.975L29.3653 13.7825C29.3826 13.6826 29.3753 13.58 29.3442 13.4836C29.313 13.3871 29.259 13.2997 29.1866 13.2287L27.5941 11.6775L29.7941 11.3575C29.8944 11.343 29.9897 11.3043 30.0717 11.2449C30.1538 11.1855 30.2202 11.107 30.2653 11.0162L31.2503 9.01998L32.2353 11.0162C32.2803 11.1068 32.3465 11.1852 32.4284 11.2446C32.5102 11.3041 32.6052 11.3428 32.7053 11.3575L34.9066 11.6775L33.3141 13.2287Z" fill="#214b92"/>
<path d="M20 38.2324C20.3452 38.2324 20.625 37.9526 20.625 37.6074C20.625 37.2622 20.3452 36.9824 20 36.9824C19.6548 36.9824 19.375 37.2622 19.375 37.6074C19.375 37.9526 19.6548 38.2324 20 38.2324Z" fill="#214b92"/>
</svg>
