<svg width="54" height="60" viewBox="0 0 54 60" fill="none" xmlns="http://www.w3.org/2000/svg">
<path d="M17.1067 40.9352C15.5154 42.1601 14.2286 43.7257 13.3438 45.5132C12.4589 47.3006 11.9994 49.2631 12 51.2515V55.189H4C1.78667 55.189 0 53.4302 0 51.2515V48.6265C0 43.5471 4.17333 39.439 9.33333 39.439H12C13.8933 39.439 15.64 39.9902 17.1067 40.9352Z" fill="url(#paint0_linear_7291_987)"/>
<path d="M42.6667 39.439C45.9805 39.439 48.6667 36.7946 48.6667 33.5327C48.6667 30.2708 45.9805 27.6265 42.6667 27.6265C39.353 27.6265 36.6667 30.2708 36.6667 33.5327C36.6667 36.7946 39.353 39.439 42.6667 39.439Z" fill="url(#paint1_linear_7291_987)"/>
<path d="M10.6667 39.439C13.9805 39.439 16.6667 36.7946 16.6667 33.5327C16.6667 30.2708 13.9805 27.6265 10.6667 27.6265C7.35304 27.6265 4.66675 30.2708 4.66675 33.5327C4.66675 36.7946 7.35304 39.439 10.6667 39.439Z" fill="url(#paint2_linear_7291_987)"/>
<path d="M53.3332 48.6265V51.2515C53.3332 53.4302 51.5466 55.189 49.3332 55.189H41.3332V51.2515C41.3332 47.0646 39.3332 43.3371 36.2266 40.9352C37.6932 39.9902 39.4399 39.439 41.3332 39.439H43.9999C49.1599 39.439 53.3332 43.5471 53.3332 48.6265Z" fill="url(#paint3_linear_7291_987)"/>
<path d="M26.6666 40.7515C30.7167 40.7515 33.9999 37.5195 33.9999 33.5327C33.9999 29.5459 30.7167 26.314 26.6666 26.314C22.6165 26.314 19.3333 29.5459 19.3333 33.5327C19.3333 37.5195 22.6165 40.7515 26.6666 40.7515Z" fill="url(#paint4_linear_7291_987)"/>
<path d="M28 40.7516H25.3333C19.452 40.7516 14.6667 45.4622 14.6667 51.2516V55.1891C14.6667 57.36 16.4613 59.1266 18.6667 59.1266H34.6667C36.872 59.1266 38.6667 57.36 38.6667 55.1891V51.2516C38.6667 45.4622 33.8813 40.7516 28 40.7516ZM46 17.9619L42.7827 19.088C42.5716 19.1618 42.3454 19.184 42.1237 19.1525C41.902 19.1209 41.6914 19.0367 41.5102 18.9071C41.329 18.7774 41.1826 18.6063 41.0837 18.4084C40.9849 18.2106 40.9364 17.992 40.9427 17.7715L41.036 14.4115L38.9533 11.7472C38.8169 11.5723 38.7257 11.3674 38.6877 11.1501C38.6497 10.9329 38.6659 10.7097 38.7351 10.5C38.8043 10.2903 38.9243 10.1003 39.0847 9.94649C39.2451 9.79265 39.4412 9.67955 39.656 9.61698L42.932 8.66673L44.8627 5.89341C44.9893 5.7115 45.159 5.5627 45.3572 5.45989C45.5553 5.35707 45.776 5.30334 46 5.30334C46.224 5.30334 46.4446 5.35707 46.6428 5.45989C46.841 5.5627 47.0107 5.7115 47.1373 5.89341L49.068 8.66673L52.344 9.61698C53.2733 9.88604 53.6373 10.9912 53.0467 11.7472L50.964 14.4115L51.0573 17.7715C51.0632 17.9919 51.0146 18.2103 50.9156 18.408C50.8166 18.6057 50.6703 18.7767 50.4891 18.9063C50.308 19.0358 50.0976 19.1201 49.876 19.1517C49.6545 19.1834 49.4284 19.1615 49.2173 19.088L46 17.9619ZM7.33332 17.9619L4.11598 19.088C3.90492 19.1618 3.67875 19.184 3.45704 19.1525C3.23533 19.1209 3.02477 19.0367 2.84356 18.9071C2.66236 18.7774 2.51598 18.6063 2.41708 18.4084C2.31818 18.2106 2.26976 17.992 2.27598 17.7715L2.36932 14.4115L0.286652 11.7472C0.150194 11.5723 0.05902 11.3674 0.0210018 11.1501C-0.0170165 10.9329 -0.000736192 10.7097 0.0684369 10.5C0.13761 10.2903 0.257596 10.1003 0.418036 9.94649C0.578476 9.79265 0.774547 9.67955 0.989318 9.61698L4.26532 8.66673L6.19599 5.89341C6.3226 5.7115 6.49233 5.5627 6.6905 5.45989C6.88867 5.35707 7.10931 5.30334 7.33332 5.30334C7.55733 5.30334 7.77797 5.35707 7.97614 5.45989C8.17431 5.5627 8.34404 5.7115 8.47065 5.89341L10.4013 8.66673L13.6773 9.61698C14.6067 9.88604 14.9707 10.9912 14.38 11.7472L12.2973 14.4115L12.3907 17.7715C12.3966 17.9919 12.3479 18.2103 12.2489 18.408C12.15 18.6057 12.0036 18.7767 11.8225 18.9063C11.6414 19.0358 11.4309 19.1201 11.2094 19.1517C10.9878 19.1834 10.7617 19.1615 10.5507 19.088L7.33332 17.9619ZM26.6667 15.0087L22.852 16.3435C22.6018 16.4311 22.3337 16.4572 22.0709 16.4199C21.8081 16.3825 21.5585 16.2826 21.3437 16.1289C21.1289 15.9753 20.9553 15.7724 20.8381 15.5379C20.7208 15.3034 20.6633 15.0443 20.6707 14.783L20.7813 10.7995L18.312 7.64035C18.1502 7.43306 18.0422 7.19013 17.9971 6.93253C17.9521 6.67494 17.9714 6.41042 18.0535 6.16183C18.1355 5.91323 18.2778 5.68803 18.468 5.50566C18.6582 5.3233 18.8907 5.18925 19.1453 5.1151L23.0293 3.98766L25.3187 0.699852C25.4688 0.484104 25.67 0.30762 25.905 0.185675C26.14 0.0637305 26.4017 0 26.6673 0C26.933 0 27.1946 0.0637305 27.4296 0.185675C27.6646 0.30762 27.8659 0.484104 28.016 0.699852L30.3053 3.98766L34.1893 5.1151C34.4439 5.18925 34.6764 5.3233 34.8666 5.50566C35.0569 5.68803 35.1991 5.91323 35.2812 6.16183C35.3632 6.41042 35.3825 6.67494 35.3375 6.93253C35.2925 7.19013 35.1844 7.43306 35.0227 7.64035L32.5533 10.7995L32.664 14.783C32.6713 15.0443 32.6138 15.3034 32.4966 15.5379C32.3793 15.7724 32.2058 15.9753 31.991 16.1289C31.7762 16.2826 31.5266 16.3825 31.2638 16.4199C31.001 16.4572 30.7329 16.4311 30.4827 16.3435L26.6667 15.0087Z" fill="url(#paint5_linear_7291_987)"/>
<defs>
<linearGradient id="paint0_linear_7291_987" x1="8.55333" y1="39.439" x2="8.55333" y2="55.189" gradientUnits="userSpaceOnUse">
<stop stop-color="#214b92"/>
<stop offset="1" stop-color="#005A64"/>
</linearGradient>
<linearGradient id="paint1_linear_7291_987" x1="42.6667" y1="27.6265" x2="42.6667" y2="39.439" gradientUnits="userSpaceOnUse">
<stop stop-color="#214b92"/>
<stop offset="1" stop-color="#005A64"/>
</linearGradient>
<linearGradient id="paint2_linear_7291_987" x1="10.6667" y1="27.6265" x2="10.6667" y2="39.439" gradientUnits="userSpaceOnUse">
<stop stop-color="#214b92"/>
<stop offset="1" stop-color="#005A64"/>
</linearGradient>
<linearGradient id="paint3_linear_7291_987" x1="44.7799" y1="39.439" x2="44.7799" y2="55.189" gradientUnits="userSpaceOnUse">
<stop stop-color="#214b92"/>
<stop offset="1" stop-color="#005A64"/>
</linearGradient>
<linearGradient id="paint4_linear_7291_987" x1="26.6666" y1="26.314" x2="26.6666" y2="40.7515" gradientUnits="userSpaceOnUse">
<stop stop-color="#214b92"/>
<stop offset="1" stop-color="#005A64"/>
</linearGradient>
<linearGradient id="paint5_linear_7291_987" x1="26.6672" y1="0" x2="26.6672" y2="59.1266" gradientUnits="userSpaceOnUse">
<stop stop-color="#214b92"/>
<stop offset="1" stop-color="#005A64"/>
</linearGradient>
</defs>
</svg>
