<svg width="81" height="81" viewBox="0 0 81 81" fill="none" xmlns="http://www.w3.org/2000/svg">
<g clip-path="url(#clip0_7051_23658)">
<path d="M40.5999 3.99072C19.4576 3.99072 2.31836 21.1299 2.31836 42.2723C2.31836 51.8921 5.86742 60.6823 11.7266 67.4073L24.0801 76.8148C29.0815 79.211 34.6838 80.5538 40.5999 80.5538C61.7423 80.5538 78.8815 63.4146 78.8815 42.2723C78.8815 21.1299 61.7423 3.99072 40.5999 3.99072Z" fill="#214b92"/>
<path d="M43.0792 66.3735L42.983 66.1976C42.4259 65.1798 42.8028 63.8912 43.8206 63.3342L43.9378 63.2701C42.8716 63.8537 41.5217 63.4588 40.9381 62.3928C40.3545 61.3267 40.7494 59.9768 41.8155 59.3932C40.7492 59.9768 39.3995 59.582 38.8158 58.5157C38.2322 57.4495 38.627 56.0998 39.6931 55.516C38.6269 56.0996 37.277 55.7048 36.6934 54.6385C36.1098 53.5724 36.5047 52.2226 37.5709 51.6388L40.4502 50.0628L40.0112 49.261C39.8519 48.9699 39.6325 48.7159 39.3677 48.5157C39.1029 48.3156 38.7986 48.1739 38.475 48.1001C37.3054 47.8333 36.0827 47.9229 34.9644 48.3573C33.8462 48.7917 32.8836 49.5509 32.2008 50.5373C30.9423 52.406 32.2083 50.1271 29.0183 57.4432C28.8125 57.9314 28.4476 58.3355 27.983 58.5899L11.7266 67.4073C15.1413 71.3267 19.3405 74.544 24.08 76.8148L35.5637 70.5859C35.8786 70.4135 36.2288 70.3157 36.5873 70.2999L40.0784 70.1467C40.437 70.1309 40.7872 70.0331 41.102 69.8607L45.7173 67.3342L45.5689 67.3706C44.6281 67.6688 43.57 67.2699 43.0792 66.3735Z" fill="#FCAD6D"/>
<path d="M49.8399 65.1243L38.3764 44.1201L30.3208 45.9757L42.8617 68.9539C43.9192 70.8809 46.3386 71.5857 48.2656 70.5282C50.1925 69.4707 50.8974 67.0514 49.8399 65.1243Z" fill="#005A64"/>
<path d="M37.5528 51.1629C36.6649 49.5359 37.5752 47.5107 39.3813 47.0946L39.9308 46.9681L38.3763 44.1196L30.3208 45.9754L42.8617 68.9535C43.8988 70.8434 46.2456 71.5567 48.1535 70.5859L37.5528 51.1629Z" fill="#005A64"/>
<path d="M42.8387 66.5046L42.7425 66.3286C42.1853 65.3108 42.5623 64.0222 43.5801 63.465L49.5083 60.22C50.5261 59.6628 51.8147 60.0399 52.3719 61.0577L52.4681 61.2336C53.0253 62.2514 52.6483 63.54 51.6305 64.0972L45.7023 67.3422C44.6845 67.8994 43.3959 67.5224 42.8387 66.5046Z" fill="#F9BA8F"/>
<path d="M40.6976 62.5238C40.114 61.4575 40.5088 60.1077 41.5751 59.5241L48.6824 55.6336C49.7487 55.05 51.0985 55.4449 51.6821 56.511C52.2657 57.5771 51.8709 58.9269 50.8048 59.5106L43.6974 63.4011C42.631 63.9849 41.2812 63.5899 40.6976 62.5238Z" fill="#F9BA8F"/>
<path d="M38.5754 58.6467C37.9918 57.5805 38.3866 56.2306 39.4527 55.647L47.0023 51.5145C48.0685 50.931 49.4184 51.3258 50.002 52.3919C50.5856 53.4581 50.1907 54.808 49.1246 55.3916L41.5751 59.5241C40.5088 60.1077 39.159 59.7128 38.5754 58.6467ZM46.9518 49.0228C46.3682 47.9566 45.0184 47.5617 43.9521 48.1453L37.3304 51.7699C36.2641 52.3535 35.8693 53.7033 36.4531 54.7695C37.0366 55.8358 38.3865 56.2306 39.4527 55.6469L46.0743 52.0224C47.1406 51.4388 47.5354 50.0891 46.9518 49.0228Z" fill="#F9BA8F"/>
<path d="M28.2334 58.4288C28.3325 59.8124 28.9232 61.9529 31.5618 62.4515C33.3165 62.783 35.0923 60.5534 35.0923 60.5534C37.3132 57.4505 37.3242 55.1602 37.1736 54.1627C37.1604 54.0763 37.277 54.0373 37.319 54.1138L37.8854 55.1485C38.0773 55.4996 38.3345 55.8108 38.6432 56.0654C39.3546 56.5835 40.3284 56.6794 41.1515 56.229C41.9129 55.8121 42.3509 55.0346 42.3703 54.2249C42.3926 53.2937 41.9743 52.8863 40.0117 49.2605C39.8521 48.9709 39.6338 48.7177 39.3707 48.5173L39.3682 48.5152C39.1033 48.3153 38.7991 48.1737 38.4756 48.0996C37.306 47.8328 36.0833 47.9224 34.965 48.3568C33.8468 48.7912 32.8842 49.5504 32.2014 50.5368C30.9429 52.4055 32.2089 50.1266 29.0189 57.4427C28.8519 57.8369 28.5803 58.1779 28.2334 58.4288Z" fill="#FCAD6D"/>
<path d="M39.6076 53.1363L40.6173 54.9808C40.8832 55.4666 41.4695 55.6705 41.9732 55.4768C42.2214 55.1055 42.3589 54.6713 42.3699 54.2249C42.3898 53.3977 42.0445 53.0135 41.024 51.1104L40.0432 51.6472C39.5138 51.9369 39.3179 52.6071 39.6076 53.1363Z" fill="#F9DFCD"/>
<path d="M32.4267 61.6429C32.3533 61.507 32.3278 61.3502 32.3546 61.198C32.3814 61.0458 32.4588 60.9071 32.5742 60.8044C36.6028 57.22 36.0063 53.2361 35.9999 53.1962C35.9742 53.0184 36.0194 52.8376 36.1257 52.6927C36.232 52.5478 36.3909 52.4505 36.5682 52.4215C36.7455 52.3926 36.9271 52.4344 37.074 52.538C37.2208 52.6416 37.3211 52.7987 37.3533 52.9754C37.3847 53.1684 38.0716 57.7487 33.4859 61.8289C33.4087 61.8976 33.3169 61.948 33.2174 61.9763C33.1179 62.0045 33.0133 62.0099 32.9114 61.992C32.8095 61.9742 32.713 61.9335 32.6291 61.873C32.5451 61.8126 32.476 61.7339 32.4267 61.6429Z" fill="#FD995B"/>
<path d="M26.5208 45.3492L22.0103 25.7679C21.9813 25.6401 21.9664 25.5095 21.9659 25.3784C16.6419 26.8864 13.3828 32.3242 14.6386 37.7761C15.8944 43.2279 21.2042 46.6922 26.6512 45.7189C26.5943 45.6008 26.5506 45.4768 26.5208 45.3492Z" fill="#E9EFFF"/>
<path d="M15.7368 40.598C17.8767 44.3636 22.2185 46.5108 26.6515 45.7189C26.5945 45.6009 26.5507 45.4769 26.5209 45.3492L25.1503 39.3991C25.0228 39.3327 24.8989 39.2596 24.7792 39.1802C24.7795 39.1802 20.8529 43.3264 15.7368 40.598Z" fill="#D3DCFB"/>
<path d="M51.7006 12.2452C47.6066 17.0412 42.2286 20.5688 36.1987 22.4135C36.2062 22.4405 36.2153 22.4668 36.2217 22.4944L40.7322 42.0757C40.7386 42.1033 40.7419 42.1308 40.747 42.1585C46.9763 41.1792 53.3556 41.9986 59.1351 44.5204L68.8383 48.7547L58.5734 4.19238L51.7006 12.2452Z" fill="#E9EFFF"/>
<path d="M54.6262 8.81754L59.4985 28.5116C60.2929 31.7225 57.7249 34.791 54.4263 34.5438C50.5284 34.2516 45.2953 34.3574 39.6203 35.8554C39.6203 35.8554 39.551 36.0285 39.3892 36.2444L40.7324 42.0757C40.7388 42.1033 40.7423 42.1308 40.7473 42.1585C46.9765 41.1792 53.3559 41.9986 59.1354 44.5204L68.8385 48.7547L58.5737 4.19238L54.6262 8.81754Z" fill="#D3DCFB"/>
<path d="M73.7188 20.9031C69.0602 21.1611 65.998 19.0239 65.998 19.0239L69.026 32.1692C69.026 32.1692 70.8446 28.9078 75.1466 27.1017C75.8377 26.8116 76.2271 26.0739 76.0588 25.3435L75.3084 22.0853C75.1401 21.3549 74.4673 20.8617 73.7188 20.9031Z" fill="#E9EFFF"/>
<path d="M75.6174 23.4275C74.8827 23.7232 74.1658 24.0613 73.4704 24.4403C71.8107 25.3486 69.7438 24.4208 69.3191 22.5771L68.7929 20.2927C67.0254 19.7396 65.998 19.0239 65.998 19.0239L69.026 32.1692C69.026 32.1692 70.8446 28.9078 75.1466 27.1017C75.8379 26.8116 76.2271 26.0739 76.0588 25.3435L75.6174 23.4275Z" fill="#D3DCFB"/>
<path d="M71.4658 51.4626C70.3305 51.7241 69.1983 51.0158 68.9367 49.8805L58.1696 3.13709C57.908 2.00178 58.6163 0.869593 59.7516 0.60803C60.8869 0.346468 62.0191 1.05475 62.2806 2.19006L73.0478 48.9335C73.3094 50.0688 72.6011 51.201 71.4658 51.4626Z" fill="#FBC95E"/>
<path d="M73.0482 48.9333L68.7961 30.4731C68.6303 31.3374 67.9731 32.0658 67.0604 32.2761C66.1243 32.4917 65.1911 32.0996 64.6709 31.3591L68.9371 49.8802C69.1987 51.0155 70.3309 51.7238 71.4662 51.4622C72.6015 51.2008 73.3098 50.0685 73.0482 48.9333Z" fill="#FFDA8B"/>
<path d="M34.397 21.0921L23.0379 23.7087C22.0821 23.9288 21.4857 24.8821 21.7059 25.8379L26.2163 45.4191C26.4365 46.3749 27.3898 46.9712 28.3456 46.751L39.7046 44.1344C40.6604 43.9143 41.2568 42.961 41.0365 42.0052L36.526 22.424C36.306 21.4683 35.3527 20.8719 34.397 21.0921Z" fill="#FBC95E"/>
<path d="M36.7434 36.9131L27.8495 38.9619C27.8495 38.9619 26.7887 40.507 24.7793 39.1798L26.2165 45.419C26.4366 46.3748 27.3899 46.9711 28.3457 46.7509L39.7048 44.1344C40.6605 43.9142 41.2568 42.9609 41.0366 42.0051L39.6199 35.855C39.6199 35.855 38.9179 37.6147 36.7434 36.9131Z" fill="#FFDA8B"/>
<path d="M28.7677 23.796C28.5028 23.7957 28.2459 23.7056 28.0387 23.5405C27.8315 23.3754 27.6863 23.1451 27.6268 22.887L26.8507 19.5174C26.7809 19.2146 26.8344 18.8964 26.9992 18.6329C27.164 18.3694 27.4268 18.1822 27.7296 18.1124C28.3601 17.9664 28.9895 18.3607 29.1346 18.9914L29.9107 22.3609C29.9503 22.5327 29.9507 22.7113 29.9117 22.8833C29.8727 23.0553 29.7953 23.2163 29.6855 23.3542C29.5756 23.4922 29.436 23.6036 29.2771 23.6801C29.1182 23.7566 28.9441 23.7962 28.7677 23.796Z" fill="#BEC8F7"/>
<path d="M26.2861 20.576C25.9981 20.576 25.7202 20.47 25.5055 20.2781C25.2907 20.0863 25.1541 19.8221 25.1217 19.536C25.0893 19.2499 25.1634 18.9618 25.3298 18.7268C25.4962 18.4918 25.7434 18.3264 26.024 18.2619L29.329 17.5007C29.479 17.4661 29.6343 17.4614 29.7861 17.4868C29.9379 17.5123 30.0832 17.5674 30.2137 17.649C30.3441 17.7306 30.4573 17.8372 30.5465 17.9625C30.6358 18.0879 30.6995 18.2296 30.734 18.3796C30.8038 18.6825 30.7504 19.0006 30.5856 19.2641C30.4207 19.5276 30.158 19.7148 29.8551 19.7846L26.5501 20.5459C26.4635 20.5659 26.3749 20.576 26.2861 20.576Z" fill="#E9EFFF"/>
<path d="M25.0743 26.9144C25.0046 26.6115 25.058 26.2934 25.2228 26.0299C25.3876 25.7664 25.6504 25.5792 25.9532 25.5094L32.5632 23.9869C33.1939 23.841 33.8229 24.2352 33.9682 24.8658C34.1136 25.4964 33.72 26.1257 33.0893 26.2708L26.4793 27.7933C26.1765 27.8631 25.8583 27.8097 25.5948 27.6448C25.3313 27.48 25.1441 27.2173 25.0743 26.9144ZM25.9993 30.9303C25.9296 30.6275 25.983 30.3093 26.1478 30.0458C26.3126 29.7823 26.5754 29.5951 26.8782 29.5253L33.4882 28.0028C33.7904 27.935 34.1072 27.9895 34.3693 28.1544C34.6314 28.3194 34.8175 28.5814 34.8871 28.8832C34.9566 29.185 34.9038 29.502 34.7403 29.765C34.5767 30.028 34.3158 30.2156 34.0143 30.2868L27.4043 31.8093C27.1015 31.879 26.7833 31.8256 26.5198 31.6608C26.2563 31.496 26.0691 31.2332 25.9993 30.9303ZM26.9243 34.9463C26.8898 34.7963 26.8851 34.641 26.9106 34.4892C26.936 34.3375 26.9911 34.1922 27.0728 34.0617C27.1544 33.9313 27.2609 33.8181 27.3862 33.7288C27.5116 33.6395 27.6533 33.5758 27.8032 33.5413L34.4132 32.0186C34.5635 31.9831 34.7194 31.9777 34.8718 32.0027C35.0242 32.0276 35.1701 32.0824 35.3013 32.164C35.4324 32.2455 35.5462 32.3522 35.6359 32.4778C35.7257 32.6035 35.7898 32.7456 35.8245 32.8961C35.8591 33.0466 35.8637 33.2024 35.8379 33.3547C35.8122 33.507 35.7566 33.6526 35.6743 33.7833C35.592 33.914 35.4848 34.0272 35.3586 34.1163C35.2325 34.2054 35.09 34.2687 34.9393 34.3025L28.3293 35.8252C28.0265 35.8949 27.7083 35.8415 27.4448 35.6767C27.1813 35.5119 26.9941 35.2491 26.9243 34.9463ZM27.8495 38.9622C27.8149 38.8123 27.8103 38.657 27.8357 38.5052C27.8612 38.3534 27.9163 38.2081 27.9979 38.0777C28.0795 37.9472 28.1861 37.8341 28.3114 37.7448C28.4367 37.6555 28.5784 37.5918 28.7284 37.5572L35.3384 36.0346C35.4884 36 35.6437 35.9953 35.7955 36.0207C35.9472 36.0462 36.0925 36.1013 36.223 36.1829C36.3535 36.2646 36.4666 36.3711 36.5559 36.4964C36.6452 36.6218 36.7089 36.7635 36.7434 36.9135C36.778 37.0634 36.7826 37.2187 36.7572 37.3705C36.7317 37.5223 36.6766 37.6676 36.595 37.798C36.5134 37.9285 36.4068 38.0416 36.2815 38.1309C36.1562 38.2202 36.0145 38.2839 35.8645 38.3185L29.2545 39.8411C28.9516 39.9109 28.6335 39.8575 28.37 39.6927C28.1065 39.5278 27.9193 39.2651 27.8495 38.9622ZM28.7745 42.978C28.7047 42.6751 28.7581 42.357 28.923 42.0935C29.0878 41.83 29.3505 41.6428 29.6534 41.573L36.2634 40.0505C36.8937 39.9046 37.5232 40.2986 37.6684 40.9294C37.7382 41.2323 37.6848 41.5504 37.5199 41.8139C37.3551 42.0774 37.0924 42.2646 36.7895 42.3344L30.1795 43.8569C29.8766 43.9267 29.5585 43.8733 29.295 43.7084C29.0315 43.5436 28.8443 43.2809 28.7745 42.978Z" fill="#214b92"/>
<path d="M35.5637 70.5856C24.9205 69.3861 28.2333 58.4292 28.2333 58.4287C28.1533 58.4876 28.0697 58.5414 27.983 58.5896L11.7266 67.407C15.1413 71.3264 19.3405 74.5437 24.0802 76.8145L35.5637 70.5856Z" fill="#FD995B"/>
</g>
<defs>
<clipPath id="clip0_7051_23658">
<rect width="80" height="80" fill="white" transform="translate(0.600098 0.553711)"/>
</clipPath>
</defs>
</svg>
