<svg width="16" height="16" viewBox="0 0 16 16" fill="none" xmlns="http://www.w3.org/2000/svg">
<path d="M11.8513 14.2227C11.4753 15.286 10.4613 16 9.33059 16H2.67059C1.89059 16 1.15126 15.66 0.641258 15.068C0.139258 14.4847 -0.0834083 13.718 0.029925 12.9627C0.299925 11.164 1.28659 9.49733 2.96392 8C1.28659 6.50267 0.299925 4.836 0.029925 3.03733C-0.0834083 2.28267 0.139258 1.51533 0.641258 0.932667C1.15126 0.34 1.89059 0 2.67059 0H9.33059C10.4613 0 11.4753 0.714 11.8513 1.77733C11.9746 2.12467 11.7926 2.50533 11.4459 2.628C11.0986 2.75267 10.7179 2.56933 10.5953 2.22267C10.4066 1.69067 9.89859 1.33333 9.33126 1.33333H2.67059C2.27926 1.33333 1.90726 1.50467 1.65192 1.802C1.39992 2.09467 1.29259 2.46267 1.34926 2.83867C1.59926 4.50467 2.63059 6.06533 4.41459 7.47733C4.57459 7.60333 4.66792 7.79667 4.66792 8C4.66792 8.20333 4.57459 8.39667 4.41459 8.52267C2.63059 9.93467 1.59926 11.4947 1.34926 13.1607C1.29259 13.5367 1.39992 13.9053 1.65192 14.198C1.90792 14.4953 2.27926 14.6667 2.67059 14.6667H9.33059C9.89859 14.6667 10.4059 14.3093 10.5946 13.778C10.7179 13.4307 11.0999 13.2473 11.4453 13.3727C11.7926 13.4953 11.9739 13.8767 11.8506 14.2233L11.8513 14.2227ZM6.41793 9.296L6.75659 9.566C7.53792 10.1873 8.57459 11.1867 9.07259 12.416C9.15592 12.622 9.13126 12.8553 9.00726 13.0393C8.88326 13.2227 8.67659 13.3333 8.45459 13.3333H3.54659C3.32526 13.3333 3.11792 13.2227 2.99392 13.0393C2.86992 12.856 2.84526 12.6227 2.92792 12.4173C3.42526 11.182 4.46126 10.1867 5.24259 9.56867L5.58926 9.29467C5.83192 9.102 6.17526 9.10267 6.41793 9.296ZM5.99992 10.6693C5.57926 11.0087 5.08592 11.4653 4.68992 12H7.30859C6.91259 11.468 6.42059 11.0107 5.99992 10.6693ZM16.0006 8.00067C16.0006 10.2067 14.2066 12.0007 12.0006 12.0007C9.79459 12.0007 8.00059 10.2067 8.00059 8.00067C8.00059 5.79467 9.79459 4.00067 12.0006 4.00067C14.2066 4.00067 16.0006 5.79467 16.0006 8.00067ZM14.6673 8.00067C14.6673 6.53 13.4713 5.334 12.0006 5.334C10.5299 5.334 9.33392 6.53 9.33392 8.00067C9.33392 9.47133 10.5299 10.6673 12.0006 10.6673C13.4713 10.6673 14.6673 9.47133 14.6673 8.00067ZM12.6673 7.72467V6.66733C12.6673 6.29933 12.3693 6.00067 12.0006 6.00067C11.6319 6.00067 11.3339 6.29933 11.3339 6.66733V8.00067C11.3339 8.17733 11.4039 8.34733 11.5293 8.472L12.1959 9.13867C12.3259 9.26867 12.4966 9.334 12.6673 9.334C12.8379 9.334 13.0086 9.26867 13.1386 9.13867C13.3993 8.878 13.3993 8.45667 13.1386 8.196L12.6673 7.72467Z" fill="#214b92"/>
</svg>
