<svg width="22" height="15" viewBox="0 0 22 15" fill="none" xmlns="http://www.w3.org/2000/svg">
<g clip-path="url(#clip0_54_680)">
<path d="M11.0016 3.5187C9.01517 3.5187 7.41294 5.12093 7.41294 7.10733C7.41294 9.09372 9.01517 10.6959 11.0016 10.6959C12.988 10.6959 14.5902 9.09372 14.5902 7.10733C14.5902 5.12093 12.988 3.5187 11.0016 3.5187ZM11.0016 9.4404C9.7179 9.4404 8.66849 8.39411 8.66849 7.10733C8.66849 5.82054 9.71478 4.77425 11.0016 4.77425C12.2883 4.77425 13.3346 5.82054 13.3346 7.10733C13.3346 8.39411 12.2852 9.4404 11.0016 9.4404ZM15.574 3.37191C15.574 3.83727 15.1992 4.20894 14.737 4.20894C14.2716 4.20894 13.8999 3.83415 13.8999 3.37191C13.8999 2.90967 14.2747 2.53488 14.737 2.53488C15.1992 2.53488 15.574 2.90967 15.574 3.37191ZM17.9508 4.22144C17.8977 3.10019 17.6416 2.10699 16.8202 1.2887C16.0019 0.470404 15.0087 0.214297 13.8875 0.158078C12.7318 0.0924896 9.26815 0.0924896 8.11255 0.158078C6.99442 0.211173 6.00123 0.46728 5.17981 1.28557C4.35839 2.10387 4.10541 3.09706 4.04919 4.21831C3.9836 5.37392 3.9836 8.83761 4.04919 9.99321C4.10229 11.1145 4.35839 12.1077 5.17981 12.926C6.00123 13.7442 6.9913 14.0004 8.11255 14.0566C9.26815 14.1222 12.7318 14.1222 13.8875 14.0566C15.0087 14.0035 16.0019 13.7474 16.8202 12.926C17.6385 12.1077 17.8946 11.1145 17.9508 9.99321C18.0164 8.83761 18.0164 5.37704 17.9508 4.22144ZM16.4579 11.2331C16.2143 11.8453 15.7427 12.3169 15.1274 12.5637C14.206 12.9291 12.0197 12.8447 11.0016 12.8447C9.98338 12.8447 7.79398 12.926 6.87574 12.5637C6.26358 12.32 5.79197 11.8484 5.54523 11.2331C5.17981 10.3118 5.26414 8.12551 5.26414 7.10733C5.26414 6.08914 5.18293 3.89974 5.54523 2.9815C5.78885 2.36934 6.26046 1.89773 6.87574 1.65099C7.7971 1.28557 9.98338 1.3699 11.0016 1.3699C12.0197 1.3699 14.2091 1.2887 15.1274 1.65099C15.7395 1.89461 16.2112 2.36622 16.4579 2.9815C16.8233 3.90286 16.739 6.08914 16.739 7.10733C16.739 8.12551 16.8233 10.3149 16.4579 11.2331Z" fill="white"/>
</g>
<defs>
<clipPath id="clip0_54_680">
<rect width="14" height="14" fill="white" transform="translate(4 0.107422)"/>
</clipPath>
</defs>
</svg>
