<svg width="21" height="20" viewBox="0 0 21 20" fill="none" xmlns="http://www.w3.org/2000/svg">
<g clip-path="url(#clip0_1974_10762)">
<path d="M18.5267 0.0743787C18.4578 0.031869 18.3786 0.00932912 18.2977 0.00927734H5.24283C4.1205 0.00927734 3.20737 0.913462 3.20737 2.02163L3.13065 13.2638H0.771401C0.529276 13.2638 0.333008 13.4601 0.333008 13.7022V15.7276C0.334542 17.2148 1.53977 18.4201 3.02706 18.4218C3.05722 18.4218 3.08752 18.4187 3.11715 18.4126H14.0093C14.0742 18.4172 14.1397 18.4202 14.2056 18.4202C15.716 18.4175 16.939 17.1927 16.9395 15.6823V9.11057H19.8946C20.1367 9.11057 20.333 8.9143 20.333 8.67218V2.16446C20.3277 1.11797 19.5613 0.23106 18.5267 0.0743787ZM1.20979 15.7277V14.1408H11.4716V15.6825C11.471 16.3694 11.7295 17.0311 12.1955 17.5358H2.96713C2.9464 17.5359 2.92588 17.5375 2.9055 17.5406C1.95182 17.4757 1.21098 16.6836 1.20979 15.7277ZM16.0628 2.16446V15.6823C16.0619 16.1723 15.8672 16.642 15.5211 16.9888C15.1898 17.3287 14.7396 17.5271 14.2652 17.5423C14.2415 17.5382 14.2175 17.536 14.1934 17.5359H14.0393C13.0844 17.4419 12.3547 16.6422 12.3484 15.6827V13.7022C12.3484 13.4602 12.1522 13.2638 11.91 13.2638H4.00744L4.08416 2.02474C4.09052 1.39074 4.6087 0.881284 5.24283 0.886063H16.4982C16.2158 1.25235 16.0626 1.70193 16.0628 2.16446ZM19.4561 8.23374H16.9395V2.16446C16.9509 1.47759 17.5109 0.927009 18.1978 0.927009C18.8847 0.927009 19.4446 1.47759 19.4561 2.16446V8.23374Z" fill="#0D0D0D" stroke="#0D0D0D" stroke-width="0.5" stroke-linejoin="round"/>
<path d="M5.96183 4.75862H10.1138C10.356 4.75862 10.5522 4.5624 10.5522 4.32023C10.5522 4.0781 10.356 3.88184 10.1138 3.88184H5.96183C5.71966 3.88184 5.52344 4.0781 5.52344 4.32023C5.52344 4.5624 5.71966 4.75862 5.96183 4.75862ZM13.707 7.01634H5.96183C5.71966 7.01634 5.52344 7.21261 5.52344 7.45474C5.52344 7.69673 5.71966 7.89313 5.96183 7.89313H13.707C13.9491 7.89313 14.1454 7.69673 14.1454 7.45474C14.1454 7.21261 13.9491 7.01634 13.707 7.01634ZM13.707 10.1507H5.96183C5.71966 10.1507 5.52344 10.3471 5.52344 10.5891C5.52344 10.8312 5.71966 11.0275 5.96183 11.0275H13.707C13.9491 11.0275 14.1454 10.8312 14.1454 10.5891C14.1454 10.3471 13.9491 10.1507 13.707 10.1507Z" fill="#0D0D0D" stroke="#0D0D0D" stroke-width="0.5" stroke-linejoin="round"/>
</g>
<defs>
<clipPath id="clip0_1974_10762">
<rect width="20" height="20" fill="white" transform="translate(0.333008)"/>
</clipPath>
</defs>
</svg>
