<svg width="14" height="17" viewBox="0 0 14 17" fill="none" xmlns="http://www.w3.org/2000/svg">
<path d="M7.00019 0.135498C5.23615 0.137439 3.54491 0.839015 2.29748 2.08632C1.05005 3.33362 0.348309 5.02479 0.346191 6.78883C0.346191 8.50216 1.67286 11.1835 4.28952 14.7582C4.60103 15.1849 5.0089 15.5321 5.47993 15.7714C5.95096 16.0108 6.47184 16.1355 7.00019 16.1355C7.52854 16.1355 8.04943 16.0108 8.52046 15.7714C8.99149 15.5321 9.39935 15.1849 9.71086 14.7582C12.3275 11.1835 13.6542 8.50216 13.6542 6.78883C13.6521 5.02479 12.9503 3.33362 11.7029 2.08632C10.4555 0.839015 8.76423 0.137439 7.00019 0.135498ZM7.00019 9.44083C6.47277 9.44083 5.9572 9.28443 5.51867 8.99142C5.08014 8.6984 4.73835 8.28192 4.53651 7.79465C4.33468 7.30738 4.28187 6.77121 4.38476 6.25392C4.48766 5.73664 4.74163 5.26149 5.11457 4.88855C5.48751 4.51561 5.96267 4.26163 6.47995 4.15874C6.99723 4.05584 7.53341 4.10865 8.02068 4.31049C8.50795 4.51232 8.92443 4.85411 9.21744 5.29264C9.51046 5.73117 9.66686 6.24675 9.66686 6.77416C9.66686 7.48141 9.38591 8.15969 8.88581 8.65978C8.38571 9.15988 7.70744 9.44083 7.00019 9.44083Z" fill="white"/>
</svg>
