<svg width="20" height="20" viewBox="0 0 20 20" fill="none" xmlns="http://www.w3.org/2000/svg">
<path d="M19.6778 5.70015L18.552 3.34705C18.4067 3.04482 18.2022 2.77476 17.9508 2.55281C17.6994 2.33086 17.4061 2.16152 17.0882 2.05477L11.8449 0.307014C10.6479 -0.0893173 9.35496 -0.0893173 8.15791 0.307014L2.91549 2.05477C2.59724 2.16157 2.30365 2.33111 2.05208 2.55337C1.8005 2.77562 1.59606 3.04607 1.45084 3.34872L0.380037 5.60273C0.184205 5.9259 0.0639846 6.28918 0.0283692 6.66537C-0.00724627 7.04157 0.0426654 7.42095 0.17437 7.77514C0.431662 8.47457 0.977054 9.0158 1.67482 9.27059L1.67066 14.528C1.66892 15.4026 1.94304 16.2554 2.454 16.9652C2.96497 17.675 3.68676 18.2056 4.51669 18.4815L8.15125 19.693C8.74577 19.8912 9.37026 19.9902 9.99475 19.9902C10.6192 19.9902 11.2437 19.8912 11.8383 19.693L15.4762 18.4798C16.305 18.2044 17.026 17.675 17.537 16.9667C18.048 16.2584 18.323 15.4072 18.323 14.5338L18.3272 9.27143C18.6743 9.15065 18.9902 8.95429 19.2521 8.69653C19.514 8.43878 19.7155 8.12606 19.8418 7.78096C20.1057 7.06654 20.0325 6.28301 19.6778 5.70015ZM8.68498 1.8874C9.53978 1.60432 10.4631 1.60432 11.3179 1.8874L14.855 3.06645L10.0072 4.69013L5.14951 3.06645L8.68498 1.8874ZM1.84469 6.39126L2.94962 4.0748C2.98959 4.09561 8.8257 6.0507 8.8257 6.0507L7.47596 8.7635C7.37784 8.92513 7.22792 9.04881 7.05059 9.11442C6.87326 9.18003 6.67894 9.18372 6.49925 9.12488L2.26851 7.71518C2.1468 7.67477 2.03575 7.60744 1.94364 7.51821C1.85152 7.42898 1.7807 7.32014 1.73644 7.19977C1.64568 6.95497 1.67149 6.68685 1.84385 6.39209L1.84469 6.39126ZM5.04293 16.9019C4.54499 16.7365 4.1119 16.4183 3.80529 15.9926C3.49867 15.5668 3.33415 15.0552 3.33515 14.5305L3.33931 9.82764L5.97218 10.7053C7.09127 11.0783 8.29696 10.6328 8.93561 9.56369L9.16709 9.0999L9.16293 18.2433C8.99914 18.2104 8.83757 18.1673 8.67915 18.1143L5.04376 16.9028L5.04293 16.9019ZM14.9491 16.9011L11.3104 18.1143C11.1518 18.1669 10.9903 18.21 10.8266 18.2433L10.8307 9.08824L11.0964 9.62114C11.3864 10.1109 11.8361 10.4859 12.3699 10.6833C12.9038 10.8807 13.4893 10.8885 14.0282 10.7053L16.6602 9.82847L16.656 14.5338C16.656 15.058 16.4909 15.5688 16.1843 15.9939C15.8776 16.4189 15.4448 16.7366 14.9474 16.9019L14.9491 16.9011ZM18.2797 7.2056C18.237 7.32231 18.1684 7.42787 18.0792 7.51438C17.9899 7.60088 17.8823 7.66611 17.7643 7.70519L13.5028 9.12571C13.138 9.24811 12.725 9.09657 12.5568 8.82179L11.1788 6.05486C11.1788 6.05486 17.0124 4.09728 17.0524 4.07563L18.2123 6.49118C18.2766 6.59765 18.3161 6.71725 18.3277 6.84109C18.3394 6.96493 18.323 7.08981 18.2797 7.20643V7.2056Z" fill="#214b92"/>
</svg>
