<svg width="16" height="17" viewBox="0 0 16 17" fill="none" xmlns="http://www.w3.org/2000/svg">
<g clip-path="url(#clip0_6952_24025)">
<path d="M-0.000123978 4.26754C-0.000123978 9.36087 6.75321 16.1075 11.8399 16.1075C12.9532 16.1075 13.9932 15.6875 14.7599 14.9209L15.4265 14.1542C16.1999 13.3809 16.1999 12.0742 15.3932 11.2675C15.3732 11.2475 13.7665 10.0142 13.7665 10.0142C12.9665 9.2542 11.7065 9.2542 10.9132 10.0142L9.93988 10.7942C7.80654 9.88754 6.29321 8.36754 5.31988 6.16087L6.09321 5.18754C6.85988 4.39421 6.85988 3.12754 6.09321 2.33421C6.09321 2.33421 4.85988 0.727539 4.83988 0.707539C4.03321 -0.0991276 2.72654 -0.0991276 1.91988 0.707539L1.21988 1.31421C0.419876 2.10754 -0.000123978 3.14754 -0.000123978 4.26087V4.26754Z" fill="white"/>
</g>
<defs>
<clipPath id="clip0_6952_24025">
<rect width="16" height="16" fill="white" transform="matrix(-1 0 0 1 16 0.107422)"/>
</clipPath>
</defs>
</svg>
