<svg width="24" height="24" viewBox="0 0 24 24" fill="none" xmlns="http://www.w3.org/2000/svg">
<g clip-path="url(#clip0_1436_2438)">
<path d="M19 4H17.899C17.6668 2.87167 17.0528 1.85784 16.1605 1.12926C15.2681 0.40068 14.152 0.00187146 13 0L5 0C2.243 0 3.73692e-06 2.243 3.73692e-06 5V17.854C-0.000523299 18.1364 0.0547025 18.416 0.162513 18.677C0.270324 18.938 0.428598 19.1751 0.628256 19.3747C0.827914 19.5744 1.06503 19.7327 1.32599 19.8405C1.58696 19.9483 1.86665 20.0035 2.149 20.003C2.565 20.003 2.98 19.882 3.339 19.643L6.289 17.676C6.63617 18.6479 7.27505 19.4888 8.1183 20.0838C8.96154 20.6788 9.96799 20.9987 11 21H16.697L20.661 23.644C20.9847 23.8593 21.3608 23.9828 21.7491 24.0011C22.1375 24.0194 22.5235 23.9319 22.866 23.748C23.2088 23.5646 23.4953 23.2915 23.6951 22.9579C23.8948 22.6243 24.0002 22.2428 24 21.854V9C24 6.243 21.757 4 19 4ZM2.23 17.979C2.211 17.991 2.156 18.027 2.078 17.986C1.999 17.944 1.999 17.877 1.999 17.855V5C1.999 3.346 3.345 2 4.999 2H12.999C14.653 2 15.999 3.346 15.999 5V12C15.999 13.654 14.653 15 12.999 15H6.999C6.693 15 6.458 15.159 6.434 15.175L2.23 17.979ZM22 21.855C22 21.876 22 21.944 21.922 21.986C21.842 22.029 21.788 21.992 21.77 21.979L17.555 19.168C17.3906 19.0586 17.1975 19.0001 17 19H11C10.3798 18.9993 9.77507 18.8067 9.26872 18.4486C8.76238 18.0905 8.37928 17.5845 8.172 17H13C15.757 17 18 14.757 18 12V6H19C20.654 6 22 7.346 22 9V21.855ZM6 7C5.99929 6.56049 6.09528 6.12621 6.28117 5.72795C6.46706 5.32969 6.73829 4.97721 7.07564 4.6955C7.41299 4.41379 7.80819 4.20975 8.23321 4.09785C8.65823 3.98595 9.10267 3.96893 9.535 4.048C10.1347 4.15994 10.6865 4.45071 11.1179 4.88209C11.5493 5.31348 11.8401 5.86529 11.952 6.465C12.0618 7.08354 11.9756 7.72092 11.7056 8.28815C11.4357 8.85538 10.9953 9.32414 10.446 9.629C9.999 9.875 9.999 9.947 9.999 10C9.999 10.2652 9.89365 10.5196 9.70611 10.7071C9.51857 10.8946 9.26422 11 8.999 11C8.73379 11 8.47943 10.8946 8.2919 10.7071C8.10436 10.5196 7.999 10.2652 7.999 10C7.999 8.692 9.037 8.121 9.48 7.877C9.77 7.718 10.075 7.342 9.982 6.811C9.94385 6.61487 9.84798 6.4346 9.70669 6.29331C9.5654 6.15203 9.38514 6.05616 9.189 6.018C9.043 5.9893 8.89241 5.99381 8.74839 6.0312C8.60437 6.06859 8.47061 6.1379 8.357 6.234C8.24461 6.32766 8.15426 6.44496 8.09238 6.57753C8.0305 6.71011 7.99862 6.8547 7.999 7.001C7.999 7.26622 7.89365 7.52057 7.70611 7.70811C7.51857 7.89564 7.26422 8.001 6.999 8.001C6.73379 8.001 6.47943 7.89564 6.2919 7.70811C6.10436 7.52057 5.999 7.26622 5.999 7.001L6 7ZM10 13C10 13.2652 9.89465 13.5196 9.70711 13.7071C9.51957 13.8946 9.26522 14 9 14C8.73479 14 8.48043 13.8946 8.2929 13.7071C8.10536 13.5196 8 13.2652 8 13C8 12.7348 8.10536 12.4804 8.2929 12.2929C8.48043 12.1054 8.73479 12 9 12C9.26522 12 9.51957 12.1054 9.70711 12.2929C9.89465 12.4804 10 12.7348 10 13Z" fill="#214b92"/>
</g>
<defs>
<clipPath id="clip0_1436_2438">
<rect width="24" height="24" fill="white"/>
</clipPath>
</defs>
</svg>
