<svg width="20" height="20" viewBox="0 0 20 20" fill="none" xmlns="http://www.w3.org/2000/svg">
<g clip-path="url(#clip0_592_5089)">
<path d="M14.1667 15.8333C14.1667 18.1333 12.3 19.9999 10 19.9999H4.16667C1.86667 19.9999 0 18.1333 0 15.8333V9.99993C0 7.69993 1.86667 5.83326 4.16667 5.83326H5C5.45833 5.83326 5.83333 6.20826 5.83333 6.66659C5.83333 7.12493 5.45833 7.49993 5 7.49993H4.16667C2.79167 7.49993 1.66667 8.62493 1.66667 9.99993V15.8333C1.66667 17.2083 2.79167 18.3333 4.16667 18.3333H10C11.375 18.3333 12.5 17.2083 12.5 15.8333C12.5 15.3749 12.875 14.9999 13.3333 14.9999C13.7917 14.9999 14.1667 15.3749 14.1667 15.8333ZM19.275 4.90826L14.7667 0.249926C14.45 -0.0834071 13.9167 -0.0917404 13.5917 0.23326C13.2667 0.55826 13.25 1.08326 13.575 1.40826L17.8583 5.82493H10.8333C8.53333 5.82493 6.66667 7.69159 6.66667 9.99159V14.1583C6.66667 14.6166 7.04167 14.9916 7.5 14.9916C7.95833 14.9916 8.33333 14.6166 8.33333 14.1583V9.99159C8.33333 8.61659 9.45833 7.49159 10.8333 7.49159H17.85L13.5667 11.9083C13.4527 12.0256 13.376 12.1739 13.346 12.3347C13.3161 12.4954 13.3343 12.6615 13.3984 12.8119C13.4625 12.9624 13.5696 13.0905 13.7063 13.1803C13.843 13.2701 14.0031 13.3175 14.1667 13.3166C14.375 13.3166 14.6 13.2333 14.7667 13.0666L19.2667 8.42493C19.734 7.95794 19.9973 7.32481 19.9988 6.66415C20.0004 6.00348 19.7401 5.36911 19.275 4.89993V4.90826Z" fill="#0D0D0D"/>
</g>
<defs>
<clipPath id="clip0_592_5089">
<rect width="20" height="20" fill="white"/>
</clipPath>
</defs>
</svg>
