<svg width="24" height="21" viewBox="0 0 24 21" fill="none" xmlns="http://www.w3.org/2000/svg">
<path d="M1.49993 20.25H1.47143C1.2898 20.244 1.11653 20.1722 0.98382 20.0481C0.851113 19.9239 0.767999 19.7558 0.749925 19.575C0.725175 19.305 0.0959254 12.8385 4.07468 8.41949C6.28118 5.96774 9.44993 4.65599 13.4999 4.51349V1.49999C13.4999 1.35464 13.5421 1.21241 13.6213 1.09059C13.7006 0.968777 13.8136 0.872623 13.9465 0.813827C14.0795 0.755031 14.2266 0.736127 14.3701 0.759414C14.5136 0.7827 14.6472 0.847174 14.7547 0.944994L23.0047 8.44499C23.082 8.51529 23.1438 8.60097 23.1861 8.69655C23.2284 8.79212 23.2502 8.89548 23.2502 8.99999C23.2502 9.10451 23.2284 9.20786 23.1861 9.30344C23.1438 9.39902 23.082 9.4847 23.0047 9.55499L14.7547 17.055C14.6472 17.1528 14.5136 17.2173 14.3701 17.2406C14.2266 17.2639 14.0795 17.245 13.9465 17.1862C13.8136 17.1274 13.7006 17.0312 13.6213 16.9094C13.5421 16.7876 13.4999 16.6453 13.4999 16.5V13.4302C11.1629 13.26 3.41018 13.1887 2.23793 19.6342C2.20648 19.8071 2.11539 19.9633 1.98052 20.0759C1.84565 20.1884 1.67557 20.25 1.49993 20.25ZM14.9999 3.19574V5.24999C14.9999 5.44891 14.9209 5.63967 14.7803 5.78032C14.6396 5.92098 14.4488 5.99999 14.2499 5.99999C10.2824 5.99999 7.23443 7.15124 5.18918 9.42299C3.70131 11.18 2.7445 13.3244 2.43068 15.6052C6.16193 10.9852 14.2499 11.9917 14.3489 12.0052C14.5293 12.0293 14.6948 12.1181 14.8146 12.2551C14.9344 12.3921 15.0002 12.568 14.9999 12.75V14.8042L21.3847 8.99999L14.9999 3.19574Z" fill="#0D0D0D"/>
</svg>
