<svg width="20" height="20" viewBox="0 0 20 20" fill="none" xmlns="http://www.w3.org/2000/svg">
<path d="M17.5 5.33333H4.16667C3.45083 5.33333 2.77333 5.02333 2.30417 4.50083C2.7625 3.98917 3.42833 3.66667 4.16667 3.66667H19.1667C19.6275 3.66667 20 3.29333 20 2.83333C20 2.37333 19.6275 2 19.1667 2H4.16667C1.86583 2 0 3.86583 0 6.16667V14.5C0 16.8008 1.86583 18.6667 4.16667 18.6667H17.5C18.8808 18.6667 20 17.5475 20 16.1667V7.83333C20 6.4525 18.8808 5.33333 17.5 5.33333ZM18.3333 16.1667C18.3333 16.6258 17.96 17 17.5 17H4.16667C2.78833 17 1.66667 15.8783 1.66667 14.5V6.165C2.37833 6.6975 3.25333 7 4.16667 7H17.5C17.96 7 18.3333 7.37417 18.3333 7.83333V16.1667ZM16.6667 12C16.6667 12.46 16.2933 12.8333 15.8333 12.8333C15.3733 12.8333 15 12.46 15 12C15 11.54 15.3733 11.1667 15.8333 11.1667C16.2933 11.1667 16.6667 11.54 16.6667 12Z" fill="#214b92"/>
</svg>
