<svg width="115" height="150" viewBox="0 0 115 150" fill="none" xmlns="http://www.w3.org/2000/svg">
<g id="XP" clip-path="url(#clip0_18291_9213)">
<g id="layer1">
<path id="path18" d="M27.7775 149.434C27.2538 149.104 26.5642 148.405 26.245 147.879C25.6792 146.949 25.6645 146.36 25.6634 124.633L25.6623 102.341L23.3985 101.844C22.1534 101.571 20.4774 101.012 19.6741 100.601C18.8708 100.191 17.6437 99.3041 16.9472 98.6306C16.2507 97.9571 15.3004 96.6571 14.8354 95.7416C14.3705 94.8262 13.8435 93.5076 13.6643 92.8116C13.4851 92.1155 13.247 88.3155 13.1351 84.3672C12.9614 78.2345 12.8538 77.0391 12.3962 76.163C12.1016 75.599 10.0595 73.2915 7.85826 71.0354C5.65699 68.7792 3.45594 66.4058 2.96698 65.7612C2.47803 65.1166 1.73857 63.914 1.32375 63.0887C0.908918 62.2635 0.40895 60.7142 0.212709 59.6459C-0.068299 58.1162 -0.068299 57.2908 0.212709 55.7611C0.40895 54.6928 0.908918 53.1435 1.32375 52.3182C1.73857 51.493 2.47803 50.2904 2.96698 49.6458C3.45594 49.0011 5.65699 46.6278 7.85826 44.3716C10.0595 42.1155 12.1016 39.808 12.3962 39.244C12.8538 38.3679 12.9614 37.1725 13.1351 31.0397C13.247 27.0915 13.4851 23.2915 13.6643 22.5954C13.8435 21.8993 14.3681 20.5787 14.8301 19.6606C15.2921 18.7425 16.3398 17.363 17.1583 16.595C17.9768 15.8271 19.2293 14.9481 19.9417 14.6418C20.654 14.3356 21.7396 13.9287 22.3542 13.7378C22.9844 13.5419 26.5279 13.3007 30.4821 13.1844C36.7872 12.9991 37.6358 12.9142 38.9142 12.3412C39.9363 11.883 41.5476 10.4895 44.6499 7.38074C47.1013 4.92416 49.6872 2.62178 50.6386 2.04843C51.5596 1.49347 52.9877 0.805543 53.8122 0.519705C54.7287 0.201957 56.1626 0 57.5021 0C58.8415 0 60.2754 0.201957 61.1919 0.519705C62.0164 0.805543 63.4463 1.49347 64.3695 2.04843C65.331 2.62642 67.8918 4.90543 70.3643 7.38344C73.4595 10.4856 75.0811 11.8889 76.096 12.3439C77.3682 12.9141 78.2206 12.9987 84.522 13.1797C89.9448 13.3356 91.8964 13.4968 93.1392 13.8916C94.0228 14.1723 95.1279 14.5995 95.5949 14.841C96.062 15.0824 97.0944 15.89 97.8891 16.6357C98.6837 17.3813 99.712 18.7425 100.174 19.6606C100.636 20.5787 101.161 21.8993 101.34 22.5954C101.519 23.2915 101.757 27.0915 101.869 31.0397C102.043 37.1725 102.15 38.3679 102.608 39.244C102.903 39.808 104.945 42.1155 107.146 44.3716C109.347 46.6278 111.548 49.0011 112.037 49.6458C112.526 50.2904 113.266 51.493 113.68 52.3182C114.095 53.1435 114.595 54.6928 114.791 55.7611C115.074 57.2975 115.072 58.1158 114.786 59.6762C114.583 60.7801 113.95 62.5542 113.348 63.7046C112.515 65.2972 111.246 66.8169 107.716 70.4509C105.21 73.0307 102.915 75.6021 102.616 76.165C102.148 77.0466 102.044 78.1838 101.869 84.3672C101.757 88.3155 101.519 92.1155 101.34 92.8116C101.161 93.5076 100.634 94.8262 100.169 95.7416C99.7038 96.6571 98.7535 97.9562 98.057 98.6285C97.3604 99.3008 96.1536 100.187 95.3751 100.598C94.5965 101.009 92.9205 101.569 91.6507 101.843L89.3418 102.341L89.3407 124.633C89.3397 146.36 89.3249 146.949 88.7592 147.879C88.4399 148.405 87.7503 149.096 87.2267 149.417C86.6589 149.764 85.7561 149.999 84.9899 150C83.9732 150.001 80.9718 148.836 70.6096 144.418L57.5142 138.835L44.7284 144.311C34.5842 148.656 31.6108 149.813 30.3361 149.91C29.0754 150.007 28.5245 149.904 27.7775 149.434ZM46.1513 133.86C53.4612 130.736 56.7013 129.491 57.5135 129.491C58.3268 129.491 61.6769 130.781 69.2998 134.032C75.1573 136.53 80.0256 138.574 80.1181 138.574C80.2106 138.574 80.2864 130.394 80.2864 120.397V102.221L78.7529 102.411C77.9094 102.516 76.6481 102.849 75.95 103.15C75.0857 103.523 73.3034 105.078 70.3643 108.024C67.8918 110.502 65.331 112.781 64.3695 113.359C63.4463 113.914 62.0164 114.601 61.1919 114.887C60.2754 115.205 58.8415 115.407 57.5021 115.407C56.1626 115.407 54.7287 115.205 53.8122 114.887C52.9877 114.601 51.5596 113.914 50.6386 113.359C49.6872 112.785 47.1013 110.483 44.6499 108.026C41.7022 105.072 39.9317 103.529 39.0602 103.153C38.3588 102.85 37.0947 102.516 36.2512 102.411L34.7177 102.221V120.417C34.7177 138.613 34.7177 138.613 35.3215 138.421C35.6535 138.315 40.5269 136.263 46.1513 133.86ZM59.3807 105.831C59.8517 105.591 62.1804 103.477 64.5557 101.134C66.931 98.7911 69.2403 96.6245 69.6876 96.3194C70.1349 96.0143 71.124 95.4402 71.8857 95.0435C72.6474 94.6468 74.1591 94.1139 75.245 93.8592C76.6249 93.5355 79.0661 93.3694 83.3536 93.3076C88.2373 93.2371 89.7328 93.1199 90.6896 92.7328C91.4104 92.4413 92.0459 91.9305 92.2775 91.4568C92.5454 90.9086 92.7268 88.4704 92.8702 83.4882C93.0287 77.9812 93.1936 75.9342 93.5784 74.698C93.8542 73.8116 94.3458 72.559 94.6708 71.9144C94.9957 71.2698 95.6651 70.2149 96.1583 69.5703C96.6514 68.9257 98.8507 66.5523 101.046 64.2962C103.24 62.04 105.251 59.7721 105.514 59.2563C105.777 58.7406 105.992 58.0418 105.992 57.7035C105.992 57.3652 105.777 56.6664 105.514 56.1506C105.251 55.6349 103.24 53.367 101.046 51.1108C98.8507 48.8546 96.6514 46.4813 96.1583 45.8367C95.6651 45.192 94.9957 44.1372 94.6708 43.4926C94.3458 42.848 93.8542 41.5954 93.5784 40.709C93.1936 39.4728 93.0287 37.4257 92.8702 31.9188C92.7268 26.9366 92.5454 24.4984 92.2775 23.9502C92.0466 23.4779 91.4149 22.9691 90.7063 22.6847C89.7762 22.3113 88.1984 22.189 83.3703 22.1158C79.0341 22.05 76.6368 21.8842 75.245 21.5536C74.1591 21.2957 72.6474 20.7601 71.8857 20.3635C71.124 19.9668 70.1349 19.3927 69.6876 19.0875C69.2403 18.7824 66.9078 16.593 64.5042 14.2221C61.5674 11.3254 59.7023 9.71997 58.818 9.32759C57.5088 8.7467 57.4954 8.74666 56.2073 9.31818C55.3513 9.69801 53.2974 11.4659 50.1461 14.5354C46.7776 17.8164 44.8567 19.455 43.5969 20.122C42.6164 20.6412 40.9075 21.2811 39.7995 21.5442C38.3615 21.8856 36.0241 22.0492 31.6338 22.1158C26.8058 22.189 25.2279 22.3113 24.2978 22.6847C23.5892 22.969 22.9575 23.4779 22.7266 23.9502C22.4587 24.4984 22.2773 26.9366 22.1339 31.9187C21.9754 37.4257 21.8105 39.4727 21.4257 40.709C21.1499 41.5953 20.6583 42.848 20.3333 43.4926C20.0083 44.1372 19.3427 45.192 18.8541 45.8366C18.3656 46.4813 16.1648 48.8546 13.9636 51.1108C11.7623 53.367 9.74773 55.6349 9.48674 56.1506C9.22575 56.6664 9.01222 57.3652 9.01222 57.7035C9.01222 58.0418 9.22575 58.7406 9.48674 59.2563C9.74773 59.7721 11.7623 62.04 13.9636 64.2962C16.1648 66.5523 18.3656 68.9257 18.8541 69.5703C19.3427 70.2149 20.0083 71.2698 20.3333 71.9144C20.6583 72.559 21.1499 73.8116 21.4257 74.6979C21.8105 75.9342 21.9754 77.9812 22.1339 83.4882C22.2773 88.4704 22.4587 90.9086 22.7266 91.4568C22.9588 91.9319 23.5917 92.4393 24.3145 92.7301C25.2659 93.1129 26.7946 93.2332 31.6505 93.3075C35.8967 93.3725 38.3925 93.5432 39.7591 93.8619C40.845 94.1151 42.3567 94.6468 43.1184 95.0435C43.8801 95.4401 44.8799 96.0213 45.3402 96.335C45.8005 96.6487 48.1167 98.8298 50.4873 101.182C53.2778 103.951 55.2485 105.663 56.0767 106.039C56.7803 106.358 57.6189 106.54 57.9402 106.444C58.2615 106.347 58.9098 106.072 59.3807 105.831ZM52.0833 88.6462C50.9506 88.4293 49.2418 88.0248 48.286 87.7473C47.3301 87.4697 45.5874 86.7985 44.4134 86.2557C43.2393 85.7129 41.3333 84.6391 40.1778 83.8696C39.0223 83.1001 37.0565 81.4937 35.8094 80.2998C34.5622 79.106 32.8924 77.2505 32.0987 76.1765C31.305 75.1026 30.1267 73.1864 29.4802 71.9184C28.8337 70.6505 27.9762 68.6145 27.5745 67.3941C27.1728 66.1737 26.6288 63.9226 26.3657 62.3916C26.016 60.3576 25.9292 58.6218 26.0434 55.9454C26.1527 53.3838 26.4262 51.4041 26.9534 49.3596C27.3683 47.7501 28.3557 45.1166 29.1506 43.4995C29.9445 41.8841 31.4679 39.4048 32.5359 37.9899C33.6039 36.575 35.4121 34.6106 36.5541 33.6246C37.6962 32.6387 39.5505 31.235 40.6749 30.5054C41.7993 29.7758 43.7665 28.7359 45.0464 28.1944C46.3264 27.6529 48.3709 26.952 49.5898 26.6367C50.8087 26.3215 53.0876 25.9316 54.654 25.7703C56.5547 25.5745 58.4494 25.5745 60.3501 25.7703C61.9165 25.9316 64.1954 26.3215 65.4143 26.6367C66.6332 26.952 68.6777 27.6529 69.9577 28.1944C71.2377 28.7359 73.2048 29.7758 74.3292 30.5054C75.4536 31.235 77.3079 32.6387 78.45 33.6246C79.592 34.6106 81.4002 36.575 82.4682 37.9899C83.5362 39.4048 85.0596 41.8841 85.8536 43.4995C86.6484 45.1166 87.6358 47.7501 88.0507 49.3596C88.5778 51.4041 88.8514 53.3838 88.9607 55.9454C89.0749 58.6218 88.9882 60.3576 88.6385 62.3916C88.3753 63.9226 87.834 66.1641 87.4356 67.3728C87.0372 68.5814 86.2806 70.4274 85.7542 71.4749C85.2279 72.5224 84.2852 74.1705 83.6594 75.1375C83.0336 76.1044 81.1256 78.28 79.4195 79.9721C77.3699 82.0049 75.5182 83.526 73.9618 84.4555C72.6663 85.2293 70.6346 86.2601 69.447 86.7461C68.2593 87.2322 66.2361 87.8948 64.9508 88.2185C63.3306 88.6266 61.3149 88.8429 58.3784 88.9238C55.5776 89.0009 53.4452 88.9068 52.0833 88.6462ZM62.8967 79.3885C64.148 79.0675 66.1347 78.3403 67.3116 77.7724C68.4885 77.2046 70.4205 75.9676 71.6048 75.0236C72.7892 74.0795 74.4365 72.4004 75.2656 71.2922C76.0947 70.184 77.2351 68.3293 77.7997 67.1706C78.3644 66.0119 79.0882 63.9682 79.4083 62.629C79.7803 61.0723 79.9891 59.1901 79.9872 57.4105C79.985 55.8795 79.7979 53.7453 79.5703 52.6679C79.3426 51.5904 78.8328 49.9055 78.4375 48.9236C78.0421 47.9417 77.2776 46.3864 76.7387 45.4674C76.1997 44.5484 74.7072 42.7334 73.4219 41.434C72.1366 40.1346 70.2649 38.5742 69.2625 37.9664C68.26 37.3585 66.394 36.4784 65.1158 36.0104C63.8376 35.5425 61.6016 35.0065 60.1469 34.8194C58.1303 34.56 56.8655 34.5611 54.8223 34.8239C53.2785 35.0225 51.0763 35.5704 49.6273 36.1163C48.2439 36.6376 46.1713 37.6914 45.0215 38.4581C43.8717 39.2249 42.1017 40.7547 41.0881 41.8578C40.0746 42.9609 38.8044 44.6003 38.2654 45.5009C37.7265 46.4015 36.962 47.9417 36.5666 48.9236C36.1712 49.9055 35.6615 51.5905 35.4338 52.6679C35.2062 53.7454 35.0186 55.8796 35.0169 57.4105C35.0147 59.1901 35.2238 61.0723 35.5958 62.629C35.9159 63.9682 36.6397 66.012 37.2044 67.1707C37.769 68.3294 38.9094 70.1841 39.7385 71.2923C40.5676 72.4005 42.215 74.0796 43.3993 75.0236C44.5836 75.9677 46.5182 77.2059 47.6983 77.7753C48.8784 78.3446 50.8112 79.0646 51.9934 79.3752C53.4631 79.7613 55.1672 79.945 57.3823 79.956C59.7053 79.9676 61.2653 79.807 62.8967 79.3885Z" fill="#4ECDC4"/>
</g>
<g id="number">
<path id="+1" d="M50.598 62.4V59.1H47.32V56.68H50.598V53.402H53.304V56.68H56.56V59.1H53.304V62.4H50.598ZM65.9549 60.992H68.5949V63.5H59.4429V60.992H62.9189V52.434L60.2569 53.688L59.0469 51.972L62.9189 49.244H65.9549V60.992Z" fill="#0D0D0D" fill-opacity="0.56"/>
</g>
</g>
<defs>
<clipPath id="clip0_18291_9213">
<rect width="115" height="150" fill="white"/>
</clipPath>
</defs>
</svg>
