<svg width="24" height="24" viewBox="0 0 24 24" fill="none" xmlns="http://www.w3.org/2000/svg">
<path d="M8.83795 0.000134663C6.29308 -0.000747057 3.86519 0.00267809 3.13254 0.0110883C2.88086 0.0139777 2.55916 0.0773518 2.23177 0.203772C1.90437 0.330192 1.57066 0.518362 1.28179 0.75983C0.700375 1.24583 0.247064 1.94962 0.0927476 2.65118C0.0408546 2.8871 0.0362519 2.91879 0.0155124 3.19296C0.0184774 3.15379 0.00607961 4.12465 0.00405092 4.86209C0.00138066 5.84535 0.000112218 7.17874 8.18239e-06 8.65338C-0.000338604 13.0773 0.010368 18.7791 0.02636 20.1041C0.0332611 20.6754 0.202022 21.5198 1.04102 22.3538C1.97729 23.2845 3.07811 23.3407 3.22027 23.3437C3.85893 23.3574 5.95158 23.3583 6.69526 23.3456C6.89035 23.3421 6.94592 23.342 7.02545 23.2883L7.02913 23.2861L7.03289 23.2837C7.07859 23.2545 7.13062 23.2135 7.1612 23.1837C7.43267 22.9197 7.39918 22.5063 7.12904 22.2839C7.02972 22.2021 6.96231 22.1798 6.91847 22.1739C6.78258 22.1556 6.33633 22.1484 5.14083 22.1395C4.48619 22.1346 3.88772 22.1277 3.54266 22.1216C1.76174 22.0902 1.30227 20.6437 1.29469 20.0793C1.27042 18.2726 1.27051 5.12894 1.29469 3.27015C1.30462 2.50561 1.73087 2.01902 2.00453 1.78678L2.00651 1.78512L2.00892 1.78319C2.3315 1.51787 2.74767 1.2631 3.24938 1.23703C3.77709 1.19863 5.21111 1.20225 9.40854 1.20225C13.5954 1.20225 15.0695 1.20358 15.5511 1.22844C16.0093 1.25209 16.3819 1.43835 16.6508 1.63414C17.1503 1.99785 17.3662 2.4378 17.4561 2.69955C17.5045 2.84055 17.5412 3.00885 17.5482 3.20987C17.56 3.54665 17.5649 4.35073 17.5726 6.21728C17.5796 7.91513 17.5885 8.91964 17.5987 9.26342C17.5998 9.29995 17.6007 9.32446 17.6018 9.34421C17.6477 9.48326 17.7221 9.58307 17.8171 9.65422C17.9168 9.72889 18.0397 9.77248 18.1653 9.78101C18.2909 9.78954 18.4168 9.76287 18.5233 9.7032C18.6297 9.64353 18.7194 9.55393 18.782 9.41212L18.8233 9.31836V6.1888V3.59006C18.8233 2.72449 18.6249 1.95416 18.0643 1.26384C17.763 0.892769 17.4209 0.63445 17.1229 0.459106C16.5454 0.129794 15.9549 -0.0286174 15.3009 0.0137164L15.288 0.0143267H15.2755C14.0503 0.00597068 11.3828 0.00101638 8.83795 0.000134663ZM9.73676 2.99501C8.16462 2.99505 6.90082 4.22047 6.90082 5.73675C6.90082 6.5247 7.25239 7.27448 7.86602 7.79537L8.31815 8.17925L7.75357 8.37395C6.7787 8.71068 5.96891 9.34581 5.40363 10.1212C4.83962 10.8949 4.52285 11.8058 4.52103 12.6835C4.52155 12.6978 4.52371 12.7117 4.52444 12.7259H14.9501C14.9501 12.7125 14.9519 12.699 14.9524 12.6855C14.9506 11.8073 14.635 10.8953 14.0709 10.1209C13.5058 9.34528 12.6963 8.70997 11.7216 8.37299L11.1578 8.1782L11.6092 7.79441C12.2221 7.2735 12.5721 6.5246 12.5723 5.73675C12.5724 4.22049 11.309 2.99501 9.73676 2.99501ZM9.73676 3.95905C10.7313 3.95903 11.5326 4.75797 11.5327 5.73675C11.5327 6.72322 10.7223 7.45892 9.73676 7.4589C8.7513 7.45885 7.94082 6.72319 7.94084 5.73675C7.94087 4.75797 8.74232 3.95909 9.73676 3.95905ZM9.72592 8.95779H9.73068C10.8132 8.94329 11.722 9.34921 12.379 9.82613C12.9801 10.2626 13.4589 10.8304 13.5791 11.2264L13.7123 11.6648L5.73177 11.6526L5.90076 11.1962C6.1784 10.4472 7.5938 8.96438 9.72592 8.95779ZM18.2483 12.8825C15.0656 12.8825 12.4968 15.3693 12.4968 18.4413C12.4968 21.5132 15.0656 24 18.2483 24C21.431 24 24 21.5132 24 18.4413C24 15.3693 21.431 12.8825 18.2483 12.8825ZM18.2483 13.9959C20.6807 13.9959 22.8387 16.0823 22.8387 18.4413C22.8388 20.8002 20.6807 22.8867 18.2483 22.8867C15.8158 22.8867 13.6577 20.8002 13.6577 18.4413C13.6577 16.0823 15.8158 13.9959 18.2483 13.9959ZM5.16027 15.5685L4.13709 16.2735L4.45679 16.7169L5.16027 16.3929V18.6044H4.24175V19.2525H6.66015V18.6044H5.96258V15.5685H5.16027ZM7.38109 15.5685V19.2525H8.20661V17.4275L9.65997 19.2525H10.6658V19.207L9.0961 17.3082L10.5843 15.614V15.5685H9.65415L8.20661 17.2741V15.5685H7.38109ZM18.2025 15.6419C17.9446 15.6419 17.748 15.834 17.748 16.0859V17.9521H15.8397C15.5821 17.9521 15.3853 18.1446 15.3853 18.3966V18.4863C15.3853 18.7383 15.5819 18.9304 15.8397 18.9304H17.748V20.7966C17.748 21.0485 17.9448 21.241 18.2025 21.241H18.2943C18.552 21.241 18.7484 21.0487 18.7484 20.7966V18.9304H20.6568C20.9146 18.9304 21.1113 18.7383 21.1113 18.4863V18.3966C21.1113 18.1446 20.9145 17.9521 20.6568 17.9521H18.7484V16.0859C18.7484 15.8338 18.5522 15.6419 18.2943 15.6419H18.2025Z" fill="#01C7FB"/>
</svg>
