<svg width="16" height="17" viewBox="0 0 16 17" fill="none" xmlns="http://www.w3.org/2000/svg">
<path d="M8 11.1667C7.47258 11.1667 6.95701 11.0103 6.51848 10.7173C6.07995 10.4242 5.73815 10.0078 5.53632 9.52049C5.33449 9.03322 5.28168 8.49704 5.38457 7.97976C5.48747 7.46248 5.74144 6.98732 6.11438 6.61438C6.48732 6.24144 6.96248 5.98747 7.47976 5.88457C7.99704 5.78168 8.53322 5.83449 9.02049 6.03632C9.50776 6.23815 9.92423 6.57995 10.2173 7.01848C10.5103 7.45701 10.6667 7.97258 10.6667 8.5C10.6667 9.20724 10.3857 9.88552 9.88562 10.3856C9.38552 10.8857 8.70724 11.1667 8 11.1667ZM8 7.16667C7.73629 7.16667 7.4785 7.24487 7.25924 7.39137C7.03997 7.53788 6.86908 7.74612 6.76816 7.98976C6.66724 8.23339 6.64084 8.50148 6.69229 8.76012C6.74373 9.01876 6.87072 9.25634 7.05719 9.44281C7.24366 9.62928 7.48124 9.75627 7.73988 9.80771C7.99852 9.85916 8.26661 9.83276 8.51024 9.73184C8.75388 9.63092 8.96212 9.46003 9.10862 9.24076C9.25513 9.02149 9.33333 8.76371 9.33333 8.5C9.33333 8.14638 9.19286 7.80724 8.94281 7.55719C8.69276 7.30714 8.35362 7.16667 8 7.16667ZM12 15.8333C12 14.7725 11.5786 13.7551 10.8284 13.0049C10.0783 12.2548 9.06086 11.8333 8 11.8333C6.93913 11.8333 5.92172 12.2548 5.17157 13.0049C4.42143 13.7551 4 14.7725 4 15.8333C4 16.0101 4.07024 16.1797 4.19526 16.3047C4.32029 16.4298 4.48985 16.5 4.66667 16.5C4.84348 16.5 5.01305 16.4298 5.13807 16.3047C5.26309 16.1797 5.33333 16.0101 5.33333 15.8333C5.33333 15.1261 5.61428 14.4478 6.11438 13.9477C6.61448 13.4476 7.29276 13.1667 8 13.1667C8.70724 13.1667 9.38552 13.4476 9.88562 13.9477C10.3857 14.4478 10.6667 15.1261 10.6667 15.8333C10.6667 16.0101 10.7369 16.1797 10.8619 16.3047C10.987 16.4298 11.1565 16.5 11.3333 16.5C11.5101 16.5 11.6797 16.4298 11.8047 16.3047C11.9298 16.1797 12 16.0101 12 15.8333ZM12 5.83333C11.4726 5.83333 10.957 5.67694 10.5185 5.38392C10.0799 5.0909 9.73815 4.67443 9.53632 4.18716C9.33449 3.69989 9.28168 3.16371 9.38457 2.64643C9.48746 2.12914 9.74144 1.65399 10.1144 1.28105C10.4873 0.90811 10.9625 0.654134 11.4798 0.55124C11.997 0.448347 12.5332 0.501155 13.0205 0.702989C13.5078 0.904823 13.9242 1.24662 14.2172 1.68515C14.5103 2.12368 14.6667 2.63925 14.6667 3.16667C14.6667 3.87391 14.3857 4.55219 13.8856 5.05229C13.3855 5.55238 12.7072 5.83333 12 5.83333ZM12 1.83333C11.7363 1.83333 11.4785 1.91153 11.2592 2.05804C11.04 2.20455 10.8691 2.41279 10.7682 2.65642C10.6672 2.90006 10.6408 3.16815 10.6923 3.42679C10.7437 3.68543 10.8707 3.92301 11.0572 4.10948C11.2437 4.29595 11.4812 4.42293 11.7399 4.47438C11.9985 4.52583 12.2666 4.49942 12.5102 4.39851C12.7539 4.29759 12.9621 4.12669 13.1086 3.90743C13.2551 3.68816 13.3333 3.43038 13.3333 3.16667C13.3333 2.81305 13.1929 2.47391 12.9428 2.22386C12.6928 1.97381 12.3536 1.83333 12 1.83333ZM16 10.5C15.9989 9.43946 15.5772 8.42266 14.8273 7.67274C14.0773 6.92283 13.0605 6.50106 12 6.5C11.8232 6.5 11.6536 6.57024 11.5286 6.69526C11.4036 6.82029 11.3333 6.98986 11.3333 7.16667C11.3333 7.34348 11.4036 7.51305 11.5286 7.63807C11.6536 7.7631 11.8232 7.83333 12 7.83333C12.7072 7.83333 13.3855 8.11428 13.8856 8.61438C14.3857 9.11448 14.6667 9.79276 14.6667 10.5C14.6667 10.6768 14.7369 10.8464 14.8619 10.9714C14.9869 11.0964 15.1565 11.1667 15.3333 11.1667C15.5101 11.1667 15.6797 11.0964 15.8047 10.9714C15.9298 10.8464 16 10.6768 16 10.5ZM4 5.83333C3.47258 5.83333 2.95701 5.67694 2.51848 5.38392C2.07995 5.0909 1.73815 4.67443 1.53632 4.18716C1.33449 3.69989 1.28168 3.16371 1.38457 2.64643C1.48747 2.12914 1.74144 1.65399 2.11438 1.28105C2.48732 0.90811 2.96248 0.654134 3.47976 0.55124C3.99704 0.448347 4.53322 0.501155 5.02049 0.702989C5.50776 0.904823 5.92423 1.24662 6.21725 1.68515C6.51027 2.12368 6.66667 2.63925 6.66667 3.16667C6.66667 3.87391 6.38571 4.55219 5.88562 5.05229C5.38552 5.55238 4.70724 5.83333 4 5.83333ZM4 1.83333C3.73629 1.83333 3.4785 1.91153 3.25924 2.05804C3.03997 2.20455 2.86908 2.41279 2.76816 2.65642C2.66724 2.90006 2.64084 3.16815 2.69229 3.42679C2.74373 3.68543 2.87072 3.92301 3.05719 4.10948C3.24366 4.29595 3.48124 4.42293 3.73988 4.47438C3.99852 4.52583 4.26661 4.49942 4.51024 4.39851C4.75388 4.29759 4.96212 4.12669 5.10863 3.90743C5.25513 3.68816 5.33333 3.43038 5.33333 3.16667C5.33333 2.81305 5.19286 2.47391 4.94281 2.22386C4.69276 1.97381 4.35362 1.83333 4 1.83333ZM1.33333 10.5C1.33333 9.79276 1.61428 9.11448 2.11438 8.61438C2.61448 8.11428 3.29276 7.83333 4 7.83333C4.17681 7.83333 4.34638 7.7631 4.4714 7.63807C4.59643 7.51305 4.66667 7.34348 4.66667 7.16667C4.66667 6.98986 4.59643 6.82029 4.4714 6.69526C4.34638 6.57024 4.17681 6.5 4 6.5C2.93946 6.50106 1.92266 6.92283 1.17274 7.67274C0.422826 8.42266 0.00105895 9.43946 0 10.5C0 10.6768 0.0702379 10.8464 0.195262 10.9714C0.320286 11.0964 0.489856 11.1667 0.666667 11.1667C0.843478 11.1667 1.01305 11.0964 1.13807 10.9714C1.2631 10.8464 1.33333 10.6768 1.33333 10.5Z" fill="#01C7FB"/>
</svg>
