<svg width="12" height="17" viewBox="0 0 12 17" fill="none" xmlns="http://www.w3.org/2000/svg">
<g clip-path="url(#clip0_10467_3751)">
<path d="M2.89856 16.4396C2.84392 16.4044 2.77196 16.3298 2.73865 16.2738C2.67961 16.1745 2.67808 16.1117 2.67797 13.7941L2.67785 11.4163L2.44162 11.3634C2.3117 11.3343 2.13682 11.2746 2.05299 11.2308C1.96917 11.187 1.84112 11.0924 1.76844 11.0206C1.69576 10.9488 1.5966 10.8101 1.54808 10.7124C1.49957 10.6148 1.44458 10.4741 1.42588 10.3999C1.40718 10.3257 1.38233 9.92032 1.37066 9.49917C1.35254 8.84501 1.3413 8.71751 1.29355 8.62405C1.26281 8.56389 1.04973 8.31776 0.820033 8.0771C0.590335 7.83645 0.36066 7.58329 0.309639 7.51453C0.258618 7.44577 0.181457 7.31749 0.13817 7.22947C0.094884 7.14144 0.0427134 6.97618 0.0222361 6.86223C-0.00708651 6.69906 -0.00708651 6.61102 0.0222361 6.44785C0.0427134 6.33389 0.094884 6.16864 0.13817 6.08061C0.181457 5.99259 0.258618 5.86431 0.309639 5.79555C0.36066 5.72679 0.590335 5.47363 0.820033 5.23297C1.04973 4.99231 1.26281 4.74619 1.29355 4.68602C1.3413 4.59257 1.35254 4.46507 1.37066 3.81091C1.38233 3.38976 1.40718 2.98443 1.42588 2.91018C1.44458 2.83593 1.49932 2.69506 1.54753 2.59713C1.59574 2.4992 1.70507 2.35205 1.79048 2.27014C1.87588 2.18822 2.00658 2.09447 2.08091 2.0618C2.15524 2.02913 2.26852 1.98573 2.33265 1.96536C2.39841 1.94447 2.76816 1.91874 3.18078 1.90634C3.8387 1.88657 3.92725 1.87751 4.06065 1.81639C4.16731 1.76752 4.33545 1.61888 4.65916 1.28728C4.91496 1.02524 5.18479 0.779656 5.28407 0.718499C5.38018 0.659303 5.52919 0.585925 5.61523 0.555435C5.71086 0.521542 5.86049 0.5 6.00026 0.5C6.14003 0.5 6.28965 0.521542 6.38528 0.555435C6.47132 0.585925 6.62053 0.659303 6.71686 0.718499C6.81719 0.780151 7.08441 1.02325 7.34241 1.28757C7.66538 1.61846 7.83459 1.76815 7.9405 1.81668C8.07325 1.87751 8.16219 1.88653 8.81973 1.90584C9.38559 1.92246 9.58923 1.93965 9.71891 1.98177C9.81112 2.01171 9.92643 2.05728 9.97517 2.08304C10.0239 2.10879 10.1316 2.19494 10.2146 2.27447C10.2975 2.354 10.4048 2.4992 10.453 2.59713C10.5012 2.69506 10.5559 2.83593 10.5746 2.91018C10.5933 2.98443 10.6182 3.38976 10.6298 3.81091C10.648 4.46507 10.6592 4.59257 10.707 4.68602C10.7377 4.74619 10.9508 4.99231 11.1805 5.23297C11.4102 5.47363 11.6398 5.72679 11.6909 5.79555C11.7419 5.86431 11.8191 5.99259 11.8623 6.08061C11.9056 6.16864 11.9578 6.33389 11.9783 6.44785C12.0077 6.61173 12.0076 6.69902 11.9777 6.86546C11.9565 6.98321 11.8905 7.17244 11.8276 7.29516C11.7407 7.46504 11.6083 7.62714 11.24 8.01476C10.9784 8.28995 10.739 8.56422 10.7078 8.62427C10.6589 8.71831 10.6481 8.8396 10.6298 9.49917C10.6182 9.92032 10.5933 10.3257 10.5746 10.3999C10.5559 10.4741 10.5009 10.6148 10.4524 10.7124C10.4039 10.8101 10.3048 10.9487 10.2321 11.0204C10.1594 11.0921 10.0335 11.1866 9.95222 11.2305C9.87098 11.2743 9.6961 11.334 9.56359 11.3632L9.32266 11.4163L9.32255 13.7941C9.32244 16.1117 9.3209 16.1745 9.26187 16.2738C9.22855 16.3298 9.15659 16.4036 9.10196 16.4378C9.04271 16.4748 8.9485 16.4999 8.86855 16.5C8.76246 16.5001 8.44928 16.3758 7.368 15.9046L6.00152 15.3091L4.66735 15.8932C3.60882 16.3567 3.29856 16.48 3.16555 16.4904C3.03399 16.5007 2.97651 16.4897 2.89856 16.4396ZM4.81583 14.7784C5.5786 14.4452 5.9167 14.3123 6.00145 14.3123C6.08631 14.3123 6.43589 14.45 7.23132 14.7968C7.84254 15.0632 8.35053 15.2812 8.36019 15.2812C8.36985 15.2812 8.37776 14.4087 8.37776 13.3424V11.4035L8.21773 11.4239C8.12972 11.4351 7.99811 11.4705 7.92526 11.5027C7.83507 11.5424 7.64909 11.7083 7.34241 12.0225C7.08441 12.2868 6.81719 12.5299 6.71686 12.5916C6.62053 12.6508 6.47132 12.7242 6.38528 12.7546C6.28965 12.7885 6.14003 12.8101 6.00026 12.8101C5.86049 12.8101 5.71086 12.7885 5.61523 12.7546C5.52919 12.7242 5.38018 12.6508 5.28407 12.5916C5.18479 12.5304 4.91496 12.2848 4.65916 12.0228C4.35157 11.7077 4.16682 11.5431 4.07589 11.5029C4.00269 11.4707 3.87079 11.4351 3.78278 11.4239L3.62275 11.4035V13.3445C3.62275 15.2854 3.62276 15.2854 3.68576 15.2649C3.72041 15.2536 4.22894 15.0347 4.81583 14.7784ZM6.19629 11.7887C6.24544 11.763 6.48844 11.5375 6.73629 11.2876C6.98414 11.0377 7.22512 10.8066 7.27179 10.7741C7.31846 10.7415 7.42168 10.6803 7.50116 10.638C7.58064 10.5957 7.73838 10.5388 7.85169 10.5116C7.99569 10.4771 8.25042 10.4594 8.6978 10.4528C9.20741 10.4453 9.36347 10.4328 9.46331 10.3915C9.53852 10.3604 9.60483 10.3059 9.62899 10.2554C9.65695 10.1969 9.67588 9.93684 9.69084 9.40541C9.70738 8.818 9.72459 8.59965 9.76474 8.46778C9.79353 8.37324 9.84482 8.23963 9.87873 8.17087C9.91264 8.10211 9.98249 7.98959 10.0339 7.92083C10.0854 7.85207 10.3149 7.59892 10.5439 7.35826C10.7729 7.1176 10.9828 6.87569 11.0102 6.82067C11.0376 6.76566 11.0601 6.69113 11.0601 6.65504C11.0601 6.61895 11.0376 6.54442 11.0102 6.4894C10.9828 6.43439 10.7729 6.19248 10.5439 5.95182C10.3149 5.71116 10.0854 5.458 10.0339 5.38924C9.98249 5.32048 9.91264 5.20797 9.87873 5.13921C9.84482 5.07045 9.79353 4.93684 9.76474 4.84229C9.72459 4.71043 9.70738 4.49208 9.69084 3.90467C9.67588 3.37324 9.65695 3.11316 9.62899 3.05469C9.60491 3.00431 9.53899 2.95003 9.46505 2.9197C9.36799 2.87988 9.20335 2.86683 8.69955 2.85902C8.24708 2.852 7.99693 2.83431 7.85169 2.79905C7.73838 2.77154 7.58064 2.71441 7.50116 2.6721C7.42168 2.62979 7.31846 2.56855 7.27179 2.536C7.22512 2.50346 6.98172 2.26992 6.73091 2.01703C6.42446 1.70804 6.22985 1.5368 6.13757 1.49494C6.00096 1.43298 5.99956 1.43298 5.86515 1.49394C5.77583 1.53445 5.56151 1.72303 5.23267 2.05044C4.88118 2.40042 4.68074 2.5752 4.54928 2.64635C4.44696 2.70172 4.26865 2.76999 4.15303 2.79805C4.00298 2.83446 3.75907 2.85191 3.30096 2.85901C2.79717 2.86682 2.63252 2.87988 2.53546 2.9197C2.46152 2.95003 2.3956 3.00431 2.37151 3.05468C2.34355 3.11316 2.32463 3.37324 2.30967 3.90467C2.29313 4.49208 2.27592 4.71042 2.23577 4.84229C2.20698 4.93684 2.15569 5.07045 2.12178 5.13921C2.08787 5.20797 2.01841 5.32048 1.96743 5.38924C1.91645 5.458 1.6868 5.71116 1.45711 5.95182C1.22741 6.19247 1.0172 6.43439 0.989961 6.4894C0.962727 6.54441 0.940446 6.61895 0.940446 6.65504C0.940446 6.69112 0.962727 6.76566 0.989961 6.82067C1.0172 6.87569 1.22741 7.1176 1.45711 7.35826C1.6868 7.59891 1.91645 7.85207 1.96743 7.92083C2.01841 7.98959 2.08787 8.10211 2.12178 8.17087C2.15569 8.23963 2.20698 8.37324 2.23577 8.46778C2.27592 8.59965 2.29313 8.818 2.30967 9.40541C2.32463 9.93684 2.34355 10.1969 2.37151 10.2554C2.39575 10.3061 2.46178 10.3602 2.53721 10.3912C2.63648 10.432 2.79599 10.4449 3.3027 10.4528C3.74579 10.4597 4.00621 10.4779 4.14882 10.5119C4.26213 10.5389 4.41987 10.5957 4.49935 10.638C4.57883 10.6803 4.68316 10.7423 4.73119 10.7757C4.77923 10.8092 5.02092 11.0419 5.26828 11.2927C5.55946 11.5881 5.76511 11.7707 5.85153 11.8108C5.92495 11.8448 6.01245 11.8643 6.04597 11.854C6.0795 11.8437 6.14715 11.8143 6.19629 11.7887ZM5.43482 9.95559C5.31663 9.93246 5.13832 9.88932 5.03857 9.85971C4.93883 9.8301 4.75699 9.75851 4.63448 9.70061C4.51197 9.6427 4.31308 9.52817 4.19251 9.44609C4.07193 9.36401 3.86681 9.19266 3.73667 9.06532C3.60653 8.93797 3.43229 8.74005 3.34947 8.6255C3.26665 8.51094 3.14369 8.30655 3.07624 8.1713C3.00878 8.03605 2.91929 7.81888 2.87738 7.6887C2.83546 7.55853 2.7787 7.31841 2.75124 7.15511C2.71475 6.93814 2.7057 6.75299 2.71762 6.46751C2.72902 6.19428 2.75756 5.98311 2.81256 5.76503C2.85586 5.59335 2.9589 5.31243 3.04184 5.13994C3.12469 4.96764 3.28365 4.70318 3.39509 4.55226C3.50653 4.40133 3.69521 4.1918 3.81439 4.08663C3.93355 3.98146 4.12705 3.83174 4.24438 3.75391C4.3617 3.67609 4.56698 3.56516 4.70054 3.5074C4.8341 3.44964 5.04744 3.37488 5.17463 3.34125C5.30182 3.30763 5.53961 3.26604 5.70307 3.24883C5.9014 3.22795 6.09911 3.22795 6.29744 3.24883C6.4609 3.26604 6.6987 3.30763 6.82588 3.34125C6.95307 3.37488 7.16641 3.44964 7.29997 3.5074C7.43354 3.56516 7.6388 3.67609 7.75613 3.75391C7.87346 3.83174 8.06695 3.98146 8.18612 4.08663C8.30529 4.1918 8.49398 4.40133 8.60542 4.55226C8.71686 4.70318 8.87583 4.96764 8.95867 5.13994C9.04161 5.31243 9.14464 5.59335 9.18794 5.76503C9.24295 5.98311 9.27149 6.19428 9.2829 6.46751C9.29481 6.75299 9.28576 6.93814 9.24927 7.15511C9.22181 7.31841 9.16533 7.5575 9.12376 7.68643C9.08219 7.81535 9.00323 8.01225 8.94831 8.12399C8.89339 8.23572 8.79502 8.41152 8.72972 8.51466C8.66442 8.6178 8.46532 8.84987 8.28729 9.03036C8.07342 9.24719 7.8802 9.40944 7.7178 9.50859C7.58261 9.59112 7.3706 9.70107 7.24668 9.75292C7.12275 9.80477 6.91163 9.87545 6.77751 9.90998C6.60846 9.95351 6.39812 9.97658 6.0917 9.9852C5.79944 9.99343 5.57693 9.9834 5.43482 9.95559ZM6.56318 8.9681C6.69374 8.93386 6.90105 8.85629 7.02386 8.79572C7.14667 8.73516 7.34827 8.60321 7.47185 8.50251C7.59543 8.40181 7.76733 8.22271 7.85385 8.1045C7.94036 7.9863 8.05935 7.78846 8.11827 7.66486C8.17719 7.54127 8.25273 7.32327 8.28613 7.18042C8.32495 7.01438 8.34673 6.81361 8.34653 6.62378C8.3463 6.46048 8.32678 6.23284 8.30303 6.11791C8.27927 6.00298 8.22608 5.82325 8.18482 5.71852C8.14356 5.61378 8.06379 5.44788 8.00755 5.34986C7.95132 5.25183 7.79557 5.05823 7.66146 4.91963C7.52734 4.78103 7.33203 4.61458 7.22743 4.54975C7.12283 4.48491 6.92811 4.39103 6.79473 4.34111C6.66135 4.2912 6.42803 4.23403 6.27624 4.21407C6.06581 4.1864 5.93383 4.18651 5.72063 4.21455C5.55954 4.23574 5.32975 4.29418 5.17854 4.35241C5.03419 4.40801 4.81791 4.52041 4.69793 4.6022C4.57795 4.68399 4.39326 4.84717 4.2875 4.96483C4.18174 5.0825 4.04919 5.25737 3.99296 5.35343C3.93672 5.44949 3.85695 5.61379 3.81569 5.71852C3.77443 5.82326 3.72124 6.00298 3.69748 6.11791C3.67373 6.23284 3.65415 6.46049 3.65398 6.62379C3.65375 6.81361 3.67557 7.01438 3.71439 7.18043C3.74779 7.32328 3.82332 7.54128 3.88223 7.66487C3.94116 7.78846 4.06015 7.9863 4.14667 8.10451C4.23318 8.22272 4.40508 8.40182 4.52866 8.50252C4.65225 8.60322 4.85411 8.7353 4.97725 8.79603C5.1004 8.85676 5.30208 8.93356 5.42544 8.96669C5.5788 9.00787 5.75662 9.02747 5.98776 9.02864C6.23016 9.02987 6.39295 9.01275 6.56318 8.9681Z" fill="#13AEF3"/>
</g>
<defs>
<clipPath id="clip0_10467_3751">
<rect width="12" height="16" fill="white" transform="translate(0 0.5)"/>
</clipPath>
</defs>
</svg>
