<svg width="24" height="24" viewBox="0 0 24 24" fill="none" xmlns="http://www.w3.org/2000/svg">
<path d="M5.82508 4.38243C5.26066 4.6087 4.9999 4.86946 4.77358 5.43393C4.71635 5.57671 4.51535 5.57671 4.45807 5.43393C4.23181 4.86946 3.97104 4.6087 3.40662 4.38243C3.26379 4.32515 3.26379 4.12415 3.40662 4.06692C3.97104 3.84061 4.23181 3.57984 4.45807 3.01542C4.51535 2.87264 4.71635 2.87264 4.77358 3.01542C4.9999 3.57984 5.26066 3.84061 5.82508 4.06692C5.96791 4.12415 5.96791 4.32515 5.82508 4.38243Z" stroke="#214b92" stroke-width="1.25" stroke-miterlimit="10" stroke-linecap="round" stroke-linejoin="round"/>
<path d="M2.6283 0.781269L3.19211 1.75781" stroke="#214b92" stroke-width="1.25" stroke-miterlimit="10" stroke-linecap="round" stroke-linejoin="round"/>
<path d="M0.640747 4.22461H1.76842" stroke="#214b92" stroke-width="1.25" stroke-miterlimit="10" stroke-linecap="round" stroke-linejoin="round"/>
<path d="M2.6283 7.66699L3.19211 6.69045" stroke="#214b92" stroke-width="1.25" stroke-miterlimit="10" stroke-linecap="round" stroke-linejoin="round"/>
<path d="M6.60342 7.66699L6.03961 6.69045" stroke="#214b92" stroke-width="1.25" stroke-miterlimit="10" stroke-linecap="round" stroke-linejoin="round"/>
<path d="M8.59093 4.22461H7.46326" stroke="#214b92" stroke-width="1.25" stroke-miterlimit="10" stroke-linecap="round" stroke-linejoin="round"/>
<path d="M6.60342 0.781269L6.03961 1.75781" stroke="#214b92" stroke-width="1.25" stroke-miterlimit="10" stroke-linecap="round" stroke-linejoin="round"/>
<path d="M4.61584 1.02994V1.07812" stroke="#214b92" stroke-width="1.25" stroke-miterlimit="10" stroke-linecap="round" stroke-linejoin="round"/>
<path d="M1.84979 2.62727L1.89156 2.65137" stroke="#214b92" stroke-width="1.25" stroke-miterlimit="10" stroke-linecap="round" stroke-linejoin="round"/>
<path d="M1.84979 5.82129L1.89156 5.7972" stroke="#214b92" stroke-width="1.25" stroke-miterlimit="10" stroke-linecap="round" stroke-linejoin="round"/>
<path d="M7.38185 5.82129L7.34009 5.7972" stroke="#214b92" stroke-width="1.25" stroke-miterlimit="10" stroke-linecap="round" stroke-linejoin="round"/>
<path d="M7.38185 2.62727L7.34009 2.65137" stroke="#214b92" stroke-width="1.25" stroke-miterlimit="10" stroke-linecap="round" stroke-linejoin="round"/>
<path d="M4.61584 7.00843V10.9287" stroke="#214b92" stroke-width="1.25" stroke-miterlimit="10" stroke-linecap="round" stroke-linejoin="round"/>
<path d="M20.4192 17.2383L17.5076 13.9564C17.4697 13.9136 17.4231 13.8794 17.371 13.856C17.3189 13.8325 17.2624 13.8204 17.2052 13.8204H5.63793C5.57982 13.8204 5.52288 13.8368 5.47364 13.8677C5.42441 13.8985 5.38488 13.9427 5.35959 13.995L4.65155 15.4591C4.61959 15.5252 4.56965 15.581 4.50745 15.62C4.44525 15.659 4.37331 15.6797 4.29989 15.6797H2.90058C2.83918 15.6797 2.7803 15.7041 2.73688 15.7475C2.69346 15.7909 2.66907 15.8498 2.66907 15.9112V17.2383" stroke="#214b92" stroke-width="1.25" stroke-miterlimit="10" stroke-linecap="round" stroke-linejoin="round"/>
<path d="M10.896 13.8203V12.0528C10.896 11.9857 10.9226 11.9215 10.97 11.8741C11.0174 11.8267 11.0816 11.8001 11.1487 11.8001H14.2949C14.3436 11.8001 14.3915 11.8118 14.4347 11.8342C14.4779 11.8567 14.515 11.8892 14.543 11.929L15.8716 13.8203" stroke="#214b92" stroke-width="1.25" stroke-miterlimit="10" stroke-linecap="round" stroke-linejoin="round"/>
<path d="M6.68573 13.8203V10.8325C6.68573 10.7923 6.7017 10.7537 6.73013 10.7253C6.75856 10.6968 6.79712 10.6809 6.83732 10.6809H8.06123C8.10144 10.6809 8.14 10.6968 8.16844 10.7253C8.19687 10.7537 8.21285 10.7923 8.21287 10.8325V13.8203" stroke="#214b92" stroke-width="1.25" stroke-miterlimit="10" stroke-linecap="round" stroke-linejoin="round"/>
<path d="M16.5544 15.5293H16.3557" stroke="#214b92" stroke-width="1.25" stroke-miterlimit="10" stroke-linecap="round" stroke-linejoin="round"/>
<path d="M14.6446 15.5293H14.4459" stroke="#214b92" stroke-width="1.25" stroke-miterlimit="10" stroke-linecap="round" stroke-linejoin="round"/>
<path d="M12.7347 15.5293H12.5359" stroke="#214b92" stroke-width="1.25" stroke-miterlimit="10" stroke-linecap="round" stroke-linejoin="round"/>
<path d="M10.8247 15.5293H10.626" stroke="#214b92" stroke-width="1.25" stroke-miterlimit="10" stroke-linecap="round" stroke-linejoin="round"/>
<path d="M8.91483 15.5293H8.71613" stroke="#214b92" stroke-width="1.25" stroke-miterlimit="10" stroke-linecap="round" stroke-linejoin="round"/>
<path d="M7.00492 15.5293H6.80621" stroke="#214b92" stroke-width="1.25" stroke-miterlimit="10" stroke-linecap="round" stroke-linejoin="round"/>
<path d="M1.82342 19.7969L1.05795 17.6022C0.996075 17.4241 1.12826 17.2384 1.3167 17.2384H14.2462" stroke="#214b92" stroke-width="1.25" stroke-miterlimit="10" stroke-linecap="round" stroke-linejoin="round"/>
<path d="M15.9332 17.2386H23.3113C23.5668 17.2386 23.729 17.5119 23.6066 17.7359L21.8366 20.9844" stroke="#214b92" stroke-width="1.25" stroke-miterlimit="10" stroke-linecap="round" stroke-linejoin="round"/>
<path d="M0.351562 21.3887H1.47422C2.01121 21.3887 2.28838 20.7126 1.41928 20.3614C1.27842 20.3046 1.24987 20.1385 1.36148 20.0435C2.62527 18.9687 4.01038 21.3887 4.64703 21.3887H5.04261C5.57961 21.3887 5.85678 20.7126 4.98767 20.3614C4.84681 20.3046 4.81827 20.1385 4.92988 20.0435C6.19367 18.9687 7.57878 21.3887 8.21543 21.3887H8.61101C9.14801 21.3887 9.42518 20.7126 8.55607 20.3614C8.41521 20.3046 8.38666 20.1385 8.49827 20.0435C9.76207 18.9687 11.1472 21.3887 11.7838 21.3887H12.1794C12.7164 21.3887 12.9936 20.7126 12.1245 20.3614C11.9836 20.3046 11.9551 20.1385 12.0667 20.0435C13.3305 18.9687 14.7156 21.3887 15.3522 21.3887H15.7478C16.2848 21.3887 16.562 20.7126 15.6928 20.3614C15.552 20.3046 15.5234 20.1385 15.6351 20.0435C16.8989 18.9687 18.284 21.3887 18.9206 21.3887H19.3162C19.8532 21.3887 20.1304 20.7126 19.2612 20.3614C19.1204 20.3046 19.0918 20.1385 19.2035 20.0435C20.4672 18.9687 21.8524 21.3887 22.489 21.3887H23.6484" stroke="#214b92" stroke-width="1.25" stroke-miterlimit="10" stroke-linecap="round" stroke-linejoin="round"/>
<path d="M3.30913 23.2178H0.351562" stroke="#214b92" stroke-width="1.25" stroke-miterlimit="10" stroke-linecap="round" stroke-linejoin="round"/>
<path d="M23.6484 23.2178H4.99597" stroke="#214b92" stroke-width="1.25" stroke-miterlimit="10" stroke-linecap="round" stroke-linejoin="round"/>
<path d="M20.4322 6.69639C20.0197 6.69639 19.6852 7.03084 19.6852 7.44343C19.6852 7.85598 20.0197 8.19043 20.4322 8.19043C20.8448 8.19043 21.1793 7.85598 21.1793 7.44343C21.1793 7.03084 20.8448 6.69639 20.4322 6.69639Z" stroke="#214b92" stroke-width="1.25" stroke-miterlimit="10" stroke-linecap="round" stroke-linejoin="round"/>
<path d="M20.4323 9.90747V14.2021" stroke="#214b92" stroke-width="1.25" stroke-miterlimit="10" stroke-linecap="round" stroke-linejoin="round"/>
<path d="M20.4323 5.16895V4.96602" stroke="#214b92" stroke-width="1.25" stroke-miterlimit="10" stroke-linecap="round" stroke-linejoin="round"/>
<path d="M18.7057 5.88379L18.5623 5.74031" stroke="#214b92" stroke-width="1.25" stroke-miterlimit="10" stroke-linecap="round" stroke-linejoin="round"/>
<path d="M17.9906 7.61035H17.7877" stroke="#214b92" stroke-width="1.25" stroke-miterlimit="10" stroke-linecap="round" stroke-linejoin="round"/>
<path d="M18.7057 9.33698L18.5623 9.48047" stroke="#214b92" stroke-width="1.25" stroke-miterlimit="10" stroke-linecap="round" stroke-linejoin="round"/>
<path d="M22.1587 9.33698L22.3022 9.48047" stroke="#214b92" stroke-width="1.25" stroke-miterlimit="10" stroke-linecap="round" stroke-linejoin="round"/>
<path d="M22.8738 7.61035H23.0768" stroke="#214b92" stroke-width="1.25" stroke-miterlimit="10" stroke-linecap="round" stroke-linejoin="round"/>
<path d="M22.1587 5.88379L22.3022 5.74031" stroke="#214b92" stroke-width="1.25" stroke-miterlimit="10" stroke-linecap="round" stroke-linejoin="round"/>
</svg>
