<svg width="49" height="48" viewBox="0 0 49 48" fill="none" xmlns="http://www.w3.org/2000/svg">
<g clip-path="url(#clip0_4108_18178)">
<path d="M46.375 22.125H26.125V1.875C26.125 0.839438 25.2856 0 24.25 0C23.2144 0 22.375 0.839438 22.375 1.875V22.125H2.125C1.08944 22.125 0.25 22.9644 0.25 24C0.25 25.0356 1.08944 25.875 2.125 25.875H22.375V46.125C22.375 47.1606 23.2144 48 24.25 48C25.2856 48 26.125 47.1606 26.125 46.125V25.875H46.375C47.4106 25.875 48.25 25.0356 48.25 24C48.25 22.9644 47.4106 22.125 46.375 22.125Z" fill="black"/>
</g>
<defs>
<clipPath id="clip0_4108_18178">
<rect width="48" height="48" fill="white" transform="translate(0.25)"/>
</clipPath>
</defs>
</svg>
