<svg width="20" height="20" viewBox="0 0 20 20" fill="none" xmlns="http://www.w3.org/2000/svg">
<path fill-rule="evenodd" clip-rule="evenodd" d="M0 3C0 2.20435 0.316071 1.44129 0.87868 0.87868C1.44129 0.316071 2.20435 0 3 0H5.943C6.73865 0 7.50171 0.316071 8.06432 0.87868C8.62693 1.44129 8.943 2.20435 8.943 3V5.943C8.943 6.73865 8.62693 7.50171 8.06432 8.06432C7.50171 8.62693 6.73865 8.943 5.943 8.943H3C2.20435 8.943 1.44129 8.62693 0.87868 8.06432C0.316071 7.50171 0 6.73865 0 5.943V3ZM3 2C2.73478 2 2.48043 2.10536 2.29289 2.29289C2.10536 2.48043 2 2.73478 2 3V5.943C2 6.20822 2.10536 6.46257 2.29289 6.65011C2.48043 6.83764 2.73478 6.943 3 6.943H5.943C6.20822 6.943 6.46257 6.83764 6.65011 6.65011C6.83764 6.46257 6.943 6.20822 6.943 5.943V3C6.943 2.73478 6.83764 2.48043 6.65011 2.29289C6.46257 2.10536 6.20822 2 5.943 2H3ZM0 14.057C0 13.2613 0.316071 12.4983 0.87868 11.9357C1.44129 11.3731 2.20435 11.057 3 11.057H5.943C6.73865 11.057 7.50171 11.3731 8.06432 11.9357C8.62693 12.4983 8.943 13.2613 8.943 14.057V17C8.943 17.7956 8.62693 18.5587 8.06432 19.1213C7.50171 19.6839 6.73865 20 5.943 20H3C2.20435 20 1.44129 19.6839 0.87868 19.1213C0.316071 18.5587 0 17.7956 0 17V14.057ZM3 13.057C2.73478 13.057 2.48043 13.1624 2.29289 13.3499C2.10536 13.5374 2 13.7918 2 14.057V17C2 17.2652 2.10536 17.5196 2.29289 17.7071C2.48043 17.8946 2.73478 18 3 18H5.943C6.20822 18 6.46257 17.8946 6.65011 17.7071C6.83764 17.5196 6.943 17.2652 6.943 17V14.057C6.943 13.7918 6.83764 13.5374 6.65011 13.3499C6.46257 13.1624 6.20822 13.057 5.943 13.057H3ZM11.059 3C11.059 2.20435 11.3751 1.44129 11.9377 0.87868C12.5003 0.316071 13.2634 0 14.059 0H17C17.7956 0 18.5587 0.316071 19.1213 0.87868C19.6839 1.44129 20 2.20435 20 3V5.943C20 6.73865 19.6839 7.50171 19.1213 8.06432C18.5587 8.62693 17.7956 8.943 17 8.943H14.06C13.2643 8.943 12.5013 8.62693 11.9387 8.06432C11.3761 7.50171 11.06 6.73865 11.06 5.943L11.059 3ZM14.059 2C13.7938 2 13.5394 2.10536 13.3519 2.29289C13.1644 2.48043 13.059 2.73478 13.059 3V5.943C13.059 6.20822 13.1644 6.46257 13.3519 6.65011C13.5394 6.83764 13.7938 6.943 14.059 6.943H17C17.2652 6.943 17.5196 6.83764 17.7071 6.65011C17.8946 6.46257 18 6.20822 18 5.943V3C18 2.73478 17.8946 2.48043 17.7071 2.29289C17.5196 2.10536 17.2652 2 17 2H14.059ZM16 11C16.2652 11 16.5196 11.1054 16.7071 11.2929C16.8946 11.4804 17 11.7348 17 12V14H19C19.2652 14 19.5196 14.1054 19.7071 14.2929C19.8946 14.4804 20 14.7348 20 15C20 15.2652 19.8946 15.5196 19.7071 15.7071C19.5196 15.8946 19.2652 16 19 16H17V18C17 18.2652 16.8946 18.5196 16.7071 18.7071C16.5196 18.8946 16.2652 19 16 19C15.7348 19 15.4804 18.8946 15.2929 18.7071C15.1054 18.5196 15 18.2652 15 18V16H13C12.7348 16 12.4804 15.8946 12.2929 15.7071C12.1054 15.5196 12 15.2652 12 15C12 14.7348 12.1054 14.4804 12.2929 14.2929C12.4804 14.1054 12.7348 14 13 14H15V12C15 11.7348 15.1054 11.4804 15.2929 11.2929C15.4804 11.1054 15.7348 11 16 11Z" fill="#214b92"/>
</svg>
