<svg width="20" height="20" viewBox="0 0 20 20" fill="none" xmlns="http://www.w3.org/2000/svg">
<g clip-path="url(#clip0_7403_2107)">
<path d="M0.404227 6.74024L8.62256 11.6711C9.03852 11.9212 9.51471 12.0533 10.0001 12.0533C10.4854 12.0533 10.9616 11.9212 11.3776 11.6711L19.5951 6.74024C19.7183 6.66615 19.8202 6.56145 19.891 6.43631C19.9618 6.31116 19.999 6.16984 19.999 6.02607C19.999 5.8823 19.9618 5.74098 19.891 5.61583C19.8202 5.49069 19.7183 5.38599 19.5951 5.3119L11.3784 0.380237C10.9625 0.129549 10.4861 -0.00292969 10.0005 -0.00292969C9.51487 -0.00292969 9.03846 0.129549 8.62256 0.380237L0.404227 5.31107C0.281016 5.38516 0.179069 5.48986 0.108294 5.615C0.0375187 5.74014 0.00032351 5.88147 0.00032351 6.02524C0.00032351 6.16901 0.0375187 6.31033 0.108294 6.43547C0.179069 6.56061 0.281016 6.66532 0.404227 6.7394V6.74024ZM9.48006 1.8094C9.80006 1.61774 10.1992 1.61774 10.5201 1.8094L17.5467 6.02607L10.5201 10.2427C10.1992 10.4344 9.80006 10.4344 9.47923 10.2427L2.45339 6.02524L9.48006 1.8094ZM20.0001 16.6669C20.0001 16.8879 19.9123 17.0999 19.756 17.2562C19.5997 17.4124 19.3877 17.5002 19.1667 17.5002H17.5001V19.1669C17.5001 19.3879 17.4123 19.5999 17.256 19.7562C17.0997 19.9124 16.8877 20.0002 16.6667 20.0002C16.4457 20.0002 16.2337 19.9124 16.0775 19.7562C15.9212 19.5999 15.8334 19.3879 15.8334 19.1669V17.5002H14.1667C13.9457 17.5002 13.7338 17.4124 13.5775 17.2562C13.4212 17.0999 13.3334 16.8879 13.3334 16.6669C13.3334 16.4459 13.4212 16.2339 13.5775 16.0776C13.7338 15.9214 13.9457 15.8336 14.1667 15.8336H15.8334V14.1669C15.8334 13.9459 15.9212 13.7339 16.0775 13.5776C16.2337 13.4214 16.4457 13.3336 16.6667 13.3336C16.8877 13.3336 17.0997 13.4214 17.256 13.5776C17.4123 13.7339 17.5001 13.9459 17.5001 14.1669V15.8336H19.1667C19.3877 15.8336 19.5997 15.9214 19.756 16.0776C19.9123 16.2339 20.0001 16.4459 20.0001 16.6669ZM10.7142 19.4052C10.6004 19.5946 10.416 19.731 10.2016 19.7845C9.98717 19.8379 9.76031 19.804 9.57089 19.6902L0.404227 14.1911C0.310386 14.1348 0.228554 14.0605 0.163404 13.9726C0.0982534 13.8847 0.0510598 13.7848 0.0245178 13.6786C-0.0290864 13.4642 0.00468161 13.2373 0.118393 13.0477C0.232105 12.8582 0.416445 12.7216 0.630862 12.668C0.845278 12.6144 1.07221 12.6482 1.26173 12.7619L10.4284 18.2619C10.5222 18.3182 10.6041 18.3924 10.6692 18.4804C10.7344 18.5683 10.7816 18.6682 10.8081 18.7744C10.8346 18.8805 10.84 18.9909 10.8239 19.0991C10.8078 19.2074 10.7705 19.3114 10.7142 19.4052ZM19.8809 9.2419C19.9372 9.33574 19.9745 9.43976 19.9906 9.548C20.0067 9.65624 20.0013 9.7666 19.9748 9.87277C19.9482 9.97894 19.901 10.0788 19.8359 10.1668C19.7707 10.2547 19.6889 10.3289 19.5951 10.3852L10.4284 15.8852C10.2988 15.9631 10.1504 16.0042 9.99923 16.0042C9.84802 16.0042 9.69967 15.9631 9.57006 15.8852L0.404227 10.3852C0.310386 10.3289 0.228554 10.2547 0.163404 10.1668C0.0982534 10.0788 0.0510598 9.97894 0.0245177 9.87277C-0.00202435 9.7666 -0.00739513 9.65624 0.00871204 9.548C0.0248192 9.43976 0.0620889 9.33574 0.118393 9.2419C0.174697 9.14806 0.248934 9.06623 0.336863 9.00108C0.424793 8.93593 0.524693 8.88874 0.630862 8.86219C0.73703 8.83565 0.847387 8.83028 0.955631 8.84639C1.06387 8.8625 1.16789 8.89977 1.26173 8.95607L9.99923 14.1986L18.7367 8.95607C18.8306 8.89976 18.9346 8.86249 19.0428 8.84639C19.1511 8.83028 19.2614 8.83565 19.3676 8.86219C19.4738 8.88873 19.5737 8.93593 19.6616 9.00108C19.7495 9.06623 19.8246 9.14806 19.8809 9.2419Z" fill="#0D0D0D"/>
</g>
<defs>
<clipPath id="clip0_7403_2107">
<rect width="20" height="20" fill="white"/>
</clipPath>
</defs>
</svg>
