<svg width="40" height="41" viewBox="0 0 40 41" fill="none" xmlns="http://www.w3.org/2000/svg">
<g clip-path="url(#clip0_7529_3426)">
<path d="M3.87109 36.2363H5.16142V37.5267H3.87109V36.2363ZM6.45174 36.2363H7.74206V37.5267H6.45174V36.2363ZM9.03238 36.2363H10.3227V37.5267H9.03238V36.2363ZM30.9679 36.2363H36.1292V37.5267H30.9679V36.2363Z" fill="#006980"/>
<path d="M38.7097 33.6558V12.3655C38.7097 10.5869 37.2625 9.13968 35.4839 9.13968H33.5484C33.5484 4.15887 29.4969 0.107422 24.5161 0.107422C19.5353 0.107422 15.4839 4.15887 15.4839 9.13968H4.51613C2.7375 9.13968 1.29032 10.5869 1.29032 12.3655V33.6558H0V36.8816C0 38.6602 1.44718 40.1074 3.22581 40.1074H36.7742C38.5528 40.1074 40 38.6602 40 36.8816V33.6558H38.7097ZM35.4839 10.43C36.5508 10.43 37.4194 11.2986 37.4194 12.3655V33.6558H36.129V13.0106C36.129 12.299 35.5503 11.7203 34.8387 11.7203H33.1678C33.2923 11.3023 33.382 10.8707 33.4451 10.43H35.4839ZM17.149 6.76887L23.9966 9.62226L26.3414 16.6551C25.7548 16.7978 25.1459 16.8816 24.5161 16.8816C20.2469 16.8816 16.7742 13.4088 16.7742 9.13968C16.7745 8.33468 16.901 7.5347 17.149 6.76887ZM27.5671 16.2525L25.2542 9.31387L30.4218 4.14597C31.565 5.49516 32.2581 7.23694 32.2581 9.13968C32.2581 12.3255 30.3226 15.0661 27.5671 16.2525ZM24.5161 1.39774C26.4189 1.39774 28.1606 2.09081 29.5105 3.23339L24.3659 8.37766L17.649 5.5796C18.94 3.09855 21.531 1.39774 24.5161 1.39774ZM2.58065 12.3655C2.58065 11.2986 3.44919 10.43 4.51613 10.43H15.5872C15.6502 10.8707 15.7394 11.3023 15.8644 11.7203H5.16129C4.44968 11.7203 3.87097 12.299 3.87097 13.0106V33.6558H2.58065V12.3655ZM38.7097 36.8816C38.7097 37.9486 37.8411 38.8171 36.7742 38.8171H3.22581C2.15887 38.8171 1.29032 37.9486 1.29032 36.8816V34.9461H14.5819C15.5097 35.7803 16.6967 36.2365 17.9543 36.2365H22.0464C23.304 36.2365 24.491 35.7803 25.4186 34.9461H33.5484V33.6558H24.8941L24.7052 33.8448C23.9948 34.5552 23.051 34.9461 22.0457 34.9461H17.9536C16.949 34.9461 16.0046 34.5552 15.2942 33.8448L15.1059 33.6558H5.16129V13.0106H16.3677C17.8213 16.0572 20.9221 18.1719 24.5161 18.1719C28.1102 18.1719 31.211 16.0572 32.6645 13.0106H34.8387V34.9461H38.7097V36.8816Z" fill="#006980"/>
<path d="M31.6125 27.204C31.2165 27.204 30.8479 27.3247 30.5407 27.5298L28.2899 25.8422C28.3473 25.6595 28.3867 25.4692 28.3867 25.2685C28.3867 24.2016 27.5181 23.333 26.4512 23.333C25.3842 23.333 24.5157 24.2016 24.5157 25.2685C24.5157 25.4906 24.5608 25.7008 24.6297 25.8995L21.0164 28.7905C20.7204 28.6058 20.3738 28.4943 19.9996 28.4943C19.5654 28.4943 19.1685 28.6434 18.8453 28.8853L16.0633 27.0305C16.1021 26.8788 16.1286 26.7226 16.1286 26.5588C16.1286 25.4919 15.26 24.6234 14.1931 24.6234C13.1262 24.6234 12.2576 25.4919 12.2576 26.5588C12.2576 26.7226 12.2841 26.8789 12.3229 27.0305L9.54093 28.8853C9.2177 28.6427 8.82069 28.4943 8.38666 28.4943C7.31972 28.4943 6.45117 29.3629 6.45117 30.4298C6.45117 31.4967 7.31972 32.3653 8.38666 32.3653C9.45359 32.3653 10.3221 31.4967 10.3221 30.4298C10.3221 30.266 10.2957 30.1097 10.2569 29.9582L13.0388 28.1034C13.3621 28.3459 13.7591 28.4943 14.1931 28.4943C14.6271 28.4943 15.0242 28.3459 15.3474 28.1034L18.1293 29.9582C18.0906 30.1098 18.0641 30.2667 18.0641 30.4298C18.0641 31.4967 18.9326 32.3653 19.9996 32.3653C21.0665 32.3653 21.935 31.4967 21.935 30.4298C21.935 30.2077 21.89 29.9976 21.821 29.7988L25.4343 26.9079C25.7304 27.0926 26.0769 27.204 26.4512 27.204C26.8471 27.204 27.2157 27.0834 27.5229 26.8782L29.7738 28.5659C29.7163 28.7485 29.677 28.9388 29.677 29.1395C29.677 30.2064 30.5455 31.075 31.6125 31.075C32.6794 31.075 33.5479 30.2064 33.5479 29.1395C33.5479 28.0726 32.6794 27.204 31.6125 27.204ZM8.38666 31.075C8.03133 31.075 7.74149 30.7851 7.74149 30.4298C7.74149 30.0745 8.03133 29.7847 8.38666 29.7847C8.74198 29.7847 9.03182 30.0745 9.03182 30.4298C9.03182 30.7851 8.74198 31.075 8.38666 31.075ZM14.1931 27.204C13.8378 27.204 13.5479 26.9142 13.5479 26.5588C13.5479 26.2035 13.8378 25.9137 14.1931 25.9137C14.5484 25.9137 14.8383 26.2035 14.8383 26.5588C14.8383 26.9142 14.5484 27.204 14.1931 27.204ZM19.9996 31.075C19.6442 31.075 19.3544 30.7851 19.3544 30.4298C19.3544 30.0745 19.6442 29.7847 19.9996 29.7847C20.3549 29.7847 20.6447 30.0745 20.6447 30.4298C20.6447 30.7851 20.3549 31.075 19.9996 31.075ZM26.4512 25.9137C26.0958 25.9137 25.806 25.6238 25.806 25.2685C25.806 24.9132 26.0958 24.6234 26.4512 24.6234C26.8065 24.6234 27.0963 24.9132 27.0963 25.2685C27.0963 25.6238 26.8065 25.9137 26.4512 25.9137ZM31.6125 29.7847C31.2571 29.7847 30.9673 29.4948 30.9673 29.1395C30.9673 28.7842 31.2571 28.4943 31.6125 28.4943C31.9678 28.4943 32.2576 28.7842 32.2576 29.1395C32.2576 29.4948 31.9678 29.7847 31.6125 29.7847ZM16.7738 14.3008H6.45117V23.333H16.7738V14.3008ZM15.4834 22.0427H7.74149V15.5911H15.4834V22.0427Z" fill="#006980"/>
<path d="M9.03223 16.8818H14.1935V18.1722H9.03223V16.8818ZM9.03223 19.4625H14.1935V20.7528H9.03223V19.4625ZM18.0645 20.7528H19.3548V22.0431H18.0645V20.7528ZM20.6451 20.7528H33.5484V22.0431H20.6451V20.7528Z" fill="#006980"/>
</g>
<defs>
<clipPath id="clip0_7529_3426">
<rect width="40" height="40" fill="white" transform="translate(0 0.107422)"/>
</clipPath>
</defs>
</svg>
