<svg width="40" height="41" viewBox="0 0 40 41" fill="none" xmlns="http://www.w3.org/2000/svg">
<g clip-path="url(#clip0_7529_3375)">
<path d="M20.3642 18.2334H16.4449C16.2791 18.2334 16.1202 18.2992 16.003 18.4164C15.8858 18.5336 15.8199 18.6926 15.8199 18.8584V34.4307C15.8199 34.5965 15.8858 34.7554 16.003 34.8726C16.1202 34.9899 16.2791 35.0557 16.4449 35.0557H20.3642C20.53 35.0557 20.6889 34.9899 20.8061 34.8726C20.9234 34.7554 20.9892 34.5965 20.9892 34.4307V18.8584C20.9892 18.6926 20.9234 18.5336 20.8061 18.4164C20.6889 18.2992 20.53 18.2334 20.3642 18.2334ZM19.7392 33.8057H17.0699V19.4834H19.7392V33.8057ZM13.0866 22.347H9.16725C9.00149 22.347 8.84252 22.4129 8.72531 22.5301C8.6081 22.6473 8.54225 22.8063 8.54225 22.972V34.4307C8.54225 34.5965 8.6081 34.7554 8.72531 34.8726C8.84252 34.9899 9.00149 35.0557 9.16725 35.0557H13.0866C13.2524 35.0557 13.4114 34.9899 13.5286 34.8726C13.6458 34.7554 13.7116 34.5965 13.7116 34.4307V22.972C13.7116 22.8063 13.6458 22.6473 13.5286 22.5301C13.4114 22.4129 13.2524 22.347 13.0866 22.347ZM12.4616 33.8057H9.79225V23.597H12.4616V33.8057ZM5.80889 26.2866H1.88952C1.72376 26.2866 1.56478 26.3524 1.44757 26.4696C1.33036 26.5868 1.26452 26.7458 1.26452 26.9116V34.4306C1.26452 34.5964 1.33036 34.7554 1.44757 34.8726C1.56478 34.9898 1.72376 35.0556 1.88952 35.0556H5.80881C5.97457 35.0556 6.13354 34.9898 6.25076 34.8726C6.36797 34.7554 6.43381 34.5964 6.43381 34.4306V26.9116C6.43383 26.8295 6.41768 26.7482 6.38629 26.6724C6.35489 26.5965 6.30886 26.5276 6.25083 26.4696C6.1928 26.4116 6.1239 26.3655 6.04807 26.3341C5.97224 26.3027 5.89097 26.2866 5.80889 26.2866ZM5.18389 33.8056H2.51452V27.5366H5.18381L5.18389 33.8056ZM1.47702 23.8248C1.32925 23.825 1.18622 23.7727 1.07332 23.6774C0.960423 23.582 0.884955 23.4498 0.860315 23.3041C0.835674 23.1584 0.863454 23.0086 0.938723 22.8815C1.01399 22.7543 1.13188 22.6579 1.27147 22.6095C10.6849 19.3312 18.9673 14.5647 25.9142 8.43367L24.5411 8.5082C24.3756 8.51719 24.2132 8.46005 24.0899 8.34936C23.9665 8.23867 23.8921 8.08349 23.8831 7.91797C23.8741 7.75245 23.9313 7.59014 24.042 7.46674C24.1526 7.34335 24.3078 7.26898 24.4733 7.26L27.6079 7.08984C27.7003 7.08483 27.7927 7.1004 27.8783 7.13543C27.964 7.17046 28.0408 7.22407 28.1032 7.2924C28.1656 7.36073 28.2121 7.44207 28.2392 7.53054C28.2664 7.61901 28.2736 7.71241 28.2602 7.80398L27.8079 10.9103C27.7839 11.0743 27.6958 11.2221 27.563 11.3212C27.4301 11.4203 27.2633 11.4626 27.0993 11.4388C26.9353 11.4149 26.7874 11.3268 26.6883 11.1939C26.5892 11.0611 26.547 10.8943 26.5708 10.7302L26.7728 9.34297C19.6973 15.5952 11.2644 20.453 1.68241 23.7899C1.6164 23.813 1.54696 23.8249 1.47702 23.8248ZM28.9633 4.69328L30.5682 5.9832L30.028 7.97008C29.9401 8.29328 30.0585 8.6293 30.3294 8.82617C30.4656 8.92591 30.63 8.9798 30.7988 8.98008C30.9504 8.98008 31.1023 8.93625 31.2367 8.84828L32.9594 7.72055L34.6821 8.84828C34.9623 9.03164 35.3184 9.02305 35.5893 8.82625C35.8602 8.62937 35.9786 8.29344 35.8908 7.97008L35.3505 5.98328L36.9553 4.69344C37.2164 4.48367 37.3183 4.14227 37.2148 3.82367C37.1112 3.50508 36.8282 3.28867 36.4937 3.27242L34.4373 3.17211L33.7066 1.24727C33.5878 0.934453 33.2946 0.732422 32.9595 0.732422C32.6244 0.732422 32.3312 0.934453 32.2125 1.24719L31.4817 3.17203L29.4252 3.27227C29.0906 3.28852 28.8076 3.50492 28.7041 3.82352C28.6005 4.14219 28.7024 4.48359 28.9633 4.69328ZM31.8372 4.40625C31.9925 4.39873 32.1422 4.34604 32.268 4.25466C32.3938 4.16328 32.4902 4.03717 32.5454 3.8918L32.9594 2.80125L33.3736 3.89195C33.4288 4.03727 33.5252 4.16332 33.6509 4.25467C33.7767 4.34602 33.9264 4.3987 34.0816 4.40625L35.2468 4.46305L34.3376 5.19383C34.2164 5.2912 34.1262 5.42184 34.0782 5.56972C34.0301 5.7176 34.0263 5.87629 34.0671 6.02633L34.3731 7.15188L33.3969 6.51281C33.2668 6.42772 33.1147 6.38241 32.9593 6.38244C32.8039 6.38247 32.6518 6.42783 32.5218 6.51297L31.5458 7.15188L31.8519 6.02633C31.8927 5.8763 31.8889 5.71761 31.8408 5.56973C31.7928 5.42184 31.7026 5.2912 31.5814 5.19383L30.6722 4.46305L31.8372 4.40625ZM38.7472 28.9535L37.6861 28.545C37.5252 27.9798 37.2993 27.4351 37.0131 26.9218L37.475 25.882C37.5263 25.7666 37.5414 25.6384 37.5183 25.5142C37.4952 25.39 37.4351 25.2757 37.3458 25.1864L35.7745 23.6152C35.7094 23.5502 35.6308 23.5005 35.5442 23.4696V11.4572C35.5442 11.2914 35.4784 11.1325 35.3611 11.0152C35.2439 10.898 35.085 10.8322 34.9192 10.8322H30.9998C30.8341 10.8322 30.6751 10.898 30.5579 11.0152C30.4407 11.1325 30.3748 11.2914 30.3748 11.4572V21.8132H29.2021C29.0758 21.8132 28.9525 21.8515 28.8483 21.923C28.7442 21.9944 28.6642 22.0958 28.6188 22.2137L28.2668 23.1283V15.1578C28.2668 14.9921 28.2009 14.8331 28.0837 14.7159C27.9665 14.5987 27.8075 14.5328 27.6418 14.5328H23.7224C23.5566 14.5328 23.3977 14.5987 23.2805 14.7159C23.1633 14.8331 23.0974 14.9921 23.0974 15.1578V28.0585C23.0396 28.2189 22.9872 28.3811 22.9403 28.545L21.879 28.9535C21.7612 28.9989 21.6598 29.0789 21.5883 29.183C21.5168 29.2871 21.4786 29.4105 21.4786 29.5368V31.7588C21.4786 31.8851 21.5168 32.0085 21.5883 32.1126C21.6598 32.2167 21.7612 32.2967 21.879 32.3421L22.9401 32.7505C22.9871 32.9146 23.0395 33.0771 23.0974 33.2377V34.4306C23.0974 34.5305 23.1214 34.629 23.1673 34.7177C23.2133 34.8063 23.2799 34.8827 23.3615 34.9403L23.1512 35.4136C23.1 35.529 23.0849 35.6573 23.1079 35.7815C23.131 35.9056 23.1911 36.0199 23.2805 36.1092L24.8518 37.6805C24.9411 37.7698 25.0554 37.8299 25.1795 37.853C25.3037 37.8761 25.432 37.861 25.5474 37.8098L26.5876 37.3477C27.1008 37.6338 27.6453 37.8596 28.2103 38.0205L28.6188 39.0819C28.6642 39.1998 28.7442 39.3011 28.8483 39.3726C28.9524 39.4441 29.0758 39.4824 29.2021 39.4823H31.4242C31.5505 39.4823 31.6738 39.4441 31.778 39.3726C31.8821 39.3011 31.9621 39.1997 32.0075 39.0819L32.4158 38.0208C32.9811 37.8599 33.5258 37.6341 34.039 37.3478L35.0789 37.8096C35.1943 37.8609 35.3226 37.876 35.4468 37.853C35.5709 37.8299 35.6852 37.7697 35.7745 37.6804L37.3458 36.1091C37.4351 36.0198 37.4952 35.9056 37.5183 35.7814C37.5414 35.6572 37.5263 35.5289 37.475 35.4135L37.013 34.3733C37.299 33.8602 37.5248 33.3157 37.6857 32.7506L38.7471 32.3421C38.865 32.2968 38.9663 32.2167 39.0378 32.1126C39.1093 32.0085 39.1476 31.8851 39.1476 31.7588V29.5368C39.1476 29.4105 39.1093 29.2872 39.0379 29.183C38.9664 29.0789 38.865 28.9989 38.7472 28.9535ZM34.2941 12.0822V23.8344L34.0386 23.9479C33.5255 23.6618 32.9809 23.4361 32.4159 23.2752L32.0074 22.2137C31.9744 22.1283 31.923 22.0512 31.8569 21.9878C31.7908 21.9245 31.7116 21.8765 31.6248 21.8472V12.0822H34.2941ZM27.0167 15.7828V23.7268C26.8713 23.796 26.7282 23.8697 26.5875 23.948L25.5472 23.4859C25.4318 23.4347 25.3036 23.4196 25.1794 23.4427C25.0552 23.4658 24.9409 23.5259 24.8516 23.6152L24.3473 24.1195V15.7828H27.0167ZM37.8976 31.3298L36.9377 31.6992C36.843 31.7357 36.7585 31.7947 36.6917 31.8711C36.6249 31.9475 36.5777 32.0391 36.5542 32.1378C36.3971 32.798 36.1356 33.4288 35.7795 34.0064C35.7263 34.0928 35.6949 34.191 35.6881 34.2923C35.6813 34.3935 35.6993 34.495 35.7405 34.5877L36.1584 35.5287L35.194 36.493L34.2535 36.0753C34.1607 36.0341 34.0593 36.0161 33.958 36.0229C33.8567 36.0297 33.7585 36.0611 33.6721 36.1144C33.0944 36.4706 32.4634 36.7321 31.8031 36.8891C31.7043 36.9126 31.6128 36.9598 31.5363 37.0266C31.4599 37.0935 31.4009 37.1779 31.3644 37.2727L30.995 38.2324H29.6312L29.2617 37.2724C29.2253 37.1777 29.1663 37.0932 29.0898 37.0264C29.0134 36.9596 28.9219 36.9124 28.8231 36.8889C28.163 36.7319 27.5322 36.4703 26.9546 36.1142C26.8681 36.061 26.77 36.0297 26.6687 36.0229C26.5674 36.016 26.466 36.034 26.3732 36.0752L25.4323 36.4931L24.4678 35.5288L24.8855 34.5883C24.9267 34.4955 24.9447 34.3941 24.9379 34.2928C24.9312 34.1915 24.8998 34.0933 24.8465 34.0069C24.4903 33.4291 24.2288 32.7981 24.0717 32.1377C24.0482 32.039 24.001 31.9474 23.9342 31.871C23.8674 31.7946 23.7829 31.7356 23.6882 31.6991L22.7286 31.3298V29.9659L23.6884 29.5965C23.7832 29.56 23.8676 29.501 23.9344 29.4246C24.0012 29.3482 24.0484 29.2566 24.0719 29.1579C24.229 28.4977 24.4906 27.8668 24.8467 27.2891C24.8999 27.2027 24.9313 27.1046 24.9381 27.0033C24.9449 26.902 24.9269 26.8005 24.8857 26.7077L24.4679 25.767L25.4323 24.8025L26.3733 25.2205C26.466 25.2617 26.5675 25.2796 26.6688 25.2728C26.7701 25.266 26.8682 25.2346 26.9546 25.1814C27.5322 24.8253 28.163 24.5638 28.8232 24.4067C28.9219 24.3832 29.0135 24.336 29.0899 24.2692C29.1663 24.2024 29.2253 24.1179 29.2618 24.0232L29.6313 23.0632H30.9951L31.3647 24.0232C31.4011 24.1179 31.4601 24.2024 31.5365 24.2692C31.613 24.336 31.7045 24.3832 31.8033 24.4067C32.4634 24.5638 33.0942 24.8253 33.6719 25.1814C33.7583 25.2346 33.8564 25.266 33.9577 25.2728C34.059 25.2796 34.1604 25.2616 34.2532 25.2205L35.1942 24.8025L36.1586 25.7669L35.7408 26.7074C35.6996 26.8002 35.6816 26.9017 35.6884 27.003C35.6953 27.1043 35.7266 27.2024 35.7799 27.2889C36.1361 27.8667 36.3977 28.4977 36.5548 29.158C36.5782 29.2567 36.6254 29.3483 36.6923 29.4247C36.7591 29.5011 36.8435 29.5601 36.9383 29.5966L37.8979 29.966V31.3298H37.8976ZM30.313 26.1476C27.8315 26.1476 25.8127 28.1664 25.8127 30.6479C25.8127 33.1293 27.8315 35.1481 30.313 35.1481C32.7945 35.1481 34.8133 33.1293 34.8133 30.6479C34.8133 28.1664 32.7945 26.1476 30.313 26.1476ZM30.313 33.8981C28.5208 33.8981 27.0627 32.4401 27.0627 30.6479C27.0627 28.8557 28.5208 27.3976 30.313 27.3976C32.1053 27.3976 33.5633 28.8556 33.5633 30.6479C33.5633 32.44 32.1053 33.8981 30.313 33.8981Z" fill="#006980"/>
</g>
<defs>
<clipPath id="clip0_7529_3375">
<rect width="40" height="40" fill="white" transform="translate(0 0.107422)"/>
</clipPath>
</defs>
</svg>
