<svg width="40" height="41" viewBox="0 0 40 41" fill="none" xmlns="http://www.w3.org/2000/svg">
<g clip-path="url(#clip0_7529_3414)">
<path d="M12.6347 3.45858C14.4493 2.65479 16.3839 2.15512 18.3609 1.9796C18.5894 1.95921 18.7864 2.13976 18.7864 2.36921V3.59858C18.7864 4.7003 18.0094 5.64015 16.9322 5.87108C15.9141 6.08931 14.9227 6.41691 13.975 6.84819C13.8517 6.90437 13.8236 7.06749 13.9195 7.16335L16.0803 9.32476C16.2782 9.52273 16.2098 9.85874 15.95 9.96257C13.1758 11.0711 10.9628 13.2847 9.85536 16.059C9.75153 16.319 9.41544 16.3874 9.21747 16.1894L7.05552 14.0275C6.95966 13.9316 6.79645 13.9596 6.74028 14.083C6.30918 15.0307 5.98163 16.0222 5.76333 17.0401C5.53231 18.1173 4.59255 18.8943 3.49083 18.8943H2.2613C2.03185 18.8943 1.8513 18.6973 1.87169 18.4688C2.38716 12.6907 5.60294 7.68976 10.2484 4.73671" stroke="#006980" stroke-width="1.17188" stroke-miterlimit="10" stroke-linecap="round" stroke-linejoin="round"/>
<path d="M3.41352 6.34852C4.97514 6.34852 6.24109 5.08257 6.24109 3.52094C6.24109 1.95931 4.97514 0.693359 3.41352 0.693359C1.85189 0.693359 0.585938 1.95931 0.585938 3.52094C0.585938 5.08257 1.85189 6.34852 3.41352 6.34852Z" stroke="#006980" stroke-width="1.17188" stroke-miterlimit="10" stroke-linecap="round" stroke-linejoin="round"/>
<path d="M34.2361 17.0401C34.0179 16.022 33.6903 15.0306 33.259 14.083C33.2028 13.9596 33.0397 13.9316 32.9438 14.0274L30.7824 16.1882C30.5845 16.3861 30.2484 16.3177 30.1446 16.0579C29.0361 13.2837 26.8225 11.0707 24.0482 9.96327C23.7882 9.85944 23.7198 9.52335 23.9177 9.32538L26.0797 7.16343C26.1755 7.06757 26.1476 6.90437 26.0241 6.84819C25.0765 6.41709 24.085 6.08954 23.067 5.87124C21.9898 5.64022 21.2129 4.70046 21.2129 3.59874V2.36921C21.2129 2.13976 21.4098 1.95921 21.6384 1.9796C30.3826 2.7596 37.3468 9.72382 38.1276 18.4688C38.148 18.6973 37.9674 18.8943 37.738 18.8943H36.5086C35.407 18.8943 34.467 18.1173 34.2361 17.0401Z" stroke="#006980" stroke-width="1.17188" stroke-miterlimit="10" stroke-linecap="round" stroke-linejoin="round"/>
<path d="M36.5864 6.34852C38.148 6.34852 39.4139 5.08257 39.4139 3.52094C39.4139 1.95931 38.148 0.693359 36.5864 0.693359C35.0247 0.693359 33.7588 1.95931 33.7588 3.52094C33.7588 5.08257 35.0247 6.34852 36.5864 6.34852Z" stroke="#006980" stroke-width="1.17188" stroke-miterlimit="10" stroke-linecap="round" stroke-linejoin="round"/>
<path d="M23.0671 34.344C24.0851 34.1258 25.0766 33.7982 26.0242 33.3669C26.1476 33.3107 26.1756 33.1476 26.0798 33.0517L23.919 30.8903C23.7211 30.6924 23.7895 30.3563 24.0493 30.2525C26.8235 29.144 29.0365 26.9304 30.1439 24.1561C30.2477 23.8961 30.5838 23.8277 30.7818 24.0256L32.9437 26.1876C33.0396 26.2835 33.2028 26.2555 33.259 26.1321C33.6901 25.1844 34.0176 24.1929 34.2359 23.1749C34.467 22.0978 35.4067 21.3208 36.5084 21.3208H37.738C37.9674 21.3208 38.148 21.5178 38.1276 21.7463C37.3476 30.4905 30.3834 37.4547 21.6384 38.2355C21.4098 38.2559 21.2129 38.0753 21.2129 37.8459V36.6165C21.2129 35.5149 21.9898 34.5749 23.0671 34.344Z" stroke="#006980" stroke-width="1.17188" stroke-miterlimit="10" stroke-linecap="round" stroke-linejoin="round"/>
<path d="M36.5864 39.5214C38.148 39.5214 39.4139 38.2554 39.4139 36.6938C39.4139 35.1322 38.148 33.8662 36.5864 33.8662C35.0247 33.8662 33.7588 35.1322 33.7588 36.6938C33.7588 38.2554 35.0247 39.5214 36.5864 39.5214Z" stroke="#006980" stroke-width="1.17188" stroke-miterlimit="10" stroke-linecap="round" stroke-linejoin="round"/>
<path d="M11.9585 27.4962C13.0571 28.691 14.4186 29.6401 15.9511 30.2518C16.2111 30.3556 16.2795 30.6917 16.0815 30.8897L13.9196 33.0517C13.8237 33.1475 13.8517 33.3107 13.9751 33.3669C14.9228 33.798 15.9143 34.1255 16.9322 34.3438C18.0094 34.5749 18.7864 35.5146 18.7864 36.6163V37.8459C18.7864 38.0753 18.5894 38.2559 18.3609 38.2355C9.61669 37.4555 2.65247 30.4913 1.87169 21.7463C1.8513 21.5178 2.03185 21.3208 2.2613 21.3208H3.49067C4.59239 21.3208 5.53224 22.0978 5.76317 23.175C5.9814 24.193 6.309 25.1845 6.74028 26.1321C6.79646 26.2555 6.95958 26.2835 7.05544 26.1877L9.21685 24.0269C9.41481 23.829 9.75083 23.8974 9.85466 24.1572C10.0054 24.5342 10.177 24.9025 10.3689 25.2603" stroke="#006980" stroke-width="1.17188" stroke-miterlimit="10" stroke-linecap="round" stroke-linejoin="round"/>
<path d="M3.41352 39.5214C4.97514 39.5214 6.24109 38.2554 6.24109 36.6938C6.24109 35.1322 4.97514 33.8662 3.41352 33.8662C1.85189 33.8662 0.585938 35.1322 0.585938 36.6938C0.585938 38.2554 1.85189 39.5214 3.41352 39.5214Z" stroke="#006980" stroke-width="1.17188" stroke-miterlimit="10" stroke-linecap="round" stroke-linejoin="round"/>
<path d="M23.7174 24.6942L26.4827 22.2925H26.4826C27.5192 21.3924 28.1421 20.0283 28.028 18.5235C27.8592 16.2955 26.0387 14.5014 23.8086 14.3621C22.4098 14.2747 21.1373 14.8238 20.2524 15.7472C20.2199 15.7815 20.1808 15.8088 20.1375 15.8275C20.0941 15.8462 20.0474 15.8558 20.0002 15.8558C19.953 15.8558 19.9063 15.8462 19.8629 15.8275C19.8195 15.8088 19.7804 15.7815 19.748 15.7472C18.8631 14.8238 17.5906 14.2748 16.1918 14.3621C13.9617 14.5014 12.1412 16.2956 11.9724 18.5235C11.8583 20.0284 12.4812 21.3924 13.5178 22.2925L19.5509 27.5323C19.6756 27.6405 19.8351 27.7001 20.0002 27.7001C20.1653 27.7001 20.3249 27.6405 20.4496 27.5323L21.6241 26.5122" stroke="#006980" stroke-width="1.17188" stroke-miterlimit="10" stroke-linecap="round" stroke-linejoin="round"/>
</g>
<defs>
<clipPath id="clip0_7529_3414">
<rect width="40" height="40" fill="white" transform="translate(0 0.107422)"/>
</clipPath>
</defs>
</svg>
