<svg width="16" height="16" viewBox="0 0 16 16" fill="none" xmlns="http://www.w3.org/2000/svg">
<g clip-path="url(#clip0_2054_1959)">
<path d="M12.8577 3.55418L14.5017 4.15547C14.6175 4.20094 14.7125 4.29433 14.7663 4.41564C14.8201 4.53696 14.8285 4.67655 14.7896 4.80454C14.7507 4.93253 14.6677 5.03874 14.5583 5.10042C14.4489 5.16211 14.3218 5.17436 14.2043 5.13457L13.2342 4.77999L13.8231 5.94284C13.8807 6.06222 13.8934 6.20161 13.8583 6.3311C13.8233 6.46058 13.7434 6.56984 13.6357 6.63543C13.528 6.70102 13.4012 6.71771 13.2825 6.68192C13.1637 6.64613 13.0625 6.56072 13.0005 6.444L12.3048 5.07057L12.2354 5.26051V6.96762C12.2368 8.16516 11.8152 9.31675 11.0589 10.1805V12.3328L15.7478 15.0265C15.8026 15.058 15.8512 15.1009 15.8908 15.153C15.9304 15.205 15.9603 15.2651 15.9787 15.3298C15.9971 15.3945 16.0038 15.4625 15.9982 15.5301C15.9927 15.5976 15.9751 15.6632 15.9464 15.7233C15.9177 15.7833 15.8786 15.8366 15.8311 15.88C15.7837 15.9235 15.7289 15.9563 15.6699 15.9765C15.6109 15.9967 15.5489 16.004 15.4873 15.9979C15.4257 15.9918 15.3659 15.9725 15.3111 15.9411L10.37 13.1024C10.2939 13.0586 10.2301 12.9929 10.1857 12.9123C10.1412 12.8317 10.1177 12.7393 10.1177 12.6451V10.9914C9.47412 11.3996 8.74356 11.614 8.00007 11.6128C7.25659 11.6139 6.52604 11.3996 5.88242 10.9914V12.6451C5.88244 12.7393 5.85894 12.8317 5.81448 12.9123C5.77001 12.9929 5.70628 13.0586 5.63019 13.1024L0.68901 15.9411C0.634256 15.9725 0.574391 15.9918 0.512832 15.9979C0.451273 16.004 0.389226 15.9967 0.330234 15.9765C0.271241 15.9563 0.216459 15.9235 0.169014 15.88C0.121569 15.8366 0.0823903 15.7833 0.0537158 15.7233C0.0250413 15.6632 0.00743204 15.5976 0.0018935 15.5301C-0.00364505 15.4625 0.00299556 15.3945 0.0214362 15.3298C0.0398768 15.2651 0.0697563 15.205 0.109369 15.153C0.148981 15.1009 0.197551 15.058 0.252304 15.0265L4.94125 12.3328V10.1805C4.18498 9.31675 3.7633 8.16516 3.76477 6.96762V5.26051L2.85725 2.77224C2.82867 2.69392 2.81804 2.60912 2.82627 2.52525C2.8345 2.44138 2.86135 2.361 2.90447 2.29115C2.94759 2.22129 3.00566 2.1641 3.0736 2.12456C3.14154 2.08503 3.21728 2.06436 3.29419 2.06436H4.58101L7.76666 0.067963C7.83775 0.0234257 7.9182 0 8.00007 0C8.08194 0 8.16239 0.0234257 8.23348 0.067963L11.4194 2.06436H12.706C12.7829 2.06436 12.8586 2.08503 12.9265 2.12456C12.9945 2.1641 13.0526 2.22129 13.0957 2.29115C13.1388 2.361 13.1656 2.44138 13.1739 2.52525C13.1821 2.60912 13.1715 2.69392 13.1429 2.77224L12.8577 3.55418ZM4.70595 5.67729V6.96762C4.70595 8.96298 6.18078 10.5805 8.00007 10.5805C9.81936 10.5805 11.2942 8.96298 11.2942 6.96762V5.67729H4.70595ZM4.55395 4.64502H11.4462L12.0109 3.09663H3.98925L4.55395 4.64502ZM9.52242 2.06436L8.00007 1.11055L6.47795 2.06436H9.52242Z" fill="#006980"/>
</g>
<defs>
<clipPath id="clip0_2054_1959">
<rect width="16" height="16" fill="white"/>
</clipPath>
</defs>
</svg>
