<svg width="24" height="24" viewBox="0 0 24 24" fill="none" xmlns="http://www.w3.org/2000/svg">
<g clip-path="url(#clip0_8736_6375)">
<path d="M7.058 4.962C7.897 4.962 8.653 5.308 9.197 5.863C8.52038 6.32061 7.96623 6.93709 7.58305 7.65847C7.19987 8.37986 6.99933 9.18416 6.999 10.001C6.999 10.329 7.035 10.648 7.096 10.959C7.083 10.959 7.071 10.963 7.058 10.963C6.66403 10.963 6.27393 10.8854 5.90995 10.7346C5.54597 10.5839 5.21526 10.3629 4.93668 10.0843C4.6581 9.80574 4.43713 9.47503 4.28636 9.11105C4.1356 8.74707 4.058 8.35697 4.058 7.963C4.058 7.56903 4.1356 7.17893 4.28636 6.81495C4.43713 6.45097 4.6581 6.12026 4.93668 5.84168C5.21526 5.5631 5.54597 5.34213 5.90995 5.19136C6.27393 5.0406 6.66403 4.962 7.058 4.962ZM17 5C16.159 5 15.401 5.349 14.856 5.906C15.6554 6.4617 16.2749 7.23908 16.6381 8.14241C17.0013 9.04574 17.0923 10.0356 16.9 10.99C16.934 10.991 16.966 11 17 11C17.7956 11 18.5587 10.6839 19.1213 10.1213C19.6839 9.55871 20 8.79565 20 8C20 7.20435 19.6839 6.44129 19.1213 5.87868C18.5587 5.31607 17.7956 5 17 5ZM12 13C12.7956 13 13.5587 12.6839 14.1213 12.1213C14.6839 11.5587 15 10.7956 15 10C15 9.20435 14.6839 8.44129 14.1213 7.87868C13.5587 7.31607 12.7956 7 12 7C11.2044 7 10.4413 7.31607 9.87868 7.87868C9.31607 8.44129 9 9.20435 9 10C9 10.7956 9.31607 11.5587 9.87868 12.1213C10.4413 12.6839 11.2044 13 12 13ZM12 15C10.246 15 8.665 16.063 8.065 17.646C7.97098 17.8941 7.97937 18.1694 8.08833 18.4113C8.19729 18.6533 8.39789 18.842 8.646 18.936C8.89411 19.03 9.16941 19.0216 9.41133 18.9127C9.65325 18.8037 9.84198 18.6031 9.936 18.355C10.243 17.544 11.073 17.001 12.001 17.001C12.929 17.001 13.759 17.545 14.066 18.355C14.16 18.603 14.3485 18.8035 14.5901 18.9126C14.8318 19.0217 15.1069 19.0305 15.355 18.937C15.871 18.741 16.131 18.164 15.936 17.647C15.336 16.065 13.755 15.001 12.001 15.001L12 15ZM15.7 13.197C15.5747 13.2364 15.4584 13.3001 15.3578 13.3844C15.2571 13.4688 15.174 13.5721 15.1133 13.6886C15.0526 13.805 15.0154 13.9323 15.0038 14.0631C14.9923 14.1939 15.0066 14.3257 15.046 14.451C15.0854 14.5763 15.1491 14.6926 15.2334 14.7932C15.3178 14.8939 15.4211 14.977 15.5376 15.0377C15.654 15.0984 15.7813 15.1356 15.9121 15.1472C16.0429 15.1587 16.1747 15.1444 16.3 15.105C16.523 15.035 16.758 15 17 15C17.928 15 18.758 15.544 19.065 16.354C19.159 16.602 19.3475 16.8025 19.5891 16.9116C19.8308 17.0207 20.1059 17.0295 20.354 16.936C20.87 16.74 21.13 16.163 20.935 15.646C20.335 14.064 18.754 13 17 13C16.5592 12.9991 16.1208 13.0655 15.7 13.197ZM7 13C5.246 13 3.665 14.063 3.065 15.646C3.01521 15.7695 2.99057 15.9016 2.99252 16.0347C2.99448 16.1678 3.02299 16.2992 3.07639 16.4212C3.1298 16.5431 3.20701 16.6532 3.3035 16.7449C3.4 16.8366 3.51383 16.9081 3.63833 16.9553C3.76283 17.0024 3.89549 17.0242 4.02853 17.0194C4.16157 17.0146 4.29231 16.9833 4.41308 16.9273C4.53385 16.8713 4.64223 16.7917 4.73185 16.6933C4.82148 16.5948 4.89054 16.4795 4.935 16.354C5.242 15.543 6.072 15 7 15C7.242 15 7.478 15.035 7.7 15.105C7.95302 15.1846 8.22728 15.1604 8.46245 15.0377C8.69762 14.9151 8.87444 14.704 8.954 14.451C9.03357 14.198 9.00936 13.9237 8.88671 13.6886C8.76406 13.4534 8.55302 13.2766 8.3 13.197C7.87922 13.0655 7.44083 12.9991 7 13ZM7 22H5C3.346 22 2 20.654 2 19V17C2 16.7348 1.89464 16.4804 1.70711 16.2929C1.51957 16.1054 1.26522 16 1 16C0.734784 16 0.48043 16.1054 0.292893 16.2929C0.105357 16.4804 0 16.7348 0 17L0 19C0 21.757 2.243 24 5 24H7C7.26522 24 7.51957 23.8946 7.70711 23.7071C7.89464 23.5196 8 23.2652 8 23C8 22.7348 7.89464 22.4804 7.70711 22.2929C7.51957 22.1054 7.26522 22 7 22ZM23 16C22.7348 16 22.4804 16.1054 22.2929 16.2929C22.1054 16.4804 22 16.7348 22 17V19C22 20.654 20.654 22 19 22H17C16.7348 22 16.4804 22.1054 16.2929 22.2929C16.1054 22.4804 16 22.7348 16 23C16 23.2652 16.1054 23.5196 16.2929 23.7071C16.4804 23.8946 16.7348 24 17 24H19C21.757 24 24 21.757 24 19V17C24 16.7348 23.8946 16.4804 23.7071 16.2929C23.5196 16.1054 23.2652 16 23 16ZM19 0H17C16.7348 0 16.4804 0.105357 16.2929 0.292893C16.1054 0.48043 16 0.734784 16 1C16 1.26522 16.1054 1.51957 16.2929 1.70711C16.4804 1.89464 16.7348 2 17 2H19C20.654 2 22 3.346 22 5V7C22 7.26522 22.1054 7.51957 22.2929 7.70711C22.4804 7.89464 22.7348 8 23 8C23.2652 8 23.5196 7.89464 23.7071 7.70711C23.8946 7.51957 24 7.26522 24 7V5C24 2.243 21.757 0 19 0ZM1 8C1.26522 8 1.51957 7.89464 1.70711 7.70711C1.89464 7.51957 2 7.26522 2 7V5C2 3.346 3.346 2 5 2H7C7.26522 2 7.51957 1.89464 7.70711 1.70711C7.89464 1.51957 8 1.26522 8 1C8 0.734784 7.89464 0.48043 7.70711 0.292893C7.51957 0.105357 7.26522 0 7 0L5 0C2.243 0 0 2.243 0 5V7C0 7.26522 0.105357 7.51957 0.292893 7.70711C0.48043 7.89464 0.734784 8 1 8Z" fill="#214b92"/>
</g>
<defs>
<clipPath id="clip0_8736_6375">
<rect width="24" height="24" fill="white"/>
</clipPath>
</defs>
</svg>
