<svg width="49" height="48" viewBox="0 0 49 48" fill="none" xmlns="http://www.w3.org/2000/svg">
<g clip-path="url(#clip0_4108_18167)">
<path d="M13.1228 40.7268C19.1591 43.2722 29.7773 43.1268 35.3773 40.7268C38.5773 41.2359 43.9591 41.0904 46.3591 39.0541C47.0864 38.4722 47.45 37.745 47.45 36.8722C47.45 33.4541 45.5591 30.4722 42.5773 29.0177C43.45 28.0722 43.9591 26.7631 43.9591 25.3813C43.9591 19.5631 35.8864 18.0359 33.7046 23.345C32.6864 22.545 31.5227 21.8177 30.2864 21.3086C32.1773 19.6359 33.3409 17.2359 33.3409 14.4722C33.3409 9.38132 29.1955 5.30859 24.1773 5.30859C19.1591 5.30859 15.0137 9.45405 15.0137 14.4722C15.0137 17.1631 16.1773 19.5631 18.0682 21.3086C16.8318 21.8177 15.6682 22.545 14.65 23.345C13.85 21.3813 11.8864 20.0722 9.70457 20.0722C6.79548 20.0722 4.39548 22.4722 4.39548 25.3813C4.39548 26.7631 4.90457 27.9995 5.7773 29.0177C2.8682 30.545 0.977295 33.5995 0.977295 36.945C0.977295 37.745 1.34093 38.4722 2.0682 39.1268C4.4682 41.0904 9.85002 41.2359 13.1228 40.7268ZM46.0682 36.945C46.0682 37.3086 45.85 37.6722 45.4864 37.9631C44.1773 39.0541 40.8318 39.7086 37.6318 39.4904C39.0137 38.4722 39.8137 37.2359 39.8137 35.7086C39.8137 33.9631 39.5228 32.3631 39.0137 30.7631C39.8137 30.6904 40.6137 30.4722 41.3409 30.1086C44.1773 31.1268 46.0682 33.8904 46.0682 36.945ZM38.7228 21.5995C40.8318 21.5995 42.5773 23.345 42.5773 25.4541C42.5773 27.7813 40.5409 29.5268 38.4318 29.3086C37.6318 27.4904 36.4682 25.8177 35.0137 24.4359C35.45 22.8359 36.9773 21.5995 38.7228 21.5995ZM16.5409 14.6177C16.5409 10.3268 20.0318 6.90859 24.25 6.90859C28.4682 6.90859 31.9591 10.3995 31.9591 14.6177C31.9591 18.9086 28.4682 22.3268 24.25 22.3268C19.9591 22.3268 16.5409 18.8359 16.5409 14.6177ZM24.25 23.7813C25.9955 23.7813 27.5955 23.2722 28.9773 22.4722C34.5773 24.5086 38.2864 29.8177 38.2864 35.7086C38.2864 42.9086 10.0682 42.9086 10.0682 35.7086C10.0682 29.745 13.7773 24.4359 19.3773 22.4722C20.9046 23.2722 22.5046 23.7813 24.25 23.7813ZM9.7773 21.5995C11.5227 21.5995 13.05 22.8359 13.4864 24.5086C12.0318 25.8904 10.8682 27.4904 10.0682 29.3086C8.03184 29.5268 5.85002 27.854 5.85002 25.4541C5.92275 23.345 7.59548 21.5995 9.7773 21.5995ZM7.15911 30.1086C7.88639 30.545 8.68639 30.7631 9.48639 30.7631C8.97729 32.2904 8.68639 33.9631 8.68639 35.7086C8.68639 36.7995 9.12275 38.254 10.8682 39.4904C7.59548 39.7086 4.32275 39.0541 2.94093 37.9631C2.65002 37.6722 2.43184 37.3086 2.43184 36.945C2.43184 33.8904 4.32275 31.1995 7.15911 30.1086Z" fill="black"/>
</g>
<defs>
<clipPath id="clip0_4108_18167">
<rect width="48" height="48" fill="white" transform="translate(0.25)"/>
</clipPath>
</defs>
</svg>
