<svg width="23" height="20" viewBox="0 0 23 20" fill="none" xmlns="http://www.w3.org/2000/svg">
<path fill-rule="evenodd" clip-rule="evenodd" d="M11 6C11.2652 6 11.5196 6.10536 11.7071 6.29289C11.8946 6.48043 12 6.73478 12 7V11.444C12 11.7092 11.8946 11.9636 11.7071 12.1511C11.5196 12.3386 11.2652 12.444 11 12.444C10.7348 12.444 10.4804 12.3386 10.2929 12.1511C10.1054 11.9636 10 11.7092 10 11.444V7C10 6.73478 10.1054 6.48043 10.2929 6.29289C10.4804 6.10536 10.7348 6 11 6ZM11 13.111C11.2652 13.111 11.5196 13.2164 11.7071 13.4039C11.8946 13.5914 12 13.8458 12 14.111V15C12 15.2652 11.8946 15.5196 11.7071 15.7071C11.5196 15.8946 11.2652 16 11 16C10.7348 16 10.4804 15.8946 10.2929 15.7071C10.1054 15.5196 10 15.2652 10 15V14.111C10 13.8458 10.1054 13.5914 10.2929 13.4039C10.4804 13.2164 10.7348 13.111 11 13.111Z" fill="#006980"/>
<path fill-rule="evenodd" clip-rule="evenodd" d="M2.166 16.132C1.71 16.92 2.266 18 3.357 18H18.893C19.984 18 20.539 16.92 20.084 16.132L12.316 2.66599C11.804 1.77799 10.446 1.77799 9.934 2.66599L2.166 16.132ZM3.357 20C0.858999 20 -0.855001 17.367 0.432999 15.133L8.201 1.66599C9.483 -0.555006 12.767 -0.555006 14.049 1.66599L21.817 15.133C23.105 17.367 21.39 20 18.893 20H3.357Z" fill="#006980"/>
</svg>
