<svg width="80" height="81" viewBox="0 0 80 81" fill="none" xmlns="http://www.w3.org/2000/svg">
<g clip-path="url(#clip0_7051_23687)">
<path d="M40 80.5537C62.0914 80.5537 80 62.6451 80 40.5537C80 18.4623 62.0914 0.553711 40 0.553711C17.9086 0.553711 0 18.4623 0 40.5537C0 62.6451 17.9086 80.5537 40 80.5537Z" fill="#214b92"/>
<path d="M80 40.5536C80 39.4389 79.9544 38.335 79.865 37.2435L61.6064 18.9849L49.2239 31.0855L34.5652 16.4268L35.9156 22.2575L28.6955 22.2964L43.2867 36.8877L17.9341 61.6628L36.6899 80.4186C37.791 80.5087 38.8953 80.5537 40 80.5536C62.0914 80.5536 80 62.645 80 40.5536Z" fill="#005A64"/>
<path d="M34.565 28.1663C32.6428 22.9768 33.8848 24.2186 28.6953 22.2964C33.8848 20.3743 32.6428 21.6161 34.565 16.4268C36.4872 21.6163 35.2453 20.3743 40.4347 22.2964C35.2453 24.2186 36.4872 22.9768 34.565 28.1663Z" fill="#FFDA8B"/>
<path d="M62.6471 49.2964C59.8657 41.7871 61.6629 43.5841 54.1533 40.8027C61.6627 38.0213 59.8655 39.8185 62.6471 32.3091C65.4285 39.8185 63.6314 38.0213 71.1408 40.8027C63.6314 43.5841 65.4286 41.7871 62.6471 49.2964Z" fill="#F4C258"/>
<path d="M53.929 26.1758L49.2092 26.6027L16.0415 59.7703L18.3638 62.0927L39.0624 44.1342L53.9304 26.5261L53.929 26.1758Z" fill="#636978"/>
<path d="M53.7236 26.1944L18.0947 61.8233L20.7835 64.512L53.9511 31.3444L53.9293 26.1758L53.7236 26.1944Z" fill="#414952"/>
<path d="M59.2165 16.5952L49.209 26.6027L51.5313 28.9251L56.7509 26.1758L61.5388 18.9176L59.2165 16.5952Z" fill="#FFDA8B"/>
<path d="M51.2544 28.6588L61.2603 18.6528L63.9488 21.3411L53.9428 31.3471L51.2544 28.6588Z" fill="#F4C258"/>
</g>
<defs>
<clipPath id="clip0_7051_23687">
<rect width="80" height="80" fill="white" transform="translate(0 0.553711)"/>
</clipPath>
</defs>
</svg>
