<svg width="81" height="81" viewBox="0 0 81 81" fill="none" xmlns="http://www.w3.org/2000/svg">
<g clip-path="url(#clip0_7051_23699)">
<path d="M40.4004 80.5537C61.5425 80.5537 78.6816 63.4146 78.6816 42.2725C78.6816 21.1303 61.5425 3.99121 40.4004 3.99121C19.2582 3.99121 2.11914 21.1303 2.11914 42.2725C2.11914 63.4146 19.2582 80.5537 40.4004 80.5537Z" fill="#005A64"/>
<path d="M40.4004 73.5225C57.6593 73.5225 71.6504 59.5314 71.6504 42.2725C71.6504 25.0136 57.6593 11.0225 40.4004 11.0225C23.1415 11.0225 9.15039 25.0136 9.15039 42.2725C9.15039 59.5314 23.1415 73.5225 40.4004 73.5225Z" fill="#006980"/>
<path d="M14.7754 68.835H6.65039C3.19867 68.835 0.400391 66.0367 0.400391 62.585V26.96C0.400391 23.5082 3.19867 20.71 6.65039 20.71H14.7754C16.5013 20.71 17.9004 22.109 17.9004 23.835V65.71C17.9004 67.4359 16.5013 68.835 14.7754 68.835Z" fill="#006980"/>
<path d="M59.7754 68.835H12.4316C10.7057 68.835 9.30664 67.4359 9.30664 65.71V23.835C9.30664 22.109 10.7057 20.71 12.4316 20.71H59.7754C61.5013 20.71 62.9004 22.109 62.9004 23.835V65.71C62.9004 67.4359 61.5013 68.835 59.7754 68.835Z" fill="#BFD9DF"/>
<path d="M45.2441 49.46H41.0254C38.4365 49.46 36.3379 47.3614 36.3379 44.7725C36.3379 42.1836 38.4365 40.085 41.0254 40.085H45.2441C47.833 40.085 49.9316 42.1836 49.9316 44.7725C49.9316 47.3614 47.833 49.46 45.2441 49.46Z" fill="#FFF5E2"/>
<path d="M61.3379 49.46H45.0879C42.499 49.46 40.4004 47.3614 40.4004 44.7725C40.4004 42.1836 42.499 40.085 45.0879 40.085H61.3379C63.9268 40.085 66.0254 42.1836 66.0254 44.7725C66.0254 47.3614 63.9268 49.46 61.3379 49.46Z" fill="white"/>
<path d="M41.7285 47.7412C43.325 47.7412 44.6191 46.447 44.6191 44.8506C44.6191 43.2541 43.325 41.96 41.7285 41.96C40.1321 41.96 38.8379 43.2541 38.8379 44.8506C38.8379 46.447 40.1321 47.7412 41.7285 47.7412Z" fill="#FFDA8B"/>
<path d="M39.2963 30.7958L37.2762 28.7757C37.1297 28.6292 37.0474 28.4305 37.0474 28.2233C37.0474 28.0161 37.1297 27.8174 37.2762 27.6708L39.2963 25.6507C39.4428 25.5042 39.6416 25.4219 39.8488 25.4219C40.056 25.4219 40.2547 25.5042 40.4012 25.6507L42.4213 27.6708C42.5678 27.8174 42.6502 28.0161 42.6502 28.2233C42.6502 28.4305 42.5678 28.6292 42.4213 28.7757L40.4012 30.7958C40.2546 30.9423 40.0559 31.0246 39.8488 31.0246C39.6416 31.0246 39.4429 30.9423 39.2963 30.7958ZM28.0463 16.5771L26.0262 14.5569C25.8797 14.4104 25.7974 14.2117 25.7974 14.0045C25.7974 13.7973 25.8797 13.5986 26.0262 13.4521L28.0463 11.4319C28.1928 11.2854 28.3916 11.2031 28.5988 11.2031C28.806 11.2031 29.0047 11.2854 29.1512 11.4319L31.1713 13.4521C31.3178 13.5986 31.4002 13.7973 31.4002 14.0045C31.4002 14.2117 31.3178 14.4104 31.1713 14.5569L29.1512 16.5771C29.0046 16.7236 28.8059 16.8059 28.5988 16.8059C28.3916 16.8059 28.1929 16.7236 28.0463 16.5771Z" fill="#FFDA8B"/>
<path d="M72.6223 25.7568C63.8264 24.6396 57.3951 19.4801 54.1514 11.5481L53.5986 11.6545L52.979 11.2407L44.9532 12.7849C43.5725 13.0506 43.0339 14.7395 44.0058 15.7556L50.7228 22.7781C50.905 22.9686 51.0425 23.1972 51.1253 23.4475C51.2082 23.6978 51.2342 23.9634 51.2015 24.2249L49.9989 33.8679C49.8248 35.2631 51.2647 36.2974 52.5314 35.6871L61.2857 31.4688C61.5232 31.3544 61.7832 31.2943 62.0468 31.2929C62.3105 31.2915 62.5711 31.3487 62.8098 31.4606L71.6092 35.5842C72.8823 36.1809 74.3109 35.1312 74.1218 33.7378L73.155 26.612L72.6845 26.2151L72.6223 25.7568Z" fill="#F3CC79"/>
<path d="M78.9398 12.6018L69.3779 10.8687C69.1185 10.8216 68.8728 10.7174 68.6587 10.5636C68.4446 10.4098 68.2675 10.2103 68.1401 9.97944L63.4451 1.47132C62.7657 0.240222 60.9931 0.24991 60.327 1.48819L55.724 10.0465C55.5991 10.2786 55.4241 10.4801 55.2117 10.6362C54.9993 10.7923 54.7547 10.8991 54.4959 10.949L52.979 11.2408C56.2085 19.5808 63.9179 25.6887 73.1549 26.6121L72.8153 24.1085C72.7798 23.8473 72.803 23.5814 72.8831 23.3303C72.9632 23.0791 73.0982 22.8489 73.2784 22.6565L79.9193 15.5621C80.8803 14.5355 80.3234 12.8526 78.9398 12.6018Z" fill="#FFDA8B"/>
</g>
<defs>
<clipPath id="clip0_7051_23699">
<rect width="80" height="80" fill="white" transform="translate(0.400391 0.553711)"/>
</clipPath>
</defs>
</svg>
