<svg width="81" height="81" viewBox="0 0 81 81" fill="none" xmlns="http://www.w3.org/2000/svg">
<path d="M40.5 74C59.5538 74 75 58.5538 75 39.5C75 20.4462 59.5538 5 40.5 5C21.4462 5 6 20.4462 6 39.5C6 58.5538 21.4462 74 40.5 74Z" fill="#006980"/>
<path d="M67.6109 29.2671C64.7672 29.2827 61.9234 29.3608 59.0797 29.4546C58.9391 29.4546 58.9391 29.6733 59.0797 29.6733C61.9234 29.6421 64.7672 29.5952 67.6109 29.4858C67.7516 29.4858 67.7516 29.2671 67.6109 29.2671ZM63.2047 35.3452C61.6578 34.3452 60.0641 33.4077 58.4703 32.4858C58.3453 32.4077 58.2359 32.5952 58.3609 32.6733C59.9234 33.6421 61.4859 34.6421 63.0953 35.5483C63.2203 35.6108 63.3297 35.4233 63.2047 35.3452ZM60.7203 39.5952C59.7359 38.4702 58.7203 37.3765 57.7203 36.2671C57.6266 36.1577 57.4703 36.314 57.5641 36.4233C58.5641 37.5327 59.5641 38.6421 60.5797 39.7358C60.6734 39.8296 60.8141 39.689 60.7203 39.5952Z" fill="white"/>
<path d="M25.3921 58.9702L18.3296 66.0327C2.70464 52.8765 1.89214 29.3296 16.1109 15.1108L23.2359 22.2358C13.1421 32.689 14.0171 49.6421 25.3921 58.9702Z" fill="#005A64"/>
<path d="M67.0327 17.3138L60.5952 23.7669C51.0952 12.1888 33.6421 11.4701 23.2515 22.2357L16.1108 15.1107C30.439 0.798188 54.0015 1.81381 67.0327 17.3138ZM65.0171 64.0169C52.2515 76.7826 31.8921 77.4544 18.314 66.0326L25.3765 58.9701C35.1577 66.9857 49.4546 66.4544 58.6108 57.6107L65.0171 64.0169Z" fill="#006980"/>
<path d="M65.5796 61.5327L60.0952 56.0483C67.6108 47.4233 68.2827 34.8452 61.8921 25.5015L67.3608 20.0327C77.564 32.1421 76.8765 50.2202 65.5796 61.5327Z" fill="#005A64"/>
<path d="M34.0172 58.8606C34.2672 57.47 35.7516 57.6263 37.5016 55.5325C38.2985 54.5794 38.3766 54.0794 40.0172 51.97C40.4391 51.4231 40.7204 51.0794 41.1891 50.7513C42.6422 49.6888 43.6735 50.1106 47.8297 48.7669C52.0016 45.5013 52.6891 43.4388 54.0641 43.4856C54.736 43.5169 55.2047 44.0169 56.2516 45.3763C61.4391 52.0638 61.2829 52.1106 57.7047 54.7669C56.486 55.6731 54.6579 56.4388 53.9547 57.4388C53.3141 58.345 52.8141 59.1419 52.7516 59.2356C51.1266 61.595 49.6891 63.095 49.6891 63.095C48.0172 64.8138 46.4391 65.7669 45.486 66.345C44.0485 67.22 42.3922 68.1888 41.5485 67.595C41.0954 67.2825 40.6735 66.3919 40.5641 66.1419C40.4547 65.8763 40.4079 65.6106 40.486 65.2825C39.4079 65.4856 38.4547 64.8763 38.2829 63.7981C37.7672 63.8138 37.2516 63.6106 36.9079 63.22C36.4391 62.7044 36.361 61.9075 36.6422 61.2669C35.0954 61.6575 33.7672 60.3294 34.0172 58.8606Z" fill="#FFDA8B"/>
<path d="M52.3297 61.5167C52.8453 61.2198 53.1422 60.6886 53.2359 60.2823C53.4859 59.0792 51.8453 57.6417 48.5484 54.8292C47.0484 53.548 46.9547 53.5948 45.7828 52.5323C45.1734 51.9698 44.9547 51.7355 44.4703 51.4698C42.8922 50.6105 41.9234 51.1573 37.6266 50.3448C33.0797 47.6261 32.1266 45.673 30.7672 45.8917C30.0953 46.0011 29.7047 46.5636 28.8453 48.0323C24.5484 55.3292 24.7047 55.3605 28.5953 57.5323C30.3922 58.5323 31.2984 58.5167 32.6578 59.7042C33.1734 60.1573 33.0484 60.1573 34.0797 61.3292C35.1578 62.5323 36.1578 63.6573 37.6109 64.7667C39.0641 65.8917 40.2984 66.4386 41.6891 67.0636C45.0953 68.6105 46.0953 68.2042 46.4391 67.9855C46.9391 67.6573 47.1266 67.1886 47.1266 67.1886C47.2828 66.798 47.2203 66.423 47.1891 66.2511C47.2359 66.2667 48.0641 66.5323 48.6891 66.0323C49.2359 65.5792 49.4078 64.7198 49.0172 64.0011C49.5953 64.2042 50.2516 64.0636 50.6422 63.6417C51.1422 63.1261 51.2047 62.2823 50.7516 61.6417C50.9391 61.7198 51.6578 61.9073 52.3297 61.5167Z" fill="#FFDA8B"/>
<path d="M34.0796 62.6889C33.7983 61.892 34.2515 61.1733 34.3452 61.0014C35.3452 59.267 36.9233 58.7826 37.5796 59.8764C38.2202 60.9701 37.7671 62.0326 37.7671 62.0326C37.7671 62.0326 37.9233 61.6889 38.2202 61.392C38.2983 61.3295 38.939 60.7983 39.5796 61.0326C39.8452 61.1264 40.0171 61.3295 40.064 61.392C40.4233 61.8764 40.3608 62.6576 39.939 63.4076C39.9702 63.3608 40.4077 62.5951 41.2515 62.5639C41.3296 62.5639 42.0015 62.5326 42.2983 62.9701C42.7671 63.6576 42.0015 65.1264 42.0015 65.1264C42.0327 65.0639 42.3452 64.4389 43.064 64.3139C43.1265 64.2983 43.7671 64.2045 44.1733 64.5951C44.8765 65.267 44.2827 66.7045 44.1733 66.9858C43.9546 67.5014 43.689 68.1733 43.0327 68.392C42.3296 68.6264 41.4546 68.267 40.8608 67.5014C40.8608 67.5014 39.1265 67.9389 38.7358 66.2514C38.6108 66.267 37.7671 66.3451 37.064 65.7045C36.3296 65.0326 36.3765 64.1107 36.3921 63.9857C35.2983 64.0639 34.3608 63.5014 34.0796 62.6889ZM45.9702 50.2983C45.9702 50.2983 42.7983 50.2045 40.3296 51.5639C37.8608 52.9232 36.6265 52.9076 36.564 53.8139C36.4858 54.7201 40.0327 55.8451 42.6577 54.3608C45.4233 56.8451 49.564 56.2983 50.6733 52.5483C49.0952 51.7983 47.5327 51.0483 45.9702 50.2983Z" fill="#FFDA8B"/>
<path d="M52.8141 58.6734C52.5484 58.3453 52.5484 58.2515 51.8766 57.5796C50.9859 56.6734 49.8609 55.7984 48.5953 55.1109C48.7672 54.9546 48.9234 54.7984 49.0797 54.6109C49.1578 54.5015 49.0172 54.3453 48.9234 54.4546C47.6578 55.9234 45.6734 56.189 44.1578 55.2671C43.6734 54.9703 43.2359 54.5484 42.6266 54.5796C42.2984 54.5953 42.0016 54.7046 41.7047 54.814C40.8297 55.1109 39.9234 55.2515 38.8766 55.0796C38.3609 54.9859 37.5641 54.7671 37.1578 54.4703C36.9234 54.2984 36.7203 53.9703 36.8297 53.6734C37.0016 53.1734 37.6734 53.0796 41.5953 51.0953C41.7047 51.0328 41.6109 50.8765 41.5016 50.939C40.1266 51.5796 38.7672 52.2359 37.4078 52.9078C36.9391 53.1265 36.4391 53.5015 36.5953 54.0796C36.7672 54.689 37.4547 54.9546 37.9859 55.1265C39.2984 55.564 40.5641 55.4859 41.8609 55.0328C42.7516 54.7203 42.9859 54.7984 43.7359 55.314C44.2516 55.6734 44.8297 55.939 45.4547 56.0328C46.4859 56.189 47.5641 55.9234 48.3922 55.2984C49.7984 56.064 51.0641 57.0171 52.2203 58.2828C52.3766 58.4546 52.5641 58.6265 52.7203 58.7984C52.7672 58.8453 52.8766 58.7515 52.8141 58.6734ZM44.1734 64.439C43.7359 64.1578 42.9234 64.2515 42.4859 64.5171C42.6734 63.9078 42.7047 63.2828 42.2828 62.7984C41.8297 62.2984 41.0641 62.1421 40.4391 62.6578C40.6422 61.0953 38.9703 60.4859 37.8297 61.5953C38.0328 60.5484 37.5641 59.6421 36.8141 59.314C36.1578 59.0171 35.2203 59.2359 34.5328 60.2984C34.3453 60.5953 34.1266 60.939 34.0484 61.2828C34.0172 61.4234 34.1891 61.4859 34.2672 61.3765C34.5328 61.0171 34.6266 60.4859 35.1734 59.9546C36.4703 58.7203 38.2359 60.0484 37.4547 62.0796C37.4078 62.1734 37.3766 62.189 37.3922 62.2515C37.1109 62.8609 36.6734 63.3609 36.2672 63.8921C36.2047 63.9703 36.3453 64.0796 36.4078 64.0015C36.8922 63.4703 37.3922 62.8453 37.6578 62.1578C37.8922 61.814 38.1891 61.5171 38.5797 61.3765C38.9703 61.2359 39.4703 61.2671 39.7984 61.5328C40.1891 61.8453 40.2359 62.3765 40.1266 62.8296C39.9859 63.3765 39.6891 63.8765 39.4391 64.3765L38.5484 66.1578C38.4703 66.314 38.7047 66.439 38.7828 66.2984C40.2203 63.4078 40.1578 63.564 40.2984 63.189C40.4547 62.8921 40.7203 62.7203 41.0016 62.6421C41.4234 62.5328 41.8766 62.7203 42.1266 63.064C42.4391 63.4859 42.3453 64.0328 42.2047 64.5015C41.7828 65.7984 41.0484 66.9546 40.7047 67.564C40.6109 67.7203 40.8453 67.8453 40.9391 67.7046C41.4391 66.9859 42.0797 65.6421 42.3297 64.9859C42.5641 64.6734 42.9547 64.5953 43.3453 64.5796C43.9391 64.5484 44.2672 64.7046 44.2828 65.314C44.2984 65.8296 44.1891 66.3609 44.0484 66.8609C43.7828 67.8296 43.5484 68.0015 43.4547 68.3609C43.4234 68.4703 43.5641 68.564 43.6578 68.4703C43.8297 68.2984 43.9234 68.0171 44.0172 67.7984C44.3141 67.0953 44.5016 66.3765 44.5484 65.6109C44.5797 65.1734 44.5484 64.689 44.1734 64.439ZM51.0016 61.689C50.7203 61.439 50.3922 61.2515 50.0953 61.0328C48.2516 59.7359 47.8609 59.4234 47.2047 59.0328C47.1422 59.0015 47.0641 59.0796 47.1266 59.1421C47.6891 59.6265 48.0641 59.8609 49.9078 61.1734C50.2203 61.3921 50.5328 61.6578 50.8766 61.8609C50.9703 61.9078 51.0953 61.7671 51.0016 61.689ZM49.1891 64.0484C49.0641 63.9234 48.9859 63.9703 48.3453 63.6421C47.3141 63.1109 46.7672 62.6265 45.9547 61.8921C45.8766 61.8296 45.7984 61.9234 45.8453 62.0015C46.5172 62.8296 47.6891 63.6109 48.6578 64.0484C48.7984 64.1109 48.9547 64.2203 49.1109 64.2046C49.2047 64.2046 49.2516 64.1109 49.1891 64.0484ZM26.8297 52.6578C26.9234 52.4859 27.0484 52.314 27.0953 52.1265C27.1266 52.0484 27.0016 51.9703 26.9391 52.0328C26.7984 52.189 26.7047 52.4078 26.6109 52.5953C26.1266 53.5015 25.8297 54.4546 26.2359 55.3921C26.3453 55.6578 26.5797 56.0484 26.8766 56.1421C26.9547 56.1578 27.0328 56.0796 26.9859 56.0015C26.8922 55.8765 26.7672 55.7984 26.6734 55.689C26.3766 55.314 26.2516 54.7984 26.2828 54.314C26.3141 53.7515 26.5641 53.1578 26.8297 52.6578ZM29.4391 57.814C29.3922 57.7515 28.9078 57.4234 28.9234 57.4234C28.8766 57.3921 28.8141 57.4078 28.7984 57.4546C28.7672 57.5015 28.7828 57.5484 28.8297 57.5796C29.2516 57.8921 29.2828 57.9234 29.3609 57.939C29.4234 57.9703 29.5016 57.8921 29.4391 57.814ZM54.2984 44.0484C54.0797 43.689 53.5172 43.7828 53.2203 43.9703C53.0172 44.0953 52.8609 44.2671 52.7047 44.4546C52.6891 44.4703 50.3453 47.1265 49.6891 47.8921C49.6266 47.9703 49.7359 48.0796 49.7984 48.0015C52.9703 44.5015 53.1109 44.1578 53.5953 44.0328C53.8297 43.9859 53.9859 44.064 54.1734 44.1734C54.2516 44.2359 54.3453 44.1421 54.2984 44.0484ZM56.3141 46.2984C56.2672 46.1421 56.1578 46.0015 56.0641 45.8609C55.8141 45.4859 55.8766 45.564 55.7828 45.4546C55.7203 45.3765 55.5797 45.4546 55.6422 45.564C55.7047 45.689 55.6266 45.5796 55.8766 45.9859C55.9547 46.1265 56.0328 46.2828 56.1578 46.3921C56.2047 46.4546 56.3453 46.3921 56.3141 46.2984ZM57.6422 54.2203C57.5016 54.2359 57.3609 54.2984 57.2359 54.3453C57.0953 54.3921 56.9547 54.4546 56.8297 54.5015C56.7828 54.5171 56.7672 54.5953 56.7828 54.6265C56.7984 54.6734 56.8609 54.7046 56.9078 54.689C57.0484 54.6421 57.1734 54.5953 57.3141 54.5484C57.4547 54.5015 57.5953 54.4546 57.7203 54.3765C57.7984 54.3453 57.7516 54.2046 57.6422 54.2203ZM47.0328 66.2359C46.9859 66.1734 47.0016 66.1734 46.0641 65.6265C45.9547 65.564 45.8297 65.4546 45.7203 65.4703C45.6734 65.4703 45.6422 65.5328 45.6578 65.5796C45.6891 65.6578 45.7359 65.689 46.6109 66.2046C46.7203 66.2671 46.8297 66.3609 46.9547 66.3921C47.0484 66.3921 47.0953 66.2984 47.0328 66.2359Z" fill="white"/>
<path d="M41.2671 43.6733L38.1108 45.3765C37.2358 45.8452 36.1577 45.5171 35.689 44.6421L30.189 34.4077L34.7983 31.939C36.4077 35.7827 38.6733 39.314 41.4858 42.3765C41.8608 42.7671 41.7515 43.4077 41.2671 43.6733Z" fill="#006980"/>
<path d="M55.5015 32.8452C47.8452 31.7358 40.1265 32.8921 33.1577 36.2671C31.7671 33.689 30.3921 31.1108 29.0015 28.5327C35.1733 24.4702 40.5015 18.814 44.189 11.7983C47.9702 18.814 51.7358 25.8296 55.5015 32.8452Z" fill="#FFDA8B"/>
<path d="M55.5984 32.7896C56.7768 32.1567 55.2031 26.9352 52.0836 21.1271C48.9641 15.3189 45.4799 11.1235 44.3016 11.7564C43.1232 12.3893 44.6969 17.6108 47.8164 23.419C50.9359 29.2271 54.4201 33.4225 55.5984 32.7896Z" fill="#005A64"/>
<path d="M35.2514 36.1108L31.1264 37.8296C29.9389 38.3296 28.5639 37.8296 27.9545 36.689L25.7983 32.6577C25.2045 31.5483 25.5483 30.1733 26.5951 29.4702L30.6576 26.7358C30.9701 26.5327 31.392 26.689 31.4858 27.0483C32.2826 30.0171 33.7201 32.6733 35.5795 34.8608C35.892 35.2827 35.7514 35.9077 35.2514 36.1108ZM49.0326 19.7358L46.3608 20.5015C47.2358 22.3765 48.2826 24.3608 49.4389 26.2358L51.5483 24.4233L49.0326 19.7358Z" fill="#006980"/>
<path d="M51.5643 24.4537C51.8076 24.3231 51.4355 23.1571 50.7332 21.8495C50.0309 20.5419 49.2643 19.5878 49.0211 19.7185C48.7778 19.8492 49.1499 21.0151 49.8522 22.3227C50.5545 23.6303 51.321 24.5844 51.5643 24.4537Z" fill="#006980"/>
<path d="M29.2516 31.7199L26.7204 33.0793C26.611 33.1418 26.4548 33.0949 26.3923 32.9855L26.3454 32.8918C26.2829 32.7824 26.3298 32.6261 26.4391 32.5636L28.9704 31.2043C29.0798 31.1418 29.236 31.1886 29.2985 31.298L29.3454 31.3918C29.4079 31.5168 29.361 31.6574 29.2516 31.7199ZM29.7673 32.6886L27.236 34.048C27.1266 34.1105 26.9704 34.0636 26.9079 33.9543L26.861 33.8605C26.7985 33.7511 26.8454 33.5949 26.9548 33.5324L29.486 32.173C29.5954 32.1105 29.7516 32.1574 29.8141 32.2668L29.861 32.3605C29.9235 32.4855 29.8923 32.6418 29.7673 32.6886ZM30.2985 33.673L27.7673 35.0324C27.6579 35.0949 27.5016 35.048 27.4391 34.9386L27.3923 34.8449C27.3298 34.7355 27.3766 34.5793 27.486 34.5168L30.0173 33.1574C30.1266 33.0949 30.2829 33.1418 30.3454 33.2511L30.3923 33.3449C30.4548 33.4699 30.4079 33.6105 30.2985 33.673ZM30.8141 34.6418L28.2829 36.0011C28.1735 36.0636 28.0173 36.0168 27.9548 35.9074L27.9235 35.8136C27.861 35.7043 27.9079 35.548 28.0173 35.4855L30.5485 34.1261C30.6579 34.0636 30.8141 34.1105 30.8766 34.2199L30.9235 34.3136C30.9704 34.4386 30.9391 34.5793 30.8141 34.6418Z" fill="white"/>
<path d="M67.6421 10.0012C64.4546 8.65742 60.4078 8.92304 58.189 9.96992C58.2046 9.93867 58.1734 9.89179 58.1265 9.92304C54.564 11.7355 53.1734 15.7199 54.314 19.2355C54.564 20.0168 55.1578 21.8137 56.9703 23.0012C58.189 23.798 59.4078 23.9387 60.0484 23.9855C59.8765 25.798 58.4234 26.048 58.4703 26.2199C58.5484 26.5012 61.2515 26.5637 62.6578 24.6105C63.0328 24.6105 63.4234 24.5949 63.7984 24.5793C65.8453 24.4699 68.064 24.3137 69.9078 23.3137C71.5484 22.423 72.6421 20.798 73.0015 18.9699C73.7828 15.0637 71.1265 11.4699 67.6421 10.0012Z" fill="#FFDA8B"/>
<path d="M69.1733 23.7823C69.6421 23.5792 70.1108 23.3761 70.5327 23.0792C71.5952 22.298 72.314 21.048 72.4546 19.8136C72.4858 19.5636 72.4546 19.3136 72.5171 19.0636C72.5483 18.9542 72.689 18.9698 72.7202 19.0636C72.814 19.3292 72.7671 19.6417 72.7358 19.9073C72.4702 22.0011 70.7671 23.7355 69.2358 24.0167C69.0796 24.0323 69.0327 23.8448 69.1733 23.7823ZM65.8608 24.1886C66.2202 24.1417 66.5952 24.1573 66.9702 24.1573C67.1577 24.1573 67.1577 24.4542 66.9702 24.4542C66.5952 24.4542 66.2358 24.4698 65.8608 24.423C65.7046 24.4073 65.7046 24.2042 65.8608 24.1886Z" fill="white"/>
<path d="M56.7671 19.0796L65.3452 11.7202C65.9858 12.7983 66.6265 13.8921 67.2671 14.9702C68.8296 13.6108 70.3921 12.2358 71.9546 10.8765C71.6733 10.4233 71.3765 9.97022 71.0952 9.51709C72.7671 9.32959 74.4233 9.14209 76.0952 8.95459C75.6108 10.6265 75.1265 12.314 74.6421 13.9858C74.3296 13.6108 74.0171 13.2202 73.7202 12.8452L66.5171 19.7671C65.7515 18.7358 64.9858 17.689 64.2202 16.6577L58.9702 21.2983L56.7671 19.0796Z" fill="#006980"/>
<path d="M64.2048 12.5796C63.861 12.8765 59.8767 16.5015 59.861 16.5171C58.8298 17.4702 58.7829 17.4702 58.6423 17.6577C58.5954 17.7046 58.6579 17.7984 58.7204 17.7515C58.9079 17.6265 59.0798 17.4546 59.2517 17.314L64.3298 12.7046C64.4235 12.6265 64.2985 12.5015 64.2048 12.5796ZM72.2048 10.8452L71.6892 10.0484C71.611 9.92336 71.3923 10.0327 71.486 10.1734C71.6423 10.4077 71.7985 10.6577 71.9548 10.8921C71.3454 11.4702 70.736 12.0327 70.111 12.6109C68.2985 14.2827 68.7048 13.939 68.2048 14.3921C68.1423 14.4546 68.236 14.5484 68.2985 14.4859C68.611 14.189 68.9548 13.9077 69.2673 13.6265C70.3923 12.6109 71.2985 11.7671 72.1579 11.0015C72.2204 10.9546 72.236 10.8765 72.2048 10.8452ZM36.5173 19.1577C33.486 17.8765 22.9704 13.8921 22.9548 13.8921C22.8298 13.8452 22.7517 14.0484 22.8767 14.0952C25.9079 15.2984 33.5485 18.3452 36.4392 19.3765C36.5798 19.4234 36.6423 19.2202 36.5173 19.1577ZM38.3767 14.6265C37.5485 13.6577 36.6423 12.7671 35.7517 11.8452C34.861 10.9234 34.0017 9.98586 33.0642 9.12648C32.9548 9.03273 32.7985 9.15773 32.8923 9.28273C33.7204 10.2515 34.6267 11.1577 35.5017 12.0796C36.3767 13.0015 37.2517 13.939 38.1735 14.814C38.3142 14.8921 38.486 14.7515 38.3767 14.6265ZM31.8454 22.2984C30.7673 22.1734 29.611 22.1265 27.986 22.0327C27.5798 22.0015 27.1267 21.939 26.7204 22.0015C26.611 22.0171 26.5954 22.189 26.7048 22.2202C27.0954 22.3296 27.5485 22.314 27.9548 22.3452C29.5642 22.4546 30.7517 22.5484 31.8142 22.564C31.986 22.564 32.0017 22.3296 31.8454 22.2984ZM28.9548 61.1265C27.9235 61.6734 26.9079 62.2359 25.8767 62.814C24.861 63.3765 23.8142 63.9234 22.8298 64.5327C22.7048 64.6109 22.8142 64.7827 22.9392 64.7202C23.986 64.2046 25.0017 63.6109 26.0173 63.0484C27.0329 62.4859 28.0642 61.9234 29.0642 61.3452C29.2204 61.2671 29.0954 61.064 28.9548 61.1265ZM30.1892 64.1265C29.5329 64.8452 28.9079 65.5796 28.2673 66.314C28.1579 66.439 28.3454 66.6421 28.4548 66.5015C29.0798 65.7671 29.7204 65.0327 30.3298 64.2671C30.4392 64.1734 30.2829 64.0171 30.1892 64.1265ZM70.6579 50.2984C69.7204 53.4546 68.1267 56.2827 66.0642 58.5796C65.9704 58.6734 66.1267 58.8296 66.2048 58.7202C68.3923 56.3609 69.986 53.5796 70.8298 50.3452C70.8767 50.2359 70.7048 50.189 70.6579 50.2984ZM71.9235 45.9859C71.8142 46.1734 71.6892 46.6577 71.6267 46.8765C71.4079 47.6734 71.5017 47.2984 71.3923 47.7827C71.3454 47.9546 71.5954 48.0171 71.6423 47.8452C71.736 47.5484 72.1267 46.3609 72.1267 46.0327C72.1423 45.9234 71.986 45.8921 71.9235 45.9859ZM7.61104 33.4702C7.17354 35.9077 7.06417 38.4546 7.32979 40.9859C7.43917 41.9234 7.56417 42.8765 7.81417 43.7984C7.84542 43.9234 8.04854 43.8765 8.03292 43.7515C7.79854 42.2359 7.54854 41.1734 7.48604 38.8296C7.39229 34.9702 8.12667 32.5796 8.43917 31.1109C8.47042 30.9702 8.23604 30.8921 8.18917 31.0327C7.92354 31.814 7.76729 32.6577 7.61104 33.4702ZM9.31417 29.064C9.42354 29.0484 9.36104 29.064 9.76729 28.9234C9.89229 28.8765 9.89229 28.689 9.78292 28.6421C9.70479 28.6109 9.65792 28.6421 9.45479 28.7202C9.26729 28.7827 9.29854 28.7827 9.22042 28.8296C9.11104 28.9077 9.18917 29.0796 9.31417 29.064Z" fill="white"/>
</svg>
