<svg width="81" height="77" viewBox="0 0 81 77" fill="none" xmlns="http://www.w3.org/2000/svg">
<path d="M38.4814 76.835C59.6236 76.835 76.7627 59.6959 76.7627 38.5537C76.7627 17.4116 59.6236 0.272461 38.4814 0.272461C17.3393 0.272461 0.200195 17.4116 0.200195 38.5537C0.200195 59.6959 17.3393 76.835 38.4814 76.835Z" fill="#214b92"/>
<path d="M37.7002 71.2881C54.9591 71.2881 68.9502 57.297 68.9502 40.0381C68.9502 22.7792 54.9591 8.78809 37.7002 8.78809C20.4413 8.78809 6.4502 22.7792 6.4502 40.0381C6.4502 57.297 20.4413 71.2881 37.7002 71.2881Z" fill="#005A64"/>
<path d="M65.0439 52.6943H5.66895C5.46174 52.6943 5.26303 52.612 5.11652 52.4655C4.97001 52.319 4.8877 52.1203 4.8877 51.9131V12.6162C4.8877 12.409 4.97001 12.2103 5.11652 12.0638C5.26303 11.9173 5.46174 11.835 5.66895 11.835H65.0439C65.2511 11.835 65.4499 11.9173 65.5964 12.0638C65.7429 12.2103 65.8252 12.409 65.8252 12.6162V51.9131C65.8252 52.1203 65.7429 52.319 65.5964 52.4655C65.4499 52.612 65.2511 52.6943 65.0439 52.6943Z" fill="#D9E7EC"/>
<path d="M70.5127 57.9287H11.1377C10.9305 57.9287 10.7318 57.8464 10.5853 57.6999C10.4388 57.5534 10.3564 57.3547 10.3564 57.1475V7.14746C10.3564 6.94026 10.4388 6.74155 10.5853 6.59503C10.7318 6.44852 10.9305 6.36621 11.1377 6.36621H70.5127C70.7199 6.36621 70.9186 6.44852 71.0651 6.59503C71.2116 6.74155 71.2939 6.94026 71.2939 7.14746V57.1475C71.2939 57.3547 71.2116 57.5534 71.0651 57.6999C70.9186 57.8464 70.7199 57.9287 70.5127 57.9287Z" fill="white"/>
<path d="M23.0129 27.2326H17.2715C17.0643 27.2326 16.8656 27.1503 16.7191 27.0038C16.5725 26.8573 16.4902 26.6586 16.4902 26.4514V22.0693C16.4902 21.8621 16.5725 21.6634 16.7191 21.5169C16.8656 21.3704 17.0643 21.2881 17.2715 21.2881H23.0129C23.2201 21.2881 23.4188 21.3704 23.5653 21.5169C23.7118 21.6634 23.7941 21.8621 23.7941 22.0693V26.4514C23.7941 26.6586 23.7118 26.8573 23.5653 27.0038C23.4188 27.1503 23.2201 27.2326 23.0129 27.2326Z" fill="#214b92"/>
<path d="M33.0417 27.2326H27.3003C27.0931 27.2326 26.8944 27.1503 26.7479 27.0038C26.6014 26.8573 26.519 26.6586 26.519 26.4514V22.0693C26.519 21.8621 26.6014 21.6634 26.7479 21.5169C26.8944 21.3704 27.0931 21.2881 27.3003 21.2881H33.0417C33.2489 21.2881 33.4476 21.3704 33.5941 21.5169C33.7406 21.6634 33.823 21.8621 33.823 22.0693V26.4514C33.823 26.6586 33.7406 26.8573 33.5941 27.0038C33.4476 27.1503 33.2489 27.2326 33.0417 27.2326ZM43.0708 27.2326H37.3294C37.1222 27.2326 36.9234 27.1503 36.7769 27.0038C36.6304 26.8573 36.5481 26.6586 36.5481 26.4514V22.0693C36.5481 21.8621 36.6304 21.6634 36.7769 21.5169C36.9234 21.3704 37.1222 21.2881 37.3294 21.2881H43.0708C43.278 21.2881 43.4767 21.3704 43.6232 21.5169C43.7697 21.6634 43.852 21.8621 43.852 22.0693V26.4514C43.852 26.6586 43.7697 26.8573 43.6232 27.0038C43.4767 27.1503 43.278 27.2326 43.0708 27.2326Z" fill="#214b92"/>
<path d="M53.0998 27.2326H47.3584C47.1512 27.2326 46.9525 27.1503 46.806 27.0038C46.6595 26.8573 46.5771 26.6586 46.5771 26.4514V22.0693C46.5771 21.8621 46.6595 21.6634 46.806 21.5169C46.9525 21.3704 47.1512 21.2881 47.3584 21.2881H53.0998C53.307 21.2881 53.5057 21.3704 53.6522 21.5169C53.7987 21.6634 53.8811 21.8621 53.8811 22.0693V26.4514C53.8811 26.6586 53.7987 26.8573 53.6522 27.0038C53.5057 27.1503 53.307 27.2326 53.0998 27.2326ZM63.1289 27.2326H57.3875C57.1803 27.2326 56.9816 27.1503 56.835 27.0038C56.6885 26.8573 56.6062 26.6586 56.6062 26.4514V22.0693C56.6062 21.8621 56.6885 21.6634 56.835 21.5169C56.9816 21.3704 57.1803 21.2881 57.3875 21.2881H63.1289C63.3361 21.2881 63.5348 21.3704 63.6813 21.5169C63.8278 21.6634 63.9101 21.8621 63.9101 22.0693V26.4514C63.9101 26.6586 63.8278 26.8573 63.6813 27.0038C63.5348 27.1503 63.3361 27.2326 63.1289 27.2326Z" fill="#D9E7EC"/>
<path d="M23.0129 36.1887H17.2715C17.0643 36.1887 16.8656 36.1064 16.7191 35.9598C16.5725 35.8133 16.4902 35.6146 16.4902 35.4074V31.0254C16.4902 30.8182 16.5725 30.6195 16.7191 30.473C16.8656 30.3265 17.0643 30.2441 17.2715 30.2441H23.0129C23.2201 30.2441 23.4188 30.3265 23.5653 30.473C23.7118 30.6195 23.7941 30.8182 23.7941 31.0254V35.4074C23.7941 35.6146 23.7118 35.8133 23.5653 35.9598C23.4188 36.1064 23.2201 36.1887 23.0129 36.1887Z" fill="#C5D3DD"/>
<path d="M33.0417 36.1887H27.3003C27.0931 36.1887 26.8944 36.1064 26.7479 35.9598C26.6014 35.8133 26.519 35.6146 26.519 35.4074V31.0254C26.519 30.8182 26.6014 30.6195 26.7479 30.473C26.8944 30.3265 27.0931 30.2441 27.3003 30.2441H33.0417C33.2489 30.2441 33.4476 30.3265 33.5941 30.473C33.7406 30.6195 33.823 30.8182 33.823 31.0254V35.4074C33.823 35.6146 33.7406 35.8133 33.5941 35.9598C33.4476 36.1064 33.2489 36.1887 33.0417 36.1887ZM43.0708 36.1887H37.3294C37.1222 36.1887 36.9234 36.1064 36.7769 35.9598C36.6304 35.8133 36.5481 35.6146 36.5481 35.4074V31.0254C36.5481 30.8182 36.6304 30.6195 36.7769 30.473C36.9234 30.3265 37.1222 30.2441 37.3294 30.2441H43.0708C43.278 30.2441 43.4767 30.3265 43.6232 30.473C43.7697 30.6195 43.852 30.8182 43.852 31.0254V35.4074C43.852 35.6146 43.7697 35.8133 43.6232 35.9598C43.4767 36.1064 43.278 36.1887 43.0708 36.1887ZM53.1 36.1887H47.3586C47.1514 36.1887 46.9527 36.1064 46.8061 35.9598C46.6596 35.8133 46.5773 35.6146 46.5773 35.4074V31.0254C46.5773 30.8182 46.6596 30.6195 46.8061 30.473C46.9527 30.3265 47.1514 30.2441 47.3586 30.2441H53.1C53.3072 30.2441 53.5059 30.3265 53.6524 30.473C53.7989 30.6195 53.8812 30.8182 53.8812 31.0254V35.4074C53.8812 35.6146 53.7989 35.8133 53.6524 35.9598C53.5059 36.1064 53.3072 36.1887 53.1 36.1887Z" fill="#214b92"/>
<path d="M63.1291 36.1887H57.3877C57.1805 36.1887 56.9818 36.1064 56.8353 35.9598C56.6888 35.8133 56.6064 35.6146 56.6064 35.4074V31.0254C56.6064 30.8182 56.6888 30.6195 56.8353 30.473C56.9818 30.3265 57.1805 30.2441 57.3877 30.2441H63.1291C63.3363 30.2441 63.535 30.3265 63.6815 30.473C63.828 30.6195 63.9104 30.8182 63.9104 31.0254V35.4074C63.9104 35.6146 63.828 35.8133 63.6815 35.9598C63.535 36.1064 63.3363 36.1887 63.1291 36.1887Z" fill="#D9E7EC"/>
<path d="M23.0129 45.1447H17.2715C17.0643 45.1447 16.8656 45.0624 16.7191 44.9159C16.5725 44.7694 16.4902 44.5707 16.4902 44.3635V39.9814C16.4902 39.7742 16.5725 39.5755 16.7191 39.429C16.8656 39.2825 17.0643 39.2002 17.2715 39.2002H23.0129C23.2201 39.2002 23.4188 39.2825 23.5653 39.429C23.7118 39.5755 23.7941 39.7742 23.7941 39.9814V44.3635C23.7941 44.5707 23.7118 44.7694 23.5653 44.9159C23.4188 45.0624 23.2201 45.1447 23.0129 45.1447Z" fill="#C5D3DD"/>
<path d="M33.0417 45.1447H27.3003C27.0931 45.1447 26.8944 45.0624 26.7479 44.9159C26.6014 44.7694 26.519 44.5707 26.519 44.3635V39.9814C26.519 39.7742 26.6014 39.5755 26.7479 39.429C26.8944 39.2825 27.0931 39.2002 27.3003 39.2002H33.0417C33.2489 39.2002 33.4476 39.2825 33.5941 39.429C33.7406 39.5755 33.823 39.7742 33.823 39.9814V44.3635C33.823 44.5707 33.7406 44.7694 33.5941 44.9159C33.4476 45.0624 33.2489 45.1447 33.0417 45.1447ZM43.0708 45.1447H37.3294C37.1222 45.1447 36.9234 45.0624 36.7769 44.9159C36.6304 44.7694 36.5481 44.5707 36.5481 44.3635V39.9814C36.5481 39.7742 36.6304 39.5755 36.7769 39.429C36.9234 39.2825 37.1222 39.2002 37.3294 39.2002H43.0708C43.278 39.2002 43.4767 39.2825 43.6232 39.429C43.7697 39.5755 43.852 39.7742 43.852 39.9814V44.3635C43.852 44.5707 43.7697 44.7694 43.6232 44.9159C43.4767 45.0624 43.278 45.1447 43.0708 45.1447ZM53.1 45.1447H47.3586C47.1514 45.1447 46.9527 45.0624 46.8061 44.9159C46.6596 44.7694 46.5773 44.5707 46.5773 44.3635V39.9814C46.5773 39.7742 46.6596 39.5755 46.8061 39.429C46.9527 39.2825 47.1514 39.2002 47.3586 39.2002H53.1C53.3072 39.2002 53.5059 39.2825 53.6524 39.429C53.7989 39.5755 53.8812 39.7742 53.8812 39.9814V44.3635C53.8812 44.5707 53.7989 44.7694 53.6524 44.9159C53.5059 45.0624 53.3072 45.1447 53.1 45.1447Z" fill="#D9E7EC"/>
<path d="M23.0129 54.1008H17.2715C17.0643 54.1008 16.8656 54.0185 16.7191 53.872C16.5725 53.7254 16.4902 53.5267 16.4902 53.3195V48.9375C16.4902 48.7303 16.5725 48.5316 16.7191 48.3851C16.8656 48.2386 17.0643 48.1562 17.2715 48.1562H23.0129C23.2201 48.1562 23.4188 48.2386 23.5653 48.3851C23.7118 48.5316 23.7941 48.7303 23.7941 48.9375V53.3195C23.7941 53.5267 23.7118 53.7254 23.5653 53.872C23.4188 54.0185 23.2201 54.1008 23.0129 54.1008Z" fill="#C5D3DD"/>
<path d="M33.0417 54.1008H27.3003C27.0931 54.1008 26.8944 54.0185 26.7479 53.872C26.6014 53.7254 26.519 53.5267 26.519 53.3195V48.9375C26.519 48.7303 26.6014 48.5316 26.7479 48.3851C26.8944 48.2386 27.0931 48.1562 27.3003 48.1562H33.0417C33.2489 48.1562 33.4476 48.2386 33.5941 48.3851C33.7406 48.5316 33.823 48.7303 33.823 48.9375V53.3195C33.823 53.5267 33.7406 53.7254 33.5941 53.872C33.4476 54.0185 33.2489 54.1008 33.0417 54.1008ZM43.0708 54.1008H37.3294C37.1222 54.1008 36.9234 54.0185 36.7769 53.872C36.6304 53.7254 36.5481 53.5267 36.5481 53.3195V48.9375C36.5481 48.7303 36.6304 48.5316 36.7769 48.3851C36.9234 48.2386 37.1222 48.1562 37.3294 48.1562H43.0708C43.278 48.1562 43.4767 48.2386 43.6232 48.3851C43.7697 48.5316 43.852 48.7303 43.852 48.9375V53.3195C43.852 53.5267 43.7697 53.7254 43.6232 53.872C43.4767 54.0185 43.278 54.1008 43.0708 54.1008Z" fill="#D9E7EC"/>
<path d="M11.1377 15.1943H5.66895C4.80598 15.1943 4.10645 14.4948 4.10645 13.6318V5.81934C4.10645 4.95637 4.80598 4.25684 5.66895 4.25684H11.1377C12.0007 4.25684 12.7002 4.95637 12.7002 5.81934V13.6318C12.7002 14.4948 12.0007 15.1943 11.1377 15.1943Z" fill="#214b92"/>
<path d="M71.2939 15.1943H9.5752C8.71223 15.1943 8.0127 14.4948 8.0127 13.6318V5.81934C8.0127 4.95637 8.71223 4.25684 9.5752 4.25684H71.2939C72.1569 4.25684 72.8564 4.95637 72.8564 5.81934V13.6318C72.8564 14.4948 72.1569 15.1943 71.2939 15.1943Z" fill="#005A64"/>
<path d="M13.0908 10.3506C12.2279 10.3506 11.5283 9.65105 11.5283 8.78809V2.53809C11.5283 1.67512 12.2279 0.975586 13.0908 0.975586C13.9538 0.975586 14.6533 1.67512 14.6533 2.53809V8.78809C14.6533 9.65105 13.9538 10.3506 13.0908 10.3506ZM19.3408 10.3506C18.4779 10.3506 17.7783 9.65105 17.7783 8.78809V2.53809C17.7783 1.67512 18.4779 0.975586 19.3408 0.975586C20.2038 0.975586 20.9033 1.67512 20.9033 2.53809V8.78809C20.9033 9.65105 20.2038 10.3506 19.3408 10.3506ZM61.5283 10.3506C60.6654 10.3506 59.9658 9.65105 59.9658 8.78809V2.53809C59.9658 1.67512 60.6654 0.975586 61.5283 0.975586C62.3913 0.975586 63.0908 1.67512 63.0908 2.53809V8.78809C63.0908 9.65105 62.3913 10.3506 61.5283 10.3506ZM67.7783 10.3506C66.9154 10.3506 66.2158 9.65105 66.2158 8.78809V2.53809C66.2158 1.67512 66.9154 0.975586 67.7783 0.975586C68.6413 0.975586 69.3408 1.67512 69.3408 2.53809V8.78809C69.3408 9.65105 68.6413 10.3506 67.7783 10.3506Z" fill="#FFDA8B"/>
<path d="M48.6376 57.1476C48.6376 47.868 55.058 40.0887 63.6986 38.0074C63.8566 37.9693 63.85 37.7418 63.6897 37.7157C62.4852 37.5204 61.2653 37.4366 60.0455 37.4655C49.4825 37.7116 40.9336 46.3777 40.8262 56.943C40.7148 67.9099 49.5714 76.8351 60.5126 76.8351C61.5811 76.8351 62.6295 76.7496 63.6517 76.5855C63.8205 76.5585 63.8273 76.319 63.6612 76.2787C55.0395 74.1841 48.6376 66.4138 48.6376 57.1476Z" fill="#FFB509"/>
<path d="M63.4814 37.6826C54.0169 39.1142 46.7627 47.2836 46.7627 57.1475C46.7627 67.0114 54.0169 75.1807 63.4814 76.6123C72.946 75.1807 80.2002 67.0115 80.2002 57.1475C80.2002 47.2834 72.946 39.1142 63.4814 37.6826Z" fill="#FFC143"/>
<path d="M60.5127 72.7725C69.1421 72.7725 76.1377 65.7769 76.1377 57.1475C76.1377 48.518 69.1421 41.5225 60.5127 41.5225C51.8832 41.5225 44.8877 48.518 44.8877 57.1475C44.8877 65.7769 51.8832 72.7725 60.5127 72.7725Z" fill="#FFD98F"/>
<path d="M60.5127 70.4287C67.8477 70.4287 73.7939 64.4825 73.7939 57.1475C73.7939 49.8124 67.8477 43.8662 60.5127 43.8662C53.1777 43.8662 47.2314 49.8124 47.2314 57.1475C47.2314 64.4825 53.1777 70.4287 60.5127 70.4287Z" fill="white"/>
<path d="M60.5127 69.0225C60.2019 69.0225 59.9038 68.899 59.6841 68.6792C59.4643 68.4595 59.3408 68.1614 59.3408 67.8506V67.0693C59.3408 66.7585 59.4643 66.4605 59.6841 66.2407C59.9038 66.0209 60.2019 65.8975 60.5127 65.8975C60.8235 65.8975 61.1216 66.0209 61.3413 66.2407C61.5611 66.4605 61.6846 66.7585 61.6846 67.0693V67.8506C61.6846 68.1614 61.5611 68.4595 61.3413 68.6792C61.1216 68.899 60.8235 69.0225 60.5127 69.0225ZM60.5127 48.71C60.2019 48.71 59.9038 48.5865 59.6841 48.3667C59.4643 48.147 59.3408 47.8489 59.3408 47.5381V46.7568C59.3408 46.446 59.4643 46.148 59.6841 45.9282C59.9038 45.7084 60.2019 45.585 60.5127 45.585C60.8235 45.585 61.1216 45.7084 61.3413 45.9282C61.5611 46.148 61.6846 46.446 61.6846 46.7568V47.5381C61.6846 47.8489 61.5611 48.147 61.3413 48.3667C61.1216 48.5865 60.8235 48.71 60.5127 48.71ZM72.2314 57.1475C72.2314 57.4583 72.108 57.7563 71.8882 57.9761C71.6684 58.1959 71.3704 58.3193 71.0596 58.3193H70.2783C69.9675 58.3193 69.6694 58.1959 69.4497 57.9761C69.2299 57.7563 69.1064 57.4583 69.1064 57.1475C69.1064 56.8367 69.2299 56.5386 69.4497 56.3188C69.6694 56.099 69.9675 55.9756 70.2783 55.9756H71.0596C71.3704 55.9756 71.6684 56.099 71.8882 56.3188C72.108 56.5386 72.2314 56.8367 72.2314 57.1475ZM51.9189 57.1475C51.9189 57.4583 51.7955 57.7563 51.5757 57.9761C51.3559 58.1959 51.0579 58.3193 50.7471 58.3193H49.9658C49.655 58.3193 49.3569 58.1959 49.1372 57.9761C48.9174 57.7563 48.7939 57.4583 48.7939 57.1475C48.7939 56.8367 48.9174 56.5386 49.1372 56.3188C49.3569 56.099 49.655 55.9756 49.9658 55.9756H50.7471C51.0579 55.9756 51.3559 56.099 51.5757 56.3188C51.7955 56.5386 51.9189 56.8367 51.9189 57.1475ZM52.2263 65.5901C52.1175 65.4813 52.0311 65.3521 51.9722 65.2099C51.9133 65.0677 51.883 64.9153 51.883 64.7614C51.883 64.6075 51.9133 64.4552 51.9722 64.313C52.0311 64.1708 52.1175 64.0416 52.2263 63.9328L52.7788 63.3803C52.9986 63.1605 53.2966 63.037 53.6075 63.037C53.9183 63.037 54.2164 63.1605 54.4361 63.3803C54.6559 63.6001 54.7794 63.8981 54.7794 64.2089C54.7794 64.5198 54.6559 64.8178 54.4361 65.0376L53.8836 65.5901C53.7748 65.6989 53.6456 65.7853 53.5034 65.8442C53.3613 65.9031 53.2089 65.9334 53.055 65.9334C52.9011 65.9334 52.7487 65.9031 52.6065 65.8442C52.4643 65.7853 52.3351 65.6989 52.2263 65.5901ZM66.5894 51.227C66.4806 51.1182 66.3943 50.989 66.3354 50.8468C66.2765 50.7046 66.2461 50.5522 66.2461 50.3983C66.2461 50.2444 66.2765 50.092 66.3354 49.9498C66.3943 49.8077 66.4806 49.6785 66.5894 49.5697L67.1419 49.0171C67.3617 48.7974 67.6598 48.6739 67.9706 48.6739C68.2814 48.6739 68.5795 48.7974 68.7993 49.0171C69.019 49.2369 69.1425 49.535 69.1425 49.8458C69.1425 50.1566 69.019 50.4547 68.7993 50.6745L68.2468 51.227C68.1379 51.3358 68.0087 51.4221 67.8666 51.481C67.7244 51.5399 67.572 51.5703 67.4181 51.5703C67.2642 51.5703 67.1118 51.5399 66.9696 51.481C66.8274 51.4221 66.6982 51.3358 66.5894 51.227ZM68.9096 65.4796C68.8007 65.5885 68.6716 65.6748 68.5294 65.7337C68.3872 65.7926 68.2348 65.8229 68.0809 65.8229C67.927 65.8229 67.7746 65.7926 67.6324 65.7337C67.4902 65.6748 67.361 65.5885 67.2522 65.4796L66.6997 64.9272C66.4799 64.7074 66.3565 64.4093 66.3565 64.0985C66.3565 63.7877 66.4799 63.4896 66.6997 63.2698C66.9195 63.05 67.2176 62.9266 67.5284 62.9266C67.8392 62.9266 68.1373 63.05 68.3571 63.2698L68.9096 63.8223C69.0184 63.9311 69.1047 64.0603 69.1636 64.2025C69.2225 64.3447 69.2528 64.4971 69.2528 64.651C69.2528 64.8049 69.2225 64.9573 69.1636 65.0995C69.1047 65.2416 69.0184 65.3708 68.9096 65.4796ZM54.5464 51.1165C54.4376 51.2254 54.3084 51.3117 54.1663 51.3706C54.0241 51.4295 53.8717 51.4598 53.7178 51.4598C53.5639 51.4598 53.4115 51.4295 53.2693 51.3706C53.1271 51.3117 52.9979 51.2254 52.8891 51.1165L52.3366 50.564C52.1168 50.3442 51.9934 50.0462 51.9934 49.7354C51.9934 49.4245 52.1168 49.1265 52.3366 48.9067C52.5564 48.6869 52.8545 48.5634 53.1653 48.5634C53.4761 48.5634 53.7742 48.6869 53.9939 48.9067L54.5464 49.4592C54.6553 49.568 54.7416 49.6972 54.8005 49.8394C54.8594 49.9816 54.8897 50.134 54.8897 50.2879C54.8897 50.4418 54.8594 50.5941 54.8005 50.7363C54.7416 50.8785 54.6553 51.0077 54.5464 51.1165Z" fill="#C5D3DD"/>
<path d="M60.5127 62.46C60.2019 62.46 59.9038 62.3365 59.6841 62.1167C59.4643 61.897 59.3408 61.5989 59.3408 61.2881V48.0068C59.3408 47.696 59.4643 47.398 59.6841 47.1782C59.9038 46.9584 60.2019 46.835 60.5127 46.835C60.8235 46.835 61.1216 46.9584 61.3413 47.1782C61.5611 47.398 61.6846 47.696 61.6846 48.0068V61.2881C61.6846 61.5989 61.5611 61.897 61.3413 62.1167C61.1216 62.3365 60.8235 62.46 60.5127 62.46Z" fill="#005A64"/>
<path d="M57.0241 59.9611C56.9487 59.8269 56.9006 59.6792 56.8823 59.5264C56.864 59.3736 56.8761 59.2187 56.9177 59.0705C56.9593 58.9224 57.0297 58.7839 57.1248 58.6629C57.22 58.542 57.338 58.441 57.4722 58.3656L67.1114 52.9542C67.3822 52.8056 67.7007 52.7698 67.9977 52.8547C68.2946 52.9397 68.5461 53.1384 68.6973 53.4078C68.8485 53.6771 68.8873 53.9952 68.8051 54.293C68.723 54.5908 68.5267 54.8441 68.2588 54.9978L58.6196 60.4092C58.3486 60.5614 58.0282 60.5996 57.729 60.5156C57.4298 60.4315 57.1762 60.2321 57.0241 59.9611Z" fill="#214b92"/>
</svg>
