<svg width="24" height="23" viewBox="0 0 24 23" fill="none" xmlns="http://www.w3.org/2000/svg">
<path d="M23.9 11.437C23.507 8.41242 21.9772 5.65093 19.6213 3.71384C17.2654 1.77675 14.2603 0.809409 11.2168 1.00845C8.17335 1.20748 5.31984 2.55796 3.23631 4.78538C1.15279 7.0128 -0.00440231 9.95 -4.80163e-05 13C-0.00581242 14.6325 0.32501 16.2487 0.971767 17.7476C1.61852 19.2466 2.56733 20.5961 3.75895 21.712C4.67029 22.5558 5.87111 23.0169 7.11295 23H16.88C18.1919 23.0031 19.4524 22.4898 20.389 21.571C21.7237 20.2724 22.7362 18.6798 23.3459 16.9202C23.9555 15.1607 24.1452 13.2829 23.9 11.437ZM18.991 20.137C18.4283 20.6913 17.6698 21.0014 16.88 21H7.11295C6.38223 21.015 5.67345 20.7499 5.13195 20.259C4.13923 19.3291 3.34877 18.2046 2.80991 16.9557C2.27104 15.7068 1.99532 14.3602 1.99995 13C2.00094 11.5922 2.29872 10.2005 2.87389 8.9156C3.44905 7.6307 4.28867 6.48151 5.33795 5.543C7.1611 3.8989 9.53099 2.99237 11.986 3C12.3782 3.00016 12.7701 3.0222 13.16 3.066C15.0356 3.28383 16.8111 4.02856 18.2809 5.21392C19.7507 6.39928 20.8546 7.97678 21.4648 9.76369C22.075 11.5506 22.1664 13.4738 21.7286 15.3106C21.2908 17.1473 20.3416 18.8225 18.991 20.142V20.137ZM7.80695 17.285C7.99658 17.4706 8.1047 17.724 8.10751 17.9894C8.11032 18.2548 8.0076 18.5104 7.82195 18.7C7.6363 18.8896 7.38292 18.9977 7.11756 19.0006C6.85219 19.0034 6.59658 18.9007 6.40695 18.715C5.27191 17.6032 4.49365 16.1786 4.17136 14.6227C3.84908 13.0669 3.99737 11.4503 4.59734 9.97912C5.1973 8.50789 6.22177 7.24864 7.54015 6.36188C8.85853 5.47512 10.4111 5.00101 12 5C12.3824 4.99989 12.7644 5.02696 13.143 5.081C13.273 5.09974 13.398 5.14392 13.511 5.21102C13.6239 5.27811 13.7225 5.36679 13.8012 5.47201C13.8799 5.57723 13.937 5.69691 13.9694 5.82423C14.0018 5.95154 14.0088 6.08399 13.99 6.214C13.9727 6.34473 13.9295 6.47069 13.8629 6.58448C13.7963 6.69828 13.7076 6.7976 13.602 6.87661C13.4965 6.95562 13.3762 7.01272 13.2482 7.04456C13.1203 7.0764 12.9872 7.08233 12.857 7.062C11.6054 6.88324 10.3294 7.10436 9.21105 7.6938C8.09265 8.28325 7.18902 9.21089 6.62911 10.3444C6.0692 11.4778 5.88161 12.7592 6.09313 14.0056C6.30465 15.252 6.90445 16.3997 7.80695 17.285ZM19.919 11.857C19.973 12.2356 20.0001 12.6176 20 13C20.0032 14.0657 19.7916 15.1211 19.3779 16.1032C18.9642 17.0852 18.3568 17.9739 17.592 18.716C17.4021 18.9016 17.1462 19.0043 16.8806 19.0013C16.6151 18.9983 16.3616 18.8899 16.176 18.7C15.9903 18.5101 15.8877 18.2542 15.8907 17.9887C15.8937 17.7231 16.0021 17.4697 16.192 17.284C16.8676 16.6254 17.3778 15.8163 17.681 14.9228C17.9841 14.0293 18.0714 13.0767 17.936 12.143C17.898 11.8803 17.966 11.6133 18.1249 11.4007C18.2839 11.1882 18.5208 11.0474 18.7835 11.0095C19.0462 10.9716 19.3132 11.0396 19.5257 11.1985C19.7383 11.3574 19.879 11.5943 19.917 11.857H19.919ZM13.926 12.488C14.0463 12.9208 14.0199 13.3812 13.851 13.7974C13.682 14.2136 13.38 14.5621 12.9921 14.7885C12.6041 15.0149 12.1521 15.1065 11.7067 15.0489C11.2612 14.9913 10.8473 14.7878 10.5297 14.4702C10.2121 14.1526 10.0086 13.7388 9.95105 13.2933C9.89347 12.8478 9.98504 12.3958 10.2115 12.0079C10.4379 11.62 10.7864 11.3179 11.2026 11.149C11.6188 10.98 12.0792 10.9537 12.512 11.074L16.293 7.293C16.3852 7.19749 16.4955 7.12131 16.6175 7.0689C16.7396 7.01649 16.8708 6.9889 17.0036 6.98775C17.1363 6.98659 17.268 7.0119 17.3909 7.06218C17.5138 7.11246 17.6255 7.18671 17.7193 7.2806C17.8132 7.3745 17.8875 7.48615 17.9378 7.60905C17.9881 7.73194 18.0134 7.86362 18.0122 7.9964C18.011 8.12918 17.9835 8.2604 17.9311 8.3824C17.8786 8.50441 17.8025 8.61475 17.707 8.707L13.926 12.488Z" fill="#214b92"/>
</svg>
