<svg width="12" height="12" viewBox="0 0 12 12" fill="none" xmlns="http://www.w3.org/2000/svg">
<g clip-path="url(#clip0_414_4113)">
<path d="M11.6697 3.331L10.5892 4.41147C10.4791 4.52163 10.301 4.52163 10.1908 4.41147L7.58924 1.80991C7.47908 1.69975 7.47908 1.52162 7.58924 1.41147L8.66971 0.331C9.10799 -0.107282 9.82049 -0.107282 10.2611 0.331L11.6697 1.73959C12.1103 2.17788 12.1103 2.89038 11.6697 3.331ZM6.66112 2.33959L0.506427 8.49428L0.00955207 11.3419C-0.0584167 11.7263 0.27674 12.0591 0.661115 11.9935L3.50877 11.4943L9.66346 5.33959C9.77361 5.22944 9.77361 5.05131 9.66346 4.94116L7.0619 2.33959C6.9494 2.22944 6.77127 2.22944 6.66112 2.33959ZM2.90877 7.96694C2.77986 7.83803 2.77986 7.63178 2.90877 7.50288L6.51815 3.8935C6.64705 3.76459 6.8533 3.76459 6.98221 3.8935C7.11111 4.02241 7.11111 4.22866 6.98221 4.35756L3.37283 7.96694C3.24393 8.09584 3.03768 8.09584 2.90877 7.96694ZM2.06268 9.93803H3.18768V10.7888L1.67596 11.0537L0.947052 10.3247L1.2119 8.81303H2.06268V9.93803Z" fill="#006980"/>
</g>
<defs>
<clipPath id="clip0_414_4113">
<rect width="12" height="12" fill="white"/>
</clipPath>
</defs>
</svg>
