<svg width="40" height="41" viewBox="0 0 40 41" fill="none" xmlns="http://www.w3.org/2000/svg">
<path d="M34.658 7.26656L36.6504 5.5625H32.8984L27.6588 3.95117L26.6699 4.97656L28.911 8.34672L29.9498 12.9405L31.8416 11.0866C33.5397 13.4304 35.3126 16.0847 35.3126 20.5043C35.3126 23.985 34.033 27.3404 31.6486 29.962L33.9676 34.2997C37.8955 30.6092 40.0001 25.7416 40.0001 20.5042C40.0001 15.0535 37.9609 11.0783 34.658 7.26656Z" fill="#006980"/>
<path d="M35.0547 36.4376L33.203 35.1016C29.5001 38.3593 25.4141 40.4999 20 40.4999C14.1641 40.4999 8.64844 37.7734 5.01562 33.0625L8.60148 29.9688C11.1798 33.5781 15.4531 35.6406 20 35.6641H20.0704C24.4765 35.6641 26.8984 33.9999 29.2421 32.4766L27.1094 31.0468L34.3984 28.3516L35.0547 36.4376Z" fill="#006980"/>
<path d="M35.0547 36.4376L33.203 35.1016C29.5001 38.3593 25.4141 40.4999 20 40.4999V35.6641H20.0704C24.4765 35.6641 26.8984 33.9999 29.2421 32.4766L27.1094 31.0468L34.3984 28.3516L35.0547 36.4376Z" fill="#005A64"/>
<path d="M21.1718 17.0078V7.71875L19.9999 9.82805L12.0703 24.0391H18.828V33.25L19.9999 31.1405L27.9295 17.0078H21.1718Z" fill="#FFDA8B"/>
<path d="M9.52141 34.5665L9.07969 27.3408L7.44891 29.0013C6.04672 26.6567 4.6875 24.4037 4.6875 20.504C4.6875 16.4944 6.33789 12.696 9.41562 9.89896L6.55305 6.18701C2.36008 9.77592 0 15.0711 0 20.504C0 25.1029 1.4468 28.4053 3.81891 31.8955L2.12516 33.2974L9.52141 34.5665Z" fill="#005A64"/>
<path d="M28.2812 5.56242L28.9141 8.35148C26.4298 6.31242 23.2813 5.2343 20 5.2343H19.9766C15.875 5.2343 13.547 6.68742 11.2032 8.09375L13.2423 9.64055L5.55469 11.1405L5.85938 3.59359L7.61719 5.07016C11.2265 2.23438 15.0078 0.5 20 0.5C24.7812 0.5 29.3359 2.25781 32.8984 5.56242H28.2812Z" fill="#006980"/>
<path d="M27.9296 17.0078L20 31.1405V9.82805L21.1719 7.71875V17.0078H27.9296Z" fill="#FDBF00"/>
<path d="M28.9141 8.35148C26.4298 6.31242 23.2813 5.2343 20 5.2343V0.5C24.7812 0.5 29.3359 2.25781 32.8984 5.56242H28.2812L28.9141 8.35148Z" fill="#005A64"/>
</svg>
