<svg width="16" height="17" viewBox="0 0 16 17" fill="none" xmlns="http://www.w3.org/2000/svg">
<path d="M1.5 2.10742C0.671875 2.10742 0 2.7793 0 3.60742C0 4.0793 0.221875 4.52305 0.6 4.80742L7.4 9.90742C7.75625 10.173 8.24375 10.173 8.6 9.90742L15.4 4.80742C15.7781 4.52305 16 4.0793 16 3.60742C16 2.7793 15.3281 2.10742 14.5 2.10742H1.5ZM0 5.60742V12.1074C0 13.2105 0.896875 14.1074 2 14.1074H14C15.1031 14.1074 16 13.2105 16 12.1074V5.60742L9.2 10.7074C8.4875 11.2418 7.5125 11.2418 6.8 10.7074L0 5.60742Z" fill="white"/>
</svg>
