<svg xmlns="http://www.w3.org/2000/svg" data-name="&lt;Layer&gt;" viewBox="0 0 2745 1830"><path fill="#214b92" d="M1653.47,694.74c-15.83,0-42.32-8.74-61.37-30.76-10-11.29-15.91-27.37-21.11-41.56l-1.25-3.41a3.05,3.05,0,0,1,5.72-2.12l1.26,3.43c5,13.68,10.68,29.18,20,39.64,19.43,22.46,47.7,30.24,60.71,28.44a3,3,0,1,1,.84,6A35.14,35.14,0,0,1,1653.47,694.74Z" class="color56302a svgShape"/><path fill="#214b92" d="M1648,616.41a3,3,0,0,1-2.46-4.84c3.82-5.25,3.87-7,3.79-7.44s-1.21-1.27-2.29-2c-2.4-1.61-5.68-3.81-7.28-8.65-2.9-9.56-.88-23.3-.79-23.87a3,3,0,0,1,6,.91c0,.13-1.9,13,.58,21.12.91,2.78,2.83,4.06,4.85,5.42s4.37,2.93,4.91,6-.91,6.66-4.87,12.1A3.05,3.05,0,0,1,1648,616.41Z" class="color56302a svgShape"/><path fill="#214b92" d="M1585.88,557.06h-.34a3.05,3.05,0,0,1,.09-6.1h.09c.67,0,16.07.22,22-14.12a3,3,0,0,1,5.63,2.34C1606.24,556.38,1588.6,557.06,1585.88,557.06Z" class="color56302a svgShape"/><path fill="#214b92" d="M1608.77,723.47a3.06,3.06,0,0,1-2.93-3.88c3.05-10.75-1.49-31.62-3.66-41.65-.35-1.58-.64-2.93-.85-4a3,3,0,0,1,6-1.19c.21,1,.49,2.35.83,3.89,2.46,11.32,7,32.39,3.57,44.6A3.07,3.07,0,0,1,1608.77,723.47Z" class="color56302a svgShape"/><path fill="#214b92" d="M1704.48,690.78a3.05,3.05,0,0,1-3-2.61c-.12-.83-2.91-20.26-3.17-25.7a3,3,0,0,1,6.09-.29c.25,5.15,3.09,24.92,3.12,25.12a3.05,3.05,0,0,1-2.59,3.45A3.11,3.11,0,0,1,1704.48,690.78Z" class="color56302a svgShape"/><path fill="#214b92" d="M1576.27,629.81h-.21c-14-1-23.4-7.52-28.11-19.47-3.86-9.21-2.9-18.71,2.54-24.73,5.24-5.83,13.87-7.46,23.67-4.49a3.05,3.05,0,0,1-1.77,5.84c-7.55-2.29-13.72-1.32-17.38,2.73-3.83,4.25-4.37,11.28-1.41,18.36,3.9,9.9,11.16,14.86,22.88,15.67a3.05,3.05,0,0,1-.21,6.1Z" class="color56302a svgShape"/><path fill="#214b92" d="M1568.59,609.79a3.06,3.06,0,0,1-2.34-1.09,22.12,22.12,0,0,0-5.72-4.7,3.05,3.05,0,0,1,2.83-5.41,28.67,28.67,0,0,1,7.57,6.19,3,3,0,0,1-2.34,5Z" class="color56302a svgShape"/><path fill="#214b92" d="M1719.41,608.44a3.05,3.05,0,0,1-1-5.92c11.06-4,16.69-10.73,17.74-21.25.92-7.68-1.51-14.3-6.36-17.34-4.62-2.91-10.82-2.16-17.46,2.1a3,3,0,1,1-3.3-5.13c8.61-5.53,17.36-6.31,24-2.14,6.87,4.31,10.39,13.19,9.18,23.17-1.26,12.72-8.57,21.6-21.73,26.33A3.1,3.1,0,0,1,1719.41,608.44Z" class="color56302a svgShape"/><path fill="#214b92" d="M1721.34,587.09a3.06,3.06,0,0,1-2.78-4.29,28.53,28.53,0,0,1,5.59-8,3,3,0,1,1,4.19,4.43,22.25,22.25,0,0,0-4.21,6.09A3.06,3.06,0,0,1,1721.34,587.09Z" class="color56302a svgShape"/><path fill="#214b92" d="M1680.59,542.85a28.26,28.26,0,0,1-23.33-11.39,3,3,0,1,1,4.87-3.67c9.41,12.48,24.71,8.25,24.86,8.2a3.06,3.06,0,0,1,1.7,5.87A31.62,31.62,0,0,1,1680.59,542.85Z" class="color56302a svgShape"/><path fill="#214b92" d="M1657.82,694.47a3.05,3.05,0,0,1-.42-6.08c13-1.8,38.09-17,50.64-43.87,6.1-12.62,7.34-29.07,8.42-43.59l.28-3.67a3,3,0,1,1,6.08.47l-.27,3.66c-1.13,15.06-2.41,32.12-9,45.75-13.64,29.21-40.56,45.25-55.31,47.3Z" class="color56302a svgShape"/><path fill="#214b92" d="M1629.42,653.67a3,3,0,0,1-2-.77,3,3,0,0,1-.26-4.3c11.24-12.65,37.49-14.93,51.08-4.44a3.05,3.05,0,1,1-3.73,4.83c-11.86-9.17-34.52-5.65-42.79,3.66A3,3,0,0,1,1629.42,653.67Z" class="color56302a svgShape"/><path fill="#214b92" d="M1733.18,562.89a2.68,2.68,0,0,1-.68-.08,3,3,0,0,1-2.29-3.65c.08-.34,7.64-34.13-2.3-68.25-5.56-19.22-20.51-37-40-47.43a85.48,85.48,0,0,0-66.41-6.28,3.05,3.05,0,0,1-1.81-5.83,91.55,91.55,0,0,1,71.11,6.74c20.88,11.24,36.94,30.34,43,51.1,10.4,35.69,2.71,69.88,2.38,71.32A3,3,0,0,1,1733.18,562.89Z" class="color56302a svgShape"/><path fill="#214b92" d="M1553,589.4a3.06,3.06,0,0,1-2.7-1.62c-1-1.89-24.37-46.77-12.69-88.28,4.28-15.5,22.08-65.74,72.07-60.81a3,3,0,1,1-.6,6.07c-45.26-4.41-61.63,42-65.59,56.37-11,39.15,12,83.36,12.2,83.8a3,3,0,0,1-1.27,4.12A3,3,0,0,1,1553,589.4Z" class="color56302a svgShape"/><path fill="#214b92" d="M1665.9,549.39c-15.89,0-22.56-12-28.43-25.42-1.22-2.78-2.5-6.5-3.85-10.45-3.86-11.24-9.69-28.23-17.54-30.15-2.92-.71-6.38.8-10.25,4.5a3.05,3.05,0,0,1-4.21-4.42c5.47-5.22,10.82-7.25,15.91-6,11.08,2.7,17.06,20.11,21.86,34.09,1.31,3.82,2.55,7.43,3.67,10,7,16.1,12.89,23.42,27,21.46a3,3,0,1,1,.84,6A36.83,36.83,0,0,1,1665.9,549.39Z" class="color56302a svgShape"/><path fill="#214b92" d="M1704,557.46a24.84,24.84,0,0,1-10-2.25c-14-6.15-26.18-23.8-30-37.31a3,3,0,1,1,5.87-1.64c3.32,11.88,14.41,28,26.55,33.37,5.13,2.27,9.93,2.31,14.26.13a3,3,0,1,1,2.75,5.44A20.66,20.66,0,0,1,1704,557.46Z" class="color56302a svgShape"/><path fill="#214b92" d="M1570.37,573.26a3,3,0,0,1-.41-6.07c10.8-1.5,13.88-16.81,17.13-33,3.15-15.66,6.4-31.85,17.73-37.37a3,3,0,0,1,2.67,5.48c-8.62,4.2-11.56,18.89-14.42,33.09-3.53,17.58-7.18,35.76-22.27,37.86Z" class="color56302a svgShape"/><path fill="#214b92" d="M1353.32,1102.09c-10.86,0-22-2.64-30.19-9.89-16.54-14.63-20.31-17.69-28.28-17a3,3,0,1,1-.56-6.07c10.87-1,16.42,3.9,32.88,18.46,13,11.52,35.14,8.74,46.15,5.28a3.05,3.05,0,0,1,1.83,5.82A74.26,74.26,0,0,1,1353.32,1102.09Z" class="color56302a svgShape"/><path fill="#214b92" d="M1283.33,1108.43c-.47,0-.95,0-1.45,0-10-.62-15.44-3.2-21-9.86-5.94-7.14-3.42-19.28,8.43-40.61a3,3,0,0,1,5.33,3c-10.15,18.27-13,29-9.08,33.75s7.51,7.1,16.68,7.67c7.07.47,10.17-3.47,11.84-5.57l.63-.77a3.05,3.05,0,1,1,4.57,4c-.12.13-.26.31-.43.52A18.87,18.87,0,0,1,1283.33,1108.43Z" class="color56302a svgShape"/><path fill="#214b92" d="M1261.14,1103.19c-7.34,0-13.8-3.15-18.78-9.19-5.66-6.55,7-37.54,10.68-44.87a3.05,3.05,0,0,1,5.44,2.77c-7,13.75-12.83,34.93-11.32,38.37a17.6,17.6,0,0,0,15.52,6.76,3.05,3.05,0,0,1,.46,6.09C1262.47,1103.17,1261.8,1103.19,1261.14,1103.19Z" class="color56302a svgShape"/><path fill="#214b92" d="M1243.2,1095.7c-7.67,0-15.32-8.86-17-17-1.38-6.69,2.13-18,12.12-39a3.05,3.05,0,0,1,5.51,2.62c-3.6,7.59-13.19,27.77-11.66,35.19,1.24,6,7.3,12.51,11.36,12.09a3,3,0,0,1,3.32,2.75,3.05,3.05,0,0,1-2.75,3.33C1243.8,1095.68,1243.5,1095.7,1243.2,1095.7Z" class="color56302a svgShape"/><path fill="#214b92" d="M1227.64,1083.15a3.05,3.05,0,0,1-1.61-.46c-1.38-.87-13.48-8.69-13.48-17.38s12.9-33.78,14.29-36.19c3.42-5.92,10.87-13.6,16.52-15.61,7-2.29,15.12-1,22.93.71,10.09,2.23,21,8.06,32.6,14.23,5.72,3,11.64,6.2,17.64,9,28.63,13.42,41.15,14.71,46.6,13.43a3,3,0,1,1,1.39,5.93c-9.42,2.23-26-2.3-50.58-13.84-6.14-2.88-12.13-6.07-17.92-9.15-11.2-6-21.77-11.6-31-13.65-7-1.54-14.15-2.7-19.63-.9-3.7,1.31-10.15,7.59-13.21,12.89-3.36,5.82-13.48,27.31-13.48,33.14,0,4.2,7.15,10,10.61,12.21a3,3,0,0,1-1.62,5.63Z" class="color56302a svgShape"/><path fill="#214b92" d="M1206.12,952.36a10.11,10.11,0,0,1-5.41-1.51,3.05,3.05,0,0,1,3.24-5.17c1.26.79,3.57,1,6.31-.81s7.06-6.55,6.1-13.09a18.09,18.09,0,0,0-6.08-10.5,3.05,3.05,0,0,1,3.69-4.86,24,24,0,0,1,8.42,14.47c1.24,8.38-3.52,15.62-8.78,19.08A13.79,13.79,0,0,1,1206.12,952.36Z" class="color56302a svgShape"/><path fill="#214b92" d="M1219.07,972.6a14,14,0,0,1-2.51-.19c-9.82-1.74-15.73-4-24.49-8-3.79-1.75-7-6.31-10.11-10.72a57.79,57.79,0,0,0-4.08-5.37,7.45,7.45,0,0,1-1-9.48c1.09-1.57,5.55-6.3,17-1.54a3.05,3.05,0,0,1-2.35,5.63c-5.69-2.38-8.87-1.66-9.61-.6-.41.58,0,1.33.43,1.85a61,61,0,0,1,4.59,6c2.39,3.4,5.38,7.62,7.68,8.69,8.45,3.9,13.78,5.92,23,7.56,4,.73,19.46-2.46,31.87-5,17.56-3.63,25.6-5.14,28.84-4.27a3.05,3.05,0,0,1-1.57,5.9c-2.46-.54-16.09,2.28-26,4.34C1235.75,970.46,1224.9,972.6,1219.07,972.6Z" class="color56302a svgShape"/><path fill="#214b92" d="M1205.38,909.42a3.05,3.05,0,0,1,0-6.1l9.62,0h0a3.05,3.05,0,0,1,0,6.1l-9.62,0Z" class="color56302a svgShape"/><path fill="#214b92" d="M1196.48,900.64a3.05,3.05,0,0,1-.76-6,61.41,61.41,0,0,1,19.34-1.7,3.05,3.05,0,0,1-.61,6.07,56.19,56.19,0,0,0-17.21,1.54A2.89,2.89,0,0,1,1196.48,900.64Z" class="color56302a svgShape"/><path fill="#214b92" d="M1275.77,924.13c-8.19,0-17.24-8.42-18.76-9.88-7.08-5.66-26.06-20.48-30.71-22.73-3.94-1.91-20.93-1.72-32.88,3.54a3,3,0,1,1-2.46-5.58c12.5-5.51,31.67-6.52,38-3.45,6.13,3,29.35,21.44,32,23.54l.23.21c3.49,3.41,10.67,8.66,15.12,8.23a3.05,3.05,0,1,1,.61,6.07C1276.53,924.11,1276.15,924.13,1275.77,924.13Z" class="color56302a svgShape"/><path fill="#214b92" d="M1117.27,1492.28c-49.42,0-91-13.85-131.22-27.27-35.16-11.72-71.52-23.85-112.84-26.58-48.58-3.23-86.58,8.86-126.81,21.65-44,14-89.52,28.5-155.91,27.57-51.56-.69-91.75-13.46-130.62-25.8-56.85-18-110.54-35.1-188.81-6.34a3,3,0,0,1-2.1-5.72c80.22-29.49,134.88-12.13,192.76,6.25,38.44,12.2,78.2,24.83,128.85,25.51,65.39,1,110.43-13.44,154-27.28,40.8-13,79.33-25.2,129.06-21.93,42.11,2.79,78.84,15,114.37,26.88,43,14.32,87.35,29.13,141,26.7,41.57-1.89,78-15.59,113.12-28.84,39.27-14.79,79.8-30.06,128-29.26,43.48.73,81.16,14.09,117.6,27,40,14.18,81.44,28.89,131.42,27.43,5.2-.14,10.44-.43,15.57-.85,48.56-4,86.6-19.83,123.39-35.15,35.54-14.81,72.3-30.12,118.29-34.66,54.41-5.38,99.33,13.41,142.8,31.56,37.77,15.78,76.83,32.09,122.67,33.18,51.39,1.28,87.93-15.39,123.31-31.46,55.66-25.26,108.23-49.14,211-8.25a3.05,3.05,0,0,1-2.26,5.67c-100.32-39.92-151.75-16.58-206.19,8.14-36,16.35-73.17,33.21-126,32-47-1.12-86.58-17.66-124.87-33.65-44.74-18.69-87-36.33-139.85-31.12-45.09,4.45-81.42,19.59-116.55,34.22-37.22,15.51-75.72,31.54-125.23,35.6-5.24.43-10.59.72-15.9.87-51.2,1.46-93.09-13.41-133.63-27.78-37.63-13.34-73.18-25.94-115.67-26.65-46.92-.85-87,14.28-125.77,28.87-35.62,13.42-72.46,27.29-115,29.22Q1123.17,1492.28,1117.27,1492.28Z" class="color56302a svgShape"/><path fill="#214b92" d="M1286.06,1094.26a3,3,0,0,1-2.86-2c-2.81-7.5.88-15.93,9.88-22.55a3.05,3.05,0,0,1,3.61,4.92c-3.2,2.35-10.37,8.57-7.78,15.49a3,3,0,0,1-1.78,3.93A3.1,3.1,0,0,1,1286.06,1094.26Z" class="color56302a svgShape"/><path fill="#214b92" d="M1288.51,1028.37a3,3,0,0,1-2.17-.91l-55.76-56.36a3.05,3.05,0,1,1,4.34-4.29l55.76,56.36a3.06,3.06,0,0,1-2.17,5.2Z" class="color56302a svgShape"/><path fill="#214b92" d="M1201.31,950.33a3,3,0,0,1-2.1-.83c-2.85-2.71-6.15-5.78-9.62-9-12.66-11.77-27-25.12-32.48-32.69-4.63-6.42-.72-16.53,5.74-22.59,7.05-6.61,15.5-7.38,22.05-2,9.8,8.07,26,27.76,36.16,43.89a3,3,0,0,1-5.16,3.24c-9.69-15.4-25.66-34.83-34.87-42.42-5.85-4.82-11.75-.4-14,1.72-4.83,4.53-7.2,11.48-5,14.57,5.11,7.09,19.85,20.78,31.69,31.79,3.48,3.24,6.79,6.32,9.66,9a3,3,0,0,1-2.1,5.26Z" class="color56302a svgShape"/><path fill="#214b92" d="M1334.14,1048.79a3,3,0,0,1-2.19-.93l-79.53-82a3.05,3.05,0,0,1,4.38-4.25l79.53,82a3.05,3.05,0,0,1-2.19,5.17Z" class="color56302a svgShape"/><path fill="#214b92" d="M1281.93,968.51c-3.55,0-5.86-4-7.66-13.35-.07-.37-6.45-36.91,3.85-40,25.89-7.88,47.09-15.74,73.94-25.69,24.26-9,54.46-20.2,97.76-35,29.89-10.19,76.14-71.36,106.74-111.84,4.17-5.51,8.1-10.71,11.73-15.46,11.71-15.27,28-26.91,37-29.33a3.05,3.05,0,1,1,1.59,5.89c-6.84,1.84-22.37,12.3-33.76,27.16-3.62,4.73-7.55,9.92-11.7,15.41-32.91,43.53-78,103.15-109.64,114-43.23,14.73-73.38,25.91-97.61,34.9-26.85,10-48.08,17.82-74,25.72-.57.76-1.78,4.19-1.78,12.81,0,13.17,2.52,25.76,4.35,28.67,43.54-4.09,181.43-39.71,197.08-44.45,29-8.8,95.06-61.18,95.72-61.71a3.05,3.05,0,1,1,3.8,4.78c-2.74,2.18-67.61,53.63-97.75,62.77-11.14,3.37-154.83,40.93-199.23,44.76A3,3,0,0,1,1281.93,968.51Z" class="color56302a svgShape"/><path fill="#214b92" d="M1386,1110.08c-7.24,0-13.51-11.56-17.61-21.7-.14-.34-13.71-34.19-3.39-40.06,25.24-14.35,60.55-29.22,97.93-44.95,45.72-19.25,97.53-41.06,140.09-65.94,6.89-4,17.26-49.2,25.59-85.5,9.59-41.76,19.51-84.95,29.47-99.59a3,3,0,1,1,5,3.43c-9.32,13.7-19.54,58.23-28.56,97.52-12,52.11-19.74,84.31-28.46,89.41-42.9,25.08-94.91,47-140.8,66.29-37.21,15.66-72.37,30.46-97.28,44.63-2.83,2.58,1.15,24.64,9.94,40.9,4.47,8.28,7.55,9.64,8.25,9.43,84.31-21.77,274.54-85.21,294.53-100,4.07-3,26.49-43.19,34.42-66.25C1738.35,870.3,1761.36,769,1761.59,768a3,3,0,0,1,6,1.34c-.23,1-23.31,102.62-46.6,170.33-7.25,21.11-30.14,64.41-36.55,69.16-22.28,16.5-217.4,80.56-296.63,101A7,7,0,0,1,1386,1110.08Z" class="color56302a svgShape"/><path fill="#214b92" d="M1862.14,1168.45c-10.12,0-26-2.28-48.59-5.66-36.25-5.44-81.37-12.21-107-6.35a3,3,0,0,1-1.36-5.94c26.72-6.13,72.46.74,109.22,6.25,23.06,3.46,51.71,7.75,55.64,4.56,2.2-144.78-12.85-264.79-44.73-356.69-39.47-113.77-91.24-115.71-101.26-115-11.6.89-17.19,4.17-19,5.53-25,18.36-66.09,54.88-79.58,66.88l-1.35,1.19c-.61.56-2.91,2.19-6.19.11-7.38-4.68-20.24-31.53-12.93-56.4a3,3,0,1,1,5.85,1.72c-6.67,22.69,5.68,46.1,10,49.32l.56-.5c13.55-12,54.78-48.71,80-67.23,4.9-3.6,12.78-6,22.2-6.71,15.12-1.16,67.57,4,107.48,119,32.14,92.63,47.3,213.42,45.07,359a5.52,5.52,0,0,1-2,4.21C1872,1167.66,1868.08,1168.45,1862.14,1168.45ZM1621.41,758.34h0Z" class="color56302a svgShape"/><path fill="#214b92" d="M1680.48,1152.72a3.15,3.15,0,0,1-.61-.06c-5.43-1.09-53.3-11.21-60.26-30.09-3.93-10.67-4-24.45-4.16-41.89-.1-13.21-.21-28.18-1.89-45.84a3,3,0,0,1,2.74-3.32,3,3,0,0,1,3.32,2.74c1.72,17.93,1.83,33,1.93,46.38.12,16.84.22,30.16,3.78,39.82,4.91,13.3,41.9,23.44,55.74,26.22a3,3,0,0,1-.59,6Z" class="color56302a svgShape"/><path fill="#214b92" d="M1596.84,945.23a3,3,0,0,1-2.93-2.23c-10.07-36-25.3-90.53-19.78-146a3.05,3.05,0,0,1,6.07.61c-5,50.13,6.42,96.58,19.58,143.71a3.06,3.06,0,0,1-2.12,3.76A3.3,3.3,0,0,1,1596.84,945.23Z" class="color56302a svgShape"/><path fill="#214b92" d="M1713.51,1158a3.27,3.27,0,0,1-.54,0c-88.6-15.86-255.49-31.1-364.42-33.27a3,3,0,0,1-3-3.11,3.07,3.07,0,0,1,3.11-3c109.19,2.18,276.51,17.46,365.37,33.36a3,3,0,0,1-.53,6Z" class="color56302a svgShape"/><path fill="#214b92" d="M1267.66,1184.35a3.05,3.05,0,0,1-2.36-5c1.12-1.36,27.56-33.53,45.26-47.42a49.43,49.43,0,0,1,8.6-5.39,3.05,3.05,0,0,1,2.69,5.48,43.33,43.33,0,0,0-7.53,4.71c-17.17,13.48-44,46.16-44.3,46.49A3,3,0,0,1,1267.66,1184.35Z" class="color56302a svgShape"/><path fill="#214b92" d="M1427.55,1197.41a3,3,0,0,1-3-3.05c0-27.86-19.66-52.3-42.08-52.3s-42.07,24.44-42.07,52.3a3.05,3.05,0,0,1-6.1,0c0-31.11,22.51-58.4,48.17-58.4s48.18,27.29,48.18,58.4A3,3,0,0,1,1427.55,1197.41Z" class="color56302a svgShape"/><path fill="#214b92" d="M1412,1198a3.06,3.06,0,0,1-3-3c0-18.8-12.37-35.28-26.48-35.28s-26.47,16.48-26.47,35.28a3,3,0,1,1-6.1,0c0-22.43,14.92-41.38,32.57-41.38s32.58,19,32.58,41.38A3,3,0,0,1,1412,1198Z" class="color56302a svgShape"/><path fill="#214b92" d="M2139.79,1478.32a3,3,0,0,1-2.16-.89,3.06,3.06,0,0,1,0-4.32c37.77-37.64,120.07-266.49,131.93-299.84-25.38-.11-161.14-.17-345.54,9.85-184.84,10-353.53,15.25-515.71,15.94h0a3.05,3.05,0,0,1,0-6.1c162.08-.69,330.67-5.9,515.4-15.93,204.15-11.09,348.78-9.85,350.21-9.83a3.05,3.05,0,0,1,2.85,4.06c-3.79,10.79-93.29,264.79-134.81,306.17A3,3,0,0,1,2139.79,1478.32Z" class="color56302a svgShape"/><path fill="#214b92" d="M2063,1160.58a3.46,3.46,0,0,1-.77-.1,3.05,3.05,0,0,1-2.18-3.72c6.2-23.82,14.53-50.8,14.61-51.07a3.15,3.15,0,0,1,.84-1.34l14.24-13.18a3.05,3.05,0,1,1,4.14,4.48l-13.63,12.62c-1.41,4.59-8.72,28.6-14.3,50A3,3,0,0,1,2063,1160.58Z" class="color56302a svgShape"/><path fill="#214b92" d="M645,1483.16a3,3,0,0,1-1.26-.28c-171.79-78.08-299.64-365.1-300.92-368a3.05,3.05,0,0,1,3.7-4.14c.81.25,83,25.57,211.94,50,56,10.62,113,19.6,169.44,26.7,129.22,16.24,288.39,12.46,442.33,8.81,66.92-1.59,136.11-3.23,202.26-3.23a3,3,0,1,1,0,6.1c-66.07,0-135.23,1.64-202.11,3.23-154.16,3.65-313.57,7.44-443.24-8.86-56.56-7.11-113.7-16.12-169.82-26.76-108.67-20.61-184.31-41.85-206.14-48.24,19.49,41.91,139.26,288,295.08,358.82a3.05,3.05,0,0,1-1.26,5.83Z" class="color56302a svgShape"/><path fill="#214b92" d="M873.4,1295.27h-.16c-278.74-13.71-400.09-35-401.29-35.18a3.05,3.05,0,0,1,1.07-6c1.19.21,122.25,21.41,400.52,35.09a3.05,3.05,0,0,1-.14,6.1Z" class="color56302a svgShape"/><path fill="#214b92" d="M1387.08,1306.9h-14.59c-125.51-.25-245.35-2.2-356.19-5.82a3,3,0,0,1-2.95-3.14,3,3,0,0,1,3.15-3c110.78,3.6,230.56,5.56,356,5.81,29.22.06,58.44-.06,86.86-.33h0a3.05,3.05,0,0,1,0,6.1C1435.72,1306.79,1411.44,1306.9,1387.08,1306.9Z" class="color56302a svgShape"/><path fill="#214b92" d="M1492.88,1306.16a3.05,3.05,0,0,1,0-6.1c412.78-5.91,618.71-45.57,620.74-46a3.05,3.05,0,1,1,1.18,6c-2,.4-208.51,40.17-621.83,46.08Z" class="color56302a svgShape"/><path fill="#214b92" d="M1383.23,1388.85h0c-404.54-.79-656.72-18.65-797-33.49a3,3,0,1,1,.64-6.06C727,1364.12,979,1382,1383.24,1382.75a3.05,3.05,0,0,1,0,6.1Z" class="color56302a svgShape"/><path fill="#214b92" d="M1641.9,1384.73a3.05,3.05,0,0,1-.11-6.1c191.35-6.74,325.11-20.34,403.62-30.56a3,3,0,1,1,.79,6c-78.64,10.24-212.6,23.86-404.19,30.61Z" class="color56302a svgShape"/><path fill="#214b92" d="M1345.86,1161.75a3,3,0,0,1-2.4-1.16l-59.35-75.54a3,3,0,0,1,4.79-3.77l59.36,75.54a3,3,0,0,1-2.4,4.93Z" class="color56302a svgShape"/><path fill="#214b92" d="M1601.33,1486.86a3,3,0,0,1-2.4-1.17L1356,1176.57a3.05,3.05,0,0,1,4.8-3.77l242.91,309.12a3.05,3.05,0,0,1-.52,4.29A3,3,0,0,1,1601.33,1486.86Z" class="color56302a svgShape"/><path fill="#214b92" d="M1363.89,1147a3,3,0,0,1-2.4-1.17l-49.84-63.41a3.05,3.05,0,1,1,4.8-3.77l49.83,63.41a3,3,0,0,1-2.39,4.94Z" class="color56302a svgShape"/><path fill="#214b92" d="M1630,1485.64a3.05,3.05,0,0,1-2.4-1.17l-254.45-323.81a3,3,0,0,1,4.79-3.77l254.46,323.81a3,3,0,0,1-2.4,4.94Z" class="color56302a svgShape"/><path fill="#214b92" d="M1228.54,1029.34a3,3,0,0,1-2-.76c-2.15-1.91-21.09-18.91-22.84-29.24-1.24-7.28,5.89-15.22,13-19.52,7-4.2,13.55-4.82,17.66-1.66,12.18,9.35,32.19,34.25,33,35.31a3,3,0,0,1-4.76,3.81c-.21-.25-20.39-25.38-32-34.28-2-1.5-6.29-.68-10.8,2-6.22,3.75-10.79,9.7-10.18,13.28,1,6.2,13.36,19,20.87,25.69a3,3,0,0,1-2,5.33Z" class="color56302a svgShape"/><path fill="#214b92" d="M982.25,1187.61a3,3,0,0,1-3-2.94c-.05-1.32-4.82-133.09,7.71-210.36,6.74-41.59,28.34-66.22,45.49-66.22h.34c5.44.1,18.45,3.12,21.6,28.8a3,3,0,1,1-6,.75c-1.81-14.75-7.52-23.3-15.67-23.45h-.25c-14.25,0-33.3,23.23-39.44,61.09-12.43,76.68-7.69,207.85-7.63,209.17a3.06,3.06,0,0,1-2.94,3.16Z" class="color56302a svgShape"/><path fill="#214b92" d="M966.05,1188.46h0a3.06,3.06,0,0,1-3-3.09c0-2.48,3.09-248.48-24.55-325.51-10.67-29.76-26-44.43-44.1-42.39-27.52,3.07-55.38,43.26-60.84,87.78a3.05,3.05,0,0,1-6.06-.75c5.78-47.1,36.11-89.73,66.22-93.09,12.16-1.36,34.92,2.86,50.53,46.39,28,78.07,25,317.5,24.9,327.65A3,3,0,0,1,966.05,1188.46Z" class="color56302a svgShape"/><path fill="#214b92" d="M978.27,1018.43h-.11a3.05,3.05,0,0,1-2.94-3.16c.11-3.07,11.17-308.87,53.84-418.13,27.69-70.91,64.32-90.47,89.36-85.1,27.24,5.82,44.14,38.4,42.06,81.09a3.11,3.11,0,0,1-3.2,2.89,3.05,3.05,0,0,1-2.9-3.19c1.93-39.59-13-69.66-37.24-74.83-22.6-4.82-56.1,14-82.4,81.36-42.3,108.3-53.32,413.06-53.42,416.13A3.06,3.06,0,0,1,978.27,1018.43Z" class="color56302a svgShape"/><path fill="#214b92" d="M974.69,982.67a3,3,0,0,1-3-2.87c-.19-3-18.44-305.42-38.1-420.37-7.74-45.22-32.61-63.31-52.49-61-19,2.21-38.26,24-35.6,66.73a3.05,3.05,0,1,1-6.09.38c-2.91-46.66,19.21-70.64,41-73.17,22.62-2.62,50.81,16.92,59.21,66,19.72,115.28,38,418,38.18,421a3.07,3.07,0,0,1-2.87,3.23Z" class="color56302a svgShape"/><path fill="#214b92" d="M990.19,508.58h0a3,3,0,0,1-3-3.08c.06-5.31,1.66-130.36,15.84-157.51,4.59-8.78,11.88-12.16,20-9.25,16.19,5.77,31.46,34.66,26.19,60.15a3.05,3.05,0,0,1-6-1.24c4.81-23.25-10-48.8-22.26-53.17-5.17-1.84-9.41.28-12.57,6.34-13.51,25.86-15.13,153.46-15.14,154.75A3.05,3.05,0,0,1,990.19,508.58Z" class="color56302a svgShape"/><path fill="#214b92" d="M863.63,595.17h-.89c-9.8-.39-21.25-7.45-22.68-18.21a3.05,3.05,0,0,1,6.05-.79c1,7.25,9.66,12.62,16.87,12.9,3.29.13,9.12-.7,10.62-7.74,3.6-16.92-9.75-65.88-9.89-66.37a3.05,3.05,0,0,1,5.89-1.62c.57,2.07,13.87,50.9,10,69.26C877.88,590.52,872,595.17,863.63,595.17Z" class="color56302a svgShape"/><path fill="#214b92" d="M1140,620.74c-7,0-12.12-4-13.53-10.67-3.21-15.06,8.82-58,9.33-59.8a3.05,3.05,0,0,1,5.87,1.66c-3.38,12-11.64,45.59-9.24,56.87,1.08,5,4.95,6,8.06,5.83,5.62-.22,12.41-4.38,13.15-10a3.05,3.05,0,0,1,6.05.8c-1.19,9-10.77,15-19,15.29Z" class="color56302a svgShape"/><path fill="#214b92" d="M1031,424.29c-5.59,0-9.72-3.25-10.86-8.58-2.39-11.24,6-41.61,7-45a3.05,3.05,0,1,1,5.87,1.66c-2.51,8.9-8.64,33.83-6.89,42.11.56,2.6,2.31,3.85,5.23,3.74,3.89-.15,8.61-3.09,9.1-6.79a3,3,0,0,1,6,.8c-.94,7.14-8.46,11.83-14.9,12.09Z" class="color56302a svgShape"/><path fill="#214b92" d="M843.92,933.31a14.1,14.1,0,0,1-1.81-.12c-6.38-.83-13.46-6.18-13.75-13.38a3,3,0,1,1,6.09-.25c.16,3.73,4.59,7.08,8.45,7.58,2.89.39,4.75-.72,5.54-3.26,2.5-8.09-1.37-33.46-3.07-42.56a3.05,3.05,0,1,1,6-1.12c.65,3.5,6.29,34.5,2.9,45.48A10.38,10.38,0,0,1,843.92,933.31Z" class="color56302a svgShape"/><path fill="#214b92" d="M1044,956.6a6.48,6.48,0,0,1-6.41-4.73c-1.68-5.42.8-19.42,1.32-22.17a3.05,3.05,0,1,1,6,1.12c-1.17,6.23-2.4,16.32-1.49,19.25.1.33.16.5.85.41,1.33-.17,2.54-1.28,2.57-2a3.09,3.09,0,0,1,3.17-2.92,3.05,3.05,0,0,1,2.93,3.17c-.18,4.28-4.14,7.34-7.88,7.83A7.65,7.65,0,0,1,1044,956.6Z" class="color56302a svgShape"/><path fill="#214b92" fill-rule="evenodd" d="M1671,574.85c-.6-4.33,1.81-8.09,5.67-8.63s7.19,2.43,7.8,6.76-1.82,8.1-5.67,8.63C1675.48,582.08,1671.64,579.18,1671,574.85Z" class="color56302a svgShape"/><path fill="#214b92" fill-rule="evenodd" d="M1600.33,584.68c-.6-4.33,1.82-8.1,5.67-8.63s7.2,2.43,7.8,6.76-1.81,8.1-5.67,8.63S1600.94,589,1600.33,584.68Z" class="color56302a svgShape"/><path fill="#214b92" d="M1179.52,942a3,3,0,0,1-2.59-1.43c-2.1-3.35-8.9-14.69-8.3-19.94a3.05,3.05,0,1,1,6.06.7c-.24,2.1,3.64,10,7.41,16a3.06,3.06,0,0,1-1,4.21A3.11,3.11,0,0,1,1179.52,942Z" class="color56302a svgShape"/><path fill="#214b92" d="M2274,1172.87a3,3,0,0,1-1.23-.26c-69.15-30.59-174.76-76.4-182.27-77.22-73.24-2.19-164.44,1.11-198.78,2.36-9.24.33-14.33.49-15.66.49a3.05,3.05,0,1,1,.13-6.1c1.17.06,7.09-.19,15.31-.49,34.39-1.25,125.74-4.56,199.25-2.36,8.94.27,155.25,64.81,184.49,77.74a3.05,3.05,0,0,1-1.24,5.84Z" class="color56302a svgShape"/><path fill="#214b92" d="M1616.42,1091.66h-.05c-47.85-.75-100.06-.79-158.42-.78a3.05,3.05,0,1,1,0-6.1c58.4,0,110.62,0,158.52.78a3.05,3.05,0,0,1,0,6.1Z" class="color56302a svgShape"/><path fill="#214b92" d="M1091.19,1093.71c-58.75,0-106.57-.33-107.42-.33a3.05,3.05,0,0,1,0-6.1h0c1.53,0,153.44,1.06,249.15-.6a3.17,3.17,0,0,1,3.11,3,3.07,3.07,0,0,1-3,3.11C1190.8,1093.51,1137.59,1093.71,1091.19,1093.71Z" class="color56302a svgShape"/><path fill="#214b92" d="M345.87,1116.78a3.05,3.05,0,0,1-.34-6.08c2.06-.24,206.87-23.6,298.16-25.09,69-1.11,316.5,2.35,319,2.38a3.05,3.05,0,1,1-.08,6.1c-2.5,0-249.92-3.52-318.81-2.38-91,1.48-295.51,24.81-297.56,25Z" class="color56302a svgShape"/><path fill="#214b92" d="M1342,1118.25a3,3,0,0,1-.78-.1,3.05,3.05,0,0,1-2.17-3.73,48.07,48.07,0,0,1,9.16-17.2,3,3,0,0,1,4.61,4A42.24,42.24,0,0,0,1345,1116,3.06,3.06,0,0,1,1342,1118.25Z" class="color56302a svgShape"/><path fill="#214b92" d="M1620.18,1121.5a3.23,3.23,0,0,1-.61-.06c-56.9-11.52-127.41-21.2-176.54-27.29a3.05,3.05,0,0,1,.76-6.06c49.23,6.11,119.9,15.81,177,27.37a3,3,0,0,1-.6,6Z" class="color56302a svgShape"/><path fill="#214b92" d="M1427.83,1183.72a3.05,3.05,0,0,1,0-6.1c179-1.48,344.88-8.75,452.47-14.6,189.72-10.31,324.13-9.15,325.47-9.13a3.05,3.05,0,0,1,0,6.1h0c-1.33,0-135.56-1.18-325.08,9.12-107.66,5.85-273.6,13.13-452.76,14.61Z" class="color56302a svgShape"/><path fill="#214b92" d="M1395.24,1183.93a3.05,3.05,0,0,1,0-6.1l14.1-.09h0a3.05,3.05,0,0,1,0,6.1l-14.1.09Z" class="color56302a svgShape"/><path fill="#214b92" d="M1355,1184a3.05,3.05,0,0,1,0-6.1l7.28,0h0a3,3,0,1,1,0,6.1l-7.27,0Z" class="color56302a svgShape"/><path fill="#214b92" d="M994.56,1190c-80.37,0-157.77-2.59-226.25-11.19-52.52-6.61-105.62-15-157.83-24.87-49.5-9.38-97.32-19.94-142.12-31.38a3,3,0,0,1,1.51-5.91c44.68,11.4,92.37,21.94,141.75,31.3,52.08,9.87,105,18.21,157.45,24.8,120,15.1,268,11.58,411,8.19,52.11-1.24,106-2.52,158-2.89h0a3.05,3.05,0,0,1,0,6.1c-51.94.37-105.81,1.65-157.9,2.89C1118.37,1188.47,1055.6,1190,994.56,1190Z" class="color56302a svgShape"/><path fill="#214b92" d="M2266.29,1171.42a2.9,2.9,0,0,1-.58-.05l-58.93-11.46a2.28,2.28,0,0,1-.58-.17c-113.48-47-128-51.24-129.8-51.42-67.94-2-153.48,1.73-185.68,3.15-9.45.42-13.71.58-14.89.58a3.05,3.05,0,0,1-3-3.12,3.16,3.16,0,0,1,3.11-3c1,0,6.7-.23,14.49-.57,32.27-1.42,118-5.19,186.19-3.16,1.77.06,7.14.22,131.61,51.76l58.62,11.4a3,3,0,0,1-.58,6Z" class="color56302a svgShape"/><path fill="#214b92" d="M1617.49,1105.43h0c-26.21-.41-55-.62-93.28-.7a3.05,3.05,0,0,1,0-6.1h0c38.33.08,67.12.29,93.36.7a3.05,3.05,0,0,1,0,6.1Z" class="color56302a svgShape"/><path fill="#214b92" d="M1153.63,1107.79c-54.75,0-113.92-.16-169.66-.63a3.05,3.05,0,0,1,0-6.1h0c101.48.86,214.33.69,291.14.39h0a3.05,3.05,0,0,1,0,6.1C1240.55,1107.68,1198.57,1107.79,1153.63,1107.79Z" class="color56302a svgShape"/><path fill="#214b92" d="M1290.86,1107.47a3.05,3.05,0,1,1,0-6.1l10.77-.06h0a3.06,3.06,0,0,1,0,6.11l-10.77,0Z" class="color56302a svgShape"/><path fill="#214b92" d="M1335.82,1107.24a3.05,3.05,0,0,1,0-6.1l10.72-.06h0a3.05,3.05,0,0,1,0,6.1l-10.72.06Z" class="color56302a svgShape"/><path fill="#214b92" d="M468.94,1122.85a3,3,0,0,1-.32-6.08c58.26-6.08,164.59-16.42,222.15-17.35,51.35-.83,208,1,273,1.89a3.05,3.05,0,0,1,0,6.1h0c-65-.85-221.55-2.73-272.82-1.89-57.33.93-163.45,11.25-221.61,17.31A1.77,1.77,0,0,1,468.94,1122.85Z" class="color56302a svgShape"/><path fill="#214b92" d="M1508.44,447.54a3,3,0,0,1-1.24-.26,3,3,0,0,1-1.55-4c.75-1.69,18.84-41.39,66.39-55.21a3.05,3.05,0,0,1,1.71,5.86c-44.76,13-62.35,51.44-62.52,51.82A3.06,3.06,0,0,1,1508.44,447.54Z" class="color56302a svgShape"/><path fill="#214b92" d="M1523.05,436.41a3,3,0,0,1-1.83-.61l-16.65-12.47a3.05,3.05,0,1,1,3.66-4.88l16.65,12.46a3.06,3.06,0,0,1-1.83,5.5Z" class="color56302a svgShape"/><path fill="#214b92" d="M1541.17,417.44a3,3,0,0,1-2.37-1.13l-14.24-17.63a3,3,0,1,1,4.74-3.83l14.24,17.62a3,3,0,0,1-2.37,5Z" class="color56302a svgShape"/><path fill="#214b92" d="M1563.89,404.31a3,3,0,0,1-2.66-1.55l-13.73-24.45a3.05,3.05,0,0,1,5.32-3l13.72,24.45a3,3,0,0,1-1.16,4.15A3,3,0,0,1,1563.89,404.31Z" class="color56302a svgShape"/></svg>