<svg width="42" height="63" viewBox="0 0 42 63" fill="none" xmlns="http://www.w3.org/2000/svg">
<path d="M35.6269 51.8629H25.8524C22.8385 48.8093 21.1435 44.851 21.1435 40.6541C21.1435 32.4893 25.609 26.1242 32.4822 24.0626L27.0325 20.9606L19.6308 25.1739C17.3239 28.1635 15.8974 31.8386 15.5096 35.8231C14.7726 43.0726 20.2727 49.2389 23.0596 51.8629H20.3319C17.193 48.5271 12.8788 42.5887 13.5876 35.6321C14.0046 31.346 15.5367 27.378 18.0065 24.1237L19.75 15.6699L13.767 10.2163C7.30496 13.7062 4.37453 23.5787 6.64556 34.578C8.19029 42.0262 12.0633 48.4456 17.0427 51.8629H6.37308L0.273682 62.5838H41.7263L35.6269 51.8629ZM13.1493 60.6367L10.9307 59.3741L8.71198 60.6367L9.22786 58.1368L7.3418 56.4175L9.87853 56.1353L10.9307 53.81L11.9828 56.1353L14.5195 56.4175L12.6334 58.1368L13.1493 60.6367ZM23.4524 60.6367L21.2347 59.3741L19.016 60.6367L19.5319 58.1368L17.6448 56.4175L20.1825 56.1353L21.2347 53.81L22.2868 56.1353L24.8235 56.4175L22.9365 58.1368L23.4524 60.6367ZM33.288 60.6367L31.0693 59.3741L28.8516 60.6367L29.3665 58.1368L27.4805 56.4175L30.0172 56.1353L31.0693 53.81L32.1224 56.1353L34.6582 56.4175L32.7721 58.1368L33.288 60.6367Z" fill="url(#paint0_linear_7291_999)"/>
<path d="M23.2914 8.96963L16.1399 9.76478L21.4587 14.6123C21.7108 14.8421 21.8223 15.1883 21.7535 15.5219L20.2999 22.5696L26.5544 19.0099C26.6999 18.9268 26.8645 18.8831 27.032 18.8831C27.1995 18.8831 27.3641 18.9268 27.5096 19.0099L33.7641 22.5687L32.3096 15.5219C32.2758 15.3576 32.2853 15.1874 32.3371 15.0279C32.389 14.8685 32.4814 14.7252 32.6053 14.6123L37.9241 9.76478L30.7716 8.96963C30.6051 8.95099 30.4463 8.88933 30.3108 8.79072C30.1753 8.69211 30.0678 8.55994 29.9988 8.4072L27.0315 1.85205L24.0643 8.4072C23.9953 8.55994 23.8878 8.69211 23.7523 8.79072C23.6168 8.88933 23.458 8.95099 23.2914 8.96963Z" fill="url(#paint1_linear_7291_999)"/>
<path d="M13.5014 8.16271C13.5091 8.1598 13.5169 8.16077 13.5246 8.15689C13.6134 8.11779 13.7075 8.09229 13.8039 8.08126L13.8708 8.0735H13.8747L22.5312 7.10962L25.512 0.523438C22.4846 0.670831 15.3273 1.59883 10.4614 6.91665C8.04293 9.55907 6.48948 12.9423 5.79614 17.0209C7.40972 12.9385 10.0337 9.78598 13.5014 8.16271Z" fill="url(#paint2_linear_7291_999)"/>
<defs>
<linearGradient id="paint0_linear_7291_999" x1="21" y1="10.2163" x2="21" y2="62.5838" gradientUnits="userSpaceOnUse">
<stop stop-color="#214b92"/>
<stop offset="1" stop-color="#005A64"/>
</linearGradient>
<linearGradient id="paint1_linear_7291_999" x1="27.032" y1="1.85205" x2="27.032" y2="22.5696" gradientUnits="userSpaceOnUse">
<stop stop-color="#214b92"/>
<stop offset="1" stop-color="#005A64"/>
</linearGradient>
<linearGradient id="paint2_linear_7291_999" x1="15.6541" y1="0.523437" x2="15.6541" y2="17.0209" gradientUnits="userSpaceOnUse">
<stop stop-color="#214b92"/>
<stop offset="1" stop-color="#005A64"/>
</linearGradient>
</defs>
</svg>
