<svg width="64" height="65" viewBox="0 0 64 65" fill="none" xmlns="http://www.w3.org/2000/svg">
<path d="M7.42997 57.5068C8.69497 57.6068 9.92997 57.6518 11.105 57.6518C12.28 57.6518 13.53 57.6018 14.685 57.5068H56.5C56.6345 57.5066 56.7665 57.4702 56.8821 57.4014C56.9977 57.3326 57.0927 57.234 57.1571 57.1159C57.2216 56.9978 57.253 56.8646 57.2482 56.7301C57.2435 56.5957 57.2026 56.465 57.13 56.3518C56.86 55.9318 50.405 46.0168 42.085 47.3518C39.36 47.8218 36.5 49.0718 33.215 50.5268L32 51.0618L30.79 50.5318C28.6854 49.545 26.5251 48.6819 24.32 47.9468C28.635 35.0518 27.73 25.9118 27.085 22.4018L36.305 26.9468C36.4081 26.9958 36.5208 27.0214 36.635 27.0218C36.7367 27.0226 36.8375 27.0026 36.9312 26.963C37.0249 26.9234 37.1094 26.865 37.1797 26.7915C37.25 26.7179 37.3044 26.6308 37.3397 26.5354C37.375 26.44 37.3904 26.3384 37.385 26.2368C37.3134 24.6531 36.8182 23.1177 35.951 21.7906C35.0839 20.4635 33.8766 19.3933 32.455 18.6918C32.3 18.6168 32.135 18.5468 31.955 18.4768L37.765 16.8218C37.8903 16.7859 38.0041 16.7179 38.0952 16.6245C38.1862 16.5312 38.2514 16.4157 38.2842 16.2895C38.317 16.1633 38.3164 16.0308 38.2823 15.9049C38.2482 15.779 38.1819 15.6642 38.09 15.5718C36.9752 14.4451 35.5785 13.6382 34.0455 13.2354C32.5126 12.8326 30.8996 12.8486 29.375 13.2818C29.13 13.3518 28.875 13.4418 28.66 13.5268L31.735 8.10179C31.799 7.98989 31.8327 7.86321 31.8327 7.73429C31.8327 7.60537 31.799 7.47868 31.735 7.36679C31.6709 7.25366 31.5789 7.15886 31.4677 7.09145C31.3565 7.02404 31.2299 6.98629 31.1 6.98179C29.515 6.93829 27.9475 7.32138 26.5613 8.09101C25.1751 8.86064 24.0211 9.98854 23.22 11.3568C22.9749 11.7792 22.7642 12.2206 22.59 12.6768C22.2227 12.3597 21.8297 12.0737 21.415 11.8218C20.0644 10.9963 18.5174 10.5475 16.9347 10.522C15.3521 10.4965 13.7915 10.8953 12.415 11.6768C12.3001 11.7419 12.2039 11.8354 12.1357 11.9483C12.0674 12.0613 12.0292 12.1899 12.025 12.3218C12.0239 12.4525 12.057 12.5813 12.121 12.6953C12.185 12.8094 12.2777 12.9047 12.39 12.9718L17.665 16.1518C17.43 16.1518 17.2 16.2118 16.965 16.2568C15.4087 16.5625 13.963 17.2806 12.7791 18.3361C11.5953 19.3916 10.7166 20.7456 10.235 22.2568C10.1936 22.3801 10.1857 22.5122 10.212 22.6396C10.2384 22.7669 10.2981 22.885 10.385 22.9818C10.4555 23.0621 10.5424 23.1264 10.6399 23.1704C10.7373 23.2144 10.8431 23.237 10.95 23.2368C10.9965 23.2417 11.0434 23.2417 11.09 23.2368L17.035 22.0718C16.9116 22.2185 16.7916 22.3685 16.675 22.5218C15.7319 23.795 15.1472 25.2977 14.9819 26.8735C14.8166 28.4493 15.0766 30.0406 15.735 31.4818C15.7892 31.6007 15.8735 31.7034 15.9796 31.7797C16.0857 31.856 16.21 31.9033 16.34 31.9168H16.42C16.537 31.9174 16.6526 31.8901 16.7569 31.837C16.8613 31.784 16.9515 31.7067 17.02 31.6118L22.58 24.1118C23.0574 32.0613 21.7327 40.016 18.705 47.3818C12 48.4868 7.09497 55.9868 6.85997 56.3518C6.78701 56.4619 6.74552 56.5898 6.73997 56.7218C6.73152 56.9164 6.7986 57.1067 6.92718 57.253C7.05577 57.3993 7.23591 57.4902 7.42997 57.5068ZM33.82 51.9018C37.025 50.4818 39.82 49.2568 42.32 48.8468C48.085 47.9118 53.11 53.5118 55.03 56.0068H23C26.7049 54.9129 30.3218 53.5406 33.82 51.9018ZM35.705 24.9768L25.59 19.9768C25.5922 19.9452 25.5922 19.9134 25.59 19.8818C26.5806 19.4448 27.6556 19.2326 28.7379 19.2603C29.8202 19.288 30.883 19.555 31.85 20.042C32.8169 20.5291 33.664 21.2241 34.3305 22.0773C34.997 22.9305 35.4664 23.9207 35.705 24.9768ZM29.785 14.7318C30.8335 14.436 31.9345 14.3758 33.009 14.5556C34.0835 14.7354 35.1049 15.1507 36 15.7718L28.905 17.7718C27.6666 17.7226 26.4316 17.9339 25.28 18.3918C25.7569 17.4739 26.4232 16.6678 27.235 16.0268C27.9908 15.4304 28.8576 14.9902 29.785 14.7318ZM24.5 12.1218C25.0556 11.1771 25.8154 10.3685 26.7238 9.75511C27.6321 9.14176 28.666 8.73917 29.75 8.57679L26.08 15.0768C25.1772 15.8357 24.4373 16.7694 23.905 17.8218L23.75 17.7068C23.5017 16.7723 23.4402 15.7979 23.5689 14.8396C23.6976 13.8813 24.014 12.9577 24.5 12.1218ZM20.62 13.1218C21.1705 13.466 21.6746 13.8794 22.12 14.3518C21.981 15.1592 21.954 15.982 22.04 16.7968C21.7008 16.649 21.3536 16.5204 21 16.4118L14.38 12.4118C15.409 12.059 16.5033 11.9379 17.5846 12.0572C18.6659 12.1765 19.7075 12.5332 20.635 13.1018L20.62 13.1218ZM17.24 17.7518C19.0335 17.4052 20.8918 17.7366 22.455 18.6818C22.495 18.7968 22.535 18.9168 22.58 19.0318C21.4585 19.1825 20.3768 19.5492 19.395 20.1118L12.185 21.4768C12.7003 20.5163 13.4223 19.6821 14.2991 19.0345C15.1758 18.3869 16.1854 17.9419 17.255 17.7318L17.24 17.7518ZM16.64 29.5968C16.3721 28.549 16.339 27.4549 16.5432 26.3929C16.7473 25.3308 17.1837 24.327 17.821 23.4532C18.4583 22.5795 19.2808 21.8573 20.2297 21.3384C21.1786 20.8196 22.2304 20.5168 23.31 20.4518L23.375 20.5268L16.64 29.5968ZM23.92 22.3218L24.72 21.2468L25.37 21.5668C25.805 23.3868 27.705 33.1668 22.87 47.5668C22.545 47.4918 22.225 47.4268 21.905 47.3768C21.4009 47.2936 20.8909 47.2518 20.38 47.2518C25.27 34.9818 24.18 24.2868 23.92 22.3218ZM21.665 48.8468C24.19 49.2568 26.94 50.4668 30.12 51.8768C25.79 53.7068 20.745 55.4968 14.58 56.0068H8.95497C10.88 53.5118 15.9 47.9118 21.665 48.8468ZM50.935 34.9518C50.935 34.0341 50.6628 33.137 50.153 32.3739C49.6431 31.6109 48.9185 31.0162 48.0706 30.665C47.2228 30.3138 46.2898 30.2219 45.3898 30.4009C44.4897 30.58 43.6629 31.0219 43.014 31.6708C42.3651 32.3197 41.9232 33.1465 41.7441 34.0466C41.5651 34.9466 41.657 35.8796 42.0082 36.7274C42.3594 37.5753 42.9541 38.3 43.7171 38.8098C44.4802 39.3197 45.3773 39.5918 46.295 39.5918C46.9043 39.5918 47.5077 39.4718 48.0706 39.2386C48.6336 39.0054 49.1451 38.6636 49.5759 38.2328C50.0068 37.8019 50.3486 37.2904 50.5818 36.7274C50.815 36.1645 50.935 35.5611 50.935 34.9518ZM46.295 38.0918C45.6739 38.0918 45.0668 37.9076 44.5505 37.5626C44.0341 37.2176 43.6316 36.7272 43.394 36.1534C43.1563 35.5797 43.0941 34.9483 43.2153 34.3392C43.3365 33.7301 43.6355 33.1706 44.0747 32.7315C44.5138 32.2923 45.0733 31.9933 45.6824 31.8721C46.2915 31.751 46.9228 31.8131 47.4966 32.0508C48.0704 32.2885 48.5608 32.6909 48.9058 33.2073C49.2508 33.7237 49.435 34.3308 49.435 34.9518C49.435 35.7846 49.1041 36.5832 48.5153 37.1721C47.9264 37.761 47.1277 38.0918 46.295 38.0918ZM47.045 28.4368H45.545V24.7418H47.045V28.4368ZM45.545 41.4718H47.045V45.1668H45.545V41.4718ZM56.5 35.7018H52.8V34.2018H56.5V35.7018ZM36.07 34.2018H39.77V35.7018H36.07V34.2018ZM51.425 30.8768L50.375 29.8218L53 27.2018L54.065 28.2618L51.425 30.8768ZM39.605 42.7068L38.545 41.6468L41.155 39.0318L42.22 40.0918L39.605 42.7068ZM52.985 42.7068L50.375 40.0918L51.435 39.0318L54.05 41.6468L52.985 42.7068ZM41.155 30.8768L38.545 28.2618L39.605 27.2018L42.22 29.8218L41.155 30.8768Z" fill="url(#paint0_linear_75_2851)"/>
<defs>
<linearGradient id="paint0_linear_75_2851" x1="31.994" y1="6.97845" x2="31.994" y2="57.6518" gradientUnits="userSpaceOnUse">
<stop stop-color="#006980"/>
<stop offset="1" stop-color="#005A64"/>
</linearGradient>
</defs>
</svg>
