<svg width="65" height="65" viewBox="0 0 65 65" fill="none" xmlns="http://www.w3.org/2000/svg">
<path d="M38.9334 27.8018L59.7634 9.32175C60.711 9.23577 61.5968 8.81485 62.262 8.13456C62.9271 7.45426 63.328 6.55915 63.3927 5.60992C63.4573 4.66068 63.1815 3.71948 62.6147 2.95528C62.0479 2.19109 61.2273 1.65395 60.3002 1.44028C59.3731 1.22662 58.4001 1.35044 57.556 1.7895C56.712 2.22856 56.052 2.95411 55.6947 3.8359C55.3374 4.71769 55.3061 5.69798 55.6064 6.60077C55.9068 7.50356 56.5191 8.26974 57.3334 8.76175L37.5934 26.3218C36.4004 25.2637 34.9155 24.591 33.3334 24.3918V13.2318C34.8168 12.981 36.1519 12.1822 37.0741 10.9935C37.9962 9.80481 38.4382 8.31308 38.3124 6.81391C38.1866 5.31474 37.5022 3.91754 36.3948 2.89919C35.2874 1.88085 33.8378 1.31567 32.3334 1.31567C30.829 1.31567 29.3794 1.88085 28.272 2.89919C27.1646 3.91754 26.4802 5.31474 26.3544 6.81391C26.2286 8.31308 26.6706 9.80481 27.5928 10.9935C28.5149 12.1822 29.85 12.981 31.3334 13.2318V24.3918C30.0693 24.5485 28.8617 25.0082 27.8134 25.7318L9.33341 4.89175C9.24743 3.94421 8.82651 3.05834 8.14621 2.39318C7.46592 1.72802 6.57081 1.32713 5.62157 1.26248C4.67233 1.19784 3.73113 1.47366 2.96694 2.04044C2.20275 2.60722 1.6656 3.42784 1.45194 4.35497C1.23828 5.28211 1.36209 6.25505 1.80115 7.09912C2.24021 7.94319 2.96577 8.60312 3.84756 8.96044C4.72935 9.31776 5.70963 9.34906 6.61243 9.04873C7.51522 8.74839 8.28139 8.13609 8.77341 7.32175L26.3334 27.0618C25.2754 28.2548 24.6026 29.7397 24.4034 31.3218H13.2434C12.9927 29.8384 12.1938 28.5033 11.0051 27.5811C9.81647 26.6589 8.32474 26.217 6.82557 26.3428C5.3264 26.4686 3.9292 27.153 2.91085 28.2604C1.8925 29.3678 1.32733 30.8173 1.32733 32.3218C1.32733 33.8262 1.8925 35.2757 2.91085 36.3831C3.9292 37.4905 5.3264 38.1749 6.82557 38.3007C8.32474 38.4265 9.81647 37.9846 11.0051 37.0624C12.1938 36.1402 12.9927 34.8051 13.2434 33.3218H24.4034C24.5566 34.5867 25.0166 35.7951 25.7434 36.8418L4.90341 55.3218C3.95587 55.4077 3.07 55.8287 2.40484 56.5089C1.73968 57.1892 1.33879 58.0844 1.27414 59.0336C1.20949 59.9828 1.48532 60.924 2.0521 61.6882C2.61888 62.4524 3.43949 62.9896 4.36663 63.2032C5.29377 63.4169 6.2667 63.2931 7.11078 62.854C7.95485 62.4149 8.61478 61.6894 8.9721 60.8076C9.32942 59.9258 9.36072 58.9455 9.06038 58.0427C8.76005 57.1399 8.14775 56.3738 7.33341 55.8818L27.0734 38.3218C28.2664 39.3798 29.7513 40.0525 31.3334 40.2518V51.4118C29.85 51.6625 28.5149 52.4614 27.5928 53.65C26.6706 54.8387 26.2286 56.3304 26.3544 57.8296C26.4802 59.3288 27.1646 60.726 28.272 61.7443C29.3794 62.7627 30.829 63.3278 32.3334 63.3278C33.8378 63.3278 35.2874 62.7627 36.3948 61.7443C37.5022 60.726 38.1866 59.3288 38.3124 57.8296C38.4382 56.3304 37.9962 54.8387 37.0741 53.65C36.1519 52.4614 34.8168 51.6625 33.3334 51.4118V40.2518C34.5958 40.0946 35.8025 39.6386 36.8534 38.9217L55.3334 59.7518C55.4194 60.6993 55.8403 61.5852 56.5206 62.2503C57.2009 62.9155 58.096 63.3164 59.0452 63.381C59.9945 63.4457 60.9357 63.1698 61.6999 62.6031C62.4641 62.0363 63.0012 61.2157 63.2149 60.2885C63.4285 59.3614 63.3047 58.3885 62.8657 57.5444C62.4266 56.7003 61.7011 56.0404 60.8193 55.6831C59.9375 55.3257 58.9572 55.2944 58.0544 55.5948C57.1516 55.8951 56.3854 56.5074 55.8934 57.3218L38.3334 37.5817C39.3914 36.3887 40.0642 34.9038 40.2634 33.3218H51.4234C51.6741 34.8051 52.473 36.1402 53.6617 37.0624C54.8503 37.9846 56.3421 38.4265 57.8412 38.3007C59.3404 38.1749 60.7376 37.4905 61.756 36.3831C62.7743 35.2757 63.3395 33.8262 63.3395 32.3218C63.3395 30.8173 62.7743 29.3678 61.756 28.2604C60.7376 27.153 59.3404 26.4686 57.8412 26.3428C56.3421 26.217 54.8503 26.6589 53.6617 27.5811C52.473 28.5033 51.6741 29.8384 51.4234 31.3218H40.2634C40.1063 30.0594 39.6503 28.8526 38.9334 27.8018ZM7.33341 36.3218C6.54228 36.3218 5.76892 36.0872 5.11113 35.6476C4.45333 35.2081 3.94064 34.5834 3.63789 33.8525C3.33514 33.1216 3.25593 32.3173 3.41027 31.5414C3.56461 30.7655 3.94557 30.0527 4.50498 29.4933C5.06439 28.9339 5.77712 28.5529 6.55305 28.3986C7.32897 28.2443 8.13324 28.3235 8.86414 28.6262C9.59505 28.929 10.2198 29.4417 10.6593 30.0995C11.0988 30.7573 11.3334 31.5306 11.3334 32.3218C11.3334 33.3826 10.912 34.4 10.1618 35.1502C9.41169 35.9003 8.39428 36.3218 7.33341 36.3218ZM57.3334 28.3218C58.1245 28.3218 58.8979 28.5563 59.5557 28.9959C60.2135 29.4354 60.7262 30.0601 61.0289 30.791C61.3317 31.5219 61.4109 32.3262 61.2565 33.1021C61.1022 33.878 60.7212 34.5908 60.1618 35.1502C59.6024 35.7096 58.8897 36.0905 58.1138 36.2449C57.3378 36.3992 56.5336 36.32 55.8027 36.0173C55.0718 35.7145 54.4471 35.2018 54.0075 34.544C53.568 33.8862 53.3334 33.1129 53.3334 32.3218C53.3334 31.2609 53.7548 30.2435 54.505 29.4933C55.2551 28.7432 56.2725 28.3218 57.3334 28.3218ZM59.3334 3.32175C59.729 3.32175 60.1157 3.43905 60.4445 3.65881C60.7734 3.87858 61.0298 4.19093 61.1812 4.55638C61.3325 4.92184 61.3722 5.32397 61.295 5.71193C61.2178 6.09989 61.0273 6.45626 60.7476 6.73597C60.4679 7.01567 60.1116 7.20615 59.7236 7.28332C59.3356 7.36049 58.9335 7.32089 58.568 7.16951C58.2026 7.01814 57.8902 6.76179 57.6705 6.43289C57.4507 6.10399 57.3334 5.71731 57.3334 5.32175C57.3334 4.79132 57.5441 4.28261 57.9192 3.90754C58.2943 3.53247 58.803 3.32175 59.3334 3.32175ZM28.3334 7.32175C28.3334 6.53063 28.568 5.75727 29.0075 5.09947C29.4471 4.44167 30.0718 3.92898 30.8027 3.62623C31.5336 3.32348 32.3378 3.24427 33.1138 3.39861C33.8897 3.55295 34.6024 3.93391 35.1618 4.49332C35.7212 5.05273 36.1022 5.76547 36.2565 6.54139C36.4109 7.31731 36.3317 8.12158 36.0289 8.85249C35.7262 9.58339 35.2135 10.2081 34.5557 10.6476C33.8979 11.0872 33.1245 11.3218 32.3334 11.3218C31.2725 11.3218 30.2551 10.9003 29.505 10.1502C28.7548 9.40003 28.3334 8.38262 28.3334 7.32175ZM5.33341 7.32175C4.93785 7.32175 4.55117 7.20445 4.22227 6.98469C3.89337 6.76493 3.63703 6.45257 3.48565 6.08712C3.33428 5.72167 3.29467 5.31953 3.37184 4.93157C3.44901 4.54361 3.63949 4.18724 3.9192 3.90754C4.1989 3.62783 4.55527 3.43735 4.94323 3.36018C5.33119 3.28301 5.73332 3.32262 6.09878 3.47399C6.46423 3.62537 6.77659 3.88171 6.99635 4.21061C7.21611 4.53951 7.33341 4.92619 7.33341 5.32175C7.33341 5.85218 7.1227 6.36089 6.74762 6.73597C6.37255 7.11104 5.86384 7.32175 5.33341 7.32175ZM5.33341 61.3218C4.93785 61.3218 4.55117 61.2045 4.22227 60.9847C3.89337 60.7649 3.63703 60.4526 3.48565 60.0871C3.33428 59.7217 3.29467 59.3195 3.37184 58.9316C3.44901 58.5436 3.63949 58.1872 3.9192 57.9075C4.1989 57.6278 4.55527 57.4374 4.94323 57.3602C5.33119 57.283 5.73332 57.3226 6.09878 57.474C6.46423 57.6254 6.77659 57.8817 6.99635 58.2106C7.21611 58.5395 7.33341 58.9262 7.33341 59.3218C7.33341 59.8522 7.1227 60.3609 6.74762 60.736C6.37255 61.111 5.86384 61.3218 5.33341 61.3218ZM26.3334 32.3218C26.3334 31.1351 26.6853 29.975 27.3446 28.9883C28.0039 28.0016 28.941 27.2326 30.0373 26.7785C31.1337 26.3243 32.3401 26.2055 33.504 26.437C34.6678 26.6686 35.7369 27.24 36.576 28.0791C37.4152 28.9182 37.9866 29.9873 38.2181 31.1512C38.4496 32.3151 38.3308 33.5215 37.8767 34.6179C37.4226 35.7142 36.6535 36.6513 35.6668 37.3106C34.6801 37.9699 33.5201 38.3218 32.3334 38.3218C30.7421 38.3218 29.216 37.6896 28.0908 36.5644C26.9655 35.4392 26.3334 33.913 26.3334 32.3218ZM36.3334 57.3218C36.3334 58.1129 36.0988 58.8862 35.6593 59.544C35.2198 60.2018 34.595 60.7145 33.8641 61.0173C33.1332 61.32 32.329 61.3992 31.553 61.2449C30.7771 61.0905 30.0644 60.7096 29.505 60.1502C28.9456 59.5908 28.5646 58.878 28.4103 58.1021C28.2559 57.3262 28.3351 56.5219 28.6379 55.791C28.9406 55.0601 29.4533 54.4354 30.1111 53.9959C30.7689 53.5563 31.5423 53.3218 32.3334 53.3218C33.3943 53.3218 34.4117 53.7432 35.1618 54.4933C35.912 55.2435 36.3334 56.2609 36.3334 57.3218ZM59.3334 57.3218C59.729 57.3218 60.1157 57.439 60.4445 57.6588C60.7734 57.8786 61.0298 58.1909 61.1812 58.5564C61.3325 58.9218 61.3722 59.324 61.295 59.7119C61.2178 60.0999 61.0273 60.4563 60.7476 60.736C60.4679 61.0157 60.1116 61.2062 59.7236 61.2833C59.3356 61.3605 58.9335 61.3209 58.568 61.1695C58.2026 61.0181 57.8902 60.7618 57.6705 60.4329C57.4507 60.104 57.3334 59.7173 57.3334 59.3218C57.3334 58.7913 57.5441 58.2826 57.9192 57.9075C58.2943 57.5325 58.803 57.3218 59.3334 57.3218Z" fill="url(#paint0_linear_75_2881)"/>
<defs>
<linearGradient id="paint0_linear_75_2881" x1="32.3334" y1="1.25323" x2="32.3334" y2="63.3903" gradientUnits="userSpaceOnUse">
<stop stop-color="#006980"/>
<stop offset="1" stop-color="#005A64"/>
</linearGradient>
</defs>
</svg>
