<svg width="65" height="65" viewBox="0 0 65 65" fill="none" xmlns="http://www.w3.org/2000/svg">
<path d="M63.2967 30.5868L55.4805 12.098C55.4032 11.9139 55.2902 11.7469 55.148 11.6068C55.0057 11.4667 54.837 11.3562 54.6517 11.2818C54.2742 11.1293 53.8617 11.1318 53.488 11.2893L49.7705 12.8605C49.3967 13.018 49.1067 13.313 48.9542 13.6905C48.8017 14.068 48.8042 14.4805 48.9617 14.8543L49.218 15.4593C45.8142 16.7343 42.593 15.9705 39.7305 15.293C37.0542 14.658 34.5255 14.0593 32.288 15.1955C32.2642 15.208 32.2405 15.2218 32.2167 15.2368C30.9817 16.043 29.9655 16.8505 29.1017 17.5818C28.1767 16.9843 26.878 17.1055 25.418 17.2418C23.338 17.4355 20.7842 17.673 18.323 15.9743L18.5705 15.5643C18.7805 15.2168 18.8417 14.8093 18.7442 14.413C18.6467 14.018 18.4017 13.6855 18.0542 13.4755L14.5992 11.3893C14.2517 11.1793 13.843 11.118 13.448 11.2155C13.053 11.313 12.7205 11.558 12.5105 11.9055L2.13546 29.088C1.92546 29.4355 1.86421 29.8443 1.96171 30.2393C2.05921 30.6343 2.30421 30.9668 2.65171 31.1768L6.10671 33.263C6.34671 33.408 6.61546 33.4818 6.88921 33.4818C7.01171 33.4818 7.13546 33.4668 7.25796 33.4368C7.65296 33.3393 7.98546 33.0943 8.19546 32.7468L8.96171 31.4768C11.3405 31.9655 12.838 33.1518 13.3205 33.828L11.6767 35.6968C11.0292 36.4343 10.7067 37.383 10.7705 38.368C10.8342 39.353 11.2755 40.253 12.013 40.9005C12.6847 41.492 13.5492 41.8178 14.4442 41.8168C14.7192 41.8168 14.993 41.7855 15.2605 41.7255C15.2055 42.813 15.6267 43.9143 16.5067 44.6868C17.1767 45.2774 18.0398 45.6024 18.933 45.6005C19.0142 45.6005 19.0955 45.598 19.178 45.593C19.348 45.5818 19.5155 45.5593 19.6792 45.5255C19.668 45.693 19.6667 45.8618 19.6767 46.0318C19.7405 47.0168 20.1817 47.9155 20.9192 48.5643C21.5909 49.1557 22.4555 49.4815 23.3505 49.4805C23.6067 49.4805 23.863 49.4543 24.113 49.4018C24.0417 50.5055 24.463 51.6293 25.3555 52.4143C26.0255 53.0049 26.8885 53.3299 27.7817 53.328C27.863 53.328 27.9442 53.3255 28.0267 53.3205C28.8517 53.2668 29.6167 52.948 30.2242 52.413L30.458 52.603C31.1817 53.1918 32.0467 53.4805 32.898 53.4805C33.9205 53.4805 34.923 53.0643 35.6392 52.2493C36.2217 51.5868 36.523 50.7718 36.5517 49.9518C37.0392 50.183 37.5742 50.3043 38.1255 50.3043C38.2067 50.3043 38.288 50.3018 38.3705 50.2968C39.3555 50.233 40.2555 49.7918 40.903 49.0543C41.4755 48.403 41.7917 47.588 41.8155 46.728C42.2842 46.9393 42.7955 47.0505 43.3217 47.0505C43.403 47.0505 43.4842 47.048 43.5667 47.043C44.5517 46.9793 45.4505 46.538 46.0992 45.8005C46.6974 45.1211 47.0233 44.2445 47.0142 43.3393C47.4017 43.4755 47.813 43.5468 48.233 43.5468C48.3142 43.5468 48.3955 43.5443 48.478 43.5393C49.463 43.4755 50.3617 43.0343 51.0105 42.2968C52.2192 40.9218 52.2167 38.8918 51.088 37.5205C53.0455 36.508 53.6492 35.5405 54.1892 34.6743C54.6567 33.9243 55.038 33.3143 56.513 32.7155L56.7805 33.3468C57.0255 33.9268 57.5905 34.2755 58.183 34.2755C58.3805 34.2755 58.5805 34.2368 58.773 34.1555L62.4905 32.5843C62.6748 32.507 62.8419 32.3938 62.982 32.2513C63.1221 32.1088 63.2325 31.9399 63.3067 31.7543C63.458 31.3743 63.4542 30.9605 63.2967 30.5868ZM6.90921 31.9705C6.90421 31.9793 6.88921 31.983 6.88046 31.978L3.42546 29.8918C3.41671 29.8868 3.41296 29.8718 3.41796 29.863L13.7942 12.6793C13.798 12.673 13.8055 12.6693 13.813 12.6693C13.8167 12.6693 13.8192 12.6705 13.823 12.6718L17.278 14.758C17.2867 14.763 17.2905 14.778 17.2855 14.7868L6.90921 31.9705ZM16.0892 39.573C15.293 40.4793 13.908 40.568 13.003 39.7718C12.5667 39.388 12.3055 38.8555 12.268 38.2693C12.2305 37.6843 12.4205 37.1218 12.8042 36.6855L15.9242 33.1355C16.3555 32.6443 16.9605 32.393 17.568 32.393C18.0805 32.393 18.5955 32.5718 19.0105 32.9355C19.9167 33.7318 20.0055 35.1155 19.2092 36.0218L16.1705 39.4793L16.0892 39.573ZM17.4967 43.5568C16.5917 42.7618 16.5017 41.3793 17.2955 40.473L20.3355 37.013C20.363 36.9818 20.388 36.9505 20.4142 36.918L20.4167 36.9205C20.8005 36.4843 21.333 36.223 21.9192 36.1855C22.5042 36.1493 23.0667 36.338 23.503 36.7218C24.4092 37.518 24.498 38.9018 23.7017 39.808L20.5817 43.358C19.7867 44.2643 18.4017 44.353 17.4967 43.5568ZM21.908 47.4343C21.4717 47.0505 21.2105 46.518 21.173 45.9318C21.1355 45.3468 21.3255 44.7843 21.7092 44.348L23.8605 41.8993C24.2442 41.463 24.7767 41.2018 25.363 41.1643C25.948 41.1255 26.5105 41.3168 26.9467 41.7005C27.383 42.0843 27.6442 42.6168 27.6817 43.203C27.7192 43.788 27.5292 44.3505 27.1455 44.7868L24.9942 47.2355C24.198 48.1405 22.8142 48.2305 21.908 47.4343ZM27.9305 51.8193C27.3455 51.8568 26.783 51.6668 26.3467 51.283C25.4405 50.4868 25.3517 49.103 26.148 48.1968L26.4792 47.8193C26.863 47.383 27.3955 47.1218 27.9817 47.0843C28.0305 47.0818 28.0792 47.0793 28.128 47.0793C28.6605 47.0793 29.1667 47.268 29.5667 47.6205C30.473 48.4168 30.5617 49.8005 29.7655 50.7068L29.4342 51.0843C29.0492 51.5193 28.5155 51.7805 27.9305 51.8193ZM49.8817 41.3005C49.498 41.7368 48.9642 41.998 48.3792 42.0355C47.793 42.073 47.2317 41.883 46.7955 41.4993L38.5605 34.263C38.2492 33.9893 37.7755 34.0205 37.5017 34.3318C37.228 34.643 37.2592 35.1168 37.5705 35.3905L44.7705 41.718C45.6767 42.5143 45.7655 43.898 44.9692 44.8043C44.5855 45.2405 44.0517 45.5018 43.4667 45.5393C42.8817 45.5768 42.3192 45.3868 41.883 45.003L34.4517 38.473C34.1405 38.1993 33.6667 38.2305 33.393 38.5418C33.1192 38.853 33.1505 39.3268 33.4617 39.6005L39.5742 44.9718C40.0105 45.3555 40.2717 45.888 40.3092 46.4743C40.3467 47.0593 40.1567 47.6218 39.773 48.058C39.3892 48.4943 38.8567 48.7555 38.2705 48.793C37.6855 48.8293 37.123 48.6405 36.6867 48.2568L35.303 47.0405C35.3017 47.0405 35.3017 47.0393 35.3005 47.0393C35.3005 47.0393 35.2992 47.0393 35.2992 47.038L32.8067 44.848C32.7328 44.7829 32.6467 44.7329 32.5534 44.7011C32.4601 44.6693 32.3614 44.6562 32.2631 44.6626C32.1647 44.669 32.0686 44.6947 31.9802 44.7383C31.8918 44.782 31.8129 44.8426 31.748 44.9168C31.6829 44.9908 31.6331 45.0769 31.6014 45.1702C31.5696 45.2635 31.5566 45.3621 31.563 45.4604C31.5694 45.5587 31.595 45.6548 31.6386 45.7432C31.6821 45.8316 31.7427 45.9105 31.8167 45.9755L34.3105 48.1668C35.2155 48.963 35.3042 50.3468 34.5092 51.2518C33.7317 52.1368 32.3655 52.2168 31.4005 51.4318L31.2067 51.2743C32.1917 49.7643 31.9442 47.7155 30.5517 46.4918C29.9581 45.9683 29.2107 45.6516 28.4217 45.5893C28.968 44.8818 29.2355 44.008 29.1767 43.103C29.113 42.118 28.6717 41.2193 27.9342 40.5705C27.2637 39.9799 26.4003 39.6549 25.5067 39.6568C26.028 38.263 25.6717 36.6305 24.4892 35.5918C23.7517 34.9443 22.803 34.623 21.818 34.6855C21.6217 34.698 21.4292 34.7268 21.2405 34.768C21.2955 33.6805 20.8742 32.5793 19.9955 31.8068C19.258 31.1593 18.3105 30.838 17.3242 30.9005C16.3392 30.9643 15.4405 31.4055 14.7917 32.1418L14.3167 32.6818C13.448 31.6643 11.7905 30.643 9.77046 30.123L17.5405 17.2543C20.4205 19.2068 23.3605 18.9343 25.5517 18.7293C26.548 18.6368 27.3055 18.578 27.8267 18.678C27.3492 19.0955 26.9255 19.4605 26.5192 19.7693C23.4417 22.1055 23.8267 24.6518 24.1655 26.898C24.4217 28.5968 24.6642 30.2018 23.5967 31.8618C23.4717 32.0555 23.443 32.2968 23.5192 32.5155C23.5955 32.7343 23.768 32.9043 23.9867 32.978C24.4442 33.133 24.9192 33.208 25.403 33.208C26.548 33.208 27.7317 32.7805 28.7992 31.9593C30.528 30.628 31.5667 28.5905 31.443 26.768C31.388 25.9593 31.8317 24.7593 32.5555 24.3318C32.7155 24.2368 33.198 23.9543 34.0792 24.503L49.678 38.2093C50.588 39.0105 50.6767 40.3955 49.8817 41.3005ZM52.9142 33.8768C52.3942 34.7118 51.9005 35.503 49.913 36.4205L35.0255 23.338C35.0217 23.3343 35.0167 23.3318 35.013 23.328C35.003 23.3193 34.9917 23.3105 34.9817 23.303C34.9717 23.2955 34.9605 23.2868 34.9492 23.2793C34.9442 23.2768 34.9405 23.273 34.9355 23.2693C33.4692 22.328 32.3405 22.7243 31.798 23.0455C30.5317 23.7943 29.8642 25.5793 29.9517 26.8743C30.0405 28.1893 29.2117 29.758 27.8892 30.7755C27.0905 31.3905 26.223 31.7118 25.4055 31.7118H25.378C26.1442 29.9243 25.8855 28.2143 25.6542 26.678C25.3242 24.493 25.0642 22.7668 27.4317 20.968C27.9405 20.5818 28.473 20.1143 29.0367 19.6205C30.113 18.6768 31.3317 17.6093 33.0017 16.5143C34.7442 15.6505 36.8955 16.1605 39.3842 16.7505C42.4792 17.4843 45.9642 18.3093 49.803 16.8405L55.928 31.3293C54.013 32.1155 53.4542 33.0093 52.9142 33.8768ZM61.9042 31.1993L58.1867 32.7705C58.178 32.7743 58.163 32.768 58.1592 32.7593L50.343 14.2705C50.3392 14.2618 50.3455 14.2468 50.3542 14.243L54.0717 12.6718C54.0805 12.668 54.0955 12.6743 54.0992 12.683L61.9155 31.1718C61.9192 31.1805 61.913 31.1943 61.9042 31.1993Z" fill="url(#paint0_linear_75_2875)"/>
<defs>
<linearGradient id="paint0_linear_75_2875" x1="32.667" y1="11.1693" x2="32.667" y2="53.4805" gradientUnits="userSpaceOnUse">
<stop stop-color="#006980"/>
<stop offset="1" stop-color="#005A64"/>
</linearGradient>
</defs>
</svg>
