<svg width="65" height="65" viewBox="0 0 65 65" fill="none" xmlns="http://www.w3.org/2000/svg">
<g clip-path="url(#clip0_75_2863)">
<path d="M62.9319 56.7022C62.4272 51.986 59.2439 48.1698 54.9857 46.6877C56.5597 45.4912 57.5783 43.6 57.5783 41.4749C57.5783 37.8655 54.6419 34.9292 51.0326 34.9292C47.4232 34.9292 44.4868 37.8655 44.4868 41.4749C44.4868 43.6007 45.5061 45.4923 47.081 46.6888C45.8255 47.1278 44.6525 47.774 43.6107 48.6008C43.2046 48.1288 42.7695 47.6826 42.3078 47.2648C40.7079 45.8165 38.8114 44.7346 36.7505 44.0943C38.9173 42.6578 40.3498 40.1982 40.3498 37.4093C40.3498 32.9893 36.7538 29.3932 32.3337 29.3932C27.9136 29.3932 24.3176 32.9893 24.3176 37.4093C24.3176 40.1982 25.75 42.6578 27.9168 44.0943C25.8558 44.7345 23.9592 45.8165 22.3592 47.2648C21.8975 47.6826 21.4624 48.1288 21.0563 48.6008C20.0145 47.7741 18.8416 47.1278 17.5862 46.6888C19.1611 45.4923 20.1803 43.6007 20.1803 41.4748C20.1803 37.8654 17.2439 34.929 13.6346 34.929C10.0252 34.929 7.08883 37.8654 7.08883 41.4748C7.08883 43.5999 8.10745 45.4909 9.68132 46.6875C5.42282 48.1698 2.23958 51.9859 1.73495 56.7023C1.71999 56.8418 1.73455 56.9829 1.7777 57.1164C1.82085 57.2499 1.89161 57.3728 1.98539 57.4771C2.07917 57.5815 2.19386 57.665 2.32201 57.7221C2.45016 57.7792 2.5889 57.8087 2.7292 57.8087H17.5368V59.6134C17.5368 62.2097 19.649 64.3218 22.2452 64.3218H42.4216C45.0177 64.3218 47.13 62.2097 47.13 59.6134V57.8087H61.9376C62.0779 57.8087 62.2166 57.7791 62.3448 57.722C62.4729 57.6649 62.5876 57.5814 62.6814 57.4771C62.7752 57.3727 62.846 57.2498 62.8891 57.1163C62.9323 56.9828 62.9469 56.8417 62.9319 56.7022ZM51.0326 36.929C53.5391 36.929 55.5783 38.9682 55.5783 41.4748C55.5783 43.9813 53.5392 46.0204 51.0326 46.0204C48.5259 46.0204 46.4868 43.9813 46.4868 41.4748C46.4868 38.9683 48.5261 36.929 51.0326 36.929ZM26.3174 37.4093C26.3174 34.092 29.0162 31.3932 32.3336 31.3932C35.651 31.3932 38.3497 34.092 38.3497 37.4093C38.3497 40.7254 35.6527 43.4235 32.3368 43.4253H32.3302C29.0145 43.4235 26.3174 40.7254 26.3174 37.4093ZM13.6346 36.929C16.1411 36.929 18.1803 38.9682 18.1803 41.4748C18.1803 43.9813 16.1412 46.0204 13.6346 46.0204C11.1279 46.0204 9.08883 43.9813 9.08883 41.4748C9.08883 38.9683 11.1279 36.929 13.6346 36.929ZM17.6667 55.8088H3.90445C4.90283 51.2984 8.9057 48.0205 13.6344 48.0205C15.9148 48.0205 18.0926 48.7905 19.8548 50.2017C18.7493 51.9012 18.0046 53.8097 17.6667 55.8088ZM45.1301 59.6134C45.1301 61.1068 43.9151 62.3218 42.4217 62.3218H22.2452C20.7518 62.3218 19.5368 61.1068 19.5368 59.6134V56.863C20.2608 50.3394 25.7513 45.4269 32.3301 45.4253L32.3335 45.4254L32.3367 45.4253C38.9153 45.4269 44.4057 50.3394 45.1298 56.8629V59.6134H45.1301ZM47.0002 55.8087C46.6623 53.8096 45.9176 51.9012 44.8121 50.2018C46.5742 48.7907 48.752 48.0207 51.0325 48.0207C55.7612 48.0207 59.7641 51.2984 60.7625 55.8088H47.0002V55.8087ZM22.5529 15.3492C22.3689 15.915 22.5497 16.5218 23.0137 16.8948L27.1431 20.2137L25.7532 25.326C25.5971 25.9002 25.8073 26.4972 26.2888 26.8472C26.7702 27.1969 27.4031 27.2122 27.9008 26.8863L32.3335 23.9848L36.7664 26.8867C36.9974 27.0388 37.2678 27.1201 37.5443 27.1205C37.8365 27.1205 38.1278 27.029 38.3782 26.8472C38.8597 26.4974 39.07 25.9004 38.9138 25.326L37.5239 20.2138L41.6535 16.8947C42.1171 16.5219 42.298 15.9154 42.1142 15.3494C41.9303 14.7832 41.4272 14.3988 40.833 14.37L35.5413 14.112L33.6609 9.15928C33.4497 8.6029 32.9287 8.24328 32.3336 8.24328C31.7385 8.24328 31.2173 8.60278 31.0062 9.15915L29.1257 14.112L23.8344 14.3699C23.2397 14.3988 22.7366 14.7833 22.5529 15.3492ZM29.6023 16.0912C29.8783 16.0778 30.1443 15.9841 30.3678 15.8217C30.5913 15.6593 30.7626 15.4352 30.8606 15.1769L32.3335 11.2977L33.8064 15.1772C33.9045 15.4354 34.0758 15.6594 34.2992 15.8217C34.5227 15.9841 34.7887 16.0777 35.0646 16.0912L39.2093 16.2933L35.9749 18.8928C35.7596 19.0658 35.5994 19.2979 35.514 19.5607C35.4287 19.8234 35.4218 20.1053 35.4943 20.3719L36.583 24.3762L33.1113 22.1035C32.8803 21.952 32.61 21.8713 32.3337 21.8713C32.0573 21.8712 31.787 21.9519 31.556 22.1034L28.0841 24.3762L29.1726 20.372C29.2451 20.1054 29.2383 19.8235 29.1529 19.5607C29.0676 19.298 28.9074 19.0658 28.6921 18.8928L25.4577 16.2933L29.6023 16.0912ZM31.3335 4.99153V1.32178C31.3335 1.05656 31.4388 0.802207 31.6263 0.614671C31.8139 0.427134 32.0682 0.321777 32.3335 0.321777C32.5987 0.321777 32.853 0.427134 33.0406 0.614671C33.2281 0.802207 33.3335 1.05656 33.3335 1.32178V4.99153C33.3335 5.25674 33.2281 5.5111 33.0406 5.69863C32.853 5.88617 32.5987 5.99153 32.3335 5.99153C32.0682 5.99153 31.8139 5.88617 31.6263 5.69863C31.4388 5.5111 31.3335 5.25674 31.3335 4.99153ZM37.4232 10.9163C37.2457 10.7192 37.1538 10.4597 37.1677 10.1948C37.1816 9.92998 37.3001 9.68149 37.4972 9.50403L41.5868 5.82178C41.6843 5.73297 41.7983 5.6643 41.9224 5.61973C42.0464 5.57515 42.1781 5.55555 42.3098 5.56205C42.4414 5.56855 42.5705 5.60102 42.6896 5.65759C42.8087 5.71417 42.9154 5.79373 43.0036 5.8917C43.0918 5.98967 43.1598 6.10411 43.2036 6.22845C43.2474 6.35279 43.2662 6.48457 43.2589 6.6162C43.2516 6.74783 43.2184 6.87672 43.1611 6.99545C43.1038 7.11418 43.0236 7.22041 42.9251 7.30803L38.8356 10.9903C38.6522 11.1559 38.4138 11.2474 38.1667 11.2472C38.0265 11.2474 37.8878 11.218 37.7597 11.161C37.6316 11.104 37.5169 11.0206 37.4232 10.9163ZM21.6677 5.89578C21.8452 5.69869 22.0937 5.58018 22.3585 5.5663C22.6233 5.55242 22.8829 5.64432 23.08 5.82178L27.1695 9.50403C27.3665 9.68151 27.4851 9.93001 27.4989 10.1949C27.5128 10.4597 27.4209 10.7193 27.2434 10.9163C27.0659 11.1134 26.8174 11.2319 26.5525 11.2458C26.2877 11.2597 26.0282 11.1678 25.8311 10.9903L21.7418 7.30803C21.5447 7.13058 21.4262 6.8821 21.4123 6.61725C21.3984 6.35241 21.4903 6.09288 21.6677 5.89578Z" fill="url(#paint0_linear_75_2863)"/>
</g>
<defs>
<linearGradient id="paint0_linear_75_2863" x1="32.3334" y1="0.321777" x2="32.3334" y2="64.3218" gradientUnits="userSpaceOnUse">
<stop stop-color="#214b92"/>
<stop offset="1" stop-color="#005A64"/>
</linearGradient>
<clipPath id="clip0_75_2863">
<rect width="64" height="64" fill="white" transform="translate(0.333496 0.321777)"/>
</clipPath>
</defs>
</svg>
