<svg width="65" height="65" viewBox="0 0 65 65" fill="none" xmlns="http://www.w3.org/2000/svg">
<g clip-path="url(#clip0_75_2857)">
<path d="M1.33724 54.4473C1.55062 54.3588 3.78399 53.4401 7.05524 52.3869C10.6764 46.1473 10.4541 46.465 10.61 46.2971C11.3555 45.4934 12.367 44.9871 13.4572 44.8719L62.9285 39.6364C64.3047 39.4905 65.1841 41.0748 64.3297 42.1654C62.9661 43.9068 60.1079 48.0324 55.4127 51.2208C57.7859 50.9665 60.3537 50.5744 63.1579 50.0058C63.7469 49.8869 64.3197 50.2667 64.439 50.8548C64.4674 50.9946 64.4679 51.1387 64.4406 51.2788C64.4133 51.4189 64.3587 51.5522 64.2798 51.6712C64.201 51.7901 64.0995 51.8924 63.9811 51.9721C63.8628 52.0519 63.7299 52.1075 63.59 52.1359C42.8924 56.3329 34.1216 51.1021 24.262 51.2524C14.4577 51.4034 2.29237 56.4041 2.17062 56.4546C1.61386 56.6858 0.979366 56.4191 0.750366 55.8674C0.695614 55.7356 0.667362 55.5943 0.667225 55.4516C0.667088 55.3089 0.695072 55.1676 0.749573 55.0357C0.804073 54.9039 0.884026 54.784 0.984859 54.683C1.08569 54.5821 1.20544 54.502 1.33724 54.4473ZM50.1684 51.5821C55.9292 49.2774 59.8577 44.4375 61.7636 41.9453L13.6857 47.0333C13.1559 47.0893 12.6606 47.3229 12.2804 47.6961L10.0997 51.4649C30.0304 45.815 32.662 52.0891 50.1684 51.5821ZM31.94 40.5693C32.3331 41.5918 31.1271 42.4907 30.2602 41.8186C30.2489 41.8099 29.077 40.9304 27.3964 40.631C25.14 40.2294 23.0499 41.0396 21.1832 43.0394C20.5717 43.6948 19.4672 43.3668 19.3172 42.479C19.283 42.2766 18.4861 37.45 19.0087 30.9009C19.4932 24.8283 21.2627 16.0963 26.9406 8.98277C27.6857 8.04927 29.1821 8.83865 28.8281 9.98215C28.7895 10.1068 25.0486 22.6534 31.94 40.5693ZM25.8285 14.5625C21.6916 22.0633 20.4397 31.5841 21.2202 40.0966C23.6282 38.3226 26.3501 37.9418 28.9849 38.7936C26.3712 31.1156 25.0244 22.5766 25.8285 14.5625ZM54.4491 39.3315C54.4251 39.3121 52.005 37.3993 48.3874 36.677C43.5636 35.7141 39.0524 37.2861 34.9784 41.3503C34.1681 42.1581 32.7974 41.3119 33.1869 40.2166C33.2016 40.175 34.6691 35.9929 35.0146 30.1404C35.3321 24.763 34.729 16.8675 30.0529 9.7919C29.5461 9.02502 30.1652 8.00715 31.0846 8.11315C31.2975 8.13777 36.3624 8.76377 42.0139 12.8289C48.6164 17.578 54.1236 25.6704 56.2007 38.3069C56.3619 39.286 55.2261 39.9533 54.4491 39.3315ZM33.21 10.8301C37.5496 18.8096 38.165 28.5266 36.1836 37.468C41.63 33.5422 47.8942 33.2649 53.6046 36.2524C50.512 21.6335 42.1952 13.56 33.21 10.8301ZM52.4081 44.5774C53.2941 44.5774 54.0149 45.2983 54.0149 46.1841C54.0149 47.07 53.294 47.7909 52.4081 47.7909C51.5221 47.7909 50.8014 47.07 50.8014 46.1841C50.8014 45.2983 51.5222 44.5774 52.4081 44.5774Z" fill="url(#paint0_linear_75_2857)"/>
</g>
<defs>
<linearGradient id="paint0_linear_75_2857" x1="32.6671" y1="8.1055" x2="32.6671" y2="56.538" gradientUnits="userSpaceOnUse">
<stop stop-color="#006980"/>
<stop offset="1" stop-color="#005A64"/>
</linearGradient>
<clipPath id="clip0_75_2857">
<rect width="64" height="64" fill="white" transform="matrix(-1 0 0 1 64.6667 0.321777)"/>
</clipPath>
</defs>
</svg>
