<svg width="64" height="65" viewBox="0 0 64 65" fill="none" xmlns="http://www.w3.org/2000/svg">
<g clip-path="url(#clip0_75_2869)">
<path d="M6.65393 22.6898C4.20166 26.3484 -1.32581 35.7703 0.293393 44.1991C2.76593 57.0386 16.1067 59.077 21.0326 59.3852C22.3443 60.9674 23.7104 62.5036 25.1286 63.9911C25.2244 64.0959 25.3401 64.1805 25.469 64.24C25.598 64.2995 25.7375 64.3326 25.8793 64.3375C26.0212 64.3423 26.1627 64.3188 26.2954 64.2683C26.4281 64.2178 26.5493 64.1413 26.6521 64.0433C26.7548 63.9453 26.837 63.8278 26.8937 63.6977C26.9504 63.5675 26.9806 63.4274 26.9825 63.2854C26.9843 63.1435 26.9578 63.0025 26.9045 62.871C26.8512 62.7394 26.7722 62.6197 26.6721 62.5191C25.3874 61.167 24.1441 59.7761 22.9441 58.3484C24.399 56.0583 29.0827 47.8247 26.7073 40.1308C25.5915 36.5042 23.2726 34.8274 19.0657 31.7852C17.9157 30.9593 16.7743 30.1216 15.6417 29.2722C13.32 27.6937 11.4492 25.538 10.2134 23.0172C10.0691 22.6808 9.83664 22.3895 9.54054 22.1742C9.24444 21.9589 8.8957 21.8275 8.53113 21.794C8.16657 21.7604 7.79971 21.826 7.4693 21.9836C7.13889 22.1413 6.85718 22.3853 6.65393 22.6898ZM14.3563 30.9746C15.6427 31.9442 16.7905 32.773 17.8155 33.5143C21.8987 36.4658 23.7622 37.8119 24.6678 40.7591C26.5878 46.9703 23.0849 53.9175 21.5083 56.5948C17.2182 51.2178 12.2571 43.6946 10.735 36.1714C10.707 36.0341 10.6522 35.9037 10.5738 35.7876C10.4954 35.6715 10.3949 35.5719 10.278 35.4947C10.1611 35.4174 10.0301 35.3639 9.8926 35.3373C9.75505 35.3106 9.6136 35.3113 9.47633 35.3394C9.33905 35.3674 9.20864 35.4222 9.09254 35.5006C8.97643 35.579 8.87691 35.6795 8.79965 35.7964C8.72239 35.9133 8.66891 36.0442 8.64226 36.1818C8.61561 36.3193 8.61631 36.4608 8.64433 36.598C10.1686 44.1266 14.9025 51.573 19.1798 57.078C13.4198 56.3783 4.29553 53.6946 2.38939 43.8002C0.938726 36.2503 5.97873 27.5591 8.32646 24.0274C9.72056 26.8131 11.7944 29.2024 14.3563 30.9746ZM8.87366 13.0375C8.73565 13.0692 8.60534 13.1281 8.49033 13.2107C8.37532 13.2933 8.2779 13.398 8.20377 13.5186C8.12964 13.6393 8.08027 13.7735 8.05854 13.9134C8.03681 14.0533 8.04317 14.1962 8.07723 14.3336C8.11129 14.4711 8.17237 14.6004 8.25693 14.714C8.34148 14.8275 8.4478 14.9232 8.56969 14.9952C8.69158 15.0673 8.8266 15.1144 8.96688 15.1337C9.10716 15.1531 9.24988 15.1443 9.38673 15.1079C11.3275 14.6304 13.2842 14.2202 15.2534 13.878C16.5142 16.2919 21.2961 24.4572 29.1467 26.2428C29.9137 26.4219 30.6984 26.5138 31.4859 26.517C34.1099 26.517 36.4993 25.4428 40.1857 23.7927C41.3291 23.2796 42.6113 22.7047 44.0779 22.086C46.606 20.8687 49.4063 20.327 52.2059 20.5138H52.2123C52.5756 20.5586 52.9442 20.5043 53.2791 20.3565C53.614 20.2087 53.9026 19.973 54.1142 19.6743C54.3259 19.3757 54.4527 19.0253 54.4813 18.6604C54.5098 18.2955 54.439 17.9297 54.2763 17.6018C52.3329 13.6455 46.9387 4.14362 38.8267 1.33189C26.4641 -2.94864 18.0267 7.60069 15.3025 11.7063C13.1438 12.0703 10.9994 12.5144 8.87366 13.0375ZM41.2363 12.3623C33.9723 9.92176 25.0561 10.3282 18.2241 11.2594C21.7014 6.62149 28.5921 0.0380221 38.1302 3.34896C45.3835 5.86202 50.383 14.5575 52.2774 18.3708C49.168 18.187 46.0624 18.7879 43.2459 20.118C41.7622 20.7474 40.4726 21.3276 39.3121 21.846C34.7254 23.9047 32.623 24.8391 29.6193 24.1628C23.2865 22.7218 19.0262 16.2268 17.4934 13.5154C24.2049 12.5159 33.2993 11.9506 40.5569 14.3858C40.6899 14.4304 40.8305 14.4483 40.9705 14.4386C41.1105 14.4289 41.2473 14.3917 41.3729 14.3292C41.4985 14.2666 41.6106 14.18 41.7028 14.0741C41.7949 13.9682 41.8653 13.8452 41.9099 13.7122C41.9545 13.5791 41.9725 13.4385 41.9628 13.2985C41.9531 13.1585 41.9159 13.0218 41.8534 12.8961C41.7908 12.7705 41.7041 12.6584 41.5983 12.5662C41.4924 12.4741 41.3694 12.4037 41.2363 12.3591V12.3623ZM62.1185 22.9095C61.984 22.87 61.843 22.8575 61.7037 22.8729C61.5644 22.8882 61.4295 22.9311 61.3069 22.9989C61.1843 23.0668 61.0763 23.1583 60.9893 23.2682C60.9023 23.3781 60.838 23.5042 60.8001 23.6391C60.2441 25.5578 59.6215 27.4565 58.9334 29.3319C56.207 29.2156 46.7457 29.2807 41.2779 35.1826C38.6998 37.9644 38.4097 40.806 37.8806 45.9655C37.7526 47.2124 37.6097 48.6108 37.4155 50.1938C37.2055 52.9915 36.2751 55.6872 34.7147 58.0188C34.4946 58.3108 34.3575 58.6569 34.318 59.0204C34.2786 59.384 34.3382 59.7514 34.4906 60.0838C34.6431 60.4162 34.8826 60.7012 35.1838 60.9085C35.485 61.1159 35.8368 61.2378 36.2017 61.2615C37.0635 61.318 38.1771 61.3682 39.4593 61.3682C44.7137 61.3682 52.7926 60.534 58.0129 56.0167C67.9115 47.4482 62.9867 34.8658 60.7862 30.4562C61.5504 28.4053 62.2382 26.3267 62.8481 24.2247C62.9248 23.9536 62.8912 23.663 62.7545 23.4166C62.6178 23.1702 62.3891 22.9879 62.1185 22.9095ZM56.6123 54.4082C50.8086 59.4343 40.7766 59.4151 36.5302 59.1484C38.2422 56.5473 39.2742 53.5583 39.5318 50.4551C39.727 48.8551 39.8721 47.4428 40.0011 46.182C40.5142 41.1762 40.7478 38.8914 42.8417 36.6322C47.2577 31.8674 55.0155 31.4332 58.1249 31.4556C55.6363 37.7682 51.5777 45.926 45.8401 50.9884C45.6279 51.1758 45.4989 51.4399 45.4814 51.7224C45.4639 52.005 45.5593 52.2829 45.7467 52.4951C45.9342 52.7073 46.1982 52.8363 46.4807 52.8538C46.7633 52.8713 47.0412 52.7758 47.2534 52.5884C52.9942 47.5186 57.1051 39.5943 59.7142 33.2103C61.9894 38.5468 64.2401 47.8055 56.6123 54.4082Z" fill="url(#paint0_linear_75_2869)"/>
</g>
<defs>
<linearGradient id="paint0_linear_75_2869" x1="31.9862" y1="0.328613" x2="31.9862" y2="64.3381" gradientUnits="userSpaceOnUse">
<stop stop-color="#214b92"/>
<stop offset="1" stop-color="#005A64"/>
</linearGradient>
<clipPath id="clip0_75_2869">
<rect width="64" height="64" fill="white" transform="translate(0 0.321777)"/>
</clipPath>
</defs>
</svg>
