<svg width="24" height="20" viewBox="0 0 24 20" fill="none" xmlns="http://www.w3.org/2000/svg">
<path d="M23.8748 10.5372C23.8101 10.4438 23.7238 10.3674 23.6231 10.3147C23.5225 10.2619 23.4105 10.2344 23.2969 10.2344H21.5578L19.2141 5.93313C19.0728 5.67407 18.8642 5.45792 18.6104 5.30745C18.3565 5.15698 18.0668 5.07776 17.7717 5.07812H12.4139L10.5389 1.70312C10.3968 1.44735 10.1888 1.23425 9.93664 1.08589C9.68443 0.937532 9.39714 0.859326 9.10453 0.859375H6.84375C6.40863 0.859375 5.99133 1.03223 5.68365 1.3399C5.37598 1.64758 5.20312 2.06488 5.20312 2.5V5.07812H4.98187C4.6221 5.07872 4.27246 5.19728 3.98653 5.41564C3.7006 5.634 3.49418 5.9401 3.39891 6.28703L2.32219 10.2344H1.64062C1.2055 10.2344 0.788205 10.4072 0.480528 10.7149C0.172851 11.0226 0 11.4399 0 11.875L0 17.5C0 17.9351 0.172851 18.3524 0.480528 18.6601C0.788205 18.9678 1.2055 19.1406 1.64062 19.1406H12.4744C14.97 19.1402 17.4061 18.3783 19.4572 16.9566C21.5083 15.535 23.0768 13.5213 23.9531 11.1845C23.9933 11.0783 24.0072 10.964 23.9936 10.8512C23.9799 10.7385 23.9392 10.6307 23.8748 10.5372ZM6.60937 2.5C6.60937 2.43784 6.63407 2.37823 6.67802 2.33427C6.72197 2.29032 6.78159 2.26562 6.84375 2.26562H9.10453C9.14631 2.26562 9.18734 2.27679 9.22335 2.29797C9.25937 2.31915 9.28907 2.34958 9.30937 2.38609L10.8052 5.07812H6.60937V2.5ZM4.75547 6.65687C4.76905 6.60726 4.79857 6.56349 4.83949 6.53232C4.8804 6.50115 4.93044 6.4843 4.98187 6.48438H17.7717C17.8138 6.48439 17.8552 6.49576 17.8914 6.51729C17.9276 6.53882 17.9574 6.56971 17.9775 6.60672L19.9561 10.2344H3.78L4.75547 6.65687ZM12.4744 17.7344H1.64062C1.57846 17.7344 1.51885 17.7097 1.4749 17.6657C1.43094 17.6218 1.40625 17.5622 1.40625 17.5V11.875C1.40625 11.8128 1.43094 11.7532 1.4749 11.7093C1.51885 11.6653 1.57846 11.6406 1.64062 11.6406H22.2291C20.4258 15.3241 16.627 17.7344 12.4744 17.7344Z" fill="#214b92"/>
<path d="M7.90453 7.65625H7.3125C7.12602 7.65625 6.94718 7.73033 6.81532 7.86219C6.68345 7.99405 6.60938 8.17289 6.60938 8.35938C6.60938 8.54586 6.68345 8.7247 6.81532 8.85656C6.94718 8.98842 7.12602 9.0625 7.3125 9.0625H7.90453C8.09101 9.0625 8.26985 8.98842 8.40172 8.85656C8.53358 8.7247 8.60766 8.54586 8.60766 8.35938C8.60766 8.17289 8.53358 7.99405 8.40172 7.86219C8.26985 7.73033 8.09101 7.65625 7.90453 7.65625ZM10.8323 7.65625H10.2403C10.0538 7.65625 9.87499 7.73033 9.74313 7.86219C9.61127 7.99405 9.53719 8.17289 9.53719 8.35938C9.53719 8.54586 9.61127 8.7247 9.74313 8.85656C9.87499 8.98842 10.0538 9.0625 10.2403 9.0625H10.8323C11.0188 9.0625 11.1977 8.98842 11.3295 8.85656C11.4614 8.7247 11.5355 8.54586 11.5355 8.35938C11.5355 8.17289 11.4614 7.99405 11.3295 7.86219C11.1977 7.73033 11.0188 7.65625 10.8323 7.65625ZM13.7597 7.65625H13.1677C12.9812 7.65625 12.8023 7.73033 12.6705 7.86219C12.5386 7.99405 12.4645 8.17289 12.4645 8.35938C12.4645 8.54586 12.5386 8.7247 12.6705 8.85656C12.8023 8.98842 12.9812 9.0625 13.1677 9.0625H13.7597C13.9462 9.0625 14.125 8.98842 14.2569 8.85656C14.3887 8.7247 14.4628 8.54586 14.4628 8.35938C14.4628 8.17289 14.3887 7.99405 14.2569 7.86219C14.125 7.73033 13.9462 7.65625 13.7597 7.65625ZM16.6875 7.65625H16.0955C15.909 7.65625 15.7301 7.73033 15.5983 7.86219C15.4664 7.99405 15.3923 8.17289 15.3923 8.35938C15.3923 8.54586 15.4664 8.7247 15.5983 8.85656C15.7301 8.98842 15.909 9.0625 16.0955 9.0625H16.6875C16.874 9.0625 17.0528 8.98842 17.1847 8.85656C17.3165 8.7247 17.3906 8.54586 17.3906 8.35938C17.3906 8.17289 17.3165 7.99405 17.1847 7.86219C17.0528 7.73033 16.874 7.65625 16.6875 7.65625Z" fill="#214b92"/>
</svg>
