<svg width="51" height="51" viewBox="0 0 51 51" fill="none" xmlns="http://www.w3.org/2000/svg">
<path d="M22.9599 9.08372C22.2129 8.65572 22.2449 7.52022 23.0034 7.11272C25.5069 5.76772 27.0139 4.15572 28.5504 1.39222C28.9569 0.661216 30.0409 0.663716 30.4474 1.39472C32.0059 4.19472 33.5444 5.75472 35.9874 7.08472C36.7459 7.49772 36.7599 8.63872 36.0074 9.06222C33.4759 10.4862 31.9509 12.0342 30.4914 14.6262C30.0729 15.3697 28.9544 15.3567 28.5414 14.6102C27.1914 12.1667 25.6499 10.6242 22.9599 9.08372ZM8.96488 1.90422C22.3989 9.93622 22.4969 23.1707 21.1704 37.3412C21.1154 37.9262 21.0614 38.5087 21.0084 39.0882C20.9559 39.6602 20.1379 39.7072 20.0209 39.1442L16.6989 23.9962C15.7184 21.1741 14.1164 18.6085 12.0111 16.4887C9.90585 14.369 7.35118 12.7494 4.53588 11.7497C2.31338 10.9607 0.738382 8.95772 0.744382 6.55372C0.755382 2.34072 5.34938 -0.257283 8.96488 1.90422ZM41.5264 13.1687C29.4464 19.4472 27.7884 31.8942 26.7614 44.2977C26.6129 46.0932 26.4664 47.8577 26.2854 49.5612C26.2224 50.1537 27.0624 50.3397 27.2554 49.7762L32.4914 34.7612C33.6381 32.0023 35.39 29.5364 37.6179 27.5456C39.8457 25.5548 42.4924 24.0901 45.3624 23.2597C47.6274 22.6047 49.3189 20.6992 49.4559 18.2987C49.6959 14.0927 45.2644 11.2257 41.5264 13.1687ZM1.00888 38.6237C0.245382 39.0212 0.213882 40.1552 0.963882 40.5762C4.19438 42.3877 5.97538 44.1747 7.55088 47.1052C7.95488 47.8567 9.07288 47.8682 9.48438 47.1212C11.1969 44.0107 12.9619 42.2207 16.0019 40.5537C16.7594 40.1387 16.7469 38.9987 15.9829 38.5952C13.0539 37.0472 11.2724 35.2517 9.44088 31.8967C9.04038 31.1627 7.95788 31.1597 7.55688 31.8937C5.75188 35.1997 4.01138 37.0612 1.00888 38.6237ZM36.0049 39.3662C35.2449 39.7707 35.2134 40.9057 35.9614 41.3312C38.7864 42.9397 40.3879 44.5442 41.7944 47.1092C42.2044 47.8572 43.3229 47.8687 43.7394 47.1242C45.2624 44.4032 46.8479 42.7942 49.5064 41.3092C50.2604 40.8882 50.2459 39.7482 49.4859 39.3377C46.9219 37.9527 45.3224 36.3337 43.6959 33.3952C43.2909 32.6637 42.2069 32.6612 41.8019 33.3932C40.1984 36.2917 38.6324 37.9662 36.0049 39.3662Z" fill="url(#paint0_linear_7291_1008)"/>
<defs>
<linearGradient id="paint0_linear_7291_1008" x1="25.2412" y1="0.845215" x2="25.2412" y2="50.115" gradientUnits="userSpaceOnUse">
<stop stop-color="#006980"/>
<stop offset="1" stop-color="#005A64"/>
</linearGradient>
</defs>
</svg>
