<svg width="24" height="25" viewBox="0 0 24 25" fill="none" xmlns="http://www.w3.org/2000/svg">
<g clip-path="url(#clip0_592_4907)">
<path d="M22.6441 15.1611H16.9229L17.8543 9.83909H22.6441C23.4424 9.83909 23.9746 9.30688 23.9746 8.50858C23.9746 7.71027 23.4424 7.17806 22.6441 7.17806H18.3865L19.3178 2.12211C19.4509 1.45685 19.0517 0.658544 18.2534 0.525493H18.1204C17.4551 0.392441 16.6568 0.791596 16.5238 1.45685V1.5899L15.5924 7.17806H10.4034L11.3348 2.12211C11.4678 1.45685 11.0687 0.658544 10.2703 0.525493H10.1373C9.47204 0.392441 8.67373 0.791596 8.54068 1.45685V1.5899L7.60932 7.17806H1.3559C0.557596 7.17806 0.0253906 7.71027 0.0253906 8.50858C0.0253906 9.30688 0.557596 9.83909 1.3559 9.83909H7.07711L6.14575 15.1611H1.3559C0.557596 15.1611 0.0253906 15.6934 0.0253906 16.4917C0.0253906 17.29 0.557596 17.8222 1.3559 17.8222H5.61355L4.68219 22.8781C4.54914 23.5434 4.94829 24.3417 5.7466 24.4747H5.87965C6.54491 24.6078 7.34322 24.2086 7.47627 23.5434V23.4103L8.40763 17.8222H13.5966L12.6653 22.8781C12.5322 23.5434 12.9314 24.3417 13.7297 24.4747H13.8627C14.528 24.6078 15.3263 24.2086 15.4594 23.5434V23.4103L16.5238 17.8222H22.6441C23.4424 17.8222 23.9746 17.29 23.9746 16.4917C23.9746 15.6934 23.4424 15.1611 22.6441 15.1611ZM8.93983 15.1611L9.87119 9.83909H15.0602L14.1288 15.1611H8.93983Z" fill="#214b92"/>
</g>
<defs>
<clipPath id="clip0_592_4907">
<rect width="24" height="24" fill="white" transform="translate(0 0.5)"/>
</clipPath>
</defs>
</svg>
