<svg width="24" height="24" viewBox="0 0 24 24" fill="none" xmlns="http://www.w3.org/2000/svg">
<path d="M15 6C15 2.691 12.309 0 9.00002 0C5.69102 0 3.00002 2.691 3.00002 6C3.00002 9.309 5.69102 12 9.00002 12C12.309 12 15 9.309 15 6ZM9.00002 10C6.79402 10 5.00002 8.206 5.00002 6C5.00002 3.794 6.79402 2 9.00002 2C11.206 2 13 3.794 13 6C13 8.206 11.206 10 9.00002 10ZM8.99202 14.938C9.00826 15.0683 8.99866 15.2006 8.96378 15.3272C8.92889 15.4539 8.8694 15.5724 8.78871 15.676C8.70801 15.7796 8.60768 15.8664 8.49347 15.9312C8.37925 15.9961 8.25337 16.0378 8.12302 16.054C6.43197 16.2686 4.87716 17.0924 3.74985 18.371C2.62254 19.6496 2.00006 21.2954 1.99902 23C1.99902 23.2652 1.89367 23.5196 1.70613 23.7071C1.51859 23.8946 1.26424 24 0.999023 24C0.733807 24 0.479453 23.8946 0.291917 23.7071C0.10438 23.5196 -0.000976562 23.2652 -0.000976562 23C-0.000976562 18.469 3.38502 14.63 7.87502 14.07C8.13811 14.038 8.40317 14.1115 8.61228 14.2743C8.82139 14.4371 8.95755 14.6761 8.99102 14.939L8.99202 14.938ZM22.696 19.133L21.722 18.571C21.888 18.074 22 17.552 22 16.999C22 16.446 21.889 15.924 21.722 15.427L22.696 14.865C22.9238 14.7314 23.0896 14.5132 23.1571 14.2579C23.2246 14.0026 23.1883 13.731 23.0563 13.5023C22.9243 13.2736 22.7071 13.1064 22.4523 13.0373C22.1974 12.9681 21.9256 13.0025 21.696 13.133L20.723 13.695C20.0125 12.8821 19.0567 12.3226 18 12.101V11C18 10.7348 17.8947 10.4804 17.7071 10.2929C17.5196 10.1054 17.2652 10 17 10C16.7348 10 16.4805 10.1054 16.2929 10.2929C16.1054 10.4804 16 10.7348 16 11V12.101C14.9437 12.3234 13.9881 12.8827 13.277 13.695L12.304 13.133C12.0745 13.0025 11.8026 12.9681 11.5478 13.0373C11.2929 13.1064 11.0758 13.2736 10.9437 13.5023C10.8117 13.731 10.7755 14.0026 10.843 14.2579C10.9105 14.5132 11.0762 14.7314 11.304 14.865L12.278 15.427C12.112 15.924 12 16.446 12 16.999C12 17.552 12.111 18.074 12.278 18.571L11.304 19.133C11.0762 19.2666 10.9105 19.4848 10.843 19.7401C10.7755 19.9954 10.8117 20.267 10.9437 20.4957C11.0758 20.7244 11.2929 20.8916 11.5478 20.9607C11.8026 21.0299 12.0745 20.9955 12.304 20.865L13.277 20.303C13.9876 21.1159 14.9434 21.6754 16 21.897V22.998C16 23.2632 16.1054 23.5176 16.2929 23.7051C16.4805 23.8926 16.7348 23.998 17 23.998C17.2652 23.998 17.5196 23.8926 17.7071 23.7051C17.8947 23.5176 18 23.2632 18 22.998V21.897C19.0564 21.6746 20.012 21.1153 20.723 20.303L21.696 20.865C21.8096 20.9311 21.9352 20.974 22.0655 20.9913C22.1958 21.0087 22.3282 21.0001 22.4551 20.9661C22.5821 20.9321 22.7011 20.8733 22.8052 20.7931C22.9094 20.713 22.9966 20.613 23.062 20.499C23.1946 20.2693 23.2306 19.9964 23.1619 19.7402C23.0933 19.484 22.9257 19.2656 22.696 19.133ZM17 19.999C15.346 19.999 14 18.653 14 16.999C14 15.345 15.346 13.999 17 13.999C18.654 13.999 20 15.345 20 16.999C20 18.653 18.654 19.999 17 19.999Z" fill="#214b92"/>
</svg>
