<svg width="24" height="24" viewBox="0 0 24 24" fill="none" xmlns="http://www.w3.org/2000/svg">
<path fill-rule="evenodd" clip-rule="evenodd" d="M10.5 20.263H2.95C2.89696 20.263 2.84609 20.2419 2.80858 20.2044C2.77107 20.1669 2.75 20.116 2.75 20.063V18.613C2.75 17.782 3.343 17.05 4.257 16.428C5.889 15.314 8.53 14.612 11.5 14.612C11.99 14.612 12.471 14.632 12.941 14.669C13.0404 14.679 13.1407 14.6691 13.2362 14.6398C13.3316 14.6105 13.4203 14.5624 13.4969 14.4984C13.5736 14.4344 13.6367 14.3557 13.6825 14.267C13.7283 14.1783 13.756 14.0813 13.7638 13.9818C13.7717 13.8822 13.7596 13.7821 13.7282 13.6873C13.6969 13.5925 13.6469 13.5049 13.5813 13.4297C13.5156 13.3544 13.4356 13.2931 13.3459 13.2492C13.2562 13.2053 13.1587 13.1797 13.059 13.174C12.5404 13.1324 12.0203 13.1117 11.5 13.112C8.178 13.112 5.237 13.943 3.411 15.188C2.018 16.138 1.25 17.345 1.25 18.612V20.063C1.25027 20.5137 1.42949 20.9458 1.74827 21.2644C2.06706 21.583 2.49931 21.762 2.95 21.762L10.5 21.763C10.6989 21.763 10.8897 21.684 11.0303 21.5433C11.171 21.4027 11.25 21.2119 11.25 21.013C11.25 20.8141 11.171 20.6233 11.0303 20.4827C10.8897 20.342 10.6989 20.263 10.5 20.263ZM11.5 1.25C8.464 1.25 6 3.714 6 6.75C6 9.786 8.464 12.25 11.5 12.25C14.536 12.25 17 9.786 17 6.75C17 3.714 14.536 1.25 11.5 1.25ZM11.5 2.75C13.708 2.75 15.5 4.542 15.5 6.75C15.5 8.958 13.708 10.75 11.5 10.75C9.292 10.75 7.5 8.958 7.5 6.75C7.5 4.542 9.292 2.75 11.5 2.75ZM18.152 20.208C18.8282 20.3105 19.5194 20.238 20.1596 19.9975C20.7999 19.757 21.3678 19.3565 21.8093 18.8341C22.2507 18.3117 22.551 17.685 22.6814 17.0136C22.8119 16.3422 22.7681 15.6486 22.5543 14.999C22.3405 14.3493 21.9639 13.7653 21.4603 13.3025C20.9566 12.8398 20.3429 12.5138 19.6775 12.3557C19.0121 12.1975 18.3173 12.2125 17.6593 12.3992C17.0014 12.5859 16.4022 12.938 15.919 13.422C15.4756 13.8649 15.1426 14.4058 14.9469 15.0011C14.7511 15.5964 14.6981 16.2294 14.792 16.849L12.47 19.17C12.4002 19.2397 12.3449 19.3225 12.3071 19.4136C12.2694 19.5047 12.25 19.6024 12.25 19.701V22C12.25 22.414 12.586 22.75 13 22.75H15.299C15.3976 22.75 15.4953 22.7306 15.5864 22.6929C15.6775 22.6551 15.7603 22.5998 15.83 22.53L18.152 20.208ZM18.1 18.668C17.9731 18.6342 17.8395 18.6343 17.7126 18.6684C17.5857 18.7024 17.47 18.7692 17.377 18.862L14.989 21.25H13.75V20.011L16.138 17.623C16.2308 17.53 16.2976 17.4143 16.3317 17.2874C16.3657 17.1606 16.3658 17.0269 16.332 16.9C16.1908 16.3683 16.2286 15.8048 16.4397 15.2967C16.6507 14.7887 17.0232 14.3642 17.4996 14.089C17.976 13.8138 18.5298 13.7032 19.0754 13.7742C19.621 13.8453 20.1279 14.094 20.518 14.482C20.906 14.8721 21.1547 15.3791 21.2258 15.9246C21.2968 16.4702 21.1862 17.024 20.911 17.5004C20.6358 17.9768 20.2113 18.3493 19.7033 18.5603C19.1952 18.7714 18.6317 18.8092 18.1 18.668Z" fill="#006980"/>
<path fill-rule="evenodd" clip-rule="evenodd" d="M17.982 17.018C17.8774 16.9181 17.7939 16.7983 17.7363 16.6656C17.6787 16.533 17.6482 16.3901 17.6466 16.2455C17.645 16.1009 17.6723 15.9574 17.727 15.8235C17.7816 15.6896 17.8625 15.568 17.9648 15.4658C18.0672 15.3636 18.1889 15.2829 18.3229 15.2284C18.4568 15.1739 18.6004 15.1468 18.745 15.1486C18.8896 15.1504 19.0324 15.1811 19.165 15.2388C19.2975 15.2966 19.4172 15.3803 19.517 15.485C19.7125 15.6901 19.82 15.9636 19.8165 16.2469C19.813 16.5303 19.6988 16.801 19.4983 17.0012C19.2978 17.2014 19.0269 17.3153 18.7436 17.3184C18.4602 17.3216 18.1869 17.2137 17.982 17.018Z" fill="#006980"/>
</svg>
