<svg width="22" height="22" viewBox="0 0 22 22" fill="none" xmlns="http://www.w3.org/2000/svg">
<path d="M4.64551 10.2743C4.64551 8.35538 6.20114 6.79975 8.12008 6.79975C10.039 6.79975 11.5947 8.35538 11.5947 10.2743C11.5947 12.1933 10.039 13.7489 8.12008 13.7489C6.20114 13.7489 4.64551 12.1933 4.64551 10.2743Z" stroke="#005A64" stroke-width="1.5" stroke-miterlimit="10" stroke-linecap="round" stroke-linejoin="round"/>
<path d="M10.0692 21H2.69635C1.54681 21 0.730671 19.8799 1.08266 18.7856C2.0177 15.8783 4.88347 13.7745 8.10152 13.7745C9.63664 13.7745 11.0599 14.2533 12.2302 15.0696" stroke="#005A64" stroke-width="1.5" stroke-miterlimit="10" stroke-linecap="round" stroke-linejoin="round"/>
<path d="M13.4167 4.47458C13.4167 2.55564 14.9724 1.00001 16.8913 1.00001C18.8103 1.00001 20.3659 2.55564 20.3659 4.47458C20.3659 6.39352 18.8103 7.94916 16.8913 7.94916C14.9724 7.94916 13.4167 6.39352 13.4167 4.47458Z" stroke="#005A64" stroke-width="1.5" stroke-miterlimit="10" stroke-linecap="round" stroke-linejoin="round"/>
<path d="M11.6213 10.2373C12.9385 8.84408 14.8041 7.97476 16.8727 7.97476C18.4078 7.97476 19.8311 8.45349 21.0014 9.2698" stroke="#005A64" stroke-width="1.5" stroke-miterlimit="10" stroke-linecap="round" stroke-linejoin="round"/>
<path d="M17.8235 21V14.6441" stroke="#005A64" stroke-width="1.5" stroke-miterlimit="10" stroke-linecap="round" stroke-linejoin="round"/>
<path d="M21.0014 17.822H14.6455" stroke="#005A64" stroke-width="1.5" stroke-miterlimit="10" stroke-linecap="round" stroke-linejoin="round"/>
</svg>
