<svg width="22" height="15" viewBox="0 0 22 15" fill="none" xmlns="http://www.w3.org/2000/svg">
<g clip-path="url(#clip0_54_681)">
<path d="M7.13375 14.1071H4.23125V4.76023H7.13375V14.1071ZM5.68094 3.48523C4.75281 3.48523 4 2.71648 4 1.78836C4 1.34255 4.1771 0.914994 4.49234 0.599757C4.80757 0.28452 5.23513 0.107422 5.68094 0.107422C6.12675 0.107422 6.5543 0.28452 6.86954 0.599757C7.18478 0.914994 7.36188 1.34255 7.36188 1.78836C7.36188 2.71648 6.60875 3.48523 5.68094 3.48523ZM17.9969 14.1071H15.1006V9.55711C15.1006 8.47273 15.0787 7.08211 13.5916 7.08211C12.0825 7.08211 11.8513 8.26023 11.8513 9.47898V14.1071H8.95188V4.76023H11.7356V6.03523H11.7762C12.1637 5.30086 13.1103 4.52586 14.5225 4.52586C17.46 4.52586 18 6.46023 18 8.97273V14.1071H17.9969Z" fill="white"/>
</g>
<defs>
<clipPath id="clip0_54_681">
<rect width="14" height="13.9997" fill="white" transform="translate(4 0.107422)"/>
</clipPath>
</defs>
</svg>
