<svg width="49" height="48" viewBox="0 0 49 48" fill="none" xmlns="http://www.w3.org/2000/svg">
<g clip-path="url(#clip0_4108_18139)">
<path d="M43.3277 14.135C43.0033 13.8305 42.713 13.5611 42.4523 13.3192C40.3338 11.3541 40.3338 11.3541 39.6911 8.53677C39.6119 8.18999 39.5239 7.80384 39.4224 7.37071C38.9289 5.26406 37.1459 3.7678 34.9855 3.64771C34.5414 3.62305 34.1458 3.60327 33.7906 3.58565C30.9046 3.44193 30.9046 3.44193 28.6013 1.69687C28.2836 1.45574 27.9652 1.21558 27.646 0.976398C25.9138 -0.320258 23.5862 -0.320258 21.8541 0.976398C21.5349 1.21556 21.2165 1.45571 20.8988 1.69687C18.5956 3.44193 18.5956 3.44193 15.7095 3.58565C15.3543 3.60327 14.9587 3.62305 14.5146 3.64771C12.3542 3.7679 10.5712 5.26406 10.0776 7.37071C9.97613 7.80384 9.8881 8.18999 9.80897 8.53677C9.16631 11.354 9.16632 11.354 7.04785 13.3191C6.78713 13.5611 6.49678 13.8305 6.17241 14.1349C4.59478 15.6156 4.19053 17.9078 5.16657 19.8388C5.36728 20.2357 5.54794 20.5882 5.71031 20.9046C7.02882 23.4759 7.02882 23.4759 6.66928 26.3433C6.62503 26.6961 6.57581 27.0891 6.52294 27.5307C6.26616 29.6791 7.42997 31.6949 9.41897 32.5467C9.82782 32.7218 10.1928 32.8757 10.5204 33.0137C11.8926 33.5919 12.5573 33.8727 13.0942 34.3407L8.80031 43.5635C8.74254 43.6877 8.71992 43.8255 8.73488 43.9617C8.74985 44.0979 8.80184 44.2274 8.88522 44.3362C8.96859 44.445 9.08017 44.5288 9.20783 44.5787C9.33549 44.6285 9.47436 44.6424 9.60938 44.6189L13.8882 43.8712L16.0704 47.6268C16.1393 47.7453 16.2393 47.8427 16.3596 47.9084C16.48 47.9741 16.616 48.0056 16.7529 47.9993C16.8899 47.9931 17.0225 47.9495 17.1364 47.8732C17.2503 47.7969 17.3411 47.6908 17.3989 47.5665L21.1792 39.4466C21.4718 39.3574 21.7409 39.2744 21.989 39.1978C24.75 38.3458 24.7502 38.3458 27.5112 39.1978C27.7943 39.2852 28.1062 39.3813 28.448 39.4852L32.2103 47.5665C32.2706 47.696 32.3666 47.8056 32.4871 47.8823C32.6076 47.9591 32.7475 47.9999 32.8903 47.9999C33.1566 47.9999 33.404 47.8583 33.5387 47.6268L35.7209 43.8712L39.9998 44.6189C40.1348 44.6424 40.2736 44.6285 40.4013 44.5787C40.529 44.5288 40.6405 44.445 40.7239 44.3362C40.8073 44.2274 40.8593 44.0979 40.8742 43.9617C40.8892 43.8255 40.8666 43.6877 40.8088 43.5635L36.4841 34.2745C37.0082 33.8451 37.6733 33.5643 38.9797 33.0138C39.3074 32.8756 39.6724 32.7218 40.0812 32.5467C42.0702 31.6949 43.234 29.6792 42.9773 27.5307C42.9246 27.0891 42.8753 26.6961 42.8309 26.3432C42.4713 23.4759 42.4713 23.4759 43.7899 20.9046C43.9521 20.5881 44.1328 20.2357 44.3335 19.8388C45.3096 17.9079 44.9053 15.6156 43.3277 14.135ZM16.6454 45.6308L14.9224 42.6658C14.8453 42.5333 14.7294 42.4275 14.5904 42.3628C14.4514 42.2981 14.2959 42.2775 14.1448 42.3038L10.7666 42.8941L14.1457 35.6362C14.3224 35.9003 14.5192 36.2047 14.7507 36.5633C14.9438 36.8622 15.1586 37.195 15.4021 37.5674C16.3079 38.9525 17.8006 39.7429 19.3793 39.7583L16.6454 45.6308ZM35.4641 42.3037C35.3131 42.2774 35.1576 42.298 35.0186 42.3627C34.8796 42.4275 34.7637 42.5332 34.6866 42.6657L32.9635 45.6307L30.2279 39.7547C31.7665 39.7052 33.2126 38.9209 34.0978 37.5673C34.3413 37.1949 34.5562 36.8622 34.749 36.5635C35.0091 36.1607 35.2255 35.8258 35.4187 35.5404L38.8422 42.8939L35.4641 42.3037ZM42.9948 19.1622C42.8159 19.5154 42.636 19.8681 42.4551 20.2203C40.9682 23.1199 40.937 23.2967 41.3425 26.5299C41.3865 26.8803 41.4353 27.2704 41.4878 27.7087C41.6677 29.2135 40.8837 30.5713 39.4906 31.1679C39.0847 31.3417 38.7224 31.4944 38.397 31.6314C35.3943 32.8969 35.2567 33.0123 33.489 35.7498C33.2975 36.0464 33.0842 36.3768 32.8425 36.7462C32.013 38.0144 30.5399 38.5506 29.0892 38.1123C28.6665 37.9846 28.2908 37.8686 27.9534 37.7646C26.3967 37.2842 25.5733 37.0439 24.75 37.0439C23.9267 37.0439 23.1034 37.2842 21.5466 37.7646C21.2092 37.8686 20.8335 37.9846 20.4108 38.1123C18.9603 38.5507 17.4869 38.0145 16.6575 36.7462C16.4157 36.3766 16.2024 36.0462 16.0109 35.7496C14.2433 33.0124 14.1057 32.8969 11.1029 31.6314C10.7379 31.478 10.3734 31.3235 10.0094 31.1679C8.61638 30.5713 7.83235 29.2134 8.01225 27.7087C8.05949 27.3157 8.10793 26.9228 8.15756 26.53C8.56303 23.2967 8.53182 23.1199 7.04494 20.2203C6.86397 19.8681 6.68406 19.5154 6.50522 19.1622C5.8216 17.8097 6.09385 16.2657 7.19878 15.2286C7.52082 14.9264 7.8091 14.659 8.06794 14.4189C10.4567 12.2029 10.5465 12.0472 11.2713 8.87043C11.3498 8.52618 11.4373 8.14284 11.538 7.7129C11.8838 6.23737 13.0848 5.22955 14.5979 5.14546C15.0388 5.1209 15.4315 5.1014 15.7841 5.08377C19.0386 4.92168 19.2074 4.86027 21.8047 2.89246C22.0861 2.67927 22.3995 2.4418 22.7529 2.17715C23.9662 1.26899 25.5339 1.26899 26.7472 2.17715C27.1007 2.4418 27.414 2.67918 27.6954 2.89246C30.2927 4.86027 30.4615 4.92168 33.716 5.08377C34.0687 5.1014 34.4613 5.1209 34.9022 5.14546C36.4153 5.22955 37.6163 6.23737 37.962 7.7129C38.0627 8.14284 38.1502 8.52618 38.2287 8.87043C38.9535 12.0472 39.0433 12.2029 41.4322 14.4189C41.691 14.6591 41.9793 14.9265 42.3013 15.2286C43.4062 16.2657 43.6784 17.8098 42.9948 19.1622ZM24.75 7.41196C17.8747 7.41196 12.2813 13.0055 12.2813 19.8807C12.2813 26.7561 17.8747 32.3495 24.75 32.3495C31.6253 32.3495 37.2188 26.7561 37.2188 19.8807C37.2188 13.0055 31.6253 7.41196 24.75 7.41196ZM17.4087 28.0232C17.9745 24.4276 21.0668 21.7608 24.75 21.7608C28.4332 21.7608 31.5255 24.4276 32.0913 28.0232C30.1459 29.7789 27.5707 30.8494 24.75 30.8494C21.9293 30.8494 19.3541 29.7789 17.4087 28.0232ZM24.7501 20.2608C22.8822 20.2608 21.3625 18.7411 21.3625 16.8732C21.3625 15.0053 22.8822 13.4856 24.7501 13.4856C26.6181 13.4856 28.1378 15.0053 28.1378 16.8732C28.1378 18.7411 26.6181 20.2608 24.7501 20.2608ZM33.3312 26.7045C32.526 23.9036 30.4076 21.7035 27.7074 20.7612C28.8795 19.8676 29.6378 18.4576 29.6378 16.8733C29.6378 14.1783 27.4451 11.9857 24.7501 11.9857C22.0551 11.9857 19.8625 14.1783 19.8625 16.8733C19.8625 18.4576 20.6207 19.8675 21.7927 20.7612C19.0925 21.7035 16.974 23.9037 16.1688 26.7046C14.6753 24.8301 13.7813 22.458 13.7813 19.8807C13.7813 13.8325 18.7018 8.91196 24.75 8.91196C30.7982 8.91196 35.7188 13.8325 35.7188 19.8807C35.7188 22.458 34.8248 24.8301 33.3312 26.7045Z" fill="black"/>
</g>
<defs>
<clipPath id="clip0_4108_18139">
<rect width="48" height="48" fill="white" transform="translate(0.75)"/>
</clipPath>
</defs>
</svg>
