<svg width="24" height="24" viewBox="0 0 24 24" fill="none" xmlns="http://www.w3.org/2000/svg">
<path d="M5.5 7C7.43 7 9 5.43 9 3.5C9 1.57 7.43 0 5.5 0C3.57 0 2 1.57 2 3.5C2 5.43 3.57 7 5.5 7ZM5.5 2C6.327 2 7 2.673 7 3.5C7 4.327 6.327 5 5.5 5C4.673 5 4 4.327 4 3.5C4 2.673 4.673 2 5.5 2ZM14.5 7C16.43 7 18 5.43 18 3.5C18 1.57 16.43 0 14.5 0C12.57 0 11 1.57 11 3.5C11 5.43 12.57 7 14.5 7ZM14.5 2C15.327 2 16 2.673 16 3.5C16 4.327 15.327 5 14.5 5C13.673 5 13 4.327 13 3.5C13 2.673 13.673 2 14.5 2ZM22 17C22 16.448 21.91 15.918 21.744 15.421L23.564 14.372L22.566 12.639L20.743 13.689C20.0248 12.8763 19.0622 12.3187 18 12.1V9.999H16V12.1C14.9377 12.3185 13.975 12.8761 13.257 13.689L11.434 12.639L10.436 14.372L12.256 15.421C12.09 15.918 12 16.448 12 17C12 17.552 12.09 18.082 12.256 18.579L10.436 19.628L11.434 21.361L13.257 20.311C13.9752 21.1237 14.9378 21.6813 16 21.9V24.001H18V21.9C19.0623 21.6815 20.025 21.1239 20.743 20.311L22.566 21.361L23.564 19.628L21.744 18.579C21.914 18.0699 22.0005 17.5367 22 17ZM17 20C15.346 20 14 18.654 14 17C14 15.346 15.346 14 17 14C18.654 14 20 15.346 20 17C20 18.654 18.654 20 17 20ZM10.951 10.35C10.6848 10.1255 10.3482 10.0016 10 10C9.68549 9.99831 9.37848 10.0959 9.12269 10.2789C8.86689 10.4619 8.67538 10.721 8.57543 11.0192C8.47547 11.3174 8.47217 11.6395 8.566 11.9397C8.65983 12.2399 8.84601 12.5028 9.098 12.691C8.77693 13.2844 8.52367 13.912 8.343 14.562C7.78721 14.2665 7.32217 13.8255 6.99756 13.2862C6.67294 12.7469 6.50097 12.1295 6.5 11.5C6.5 9.57 8.07 8 10 8C11.028 8 11.948 8.452 12.587 9.161C11.9988 9.4947 11.45 9.89355 10.951 10.35ZM10 16C9.964 16.329 9.941 16.662 9.941 17C9.941 17.338 9.963 17.671 10 18H7C6.449 18 6 18.449 6 19V22H4V19C4 17.346 5.346 16 7 16H10ZM4.713 10H3C2.73478 10 2.48043 10.1054 2.29289 10.2929C2.10536 10.4804 2 10.7348 2 11V14H0V11C0 9.346 1.346 8 3 8H5.761C5.27693 8.58675 4.92036 9.26787 4.714 10H4.713Z" fill="#006980"/>
</svg>
