<svg width="20" height="20" viewBox="0 0 20 20" fill="none" xmlns="http://www.w3.org/2000/svg">
<g clip-path="url(#clip0_2087_7506)">
<path d="M9.41683 8.0835C9.5835 8.25016 9.75016 8.3335 10.0002 8.3335C10.2502 8.3335 10.4168 8.25016 10.5835 8.0835L13.5002 5.16683C13.6668 5.00016 13.7502 4.8335 13.7502 4.5835C13.7502 4.3335 13.6668 4.16683 13.5002 4.00016L10.5835 1.0835C10.2502 0.750163 9.75016 0.750163 9.41683 1.0835L6.50016 4.00016C6.16683 4.3335 6.16683 4.8335 6.50016 5.16683L9.41683 8.0835ZM10.0002 2.8335L11.7502 4.5835L10.0002 6.3335L8.25016 4.5835L10.0002 2.8335ZM8.0835 9.41683L5.16683 6.50016C5.00016 6.3335 4.8335 6.25016 4.5835 6.25016C4.3335 6.25016 4.16683 6.3335 4.00016 6.50016L1.0835 9.41683C0.916829 9.5835 0.833496 9.75016 0.833496 10.0002C0.833496 10.2502 0.916829 10.4168 1.0835 10.5835L4.00016 13.5002C4.16683 13.6668 4.3335 13.7502 4.5835 13.7502C4.8335 13.7502 5.00016 13.6668 5.16683 13.5002L8.0835 10.5835C8.41683 10.2502 8.41683 9.75016 8.0835 9.41683ZM4.5835 11.7502L2.8335 10.0002L4.5835 8.25016L6.3335 10.0002L4.5835 11.7502ZM10.5835 11.9168C10.2502 11.5835 9.75016 11.5835 9.41683 11.9168L6.50016 14.8335C6.3335 15.0002 6.25016 15.1668 6.25016 15.4168C6.25016 15.6668 6.3335 15.8335 6.50016 16.0002L9.41683 18.9168C9.5835 19.0835 9.75016 19.1668 10.0002 19.1668C10.2502 19.1668 10.4168 19.0835 10.5835 18.9168L13.5002 16.0002C13.6668 15.8335 13.7502 15.6668 13.7502 15.4168C13.7502 15.1668 13.6668 15.0002 13.5002 14.8335L10.5835 11.9168ZM10.0002 17.1668L8.25016 15.4168L10.0002 13.6668L11.7502 15.4168L10.0002 17.1668ZM18.9168 9.41683L16.0002 6.50016C15.6668 6.16683 15.1668 6.16683 14.8335 6.50016L11.9168 9.41683C11.5835 9.75016 11.5835 10.2502 11.9168 10.5835L14.8335 13.5002C15.0002 13.6668 15.1668 13.7502 15.4168 13.7502C15.6668 13.7502 15.8335 13.6668 16.0002 13.5002L18.9168 10.5835C19.0835 10.4168 19.1668 10.2502 19.1668 10.0002C19.1668 9.75016 19.0835 9.5835 18.9168 9.41683ZM15.4168 11.7502L13.6668 10.0002L15.4168 8.25016L17.1668 10.0002L15.4168 11.7502Z" fill="#214b92"/>
</g>
<defs>
<clipPath id="clip0_2087_7506">
<rect width="20" height="20" fill="white"/>
</clipPath>
</defs>
</svg>
