<svg width="16" height="16" viewBox="0 0 16 16" fill="none" xmlns="http://www.w3.org/2000/svg">
<g clip-path="url(#clip0_1949_10005)">
<path d="M6.16564 7.44005C5.84565 7.12006 5.36565 7.12006 5.04566 7.44005C4.72567 7.76005 4.72567 8.24004 5.04566 8.56003L7.44562 10.96C7.60562 11.12 7.76562 11.2 8.00561 11.2C8.24561 11.2 8.4056 11.12 8.5656 10.96L14.1655 4.5601C14.4055 4.1601 14.4055 3.68011 14.0055 3.44012C13.6855 3.20012 13.2055 3.20012 12.9655 3.52011L8.00561 9.20002L6.16564 7.44005Z" fill="#02BC7D"/>
<path d="M15.2056 7.19988C14.7256 7.19988 14.4056 7.51988 14.4056 7.99987C14.4056 11.5198 11.5257 14.3998 8.00573 14.3998C4.48579 14.3998 1.60583 11.5198 1.60583 7.99987C1.60583 6.3199 2.24582 4.71992 3.4458 3.51994C4.64578 2.23996 6.24576 1.59997 8.00573 1.59997C8.48572 1.59997 9.04571 1.67997 9.5257 1.75997C9.9257 1.91997 10.4057 1.67997 10.5657 1.19998C10.7257 0.719988 10.4057 0.399993 10.0057 0.239996H9.9257C9.28571 0.0799987 8.64572 0 8.00573 0C3.6058 0 0.00585938 3.59994 0.00585938 8.07987C0.00585938 10.1598 0.885845 12.2398 2.32582 13.6798C3.8458 15.1998 5.84576 15.9997 7.92573 15.9997C12.3257 15.9997 15.9256 12.3998 15.9256 7.99987C16.0056 7.51988 15.6056 7.19988 15.2056 7.19988Z" fill="#02BC7D"/>
</g>
<defs>
<clipPath id="clip0_1949_10005">
<rect width="16" height="16" fill="white"/>
</clipPath>
</defs>
</svg>
