<svg width="22" height="21" viewBox="0 0 22 21" fill="none" xmlns="http://www.w3.org/2000/svg">
<path d="M21.8457 7.77761C21.6582 7.18905 21.2835 6.67562 20.7771 6.31324C20.2707 5.95087 19.6595 5.75879 19.0338 5.76542H15.0282L13.8115 2.02667C13.6202 1.43816 13.2443 0.924767 12.7379 0.560521C12.2315 0.196275 11.6209 0 10.9941 0C10.3673 0 9.75669 0.196275 9.25032 0.560521C8.74396 0.924767 8.36801 1.43816 8.17669 2.02667L6.96005 5.76542H2.95441C2.33072 5.76629 1.72327 5.96147 1.21882 6.32307C0.71437 6.68467 0.338719 7.19419 0.145525 7.77887C-0.0476699 8.36354 -0.048525 8.99346 0.143081 9.57864C0.334688 10.1638 0.708954 10.6743 1.21242 11.0373L4.47268 13.3875L3.23312 17.1724C3.03281 17.7594 3.03027 18.3945 3.22589 18.9831C3.42151 19.5716 3.80481 20.0821 4.31865 20.4384C4.82369 20.8061 5.43571 21.0031 6.06353 21C6.69134 20.9969 7.30133 20.7939 7.80262 20.4212L10.9941 18.1053L14.1865 20.4185C14.6906 20.7841 15.2994 20.9827 15.9252 20.9857C16.551 20.9887 17.1616 20.796 17.6694 20.4352C18.1771 20.0745 18.5557 19.5643 18.7508 18.978C18.9459 18.3917 18.9474 17.7596 18.7551 17.1724L17.5155 13.3875L20.7795 11.0373C21.2887 10.6789 21.6673 10.1684 21.8594 9.58131C22.0514 8.99424 22.0466 8.3618 21.8457 7.77761ZM19.6976 9.57738L15.8983 12.3155C15.7422 12.4277 15.6261 12.5857 15.5665 12.7668C15.5069 12.948 15.5068 13.1431 15.5664 13.3243L17.0104 17.7265C17.0834 17.9498 17.0828 18.1902 17.0086 18.4131C16.9344 18.636 16.7904 18.8299 16.5973 18.9671C16.4042 19.1042 16.172 19.1774 15.934 19.1762C15.6961 19.175 15.4646 19.0995 15.273 18.9604L11.5369 16.2485C11.3795 16.1346 11.1894 16.0731 10.9941 16.0731C10.7989 16.0731 10.6087 16.1346 10.4513 16.2485L6.71525 18.9604C6.52371 19.1013 6.29162 19.1785 6.05263 19.1806C5.81363 19.1827 5.58016 19.1098 5.38606 18.9723C5.19195 18.8348 5.0473 18.6399 4.97308 18.4159C4.89886 18.1919 4.89893 17.9505 4.97327 17.7265L6.42187 13.3243C6.48139 13.1431 6.48134 12.948 6.42174 12.7668C6.36214 12.5857 6.24603 12.4277 6.08997 12.3155L2.29062 9.57738C2.09928 9.43925 1.95711 9.24504 1.88441 9.02248C1.81171 8.79993 1.8122 8.56041 1.88582 8.33815C1.95944 8.11589 2.10241 7.92225 2.29432 7.78489C2.48623 7.64753 2.71726 7.57348 2.95441 7.57332H7.63025C7.82436 7.57331 8.01346 7.51257 8.17031 7.39983C8.32717 7.28709 8.44368 7.12818 8.50308 6.94598L9.92417 2.57899C9.99711 2.35552 10.1401 2.16063 10.3325 2.02238C10.525 1.88412 10.7569 1.80964 10.995 1.80964C11.2331 1.80964 11.4651 1.88412 11.6575 2.02238C11.85 2.16063 11.9929 2.35552 12.0659 2.57899L13.487 6.94598C13.5464 7.12818 13.6629 7.28709 13.8197 7.39983C13.9766 7.51257 14.1657 7.57331 14.3598 7.57332H19.0357C19.2728 7.57348 19.5038 7.64753 19.6957 7.78489C19.8876 7.92225 20.0306 8.11589 20.1042 8.33815C20.1779 8.56041 20.1783 8.79993 20.1056 9.02248C20.033 9.24504 19.8908 9.43925 19.6994 9.57738H19.6976Z" fill="#006980"/>
</svg>
