<svg width="20" height="20" viewBox="0 0 20 20" fill="none" xmlns="http://www.w3.org/2000/svg">
<path d="M19.1667 18.3333H4.16667C3.50363 18.3333 2.86774 18.0699 2.3989 17.6011C1.93006 17.1323 1.66667 16.4964 1.66667 15.8333V0.833333C1.66667 0.61232 1.57887 0.400358 1.42259 0.244078C1.26631 0.0877974 1.05435 0 0.833333 0C0.61232 0 0.400358 0.0877974 0.244078 0.244078C0.0877974 0.400358 0 0.61232 0 0.833333L0 15.8333C0.00132321 16.938 0.440735 17.997 1.22185 18.7782C2.00296 19.5593 3.062 19.9987 4.16667 20H19.1667C19.3877 20 19.5996 19.9122 19.7559 19.7559C19.9122 19.5996 20 19.3877 20 19.1667C20 18.9457 19.9122 18.7337 19.7559 18.5774C19.5996 18.4211 19.3877 18.3333 19.1667 18.3333Z" fill="#006980"/>
<path d="M4.99996 16.6667C5.22097 16.6667 5.43293 16.5789 5.58921 16.4226C5.7455 16.2663 5.83329 16.0543 5.83329 15.8333V10C5.83329 9.77899 5.7455 9.56702 5.58921 9.41074C5.43293 9.25446 5.22097 9.16667 4.99996 9.16667C4.77895 9.16667 4.56698 9.25446 4.4107 9.41074C4.25442 9.56702 4.16663 9.77899 4.16663 10V15.8333C4.16663 16.0543 4.25442 16.2663 4.4107 16.4226C4.56698 16.5789 4.77895 16.6667 4.99996 16.6667ZM8.33329 8.33333V15.8333C8.33329 16.0543 8.42109 16.2663 8.57737 16.4226C8.73365 16.5789 8.94561 16.6667 9.16663 16.6667C9.38764 16.6667 9.5996 16.5789 9.75588 16.4226C9.91216 16.2663 9.99996 16.0543 9.99996 15.8333V8.33333C9.99996 8.11232 9.91216 7.90036 9.75588 7.74408C9.5996 7.5878 9.38764 7.5 9.16663 7.5C8.94561 7.5 8.73365 7.5878 8.57737 7.74408C8.42109 7.90036 8.33329 8.11232 8.33329 8.33333ZM12.5 10.8333V15.8333C12.5 16.0543 12.5878 16.2663 12.744 16.4226C12.9003 16.5789 13.1123 16.6667 13.3333 16.6667C13.5543 16.6667 13.7663 16.5789 13.9225 16.4226C14.0788 16.2663 14.1666 16.0543 14.1666 15.8333V10.8333C14.1666 10.6123 14.0788 10.4004 13.9225 10.2441C13.7663 10.0878 13.5543 10 13.3333 10C13.1123 10 12.9003 10.0878 12.744 10.2441C12.5878 10.4004 12.5 10.6123 12.5 10.8333ZM16.6666 7.5V15.8333C16.6666 16.0543 16.7544 16.2663 16.9107 16.4226C17.067 16.5789 17.2789 16.6667 17.5 16.6667C17.721 16.6667 17.9329 16.5789 18.0892 16.4226C18.2455 16.2663 18.3333 16.0543 18.3333 15.8333V7.5C18.3333 7.27899 18.2455 7.06702 18.0892 6.91074C17.9329 6.75446 17.721 6.66667 17.5 6.66667C17.2789 6.66667 17.067 6.75446 16.9107 6.91074C16.7544 7.06702 16.6666 7.27899 16.6666 7.5ZM4.99996 7.5C5.22095 7.49995 5.43288 7.41212 5.58913 7.25583L8.57746 4.2675C8.73629 4.11619 8.94725 4.03179 9.16663 4.03179C9.386 4.03179 9.59696 4.11619 9.75579 4.2675L11.5658 6.0775C12.0346 6.54618 12.6704 6.80947 13.3333 6.80947C13.9962 6.80947 14.632 6.54618 15.1008 6.0775L19.7558 1.4225C19.9076 1.26533 19.9916 1.05483 19.9897 0.836331C19.9878 0.617834 19.9001 0.408823 19.7456 0.254316C19.5911 0.0998096 19.3821 0.0121688 19.1636 0.0102701C18.9451 0.00837147 18.7346 0.0923668 18.5775 0.244165L13.9225 4.89833C13.7662 5.05456 13.5543 5.14232 13.3333 5.14232C13.1123 5.14232 12.9004 5.05456 12.7441 4.89833L10.9341 3.08917C10.4653 2.62049 9.82954 2.3572 9.16663 2.3572C8.50372 2.3572 7.86794 2.62049 7.39913 3.08917L4.41079 6.0775C4.29428 6.19404 4.21495 6.34251 4.18281 6.50414C4.15067 6.66577 4.16717 6.83329 4.23023 6.98554C4.29329 7.13779 4.40007 7.26793 4.53708 7.3595C4.67409 7.45107 4.83517 7.49996 4.99996 7.5Z" fill="#006980"/>
</svg>
