<svg width="40" height="40" viewBox="0 0 40 40" fill="none" xmlns="http://www.w3.org/2000/svg">
<path d="M39.5938 31.5648C39.4527 32.8517 38.4104 33.8571 37.1187 33.9476C37.0118 33.9552 36.9057 33.9627 36.7995 33.9695C36.012 34.023 35.3996 34.677 35.3996 35.4666V38.4513C35.3996 39.4554 34.2504 40.0252 33.4518 39.417C31.9944 38.3069 30.0555 36.6556 28.8659 34.9434C28.5844 34.5379 28.1194 34.3016 27.6255 34.3044C23.9596 34.3233 20.2943 34.2043 16.6373 33.9476C15.6162 33.8763 14.7491 33.2346 14.3629 32.332C14.2583 32.0898 14.1907 31.8333 14.1622 31.5711C13.6198 26.616 13.6198 21.6602 14.1622 16.7044C14.3033 15.4188 15.3463 14.4182 16.6359 14.3278C22.0833 13.9451 27.5479 13.8682 33.0039 14.0977C34.375 14.1545 35.7469 14.2312 37.118 14.3278C38.4083 14.4182 39.452 15.4188 39.5931 16.7044C40.1356 21.658 40.1356 26.6111 39.5938 31.5648Z" fill="#214b92"/>
<path d="M15.5593 16.568C15.0038 21.6416 15.0038 26.7158 15.5593 31.7884C15.5884 32.057 15.6577 32.3197 15.7647 32.5678C16.0338 33.1953 16.5274 33.6997 17.1488 33.9825C16.9782 33.9714 16.8077 33.9598 16.6371 33.9477C15.6158 33.8764 14.7487 33.2348 14.3627 32.3318C14.2578 32.0897 14.1902 31.8332 14.162 31.5709C13.6192 26.6161 13.6192 21.6602 14.162 16.7043C14.303 15.419 15.3459 14.4183 16.6354 14.328C16.8873 14.3106 17.1392 14.2932 17.3916 14.2773C16.4095 14.6152 15.6771 15.495 15.5593 16.568Z" fill="#005A64"/>
<path d="M23.8716 29.7148C23.8731 30.5223 24.9333 31.1762 25.7409 31.1762H31.9913C32.6412 31.1762 33.1681 30.6493 33.1681 29.9991C33.1681 29.6741 33.0367 29.3795 32.8238 29.1666C32.6108 28.9537 32.3163 28.822 31.9913 28.822H32.4138C33.0637 28.822 33.591 28.2955 33.591 27.6448C33.591 27.3195 33.4596 27.0257 33.2459 26.8124C33.1368 26.703 33.007 26.6162 32.8642 26.5571C32.7214 26.498 32.5683 26.4678 32.4138 26.4681H32.8367C33.4785 26.4681 34.0005 25.9537 34.013 25.3145C34.0263 24.6541 33.4706 24.1139 32.81 24.1139H32.4137C33.0635 24.1139 33.5908 23.587 33.5908 22.9364C33.5908 22.6111 33.4595 22.3173 33.2457 22.104C33.1366 21.9945 33.0069 21.9078 32.8641 21.8487C32.7213 21.7896 32.5682 21.7593 32.4136 21.7597H29.103L29.0921 21.7426L30.3831 18.9924C30.7495 18.2127 30.4139 17.2838 29.6342 16.9176C29.4273 16.8201 29.2014 16.7695 28.9726 16.7695C28.3865 16.7695 27.8251 17.1013 27.5594 17.6669L27.0074 18.8429C26.6813 19.5372 26.1591 20.1241 25.4978 20.512C25.0612 20.7678 24.6976 21.158 24.4755 21.6576C24.3284 21.9886 24.2557 22.3479 24.2625 22.7102L23.8716 29.7148Z" fill="#FFDDCE"/>
<path d="M30.1167 17.2697C30.0637 17.264 30.0105 17.2612 29.9572 17.2613C29.3711 17.2613 28.8097 17.5931 28.544 18.1587L27.9921 19.3347C27.666 20.029 27.1437 20.6158 26.4824 21.0037C26.0458 21.2596 24.4754 21.657 24.4174 24.6319C24.4129 24.8643 24.3289 25.0787 24.2675 25.2928L24.2625 22.7097C24.2556 22.3475 24.3283 21.9881 24.4755 21.6571C24.6875 21.1774 25.0452 20.7765 25.4978 20.5115C26.159 20.1235 26.6814 19.5367 27.0075 18.8424L27.5594 17.6664C27.8251 17.1008 28.3865 16.769 28.9726 16.769C29.1946 16.769 29.4202 16.8165 29.6343 16.9171C29.8164 17.0023 29.9802 17.122 30.1167 17.2697ZM33.1679 29.9987C33.1679 30.6489 32.641 31.1758 31.9911 31.1758H25.5775C25.2461 31.1758 24.9194 31.0972 24.6243 30.9465C24.3292 30.7958 24.0741 30.5772 23.8799 30.3087H31.9911C32.4879 30.3087 32.9127 30.0009 33.0854 29.5651C33.0858 29.5655 33.0858 29.5663 33.0866 29.5666C33.0866 29.5666 33.0862 29.567 33.0866 29.567C33.1404 29.7045 33.168 29.851 33.1679 29.9987ZM33.5076 27.2108C33.5623 27.3488 33.5903 27.4959 33.5903 27.6443C33.5903 28.2948 33.0635 28.8216 32.4134 28.8216H31.9624C31.8474 28.8216 31.7371 28.7759 31.6558 28.6946C31.5745 28.6133 31.5289 28.5031 31.5289 28.3881C31.5289 28.2731 31.5745 28.1629 31.6558 28.0816C31.7371 28.0003 31.8474 27.9546 31.9624 27.9546H32.4134C32.9104 27.9547 33.335 27.6466 33.5076 27.2108ZM33.9305 24.8567C33.9852 24.9947 34.0132 25.1417 34.0132 25.2901C34.0132 25.9407 33.4864 26.4675 32.8363 26.4675H32.3853C32.2703 26.4675 32.16 26.4218 32.0787 26.3405C31.9974 26.2592 31.9518 26.1489 31.9518 26.034C31.9518 25.919 31.9974 25.8087 32.0787 25.7274C32.16 25.6461 32.2703 25.6004 32.3853 25.6004H32.8363C33.3332 25.6004 33.7579 25.2924 33.9305 24.8567ZM33.5082 22.5025C33.5628 22.6404 33.5909 22.7875 33.5908 22.9359C33.5908 23.5865 33.064 24.1133 32.4139 24.1133H31.9629C31.848 24.1133 31.7377 24.0676 31.6564 23.9863C31.5751 23.905 31.5294 23.7947 31.5294 23.6797C31.5294 23.5648 31.5751 23.4545 31.6564 23.3732C31.7377 23.2919 31.848 23.2462 31.9629 23.2462H32.4139C32.9109 23.2463 33.3356 22.9382 33.5082 22.5025Z" fill="#FFCBBE"/>
<path d="M20.6016 22.7099V30.0504C20.6016 30.5594 21.0143 30.9721 21.5234 30.9721H23.3409C23.85 30.9721 24.2627 30.5594 24.2627 30.0504V22.7099C24.2627 22.2008 23.85 21.7881 23.3409 21.7881H21.5234C21.0143 21.7881 20.6016 22.2007 20.6016 22.7099Z" fill="#F1F4F6"/>
<path d="M20.6011 27.7383V30.0506C20.6011 30.5597 21.014 30.9722 21.5231 30.9722H23.3406C23.8497 30.9722 24.2622 30.5597 24.2622 30.0506V27.7383C24.2622 28.2473 23.8497 28.6604 23.3406 28.6604H21.5231C21.014 28.6603 20.6011 28.2473 20.6011 27.7383Z" fill="#D0E2E7"/>
<path d="M0.391113 17.4199C0.526738 18.6574 1.52908 19.6242 2.77119 19.7111C2.87393 19.7184 2.97604 19.7256 3.07807 19.7322C3.83541 19.7835 4.42416 20.4125 4.42416 21.1718V24.0418C4.42416 25.0073 5.52924 25.5552 6.29713 24.9704C7.69853 23.9029 9.56291 22.3151 10.7069 20.6687C10.9776 20.2788 11.4247 20.0516 11.8996 20.0542C15.4216 20.0721 18.9435 19.9588 22.4656 19.7111C23.4474 19.6426 24.2812 19.0256 24.6527 18.1575C24.7532 17.9247 24.8182 17.678 24.8456 17.4259C25.3672 12.6612 25.3672 7.8958 24.8456 3.13041C24.7099 1.89432 23.707 0.932128 22.4669 0.845175C17.2288 0.477249 11.9741 0.403383 6.72775 0.623925C5.40932 0.678612 4.09018 0.752362 2.77174 0.845175C1.53104 0.932128 0.527441 1.89432 0.391738 3.13049C-0.129824 7.89385 -0.129824 12.6566 0.391113 17.4199Z" fill="#FFDA8B"/>
<path d="M1.73506 2.99969C1.20092 7.87836 1.20092 12.7575 1.73506 17.6352C1.76309 17.8934 1.82966 18.1461 1.93256 18.3846C2.19133 18.9879 2.66589 19.473 3.26342 19.7449C3.09943 19.7343 2.93537 19.723 2.77139 19.7114C1.78936 19.6429 0.955605 19.0259 0.584434 18.1577C0.483644 17.9249 0.418587 17.6782 0.391465 17.4259C-0.130488 12.6616 -0.130488 7.89609 0.391465 3.13063C0.527012 1.89469 1.5299 0.9325 2.7699 0.845625C3.01209 0.828906 3.25436 0.812109 3.49701 0.796875C2.55256 1.12195 1.84826 1.96789 1.73506 2.99969Z" fill="#EDC932"/>
<path d="M16.8508 9.91262C17.5916 9.91262 18.1942 8.91129 18.1942 7.68043C18.1942 6.44957 17.5916 5.44824 16.8508 5.44824C16.1101 5.44824 15.5076 6.44957 15.5076 7.68043C15.5076 8.91129 16.1101 9.91262 16.8508 9.91262ZM8.38576 9.91262C9.12654 9.91262 9.72912 8.91129 9.72912 7.68043C9.72912 6.44957 9.12654 5.44824 8.38576 5.44824C7.64506 5.44824 7.04248 6.44957 7.04248 7.68043C7.04248 8.91129 7.64506 9.91262 8.38576 9.91262ZM17.2451 11.5535C17.0976 11.4913 16.9314 11.4903 16.7831 11.5506C16.6348 11.6109 16.5166 11.7277 16.4544 11.8752C15.8021 13.4224 14.2963 14.4221 12.6183 14.4221C10.9401 14.4221 9.43436 13.4224 8.78209 11.8752C8.65264 11.568 8.29842 11.4242 7.99131 11.5535C7.91826 11.5843 7.852 11.6291 7.7963 11.6855C7.7406 11.7419 7.69655 11.8088 7.66668 11.8822C7.6368 11.9556 7.62169 12.0342 7.62218 12.1135C7.62268 12.1927 7.63879 12.2711 7.66959 12.3442C8.511 14.3398 10.4534 15.6293 12.6182 15.6293C14.7829 15.6293 16.7253 14.3398 17.5667 12.3442C17.5975 12.2712 17.6137 12.1928 17.6142 12.1135C17.6147 12.0342 17.5996 11.9556 17.5697 11.8822C17.5399 11.8088 17.4958 11.742 17.4401 11.6855C17.3844 11.6291 17.3182 11.5843 17.2451 11.5535Z" fill="#21386B"/>
</svg>
