<svg width="26" height="26" viewBox="0 0 26 26" fill="none" xmlns="http://www.w3.org/2000/svg">
<g clip-path="url(#clip0_1611_2661)">
<path d="M13.7845 25.5H12.2155C10.9465 25.5 9.91401 24.4676 9.91401 23.1986V22.6678C9.37451 22.4954 8.85034 22.2778 8.34678 22.0172L7.97061 22.3934C7.05952 23.3056 5.6001 23.2789 4.71548 22.3931L3.60654 21.2842C2.72036 20.399 2.69487 18.94 3.60684 18.0291L3.98271 17.6532C3.72212 17.1496 3.50459 16.6255 3.33218 16.0859H2.80142C1.53247 16.0859 0.5 15.0535 0.5 13.7845V12.2155C0.5 10.9465 1.53247 9.91406 2.80146 9.91406H3.33223C3.50464 9.37451 3.72217 8.85039 3.98276 8.34683L3.60659 7.9707C2.69517 7.06025 2.72031 5.60117 3.60688 4.71558L4.71592 3.60659C5.60259 2.7187 7.06167 2.69653 7.971 3.60688L8.34683 3.98271C8.85039 3.72217 9.37456 3.50459 9.91406 3.33218V2.80142C9.91406 1.53242 10.9465 0.5 12.2155 0.5H13.7845C15.0535 0.5 16.0859 1.53242 16.0859 2.80142V3.33223C16.6254 3.50459 17.1496 3.72217 17.6532 3.98276L18.0293 3.60659C18.9404 2.69438 20.3999 2.72114 21.2845 3.60693L22.3934 4.71582C23.2796 5.60103 23.3051 7.05996 22.3931 7.97095L22.0172 8.34683C22.2778 8.85039 22.4954 9.37446 22.6678 9.91406H23.1985C24.4675 9.91406 25.5 10.9465 25.5 12.2155V13.7845C25.5 15.0535 24.4675 16.0859 23.1985 16.0859H22.6678C22.4954 16.6255 22.2778 17.1496 22.0172 17.6532L22.3934 18.0293C23.3048 18.9398 23.2797 20.3989 22.3931 21.2845L21.2841 22.3935C20.3974 23.2813 18.9383 23.3035 18.029 22.3932L17.6532 22.0173C17.1496 22.2779 16.6254 22.4955 16.0859 22.6679V23.1987C16.0859 24.4676 15.0535 25.5 13.7845 25.5ZM8.59165 20.479C9.29121 20.8927 10.0441 21.2053 10.8295 21.408C11.1529 21.4914 11.3789 21.7831 11.3789 22.1171V23.1986C11.3789 23.6599 11.7542 24.0352 12.2155 24.0352H13.7845C14.2458 24.0352 14.6211 23.6599 14.6211 23.1986V22.1171C14.6211 21.7831 14.8471 21.4914 15.1706 21.408C15.9559 21.2053 16.7088 20.8927 17.4084 20.479C17.6962 20.3088 18.0627 20.3551 18.2992 20.5916L19.0652 21.3576C19.3955 21.6883 19.9258 21.6806 20.248 21.358L21.3577 20.2483C21.6791 19.9273 21.6898 19.3968 21.358 19.0654L20.5917 18.2991C20.3552 18.0626 20.3089 17.6961 20.4791 17.4083C20.8928 16.7088 21.2053 15.9559 21.408 15.1705C21.4915 14.8471 21.7832 14.6211 22.1172 14.6211H23.1986C23.6599 14.6211 24.0352 14.2458 24.0352 13.7846V12.2155C24.0352 11.7542 23.6599 11.379 23.1986 11.379H22.1172C21.7832 11.379 21.4915 11.153 21.408 10.8296C21.2053 10.0442 20.8928 9.29126 20.4791 8.59175C20.3089 8.30395 20.3552 7.93745 20.5917 7.70103L21.3577 6.93496C21.6889 6.6042 21.6802 6.07393 21.358 5.7521L20.2484 4.64248C19.9268 4.32041 19.3963 4.31099 19.0655 4.64219L18.2992 5.40855C18.0628 5.64502 17.6962 5.69131 17.4084 5.52109C16.7089 5.10737 15.956 4.79482 15.1706 4.59214C14.8472 4.50869 14.6212 4.21699 14.6212 3.88296V2.80142C14.6212 2.34014 14.2458 1.96484 13.7846 1.96484H12.2156C11.7543 1.96484 11.379 2.34014 11.379 2.80142V3.88286C11.379 4.21689 11.153 4.50859 10.8295 4.59204C10.0442 4.79473 9.29126 5.10728 8.5917 5.521C8.30381 5.69116 7.93735 5.64487 7.70093 5.40845L6.93491 4.64238C6.60464 4.31172 6.07422 4.31938 5.7521 4.64204L4.64238 5.75171C4.321 6.07271 4.31025 6.60313 4.64209 6.93457L5.40845 7.70093C5.64487 7.93735 5.69116 8.30386 5.521 8.59165C5.10728 9.29116 4.79478 10.0441 4.59209 10.8295C4.50859 11.1529 4.21689 11.3789 3.88291 11.3789H2.80146C2.34019 11.3789 1.96484 11.7542 1.96484 12.2155V13.7845C1.96484 14.2458 2.34019 14.6211 2.80146 14.6211H3.88286C4.21689 14.6211 4.50854 14.8471 4.59204 15.1705C4.79473 15.9559 5.10728 16.7088 5.52095 17.4083C5.69111 17.6961 5.64482 18.0626 5.4084 18.299L4.64233 19.0651C4.31118 19.3959 4.31982 19.9261 4.64204 20.2479L5.75166 21.3576C6.07329 21.6796 6.60376 21.6891 6.93452 21.3579L7.70083 20.5915C7.87505 20.4173 8.2375 20.2695 8.59165 20.479Z" fill="#777777"/>
<path d="M13 18.4395C10.0006 18.4395 7.56055 15.9993 7.56055 13C7.56055 10.0007 10.0006 7.56055 13 7.56055C15.9994 7.56055 18.4395 10.0007 18.4395 13C18.4395 15.9993 15.9994 18.4395 13 18.4395ZM13 9.02539C10.8083 9.02539 9.02539 10.8084 9.02539 13C9.02539 15.1916 10.8084 16.9746 13 16.9746C15.1916 16.9746 16.9746 15.1916 16.9746 13C16.9746 10.8084 15.1917 9.02539 13 9.02539Z" fill="#777777"/>
</g>
<defs>
<clipPath id="clip0_1611_2661">
<rect width="25" height="25" fill="white" transform="translate(0.5 0.5)"/>
</clipPath>
</defs>
</svg>
