<svg width="40" height="41" viewBox="0 0 40 41" fill="none" xmlns="http://www.w3.org/2000/svg">
<path d="M20 40.5C31.0457 40.5 40 31.5457 40 20.5C40 9.4543 31.0457 0.5 20 0.5C8.9543 0.5 0 9.4543 0 20.5C0 31.5457 8.9543 40.5 20 40.5Z" fill="#006980"/>
<path fill-rule="evenodd" clip-rule="evenodd" d="M39.5358 24.7961C37.8715 32.3986 31.8833 38.3818 24.2787 40.0396L10.4167 26.1775C8.97346 24.925 7.69268 23.3836 6.64025 21.5945C6.22408 20.8889 6.22408 20.1114 6.64025 19.4053C9.70111 14.2003 14.6963 11.0928 20 11.0928C24.3095 11.0928 28.4149 13.1442 31.445 16.7053L39.5358 24.7961Z" fill="#005A64"/>
<path fill-rule="evenodd" clip-rule="evenodd" d="M6.64025 19.4053C9.70111 14.2003 14.6963 11.0928 20 11.0928C25.304 11.0928 30.2989 14.2003 33.3603 19.4053C33.7756 20.1114 33.7756 20.8889 33.3603 21.5945C30.2984 26.7995 25.304 29.907 20 29.907C14.6963 29.907 9.70189 26.7995 6.64025 21.5945C6.22408 20.8889 6.22408 20.1114 6.64025 19.4053ZM20.0001 27.0686C23.622 27.0686 26.5688 24.1218 26.5688 20.5001C26.5688 16.878 23.6221 13.9312 20.0001 13.9312C16.3785 13.9312 13.432 16.878 13.432 20.5001C13.4319 24.1218 16.3784 27.0686 20.0001 27.0686ZM20.0001 15.8841C17.4556 15.8841 15.3849 17.955 15.3849 20.5001C15.3849 23.045 17.4556 25.1156 20.0001 25.1156C22.545 25.1156 24.6159 23.045 24.6159 20.5001C24.6158 17.955 22.5449 15.8841 20.0001 15.8841Z" fill="white"/>
</svg>
