<svg width="20" height="20" viewBox="0 0 20 20" fill="none" xmlns="http://www.w3.org/2000/svg">
<path d="M13.333 19.1667C13.333 19.6267 12.9605 20 12.4997 20H4.99967C2.70217 20 0.833008 18.1308 0.833008 15.8333V4.16667C0.833008 1.86917 2.70217 0 4.99967 0H8.76218C10.3197 0 11.7847 0.606667 12.8872 1.70833L15.7905 4.61333C16.0163 4.83917 16.2263 5.08667 16.4138 5.34917C16.6813 5.72333 16.5947 6.24417 16.2205 6.51167C15.8463 6.77833 15.3247 6.6925 15.058 6.3175C14.9238 6.13 14.7738 5.9525 14.613 5.7925L11.7088 2.8875C11.4438 2.6225 11.1497 2.39833 10.833 2.21667V5.83333C10.833 6.2925 11.2063 6.66667 11.6663 6.66667H14.1663C14.6272 6.66667 14.9997 7.04 14.9997 7.5C14.9997 7.96 14.6272 8.33333 14.1663 8.33333H11.6663C10.288 8.33333 9.16634 7.21167 9.16634 5.83333V1.68583C9.03301 1.67333 8.89801 1.66667 8.76218 1.66667H4.99967C3.62134 1.66667 2.49967 2.78833 2.49967 4.16667V15.8333C2.49967 17.2117 3.62134 18.3333 4.99967 18.3333H12.4997C12.9605 18.3333 13.333 18.7067 13.333 19.1667ZM18.0705 13.5558L15.5363 13.1333C15.2255 13.0817 14.9997 12.815 14.9997 12.5C14.9997 12.0408 15.373 11.6667 15.833 11.6667H17.723C18.0197 11.6667 18.2963 11.8267 18.4455 12.0833C18.6747 12.4817 19.183 12.6175 19.5838 12.3875C19.9822 12.1567 20.1188 11.6475 19.8872 11.2492C19.4422 10.4783 18.6122 9.99917 17.7222 9.99917H17.4988V9.16583C17.4988 8.70583 17.1263 8.3325 16.6655 8.3325C16.2047 8.3325 15.8322 8.70583 15.8322 9.16583V9.99917C14.4538 9.99917 13.3322 11.1208 13.3322 12.4992C13.3322 13.6325 14.1438 14.5908 15.2613 14.7767L17.7955 15.1992C18.1063 15.2508 18.3322 15.5175 18.3322 15.8325C18.3322 16.2917 17.9588 16.6658 17.4988 16.6658H15.6088C15.3122 16.6658 15.0355 16.5058 14.8863 16.2492C14.6572 15.85 14.148 15.7142 13.748 15.945C13.3497 16.1758 13.213 16.685 13.4447 17.0833C13.8897 17.8542 14.7197 18.3325 15.6097 18.3325H15.833V19.1658C15.833 19.6258 16.2055 19.9992 16.6663 19.9992C17.1272 19.9992 17.4997 19.6258 17.4997 19.1658V18.3325C18.878 18.3325 19.9997 17.2108 19.9997 15.8325C19.9997 14.6992 19.188 13.7417 18.0705 13.5558ZM6.24967 12.5H10.833C11.2938 12.5 11.6663 12.1267 11.6663 11.6667C11.6663 11.2067 11.2938 10.8333 10.833 10.8333H6.24967C5.10134 10.8333 4.16634 11.7683 4.16634 12.9167V14.5833C4.16634 15.7317 5.10134 16.6667 6.24967 16.6667H10.833C11.2938 16.6667 11.6663 16.2933 11.6663 15.8333C11.6663 15.3733 11.2938 15 10.833 15H6.24967C6.01967 15 5.83301 14.8133 5.83301 14.5833V12.9167C5.83301 12.6867 6.01967 12.5 6.24967 12.5ZM4.99967 9.16667H6.66634C7.12634 9.16667 7.49967 8.79333 7.49967 8.33333C7.49967 7.87333 7.12634 7.5 6.66634 7.5H4.99967C4.53967 7.5 4.16634 7.87333 4.16634 8.33333C4.16634 8.79333 4.53967 9.16667 4.99967 9.16667ZM4.99967 5.83333H6.66634C7.12634 5.83333 7.49967 5.46 7.49967 5C7.49967 4.54 7.12634 4.16667 6.66634 4.16667H4.99967C4.53967 4.16667 4.16634 4.54 4.16634 5C4.16634 5.46 4.53967 5.83333 4.99967 5.83333Z" fill="#0A58CA"/>
</svg>
