<svg xmlns="http://www.w3.org/2000/svg" version="1.1" xmlns:xlink="http://www.w3.org/1999/xlink" width="512" height="512" x="0" y="0" viewBox="0 0 512 512" style="enable-background:new 0 0 512 512" xml:space="preserve" class=""><g><path d="M55.605 70.771c0-5.347 4.36-9.707 9.707-9.707s9.707 4.36 9.707 9.707-4.361 9.707-9.707 9.707-9.707-4.361-9.707-9.707zm51.539 9.707c5.346 0 9.707-4.361 9.707-9.707s-4.36-9.707-9.707-9.707-9.707 4.36-9.707 9.707 4.361 9.707 9.707 9.707zm289.532-2.707h22.187a7 7 0 1 0 0-14h-22.187a7 7 0 1 0 0 14zm-50.845 0h22.187a7 7 0 1 0 0-14h-22.187a7 7 0 1 0 0 14zm-50.846 0h22.187a7 7 0 1 0 0-14h-22.187a7 7 0 1 0 0 14zm-11.816 351.134-26.855 3.224a7.001 7.001 0 0 0 1.668 13.9l6.76-.812-22.77 22.771a7 7 0 1 0 9.9 9.898l22.771-22.771-.812 6.762a7.001 7.001 0 0 0 13.9 1.668l3.223-26.856a7.003 7.003 0 0 0-2-5.784 6.994 6.994 0 0 0-5.784-2zM508 317.926v29.071c0 5.912-4.21 11.033-10.01 12.177l-12.01 2.367-8.434 20.356 6.82 10.168c3.293 4.911 2.649 11.509-1.533 15.689l-20.555 20.555c-4.182 4.181-10.781 4.821-15.688 1.531l-10.169-6.818-20.356 8.434-2.368 12.011c-1.145 5.8-6.265 10.01-12.176 10.01H372.45c-5.911 0-11.032-4.21-12.176-10.01l-2.368-12.011-20.356-8.434-10.169 6.818c-4.91 3.291-11.507 2.648-15.687-1.53l-19.814-19.813H34.511C17.687 408.497 4 394.809 4 377.985V62.575c0-16.824 13.688-30.512 30.511-30.512h405.961c16.824 0 30.511 13.688 30.511 30.512v182.744l11.85 11.849c4.18 4.182 4.824 10.779 1.533 15.688l-6.82 10.169 8.434 20.356 12.01 2.369c5.8 1.143 10.01 6.264 10.01 12.175zM18 62.575v32.904h438.984V62.575c0-9.104-7.407-16.512-16.511-16.512H34.511C25.407 46.063 18 53.47 18 62.575zm278.424 319.322-8.434-20.356-12.011-2.368c-5.8-1.143-10.01-6.264-10.01-12.176v-29.071c0-5.911 4.21-11.032 10.011-12.176l12.009-2.368 8.434-20.356-6.819-10.169c-3.292-4.908-2.649-11.506 1.53-15.687l20.558-20.557c4.179-4.178 10.777-4.824 15.686-1.534l10.171 6.821 20.356-8.434 2.368-12.011c1.145-5.8 6.265-10.01 12.176-10.01h29.071c5.911 0 11.032 4.21 12.176 10.01l2.368 12.011 20.356 8.434 10.169-6.819c3.134-2.101 6.953-2.592 10.394-1.59V109.48H18v268.506c0 9.104 7.407 16.512 16.511 16.512h253.842c.325-.84.734-1.657 1.252-2.43l6.82-10.17zM494 319.233l-14.407-2.842a6.997 6.997 0 0 1-5.112-4.188l-11.304-27.284a7.003 7.003 0 0 1 .653-6.578l8.18-12.196-18.709-18.708-12.197 8.179a6.997 6.997 0 0 1-6.578.653l-27.284-11.303a6.997 6.997 0 0 1-4.188-5.112l-2.84-14.407h-26.458l-2.84 14.407a7 7 0 0 1-4.188 5.112l-27.284 11.303a6.998 6.998 0 0 1-6.578-.653l-12.197-8.179-18.709 18.707 8.18 12.198a6.995 6.995 0 0 1 .653 6.577l-11.304 27.284a6.997 6.997 0 0 1-5.112 4.188l-14.407 2.842v26.457l14.406 2.841a6.999 6.999 0 0 1 5.113 4.188l11.304 27.284a7.001 7.001 0 0 1-.653 6.577l-8.18 12.198 18.708 18.707 12.199-8.18a6.992 6.992 0 0 1 6.578-.653l27.283 11.304a6.997 6.997 0 0 1 4.188 5.112l2.84 14.407h26.458l2.84-14.407a7 7 0 0 1 4.188-5.112l27.283-11.304a7.003 7.003 0 0 1 6.578.653l12.199 8.18 18.708-18.708-8.18-12.196a6.997 6.997 0 0 1-.653-6.578l11.304-27.284a6.995 6.995 0 0 1 5.113-4.188L494 345.69zm-33.429 13.228c0 40.575-33.011 73.586-73.586 73.586S313.4 373.036 313.4 332.461s33.01-73.585 73.585-73.585 73.586 33.01 73.586 73.585zm-73.586 59.586c15.214 0 29.108-5.739 39.65-15.157-4.5-18.095-20.638-30.881-39.65-30.881s-35.149 12.787-39.65 30.881c10.541 9.418 24.435 15.157 39.65 15.157zm15.805-75.997c0-8.715-7.09-15.805-15.805-15.805s-15.805 7.09-15.805 15.805 7.09 15.805 15.805 15.805 15.805-7.09 15.805-15.805zm43.781 16.411c0-32.855-26.73-59.585-59.586-59.585S327.4 299.605 327.4 332.461c0 11.809 3.467 22.816 9.416 32.086a54.449 54.449 0 0 1 28.446-28.121c-5.006-5.334-8.082-12.5-8.082-20.375 0-16.435 13.371-29.805 29.805-29.805s29.805 13.37 29.805 29.805c0 7.875-3.076 15.042-8.082 20.375a54.45 54.45 0 0 1 28.447 28.121c5.949-9.27 9.416-20.277 9.416-32.086zm-198.38-51.4H55.836a7 7 0 1 0 0 14H248.19a7 7 0 1 0 0-14zm-15.253 36.747H55.836a7 7 0 1 0 0 14h177.101a7 7 0 1 0 0-14zm0 36.747H55.836a7 7 0 1 0 0 14h177.101a7 7 0 1 0 0-14zm60.84-209.872h125.371a7 7 0 1 0 0-14H293.778a7 7 0 1 0 0 14zm0 36.747h125.371a7 7 0 1 0 0-14H293.778a7 7 0 1 0 0 14zm-244.94 63.294V151.22c0-11.324 9.213-20.537 20.537-20.537h93.504c11.324 0 20.537 9.213 20.537 20.537v93.504c0 11.324-9.213 20.537-20.537 20.537H69.375c-11.324 0-20.537-9.213-20.537-20.537zm81.882-56.926c0-8.047-6.546-14.594-14.593-14.594s-14.594 6.547-14.594 14.594 6.546 14.593 14.594 14.593 14.593-6.546 14.593-14.593zm-52.745 63.287v.176h76.304v-.176c-1.928-19.717-18.277-34.548-38.152-34.548s-36.224 14.831-38.152 34.548zm-15.137-6.361c0 1.48.5 2.841 1.332 3.938a52.184 52.184 0 0 1 16.556-32.335 52.308 52.308 0 0 1 14.232-9.328c-4.611-5.079-7.425-11.818-7.425-19.201 0-15.767 12.827-28.594 28.594-28.594s28.593 12.827 28.593 28.594c0 7.384-2.814 14.123-7.425 19.201a52.298 52.298 0 0 1 14.233 9.328 52.184 52.184 0 0 1 16.556 32.336 6.497 6.497 0 0 0 1.333-3.939V151.22a6.545 6.545 0 0 0-6.537-6.537H69.376a6.545 6.545 0 0 0-6.537 6.537v93.504z" fill="#024896" opacity="1" data-original="#000000"></path></g></svg>