<svg width="16" height="17" viewBox="0 0 16 17" fill="none" xmlns="http://www.w3.org/2000/svg">
<path d="M4.614 14.2309C5.6509 14.8066 6.81751 15.1083 8.0035 15.1074C11.8685 15.1074 15 11.9689 15 8.10392C15 4.23892 11.8685 1.10742 8.0035 1.10742C4.1385 1.10742 1 4.23892 1 8.10392C1 9.34692 1.326 10.5019 1.89 11.5139L1 15.1074L4.614 14.2309ZM5.001 5.01342C5.08253 4.93713 5.18137 4.8818 5.28903 4.85218C5.39668 4.82257 5.50992 4.81956 5.619 4.84342L5.8435 4.89092C6.0675 4.93842 6.251 5.08792 6.339 5.29192L6.7805 6.26992C6.83407 6.38755 6.85233 6.51821 6.83307 6.64602C6.81381 6.77383 6.75785 6.8933 6.672 6.98992L6.4005 7.30942C6.35631 7.36132 6.32876 7.42533 6.32145 7.4931C6.31413 7.56088 6.32739 7.62929 6.3595 7.68942C7.161 9.12942 8.214 9.59842 8.6825 9.74092C8.75001 9.76274 8.82289 9.76124 8.88944 9.73667C8.956 9.71209 9.01237 9.66587 9.0495 9.60542L9.2465 9.29942C9.4365 9.00742 9.8105 8.90542 10.2245 9.10942L11.0395 9.51692C11.3525 9.66642 11.4945 10.0329 11.3795 10.3594C10.965 11.5614 9.9055 11.4119 9.9055 11.4119C7.5555 11.3509 5.714 9.18392 4.9195 8.06992C4.5525 7.54692 4.3285 6.91492 4.3965 6.26992C4.4645 5.63142 4.763 5.23042 5.001 5.01342Z" fill="white"/>
</svg>
