<svg width="33" height="33" viewBox="0 0 33 33" fill="none" xmlns="http://www.w3.org/2000/svg">
<path d="M1.67089 16.5729C2.46188 16.5867 3.1242 16.5019 3.65785 16.3186C3.76337 16.3857 3.96573 16.4218 4.26494 16.427C4.49898 16.4311 4.6175 16.3472 4.6205 16.1754L4.81158 16.1787C4.7896 17.4378 5.06407 18.8606 5.63499 20.4471C6.14518 21.7777 6.8922 22.9524 7.87605 23.9712C7.87497 24.0334 7.84183 24.0639 7.77666 24.0628C7.63112 23.9121 7.47697 23.9153 7.3142 24.0725C7.15143 24.2297 7.03653 24.361 6.96949 24.4666C6.25884 24.9431 5.71983 25.3486 5.35246 25.683C4.65617 26.3554 4.47106 26.8589 4.79712 27.1935C5.12017 27.531 5.62984 27.3636 6.32612 26.6912C6.54351 26.4609 6.77191 26.1937 7.01133 25.8897C7.25074 25.5857 7.41527 25.3278 7.5049 25.116C7.63343 25.053 7.7836 24.9386 7.95541 24.7727C8.04282 24.6883 8.09302 24.6136 8.10601 24.5486C8.11598 24.4866 8.09061 24.412 8.0299 24.325L8.12493 24.2289C9.08876 25.2059 10.2367 25.9934 11.5687 26.5916C13.0306 27.2157 14.4429 27.5397 15.8057 27.5635L15.8023 27.7545C15.6305 27.7515 15.5426 27.8671 15.5385 28.1011C15.5344 28.3351 15.5634 28.5386 15.6256 28.7116C15.4238 29.2385 15.316 29.8975 15.3022 30.6885C15.2936 31.1773 15.3571 31.534 15.4924 31.7586C15.6277 31.9862 15.7961 32.1018 15.9976 32.1053C16.199 32.1088 16.3713 31.9992 16.5145 31.7765C16.6576 31.5567 16.7334 31.2024 16.742 30.7136C16.7558 29.9226 16.671 29.2603 16.4877 28.7267C16.5559 28.556 16.592 28.3536 16.5961 28.1196C16.6002 27.8855 16.5163 27.767 16.3445 27.764L16.3478 27.5729C17.6069 27.5949 19.0297 27.3204 20.6162 26.7495C21.926 26.239 23.1002 25.5245 24.1386 24.6062L24.2302 24.7012C24.1221 24.7852 24.1525 24.9087 24.3216 25.0717C24.4876 25.2346 24.6234 25.3496 24.7289 25.4166C25.0385 26.0177 25.4129 26.5562 25.852 27.032C26.5244 27.7283 27.0338 27.9195 27.38 27.6055C27.5515 27.4573 27.6023 27.2656 27.5323 27.0303C27.4623 26.7949 27.2383 26.471 26.8603 26.0584C26.63 25.841 26.3628 25.6126 26.0588 25.3732C25.7548 25.1338 25.4969 24.9692 25.2851 24.8796C25.2218 24.7718 25.1073 24.6216 24.9418 24.4291C24.8574 24.3417 24.7826 24.2974 24.7174 24.2963C24.6552 24.2952 24.5804 24.3369 24.493 24.4213L24.4957 24.2613C25.4724 23.3182 26.2599 22.1703 26.8584 20.8176C27.4796 19.3556 27.8021 17.9432 27.8259 16.5805L28.0169 16.5838C28.0139 16.7556 28.1295 16.8436 28.3635 16.8477C28.6005 16.8518 28.804 16.8228 28.974 16.7605C29.5039 16.9624 30.1525 17.07 30.9198 17.0834C31.3878 17.0916 31.7298 17.0279 31.9455 16.8924C32.1612 16.7569 32.2708 16.5884 32.2744 16.387C32.2779 16.1855 32.1683 16.0132 31.9455 15.87C31.7258 15.7269 31.3715 15.6511 30.8827 15.6426C30.0917 15.6287 29.4294 15.7135 28.8957 15.8968C28.725 15.8286 28.5227 15.7925 28.2886 15.7884C28.0546 15.7843 27.9361 15.8682 27.9331 16.04L27.742 16.0367C27.7543 15.3316 27.6914 14.606 27.5533 13.8597C27.416 13.238 27.2044 12.5409 26.9186 11.7683C26.4084 10.4377 25.6614 9.26305 24.6775 8.24424C24.6786 8.18203 24.7117 8.15149 24.7769 8.15263C24.9221 8.32408 25.0721 8.30447 25.2269 8.09381C25.3991 7.90716 25.5187 7.76107 25.5857 7.65556C26.1868 7.346 26.7252 6.97164 27.2011 6.53247C27.8974 5.86008 28.0825 5.35656 27.7565 5.02193C27.4334 4.68439 26.9237 4.85182 26.2275 5.52421C26.0101 5.75453 25.7817 6.02169 25.5423 6.32571C25.3028 6.62973 25.1383 6.88763 25.0487 7.09944C24.9409 7.16275 24.7907 7.27718 24.5982 7.44274C24.5108 7.52715 24.4606 7.60184 24.4476 7.66681C24.4376 7.72887 24.463 7.80339 24.5237 7.89039L24.4287 7.98653C23.4856 7.00992 22.3376 6.22236 20.9849 5.62384C19.523 4.99972 18.1107 4.67576 16.7479 4.65197L16.7512 4.46089C16.9231 4.46389 17.011 4.34837 17.0151 4.11433C17.0192 3.88029 16.9901 3.67679 16.928 3.50383C17.1298 2.9769 17.2376 2.31794 17.2514 1.52695C17.2599 1.03814 17.1965 0.681419 17.0612 0.456801C16.9259 0.22922 16.7575 0.113671 16.556 0.110154C16.3546 0.106638 16.1823 0.21624 16.0391 0.438961C15.896 0.658718 15.8202 1.01301 15.8116 1.50182C15.7978 2.29281 15.8826 2.95513 16.0659 3.48878C15.9977 3.65947 15.9616 3.86183 15.9575 4.09587C15.9534 4.32991 16.0373 4.44843 16.2091 4.45143L16.2058 4.64251C14.9467 4.62053 13.5239 4.895 11.9374 5.46592C10.6068 5.97611 9.43212 6.72313 8.41332 7.70698L8.3217 7.60759C8.49315 7.46241 8.47355 7.31241 8.26288 7.1576C8.07623 6.98543 7.93015 6.86583 7.82463 6.79879C7.38731 6.04734 7.01295 5.50887 6.70154 5.18339C6.02915 4.4871 5.51981 4.29596 5.17354 4.60996C5.02278 4.75847 4.9821 4.96668 5.05151 5.2346C5.12092 5.50252 5.33484 5.81 5.69329 6.15705C5.9236 6.37444 6.19077 6.60284 6.49478 6.84225C6.7988 7.08167 7.05671 7.2462 7.26851 7.33583C7.33182 7.44362 7.44626 7.59379 7.61181 7.78634C7.69622 7.87375 7.77091 7.92395 7.83588 7.93694C7.89794 7.94691 7.97247 7.92154 8.05947 7.86083L8.1556 7.95585C7.17899 8.89895 6.39143 10.0469 5.79292 11.3996C5.16879 12.8615 4.84483 14.2738 4.82104 15.6366L4.62996 15.6333C4.63296 15.4614 4.51744 15.3735 4.2834 15.3694C4.04937 15.3653 3.84587 15.3944 3.6729 15.4565C3.14597 15.2547 2.48701 15.1469 1.69602 15.1331C1.20721 15.1246 0.850492 15.188 0.625874 15.3233C0.398292 15.4586 0.28264 15.633 0.278917 15.8463C0.275194 16.0596 0.378871 16.2318 0.589948 16.3629C0.801025 16.494 1.16134 16.564 1.67089 16.5729ZM6.40963 16.3044L7.56057 16.3245C9.15736 16.3524 10.7879 16.3171 12.452 16.2188C12.6446 16.2221 12.9435 16.2481 13.3486 16.2966C13.6475 16.3226 13.8502 16.3365 13.9569 16.3384L14.4012 16.3461C14.3986 16.4943 14.4388 16.655 14.5217 16.8283C14.5617 16.9149 14.6333 17.0555 14.7366 17.2499L14.3794 17.5948L13.9584 18.032C13.6958 18.306 13.5101 18.5057 13.4012 18.6313C12.2143 19.5707 11.0021 20.6786 9.76486 21.955L8.95102 22.7409C8.15751 21.8528 7.54073 20.8567 7.10067 19.7526C6.66061 18.6484 6.43027 17.499 6.40963 16.3044ZM15.7559 24.8111L15.7358 25.962C14.5427 25.8997 13.402 25.6294 12.3139 25.151C11.2258 24.6727 10.2518 24.0216 9.39201 23.1975L10.2058 22.4116C11.3543 21.3026 12.4707 20.1604 13.555 18.9851L13.6544 18.8935C13.8044 18.7894 13.9985 18.6209 14.2367 18.388C14.4778 18.1581 14.6403 18.0128 14.7244 17.952L15.0816 17.6071C15.4419 17.8475 15.739 17.9697 15.9731 17.9738L15.9653 18.4182C15.9549 19.0166 15.9772 19.5193 16.0323 19.9263C15.8759 21.586 15.7838 23.2143 15.7559 24.8111ZM16.4735 25.9749L16.4936 24.8239C16.5215 23.2271 16.4862 21.5967 16.3878 19.9325C16.3912 19.7399 16.4172 19.441 16.4657 19.0359C16.4917 18.7371 16.5056 18.5343 16.5074 18.4277L16.5152 17.9833C16.687 17.9863 16.8536 17.9521 17.0148 17.8809C17.1762 17.8066 17.3109 17.729 17.419 17.6479L17.7639 18.0051L18.2011 18.4261C18.475 18.6887 18.6748 18.8744 18.8003 18.9833C19.7398 20.1703 20.8477 21.3824 22.124 22.6196L22.9099 23.4335C22.0219 24.227 21.0258 24.8438 19.9216 25.2838C18.8175 25.7239 17.6681 25.9542 16.4735 25.9749ZM23.3666 22.9925L22.5807 22.1787C21.4717 21.0302 20.3295 19.9138 19.1542 18.8295L19.0626 18.7301C18.9585 18.5801 18.79 18.386 18.5571 18.1478C18.3272 17.9067 18.1819 17.7442 18.1211 17.6601L17.7762 17.303C18.0166 16.9427 18.1388 16.6455 18.1429 16.4114L18.5873 16.4192C19.1857 16.4296 19.6884 16.4073 20.0953 16.3522C21.711 16.4871 23.3289 16.579 24.949 16.628L26.1311 16.6487C26.0688 17.8418 25.7984 18.9825 25.3201 20.0706C24.8418 21.1587 24.1906 22.1327 23.3666 22.9925ZM26.144 15.911L24.993 15.8909C23.3962 15.863 21.7657 15.8983 20.1015 15.9967C19.909 15.9933 19.6101 15.9674 19.205 15.9188C18.9061 15.8928 18.7034 15.8789 18.5967 15.8771L18.1523 15.8693C18.1553 15.6975 18.1212 15.5309 18.0499 15.3697C17.9757 15.2083 17.898 15.0736 17.817 14.9655L18.1741 14.6206L18.5952 14.1834C18.8578 13.9095 19.0435 13.7097 19.1524 13.5842C20.3393 12.6448 21.5514 11.5369 22.7887 10.2605L23.6026 9.47456C24.3961 10.3626 25.0129 11.3587 25.4529 12.4629C25.893 13.567 26.1233 14.7164 26.144 15.911ZM16.7971 7.43548L16.7977 7.40437L16.8177 6.25344C18.0109 6.31575 19.1516 6.58607 20.2397 7.06439C21.3278 7.54271 22.3018 8.19388 23.1616 9.0179L22.3477 9.80382C21.1993 10.9128 20.0829 12.055 18.9985 13.2303L18.8991 13.3219C18.7492 13.426 18.5551 13.5945 18.3169 13.8274C18.0758 14.0573 17.9133 14.2027 17.8292 14.2634L17.472 14.6083C17.1117 14.368 16.8146 14.2457 16.5805 14.2416L16.5883 13.7972C16.5987 13.1988 16.5764 12.6961 16.5212 12.2892C16.6561 10.6735 16.7481 9.05561 16.7971 7.43548ZM16.2777 15.0365C16.5977 15.042 16.8581 15.1473 17.059 15.3524C17.2569 15.5603 17.3531 15.8183 17.3477 16.1264C17.3424 16.4345 17.2372 16.689 17.0321 16.8899C16.8242 17.0878 16.5662 17.184 16.2581 17.1787C15.95 17.1733 15.6955 17.0681 15.4946 16.8631C15.2967 16.6551 15.2005 16.3971 15.2058 16.089C15.2112 15.7809 15.3164 15.5264 15.5214 15.3255C15.7294 15.1276 15.9815 15.0313 16.2777 15.0365ZM16.0801 6.24056L16.06 7.39149C16.0321 8.98829 16.0674 10.6188 16.1657 12.283L16.1251 12.829C16.0958 13.3175 16.1006 13.6376 16.1395 13.7894L16.1317 14.2338C15.9836 14.2312 15.8243 14.2714 15.654 14.3544C15.5673 14.3943 15.4268 14.466 15.2324 14.5693L14.8874 14.2121L14.4458 13.791C14.1748 13.5284 13.9765 13.3427 13.851 13.2338C12.9116 12.0469 11.8022 10.8347 10.5229 9.59742L9.73695 8.78358C10.5628 7.98898 11.5219 7.37155 12.6142 6.93129C13.7094 6.49108 14.8647 6.26083 16.0801 6.24056ZM9.18698 9.22294L9.97289 10.0368C11.0819 11.1852 12.2241 12.3016 13.3994 13.386L13.491 13.4854C13.5951 13.6354 13.7636 13.8294 13.9965 14.0676C14.2264 14.3087 14.3717 14.4713 14.4325 14.5553L14.7774 14.9125C14.537 15.2728 14.4148 15.57 14.4107 15.804L13.9663 15.7962C13.3679 15.7858 12.8652 15.8081 12.4583 15.8633C10.7985 15.7069 9.17024 15.6147 7.57344 15.5869L6.42251 15.5668C6.48482 14.3736 6.75514 13.233 7.23346 12.1448C7.71179 11.0567 8.36296 10.0828 9.18698 9.22294Z" fill="#214b92"/>
</svg>
