<svg width="64" height="45" viewBox="0 0 64 45" fill="none" xmlns="http://www.w3.org/2000/svg">
<path d="M43.3253 32.478C43.0451 32.4777 42.7763 32.3672 42.577 32.1703C42.3776 31.9735 42.2637 31.7061 42.2599 31.4259C42.2511 30.8534 42.7205 30.3853 43.2917 30.3446L60.8748 29.0899C61.0595 29.0767 61.2376 29.0157 61.3916 28.9128C61.5456 28.8099 61.6701 28.6686 61.7529 28.503L63.647 24.715C64.8082 22.3897 62.9485 19.7003 60.3538 19.9766L3.92824 26.0563C1.21516 26.3503 -0.577829 29.0163 0.171072 31.6374L2.86295 41.0583C3.38293 42.8809 5.07086 44.1528 6.96544 44.1528H51.2915C52.9181 44.1528 54.3794 43.2489 55.1073 41.7943L59.5351 32.9385C59.9047 32.1994 59.3296 31.3387 58.5052 31.3977C58.4451 31.4019 43.3857 32.478 43.3253 32.478ZM11.9999 37.0865C10.8237 37.0865 9.86665 36.1294 9.86665 34.9532C9.86665 33.777 10.8237 32.82 11.9999 32.82C13.1761 32.82 14.1331 33.777 14.1331 34.9532C14.1331 36.1294 13.1761 37.0865 11.9999 37.0865ZM19.9995 37.0865C18.8233 37.0865 17.8663 36.1294 17.8663 34.9532C17.8663 33.777 18.8233 32.82 19.9995 32.82C21.1758 32.82 22.1328 33.777 22.1328 34.9532C22.1328 36.1294 21.1758 37.0865 19.9995 37.0865ZM43.1313 16.7431L26.9816 17.4861C26.8342 17.4929 26.687 17.4691 26.5493 17.4161C26.4116 17.363 26.2864 17.282 26.1816 17.1782C26.0768 17.0743 25.9947 16.9498 25.9405 16.8125C25.8863 16.6753 25.8611 16.5283 25.8666 16.3808C25.8861 15.8202 26.3575 15.3794 26.9178 15.3537L40.5846 14.7249C41.4038 14.6872 41.8759 13.7776 41.435 13.0862L40.3532 11.3889C39.3346 9.789 37.5226 8.84904 35.6294 8.92637L10.9718 9.98099C8.10926 10.1037 5.86669 12.4436 5.86669 15.3088V22.5151C5.86669 23.1495 6.4168 23.6436 7.04744 23.5756C13.269 22.9042 36.8368 20.3648 43.7726 19.6178C44.5594 19.5331 44.9822 18.6514 44.5569 17.9841C44.1333 17.3192 43.8876 16.7083 43.1313 16.7431ZM15.5477 18.1618C15.3283 17.6363 15.5643 17.0024 16.125 16.7686C16.8167 16.4815 17.5996 16.9875 17.5996 17.754C17.5996 18.9054 15.9976 19.2415 15.5477 18.1618ZM20.7995 18.8206C20.2131 18.8206 19.7329 18.3452 19.7329 17.754C19.7329 17.0715 20.3605 16.5768 21.0075 16.7087C21.52 16.8088 21.8661 17.2601 21.8661 17.754C21.8661 18.3437 21.3871 18.8206 20.7995 18.8206ZM24.9301 7.24885C21.1031 7.41137 19.0029 7.5031 14.6512 7.68829C14.0449 7.71416 13.5385 7.22952 13.5385 6.62261C13.5385 3.28595 16.1517 0.95459 19.1022 0.95459H22.6661C23.0594 0.95459 23.4221 1.17191 23.6074 1.5199L25.8267 5.68118C26.1963 6.37422 25.7148 7.21552 24.9301 7.24885Z" fill="url(#paint0_linear_7291_1016)"/>
<defs>
<linearGradient id="paint0_linear_7291_1016" x1="32" y1="0.95459" x2="32" y2="44.1528" gradientUnits="userSpaceOnUse">
<stop stop-color="#214b92"/>
<stop offset="1" stop-color="#005A64"/>
</linearGradient>
</defs>
</svg>
