<svg width="101" height="100" viewBox="0 0 101 100" fill="none" xmlns="http://www.w3.org/2000/svg">
<path d="M50.5 0C22.8867 0 0.5 22.3867 0.5 50C0.5 77.6133 22.8867 100 50.5 100C78.1133 100 100.5 77.6133 100.5 50C100.5 22.3867 78.1133 0 50.5 0ZM50.4785 83.916C48.8715 83.916 47.3005 83.4396 45.9642 82.5469C44.6279 81.6543 43.5863 80.3855 42.9709 78.9009C42.3556 77.4164 42.1942 75.7827 42.5072 74.2064C42.8201 72.6302 43.5933 71.1821 44.7291 70.0452C45.8649 68.9083 47.3123 68.1337 48.8882 67.8192C50.4642 67.5048 52.098 67.6646 53.5832 68.2785C55.0683 68.8924 56.3381 69.9328 57.232 71.2683C58.126 72.6037 58.6039 74.1742 58.6055 75.7812C58.6065 76.8492 58.397 77.9068 57.9891 78.8937C57.5811 79.8806 56.9827 80.7774 56.2279 81.5329C55.4731 82.2884 54.5769 82.8877 53.5904 83.2966C52.6039 83.7055 51.5464 83.916 50.4785 83.916ZM58.3555 55.9277C58.2187 57.1836 57.6515 58.3533 56.75 59.2383C55.8367 60.1295 54.6484 60.6851 53.3789 60.8145H53.3418C52.5456 60.9056 51.7448 60.9512 50.9434 60.9512C49.9826 60.9561 49.0223 60.9104 48.0664 60.8145H48.0273C46.7585 60.6847 45.571 60.1291 44.6582 59.2383C43.7568 58.3533 43.1895 57.1836 43.0527 55.9277C42.8574 54.0938 42.7598 41.3574 42.7598 38.5195C42.7598 35.6816 42.8594 22.9121 43.0527 21.0781C43.1873 19.8188 43.7547 18.6453 44.6582 17.7578C45.5718 16.8681 46.7589 16.3128 48.0273 16.1816H48.0664C49.0222 16.0862 49.9835 16.0568 50.9434 16.0938C51.7432 16.0567 52.5448 16.0861 53.3398 16.1816H53.3789C54.65 16.3166 55.8381 16.8776 56.75 17.7734C57.6535 18.6609 58.2209 19.8345 58.3555 21.0938C58.5508 22.9277 58.6484 35.6992 58.6484 38.5352C58.6484 41.3711 58.5488 54.1016 58.3555 55.9277Z" fill="#FF7A59"/>
</svg>
