<svg width="400" height="372" viewBox="0 0 400 372" fill="none" xmlns="http://www.w3.org/2000/svg">
<g clip-path="url(#clip0_9130_1162)">
<path d="M363.885 305.103C358.563 305.299 351.873 302.322 346.121 297.034C341.934 293.195 338.491 288.769 335.283 284.107C296.39 227.817 257.536 171.526 218.683 115.197C215.905 111.162 212.97 107.284 209.331 103.993C202.562 97.9608 196.85 97.9217 189.924 104.072C184.838 108.576 180.925 114.1 177.09 119.662C150.053 159.069 123.055 198.516 95.9009 237.845C83.7713 255.433 71.3288 272.826 58.8472 290.14C49.9652 302.44 38.1096 307.415 23.0064 303.889C1.40805 298.836 -7.00435 272.63 6.65113 255.237C16.8243 242.31 25.4323 228.169 34.7055 214.537C78.45 150.334 122.312 86.0916 165.9 21.6925C172.317 12.2129 179.321 4.06504 190.981 1.55802C204.714 -1.3799 216.492 1.55802 225.726 12.918C246.072 37.7923 262.975 65.0953 280.974 91.5758C318.419 146.574 356.49 201.14 393.074 256.726C399.686 266.754 402.856 276.625 396.478 287.633C389.826 299.071 379.771 304.986 363.807 305.103H363.885Z" fill="white"/>
<path d="M181.747 371.422C160.54 371.5 123.016 371.226 85.454 370.482C70.0769 370.168 61.5472 359.004 65.1078 343.962C66.5946 337.655 69.3726 331.936 73.2463 326.844C95.7445 297.073 115.582 265.422 136.868 234.789C151.853 213.245 166.761 191.661 181.708 170.038C184.094 166.59 186.872 163.613 190.433 161.42C199.198 156.053 208.236 157.973 214.927 167.256C227.213 184.296 239.342 201.415 251.315 218.689C277.883 257.078 304.177 295.663 330.822 334.012C336.261 341.847 339.235 349.564 333.952 358.417C328.631 367.387 320.806 371.579 310.202 371.5C272.835 371.265 235.508 371.422 181.786 371.422H181.747Z" fill="#5FCAFA"/>
</g>
<defs>
<clipPath id="clip0_9130_1162">
<rect width="400" height="371" fill="white" transform="translate(0 0.5)"/>
</clipPath>
</defs>
</svg>
