<svg width="16" height="14" viewBox="0 0 16 14" fill="none" xmlns="http://www.w3.org/2000/svg">
<path d="M13.6903 7.5404H12.453C12.5791 7.88572 12.648 8.25838 12.648 8.64678V13.3234C12.648 13.4853 12.6198 13.6407 12.5685 13.7853H14.6142C15.3783 13.7853 16 13.1636 16 12.3995V9.85007C16 8.57653 14.9639 7.5404 13.6903 7.5404ZM3.35204 8.64681C3.35204 8.25838 3.42094 7.88575 3.54707 7.54044H2.30969C1.03613 7.54044 0 8.57656 0 9.85013V12.3995C0 13.1637 0.621657 13.7854 1.38582 13.7854H3.43151C3.37886 13.637 3.35198 13.4808 3.35204 13.3234V8.64681ZM9.41442 6.33712H6.58561C5.31204 6.33712 4.27591 7.37325 4.27591 8.64681V13.3234C4.27591 13.5785 4.48273 13.7853 4.73785 13.7853H11.2622C11.5173 13.7853 11.7241 13.5785 11.7241 13.3234V8.64681C11.7241 7.37325 10.688 6.33712 9.41442 6.33712ZM8.00002 0.212891C6.46839 0.212891 5.22232 1.45896 5.22232 2.99061C5.22232 4.02952 5.79573 4.93687 6.64254 5.41324C7.0442 5.63918 7.50726 5.76831 8.00002 5.76831C8.49277 5.76831 8.95583 5.63918 9.35749 5.41324C10.2043 4.93687 10.7777 4.02949 10.7777 2.99061C10.7777 1.45899 9.53164 0.212891 8.00002 0.212891ZM3.12244 2.80193C1.97697 2.80193 1.0451 3.7338 1.0451 4.87927C1.0451 6.02475 1.97697 6.95662 3.12244 6.95662C3.40393 6.95686 3.6825 6.89957 3.94104 6.78825C4.3756 6.60115 4.73392 6.26997 4.95563 5.85512C5.11625 5.55495 5.20013 5.21971 5.19979 4.87927C5.19979 3.73383 4.26791 2.80193 3.12244 2.80193ZM12.8776 2.80193C11.7321 2.80193 10.8002 3.7338 10.8002 4.87927C10.7999 5.21972 10.8838 5.55495 11.0444 5.85512C11.2661 6.27 11.6244 6.60118 12.059 6.78825C12.3175 6.89957 12.5961 6.95686 12.8776 6.95662C14.0231 6.95662 14.9549 6.02475 14.9549 4.87927C14.9549 3.7338 14.0231 2.80193 12.8776 2.80193Z" fill="#01C7FB"/>
</svg>
