<svg width="16" height="16" viewBox="0 0 16 16" fill="none" xmlns="http://www.w3.org/2000/svg">
<g clip-path="url(#clip0_10268_30884)">
<path d="M2.01562 9.75C2.6625 9.75 3.18437 10.275 3.18437 10.9187V14.8281C3.18437 15.475 2.65937 15.9969 2.01562 15.9969C1.36875 15.9969 0.846874 15.4719 0.846874 14.8281V10.9187C0.846874 10.275 1.36875 9.75 2.01562 9.75ZM6.00625 6.625C6.65312 6.625 7.175 7.15 7.175 7.79375V14.8281C7.175 15.475 6.65 15.9969 6.00625 15.9969C5.35937 15.9969 4.8375 15.4719 4.8375 14.8281V7.79375C4.83437 7.15 5.35937 6.625 6.00625 6.625ZM9.99375 3.5C10.6406 3.5 11.1625 4.025 11.1625 4.66875V14.8281C11.1625 15.475 10.6375 15.9969 9.99375 15.9969C9.34687 15.9969 8.825 15.4719 8.825 14.8281V4.66875C8.825 4.025 9.35 3.5 9.99375 3.5ZM13.9844 0C14.6312 0 15.1531 0.525 15.1531 1.16875V14.8281C15.1531 15.475 14.6281 15.9969 13.9844 15.9969C13.3375 15.9969 12.8156 15.4719 12.8156 14.8281V1.16875C12.8156 0.525 13.3375 0 13.9844 0Z" fill="#13AEF3"/>
</g>
<defs>
<clipPath id="clip0_10268_30884">
<rect width="16" height="16" fill="white"/>
</clipPath>
</defs>
</svg>
