<svg width="23" height="12" viewBox="0 0 23 12" fill="none" xmlns="http://www.w3.org/2000/svg">
<path d="M7.00814 7.83769C7.48414 7.83769 7.58214 7.99169 7.58214 8.21569C7.58214 8.46769 7.45614 8.92969 6.74214 8.92969C6.18214 8.92969 5.81814 8.77569 5.56614 8.55169C5.13214 9.81169 3.62014 11.0157 1.38014 11.4077L0.792141 10.5957L0.848141 10.4837C3.56414 9.96569 4.55814 8.87369 4.82414 7.78169C4.60014 7.13769 4.16614 6.25569 3.74614 5.42969L4.55814 4.56169H4.69814C5.04814 5.52769 5.38414 6.35369 5.52414 6.71769C5.90214 7.65569 6.09814 7.83769 7.00814 7.83769ZM13.006 7.83769C13.398 7.83769 13.58 7.94969 13.58 8.22969C13.58 8.63569 13.244 8.92969 12.74 8.92969H11.802C12.082 9.27969 12.25 9.74169 12.25 10.1757C12.25 11.0157 11.438 11.6877 10.458 11.6877C8.82005 11.6877 7.71405 10.6097 7.63005 8.92969H6.74805L7.01405 7.83769H7.71405C7.92405 6.66169 8.55405 5.38769 9.46405 4.29569L10.164 3.69369L10.262 3.67969C11.494 4.98169 11.872 5.59769 11.872 6.29769C11.872 6.81569 11.578 7.48769 11.186 7.83769H13.006ZM10.108 5.00969C9.35205 6.00369 8.91805 6.91369 8.77805 7.86569C9.99605 7.86569 10.794 7.30569 10.794 6.40969C10.794 6.01769 10.598 5.61169 10.108 5.00969ZM11.326 10.3717C11.34 9.46169 10.612 8.87369 9.47805 8.87369C9.22605 8.87369 8.93205 8.92969 8.72205 9.01369C8.84805 9.97969 9.56205 10.6097 10.584 10.6097C10.878 10.6097 11.172 10.5117 11.326 10.3717ZM19.7223 0.851687L19.0223 1.94369L17.8743 1.13169L18.5883 0.0816871L19.7223 0.851687ZM18.8683 2.44769L18.1823 3.52569L17.0483 2.72769L17.7343 1.66369L18.8683 2.44769ZM20.1563 3.52569L19.0223 2.72769L19.7363 1.66369L20.8703 2.44769L20.1563 3.52569ZM22.2003 4.22569C22.6203 5.21969 22.9143 6.14369 22.9143 6.74569C22.9143 8.35569 21.9063 8.92969 20.3803 8.92969C19.7783 8.92969 19.2463 8.78969 18.7983 8.56569C18.4903 8.80369 18.0843 8.92969 17.5103 8.92969C16.5443 8.92969 15.7743 8.63569 15.3263 8.31369C14.7943 8.73369 14.0243 8.92969 12.7363 8.92969L13.0023 7.83769C13.8843 7.83769 14.4723 7.75369 14.7803 7.55769C14.9623 7.30569 15.1443 6.81569 15.3683 6.07369L16.5583 5.90569L16.6143 5.97569C16.4043 6.57769 16.2083 7.09569 15.9843 7.51569C16.4043 7.68369 17.0903 7.83769 17.6223 7.83769C17.8743 7.83769 18.1683 7.78169 18.3223 7.68369C18.5043 7.44569 18.7143 6.87169 18.9663 6.07369L20.0863 5.90569L20.1423 5.96169C19.8903 6.64769 19.7083 7.22169 19.4843 7.66969C19.7783 7.76769 20.1283 7.83769 20.4783 7.83769C20.9683 7.83769 21.4863 7.79569 21.7523 7.66969C22.0463 6.95569 21.6543 5.97569 21.1783 4.93969L22.1163 4.21169L22.2003 4.22569Z" fill="#5fcafa"/>
</svg>
