<svg xmlns="http://www.w3.org/2000/svg" version="1.1" xmlns:xlink="http://www.w3.org/1999/xlink" width="512" height="512" x="0" y="0" viewBox="0 0 512 512" style="enable-background:new 0 0 512 512" xml:space="preserve" class=""><g><path d="M502.464 182.809a7.003 7.003 0 0 0-6.469-4.322h-41.42c-15.615-38.154-41.708-70.779-75.696-94.569-36.131-25.29-78.627-38.658-122.893-38.658-32.662 0-64.358 7.291-93.248 21.273-2.864-30.947-28.963-55.261-60.644-55.261-33.574 0-60.888 27.327-60.888 60.917v3.345h-1.474c-11.926 0-21.628 9.716-21.628 21.657v87.817c0 11.926 9.703 21.629 21.628 21.629h124.724c11.941 0 21.657-9.703 21.657-21.629v-38.646c20.62-12.723 44.652-19.719 69.874-19.719 41.802 0 80.35 19.159 105.476 51.845h-32.795a7.002 7.002 0 0 0-4.95 11.954l83.679 83.65a6.983 6.983 0 0 0 4.95 2.05 6.985 6.985 0 0 0 4.951-2.051l83.65-83.65a7.003 7.003 0 0 0 1.518-7.631zM55.208 72.188c0-25.868 21.033-46.913 46.885-46.913s46.914 21.045 46.914 46.913v3.345h-11.311v-3.345c0-19.616-15.971-35.575-35.603-35.575S66.518 52.572 66.518 72.188v3.345H55.207v-3.345zm68.485 3.344H80.521v-3.345c0-11.895 9.677-21.571 21.572-21.571s21.6 9.677 21.6 21.571zm48.416 109.475c0 4.205-3.434 7.625-7.654 7.625H39.731c-4.205 0-7.625-3.42-7.625-7.625V97.19c0-4.221 3.421-7.653 7.625-7.653h124.724c4.149 0 7.654 3.505 7.654 7.653zm240.235 74.231-66.771-66.748h29.269a7.002 7.002 0 0 0 5.935-10.717c-27.103-43.29-73.754-69.135-124.792-69.135-24.926 0-48.806 6.172-69.874 17.531V97.19c0-8.837-5.323-16.45-12.928-19.814 25.582-11.685 53.742-18.113 82.802-18.113 82.505 0 157.773 51.733 187.295 128.732a7.003 7.003 0 0 0 6.538 4.495h29.273l-66.748 66.748zm-241.128-17.666a7.002 7.002 0 0 0-4.719 6.619v23.187a7 7 0 0 0 4.719 6.619l13.263 4.573 1.767.602a72.135 72.135 0 0 0 3.89 9.413l-6.966 14.236a7.003 7.003 0 0 0 1.337 8.031l16.413 16.412a7.003 7.003 0 0 0 8.013 1.345l14.293-6.951a73.623 73.623 0 0 0 9.392 3.894l5.153 14.994a7.001 7.001 0 0 0 6.622 4.729h23.216a7 7 0 0 0 6.622-4.729l5.154-14.994a73.525 73.525 0 0 0 9.391-3.894l14.293 6.951a6.994 6.994 0 0 0 8.013-1.345l16.413-16.412a7.003 7.003 0 0 0 1.337-8.031l-6.966-14.236a71.996 71.996 0 0 0 3.89-9.413l15.03-5.175a7.002 7.002 0 0 0 4.719-6.619v-23.187a7 7 0 0 0-4.719-6.619l-15.028-5.185a72.342 72.342 0 0 0-3.891-9.403l6.969-14.271a7 7 0 0 0-1.344-8.029L311.079 188.3a7.004 7.004 0 0 0-8.009-1.341l-14.293 6.951a73.623 73.623 0 0 0-9.392-3.894l-5.153-14.994a7.001 7.001 0 0 0-6.622-4.729h-23.216a7 7 0 0 0-6.622 4.729l-5.153 14.994a73.538 73.538 0 0 0-9.392 3.894l-14.293-6.951a7.002 7.002 0 0 0-8.009 1.341l-16.413 16.384a7 7 0 0 0-1.344 8.029l6.969 14.271a72.355 72.355 0 0 0-3.891 9.404l-15.028 5.184zm22.968 6.886a6.997 6.997 0 0 0 4.455-4.736 58.284 58.284 0 0 1 5.438-13.134 7.003 7.003 0 0 0 .21-6.517l-6.343-13.011 9.344-9.328 13.012 6.325a7.004 7.004 0 0 0 6.488-.193 59.421 59.421 0 0 1 13.162-5.454 7.002 7.002 0 0 0 4.737-4.455l4.703-13.656h13.218l4.703 13.656a7.002 7.002 0 0 0 4.737 4.455 59.576 59.576 0 0 1 13.162 5.454 7.004 7.004 0 0 0 6.489.193l13.011-6.325 9.345 9.328-6.344 13.012a7.004 7.004 0 0 0 .21 6.516 58.269 58.269 0 0 1 5.438 13.133 6.998 6.998 0 0 0 4.455 4.737l13.685 4.726v13.202l-13.652 4.686a7.004 7.004 0 0 0-4.491 4.758 57.976 57.976 0 0 1-5.435 13.152 7.004 7.004 0 0 0-.21 6.516l6.342 12.991-9.347 9.347-13.007-6.323a7.004 7.004 0 0 0-6.489.193 59.46 59.46 0 0 1-13.162 5.454 7.002 7.002 0 0 0-4.737 4.455l-4.703 13.656H249.39l-4.703-13.656a7.002 7.002 0 0 0-4.737-4.455 59.58 59.58 0 0 1-13.162-5.453 7.002 7.002 0 0 0-6.488-.194l-13.008 6.323-9.347-9.347 6.342-12.99a7.003 7.003 0 0 0-.21-6.517 58.043 58.043 0 0 1-5.436-13.152 7.002 7.002 0 0 0-4.49-4.758l-13.652-4.686v-13.202zm61.802 56.256c24.774 0 44.929-20.155 44.929-44.929s-20.155-44.93-44.929-44.93-44.9 20.155-44.9 44.93 20.142 44.929 44.9 44.929zm0-75.855c17.053 0 30.926 13.873 30.926 30.926s-13.874 30.925-30.926 30.925-30.897-13.873-30.897-30.925 13.861-30.926 30.897-30.926zM102.093 97.189c-14.958 0-27.127 12.487-27.127 27.836 0 7.908 3.271 15.368 8.9 20.612v12.298c0 10.051 8.177 18.228 18.227 18.228s18.255-8.177 18.255-18.228v-12.298c5.63-5.244 8.901-12.704 8.901-20.612 0-15.349-12.182-27.836-27.156-27.836zm7.244 39.388a7.002 7.002 0 0 0-2.992 5.74v15.618c0 2.29-1.947 4.224-4.252 4.224-2.29 0-4.224-1.934-4.224-4.224v-15.618a7 7 0 0 0-2.992-5.74c-3.699-2.584-5.908-6.902-5.908-11.552 0-7.627 5.888-13.832 13.125-13.832s13.153 6.205 13.153 13.832c0 4.649-2.209 8.968-5.909 11.552zm312.731 149.704c-18.902 0-36.677 7.365-50.05 20.738-12.373 12.373-19.417 28.72-20.515 45.567-24.799 25.623-58.911 40.341-95.517 40.341-41.767 0-80.305-19.162-105.443-51.845h32.791a7.002 7.002 0 0 0 4.95-11.954l-83.679-83.65a7.006 7.006 0 0 0-9.901 0l-83.65 83.652a7.003 7.003 0 0 0 4.951 11.953h41.42c15.615 38.153 41.707 70.778 75.693 94.569 36.127 25.291 78.615 38.659 122.868 38.659 7.877 0 15.696-.432 23.434-1.27l1.798 18.583a7.001 7.001 0 0 0 6.302 6.295l28.999 2.777a7.002 7.002 0 0 0 5.618-2.019l75.281-75.281c25.68 9.517 55.146 3.248 74.7-16.306 13.36-13.36 20.717-31.13 20.717-50.036s-7.357-36.677-20.717-50.036c-13.373-13.373-31.148-20.738-50.05-20.738zM285.195 454.924c-2.72.072-5.036 1.708-6.134 4.023a197.447 197.447 0 0 1-23.076 1.36c-82.487 0-157.744-51.733-187.267-128.733a7.003 7.003 0 0 0-6.538-4.495H32.907l66.748-66.748 66.771 66.748h-29.269a7.003 7.003 0 0 0-5.933 10.719c27.122 43.288 73.761 69.133 124.761 69.133 36.244 0 70.276-13.057 96.676-36.133a69.979 69.979 0 0 0 3.051 10.919l-12.92 12.921a7.007 7.007 0 0 0-2.048 4.765l-.362 13.584-13.613.381a7.002 7.002 0 0 0-6.803 6.803l-.381 13.594-13.594.382a7.002 7.002 0 0 0-6.803 6.803l-.381 13.612zm177.021-57.735c-16.622 16.62-42.167 21.274-63.565 11.584a6.998 6.998 0 0 0-7.839 1.427l-76.243 76.243-19.968-1.912-1.53-15.809 12.736-.339a7.003 7.003 0 0 0 6.813-6.803l.381-13.622 13.594-.382a7.003 7.003 0 0 0 6.803-6.803l.381-13.594 13.623-.381a7.002 7.002 0 0 0 6.803-6.812l.464-17.421 14.24-14.24a7.003 7.003 0 0 0 1.428-7.837c-9.685-21.409-5.03-46.955 11.583-63.567 10.729-10.729 24.987-16.638 40.148-16.638s29.42 5.909 40.148 16.638c10.714 10.714 16.615 24.967 16.615 40.134s-5.901 29.419-16.615 40.134zm-27.335-77.31c-6.511 0-12.631 2.543-17.23 7.159-9.473 9.478-9.476 24.923.005 34.444 4.748 4.747 10.983 7.122 17.221 7.121 6.241 0 12.484-2.377 17.239-7.132 9.472-9.513 9.467-24.962 0-34.429-4.6-4.619-10.721-7.164-17.235-7.164zm7.322 31.701c-4.038 4.037-10.608 4.04-14.636.011-4.035-4.053-4.04-10.627-.011-14.656l.011-.011c1.953-1.962 4.55-3.042 7.313-3.042s5.359 1.08 7.323 3.053c4.029 4.029 4.024 10.604 0 14.646z" fill="#214B92" opacity="1" data-original="#000000" class=""></path></g></svg>