<svg width="20" height="21" viewBox="0 0 20 21" fill="none" xmlns="http://www.w3.org/2000/svg">
<path d="M19.3177 7.21918L14.7904 2.69187C14.4168 2.31832 14.0379 2.12891 13.6643 2.12891C13.1512 2.12891 12.5521 2.51914 12.5521 3.61898V5.16027C9.26285 5.30363 6.19117 6.65258 3.84836 8.99527C1.36695 11.4765 0.000234375 14.7755 0 18.2847C5.38261e-06 18.4076 0.0386751 18.5274 0.110535 18.6272C0.182396 18.7269 0.283807 18.8015 0.400413 18.8405C0.51702 18.8794 0.642915 18.8806 0.760278 18.8441C0.877642 18.8075 0.980529 18.7349 1.05438 18.6366C3.82074 14.9544 7.98559 12.7782 12.5521 12.6064V14.124C12.5521 15.2238 13.1512 15.6141 13.6642 15.6141H13.6643C14.038 15.6141 14.4169 15.4247 14.7904 15.0512L19.3177 10.5238C19.7577 10.0839 20 9.49711 20 8.87148C20 8.24598 19.7577 7.65914 19.3177 7.21918Z" fill="#0D0D0D" fill-opacity="0.35"/>
</svg>
