<svg width="33" height="32" viewBox="0 0 33 32" fill="none" xmlns="http://www.w3.org/2000/svg">
<path d="M32.7508 16C32.7508 24.8362 25.587 32 16.75 32H16.72C7.89721 31.9834 0.75 24.8244 0.75 16C0.75 7.17559 7.89721 0.0157705 16.72 0H16.75C25.587 0 32.7508 7.1614 32.7508 16Z" fill="black"/>
<path d="M16.72 0V32C7.89721 31.9834 0.75 24.8244 0.75 16C0.75 7.17559 7.89721 0.0157705 16.72 0Z" fill="#0C0C0C"/>
<path d="M25.4561 11.571L25.4364 14.849C24.7977 14.8411 24.1622 14.7559 23.544 14.595C22.5902 14.3459 21.6906 13.9227 20.8906 13.3468C20.8906 13.6819 20.8953 14.1819 20.8953 14.7898C20.8953 15.5988 20.8953 16.0586 20.8906 16.5466C20.8764 19.562 20.9513 20.1455 20.6863 21.3377C20.6312 21.6253 20.5559 21.9085 20.4608 22.1854C19.9514 23.6048 18.8412 24.7418 17.7096 25.3466C17.3939 25.5145 17.0624 25.651 16.72 25.7543C14.5816 26.4024 12.0118 25.8331 10.6855 24.2561L10.6768 24.2466L10.6665 24.2332C9.53972 22.8738 9.2937 20.7542 9.27004 20.2117C9.27004 20.1423 9.26531 20.0745 9.26531 20.0745C9.24795 19.3334 9.35456 18.5947 9.58072 17.8887C9.8094 17.1585 10.5624 15.6343 12.2538 14.7086C13.3087 14.1403 14.5127 13.91 15.7028 14.0486L15.6642 17.3659C15.5972 17.3486 13.9768 16.9646 12.913 18.0685C11.9495 19.0684 12.0118 20.6793 12.6954 21.5916C12.7317 21.6405 12.7703 21.6878 12.8105 21.732C13.193 22.1586 13.6779 22.3187 14.0051 22.4306C14.4391 22.5736 14.8945 22.6403 15.3512 22.6278C15.8404 22.6201 16.3163 22.4673 16.7185 22.1886C17.8303 21.4332 17.9801 20.0879 17.9856 20.0114C17.972 15.6808 17.9591 11.3503 17.947 7.01967V7.01573L20.0311 6.97866H20.065L20.367 6.97314C20.5897 7.77456 20.9671 8.52463 21.478 9.18102C21.639 9.38632 21.8128 9.58122 21.9984 9.76453C22.6998 10.4471 23.5423 10.9677 24.4665 11.2895H24.4728C24.7935 11.4067 25.1221 11.5008 25.4561 11.571Z" fill="#FD2854"/>
<path d="M24.5138 13.0541H24.5075C23.3852 13.2339 22.2363 13.1467 21.1539 12.7994C20.3982 12.5537 19.6887 12.1835 19.0549 11.7041C19.4349 14.0015 19.4349 16.3458 19.0549 18.6432C18.6046 21.3431 18.3223 23.0353 16.8155 24.1179C16.7839 24.1408 16.7516 24.1637 16.7193 24.1849C14.6383 25.594 11.731 24.8946 10.6657 24.2315L10.65 24.222L10.62 24.2031C10.2689 23.9705 9.93949 23.7065 9.63592 23.4146C9.09174 22.8867 8.6575 22.2563 8.35827 21.5597C8.05903 20.8631 7.90073 20.1141 7.89249 19.356C7.87224 18.5708 8.00259 17.7889 8.2765 17.0527C8.45392 16.5796 9.11313 14.8969 10.9496 13.8726C12.1256 13.2278 13.4844 12.9978 14.8071 13.2197C14.8018 13.4825 14.7968 13.7454 14.7921 14.0082V14.0137L14.7613 15.6775C14.1858 15.5419 13.5908 15.5088 13.0037 15.5798C12.5306 15.6381 12.0669 15.6925 11.5741 16.0024C10.9429 16.4087 10.4962 17.0462 10.3298 17.7782C10.2245 18.1327 10.2029 18.5068 10.2667 18.8711C10.2857 18.9751 10.4244 19.6982 11.008 20.2171C11.2043 20.3913 11.2879 20.3984 11.5741 20.6657C11.8264 20.9023 11.8895 21.0159 12.1206 21.2122C12.1206 21.2122 12.1773 21.2603 12.2704 21.3281C12.2764 21.3333 12.2827 21.338 12.2893 21.3423C12.4165 21.4354 12.5501 21.5194 12.6891 21.5938C13.2671 21.8966 14.3016 21.929 15.0602 21.5607C16.1097 21.0506 16.6822 19.8772 16.6798 19.1802C16.6672 14.848 16.6543 10.5161 16.6412 6.18445H16.7137L19.9325 6.16553C19.9302 6.4166 19.965 6.66664 20.0358 6.90753C20.0437 6.93355 20.0516 6.958 20.0602 6.98638C20.0689 7.01477 20.0744 7.02818 20.0815 7.04789C20.1315 7.17893 20.1891 7.3069 20.2542 7.43111L20.2992 7.52179V7.52889C20.2984 7.53093 20.2984 7.53316 20.2992 7.5352L20.3063 7.55018L20.3134 7.56437C20.3176 7.57355 20.3224 7.58249 20.3276 7.59118C20.3323 7.60143 20.3378 7.61169 20.3433 7.62194C20.3733 7.6795 20.4143 7.7552 20.4608 7.84036C20.49 7.89319 20.5207 7.94602 20.5523 7.99806L20.5862 8.05405C20.6028 8.08244 20.6201 8.11082 20.6374 8.13842L20.7005 8.23856C20.9458 8.62573 21.3763 9.27784 21.9866 9.77067C22.8445 10.463 23.8302 10.6586 24.4484 10.7169C24.4523 10.9109 24.4571 11.1049 24.461 11.2988C24.4841 11.8844 24.5018 12.4695 24.5138 13.0541Z" fill="#24F6FA"/>
<path d="M24.5241 13.9808C22.8993 14.0404 21.304 13.5352 20.0097 12.5512V19.4902C19.994 19.756 19.7614 22.6869 17.1135 24.3002C16.9826 24.3791 16.8509 24.4524 16.7192 24.5202C14.2283 25.7913 11.7941 24.7954 11.5536 24.6921C11.3145 24.614 11.0853 24.5081 10.8707 24.3767C10.8037 24.3349 10.7382 24.2916 10.676 24.2466L10.62 24.2048C8.9956 22.9716 8.92858 20.4593 8.91833 20.0887C8.90097 19.3476 9.00758 18.6089 9.23374 17.9029C9.50184 17.0474 10.3022 15.6052 11.9068 14.7228C12.7923 14.2409 13.7873 13.9965 14.7952 14.0131V14.0186L14.7558 16.5191C14.5863 16.4733 13.547 16.2115 12.5314 16.851C11.9002 17.2573 11.4535 17.8948 11.2871 18.6268C11.1875 18.982 11.166 19.3546 11.224 19.7189C11.314 20.1687 11.5263 20.5851 11.8375 20.9222C11.9683 21.0728 12.1144 21.2095 12.2735 21.3299C12.2795 21.335 12.2858 21.3398 12.2924 21.3441C12.4174 21.4404 12.5512 21.5247 12.6922 21.5956L12.6969 21.5995C12.9787 22.025 13.3852 22.353 13.8606 22.5385C14.3361 22.724 14.8572 22.7579 15.3527 22.6357C15.5836 22.5875 15.8078 22.5118 16.0206 22.4101C16.2783 22.2876 16.5145 22.1241 16.72 21.926C17.518 21.1587 17.6347 20.0974 17.6402 20.0335L17.6055 7.0315L17.9525 7.0244L20.0366 6.9834H20.0665C20.1277 7.13375 20.1937 7.28207 20.2644 7.42813L20.3094 7.51881V7.52591C20.3087 7.52795 20.3087 7.53017 20.3094 7.53221L20.3165 7.5472L20.3236 7.56139C20.3279 7.57056 20.3326 7.57951 20.3378 7.5882C20.3425 7.59845 20.348 7.6087 20.3535 7.61895C20.3898 7.68992 20.4324 7.76325 20.471 7.83737C20.5002 7.8902 20.531 7.94304 20.5625 7.99508L20.5964 8.05106L20.6477 8.13544L20.7107 8.23558C21.0714 8.79971 21.5037 9.3147 21.9968 9.76769C22.7164 10.4265 23.5537 10.9439 24.4649 11.2927H24.4712C24.4815 11.877 24.4917 12.4629 24.5012 13.0472L24.5241 13.9808Z" fill="white"/>
<path d="M25.4561 11.5709L25.4364 14.8488C24.7976 14.841 24.1622 14.7557 23.5439 14.5949C22.5902 14.3457 21.6906 13.9225 20.8906 13.3466C20.8906 13.6818 20.8953 14.1817 20.8953 14.7896C20.8953 15.5987 20.8953 16.0584 20.8906 16.5465C20.8764 19.5618 20.9513 20.1453 20.6863 21.3376C20.6312 21.6251 20.5558 21.9083 20.4608 22.1852C19.9514 23.6046 18.8412 24.7416 17.7096 25.3464C17.3939 25.5143 17.0624 25.6509 16.72 25.7541V6.18445L19.9388 6.16553C19.9365 6.4166 19.9713 6.66664 20.0421 6.90753C20.05 6.93355 20.0579 6.958 20.0665 6.98638L20.3685 6.98086C20.5912 7.78228 20.9687 8.53235 21.4796 9.18874C21.6406 9.39404 21.8144 9.58894 22 9.77225C22.8579 10.4646 23.8436 10.6601 24.4618 10.7185C24.4657 10.9125 24.4705 11.1064 24.4744 11.3004C24.7948 11.4138 25.1229 11.5042 25.4561 11.5709Z" fill="black" fill-opacity="0.09"/>
</svg>
