<svg width="15" height="13" viewBox="0 0 15 13" fill="none" xmlns="http://www.w3.org/2000/svg">
<path d="M6.46677 12.4955C5.29905 12.4999 3.2329 12.4845 1.1646 12.4426C0.317892 12.4249 -0.151785 11.7961 0.0442729 10.9488C0.126143 10.5936 0.279111 10.2714 0.492404 9.98459C1.73123 8.30769 2.82355 6.52488 3.99559 4.79944C4.82075 3.5859 5.64161 2.37014 6.46462 1.15218C6.59604 0.958018 6.74901 0.790328 6.94507 0.666767C7.42767 0.364484 7.92536 0.4726 8.29377 0.995527C8.97028 1.95533 9.63817 2.91955 10.2974 3.89259C11.7603 6.05491 13.2081 8.22826 14.6753 10.3884C14.9748 10.8297 15.1385 11.2643 14.8477 11.763C14.5547 12.2683 14.1238 12.5044 13.5399 12.4999C11.4824 12.4867 9.42703 12.4955 6.46893 12.4955H6.46677Z" fill="#5FCAFA"/>
</svg>
