<svg width="25" height="24" viewBox="0 0 25 24" fill="none" xmlns="http://www.w3.org/2000/svg">
<g clip-path="url(#clip0_909_7400)">
<path d="M12.6188 0C6.15931 0 0.904541 5.25477 0.904541 11.7143C0.904541 18.1738 6.15931 23.4286 12.6188 23.4286C19.0783 23.4286 24.3331 18.1738 24.3331 11.7143C24.3331 5.25477 19.0783 0 12.6188 0Z" fill="#20C46C"/>
<path d="M12.6188 0C6.15931 0 0.904541 5.25477 0.904541 11.7143C0.904541 18.1738 6.15931 23.4286 12.6188 23.4286C19.0783 23.4286 24.3331 18.1738 24.3331 11.7143C24.3331 5.25477 19.0783 0 12.6188 0Z" fill="black" fill-opacity="0.2"/>
<path d="M17.7437 12.6905H13.5948V16.8394C13.5948 17.3783 13.1576 17.8155 12.6187 17.8155C12.0798 17.8155 11.6426 17.3783 11.6426 16.8394V12.6905H7.49371C6.95479 12.6905 6.51758 12.2533 6.51758 11.7144C6.51758 11.1755 6.95479 10.7383 7.49371 10.7383H11.6426V6.58941C11.6426 6.05049 12.0798 5.61328 12.6187 5.61328C13.1576 5.61328 13.5948 6.05049 13.5948 6.58941V10.7383H17.7437C18.2826 10.7383 18.7198 11.1755 18.7198 11.7144C18.7198 12.2533 18.2826 12.6905 17.7437 12.6905Z" fill="#EEEEEE"/>
</g>
<defs>
<clipPath id="clip0_909_7400">
<rect width="23.4286" height="23.4286" fill="white" transform="translate(0.904541)"/>
</clipPath>
</defs>
</svg>
