<svg class="animated" id="freepik_stories-oops-404-error-with-a-broken-robot" xmlns="http://www.w3.org/2000/svg" viewBox="0 0 500 500" version="1.1" xmlns:xlink="http://www.w3.org/1999/xlink" xmlns:svgjs="http://svgjs.com/svgjs"><style>svg#freepik_stories-oops-404-error-with-a-broken-robot:not(.animated) .animable {opacity: 0;}svg#freepik_stories-oops-404-error-with-a-broken-robot.animated #freepik--background-complete--inject-26 {animation: 1s 1 forwards cubic-bezier(.36,-0.01,.5,1.38) zoomOut;animation-delay: 0s;}svg#freepik_stories-oops-404-error-with-a-broken-robot.animated #freepik--speech-bubble--inject-26 {animation: 1s 1 forwards cubic-bezier(.36,-0.01,.5,1.38) lightSpeedLeft;animation-delay: 0s;}svg#freepik_stories-oops-404-error-with-a-broken-robot.animated #freepik--Robot--inject-26 {animation: 1s 1 forwards cubic-bezier(.36,-0.01,.5,1.38) slideUp;animation-delay: 0s;}svg#freepik_stories-oops-404-error-with-a-broken-robot.animated #freepik--Floor--inject-26 {animation: 1s 1 forwards cubic-bezier(.36,-0.01,.5,1.38) fadeIn;animation-delay: 0s;}            @keyframes zoomOut {                0% {                    opacity: 0;                    transform: scale(1.5);                }                100% {                    opacity: 1;                    transform: scale(1);                }            }                    @keyframes lightSpeedLeft {              from {                transform: translate3d(-50%, 0, 0) skewX(20deg);                opacity: 0;              }              60% {                transform: skewX(-10deg);                opacity: 1;              }              80% {                transform: skewX(2deg);              }              to {                opacity: 1;                transform: translate3d(0, 0, 0);              }            }                    @keyframes slideUp {                0% {                    opacity: 0;                    transform: translateY(30px);                }                100% {                    opacity: 1;                    transform: inherit;                }            }                    @keyframes fadeIn {                0% {                    opacity: 0;                }                100% {                    opacity: 1;                }            }        .animator-hidden { display: none; }</style>



<g id="freepik--background-complete--inject-26">
  <title>Layer 1</title>
  <g class="animable" id="freepik--background-complete--inject-26">
   <path class="animable" d="m373.23,244a21.78,21.78 0 0 1 2.12,-5.37l-2.92,-4.47l6.15,-6.36l4.57,2.78a21.6,21.6 0 0 1 5.3,-2.3l1.09,-5.23l8.85,-0.15l1.27,5.2a21.78,21.78 0 0 1 5.37,2.12l4.47,-2.93l6.36,6.16l-2.78,4.55a21.53,21.53 0 0 1 2.3,5.29l5.23,1.1l0.15,8.85l-5.2,1.27a21.87,21.87 0 0 1 -2.12,5.36l2.93,4.48l-6.16,6.36l-4.57,-2.71a21.91,21.91 0 0 1 -5.29,2.3l-1.1,5.23l-8.85,0.14l-1.27,-5.19a21.87,21.87 0 0 1 -5.36,-2.12l-4.48,2.92l-6.36,-6.15l2.78,-4.57a22,22 0 0 1 -2.3,-5.3l-5.23,-1.09l-0.14,-8.85l5.19,-1.27l0,-0.05zm11.67,5a9.49,9.49 0 1 0 9.34,-9.65a9.48,9.48 0 0 0 -9.34,9.65z" fill="none" id="elatp19x3k7xl"/>
   <path class="animable" d="m384.9,249a7.24,7.24 0 0 1 0.16,-2.35a9.57,9.57 0 0 1 7.38,-7.32a9.8,9.8 0 0 1 5.12,0.31a9.78,9.78 0 0 1 4.59,3.31a9.7,9.7 0 0 1 0.19,11.52a9.05,9.05 0 0 1 -2,2.1a9.19,9.19 0 0 1 -2.44,1.36a9.75,9.75 0 0 1 -5.11,0.48a9.6,9.6 0 0 1 -7.62,-7.08a7.32,7.32 0 0 1 -0.23,-2.33a21.12,21.12 0 0 0 0.43,2.28a9.5,9.5 0 0 0 3.55,5.05a9.28,9.28 0 0 0 8.8,1.15a8.88,8.88 0 0 0 2.32,-1.3a8.7,8.7 0 0 0 1.92,-2a9.22,9.22 0 0 0 -0.18,-10.92a8.88,8.88 0 0 0 -2,-1.94a8.69,8.69 0 0 0 -2.36,-1.22a9.29,9.29 0 0 0 -4.87,-0.34a9.12,9.12 0 0 0 -3.89,1.77a9.45,9.45 0 0 0 -3.38,5.17a19.37,19.37 0 0 0 -0.38,2.3z" fill="rgb(224, 224, 224)" id="elhufdd05k4ao"/>
   <path class="animable" d="m373.23,244a1.31,1.31 0 0 1 -0.32,0.1l-1,0.26l-3.87,1l0.06,-0.08c0.05,2.26 0.11,5.24 0.19,8.84l-0.1,-0.12l5.24,1.07l0.09,0l0,0.09a21.81,21.81 0 0 0 2.3,5.25l0.05,0.09l-0.05,0.08l-2.77,4.58l0,-0.23l6.37,6.15l-0.25,0l4.47,-2.93l0.11,-0.08l0.11,0.07a22.18,22.18 0 0 0 5.32,2.09l0.13,0l0,0.14c0.4,1.61 0.83,3.38 1.28,5.19l-0.23,-0.18l8.85,-0.15l-0.24,0.19c0.34,-1.63 0.72,-3.42 1.09,-5.24l0,-0.14l0.15,0a21.48,21.48 0 0 0 5.23,-2.28l0.13,-0.08l0.13,0.08l4.57,2.78l-0.31,0l6.15,-6.36l0,0.32l-2.93,-4.48l-0.08,-0.13l0.07,-0.14a21.33,21.33 0 0 0 2.1,-5.29l0,0l0,-0.15l0.15,0l5.2,-1.26l-0.2,0.25c-0.05,-3 -0.1,-5.94 -0.14,-8.85l0.2,0.25l-5.23,-1.1l-0.15,0l-0.05,-0.15a21.38,21.38 0 0 0 -2.26,-5.23l-0.08,-0.13l0.08,-0.13l2.78,-4.57l0,0.31l-6.35,-6.16l0.29,0l-4.48,2.93l-0.12,0.07l-0.12,-0.07a21.53,21.53 0 0 0 -5.3,-2.1l-0.14,0l0,-0.13l-1.26,-5.2l0.22,0.17l-8.85,0.13l0.19,-0.16c-0.39,1.84 -0.76,3.56 -1.11,5.23l0,0.11l-0.11,0a21.68,21.68 0 0 0 -5.26,2.26l-0.09,0.06l-0.09,-0.06l-4.49,-2.78l0.19,0l-6.18,6.34l0,-0.15l2.89,4.5l0,0l0,0a22.2,22.2 0 0 0 -1.77,4c-0.14,0.44 -0.24,0.78 -0.32,1s-0.11,0.34 -0.11,0.34s0,-0.12 0.07,-0.35s0.14,-0.58 0.28,-1a20.87,20.87 0 0 1 1.7,-4l0,0.09c-0.8,-1.22 -1.77,-2.68 -2.95,-4.46l-0.05,-0.08l0.06,-0.06l6.13,-6.39l0.09,-0.09l0.1,0.07l4.58,2.76l-0.17,0a21.58,21.58 0 0 1 5.33,-2.33l-0.14,0.14c0.35,-1.66 0.71,-3.39 1.09,-5.23l0,-0.16l0.16,0l8.85,-0.16l0.17,0l0,0.17c0.42,1.69 0.84,3.41 1.28,5.19l-0.17,-0.16a21.76,21.76 0 0 1 5.43,2.14l-0.24,0l4.47,-2.94l0.16,-0.1l0.14,0.13l6.37,6.15l0.14,0.14l-0.11,0.17l-2.77,4.57l0,-0.26a21.86,21.86 0 0 1 2.33,5.35l-0.2,-0.18l5.24,1.1l0.2,0l0,0.21q0.08,4.37 0.15,8.84l0,0.21l-0.2,0.05l-5.2,1.27l0.2,-0.19l0,0a22.28,22.28 0 0 1 -2.14,5.43l0,-0.27l2.92,4.48l0.12,0.17l-0.15,0.15l-6.16,6.36l-0.14,0.14l-0.17,-0.1l-4.57,-2.79l0.26,0a21.55,21.55 0 0 1 -5.36,2.32l0.18,-0.18c-0.38,1.81 -0.76,3.6 -1.1,5.23l0,0.19l-0.2,0l-8.85,0.14l-0.18,0l0,-0.18l-1.26,-5.2l0.16,0.17a22.31,22.31 0 0 1 -5.42,-2.16l0.23,0l-4.49,2.91l-0.13,0.09l-0.12,-0.11l-6.35,-6.17l-0.1,-0.1l0.07,-0.13l2.79,-4.56l0,0.17a21.94,21.94 0 0 1 -2.29,-5.34l0.11,0.11l-5.23,-1.11l-0.1,0l0,-0.1c0,-3.61 -0.07,-6.59 -0.1,-8.85l0,-0.07l0.05,0l3.86,-0.9l1,-0.22l0.37,-0.16z" fill="rgb(224, 224, 224)" id="elcfkhi9tkrga"/>
   <path class="animable" d="m114.41,219.61a24.61,24.61 0 0 1 2.37,-6l-3.27,-5l6.88,-7.11l5.12,3.11a24.46,24.46 0 0 1 5.92,-2.57l1.22,-5.85l9.9,-0.16l1.42,5.81a24.21,24.21 0 0 1 6,2.37l5,-3.27l7.11,6.88l-3.08,5.11a24.29,24.29 0 0 1 2.57,5.92l5.85,1.22l0.16,9.9l-5.81,1.42a24.21,24.21 0 0 1 -2.37,6l3.27,5l-6.88,7.11l-5.12,-3.11a24.29,24.29 0 0 1 -5.92,2.57l-1.22,5.85l-9.9,0.16l-1.42,-5.81a24.21,24.21 0 0 1 -6,-2.37l-5,3.27l-7.11,-6.88l3.11,-5.12a24.46,24.46 0 0 1 -2.57,-5.92l-5.85,-1.22l-0.16,-9.9l5.81,-1.42l-0.03,0.01zm13,5.61a10.62,10.62 0 1 0 10.44,-10.79a10.62,10.62 0 0 0 -10.39,10.79l-0.05,0z" fill="rgb(224, 224, 224)" fill-rule="evenodd" id="el46ixh2h8abp"/>
   <path class="animable" d="m342.47,194a7,7 0 0 1 0.68,-1.73l-0.94,-1.45l2,-2.05l1.47,0.9a7.28,7.28 0 0 1 1.71,-0.75l0.35,-1.69l2.86,0l0.41,1.67a7.27,7.27 0 0 1 1.73,0.69l1.45,-0.94l2.05,2l-0.89,1.48a7.25,7.25 0 0 1 0.74,1.71l1.69,0.35l0,2.86l-1.67,0.41a7.44,7.44 0 0 1 -0.69,1.73l0.95,1.45l-2,2l-1.48,-0.9a6.86,6.86 0 0 1 -1.71,0.74l-0.35,1.69l-2.86,0.05l-0.41,-1.68a7,7 0 0 1 -1.73,-0.68l-1.45,0.94l-2.05,-2l0.9,-1.48a6.86,6.86 0 0 1 -0.74,-1.71l-1.69,-0.35l0,-2.86l1.68,-0.41l-0.01,0.01zm3.76,1.62a3.07,3.07 0 1 0 3,-3.12a3.07,3.07 0 0 0 -3,3.16l0,-0.04z" fill="rgb(224, 224, 224)" fill-rule="evenodd" id="eloen1440dg0l"/>
   <path class="animable" d="m48.58,223.62a9.94,9.94 0 0 1 1,-2.39l-1.31,-2l2.73,-2.85l2,1.24a9.36,9.36 0 0 1 2.36,-1l0.49,-2.34l4,-0.07l0.57,2.32a10.37,10.37 0 0 1 2.39,1l2,-1.3l2.84,2.75l-1.24,2a9.81,9.81 0 0 1 1,2.37l2.34,0.49l0.07,3.95l-2.33,0.57a10,10 0 0 1 -0.94,2.4l1.3,2l-2.75,2.84l-2,-1.24a9.43,9.43 0 0 1 -2.37,1l-0.49,2.34l-4,0.07l-0.57,-2.32a10,10 0 0 1 -2.4,-0.95l-2,1.31l-2.82,-2.81l1.24,-2a9.28,9.28 0 0 1 -1,-2.37l-2.34,-0.49l-0.07,-3.95l2.32,-0.57l-0.02,0zm5.22,2.24a4.24,4.24 0 1 0 4.2,-4.31a4.24,4.24 0 0 0 -4.2,4.31z" fill="rgb(235, 235, 235)" fill-rule="evenodd" id="elcfm5vgr41zk"/>
   <path class="animable" d="m408.34,159.92a22.21,22.21 0 0 1 2.17,-5.49l-3,-4.58l6.3,-6.51l4.67,2.84a22.38,22.38 0 0 1 5.42,-2.34l1.12,-5.36l9.05,-0.15l1.3,5.32a22.37,22.37 0 0 1 5.49,2.17l4.58,-3l6.5,6.29l-2.84,4.68a22,22 0 0 1 2.35,5.41l5.36,1.13l0.14,9l-5.31,1.29a22.06,22.06 0 0 1 -2.17,5.49l3,4.58l-6.3,6.51l-4.67,-2.84a22.4,22.4 0 0 1 -5.42,2.35l-1.08,5.41l-9,0.15l-1.3,-5.32a22,22 0 0 1 -5.49,-2.17l-4.58,3l-6.5,-6.3l2.84,-4.68a22,22 0 0 1 -2.35,-5.41l-5.35,-1.12l-0.15,-9.06l5.31,-1.29l-0.09,0zm11.94,5.13a9.71,9.71 0 1 0 9.55,-9.87a9.7,9.7 0 0 0 -9.55,9.87z" fill="rgb(235, 235, 235)" fill-rule="evenodd" id="elbstni8j9l9"/>
   <path class="animable" d="m62.94,310.83a19.9,19.9 0 0 1 2,-5l-2.71,-4.15l5.7,-5.89l4.23,2.58a19.83,19.83 0 0 1 4.9,-2.13l1,-4.85l8.19,-0.13l1.18,4.81a20.21,20.21 0 0 1 5,2l4.14,-2.71l5.89,5.7l-2.57,4.23a20.18,20.18 0 0 1 2.12,4.9l4.85,1l0.14,8.19l-4.82,1.18a20.19,20.19 0 0 1 -2,5l2.71,4.14l-5.7,5.89l-4.19,-2.59a20.26,20.26 0 0 1 -4.9,2.13l-1.1,4.87l-8.2,0.14l-1.17,-4.81a20.29,20.29 0 0 1 -5,-2l-4.15,2.71l-5.89,-5.7l2.58,-4.24a19.51,19.51 0 0 1 -2.13,-4.9l-4.85,-1l-0.13,-8.2l4.81,-1.17l0.07,0zm10.8,4.64a8.8,8.8 0 1 0 8.65,-8.93a8.79,8.79 0 0 0 -8.65,8.93z" fill="rgb(245, 245, 245)" fill-rule="evenodd" id="elb5fvg8yrh8"/>
   <path class="animable" d="m234.89,141.28a9.07,9.07 0 0 1 0.85,-2.17l-1.18,-1.8l2.49,-2.57l1.84,1.12a8.8,8.8 0 0 1 2.13,-0.92l0.45,-2.11l3.56,-0.06l0.51,2.09a8.55,8.55 0 0 1 2.17,0.86l1.8,-1.18l2.57,2.48l-1.08,1.85a8.42,8.42 0 0 1 0.92,2.13l2.11,0.44l0.06,3.57l-2.09,0.51a8.7,8.7 0 0 1 -0.86,2.17l1.18,1.8l-2.48,2.57l-1.84,-1.12a8.87,8.87 0 0 1 -2.14,0.92l-0.44,2.11l-3.57,0.06l-0.51,-2.09a8.48,8.48 0 0 1 -2.16,-0.86l-1.81,1.18l-2.56,-2.48l1.12,-1.85a8.82,8.82 0 0 1 -0.93,-2.13l-2.11,-0.44l-0.06,-3.57l2.1,-0.51l-0.04,0zm4.7,2a3.83,3.83 0 1 0 3.77,-3.89a3.84,3.84 0 0 0 -3.77,3.91l0,-0.02z" fill="rgb(245, 245, 245)" fill-rule="evenodd" id="el6m7s1pnnp3q"/>
   <path class="animable" d="m420,390.92c4.5,-2.32 9.79,-2.62 14.78,-1.8c2.69,0.45 5.48,1.25 7.31,3.26s2.17,5.56 0.07,7.29a6.91,6.91 0 0 1 -4.6,1.17c-3.91,0 -8.25,-0.73 -11.37,1.62c-1.78,1.34 -3,3.57 -5.1,4.23a5,5 0 0 1 -5.54,-2.46a8.6,8.6 0 0 1 -0.62,-6.35a9.7,9.7 0 0 1 5.07,-6.96z" fill="rgb(235, 235, 235)" id="elyoksss48cw"/>
   <path class="animable" d="m409.66,371c2.75,3.93 8.09,2.63 10.57,0.23s3.52,-5.87 4.48,-9.18c2.18,-7.57 4.37,-15.52 2.75,-23.23a12.86,12.86 0 0 0 -3,-6.31a6.72,6.72 0 0 0 -6.39,-2.12c-2.69,0.71 -4.37,3.35 -5.58,5.86a55.35,55.35 0 0 0 -5.43,23.75c0,3.83 0.44,7.84 2.6,11" fill="rgb(235, 235, 235)" id="el99mz7gxvpmf"/>
   <path class="animable" d="m402.11,376.67c3,-3.55 3.55,-8.72 2.22,-13.16s-4.33,-8.21 -7.79,-11.29a41.81,41.81 0 0 0 -14,-8.23a14.87,14.87 0 0 0 -6.27,-1.07a6.55,6.55 0 0 0 -5.26,3.19c-1.47,2.8 -0.07,6.19 1.46,9a106.42,106.42 0 0 0 9.21,13.89c2.74,3.54 5.89,7 10.07,8.63s8.54,1.42 10.75,-1.49" fill="rgb(235, 235, 235)" id="el5fihauk3zr8"/>
   <path class="animable" d="m409.47,430.28a8.48,8.48 0 0 0 0.25,-1.79c0.13,-1.3 0.28,-2.93 0.47,-4.87a70.83,70.83 0 0 1 1.1,-7.14a54.77,54.77 0 0 1 2.6,-8.44a31.09,31.09 0 0 1 4.3,-7.62a16,16 0 0 1 5.44,-4.53a15.56,15.56 0 0 1 4.59,-1.43a8.61,8.61 0 0 0 1.78,-0.25a7.68,7.68 0 0 0 -1.81,0a14,14 0 0 0 -4.78,1.24a16,16 0 0 0 -5.74,4.57a30,30 0 0 0 -4.47,7.78a52.18,52.18 0 0 0 -2.58,8.57a62.27,62.27 0 0 0 -0.95,7.23c-0.15,2.07 -0.21,3.75 -0.24,4.9a8.89,8.89 0 0 0 0.04,1.78z" fill="rgb(224, 224, 224)" id="el9w5sfpfie2"/>
   <path class="animable" d="m409.81,426.53a3.84,3.84 0 0 0 0,-0.83l0,-2.37c0,-2.05 0,-5 0.1,-8.7c0.19,-7.34 0.82,-15.25 2,-26.39c1.16,-10.48 2.71,-22.68 4.35,-30.61c0.35,-1.8 0.7,-3.42 1,-4.84s0.59,-2.66 0.86,-3.65s0.4,-1.7 0.55,-2.3a2.94,2.94 0 0 0 0.14,-0.82a4,4 0 0 0 -0.28,0.78l-0.69,2.27c-0.31,1 -0.62,2.2 -1,3.62s-0.76,3 -1.14,4.83a268.55,268.55 0 0 0 -4.57,28.4c-1.23,11.17 -1.78,21.34 -1.83,28.7c0,3.68 0,6.66 0.13,8.72c0.06,1 0.11,1.74 0.15,2.37a3.14,3.14 0 0 0 0.23,0.82z" fill="rgb(224, 224, 224)" id="elz5b5uxqb5r"/>
   <path class="animable" d="m409.86,406.92a16.24,16.24 0 0 0 0,-2.48c-0.09,-1.59 -0.31,-3.88 -0.76,-6.7a87.45,87.45 0 0 0 -2.2,-9.74a79.53,79.53 0 0 0 -4.08,-11.56a61.73,61.73 0 0 0 -12,-18.67a30.88,30.88 0 0 0 -2.82,-2.62c-0.44,-0.37 -0.82,-0.73 -1.21,-1l-1.09,-0.76a15.66,15.66 0 0 0 -2.09,-1.33c-0.11,0.16 2.95,2 6.83,6.09a64.87,64.87 0 0 1 11.69,18.6a91.53,91.53 0 0 1 4.11,11.45c1.07,3.59 1.78,6.89 2.32,9.67s0.8,5.06 1,6.64a14.61,14.61 0 0 0 0.3,2.41z" fill="rgb(224, 224, 224)" id="elac32vplibus"/>
   <polygon class="animable" fill="rgb(224, 224, 224)" id="elb0sr7lpsb29" points="390.9 441.51 392.87 468.43 427.45 468.43 429.42 441.51 390.9 441.51"/>
   <rect class="animable" fill="rgb(224, 224, 224)" height="10.61" id="el6lu2heb6w3v" width="45.98" x="387.56" y="430.9"/>
   <polygon class="animable" fill="rgb(235, 235, 235)" id="eljhwl6eftixi" points="387.56 467.4 387.56 470.35 389.72 470.35 432.78 470.35 432.78 467.4 387.56 467.4"/>
   <polygon class="animable" fill="rgb(224, 224, 224)" id="el8eq510apvt" points="391.84 475.52 389.72 470.35 431.14 470.35 428.67 475.52 391.84 475.52"/>
   <path class="animable" d="m428.77,450.31s0,0.09 -0.16,0.25l-0.51,0.68l-2,2.58l-0.09,0.12l-0.08,-0.12l-4.93,-6.82l0.28,0l-4.87,6.9l-0.16,0.22l-0.17,-0.21l-5.82,-6.91l0.34,0l-0.32,0.4l-5.17,6.48l-0.17,0.22l-0.16,-0.23l-4.88,-6.87l0.29,0c-2.41,2.73 -4.44,5.06 -6,6.84l-0.1,0.12l-0.09,-0.14l-1.88,-3.16l-0.48,-0.84a1.64,1.64 0 0 1 -0.15,-0.3a1.92,1.92 0 0 1 0.21,0.27l0.53,0.81l2,3.1l-0.23,0c1.53,-1.81 3.54,-4.16 5.9,-6.93l0.15,-0.17l0.14,0.18l4.92,6.87l-0.33,0l5.15,-6.49l0.32,-0.4l0.16,-0.2l0.17,0.2l5.77,6.89l-0.35,0l4.93,-6.86l0.14,-0.2l0.14,0.2l4.85,6.92l-0.18,0c0.88,-1.06 1.58,-1.9 2.1,-2.51l0.56,-0.65l0.23,-0.24z" fill="rgb(245, 245, 245)" id="eldiv3tr5m5r"/>
   <path class="animable" d="m429.9,441.33c0,0.12 -8.67,0.22 -19.36,0.22s-19.35,-0.1 -19.35,-0.22s8.66,-0.21 19.35,-0.21s19.36,0.09 19.36,0.21z" fill="rgb(245, 245, 245)" id="ell68zynz7l8l"/>
   <path class="animable" d="m431.65,470.63c0,0.12 -9.42,0.22 -21,0.22s-21,-0.1 -21,-0.22s9.42,-0.21 21,-0.21s21,0.1 21,0.21z" fill="rgb(245, 245, 245)" id="eltsra3y7l8ht"/>
   <path class="animable" d="m67.42,169.17a10.87,10.87 0 0 1 1.79,0c0.58,0 1.29,0 2.1,0.06s1.76,0.09 2.78,0.22a64.67,64.67 0 0 1 7.17,1.13a71.67,71.67 0 0 1 8.54,2.42a72,72 0 0 1 8.12,3.61a62.75,62.75 0 0 1 6.21,3.76c0.87,0.56 1.6,1.14 2.27,1.62s1.21,0.93 1.65,1.31a12.38,12.38 0 0 1 1.34,1.19a10.53,10.53 0 0 1 -1.47,-1c-0.46,-0.35 -1,-0.77 -1.7,-1.23s-1.42,-1 -2.29,-1.56c-1.71,-1.13 -3.83,-2.37 -6.23,-3.63a76.93,76.93 0 0 0 -8.08,-3.55a77.6,77.6 0 0 0 -8.46,-2.5a72.05,72.05 0 0 0 -7.11,-1.24c-1,-0.15 -1.94,-0.2 -2.76,-0.29s-1.51,-0.12 -2.09,-0.15a11.41,11.41 0 0 1 -1.78,-0.17z" fill="rgb(235, 235, 235)" id="el6dipz6ljlke"/>
   <path class="animable" d="m48.89,280.58a3.13,3.13 0 0 1 0.54,-0.46l1.6,-1.21c0.69,-0.53 1.56,-1.17 2.6,-1.85s2.19,-1.5 3.54,-2.29s2.79,-1.71 4.42,-2.57s3.37,-1.76 5.23,-2.67a109,109 0 0 1 12.52,-4.92a110.78,110.78 0 0 1 13.07,-3.19c2,-0.32 4,-0.66 5.82,-0.83s3.53,-0.36 5.09,-0.45s3,-0.13 4.22,-0.16s2.31,0 3.18,0l2,0.07a3.2,3.2 0 0 1 0.7,0.06a3.45,3.45 0 0 1 -0.7,0l-2,0c-0.87,0 -1.94,0 -3.18,0.08s-2.64,0.08 -4.19,0.24s-3.26,0.25 -5.07,0.51s-3.75,0.54 -5.78,0.87a114.31,114.31 0 0 0 -13,3.22a115.86,115.86 0 0 0 -12.5,4.97c-1.85,0.9 -3.62,1.73 -5.22,2.62s-3.1,1.71 -4.44,2.5s-2.52,1.57 -3.57,2.23s-1.93,1.26 -2.64,1.76l-1.66,1.14a4.71,4.71 0 0 1 -0.58,0.33z" fill="rgb(235, 235, 235)" id="ely9yv4xhjlg"/>
   <path class="animable" d="m120.76,334.33a2.15,2.15 0 0 1 0.07,-0.54l0.3,-1.54c0.13,-0.66 0.31,-1.47 0.55,-2.4s0.48,-2 0.83,-3.17c0.65,-2.34 1.54,-5.08 2.67,-8.09s2.53,-6.24 4.18,-9.56s3.44,-6.36 5.15,-9.08s3.4,-5.06 4.89,-7c0.72,-1 1.43,-1.81 2,-2.56s1.14,-1.37 1.6,-1.88l1,-1.16c0.25,-0.26 0.38,-0.39 0.4,-0.38a2.17,2.17 0 0 1 -0.32,0.45c-0.25,0.33 -0.58,0.73 -1,1.22s-0.95,1.17 -1.53,1.94s-1.27,1.61 -2,2.6c-1.44,1.93 -3.06,4.31 -4.77,7s-3.43,5.76 -5.09,9.06s-3,6.52 -4.21,9.49s-2.07,5.71 -2.76,8c-0.37,1.16 -0.64,2.22 -0.9,3.14s-0.47,1.72 -0.63,2.38s-0.29,1.11 -0.4,1.51a2.61,2.61 0 0 1 -0.03,0.57z" fill="rgb(235, 235, 235)" id="elc3hg9mlb1i9"/>
   <path class="animable" d="m256.62,59.85a4,4 0 0 1 -0.39,0.6l-1.23,1.69c-0.53,0.72 -1.17,1.61 -1.87,2.67s-1.55,2.24 -2.39,3.6s-1.74,2.83 -2.74,4.46s-1.93,3.39 -2.95,5.24c-2,3.75 -4,8 -5.83,12.47s-3.32,8.94 -4.53,13c-0.56,2 -1.13,4 -1.55,5.81s-0.82,3.54 -1.15,5.11s-0.57,3 -0.8,4.24s-0.4,2.34 -0.52,3.23s-0.24,1.52 -0.32,2a3.25,3.25 0 0 1 -0.15,0.7a3.9,3.9 0 0 1 0,-0.72c0.06,-0.52 0.13,-1.2 0.23,-2s0.22,-2 0.44,-3.24s0.39,-2.7 0.72,-4.27s0.64,-3.31 1.09,-5.14s1,-3.79 1.51,-5.84c1.19,-4.08 2.67,-8.52 4.5,-13.07s3.9,-8.75 5.9,-12.49c1,-1.86 2,-3.63 3,-5.24s1.92,-3.1 2.8,-4.44s1.73,-2.52 2.46,-3.56s1.39,-1.93 2,-2.63s0.95,-1.22 1.28,-1.63a2.87,2.87 0 0 1 0.49,-0.55z" fill="rgb(235, 235, 235)" id="elboghl69iq5j"/>
   <path class="animable" d="m346.65,163.74a2.88,2.88 0 0 1 -0.6,0.11l-1.73,0.23l-1.25,0.15c-0.46,0.07 -0.95,0.18 -1.47,0.27c-1.06,0.22 -2.27,0.39 -3.57,0.77l-2,0.53c-0.72,0.19 -1.44,0.46 -2.19,0.7c-1.53,0.46 -3.09,1.14 -4.74,1.81a57.83,57.83 0 0 0 -18.89,13.27c-1.19,1.33 -2.36,2.57 -3.3,3.85c-0.48,0.63 -1,1.21 -1.41,1.81l-1.24,1.76c-0.8,1.09 -1.37,2.18 -1.93,3.09c-0.27,0.47 -0.54,0.89 -0.76,1.3l-0.56,1.12l-0.8,1.55a2.44,2.44 0 0 1 -0.32,0.53a3.28,3.28 0 0 1 0.22,-0.57c0.19,-0.42 0.42,-1 0.72,-1.6l0.52,-1.15c0.21,-0.41 0.47,-0.84 0.73,-1.32a36.3,36.3 0 0 1 1.87,-3.16l1.18,-1.78c0.41,-0.62 0.91,-1.21 1.39,-1.85c0.94,-1.3 2.1,-2.56 3.29,-3.91a56.24,56.24 0 0 1 19.05,-13.38c1.67,-0.66 3.25,-1.33 4.79,-1.78c0.77,-0.23 1.5,-0.5 2.22,-0.68l2.07,-0.5a34.58,34.58 0 0 1 3.61,-0.69c0.53,-0.09 1,-0.18 1.49,-0.23l1.26,-0.11l1.74,-0.13a2.18,2.18 0 0 1 0.61,-0.01z" fill="rgb(235, 235, 235)" id="el8xrx6zs656e"/>
   <path class="animable" d="m420.18,223.25l-0.26,-0.08l-0.75,-0.25l-2.87,-1l-2.07,-0.76c-0.76,-0.26 -1.6,-0.51 -2.5,-0.8c-1.79,-0.56 -3.81,-1.27 -6.11,-1.85l-3.58,-1c-1.25,-0.34 -2.57,-0.6 -3.92,-0.92c-2.7,-0.67 -5.64,-1.16 -8.71,-1.72a150.92,150.92 0 0 0 -40.57,-1.24c-3.1,0.37 -6.06,0.68 -8.8,1.18c-1.37,0.24 -2.7,0.42 -4,0.68l-3.63,0.75c-2.33,0.44 -4.39,1 -6.22,1.48c-0.91,0.23 -1.76,0.43 -2.53,0.64l-2.12,0.63l-2.92,0.86l-0.77,0.21a1,1 0 0 1 -0.27,0l0.25,-0.1l0.75,-0.26l2.9,-1l2.11,-0.67c0.77,-0.23 1.62,-0.45 2.53,-0.7c1.82,-0.47 3.88,-1.08 6.21,-1.55l3.64,-0.79c1.26,-0.27 2.6,-0.46 4,-0.7c2.75,-0.53 5.71,-0.85 8.82,-1.24a147.09,147.09 0 0 1 40.7,1.25c3.08,0.58 6,1.08 8.72,1.77c1.36,0.33 2.68,0.6 3.93,1l3.58,1c2.3,0.61 4.31,1.35 6.1,1.93c0.9,0.3 1.73,0.57 2.49,0.85l2.06,0.8l2.84,1.12l0.73,0.31c0.16,0.12 0.25,0.16 0.24,0.17z" fill="rgb(235, 235, 235)" id="el1i9azocpi9e"/>
  </g>
  <g class="animable animator-active" id="freepik--speech-bubble--inject-26">
   <path class="animable" d="m264.75,59.34l0,28.52c-6.47,6.35 -29.85,29.93 -29.85,29.93l29.85,0l0,22.45a14.49,14.49 0 0 0 14.35,14.48l165.48,1.56a14.47,14.47 0 0 0 14.61,-14.48l0,-82.46a14.48,14.48 0 0 0 -14.48,-14.48l-165.48,0a14.48,14.48 0 0 0 -14.48,14.48z" fill="rgb(250, 250, 250)" id="elkczvkkqwlm"/>
   <path class="animable" d="m264.75,59.34s0,-0.55 0.06,-1.62a14.69,14.69 0 0 1 1.28,-4.58a14.45,14.45 0 0 1 1.84,-3a15.57,15.57 0 0 1 3.12,-2.88a14.65,14.65 0 0 1 4.5,-2.05a20.3,20.3 0 0 1 5.6,-0.5l67.24,-0.1l46.43,0l25.87,0l23.91,0c0.59,0 1.19,0 1.78,0.1a13.38,13.38 0 0 1 1.77,0.31a14.76,14.76 0 0 1 10.43,9.27a15.07,15.07 0 0 1 0.85,3.58c0.08,1.24 0.08,2.45 0.07,3.67q0,3.65 0,7.33l0,30.01q0,15.32 0,31.15l0,11.97a15.29,15.29 0 0 1 -0.6,4a14.71,14.71 0 0 1 -4.36,6.85a13.65,13.65 0 0 1 -3.42,2.29a14.62,14.62 0 0 1 -3.94,1.26a20.55,20.55 0 0 1 -3.91,0.2l-3.85,0l-7.68,-0.08l-15.2,-0.14l-29.75,-0.29l-56.41,-0.55l-51.3,-0.51a14.77,14.77 0 0 1 -10.74,-4.82a15,15 0 0 1 -3.86,-10.71q0,-11.27 0,-21.67l0.24,0.24l-29.85,0l-0.49,0l0.35,-0.35l29.9,-29.89l0,0.1c0,-9.26 0.05,-16.39 0.06,-21.21c0,-2.4 0,-4.22 0,-5.46s0,-1.85 0,-1.85s0,0.62 0,1.85s0,3.06 0,5.46c0,4.82 0,11.95 0.07,21.21l0,0l0,0l-29.8,30l-0.15,-0.35l29.85,0l0.34,0l0,0.24q0,10.39 0,21.67a14.47,14.47 0 0 0 3.74,10.35a14.23,14.23 0 0 0 10.35,4.63l51.3,0.46l56.4,0.51l29.76,0.28l15.2,0.14l7.67,0.07l3.86,0a19.18,19.18 0 0 0 3.8,-0.2a14.22,14.22 0 0 0 11.19,-9.93a14.43,14.43 0 0 0 0.58,-3.86c0,-1.33 0,-2.66 0,-4l0,-39.06q0,-15.31 0,-30.06q0,-3.69 0,-7.33c0,-1.22 0,-2.43 -0.08,-3.6a15,15 0 0 0 -0.8,-3.44a14.17,14.17 0 0 0 -10,-8.89c-2.23,-0.59 -4.57,-0.36 -6.89,-0.41l-46.3,0l-46.43,0l-67.2,-0.15a19.83,19.83 0 0 0 -5.55,0.47a14.43,14.43 0 0 0 -4.44,2a15.23,15.23 0 0 0 -3.1,2.82a14.05,14.05 0 0 0 -1.85,2.94a15.4,15.4 0 0 0 -1.46,6.11z" fill="rgb(38, 50, 56)" id="eltk6gsq9wnfd"/>
   <path class="animable" d="m314,129.08z" id="elza2s92k6zv8"/>
   <path class="animable" d="m332.28,120.69s-332.28,-120.69 -6.71,8.53l6.71,-8.53zm-1.77,0c0,-4.48 -2,-6.94 -4.94,-6.94s-4.93,2.46 -4.93,6.94s2,7 4.93,7s4.94,-2.52 4.94,-7z" id="eludgncefmxqb"/>
   <path class="animable" d="m345.65,129.08z" id="elzo2xxwlg1rr"/>
   <path class="animable" d="m370.32,127.54l0,1.54l-11.86,0l0,-16.77l11.54,0l0,1.53l-9.73,0l0,6l8.67,0l0,1.51l-8.67,0l0,6.22l10.05,-0.03z" id="elrt5tevwha98"/>
   <path class="animable" d="m380.47,116.38l0,1.62l-0.41,0c-2.63,0 -4.24,1.68 -4.24,4.65l0,6.42l-1.7,0l0,-12.6l1.63,0l0,2.46c0.79,-1.66 2.39,-2.55 4.72,-2.55z" id="el4j2j6lwq9zn"/>
   <path class="animable" d="m389.88,116.38l0,1.62l-0.41,0c-2.63,0 -4.24,1.68 -4.24,4.65l0,6.42l-1.7,0l0,-12.6l1.63,0l0,2.46c0.84,-1.66 2.4,-2.55 4.72,-2.55z" id="elqfng4nixfwr"/>
   <path class="animable" d="m391.55,122.78a6.41,6.41 0 1 1 6.45,6.42a6.2,6.2 0 0 1 -6.45,-6.42zm11.09,0a4.69,4.69 0 1 0 -4.67,4.91a4.59,4.59 0 0 0 4.67,-4.91z" id="elh64xiw59gun"/>
   <path class="animable" d="m414.19,116.38l0,1.62l-0.41,0c-2.64,0 -4.24,1.68 -4.24,4.65l0,6.42l-1.7,0l0,-12.6l1.63,0l0,2.46c0.79,-1.66 2.39,-2.55 4.72,-2.55z" id="elnq6voear37"/>
   <path class="animable" d="m303.91,84.5c0,-7.87 6.13,-13.7 14.49,-13.7s14.5,5.79 14.5,13.7s-6.17,13.7 -14.5,13.7s-14.49,-5.83 -14.49,-13.7zm22.78,0a8.29,8.29 0 1 0 -8.29,8.5a8.09,8.09 0 0 0 8.29,-8.5z" id="el8goucz8rid6"/>
   <path class="animable" d="m335.58,87.56c0,-6.13 4.73,-10.48 11.2,-10.48s11.16,4.35 11.16,10.48s-4.69,10.44 -11.16,10.44s-11.2,-4.31 -11.2,-10.44zm16.38,0c0,-3.51 -2.23,-5.63 -5.18,-5.63s-5.23,2.12 -5.23,5.63s2.27,5.64 5.23,5.64s5.22,-2.12 5.22,-5.64l-0.04,0z" id="elky63la7sc8"/>
   <path class="animable" d="m384,87.56c0,6.44 -4.39,10.44 -10.1,10.44a7.92,7.92 0 0 1 -6.13,-2.45l0,9.49l-5.9,0l0,-27.65l5.64,0l0,2.34a7.89,7.89 0 0 1 6.39,-2.65c5.71,0 10.1,4.09 10.1,10.48zm-6,0c0,-3.51 -2.23,-5.63 -5.18,-5.63s-5.18,2.12 -5.18,5.63s2.23,5.64 5.18,5.64s5.24,-2.12 5.24,-5.64l-0.06,0z" id="el6zyl7ucrx9i"/>
   <path class="animable" d="m386,95.85l2,-4.24a13.88,13.88 0 0 0 7.08,2c2.72,0 3.74,-0.72 3.74,-1.85c0,-3.33 -12.29,0.07 -12.29,-8.06c0,-3.86 3.48,-6.59 9.42,-6.59a16.79,16.79 0 0 1 7.83,1.78l-2,4.2a11.72,11.72 0 0 0 -5.86,-1.51c-2.65,0 -3.79,0.83 -3.79,1.89c0,3.48 12.3,0.11 12.3,8.13c0,3.79 -3.52,6.47 -9.61,6.47a17.51,17.51 0 0 1 -8.82,-2.22z" id="ellk4xy644gx"/>
   <path class="animable" d="m407.19,94.6a3.64,3.64 0 0 1 7.26,0a3.64,3.64 0 0 1 -7.26,0zm0.11,-23.34l7,0l-1.17,17.29l-4.69,0l-1.14,-17.29z" id="elldsigqc28m8"/>
  </g>
  <g class="animable" id="freepik--Robot--inject-26">
   <g id="elo2z40jruxxa">
    <path class="animable" d="m175.84,45.12l1.32,0a13.95,13.95 0 0 1 13.95,13.95l0,3.77a13.95,13.95 0 0 1 -13.95,13.95l-1.32,0a0,0 0 0 1 0,0l0,-31.67a0,0 0 0 1 0,0z" fill="rgb(69, 90, 100)" id="elvqdbdseqcoe" transform="rotate(-44.79deg)"/>
   </g>
   <path class="animable" d="m189.22,77.6l0,0l-22.33,-22.5l0,0l0.93,-0.93a13.9,13.9 0 0 1 9.85,-4.06l0.05,0a13.91,13.91 0 0 1 9.87,4.12l2.66,2.68a14,14 0 0 1 -0.07,19.77l-0.96,0.92zm-22.28,-22.51l22.28,22.44l0.92,-0.91a13.93,13.93 0 0 0 0.07,-19.69l-2.66,-2.68a13.81,13.81 0 0 0 -9.83,-4.11l-0.05,0a13.83,13.83 0 0 0 -9.81,4l-0.92,0.95z" fill="rgb(38, 50, 56)" id="elrwxvv9afp6"/>
   <g id="elf0kvzt2nl3">
    <path class="animable" d="m97.86,121.34l1.32,0a13.95,13.95 0 0 1 13.95,13.95l0,3.77a14,14 0 0 1 -14,14l-1.27,0a0,0 0 0 1 0,0l0,-31.72a0,0 0 0 1 0,0z" fill="rgb(69, 90, 100)" id="eljgnyf2ghmtr" transform="rotate(137.3deg)"/>
   </g>
   <path class="animable" d="m111.43,148.25l-0.58,0a13.91,13.91 0 0 1 -9.71,-4.48l-2.55,-2.77a14,14 0 0 1 0.79,-19.75l1,-0.91l0,0l21.49,23.29l0,0l-1,0.9a13.86,13.86 0 0 1 -9.44,3.72zm-12,-27a13.93,13.93 0 0 0 -0.81,19.75l2.56,2.77a13.85,13.85 0 0 0 9.68,4.47l0.57,0a13.83,13.83 0 0 0 9.43,-3.69l1,-0.88l-21.44,-23.24l-0.99,0.82z" fill="rgb(38, 50, 56)" id="elok3ewptby6b"/>
   <g id="elfr3e2txkpak">
    <rect class="animable" fill="rgb(69, 90, 100)" height="20.69" id="elc96uqxjetqc" transform="rotate(-51.11deg)" width="2.5" x="93.19" y="89.53"/>
   </g>
   <path class="animable" d="m88.22,88.3a5.1,5.1 0 1 1 -7.17,0.77a5.12,5.12 0 0 1 7.17,-0.77z" fill="rgb(38, 50, 56)" id="elk16imtlsb9e"/>
   <g id="elx3xlwdtanhj">
    <rect class="animable" fill="#214B92" height="74.84" id="elm39sx7f0jxr" rx="16.5" transform="rotate(-44.8deg)" width="99.18" x="102.48" y="70.93"/>
   </g>
   <polygon class="animable" fill="rgb(69, 90, 100)" id="elhvk84sd2kyu" points="150.5 57.18 148.29 48.75 142.54 49.7 140.88 43.61 142.76 43.18 144.07 47.61 149.81 46.83 152.21 55.48 150.5 57.18"/>
   <g id="el1ag8mds8ejh">
    <rect class="animable" fill="rgb(38, 50, 56)" height="30.57" id="elp6k4myofg9j" rx="13.96" transform="rotate(-44.8deg)" width="85.13" x="101.79" y="85.29"/>
   </g>
   <path class="animable" d="m177.66,95s0.12,-0.16 0.37,-0.45a14.86,14.86 0 0 0 1.1,-1.33a16.84,16.84 0 0 0 2.93,-5.87a18.94,18.94 0 0 0 0.67,-4.7a18.57,18.57 0 0 0 -0.9,-5.56a17.22,17.22 0 0 0 -3.12,-5.65l-1.18,-1.3l-1.28,-1.28a26.54,26.54 0 0 0 -2.76,-2.52a17.67,17.67 0 0 0 -7.22,-3.34a17.88,17.88 0 0 0 -8.56,0.5a17.5,17.5 0 0 0 -4.12,1.92a21.42,21.42 0 0 0 -3.62,3l-7.05,7l-31.43,31.23a17.41,17.41 0 0 0 -5,10.11a18.06,18.06 0 0 0 0.18,5.59a17.88,17.88 0 0 0 3.44,7.41c0.59,0.69 1.17,1.36 1.83,2a30.29,30.29 0 0 0 3.94,3.62a17.35,17.35 0 0 0 19,0.87a18.61,18.61 0 0 0 2,-1.33c0.6,-0.51 1.19,-1 1.74,-1.57l3.29,-3.25l12,-11.85l17.37,-17.13l4.72,-4.57l1.24,-1.2c0.28,-0.26 0.44,-0.39 0.44,-0.39s-0.13,0.15 -0.4,0.43l-1.21,1.24l-4.67,4.7l-17.26,17.25l-11.93,11.9l-3.27,3.26c-0.56,0.55 -1.17,1.08 -1.77,1.6a19.85,19.85 0 0 1 -2,1.38a17.84,17.84 0 0 1 -19.52,-0.86a32.38,32.38 0 0 1 -4,-3.67c-0.65,-0.63 -1.26,-1.34 -1.87,-2a20.56,20.56 0 0 1 -1.56,-2.33a17.65,17.65 0 0 1 -2,-5.3a18.52,18.52 0 0 1 -0.19,-5.76a17.85,17.85 0 0 1 5.11,-10.4l31.46,-31.21l7.07,-7a22,22 0 0 1 3.7,-3.07a17.72,17.72 0 0 1 20.36,0.93a26.56,26.56 0 0 1 2.79,2.57l1.27,1.29l1.21,1.27a17.6,17.6 0 0 1 3.11,5.82a18.15,18.15 0 0 1 0.86,5.65a19.29,19.29 0 0 1 -0.71,4.76a16.84,16.84 0 0 1 -3,5.88a12.48,12.48 0 0 1 -1.15,1.29l-0.45,0.42z" fill="rgb(38, 50, 56)" id="elmrvu7t3ulyb"/>
   <path class="animable" d="m125.76,126.43a78.3,78.3 0 0 1 -0.39,-9a75.7,75.7 0 0 1 0.14,-9a80.3,80.3 0 0 1 0.38,9a79.51,79.51 0 0 1 -0.13,9z" fill="rgb(255, 255, 255)" id="ellnit36oiwl"/>
   <path class="animable" d="m134.47,116.72a74.85,74.85 0 0 1 -9,0.67a81.18,81.18 0 0 1 -9,0.15a75.16,75.16 0 0 1 9,-0.67a81,81 0 0 1 9,-0.15z" fill="rgb(255, 255, 255)" id="elo4s1mu1eod"/>
   <path class="animable" d="m161.4,90.11a78.76,78.76 0 0 1 -0.39,-9a75.37,75.37 0 0 1 0.14,-9a80.3,80.3 0 0 1 0.38,9a79.51,79.51 0 0 1 -0.13,9z" fill="rgb(255, 255, 255)" id="elx2c14534adm"/>
   <path class="animable" d="m170.11,80.4a80.16,80.16 0 0 1 -9,0.67a76.89,76.89 0 0 1 -9,0.14a79.21,79.21 0 0 1 9,-0.66a78.18,78.18 0 0 1 9,-0.15z" fill="rgb(255, 255, 255)" id="eloytltm6a1dg"/>
   <g id="elfoq5x2n4rer">
    <circle class="animable" cx="140.64" cy="39.98" fill="rgb(38, 50, 56)" id="el4nl3rzi2ax" r="5.1" transform="rotate(-0.89deg)"/>
   </g>
   <path class="animable" d="m156.51,156.68a5.09,5.09 0 0 1 -0.88,-0.73c-0.55,-0.49 -1.32,-1.22 -2.27,-2.12c-1.89,-1.8 -4.49,-4.33 -7.32,-7.14s-5.38,-5.38 -7.2,-7.27a22.26,22.26 0 0 1 -2.81,-3.18a11.05,11.05 0 0 1 0.84,0.77l2.23,2.15c2,1.91 4.5,4.41 7.3,7.16s5.39,5.38 7.22,7.25l2.15,2.24a4.71,4.71 0 0 1 0.74,0.87z" fill="rgb(38, 50, 56)" id="elfhh7f2x3jhs"/>
   <path class="animable" d="m199.82,113.05a4.79,4.79 0 0 1 -0.88,-0.73c-0.54,-0.49 -1.31,-1.21 -2.26,-2.11c-1.9,-1.81 -4.49,-4.33 -7.33,-7.14s-5.38,-5.39 -7.19,-7.28a22.6,22.6 0 0 1 -2.81,-3.17a7.79,7.79 0 0 1 0.84,0.76l2.23,2.15l7.3,7.17c2.84,2.81 5.39,5.37 7.22,7.24l2.15,2.24a4.24,4.24 0 0 1 0.73,0.87z" fill="rgb(38, 50, 56)" id="elex75q0tkzem"/>
   <g id="eldumsjnzkbiw">
    <rect class="animable" fill="rgb(38, 50, 56)" height="5.72" id="elkdsp0ilnzvb" transform="rotate(-45.46deg)" width="52.15" x="136.8" y="116.58"/>
   </g>
   <path class="animable" d="m137.6,142.82a1.1,1.1 0 1 1 -1,-1.13a1.09,1.09 0 0 1 1,1.13z" fill="rgb(38, 50, 56)" id="el7y0hb7m9ld"/>
   <path class="animable" d="m145.94,151.63a1.1,1.1 0 0 1 -2.19,-0.09a1.1,1.1 0 0 1 2.19,0.09z" fill="rgb(38, 50, 56)" id="eltgutzr02u2"/>
   <path class="animable" d="m186.62,92.91a1.1,1.1 0 0 1 -1.14,1a1.1,1.1 0 1 1 0.09,-2.19a1.08,1.08 0 0 1 1.05,1.19z" fill="rgb(38, 50, 56)" id="ellz9awacdin"/>
   <path class="animable" d="m195,101.72a1.09,1.09 0 1 1 -2.18,-0.09a1.09,1.09 0 1 1 2.18,0.09z" fill="rgb(38, 50, 56)" id="el6uyhhe3xt4t"/>
   <path class="animable" d="m105.45,144a27.16,27.16 0 0 0 -2.31,-2.05c-0.75,-0.59 -1.7,-1.23 -2.67,-2.09a10.37,10.37 0 0 1 -2.54,-3.34a11.3,11.3 0 0 1 -0.79,-7.48a8.89,8.89 0 0 1 0.82,-2.15c0.28,-0.47 0.44,-0.72 0.47,-0.7a22.92,22.92 0 0 0 -0.93,2.93a11.54,11.54 0 0 0 0.9,7.17c1.2,2.66 3.53,4.12 5,5.37a7,7 0 0 1 2.05,2.34z" fill="rgb(255, 255, 255)" id="elf7uprh1cav"/>
   <path class="animable" d="m148.92,63.53c0.1,0.1 -10.41,10.48 -23.47,23.17s-23.75,22.91 -23.85,22.81s10.4,-10.51 23.48,-23.18s23.74,-22.9 23.84,-22.8z" fill="rgb(255, 255, 255)" id="elpvgsj8t4he"/>
   <path class="animable" d="m83.92,95.87c0,0.06 -0.52,0 -1.19,-0.45a4.1,4.1 0 0 1 -1.2,-5.6c0.44,-0.69 0.88,-0.95 0.92,-0.9s-0.28,0.41 -0.59,1.07a4.45,4.45 0 0 0 -0.36,2.76a4.4,4.4 0 0 0 1.5,2.38c0.51,0.48 1,0.66 0.92,0.74z" fill="rgb(255, 255, 255)" id="elk7ieaf8ea0b"/>
   <path class="animable" d="m139.46,43.69c0,0.06 -0.57,0 -1.28,-0.51a4.16,4.16 0 0 1 -0.78,-6c0.56,-0.67 1.08,-0.88 1.11,-0.83s-0.37,0.38 -0.81,1a4.18,4.18 0 0 0 0.71,5.55c0.59,0.52 1.08,0.71 1.05,0.79z" fill="rgb(255, 255, 255)" id="el8ofvpijqsx2"/>
   <path class="animable" d="m177.32,51.71a22.58,22.58 0 0 0 -4.11,0.94a23.1,23.1 0 0 0 -3.63,2.13a6.58,6.58 0 0 1 3.42,-2.62a6.69,6.69 0 0 1 4.32,-0.45z" fill="rgb(255, 255, 255)" id="el2kwsqhvbzvu"/>
   <path class="animable" d="m135.81,158.46a103.24,103.24 0 0 1 -7.47,-7.35c-4,-4.16 -7.19,-7.61 -7.08,-7.71s3.44,3.19 7.46,7.35s7.19,7.61 7.09,7.71z" fill="rgb(255, 255, 255)" id="eli1jd6o4b75"/>
   <rect class="animable" fill="#214B92" height="60.65" id="elclnjvm99a5j" width="42.79" x="208.44" y="398.62"/>
   <path class="animable" d="m208.77,458.23l42.14,0a5.7,5.7 0 0 1 5.7,5.7l0,0.54a0,0 0 0 1 0,0l-53.55,0a0,0 0 0 1 0,0l0,-0.54a5.7,5.7 0 0 1 5.71,-5.7z" fill="rgb(38, 50, 56)" id="elr2z05x7pps"/>
   <rect class="animable" fill="#214B92" height="9.88" id="elp6zi00cl3e" width="64.99" x="198.18" y="464.47"/>
   <path class="animable" d="m251,452.61c0,0.14 -9.48,0.26 -21.18,0.26s-21.19,-0.12 -21.19,-0.26s9.48,-0.26 21.19,-0.26s21.18,0.11 21.18,0.26z" fill="rgb(38, 50, 56)" id="elm4cetr2re9d"/>
   <path class="animable" d="m251,445.39c0,0.15 -9.48,0.26 -21.18,0.26s-21.19,-0.11 -21.19,-0.26s9.48,-0.26 21.19,-0.26s21.18,0.12 21.18,0.26z" fill="rgb(38, 50, 56)" id="eltzswrwg8nf"/>
   <path class="animable" d="m251,438.31c0,0.14 -9.48,0.26 -21.18,0.26s-21.19,-0.12 -21.19,-0.26s9.48,-0.26 21.19,-0.26s21.18,0.12 21.18,0.26z" fill="rgb(38, 50, 56)" id="ell2rb2lnrh1"/>
   <path class="animable" d="m251,431.1c0,0.14 -9.48,0.26 -21.18,0.26s-21.19,-0.12 -21.19,-0.26s9.48,-0.26 21.19,-0.26s21.18,0.16 21.18,0.26z" fill="rgb(38, 50, 56)" id="eln4czgpbhiqs"/>
   <path class="animable" d="m251,424c0,0.15 -9.48,0.26 -21.18,0.26s-21.19,-0.11 -21.19,-0.26s9.48,-0.26 21.19,-0.26s21.18,0.13 21.18,0.26z" fill="rgb(38, 50, 56)" id="el5gaaj982gk2"/>
   <path class="animable" d="m251,416.8c0,0.15 -9.48,0.26 -21.18,0.26s-21.19,-0.11 -21.19,-0.26s9.48,-0.26 21.19,-0.26s21.18,0.12 21.18,0.26z" fill="rgb(38, 50, 56)" id="el3gggn5n2abe"/>
   <path class="animable" d="m251,409.72c0,0.14 -9.48,0.26 -21.18,0.26s-21.19,-0.12 -21.19,-0.26s9.48,-0.26 21.19,-0.26s21.18,0.11 21.18,0.26z" fill="rgb(38, 50, 56)" id="elkzxkp9jdey"/>
   <path class="animable" d="m251,402.51c0,0.14 -9.48,0.26 -21.18,0.26s-21.19,-0.12 -21.19,-0.26s9.48,-0.26 21.19,-0.26s21.18,0.11 21.18,0.26z" fill="rgb(38, 50, 56)" id="eluw2nm82x0v7"/>
   <g id="el92ueywsbngo">
    <g class="animable" id="elp227kkxus9p" opacity="0.3">
     <polygon class="animable" id="elumo3ge4zm58" points="208.44 407.07 251.02 405.89 251.02 399.71 208.06 399.71 208.44 407.07"/>
    </g>
   </g>
   <rect class="animable" fill="#214B92" height="60.65" id="el6z3z6qnvwzl" width="42.79" x="275.46" y="398.62"/>
   <path class="animable" d="m275.79,458.23l42.14,0a5.7,5.7 0 0 1 5.7,5.7l0,0.54a0,0 0 0 1 0,0l-53.55,0a0,0 0 0 1 0,0l0,-0.54a5.7,5.7 0 0 1 5.71,-5.7z" fill="rgb(38, 50, 56)" id="el6oiwxsvwj3q"/>
   <rect class="animable" fill="#214B92" height="9.88" id="eljmu8bomt7qh" width="64.99" x="265.2" y="464.47"/>
   <path class="animable" d="m318,452.61c0,0.14 -9.48,0.26 -21.18,0.26s-21.19,-0.12 -21.19,-0.26s9.48,-0.26 21.19,-0.26s21.18,0.11 21.18,0.26z" fill="rgb(38, 50, 56)" id="elrgl6j0uvrok"/>
   <path class="animable" d="m318,445.39c0,0.15 -9.48,0.26 -21.18,0.26s-21.19,-0.11 -21.19,-0.26s9.48,-0.26 21.19,-0.26s21.18,0.12 21.18,0.26z" fill="rgb(38, 50, 56)" id="ell7t01spxjc"/>
   <path class="animable" d="m318,438.31c0,0.14 -9.48,0.26 -21.18,0.26s-21.19,-0.12 -21.19,-0.26s9.48,-0.26 21.19,-0.26s21.18,0.12 21.18,0.26z" fill="rgb(38, 50, 56)" id="eljvk8brit6ur"/>
   <path class="animable" d="m318,431.1c0,0.14 -9.48,0.26 -21.18,0.26s-21.19,-0.12 -21.19,-0.26s9.48,-0.26 21.19,-0.26s21.18,0.16 21.18,0.26z" fill="rgb(38, 50, 56)" id="elv7468u2w2ze"/>
   <path class="animable" d="m318,424c0,0.15 -9.48,0.26 -21.18,0.26s-21.19,-0.11 -21.19,-0.26s9.48,-0.26 21.19,-0.26s21.18,0.13 21.18,0.26z" fill="rgb(38, 50, 56)" id="elv6q91a154kq"/>
   <path class="animable" d="m318,416.8c0,0.15 -9.48,0.26 -21.18,0.26s-21.19,-0.11 -21.19,-0.26s9.48,-0.26 21.19,-0.26s21.18,0.12 21.18,0.26z" fill="rgb(38, 50, 56)" id="elxns7hh0k0w"/>
   <path class="animable" d="m318,409.72c0,0.14 -9.48,0.26 -21.18,0.26s-21.19,-0.12 -21.19,-0.26s9.48,-0.26 21.19,-0.26s21.18,0.11 21.18,0.26z" fill="rgb(38, 50, 56)" id="el5smdkicp8ch"/>
   <path class="animable" d="m318,402.51c0,0.14 -9.48,0.26 -21.18,0.26s-21.19,-0.12 -21.19,-0.26s9.48,-0.26 21.19,-0.26s21.18,0.11 21.18,0.26z" fill="rgb(38, 50, 56)" id="elsxcb6270auj"/>
   <g id="els22b2egz9bn">
    <g class="animable" id="elpj4z8yfgwws" opacity="0.3">
     <polygon class="animable" id="ellfdlgiw6jl" points="275.46 407.07 318.04 405.89 318.04 399.71 275.08 399.71 275.46 407.07"/>
    </g>
   </g>
   <g id="el598mb924qk3">
    <path class="animable" d="m328.17,223.65l4.32,0a1.83,1.83 0 0 1 1.83,1.83l0,17.68a0,0 0 0 1 0,0l-8,0a0,0 0 0 1 0,0l0,-17.67a1.83,1.83 0 0 1 1.83,-1.83l0.02,-0.01z" fill="#214B92" id="elzjlu8ezkpwe" transform="rotate(-75.83deg)"/>
   </g>
   <g id="ely2hmnndawc">
    <g class="animable" id="elnfw0q35mlpq" opacity="0.3">
     <g id="elhltbeax2z29">
      <path class="animable" d="m328.17,223.65l4.32,0a1.83,1.83 0 0 1 1.83,1.83l0,17.68a0,0 0 0 1 0,0l-8,0a0,0 0 0 1 0,0l0,-17.67a1.83,1.83 0 0 1 1.83,-1.83l0.02,-0.01z" id="elvb3b7f4c0we" transform="rotate(-75.83deg)"/>
     </g>
    </g>
   </g>
   <g id="el9q31vxgwssb">
    <path class="animable" d="m323.82,237.7l5.94,0a3,3 0 0 1 3,3l0,16.47a0,0 0 0 1 0,0l-12,0a0,0 0 0 1 0,0l0,-16.43a3,3 0 0 1 3.06,-3.04z" fill="#214B92" id="el13eihvlremv" transform="rotate(-75.83deg)"/>
   </g>
   <g id="elcnu5dxw08w9">
    <rect class="animable" fill="#214B92" height="7.7" id="elqg4xufi7sce" transform="rotate(-75.83deg)" width="20.39" x="324.34" y="237.02"/>
   </g>
   <path class="animable" d="m345.68,310.42s31.95,-1.3 29.31,-31.92c-2,-23.45 -36.91,-23.66 -36.91,-23.66l8.92,-19.49s40.76,3.55 48.81,33.23c9.09,33.54 -11.93,60.89 -50.13,60.25l0,-18.41z" fill="#214B92" id="elfz5tm7a02km"/>
   <g id="elk07voze42nl">
    <rect class="animable" fill="rgb(38, 50, 56)" height="27.68" id="el8wzyilsi9rh" transform="rotate(12.46deg)" width="12.44" x="334.32" y="230.94"/>
   </g>
   <path class="animable" d="m344.16,256.78c0,0.23 -2.76,-0.24 -6.05,-1a35.59,35.59 0 0 1 -5.91,-1.64a37.84,37.84 0 0 1 6,1.13c1.65,0.38 3.14,0.74 4.21,1l1.27,0.34a2.12,2.12 0 0 1 0.48,0.17z" fill="rgb(69, 90, 100)" id="ello5vnzmx2ee"/>
   <path class="animable" d="m345.23,251.91c0,0.23 -2.75,-0.24 -6.05,-1a34.18,34.18 0 0 1 -5.9,-1.64a38.26,38.26 0 0 1 6,1.13c1.65,0.38 3.13,0.74 4.21,1l1.26,0.34a1.7,1.7 0 0 1 0.48,0.17z" fill="rgb(69, 90, 100)" id="el24xanxh4hi1"/>
   <path class="animable" d="m346.52,247c0,0.24 -2.76,-0.23 -6,-1a35.59,35.59 0 0 1 -5.91,-1.64a38.05,38.05 0 0 1 6,1.13c1.64,0.37 3.13,0.73 4.2,1l1.27,0.33l0.44,0.18z" fill="rgb(69, 90, 100)" id="elogyy6pg3ha"/>
   <path class="animable" d="m347.38,242.18c0,0.23 -2.75,-0.24 -6,-1a34.47,34.47 0 0 1 -5.91,-1.64a38,38 0 0 1 6,1.13c1.65,0.38 3.13,0.74 4.21,1l1.26,0.34a1.7,1.7 0 0 1 0.44,0.17z" fill="rgb(69, 90, 100)" id="elq4rh5r2mlm9"/>
   <path class="animable" d="m348.63,237.62c0,0.24 -2.75,-0.23 -6,-1a35.59,35.59 0 0 1 -5.91,-1.64a38,38 0 0 1 6,1.13c1.65,0.37 3.14,0.73 4.21,1l1.27,0.33a3.68,3.68 0 0 1 0.43,0.18z" fill="rgb(69, 90, 100)" id="elrl0gbfxmasf"/>
   <path class="animable" d="m352.66,328.63a14.23,14.23 0 0 1 -0.65,-2.7c-0.32,-1.68 -0.7,-4 -1,-6.61s-0.45,-5 -0.51,-6.67a13.76,13.76 0 0 1 0,-2.78a14.56,14.56 0 0 1 0.34,2.75c0.15,1.7 0.36,4.05 0.66,6.64s0.61,4.92 0.84,6.61a15.65,15.65 0 0 1 0.32,2.76z" fill="rgb(38, 50, 56)" id="elh248z4bd2zu"/>
   <path class="animable" d="m362.59,327.08a93.17,93.17 0 0 1 -2.91,-9.54a95,95 0 0 1 -2.41,-9.69a96,96 0 0 1 2.91,9.55a97.71,97.71 0 0 1 2.41,9.68z" fill="rgb(38, 50, 56)" id="elgpuvpmb1q8"/>
   <path class="animable" d="m375.94,322.3a18.68,18.68 0 0 1 -1.71,-2.65c-1.08,-1.8 -2.41,-4 -3.89,-6.52l-3.92,-6.5a20.32,20.32 0 0 1 -1.54,-2.75a17.48,17.48 0 0 1 1.85,2.55c1.08,1.62 2.53,3.89 4,6.43s2.85,4.89 3.77,6.61a18.81,18.81 0 0 1 1.44,2.83z" fill="rgb(38, 50, 56)" id="elwdcxf5nln5"/>
   <path class="animable" d="m387.17,313.3c-0.1,0.11 -4.07,-3 -8.88,-7s-8.64,-7.32 -8.55,-7.43s4.07,3 8.88,7s8.64,7.31 8.55,7.43z" fill="rgb(38, 50, 56)" id="elhichs3xbmdf"/>
   <path class="animable" d="m394.4,301c-0.06,0.14 -4.76,-1.7 -10.51,-4.09s-10.36,-4.44 -10.3,-4.57s4.76,1.7 10.5,4.09s10.36,4.39 10.31,4.57z" fill="rgb(38, 50, 56)" id="el3h32xxtmnuv"/>
   <path class="animable" d="m397.94,287.63a24.32,24.32 0 0 1 -3.37,-0.32l-8.08,-1l-8.09,-1a20.82,20.82 0 0 1 -3.34,-0.51a20.89,20.89 0 0 1 3.38,0.14c2.08,0.16 4.95,0.44 8.11,0.83s6,0.8 8.08,1.15a20,20 0 0 1 3.31,0.71z" fill="rgb(38, 50, 56)" id="elw8phjh1xh5"/>
   <path class="animable" d="m396.29,273.81a17.51,17.51 0 0 1 -3,1c-1.89,0.55 -4.53,1.23 -7.47,1.85s-5.63,1.06 -7.58,1.32a17.3,17.3 0 0 1 -3.17,0.27a22.63,22.63 0 0 1 3.12,-0.64c1.93,-0.35 4.59,-0.84 7.52,-1.46s5.57,-1.24 7.48,-1.7a22.07,22.07 0 0 1 3.1,-0.64z" fill="rgb(38, 50, 56)" id="elj2w4589hde"/>
   <path class="animable" d="m392.27,260.55c0.06,0.13 -4.22,2.42 -9.57,5.12s-9.74,4.78 -9.81,4.65s4.22,-2.42 9.57,-5.12s9.74,-4.77 9.81,-4.65z" fill="rgb(38, 50, 56)" id="elp9vvrov8qaf"/>
   <path class="animable" d="m384,249.8c0.09,0.11 -3.47,3.33 -8,7.2s-8.2,6.91 -8.29,6.8s3.46,-3.33 8,-7.2s8.23,-6.91 8.29,-6.8z" fill="rgb(38, 50, 56)" id="el1kg6k9xsw09"/>
   <path class="animable" d="m370.13,241.82c0.12,0.07 -2.13,4 -5,8.83a97,97 0 0 1 -5.48,8.57c-0.12,-0.07 2.13,-4 5,-8.84a100,100 0 0 1 5.48,-8.56z" fill="rgb(38, 50, 56)" id="elxaml4t6oj7s"/>
   <path class="animable" d="m357.68,236.82a102.11,102.11 0 0 1 -3,9.86c-1.78,5.4 -3.34,9.74 -3.47,9.7a98.49,98.49 0 0 1 3,-9.87a99.79,99.79 0 0 1 3.47,-9.69z" fill="rgb(38, 50, 56)" id="elsfa6zx6quf"/>
   <g id="el5esgxjloky">
    <g class="animable" id="elwhj07l31en" opacity="0.3">
     <path class="animable" d="m372.68,294.18a24.63,24.63 0 0 1 -11.58,11.88a36.5,36.5 0 0 1 -7.84,3.06c6.11,3.26 14.09,1.31 19.43,-3.1s8.16,-11.41 8.35,-18.34a21.73,21.73 0 0 0 -1.73,-9.6c-1.36,-3 -3.61,-6.12 -6.58,-7.5a18.45,18.45 0 0 1 1.86,5.25a30.68,30.68 0 0 1 -1.91,18.35z" id="eluye66fmqhz"/>
    </g>
   </g>
   <path class="animable" d="m137.83,348.12a8.6,8.6 0 0 1 1,1.11c0.62,0.73 1.46,1.82 2.46,3.21a70.45,70.45 0 0 1 6.61,11.56a68.72,68.72 0 0 1 4.29,12.63c0.39,1.66 0.65,3 0.79,4a9.26,9.26 0 0 1 0.17,1.48a7.49,7.49 0 0 1 -0.37,-1.44c-0.2,-0.93 -0.52,-2.27 -0.94,-3.91a82,82 0 0 0 -4.41,-12.51a81.16,81.16 0 0 0 -6.43,-11.6c-0.95,-1.41 -1.74,-2.53 -2.31,-3.3a7.57,7.57 0 0 1 -0.86,-1.23z" fill="rgb(38, 50, 56)" id="el4t3c6lzuoas"/>
   <path class="animable" d="m133.58,344.58c0.1,-0.11 0.57,0.15 1.06,0.59s0.8,0.87 0.71,1s-0.57,-0.15 -1.06,-0.59s-0.8,-0.9 -0.71,-1z" fill="rgb(38, 50, 56)" id="el2t7ailfgzxt"/>
   <path class="animable" d="m134.56,341.64c0.12,-0.07 0.61,0.52 1.1,1.34s0.78,1.53 0.66,1.6s-0.62,-0.52 -1.11,-1.34s-0.78,-1.53 -0.65,-1.6z" fill="rgb(38, 50, 56)" id="el4j5ias1sjmn"/>
   <path class="animable" d="m153.06,382.72a5.24,5.24 0 0 1 0.15,-0.8q0.21,-0.85 0.54,-2.28c0.47,-2 1.14,-4.84 1.91,-8.39c1.54,-7.1 3.41,-17 4.78,-28c0.74,-5.48 1,-10.8 2.28,-15.49a23.67,23.67 0 0 1 2.68,-6.31a18.86,18.86 0 0 1 11.72,-8.23a15,15 0 0 1 2.32,-0.35a4.61,4.61 0 0 1 0.82,0a6.05,6.05 0 0 1 -0.81,0.12a21.6,21.6 0 0 0 -2.29,0.44a19.47,19.47 0 0 0 -7.54,3.86a18.55,18.55 0 0 0 -3.85,4.4a23.25,23.25 0 0 0 -2.59,6.22c-1.24,4.62 -1.49,9.93 -2.22,15.43c-1.38,11 -3.31,20.89 -4.94,28c-0.82,3.55 -1.55,6.4 -2.07,8.36q-0.4,1.41 -0.63,2.25a4.88,4.88 0 0 1 -0.26,0.77z" fill="rgb(69, 90, 100)" id="elg86kytfda86"/>
   <path class="animable" d="m154.25,303.42a16,16 0 0 0 2.55,3.72a16.81,16.81 0 0 0 9.61,4.68a36.36,36.36 0 0 0 10.92,-0.46l3.29,-0.58a6.67,6.67 0 0 1 1.22,-0.16a5.25,5.25 0 0 1 -1.18,0.36c-0.77,0.19 -1.88,0.46 -3.27,0.74a32.92,32.92 0 0 1 -11,0.61a16.48,16.48 0 0 1 -9.81,-4.94a10.79,10.79 0 0 1 -1.88,-2.81a4,4 0 0 1 -0.45,-1.16z" fill="rgb(38, 50, 56)" id="eljemdd5se7rq"/>
   <path class="animable" d="m150.45,300.26c0.1,-0.1 0.58,0.21 1.06,0.7s0.8,1 0.7,1.06s-0.58,-0.21 -1.06,-0.69s-0.8,-0.97 -0.7,-1.07z" fill="rgb(38, 50, 56)" id="elo9mo2r77bpp"/>
   <path class="animable" d="m151.58,298.52c0.13,-0.08 0.58,0.43 1,1.13s0.69,1.34 0.56,1.41s-0.57,-0.43 -1,-1.13s-0.68,-1.34 -0.56,-1.41z" fill="rgb(38, 50, 56)" id="elk5ztjgb2yal"/>
   <path class="animable" d="m154.71,298.29c0.15,0 0.17,0.61 0.06,1.32s-0.32,1.25 -0.46,1.23s-0.17,-0.61 -0.06,-1.32s0.32,-1.25 0.46,-1.23z" fill="rgb(38, 50, 56)" id="elgn2rjyofaqr"/>
   <path class="animable" d="m164.13,337.34a10.35,10.35 0 0 1 -0.08,1.78c-0.09,1.15 -0.26,2.8 -0.5,4.83c-0.47,4.08 -1.3,9.68 -2.55,15.81s-2.69,11.62 -3.84,15.56c-0.58,2 -1.08,3.55 -1.44,4.63a12.65,12.65 0 0 1 -0.62,1.67a13.26,13.26 0 0 1 0.42,-1.73c0.33,-1.18 0.76,-2.76 1.28,-4.67c1.06,-4 2.44,-9.44 3.69,-15.56s2.13,-11.7 2.7,-15.75c0.27,-2 0.49,-3.59 0.65,-4.81a14.78,14.78 0 0 1 0.29,-1.76z" fill="rgb(69, 90, 100)" id="el8iybfpysb6"/>
   <path class="animable" d="m181.86,314.19c0,0.1 -1.43,0.11 -3.64,0.69a18.05,18.05 0 0 0 -12.54,11.58c-0.76,2.15 -0.88,3.59 -1,3.57a2.79,2.79 0 0 1 0,-1a15,15 0 0 1 0.58,-2.68a17.37,17.37 0 0 1 12.8,-11.82a15.36,15.36 0 0 1 2.72,-0.37a3.48,3.48 0 0 1 1.08,0.03z" fill="rgb(69, 90, 100)" id="elfxo8efly95g"/>
   <path class="animable" d="m157.8,382.51a5.24,5.24 0 0 1 0,-0.75c0,-0.49 0.12,-1.22 0.25,-2.15a20,20 0 0 1 2.37,-7.57c0.84,-1.47 2,-2.91 2.94,-4.61a9.67,9.67 0 0 0 1,-2.78a11.45,11.45 0 0 0 0.08,-3.16c-0.16,-2.17 -0.79,-4.51 -0.3,-7a8.54,8.54 0 0 1 1.6,-3.39c0.73,-1 1.58,-2 2.25,-3a6.36,6.36 0 0 0 1.12,-3.41a14.83,14.83 0 0 0 -0.48,-3.57a21.11,21.11 0 0 1 -0.58,-7a19.9,19.9 0 0 1 10.54,-15.89a17.52,17.52 0 0 1 2,-0.88a4.26,4.26 0 0 1 0.72,-0.23a3.85,3.85 0 0 1 -0.68,0.32c-0.45,0.21 -1.11,0.51 -1.92,1a20.47,20.47 0 0 0 -5.95,5.08a19.71,19.71 0 0 0 -4.21,10.67a20.85,20.85 0 0 0 0.6,6.82a15.28,15.28 0 0 1 0.5,3.69a6.87,6.87 0 0 1 -1.21,3.68c-0.7,1.11 -1.55,2.05 -2.26,3.05a7.83,7.83 0 0 0 -1.52,3.19c-0.47,2.31 0.12,4.62 0.28,6.84a12,12 0 0 1 -0.11,3.29a10.21,10.21 0 0 1 -1.11,2.9c-1,1.74 -2.16,3.16 -3,4.59a20.78,20.78 0 0 0 -2.48,7.42c-0.15,0.88 -0.26,1.59 -0.35,2.12a3.76,3.76 0 0 1 -0.09,0.73z" fill="rgb(69, 90, 100)" id="eliannjg18qtm"/>
   <path class="animable" d="m183,324.55a9.45,9.45 0 0 0 -2.46,0.35a9.77,9.77 0 0 0 -5.17,4.13c-1.6,2.39 -2.31,5.82 -2.69,9.6a121.14,121.14 0 0 1 -1.79,12.37a200.58,200.58 0 0 1 -6,21.82c-0.9,2.75 -1.65,5 -2.19,6.49c-0.25,0.72 -0.46,1.3 -0.62,1.75a2.49,2.49 0 0 1 -0.26,0.6a4.25,4.25 0 0 1 0.18,-0.66c0.13,-0.46 0.31,-1.05 0.53,-1.78l2,-6.54c1.69,-5.53 4,-13.18 5.8,-21.82c0.88,-4.31 1.46,-8.46 1.86,-12.27s1.17,-7.3 2.87,-9.74a9.74,9.74 0 0 1 5.42,-4.12a6.25,6.25 0 0 1 1.86,-0.23a4.13,4.13 0 0 1 0.66,0.05z" fill="rgb(224, 224, 224)" id="elbppqyhsckt8"/>
   <path class="animable" d="m146.29,378.93l19.37,0s-11.75,93.29 -76.61,93l0.83,-18.19s44.12,-2.74 56.41,-74.81z" fill="#214B92" id="el8odgzorymjl"/>
   <g id="el6hq23agywjf">
    <path class="animable" d="m70.7,442.54l4.3,0a1.83,1.83 0 0 1 1.83,1.83l0,17.63a0,0 0 0 1 0,0l-8,0a0,0 0 0 1 0,0l0,-17.63a1.83,1.83 0 0 1 1.87,-1.83z" fill="#214B92" id="elyql0g84zv6" transform="rotate(-88.99deg)"/>
   </g>
   <g id="elfhqik2l0sqf">
    <g class="animable" id="elu7mhkf32fh" opacity="0.3">
     <g id="elrlnfr1o1u8f">
      <path class="animable" d="m70.7,442.54l4.3,0a1.83,1.83 0 0 1 1.83,1.83l0,17.63a0,0 0 0 1 0,0l-8,0a0,0 0 0 1 0,0l0,-17.63a1.83,1.83 0 0 1 1.87,-1.83z" id="eleaorscvzfz7" transform="rotate(-88.99deg)"/>
     </g>
    </g>
   </g>
   <g id="ela8raefyre0h">
    <path class="animable" d="m69.64,457l5.94,0a3,3 0 0 1 3,3l0,16.47a0,0 0 0 1 0,0l-12,0a0,0 0 0 1 0,0l0,-16.41a3,3 0 0 1 3.06,-3.06z" fill="#214B92" id="elv09skmyuaca" transform="rotate(-88.8542deg)"/>
   </g>
   <g id="el2kjfe3xytsc">
    <rect class="animable" fill="#214B92" height="7.7" id="elwitmp66kul" transform="rotate(-88.99deg)" width="20.39" x="68.46" y="454.75"/>
   </g>
   <g id="eluibg579eih">
    <rect class="animable" fill="rgb(38, 50, 56)" height="27.68" id="el6tmcfu5ogqd" transform="rotate(-0.7deg)" width="12.44" x="79.17" y="447.2"/>
   </g>
   <path class="animable" d="m91.64,471.9c0,0.23 -2.74,0.4 -6.11,0.42a34.37,34.37 0 0 1 -6.13,-0.26a38.67,38.67 0 0 1 6.12,-0.27c1.69,0 3.22,0 4.33,0l1.31,0a2.44,2.44 0 0 1 0.48,0.11z" fill="rgb(69, 90, 100)" id="elg7v2ztgvmwu"/>
   <path class="animable" d="m91.58,466.92c0,0.23 -2.74,0.39 -6.11,0.41a35,35 0 0 1 -6.13,-0.25a38.67,38.67 0 0 1 6.12,-0.27c1.69,0 3.22,0 4.33,0l1.31,0a1.75,1.75 0 0 1 0.48,0.11z" fill="rgb(69, 90, 100)" id="elrr005iygae"/>
   <path class="animable" d="m91.72,461.89c0,0.23 -2.73,0.39 -6.11,0.41a34.92,34.92 0 0 1 -6.12,-0.25a38.67,38.67 0 0 1 6.12,-0.27c1.69,0 3.22,0 4.32,0l1.31,0a2,2 0 0 1 0.48,0.11z" fill="rgb(69, 90, 100)" id="elr37qe3uq4w"/>
   <path class="animable" d="m91.46,457c0,0.23 -2.74,0.4 -6.12,0.42a34.29,34.29 0 0 1 -6.12,-0.26a38.67,38.67 0 0 1 6.12,-0.27c1.69,0 3.22,0 4.33,0l1.31,0a2.57,2.57 0 0 1 0.48,0.11z" fill="rgb(69, 90, 100)" id="elka7hhdkpfh"/>
   <path class="animable" d="m91.64,452.23c0,0.23 -2.74,0.4 -6.11,0.42a36.2,36.2 0 0 1 -6.13,-0.25a36,36 0 0 1 6.12,-0.27c1.69,0 3.22,0 4.33,0l1.31,0a2.44,2.44 0 0 1 0.48,0.1z" fill="rgb(69, 90, 100)" id="eln6rds8hktw"/>
   <path class="animable" d="m98.44,471s0,0.16 0.06,0.5l0,0.58l-0.17,-0.56a83.2,83.2 0 0 1 -1.91,-9.16c-0.43,-2.69 -0.72,-5.13 -0.89,-6.91a14.66,14.66 0 0 1 -0.13,-2.89a18.89,18.89 0 0 1 0.5,2.85c0.25,1.76 0.6,4.19 1,6.87c0.69,4.34 1.4,8 1.55,9.2l-0.16,0c0.09,-0.34 0.12,-0.48 0.15,-0.48z" fill="rgb(38, 50, 56)" id="el3k4w4vmbpsi"/>
   <path class="animable" d="m107.64,469.21a92.86,92.86 0 0 1 -3.22,-9.42a92.86,92.86 0 0 1 -2.73,-9.57a92.86,92.86 0 0 1 3.22,9.42a92.86,92.86 0 0 1 2.73,9.57z" fill="rgb(38, 50, 56)" id="ela7b9wj4r6no"/>
   <path class="animable" d="m118.51,464.62a98.81,98.81 0 0 1 -4.78,-9.06c-2.5,-5.08 -4.43,-9.24 -4.3,-9.3a99.8,99.8 0 0 1 4.77,9.07c2.51,5.07 4.43,9.23 4.31,9.29z" fill="rgb(38, 50, 56)" id="elp3dfv47o1bd"/>
   <path class="animable" d="m128.14,457.42a91.87,91.87 0 0 1 -6.18,-7.91a98.59,98.59 0 0 1 -5.77,-8.23a96.34,96.34 0 0 1 6.19,7.92c3.29,4.46 5.87,8.14 5.76,8.22z" fill="rgb(38, 50, 56)" id="elkdiths57o2"/>
   <path class="animable" d="m136.55,449.44a93.69,93.69 0 0 1 -7.2,-6.85a96.19,96.19 0 0 1 -6.82,-7.22a94.54,94.54 0 0 1 7.19,6.85a97.73,97.73 0 0 1 6.83,7.22z" fill="rgb(38, 50, 56)" id="elh9usnhwmbe"/>
   <path class="animable" d="m143.48,439.86a14.64,14.64 0 0 1 -2.51,-1.34l-5.92,-3.46l-5.91,-3.45a15.52,15.52 0 0 1 -2.41,-1.53a15.05,15.05 0 0 1 2.58,1.21c1.56,0.81 3.69,2 6,3.32s4.37,2.64 5.84,3.6a15.72,15.72 0 0 1 2.33,1.65z" fill="rgb(38, 50, 56)" id="elfy6t12nvbps"/>
   <path class="animable" d="m148.17,430.16a13.82,13.82 0 0 1 -2.43,-1.09c-1.47,-0.72 -3.51,-1.71 -5.77,-2.76s-4.34,-1.95 -5.84,-2.61a15.48,15.48 0 0 1 -2.41,-1.14a11.93,11.93 0 0 1 2.54,0.8c1.54,0.57 3.65,1.43 5.93,2.48s4.29,2.1 5.72,2.9a13.26,13.26 0 0 1 2.26,1.42z" fill="rgb(38, 50, 56)" id="eld3a25epnjd"/>
   <path class="animable" d="m153.77,420.78a13.93,13.93 0 0 1 -2.77,-0.46c-1.7,-0.37 -4,-0.94 -6.57,-1.68s-4.82,-1.51 -6.45,-2.11a14.17,14.17 0 0 1 -2.59,-1.09a16.24,16.24 0 0 1 2.71,0.74c1.65,0.51 3.94,1.22 6.47,2s4.84,1.36 6.51,1.82a16.1,16.1 0 0 1 2.69,0.78z" fill="rgb(38, 50, 56)" id="el7k3rrhc3gn9"/>
   <path class="animable" d="m156.76,411.32a84.29,84.29 0 0 1 -9.25,-0.92a84.45,84.45 0 0 1 -9.18,-1.43a84.06,84.06 0 0 1 9.25,0.92a79,79 0 0 1 9.18,1.43z" fill="rgb(38, 50, 56)" id="el1wb1bphpwok"/>
   <path class="animable" d="m159.94,402.07a12.64,12.64 0 0 1 -2.69,-0.08c-1.66,-0.12 -3.95,-0.32 -6.47,-0.57s-4.81,-0.51 -6.45,-0.73a13.79,13.79 0 0 1 -2.66,-0.45a14.26,14.26 0 0 1 2.7,0.09c1.66,0.12 3.94,0.32 6.46,0.57s4.8,0.51 6.45,0.72a14.83,14.83 0 0 1 2.66,0.45z" fill="rgb(38, 50, 56)" id="el6fqsypelwmv"/>
   <path class="animable" d="m162.39,393.11a92.12,92.12 0 0 1 -9.64,0.56a86.39,86.39 0 0 1 -9.65,0a92.12,92.12 0 0 1 9.64,-0.56a89.44,89.44 0 0 1 9.65,0z" fill="rgb(38, 50, 56)" id="elkbi3e9jraip"/>
   <path class="animable" d="m163.4,385.79a13.17,13.17 0 0 1 -2.64,0.41c-1.64,0.17 -3.91,0.31 -6.42,0.32s-4.79,-0.11 -6.43,-0.26a12.81,12.81 0 0 1 -2.64,-0.38a15,15 0 0 1 2.66,0c1.64,0.06 3.9,0.13 6.4,0.11s4.77,-0.1 6.4,-0.17a15,15 0 0 1 2.67,-0.03z" fill="rgb(38, 50, 56)" id="elg507fncgs3u"/>
   <path class="animable" d="m147.13,381.7a0.72,0.72 0 0 1 0,0.25l0,0.74c0,0.65 0,1.61 -0.07,2.84a74,74 0 0 1 -1.23,10.39a78.32,78.32 0 0 1 -4.35,14.89a77.44,77.44 0 0 1 -22,30.58a78.86,78.86 0 0 1 -12.76,8.83a73.1,73.1 0 0 1 -9.47,4.45c-1.14,0.46 -2.06,0.74 -2.67,1l-0.7,0.23a0.8,0.8 0 0 1 -0.25,0.06a0.7,0.7 0 0 1 0.23,-0.11l0.68,-0.28c0.6,-0.25 1.51,-0.56 2.64,-1a82.14,82.14 0 0 0 9.36,-4.58a79.89,79.89 0 0 0 39,-54a81.57,81.57 0 0 0 1.39,-10.33c0.11,-1.22 0.11,-2.18 0.16,-2.83c0,-0.3 0,-0.54 0,-0.74a0.87,0.87 0 0 1 0.04,-0.39z" fill="rgb(255, 255, 255)" id="elswlaar4f25"/>
   <path class="animable" d="m236.92,273s-10.72,-14.51 -35.53,-12.36c0,0 25.25,-19.4 10.39,-39.33c0,0 31.89,9.42 32.25,-30.44c0,0 5.8,37 35.88,26.46c0,0 2.14,29.36 22.95,23.93c-10.07,9.9 -19.86,18.63 -17.86,31.29" fill="#214B92" id="els06crvjfpk"/>
   <g id="eltgw1i5lomi">
    <g class="animable" id="el0y67ppu0o7lo" opacity="0.8">
     <path class="animable" d="m236.92,273s-10.72,-14.51 -35.53,-12.36c0,0 25.25,-19.4 10.39,-39.33c0,0 31.89,9.42 32.25,-30.44c0,0 5.8,37 35.88,26.46c0,0 2.14,29.36 22.95,23.93c-10.07,9.9 -19.86,18.63 -17.86,31.29" fill="rgb(255, 255, 255)" id="el7rc2c6fhkmj"/>
    </g>
   </g>
   <path class="animable" d="m236.92,273s-0.25,-16.92 -20.18,-15.19c0,0 18.53,-10.69 6.6,-26.7c0,0 25.62,7.57 25.91,-24.45c0,0 4.65,29.69 28.82,21.25c0,0 -2.89,21.54 13.84,17.17c-8.09,8 -11.37,17 -9.77,27.2" fill="#214B92" id="eltymh3glhz8"/>
   <g id="elhtl6y86kaa">
    <g class="animable" id="elofenry5obeo" opacity="0.6">
     <path class="animable" d="m236.92,273s-0.25,-16.92 -20.18,-15.19c0,0 18.53,-10.69 6.6,-26.7c0,0 25.62,7.57 25.91,-24.45c0,0 4.65,29.69 28.82,21.25c0,0 -2.89,21.54 13.84,17.17c-8.09,8 -11.37,17 -9.77,27.2" fill="rgb(255, 255, 255)" id="elbq1nb6pxnac"/>
    </g>
   </g>
   <path class="animable" d="m269.65,160.76a5.13,5.13 0 0 1 -0.24,0.63l-0.79,1.76c-0.35,0.76 -0.77,1.69 -1.22,2.8s-1,2.33 -1.51,3.74s-1.13,2.93 -1.68,4.6s-1.12,3.46 -1.7,5.35c-1.09,3.8 -2.13,8 -2.95,12.52s-1.3,8.82 -1.6,12.76c-0.12,2 -0.25,3.85 -0.27,5.61s-0.05,3.4 0,4.89s0.08,2.85 0.12,4s0.1,2.21 0.17,3s0.09,1.43 0.12,1.92a3,3 0 0 1 0,0.68a5.34,5.34 0 0 1 -0.11,-0.67q-0.07,-0.74 -0.21,-1.92c-0.1,-0.83 -0.2,-1.85 -0.26,-3s-0.18,-2.55 -0.19,-4s-0.08,-3.14 0,-4.91s0.12,-3.65 0.22,-5.63a113.18,113.18 0 0 1 4.57,-25.39c0.59,-1.89 1.14,-3.7 1.75,-5.35s1.18,-3.2 1.74,-4.59s1.12,-2.64 1.6,-3.73s0.92,-2 1.3,-2.77l0.87,-1.72a3,3 0 0 1 0.27,-0.58z" fill="#214B92" id="el1804clrjves"/>
   <path class="animable" d="m198.07,153.89a33,33 0 0 0 -6,-4.49a33.26,33.26 0 0 0 -7.06,-2.52a6.79,6.79 0 0 1 2.23,0.22a18.55,18.55 0 0 1 5.08,1.84a18.9,18.9 0 0 1 4.34,3.21a6.55,6.55 0 0 1 1.41,1.74z" fill="#214B92" id="ellnxnlrcje5"/>
   <path class="animable" d="m205.75,197.42a2.34,2.34 0 0 1 0.42,0.4l1.11,1.19c1,1 2.31,2.59 3.91,4.56s3.43,4.37 5.36,7.11s3.92,5.86 5.86,9.2s3.62,6.64 5.06,9.67s2.6,5.82 3.5,8.19s1.59,4.31 2,5.66q0.28,0.94 0.48,1.56a2.26,2.26 0 0 1 0.13,0.56a2.26,2.26 0 0 1 -0.23,-0.53l-0.58,-1.52c-0.47,-1.33 -1.2,-3.25 -2.15,-5.59s-2.16,-5.1 -3.59,-8.12s-3.15,-6.27 -5.08,-9.62s-3.92,-6.42 -5.8,-9.18s-3.69,-5.18 -5.26,-7.16s-2.85,-3.58 -3.77,-4.66l-1,-1.25a2.44,2.44 0 0 1 -0.37,-0.47z" fill="#214B92" id="elpu0g9628dmc"/>
   <path class="animable" d="m274.51,202.53a1.72,1.72 0 0 1 -0.21,0.46l-0.67,1.25c-0.31,0.54 -0.67,1.2 -1.06,2s-0.87,1.66 -1.32,2.67c-1,2 -2,4.42 -3,7.16a78.08,78.08 0 0 0 -4.16,18.47c-0.27,2.9 -0.39,5.53 -0.38,7.74c0,1.1 0,2.1 0.05,3s0.06,1.63 0.1,2.25s0.05,1 0.07,1.42a1.37,1.37 0 0 1 0,0.5a2.25,2.25 0 0 1 -0.09,-0.49c-0.05,-0.38 -0.1,-0.85 -0.17,-1.42s-0.15,-1.37 -0.19,-2.25s-0.13,-1.88 -0.13,-3a71,71 0 0 1 0.28,-7.79a72.75,72.75 0 0 1 4.18,-18.58a70.42,70.42 0 0 1 3.09,-7.16c0.47,-1 1,-1.87 1.4,-2.65s0.8,-1.43 1.13,-2s0.56,-0.88 0.76,-1.21a2,2 0 0 1 0.32,-0.37z" fill="#214B92" id="elm96guil6oz"/>
   <path class="animable" d="m294.15,206.41c0.05,0.06 -0.83,0.71 -2.16,1.87a36.84,36.84 0 0 0 -8.52,10.7a26.43,26.43 0 0 1 -1.35,2.53a11.4,11.4 0 0 1 1,-2.7a30.94,30.94 0 0 1 3.68,-5.9a30.11,30.11 0 0 1 4.93,-4.91a11.07,11.07 0 0 1 2.42,-1.59z" fill="#214B92" id="el1el0d4fmw8c"/>
   <path class="animable" d="m210.65,231.91a11.93,11.93 0 0 1 2.44,1.53a34.6,34.6 0 0 1 5.16,4.68a33.84,33.84 0 0 1 4.12,5.61a11.66,11.66 0 0 1 1.27,2.59a27.69,27.69 0 0 1 -1.58,-2.4a45,45 0 0 0 -4.2,-5.46a45.57,45.57 0 0 0 -5,-4.73a22.61,22.61 0 0 1 -2.21,-1.82z" fill="#214B92" id="elxqu0nftg5g"/>
   <path class="animable" d="m205.58,222.61c-0.08,0.14 -2.12,-1 -4.88,-1.7s-5.09,-0.71 -5.09,-0.87a14.5,14.5 0 0 1 10,2.57l-0.03,0z" fill="#214B92" id="elqillfpqhci"/>
   <path class="animable" d="m185,191.31a6.85,6.85 0 0 1 0.66,-1.66l-0.91,-1.38l1.9,-2l1.41,0.85a7.26,7.26 0 0 1 1.64,-0.71l0.34,-1.61l2.73,-0.05l0.39,1.61a7,7 0 0 1 1.66,0.65l1.38,-0.9l2,1.9l-0.86,1.41a6.31,6.31 0 0 1 0.71,1.64l1.62,0.33l0,2.74l-1.6,0.39a6.78,6.78 0 0 1 -0.66,1.65l0.91,1.39l-1.9,2l-1.42,-0.86a6.25,6.25 0 0 1 -1.63,0.71l-0.37,1.59l-2.73,0l-0.39,-1.6a6.85,6.85 0 0 1 -1.66,-0.66l-1.38,0.9l-2,-1.9l0.86,-1.41a6.25,6.25 0 0 1 -0.71,-1.63l-1.62,-0.34l0,-2.73l1.6,-0.39l0.03,0.07zm3.6,1.55a2.93,2.93 0 1 0 2.88,-3a2.93,2.93 0 0 0 -2.87,3l-0.01,0z" fill="#214B92" fill-rule="evenodd" id="elq20ptuidy2b"/>
   <path class="animable" d="m299.57,265.2a5.17,5.17 0 0 1 0.48,-1.22l-0.67,-1l1.41,-1.45l1,0.63a5.13,5.13 0 0 1 1.2,-0.52l0.25,-1.19l2,0l0.29,1.19a4.77,4.77 0 0 1 1.22,0.48l1,-0.67l1.45,1.41l-0.63,1a5,5 0 0 1 0.52,1.2l1.19,0.25l0,2l-1.19,0.29a5.17,5.17 0 0 1 -0.48,1.22l0.66,1l-1.4,1.45l-1,-0.63a5,5 0 0 1 -1.21,0.52l-0.24,1.19l-2,0l-0.29,-1.18a5.17,5.17 0 0 1 -1.22,-0.48l-1,0.66l-1.41,-1.35l0.63,-1a5,5 0 0 1 -0.52,-1.21l-1.19,-0.25l0,-2l1.19,-0.29l-0.04,-0.05zm2.66,1.14a2.16,2.16 0 1 0 4.32,-0.07a2.16,2.16 0 1 0 -4.32,0.07z" fill="rgb(69, 90, 100)" fill-rule="evenodd" id="ellpiqmwxkhkl"/>
   <g id="elutiz0rbu3f">
    <rect class="animable" fill="rgb(224, 224, 224)" height="4.72" id="elfvq5vpitqsf" transform="rotate(-64.59deg)" width="10.43" x="274.18" y="182.1"/>
   </g>
   <path class="animable" d="m275,188.16a10.74,10.74 0 0 1 1.23,0.49c0.76,0.32 1.83,0.78 3.11,1.36l-0.25,0.09c1.12,-2.45 2.67,-5.79 4.41,-9.45c-0.11,-0.31 0.15,0.43 0.12,0.35l-0.06,0l-0.07,0l-0.14,-0.06l-0.28,-0.14l-0.56,-0.26l-1.08,-0.52l-2.06,-1l0.33,-0.11c-1.29,2.68 -2.45,5 -3.28,6.64c-0.4,0.76 -0.73,1.41 -1,1.95a4.56,4.56 0 0 1 -0.41,0.72a3.13,3.13 0 0 1 0.26,-0.68c0.23,-0.54 0.52,-1.19 0.85,-1.95c0.75,-1.69 1.83,-4.1 3.14,-6.89l0.11,-0.23l0.22,0.11l2.07,1l1.09,0.51l0.55,0.26l0.28,0.14l0.14,0.06l0.07,0l0.07,0c0,-0.08 0.23,0.66 0.12,0.35c-1.74,3.66 -3.34,7 -4.54,9.39l-0.08,0.17l-0.17,-0.09c-1.34,-0.66 -2.41,-1.21 -3.12,-1.59a7.68,7.68 0 0 1 -1.07,-0.62z" fill="rgb(38, 50, 56)" id="el6vavdks2rfh"/>
   <path class="animable" d="m283.35,175.75a4.34,4.34 0 0 0 -5.79,2.06l7.86,3.74a4.35,4.35 0 0 0 -2.07,-5.8z" fill="rgb(224, 224, 224)" id="elg9om89lcjn6"/>
   <path class="animable" d="m283.35,175.75a1.2,1.2 0 0 1 0.49,0.18a4.22,4.22 0 0 1 1.12,0.9a4.28,4.28 0 0 1 1,2a4.45,4.45 0 0 1 -0.32,2.83l-0.09,0.22l-0.23,-0.1l-3.93,-1.85l-3.94,-1.93l-0.22,-0.1l0.11,-0.22a4.54,4.54 0 0 1 2,-2a4.4,4.4 0 0 1 2.17,-0.48a3.86,3.86 0 0 1 1.4,0.3c0.31,0.14 0.46,0.24 0.44,0.26a8.45,8.45 0 0 0 -1.84,-0.27a4.22,4.22 0 0 0 -2,0.55a4.16,4.16 0 0 0 -1.76,1.89l-0.11,-0.32l3.94,1.85l3.92,1.88l-0.32,0.12a4.19,4.19 0 0 0 0.36,-2.56a4.35,4.35 0 0 0 -0.83,-1.88a8,8 0 0 0 -1.36,-1.27z" fill="rgb(38, 50, 56)" id="eloc0agzv3xha"/>
   <path class="animable" d="m283.45,178.24a2.74,2.74 0 0 0 -0.86,-2.8" fill="rgb(224, 224, 224)" id="elduvpz4lu7vg"/>
   <path class="animable" d="m282.59,175.44c0.07,-0.13 0.8,0.27 1.08,1.2s-0.09,1.66 -0.22,1.6s0,-0.71 -0.27,-1.45s-0.68,-1.23 -0.59,-1.35z" fill="rgb(38, 50, 56)" id="eljd961v5715d"/>
   <path class="animable" d="m278.65,180.07a9,9 0 0 1 2.28,0.94a9.17,9.17 0 0 1 2.23,1.09a4.68,4.68 0 0 1 -2.44,-0.62c-1.28,-0.57 -2.15,-1.3 -2.07,-1.41z" fill="rgb(38, 50, 56)" id="eluuuadwf1p5m"/>
   <path class="animable" d="m278.12,181.17a9.71,9.71 0 0 1 2.29,1a9.17,9.17 0 0 1 2.22,1.08a4.52,4.52 0 0 1 -2.44,-0.61c-1.27,-0.64 -2.19,-1.35 -2.07,-1.47z" fill="rgb(38, 50, 56)" id="elwfe5cop3a2o"/>
   <path class="animable" d="m277.6,182.28a9,9 0 0 1 2.28,0.94a9.41,9.41 0 0 1 2.23,1.09a4.72,4.72 0 0 1 -2.44,-0.61c-1.28,-0.58 -2.15,-1.31 -2.07,-1.42z" fill="rgb(38, 50, 56)" id="el0j2vql06r9tu"/>
   <path class="animable" d="m277.07,183.38a9.71,9.71 0 0 1 2.29,1a9.17,9.17 0 0 1 2.22,1.08a4.52,4.52 0 0 1 -2.44,-0.61c-1.27,-0.62 -2.14,-1.35 -2.07,-1.47z" fill="rgb(38, 50, 56)" id="elnzdivsj1wb"/>
   <path class="animable" d="m276.54,184.49a9.26,9.26 0 0 1 2.29,0.94a9.87,9.87 0 0 1 2.23,1.09a7.15,7.15 0 0 1 -4.52,-2l0,-0.03z" fill="rgb(38, 50, 56)" id="eljilxuo4bl4"/>
   <path class="animable" d="m276,185.6a9,9 0 0 1 2.29,0.94a9.21,9.21 0 0 1 2.22,1.09a7.23,7.23 0 0 1 -4.51,-2l0,-0.03z" fill="rgb(38, 50, 56)" id="elf0xmygtxf9l"/>
   <path class="animable" d="m275.49,186.7a9.54,9.54 0 0 1 2.29,1a9.17,9.17 0 0 1 2.22,1.08a4.48,4.48 0 0 1 -2.43,-0.61c-1.28,-0.62 -2.16,-1.35 -2.08,-1.47z" fill="rgb(38, 50, 56)" id="el0ptmxbgco4ie"/>
   <g id="eldvddyfncgmf">
    <rect class="animable" fill="rgb(224, 224, 224)" height="4.72" id="el4lls9nhic37" transform="rotate(-24.4deg)" width="10.43" x="171.84" y="261.9"/>
   </g>
   <path class="animable" d="m182.77,264.25a11.2,11.2 0 0 1 -0.62,-1.17c-0.37,-0.73 -0.89,-1.77 -1.5,-3l0.25,0.09c-2.44,1.15 -5.78,2.7 -9.46,4.37c-0.12,0.31 0.15,-0.42 0.13,-0.34l0,0l0,0l0,0l0,0.07l0.06,0.14l0.13,0.28l0.25,0.56c0.17,0.37 0.33,0.73 0.5,1.09l0.93,2.09l-0.33,-0.12c2.73,-1.22 5.09,-2.23 6.8,-3l2,-0.84a5,5 0 0 1 0.78,-0.29a3,3 0 0 1 -0.63,0.36l-1.91,0.94c-1.66,0.8 -4,1.95 -6.85,3.24l-0.23,0.1l-0.1,-0.23c-0.31,-0.66 -0.62,-1.36 -1,-2.07c-0.17,-0.36 -0.33,-0.73 -0.5,-1.1l-0.25,-0.55l-0.13,-0.29l-0.07,-0.14l0,-0.07l0,-0.05l0,0l0.13,-0.34c3.69,-1.68 7.05,-3.17 9.53,-4.24l0.17,-0.08l0.08,0.17c0.59,1.38 1.05,2.49 1.35,3.24a5.89,5.89 0 0 1 0.49,1.18z" fill="rgb(38, 50, 56)" id="eles5oa4mk3bv"/>
   <path class="animable" d="m168.41,268.36a4.35,4.35 0 0 0 5.76,2.17l-3.6,-7.93a4.34,4.34 0 0 0 -2.16,5.76z" fill="rgb(224, 224, 224)" id="el5efng2srkmp"/>
   <path class="animable" d="m168.41,268.36s-0.12,-0.14 -0.26,-0.44a4.09,4.09 0 0 1 -0.27,-1.42a4.34,4.34 0 0 1 0.52,-2.16a4.59,4.59 0 0 1 2.07,-2l0.22,-0.1l0.1,0.22c0.57,1.23 1.18,2.56 1.82,4s1.22,2.73 1.78,4l0.1,0.22l-0.22,0.1a4.52,4.52 0 0 1 -2.84,0.26a4.28,4.28 0 0 1 -2,-1a3.9,3.9 0 0 1 -0.88,-1.13c-0.15,-0.31 -0.2,-0.48 -0.17,-0.49a7.9,7.9 0 0 0 1.23,1.4a4.26,4.26 0 0 0 4.43,0.55l-0.12,0.32l-1.82,-4c-0.62,-1.4 -1.22,-2.73 -1.78,-4l0.32,0.12a4.24,4.24 0 0 0 -2.5,3.69a8.47,8.47 0 0 0 0.27,1.86z" fill="rgb(38, 50, 56)" id="elgq0w8pgo7td"/>
   <path class="animable" d="m169.94,266.4a2.74,2.74 0 0 0 -1.15,2.69" fill="rgb(224, 224, 224)" id="eltzltlfraknl"/>
   <path class="animable" d="m168.79,269.09c-0.13,0.06 -0.44,-0.73 -0.06,-1.61s1.16,-1.21 1.21,-1.08s-0.43,0.56 -0.73,1.28s-0.27,1.38 -0.42,1.41z" fill="rgb(38, 50, 56)" id="el8uzhe50mrsd"/>
   <path class="animable" d="m174.79,268.1a9,9 0 0 1 -1.14,-2.19a9.38,9.38 0 0 1 -1,-2.27a7.13,7.13 0 0 1 2.14,4.46z" fill="rgb(38, 50, 56)" id="elfdbwivxpdh"/>
   <path class="animable" d="m175.9,267.6a9.58,9.58 0 0 1 -1.14,-2.2a9.79,9.79 0 0 1 -1,-2.26c0.11,-0.09 0.86,0.77 1.46,2a4.5,4.5 0 0 1 0.68,2.46z" fill="rgb(38, 50, 56)" id="el7h337lnypl"/>
   <path class="animable" d="m177,267.09a9.19,9.19 0 0 1 -1.14,-2.19a9.38,9.38 0 0 1 -1,-2.27a7.13,7.13 0 0 1 2.14,4.46z" fill="rgb(38, 50, 56)" id="elxa47nv3te2"/>
   <path class="animable" d="m178.13,266.59a9.85,9.85 0 0 1 -1.14,-2.2a9.57,9.57 0 0 1 -1,-2.27a4.67,4.67 0 0 1 1.46,2a4.53,4.53 0 0 1 0.68,2.47z" fill="rgb(38, 50, 56)" id="elpcu507mej5n"/>
   <path class="animable" d="m179.25,266.08a9.14,9.14 0 0 1 -1.14,-2.2a9.4,9.4 0 0 1 -1,-2.26a7.13,7.13 0 0 1 2.14,4.46z" fill="rgb(38, 50, 56)" id="elalnavoghsuc"/>
   <path class="animable" d="m180.36,265.57a9.37,9.37 0 0 1 -1.14,-2.19a9.57,9.57 0 0 1 -1,-2.27a4.67,4.67 0 0 1 1.46,2a4.52,4.52 0 0 1 0.68,2.46z" fill="rgb(38, 50, 56)" id="el8kn9pkbj4ud"/>
   <path class="animable" d="m181.48,265.07a40.24,40.24 0 0 1 -2.14,-4.46c0.11,-0.09 0.87,0.77 1.47,2a4.61,4.61 0 0 1 0.67,2.46z" fill="rgb(38, 50, 56)" id="elzknt35zxdeq"/>
   <path class="animable" d="m201.52,142.38s12.11,12 15.13,19.43c2.87,7.11 4.77,13.73 4.77,13.73s3.12,-5.46 6.63,0s20.1,71.77 22.83,96.73l10.57,0s-4.92,-41.73 -7.26,-46.41s-4.3,-6.24 -4.3,-6.24s-2.73,-17.56 -4.68,-20.29a13.16,13.16 0 0 0 -4.29,-3.9s-3.51,-19.11 -8.58,-23s-9,-1.95 -9,-1.95s-3.2,-20.48 -21.82,-28.1z" fill="#214B92" id="eltsqko0y705"/>
   <path class="animable" d="m300.67,231a55.81,55.81 0 0 0 -7,2.38a58.26,58.26 0 0 0 -6.41,3.72a6.81,6.81 0 0 1 1.62,-1.48a24.09,24.09 0 0 1 9.62,-4.37a7.24,7.24 0 0 1 2.17,-0.25z" fill="rgb(69, 90, 100)" id="el6goi495tlgb"/>
   <path class="animable" d="m300.26,228.86a72.81,72.81 0 0 0 -7.06,3.14c-3.73,2.06 -6.28,4.45 -6.39,4.32a8.14,8.14 0 0 1 1.6,-1.63a28,28 0 0 1 4.54,-3.14a26.89,26.89 0 0 1 5.07,-2.18a7.88,7.88 0 0 1 2.24,-0.51z" fill="rgb(69, 90, 100)" id="eliqm2eaupn6"/>
   <path class="animable" d="m298.21,234c0,0.16 -2.2,0.19 -4.79,0.94s-4.49,1.85 -4.57,1.72a13.27,13.27 0 0 1 9.36,-2.66z" fill="rgb(69, 90, 100)" id="elbbjj3z2oq35"/>
   <path class="animable" d="m274.88,272.17c-1.77,-14 2.83,-30.42 14,-38.28l2.66,2.17s-13.91,8.28 -12.89,36.21" fill="rgb(38, 50, 56)" id="el61j769is804"/>
   <path class="animable" d="m217.41,252a33.58,33.58 0 0 0 -5.37,2.39a34.87,34.87 0 0 0 -4.56,3.71a13.8,13.8 0 0 1 9.93,-6.1z" fill="rgb(69, 90, 100)" id="elhsxn2qephxd"/>
   <path class="animable" d="m217.13,250.76a51.19,51.19 0 0 1 -5.44,2.1a50.87,50.87 0 0 1 -5.5,2a24.23,24.23 0 0 1 5.32,-2.46a23.76,23.76 0 0 1 5.62,-1.64z" fill="rgb(69, 90, 100)" id="elfhogf5yd0o"/>
   <path class="animable" d="m247.94,275.62l-4.84,-1.26a10.74,10.74 0 0 0 -3.65,-11.13a9.21,9.21 0 0 1 -5.31,7.13a7.86,7.86 0 0 1 -6.65,-0.42a6.93,6.93 0 0 1 -3.63,-4.72a7.86,7.86 0 0 1 3.87,-8a9.8,9.8 0 0 1 3.66,-1.24a3.51,3.51 0 0 0 -0.36,-0.29a13.38,13.38 0 0 0 -15.08,-0.41l-2.82,-4.13a18.33,18.33 0 0 1 20.94,0.56a14.92,14.92 0 0 1 4.35,5.22a15.83,15.83 0 0 1 9.52,18.72l0,-0.03zm-14.94,-14.79a5.35,5.35 0 0 0 -2.76,0.67a2.93,2.93 0 0 0 -1.52,2.75a2.08,2.08 0 0 0 1.09,1.29a2.93,2.93 0 0 0 2.37,0.2a4.5,4.5 0 0 0 2.32,-4.58l0,-0.2a8.44,8.44 0 0 0 -1.5,-0.13z" fill="rgb(38, 50, 56)" id="elhftl6u9rl4h"/>
   <path class="animable" d="m207.34,182.76a7.84,7.84 0 0 1 1.34,0.71c0.85,0.48 2,1.24 3.48,2.23a61.07,61.07 0 0 1 4.85,3.78a62,62 0 0 1 10.07,11.14a58.32,58.32 0 0 1 3.27,5.19c0.85,1.53 1.49,2.79 1.88,3.69a7.7,7.7 0 0 1 0.57,1.4a8,8 0 0 1 -0.75,-1.31c-0.45,-0.87 -1.13,-2.1 -2,-3.59s-2,-3.24 -3.34,-5.11a67.21,67.21 0 0 0 -10,-11c-1.71,-1.56 -3.36,-2.89 -4.71,-3.89s-2.56,-1.83 -3.38,-2.36a8.61,8.61 0 0 1 -1.28,-0.88z" fill="#214B92" id="elninaic81dd"/>
   <path class="animable" d="m190.42,294.18l0.85,0a0,0 0 0 1 0,0l0,50.51a0,0 0 0 1 0,0l-0.85,0a9,9 0 0 1 -9,-9l0,-32.55a9,9 0 0 1 9,-8.96z" fill="rgb(38, 50, 56)" id="elw7am82gngv"/>
   <path class="animable" d="m335.87,294.18l0.94,0a8.88,8.88 0 0 1 8.88,8.88l0,32.76a8.88,8.88 0 0 1 -8.88,8.88l-0.94,0a0,0 0 0 1 0,0l0,-50.52a0,0 0 0 1 0,0z" fill="rgb(38, 50, 56)" id="el1faxg6prwzg"/>
   <rect class="animable" fill="#214B92" height="109.99" id="el8vge4clgqg" rx="14.12" width="149.39" x="188.69" y="284.32"/>
   <path class="animable" d="m282.39,296a34.23,34.23 0 0 0 -34.23,34.23l68.47,0a34.23,34.23 0 0 0 -34.24,-34.23z" fill="rgb(255, 255, 255)" id="elc9s1u681mke"/>
   <path class="animable" d="m310,328.58c1.44,0 2.74,0 3.68,0a6.73,6.73 0 0 1 1.53,0.1a7.86,7.86 0 0 1 -1.52,0.11c-1,0 -2.25,0 -3.69,0l-3.68,0l-1.12,0a1.75,1.75 0 0 1 -0.41,0a1.26,1.26 0 0 1 0.41,0l1.12,-0.05l3.68,-0.16z" fill="rgb(224, 224, 224)" id="el4ke5r65hs1f"/>
   <path class="animable" d="m307.58,318.23c2.6,-1.24 4.76,-2.11 4.83,-2s-2,1.24 -4.62,2.41a34.84,34.84 0 0 1 -4.83,2a35,35 0 0 1 4.62,-2.41z" fill="rgb(224, 224, 224)" id="elkf8tpi2zik"/>
   <path class="animable" d="m301.16,309.77c1.9,-2.16 3.54,-3.82 3.67,-3.71s-1.35,1.93 -3.29,4.05a33.89,33.89 0 0 1 -3.67,3.7a34.86,34.86 0 0 1 3.29,-4.04z" fill="rgb(224, 224, 224)" id="ela63g4ktoh5i"/>
   <path class="animable" d="m292,304.36a23,23 0 0 1 2.05,-4.79c0.16,0.06 -0.54,2.28 -1.57,5a35.67,35.67 0 0 1 -2.06,4.79a34.19,34.19 0 0 1 1.58,-5z" fill="rgb(224, 224, 224)" id="elojjddwtf7aa"/>
   <path class="animable" d="m281.51,302.58c0,-2.88 0.08,-5.21 0.25,-5.21s0.28,2.33 0.26,5.21a33.85,33.85 0 0 1 -0.26,5.21a33.18,33.18 0 0 1 -0.25,-5.21z" fill="rgb(224, 224, 224)" id="elw8r6ies6de"/>
   <path class="animable" d="m271.05,304.54c-1,-2.69 -1.74,-4.91 -1.58,-5s1.08,2.08 2,4.79a32.38,32.38 0 0 1 1.58,5a34.94,34.94 0 0 1 -2,-4.79z" fill="rgb(224, 224, 224)" id="el7u7y0zai8ju"/>
   <path class="animable" d="m262,310.11c-1.94,-2.12 -3.42,-3.93 -3.29,-4.05s1.77,1.55 3.67,3.71a34.86,34.86 0 0 1 3.29,4a33.89,33.89 0 0 1 -3.67,-3.66z" fill="rgb(224, 224, 224)" id="el18difnytlcm"/>
   <path class="animable" d="m255.73,318.7c-2.63,-1.18 -4.7,-2.26 -4.63,-2.42s2.24,0.72 4.84,2a35.13,35.13 0 0 1 4.62,2.41a34.91,34.91 0 0 1 -4.83,-1.99z" fill="rgb(224, 224, 224)" id="elughtrc3j2li"/>
   <path class="animable" d="m253.55,328.83c-1.44,0 -2.74,0 -3.69,0a7.86,7.86 0 0 1 -1.52,-0.11a6.73,6.73 0 0 1 1.53,-0.1c0.94,0 2.24,0 3.68,0l3.68,0.06l1.12,0.05a1.17,1.17 0 0 1 0.4,0a1.6,1.6 0 0 1 -0.4,0l-1.12,0l-3.68,0.1z" fill="rgb(224, 224, 224)" id="elrk4htyvlsk"/>
   <path class="animable" d="m225.31,302a4.55,4.55 0 1 1 -4.55,-4.54a4.55,4.55 0 0 1 4.55,4.54z" fill="rgb(255, 255, 255)" id="elp3lfxyr86rc"/>
   <path class="animable" d="m225.31,315.7a4.55,4.55 0 1 1 -4.55,-4.54a4.55,4.55 0 0 1 4.55,4.54z" fill="rgb(69, 90, 100)" id="ellz9t7luwod8"/>
   <path class="animable" d="m311.43,384.82s0,-0.29 0,-0.85s0,-1.39 0,-2.45c0,-2.17 0,-5.33 -0.05,-9.38c0,-8.13 -0.06,-19.85 -0.1,-34.3l0.19,0.19l-93.17,0.07l0,0l0.26,-0.26c0,16.57 0,32.46 0,47l-0.25,-0.24l66.92,0.11l19.3,0.07l5.16,0l1.34,0l0.46,0l-0.43,0l-1.31,0l-5.11,0l-19.25,0.07l-67.08,0.12l-0.31,0l0,-0.25c0,-14.52 0,-30.41 0,-47l0,-0.26l0.27,0l93.17,0.07l0.2,0l0,0.19c-0.05,14.5 -0.08,26.26 -0.11,34.41c0,4 0,7.19 0,9.34c0,1.05 0,1.86 0,2.42s-0.1,0.93 -0.1,0.93z" fill="rgb(38, 50, 56)" id="el9evqu68asnb"/>
   <path class="animable" d="m204.1,394.09l118.57,0a0,0 0 0 1 0,0l0,0.59a6.23,6.23 0 0 1 -6.23,6.23l-106.1,0a6.23,6.23 0 0 1 -6.23,-6.23l0,-0.59a0,0 0 0 1 0,0l-0.01,0z" fill="rgb(38, 50, 56)" id="elc78qcyiha3d"/>
   <g id="elgp8wxrp974">
    <g class="animable" id="el1c38d3k2xh6" opacity="0.3">
     <path class="animable" d="m301.47,344.43a2.81,2.81 0 0 0 1.93,3a3.11,3.11 0 0 0 3.39,-1.24a3.49,3.49 0 0 0 0,-3.67a3.48,3.48 0 0 1 -0.78,2.35a2.56,2.56 0 0 1 -2.26,0.88a2,2 0 0 1 -1.69,-1.64" id="elppht512ija"/>
    </g>
   </g>
   <path class="animable" d="m306.81,343.32a2.77,2.77 0 1 1 -2.76,-2.76a2.76,2.76 0 0 1 2.76,2.76z" fill="rgb(224, 224, 224)" id="elegad1smbcfe"/>
   <path class="animable" d="m306.81,343.32a5.24,5.24 0 0 1 -0.18,-0.65a2.78,2.78 0 0 0 -1,-1.4a2.61,2.61 0 0 0 -2.42,-0.32a2.53,2.53 0 0 0 0,4.74a2.61,2.61 0 0 0 2.42,-0.32a2.78,2.78 0 0 0 1,-1.4a6,6 0 0 1 0.18,-0.65s0.09,0.25 0,0.7a2.7,2.7 0 0 1 -1,1.64a2.92,2.92 0 0 1 -2.81,0.48a3,3 0 0 1 0,-5.64a2.92,2.92 0 0 1 2.81,0.48a2.7,2.7 0 0 1 1,1.64c0.09,0.45 0.03,0.7 0,0.7z" fill="rgb(38, 50, 56)" id="elegzwp6uk8xe"/>
   <path class="animable" d="m305.32,342.14c0.05,0.14 -0.6,0.48 -1.21,1.12s-0.93,1.29 -1.07,1.24s0,-0.87 0.7,-1.61s1.55,-0.89 1.58,-0.75z" fill="rgb(38, 50, 56)" id="elu0boi9tm0jr"/>
   <path class="animable" d="m305.32,344.18c-0.12,0.08 -0.58,-0.42 -1.26,-0.87s-1.32,-0.7 -1.29,-0.85s0.81,-0.11 1.58,0.42s1.09,1.24 0.97,1.3z" fill="rgb(38, 50, 56)" id="el8lmdakqwjlu"/>
   <g id="elr1x7fw329i">
    <g class="animable" id="eld54xhlmuh3" opacity="0.3">
     <path class="animable" d="m302.76,378.63a2.83,2.83 0 0 0 1.94,3a3.11,3.11 0 0 0 3.39,-1.24a3.49,3.49 0 0 0 0.05,-3.66a3.43,3.43 0 0 1 -0.79,2.34a2.55,2.55 0 0 1 -2.25,0.88a2,2 0 0 1 -1.7,-1.63" id="el8kpl7ao4sp4"/>
    </g>
   </g>
   <circle class="animable" cx="305.35" cy="377.51" fill="rgb(224, 224, 224)" id="elzv7pt2ialv" r="2.76"/>
   <path class="animable" d="m308.11,377.51c-0.05,0 -0.06,-0.24 -0.19,-0.65a2.74,2.74 0 0 0 -1,-1.4a2.62,2.62 0 0 0 -2.42,-0.32a2.54,2.54 0 1 0 2.42,4.42a2.7,2.7 0 0 0 1,-1.4c0.13,-0.4 0.14,-0.65 0.19,-0.65s0.09,0.25 0,0.7a2.74,2.74 0 0 1 -1,1.65a2.93,2.93 0 0 1 -2.81,0.47a3,3 0 0 1 0,-5.64a3,3 0 0 1 2.81,0.48a2.7,2.7 0 0 1 1,1.64c0.09,0.46 0.03,0.71 0,0.7z" fill="rgb(38, 50, 56)" id="el8vv8yh79boe"/>
   <path class="animable" d="m306.62,376.33c0.05,0.14 -0.61,0.48 -1.21,1.12s-0.93,1.29 -1.08,1.25s0,-0.88 0.7,-1.61s1.56,-0.89 1.59,-0.76z" fill="rgb(38, 50, 56)" id="el85rjdkqq0ux"/>
   <path class="animable" d="m306.62,378.37c-0.13,0.09 -0.59,-0.42 -1.27,-0.87s-1.31,-0.7 -1.28,-0.85s0.8,-0.11 1.58,0.42s1.09,1.24 0.97,1.3z" fill="rgb(38, 50, 56)" id="elgp9o5zrwwdb"/>
   <g id="el34x2iz42xuh">
    <g class="animable" id="el8evuf7faq1h" opacity="0.3">
     <path class="animable" d="m222.38,344.39a2.83,2.83 0 0 0 1.94,3a3.12,3.12 0 0 0 3.39,-1.25a3.49,3.49 0 0 0 0,-3.66a3.45,3.45 0 0 1 -0.79,2.35a2.55,2.55 0 0 1 -2.25,0.88a2,2 0 0 1 -1.7,-1.64" id="elgkjglhpyish"/>
    </g>
   </g>
   <circle class="animable" cx="224.96" cy="343.28" fill="rgb(224, 224, 224)" id="el2vosghwo54v" r="2.76"/>
   <path class="animable" d="m227.73,343.28s-0.06,-0.25 -0.19,-0.65a2.67,2.67 0 0 0 -1,-1.4a2.59,2.59 0 0 0 -2.41,-0.32a2.53,2.53 0 0 0 0,4.74a2.62,2.62 0 0 0 2.42,-0.32a2.7,2.7 0 0 0 1,-1.4c0.13,-0.4 0.14,-0.65 0.19,-0.65a1.21,1.21 0 0 1 0,0.7a2.75,2.75 0 0 1 -1,1.64a2.93,2.93 0 0 1 -2.81,0.48a3,3 0 0 1 0,-5.64a2.93,2.93 0 0 1 2.81,0.48a2.75,2.75 0 0 1 1,1.64a1.21,1.21 0 0 1 -0.01,0.7z" fill="rgb(38, 50, 56)" id="eld6tk3u6iafs"/>
   <path class="animable" d="m226.24,342.1c0,0.14 -0.61,0.48 -1.21,1.12s-0.93,1.29 -1.08,1.24s0,-0.88 0.7,-1.61s1.56,-0.85 1.59,-0.75z" fill="rgb(38, 50, 56)" id="elu60pe1iaxdo"/>
   <path class="animable" d="m226.24,344.14c-0.13,0.08 -0.59,-0.42 -1.27,-0.87s-1.31,-0.7 -1.28,-0.85s0.8,-0.11 1.58,0.41s1.09,1.24 0.97,1.31z" fill="rgb(38, 50, 56)" id="el9enzzv46lee"/>
   <g id="elxgy1zz74ewg">
    <g class="animable" id="elwrrytpyxyrq" opacity="0.3">
     <path class="animable" d="m221.8,378.29a2.8,2.8 0 0 0 1.93,3a3.11,3.11 0 0 0 3.39,-1.24a3.47,3.47 0 0 0 0,-3.66a3.47,3.47 0 0 1 -0.78,2.34a2.57,2.57 0 0 1 -2.26,0.89a2,2 0 0 1 -1.69,-1.64" id="el6phj39uvdcf"/>
    </g>
   </g>
   <circle class="animable" cx="224.38" cy="377.17" fill="rgb(224, 224, 224)" id="elkiba9ygyxhq" r="2.76"/>
   <path class="animable" d="m227.14,377.17s0,-0.24 -0.18,-0.65a2.87,2.87 0 0 0 -1,-1.4a2.61,2.61 0 0 0 -2.42,-0.32a2.54,2.54 0 1 0 2.42,4.42a2.78,2.78 0 0 0 1,-1.4a6,6 0 0 1 0.18,-0.65s0.09,0.25 0,0.7a2.72,2.72 0 0 1 -1,1.65a3,3 0 0 1 -2.81,0.48a3,3 0 0 1 0,-5.65a3,3 0 0 1 2.81,0.48a2.72,2.72 0 0 1 1,1.65c0.09,0.45 0.03,0.7 0,0.69z" fill="rgb(38, 50, 56)" id="ela1of2ir7a8c"/>
   <path class="animable" d="m225.65,376c0,0.14 -0.6,0.48 -1.21,1.12s-0.93,1.29 -1.07,1.25s0,-0.88 0.7,-1.61s1.55,-0.9 1.58,-0.76z" fill="rgb(38, 50, 56)" id="elco0mom0p6iu"/>
   <path class="animable" d="m225.65,378c-0.12,0.08 -0.58,-0.43 -1.26,-0.88s-1.32,-0.7 -1.29,-0.85s0.81,-0.11 1.58,0.42s1.09,1.31 0.97,1.31z" fill="rgb(38, 50, 56)" id="el4918hwfgdjn"/>
   <g id="elziq53eoia3h">
    <g class="animable" id="el53leraqjcro" opacity="0.3">
     <path class="animable" d="m218.25,385.08c10.82,2.35 23.46,2.44 35.15,1.87c5.62,-0.28 11.79,-0.63 16.29,2.76c1,0.74 2.14,1.71 3.3,1.28c1.68,-0.63 1.74,-3.71 3.54,-3.77c0.9,0 1.59,0.83 1.88,1.68a13,13 0 0 0 0.82,2.56c0.46,0.78 1.55,1.3 2.27,0.75c1.14,-0.87 -0.18,-2.74 0.25,-4.11s2.47,-1.53 3.85,-1s2.72,1.54 4.19,1.32a8.19,8.19 0 0 0 2.83,-1.45c2.63,-1.61 5.88,-1.7 9,-1.76c3.25,-0.05 6.6,-0.36 9.85,-0.42l-93.22,0.29z" id="elu6tpomncy1"/>
    </g>
   </g>
   <path class="animable" d="m292.77,349.79a2.22,2.22 0 0 1 -0.51,0.18a11.73,11.73 0 0 0 -1.45,0.49a22,22 0 0 0 -4.88,2.76c-1.95,1.36 -4.1,3.24 -6.83,4.9a15.6,15.6 0 0 1 -4.63,1.93a26.2,26.2 0 0 1 -5.34,0.4c-3.65,0 -6.84,1.48 -9.6,3s-5.29,2.84 -7.26,4.17a26.22,26.22 0 0 0 -4.34,3.56c-0.93,1 -1.36,1.55 -1.4,1.52s0.08,-0.16 0.28,-0.45a14,14 0 0 1 1,-1.21a23.79,23.79 0 0 1 4.28,-3.72a78,78 0 0 1 7.24,-4.3a33.09,33.09 0 0 1 4.52,-2.1a15.5,15.5 0 0 1 5.29,-0.95a26.23,26.23 0 0 0 5.25,-0.38a15.77,15.77 0 0 0 4.5,-1.84c2.68,-1.61 4.87,-3.46 6.86,-4.79a20.61,20.61 0 0 1 5,-2.65a8.71,8.71 0 0 1 1.49,-0.4a2,2 0 0 1 0.53,-0.12z" fill="rgb(38, 50, 56)" id="eljg0sd7ysdi"/>
   <path class="animable" d="m269.06,357.71a13,13 0 0 1 -2.9,-0.45a43.59,43.59 0 0 1 -6.77,-2.1a42.76,42.76 0 0 1 -6.34,-3.16a12.39,12.39 0 0 1 -2.41,-1.69a25.49,25.49 0 0 1 2.59,1.37a59.77,59.77 0 0 0 13,5.23a21,21 0 0 1 2.83,0.8z" fill="rgb(38, 50, 56)" id="ell8cg0uowij"/>
   <path class="animable" d="m284.1,325.07c0.77,-0.41 23.24,-7.64 23.24,-7.64l-21.48,12l-1.76,-4.36z" fill="#214B92" id="elssv0kmdlbc"/>
   <path class="animable" d="m281.76,322.64a7.6,7.6 0 0 0 -7.6,7.6l15.2,0a7.6,7.6 0 0 0 -7.6,-7.6z" fill="rgb(38, 50, 56)" id="el1mupw34218mg"/>
   <path class="animable" d="m205.35,394.09c-0.15,0 -0.26,-24.42 -0.26,-54.54s0.11,-54.55 0.26,-54.55s0.26,24.42 0.26,54.55s-0.12,54.54 -0.26,54.54z" fill="rgb(38, 50, 56)" id="elg9o5fl7jwne"/>
   <path class="animable" d="m324.2,394.09c-0.15,0 -0.26,-24.42 -0.26,-54.54s0.11,-54.55 0.26,-54.55s0.26,24.42 0.26,54.55s-0.12,54.54 -0.26,54.54z" fill="rgb(38, 50, 56)" id="el8uedvafdj56"/>
   <circle class="animable" cx="200.36" cy="298.63" fill="rgb(38, 50, 56)" id="elbjt888btpfc" r="1.17"/>
   <circle class="animable" cx="200.36" cy="320.51" fill="rgb(38, 50, 56)" id="elb311p5lzlrl" r="1.17"/>
   <circle class="animable" cx="200.36" cy="342.4" fill="rgb(38, 50, 56)" id="elsoc8d9hvxd" r="1.17"/>
   <circle class="animable" cx="200.36" cy="364.29" fill="rgb(38, 50, 56)" id="el6p8wkkjf2as" r="1.17"/>
   <circle class="animable" cx="200.36" cy="386.17" fill="rgb(38, 50, 56)" id="elgug66gcw9fu" r="1.17"/>
   <circle class="animable" cx="330.31" cy="298.63" fill="rgb(38, 50, 56)" id="elgd5907fa6mr" r="1.17"/>
   <circle class="animable" cx="330.31" cy="320.51" fill="rgb(38, 50, 56)" id="elc2o3mwevnhl" r="1.17"/>
   <circle class="animable" cx="330.31" cy="342.4" fill="rgb(38, 50, 56)" id="el29805w64afl" r="1.17"/>
   <circle class="animable" cx="330.31" cy="364.29" fill="rgb(38, 50, 56)" id="elkwnbqarh9el" r="1.17"/>
   <circle class="animable" cx="330.31" cy="386.17" fill="rgb(38, 50, 56)" id="el36u3rugwee6" r="1.17"/>
   <rect class="animable" fill="rgb(69, 90, 100)" height="12.04" id="ellil1uqc3tw" width="51.1" x="234.3" y="272.27"/>
   <path class="animable" d="m238,284.32a32.12,32.12 0 0 1 -0.26,-5.82a32,32 0 0 1 0.26,-5.81a33.09,33.09 0 0 1 0.26,5.81a33.25,33.25 0 0 1 -0.26,5.82z" fill="rgb(38, 50, 56)" id="el0bdsqzuopfc9"/>
   <path class="animable" d="m243.23,284.32a33.25,33.25 0 0 1 -0.26,-5.82a33.09,33.09 0 0 1 0.26,-5.81a32,32 0 0 1 0.26,5.81a32.12,32.12 0 0 1 -0.26,5.82z" fill="rgb(38, 50, 56)" id="elo8p7oznlej"/>
   <path class="animable" d="m248.48,284.32a33.25,33.25 0 0 1 -0.26,-5.82a33.09,33.09 0 0 1 0.26,-5.81a33.09,33.09 0 0 1 0.26,5.81a33.25,33.25 0 0 1 -0.26,5.82z" fill="rgb(38, 50, 56)" id="el12p6i15opv1"/>
   <path class="animable" d="m253.73,284.32a32.12,32.12 0 0 1 -0.26,-5.82a32,32 0 0 1 0.26,-5.81a33.09,33.09 0 0 1 0.26,5.81a33.25,33.25 0 0 1 -0.26,5.82z" fill="rgb(38, 50, 56)" id="elz9ftu7sfwi"/>
   <path class="animable" d="m259,284.32a33.25,33.25 0 0 1 -0.26,-5.82a33.09,33.09 0 0 1 0.26,-5.81a32,32 0 0 1 0.26,5.81a32.12,32.12 0 0 1 -0.26,5.82z" fill="rgb(38, 50, 56)" id="el5uslhnh096s"/>
   <path class="animable" d="m264.22,284.32a33.25,33.25 0 0 1 -0.26,-5.82a33.09,33.09 0 0 1 0.26,-5.81a33.09,33.09 0 0 1 0.26,5.81a33.25,33.25 0 0 1 -0.26,5.82z" fill="rgb(38, 50, 56)" id="el0ur7x9agjoki"/>
   <path class="animable" d="m269.47,284.32a32.12,32.12 0 0 1 -0.26,-5.82a32,32 0 0 1 0.26,-5.81a33.09,33.09 0 0 1 0.26,5.81a33.25,33.25 0 0 1 -0.26,5.82z" fill="rgb(38, 50, 56)" id="el4rqsnkltivv"/>
   <path class="animable" d="m274.71,284.32a33.25,33.25 0 0 1 -0.26,-5.82a33.09,33.09 0 0 1 0.26,-5.81a32,32 0 0 1 0.26,5.81a32.12,32.12 0 0 1 -0.26,5.82z" fill="rgb(38, 50, 56)" id="elc152mgezva8"/>
   <path class="animable" d="m280,284.32a33.25,33.25 0 0 1 -0.26,-5.82a33.09,33.09 0 0 1 0.26,-5.81a33.09,33.09 0 0 1 0.26,5.81a33.25,33.25 0 0 1 -0.26,5.82z" fill="rgb(38, 50, 56)" id="eld454z5ml4ga"/>
   <g id="elr8rj637dnlc">
    <g class="animable" id="eldlqxm4n6jw" opacity="0.3">
     <path class="animable" d="m345.68,310.42c1.24,6.26 2.39,12.16 3.62,18.42a26.7,26.7 0 0 1 -3.62,0c0,-6 0,-12.41 0,-18.41" id="elc1aj42wrzg"/>
    </g>
   </g>
   <path class="animable" d="m192.15,296.05c0.14,0 0,18.68 -0.35,41.71s-0.71,41.7 -0.86,41.7s0,-18.67 0.34,-41.71s0.72,-41.7 0.87,-41.7z" fill="rgb(255, 255, 255)" id="eldegoe0brdp4"/>
   <path class="animable" d="m213.89,382c-0.15,0 -0.26,-9.3 -0.26,-20.77s0.11,-20.77 0.26,-20.77s0.26,9.3 0.26,20.77s-0.15,20.77 -0.26,20.77z" fill="rgb(255, 255, 255)" id="elsdk3lcsxv3g"/>
   <path class="animable" d="m312.1,287.68c0,0.15 -22.93,0.26 -51.2,0.26s-51.2,-0.11 -51.2,-0.26s22.92,-0.26 51.2,-0.26s51.2,0.12 51.2,0.26z" fill="rgb(255, 255, 255)" id="elat9j64c6v59"/>
  </g>
  <g class="animable animator-hidden" id="freepik--Floor--inject-26">
   <path class="animable" d="m462.62,475.16c0,0.14 -95.2,0.26 -212.61,0.26s-212.63,-0.12 -212.63,-0.26s95.18,-0.26 212.63,-0.26s212.61,0.1 212.61,0.26z" fill="rgb(38, 50, 56)" id="els6kghes3slr"/>
  </g>
  <path fill="#FF0000" id="svg_1" stroke="#000000" stroke-width="5" transform="matrix(1 0 0 1 0 0)"/>
 </g>
</svg>